<svg width="127" height="159" viewBox="0 0 127 159" fill="none" xmlns="http://www.w3.org/2000/svg">
<path fill-rule="evenodd" clip-rule="evenodd" d="M44.9482 31.1321C44.8498 31.1321 44.7514 31.2309 44.653 31.2309C40.6177 32.3177 36.5825 33.207 32.5472 34.1951H32.252C32.6456 35.3807 33.1377 36.6652 33.7283 37.8509C33.9251 37.7521 34.1219 37.6533 34.4172 37.5544C38.5509 36.6652 42.8814 36.5664 46.9166 35.5783C46.3261 33.9965 45.6372 32.6142 44.9482 31.1321Z" fill="#3B3734"/>
<path fill-rule="evenodd" clip-rule="evenodd" d="M38.5511 19.6702C38.4527 19.8678 38.1575 19.9676 37.8622 20.0654C36.5827 20.264 35.1064 20.3618 33.9254 20.8558C33.2364 21.1523 32.4491 20.9556 32.0554 20.4616C31.7601 22.2401 31.5633 23.9198 31.4648 25.6983C34.6143 25.1045 37.7638 24.6105 40.7164 23.5236C40.0274 22.2401 39.2401 20.9556 38.5511 19.6702Z" fill="#3B3734"/>
<path fill-rule="evenodd" clip-rule="evenodd" d="M50.3618 41.705C49.7132 41.9314 49.0627 42.1143 48.4102 42.2754C48.4702 42.2813 48.5302 42.2932 48.5903 42.2982C49.4761 42.0016 50.4603 41.8039 51.4445 41.5073C51.3923 41.2967 51.3342 41.0703 51.2811 40.8499C51.1305 41.2572 50.8254 41.5883 50.3618 41.705Z" fill="#F73859"/>
<path fill-rule="evenodd" clip-rule="evenodd" d="M50.7559 39.0367C50.9724 39.6166 51.1318 40.2421 51.2805 40.8497C51.3867 40.5662 51.4271 40.251 51.3464 39.9249C51.2204 39.3054 51.0669 38.6948 50.9015 38.0891C50.7106 38.3806 50.6279 38.7165 50.7559 39.0367Z" fill="#F73859"/>
<path fill-rule="evenodd" clip-rule="evenodd" d="M41.6016 40.9137C43.9037 41.4918 46.1123 42.0629 48.4094 42.2753C49.0619 42.1133 49.7125 41.9314 50.3611 41.7042C50.8246 41.5876 51.1307 41.2566 51.2803 40.8495C51.1317 40.2419 50.9723 39.6164 50.7557 39.0364C50.6278 38.7163 50.7105 38.3804 50.9014 38.0889C47.4646 25.4605 36.0861 15.66 35.9926 2.08312C35.9926 0.502225 33.4327 0.00819641 33.1375 1.68789C30.8748 14.7302 24.4774 30.0451 32.8432 41.9018C32.5666 42.1795 32.4692 42.5618 32.4918 42.9452C34.9041 42.6873 37.3174 42.5816 39.7326 42.3958C39.5348 41.5066 40.4216 40.6173 41.6016 40.9137Z" fill="#3B3734"/>
<path fill-rule="evenodd" clip-rule="evenodd" d="M33.7283 37.8509C33.1377 36.6652 32.6456 35.3807 32.252 34.1951H32.5482C36.5825 33.207 40.6177 32.3177 44.6539 31.2309C44.7514 31.2309 44.8508 31.1321 44.9482 31.1321C45.6381 32.6142 46.3271 33.9974 46.9166 35.5783C42.8824 36.5664 38.5509 36.6652 34.4172 37.5544C34.1219 37.6533 33.9251 37.7521 33.7283 37.8509Z" fill="white"/>
<path fill-rule="evenodd" clip-rule="evenodd" d="M32.0564 20.4611C32.4491 20.9551 33.2364 21.1527 33.9254 20.8563C35.1064 20.3623 36.5827 20.2635 37.8622 20.0659C38.1575 19.9671 38.4537 19.8683 38.5511 19.6707C39.2411 20.9551 40.0274 22.2396 40.7174 23.5241C37.7648 24.6109 34.6143 25.105 31.4648 25.6978C31.5642 23.9193 31.7601 22.2396 32.0564 20.4611Z" fill="white"/>
<path fill-rule="evenodd" clip-rule="evenodd" d="M34.3189 44.3715C34.5157 44.3715 34.7116 44.2727 34.811 44.2727C35.4015 44.6689 36.1879 44.4713 36.5826 43.8775C40.546 43.1997 44.5094 43.2402 48.4088 42.2749C46.1116 42.0624 43.9031 41.4913 41.601 40.9133C40.421 40.6169 39.5352 41.5071 39.732 42.3954C37.3178 42.5812 34.9045 42.6869 32.4922 42.9458C32.5404 43.7925 33.2343 44.6432 34.3189 44.3715Z" fill="#F73859"/>
<path fill-rule="evenodd" clip-rule="evenodd" d="M74.3773 36.5669C74.4747 37.0609 74.6725 37.5549 74.77 38.049C76.7384 37.4551 78.7068 37.1587 80.4784 36.3683C80.6172 36.311 80.7589 36.2744 80.9026 36.2497C79.6074 36.0531 78.3161 35.8159 77.0337 35.479C77.6252 33.9969 78.2147 32.5148 79.0021 31.0328C79.1015 31.0328 79.1989 31.1326 79.2983 31.1326C83.3326 32.2184 87.3678 33.1087 91.4041 34.0967H91.6983C91.3047 35.3802 90.912 36.5669 90.222 37.7525C90.0252 37.5549 89.8284 37.4551 89.5331 37.4551C87.0657 36.9828 84.5628 36.7556 82.0669 36.4196C82.6102 36.6884 82.9566 37.2061 82.743 37.8504C82.5462 38.7406 82.4468 39.7286 82.3484 40.6169C83.9231 40.6169 85.4988 40.7167 87.0726 40.3205C88.1562 40.1229 88.9436 40.8145 89.041 41.605C89.2378 42.4952 89.2378 43.1868 89.2378 43.9773C89.7417 44.0553 90.2653 44.1522 90.788 44.249C91.5989 43.7985 91.8598 42.5574 91.2062 41.9014C99.572 30.1445 93.1747 14.7298 90.912 1.68846C90.6167 0.00876516 88.0568 0.502794 88.0568 2.0827C87.9682 14.8602 77.885 24.2922 73.832 35.8841C74.1037 36.0383 74.3153 36.2596 74.3773 36.5669ZM91.8956 20.4613C91.5019 20.9553 90.812 21.1519 90.0256 20.8555C88.7462 20.3615 87.3673 20.3615 86.0888 20.0661C85.7935 19.9673 85.5967 19.8675 85.3989 19.6699C84.7109 20.9553 84.022 22.2398 83.2346 23.5243C86.1872 24.6101 89.3357 25.1042 92.4861 25.698C92.3877 23.9195 92.1909 22.2398 91.8956 20.4613Z" fill="#3B3734"/>
<path fill-rule="evenodd" clip-rule="evenodd" d="M85.3996 19.6702C85.5965 19.8678 85.7933 19.9676 86.0886 20.0654C87.368 20.3618 88.7459 20.3618 90.0254 20.8558C90.8128 21.1523 91.5017 20.9556 91.8964 20.4616C92.1907 22.2401 92.3885 23.9198 92.4859 25.6983C89.3365 25.1045 86.188 24.6105 83.2354 23.5236C84.0227 22.2401 84.7117 20.9556 85.3996 19.6702Z" fill="white"/>
<path fill-rule="evenodd" clip-rule="evenodd" d="M90.2226 37.7525C90.9115 36.5668 91.3052 35.3812 91.6989 34.0967H91.4036C87.3684 33.1086 83.3331 32.2184 79.2979 31.1325C79.1994 31.1325 79.101 31.0327 79.0026 31.0327C78.2152 32.5148 77.6247 33.9969 77.0342 35.479C78.3156 35.8159 79.6079 36.053 80.9021 36.2497C81.3165 36.1805 81.7279 36.2526 82.0674 36.4196C84.5634 36.7555 87.0662 36.9838 89.5336 37.4551C89.8289 37.4551 90.0257 37.5549 90.2226 37.7525Z" fill="white"/>
<path fill-rule="evenodd" clip-rule="evenodd" d="M126.637 92.9837C124.866 91.4038 123.291 89.6253 121.913 87.748C122.307 87.3518 122.405 86.7599 122.012 86.2659C120.143 84.191 118.174 82.2149 120.635 79.4473C121.127 78.9533 120.831 78.2626 120.437 77.8674C118.666 76.0889 117.878 74.013 116.303 72.2345C116.698 72.1367 117.19 72.0369 117.682 71.9391C118.666 71.8403 119.158 70.6546 118.567 70.0608C116.992 68.1845 115.811 66.8002 113.745 66.0107C114.63 65.0227 115.024 64.0346 115.122 63.1444C117.976 60.3778 120.535 57.3158 121.815 53.2638C124.669 44.3713 121.716 33.8001 119.059 25.3018C118.666 24.1161 116.992 23.8197 116.402 24.9076C110.989 33.8989 99.9664 36.9609 93.1744 44.6687C92.3988 44.5492 91.5918 44.398 90.7867 44.2488C90.4983 44.4098 90.143 44.476 89.7296 44.3713C89.6322 44.3713 89.4344 44.2735 89.2375 44.2735C88.648 44.6687 87.8596 44.3713 87.466 43.8773C82.8402 43.0868 78.116 43.1866 73.6871 41.7045C72.9007 41.5069 72.506 40.7165 72.7029 39.9251C72.9853 38.5447 73.3711 37.201 73.8317 35.8839C73.2274 35.541 72.2915 35.5648 71.8171 35.9728C68.8644 38.5428 65.5191 38.937 62.2703 36.5666C61.3845 35.875 60.106 36.1704 59.7113 37.1585C58.0382 41.1107 54.6929 38.6406 53.0187 37.5547C52.2205 37.0864 51.3013 37.4826 50.9017 38.0892C51.067 38.6949 51.2196 39.3055 51.3456 39.9251C51.4263 40.2501 51.3859 40.5663 51.2806 40.8499C51.3338 41.0702 51.3918 41.2965 51.444 41.5069C50.4598 41.8033 49.4756 42.001 48.5898 42.2974C48.5298 42.2924 48.4697 42.2806 48.4097 42.2747C44.5093 43.241 40.5468 43.2005 36.5825 43.8773C36.1888 44.4711 35.4014 44.6687 34.8109 44.2735C34.7125 44.2735 34.5166 44.3713 34.3188 44.3713C33.2352 44.644 32.5413 43.7923 32.4921 42.9455C32.3464 42.9604 32.2008 42.9722 32.0561 42.989C29.5956 40.1227 26.643 37.6525 23.9846 35.5786C17.6857 30.8359 9.61519 25.698 1.44627 25.8956C0.462062 25.8956 -0.226883 26.7839 0.0693631 27.772C3.02198 38.6406 1.74153 57.9077 14.1425 63.1444C12.0757 64.8241 10.4035 66.7024 9.41933 69.2703C8.92723 70.457 10.5994 71.2465 11.682 70.7524C11.7804 70.6546 11.8798 70.6546 12.0757 70.5548C10.7962 72.7285 9.51677 74.9033 8.13888 77.077C7.35151 78.3615 9.41933 79.8435 10.5994 78.6569C10.9931 78.2626 11.3877 78.065 11.7804 77.7686C11.1899 79.9414 11.0915 82.1151 11.4852 84.3876C11.5836 84.8816 12.1741 85.2778 12.7647 85.2778C11.8798 87.3518 10.6978 89.4277 9.61519 91.5016C9.12308 92.3919 9.71361 93.3799 10.7962 93.4777C9.41933 96.4419 7.94302 99.3083 6.66257 102.272C6.17046 103.458 7.84362 104.249 8.92723 103.755C9.31993 103.557 9.71361 103.358 10.1073 103.26C9.71361 105.334 9.91143 107.41 10.0089 109.583C10.0089 110.869 11.5836 111.165 12.6662 110.473C13.0599 110.275 13.3562 110.077 13.7489 109.781C13.2568 111.857 13.1583 114.029 13.552 116.203C13.6504 117.093 15.0283 117.39 15.8167 116.993C14.3404 119.958 12.5678 122.922 11.3877 125.986C10.9931 127.072 12.5678 127.962 13.6504 127.468C14.3404 127.171 15.0283 126.776 15.7173 126.48C14.8325 129.444 13.1583 132.308 12.0757 135.273C11.5836 136.558 13.552 137.348 14.6346 136.558C14.9299 136.36 15.2252 136.064 15.6189 135.866C15.3246 137.249 15.1267 138.633 14.8325 140.016C14.5362 141.301 16.2094 142.189 17.3904 141.301C17.5873 141.103 17.8825 140.904 18.1778 140.807C17.1936 142.881 16.5046 144.956 16.0125 147.327C15.8167 148.415 16.9967 149.897 18.1778 149.008C18.4731 148.809 18.6699 148.611 18.9652 148.513C18.8667 149.599 18.6699 150.687 18.4731 151.773C18.1778 153.157 19.8509 154.442 20.9336 153.255C21.4257 152.761 21.8194 152.267 22.3115 151.873V152.267C22.3115 153.355 23.5909 154.145 24.5751 153.552C25.5593 152.96 26.5436 152.267 27.4293 151.575C27.4293 152.169 27.4293 152.761 27.3309 153.355C27.1351 154.639 28.7088 156.122 29.7914 154.837C30.382 154.046 31.0719 153.355 31.7598 152.663C33.0403 156.319 36.6809 157.207 39.043 154.145C39.6335 155.331 40.224 156.418 40.6177 157.604C41.1098 158.986 42.8824 158.986 43.4719 157.604C44.0624 155.924 44.7514 154.343 45.3429 152.663C46.2277 153.948 47.3113 155.133 48.3929 156.319C49.0819 157.11 50.6566 156.813 50.8535 155.628C50.9519 155.133 51.0503 154.737 51.1487 154.343C51.444 154.936 51.6408 155.528 51.9361 156.122C52.3298 157.307 54.0029 157.701 54.5934 156.516C55.3808 155.133 56.0698 153.849 56.5619 152.564C57.7429 153.454 59.1218 154.243 60.4003 155.133C61.2861 155.725 62.2703 155.034 62.5665 154.243C62.7624 153.749 62.9592 153.355 63.0586 152.861C64.0428 154.343 65.2229 155.627 66.7976 156.616C67.3881 157.01 68.4718 156.813 68.8645 156.122C69.3566 155.034 69.8487 154.046 70.2423 153.058C71.6202 154.243 73.0965 155.231 74.6713 156.219C75.4586 156.616 76.7381 156.319 76.8375 155.331C76.935 154.442 77.1318 153.749 77.2302 152.96C78.7065 154.639 80.3797 156.122 82.5449 157.207C83.4317 157.604 84.4159 157.307 84.7112 156.319C85.0054 155.231 85.4001 154.343 85.6954 153.355C86.9739 154.837 88.648 155.825 90.8133 156.319C91.7975 156.516 92.5848 155.825 92.6823 154.936C92.7817 153.651 92.9775 152.564 93.0769 151.379C94.3554 152.466 95.7343 153.454 97.308 154.243C98.1948 154.639 99.179 154.343 99.4743 153.355C99.7686 152.267 100.064 151.181 100.163 150.193C101.443 151.279 102.82 152.169 104.493 152.861C105.576 153.355 106.561 151.972 106.264 151.081C106.264 150.885 106.166 150.687 106.166 150.587C107.348 151.478 108.626 152.169 110.005 152.761C110.99 153.157 112.269 152.663 112.269 151.478C112.269 150.885 112.269 150.291 112.171 149.797C113.253 150.291 114.434 150.687 115.811 150.984C117.19 151.279 117.976 149.996 117.484 148.809C116.599 146.735 115.516 144.759 114.04 143.079V142.683C113.942 142.486 113.942 142.189 113.843 141.992C114.827 141.992 115.811 141.201 115.418 140.313C115.319 140.115 115.222 139.819 115.123 139.621C116.107 139.719 117.19 138.831 116.795 138.04C116.008 136.558 115.615 134.976 114.926 133.494C115.418 133.594 115.811 133.693 116.206 133.89C117.387 134.187 118.371 133.199 118.174 132.308C117.976 131.814 117.879 131.32 117.78 130.826C118.863 131.618 120.535 130.63 120.24 129.444L118.863 124.701C119.651 124.898 120.339 124.998 121.127 125.294C122.504 125.689 123.488 124.306 122.897 123.416C121.619 121.44 120.832 119.464 120.339 117.488C120.535 117.587 120.635 117.587 120.832 117.685C121.913 118.179 123.685 117.39 123.095 116.203C122.405 114.821 122.012 113.339 121.619 111.955C122.308 111.659 122.603 110.769 122.208 110.077C121.421 108.793 121.127 107.509 120.732 106.125C121.52 105.928 122.012 105.334 121.716 104.643C121.127 103.458 120.732 102.173 120.437 100.988C120.832 101.185 121.127 101.284 121.52 101.482C122.701 101.976 124.177 101.185 123.784 99.9999C123.193 98.0238 122.405 96.1465 121.52 94.2682C122.701 94.5656 123.882 95.0596 124.964 95.6525C126.145 95.9479 127.72 93.9718 126.637 92.9837Z" fill="#F73859"/>
<path fill-rule="evenodd" clip-rule="evenodd" d="M111.678 54.0552C110.595 55.5373 107.938 54.154 109.119 52.5731C111.186 49.7078 112.071 46.051 111.481 42.5928C108.627 44.6687 105.872 46.7436 103.115 48.8175C101.639 50.0032 100.163 47.3354 101.639 46.2496C104.985 43.7794 108.332 41.2105 111.678 38.8391C112.564 38.2463 113.548 38.937 113.843 39.7284C115.516 44.3713 114.63 50.103 111.678 54.0552Z" fill="#3B3734"/>
<path fill-rule="evenodd" clip-rule="evenodd" d="M110.398 93.4778C110.3 94.2682 109.808 94.9598 108.921 94.9598C108.232 94.9598 107.347 94.2682 107.445 93.4778C107.642 92.2921 107.642 91.2062 107.642 90.0195C107.642 88.1432 110.594 88.1432 110.594 90.0195C110.594 91.2062 110.594 92.2921 110.398 93.4778Z" fill="white"/>
<path fill-rule="evenodd" clip-rule="evenodd" d="M101.54 91.8977C101.54 90.0194 104.493 90.0194 104.493 91.8977C104.493 93.28 104.591 94.5655 104.69 96.0476C104.788 96.838 103.903 97.5296 103.213 97.5296C102.327 97.5296 101.835 96.838 101.737 96.0476C101.54 94.6643 101.54 93.28 101.54 91.8977Z" fill="white"/>
<path fill-rule="evenodd" clip-rule="evenodd" d="M102.229 119.464C102.13 119.563 102.032 119.661 101.835 119.661C93.2726 121.637 84.5131 120.946 75.8531 120.946C65.2226 120.946 54.6926 121.046 44.0622 121.44H43.8663C40.9137 121.54 38.3538 122.034 35.4012 121.342C35.3027 121.342 35.1059 121.243 35.0085 121.143C30.5795 120.354 27.2322 116.994 25.8544 112.647C25.2638 110.869 28.119 110.077 28.7086 111.857C29.6928 114.92 31.858 117.291 34.8106 118.081C35.6964 115.117 36.6806 112.251 37.7633 109.386C38.1569 108.299 39.8301 107.707 40.4216 108.991C41.5033 111.461 43.078 113.535 44.4559 115.809C45.8347 113.339 47.4085 111.065 48.4911 108.497C48.8848 107.607 50.2637 107.607 50.8532 108.201C53.5106 110.671 55.1847 114.029 58.0379 116.303C59.5142 114.029 60.7937 111.659 62.3684 109.485C63.0584 108.595 64.2384 108.497 64.9274 109.485C66.6005 112.053 68.6674 113.932 71.0295 115.809C73.0963 113.041 74.8689 110.077 76.9347 107.41C77.6237 106.619 78.8057 107.015 79.2978 107.707C81.0684 110.671 82.9384 113.535 85.5957 115.611C87.5641 112.845 89.0405 109.781 91.501 107.41C91.8947 107.015 92.682 106.817 93.2726 107.213C96.7173 109.683 98.8825 113.141 100.851 116.797C104 116.105 106.756 113.635 106.658 110.275C106.559 108.398 109.512 108.398 109.61 110.275C109.709 114.623 106.461 118.179 102.229 119.464Z" fill="#3B3734"/>
<path fill-rule="evenodd" clip-rule="evenodd" d="M103.705 141.597C103.705 140.115 103.411 138.731 102.919 137.348C102.328 135.57 105.182 134.778 105.772 136.558C106.364 138.237 106.658 139.916 106.658 141.597C106.658 143.474 103.705 143.474 103.705 141.597Z" fill="white"/>
<path fill-rule="evenodd" clip-rule="evenodd" d="M97.9982 135.766C97.3083 136.163 96.3241 135.964 95.9304 135.272C95.3398 134.186 94.9462 133 94.7493 131.814C94.5535 131.024 94.8477 130.234 95.7335 130.036C96.4225 129.838 97.4067 130.234 97.5061 131.024C97.6035 132.012 97.8988 132.902 98.2925 133.79C98.5877 134.482 98.4903 135.372 97.9982 135.766Z" fill="white"/>
<path fill-rule="evenodd" clip-rule="evenodd" d="M86.2848 144.165C85.5958 144.363 84.6116 143.968 84.5132 143.177C84.4148 142.289 84.3163 141.301 84.2189 140.41C84.0211 139.621 84.3163 138.831 85.2031 138.633C85.8911 138.434 86.8753 138.831 86.9737 139.621C87.0721 140.51 87.0721 141.597 87.269 142.387C87.3674 143.177 87.0721 143.968 86.2848 144.165Z" fill="white"/>
<path fill-rule="evenodd" clip-rule="evenodd" d="M69.0606 139.719C68.1748 139.719 67.6827 139.028 67.5843 138.236C67.4869 136.854 67.2891 135.47 67.2891 133.988C67.2891 132.111 70.2417 132.111 70.2417 133.988C70.2417 135.47 70.4395 136.854 70.5369 138.236C70.6354 139.028 69.7496 139.719 69.0606 139.719Z" fill="white"/>
<path fill-rule="evenodd" clip-rule="evenodd" d="M47.1138 147.229C47.1138 149.105 44.1611 149.105 44.1611 147.229V145.253C44.1611 143.277 47.1138 143.277 47.1138 145.253V147.229Z" fill="white"/>
<path fill-rule="evenodd" clip-rule="evenodd" d="M39.6332 136.458C39.6332 135.272 39.6332 133.988 39.4374 132.704C39.338 131.914 40.2238 131.222 40.9137 131.222C41.7985 131.222 42.2906 131.914 42.39 132.704C42.4874 133.988 42.4874 135.175 42.5858 136.458C42.5858 138.336 39.6332 138.336 39.6332 136.458Z" fill="white"/>
<path fill-rule="evenodd" clip-rule="evenodd" d="M32.5483 143.573C32.5483 145.45 29.5957 145.45 29.5957 143.573V140.41C29.5957 138.534 32.5483 138.534 32.5483 140.41V143.573Z" fill="white"/>
<path fill-rule="evenodd" clip-rule="evenodd" d="M24.5753 85.8695C23.6905 85.8695 23.1984 85.1789 23.099 84.3875C23.0006 82.8076 22.8037 81.2267 22.8037 79.6448C22.8037 77.7685 25.7563 77.7685 25.7563 79.6448C25.8548 81.2267 25.9532 82.9054 26.0516 84.3875C26.151 85.1789 25.3626 85.8695 24.5753 85.8695Z" fill="white"/>
<path fill-rule="evenodd" clip-rule="evenodd" d="M27.627 76.1866C28.4133 75.8911 29.2007 76.3852 29.3975 77.1746C29.5954 77.7685 29.5954 78.4591 29.6928 79.3493C29.6928 81.2267 26.7402 81.2267 26.7402 79.3493V78.5589V78.3613V78.2625C26.7402 78.1627 26.6427 78.0649 26.6427 77.9651C26.3465 77.2744 26.8386 76.3852 27.627 76.1866Z" fill="white"/>
<path fill-rule="evenodd" clip-rule="evenodd" d="M39.2397 97.1343C39.2397 98.0236 39.2397 99.0116 39.3381 99.8999C39.535 100.69 39.1413 101.482 38.2555 101.678C37.5666 101.876 36.5824 101.482 36.4849 100.69C36.2871 99.5056 36.2871 98.32 36.2871 97.1343C36.2871 95.256 39.2397 95.256 39.2397 97.1343Z" fill="white"/>
<path fill-rule="evenodd" clip-rule="evenodd" d="M41.7006 51.5849C42.0943 49.7076 44.9485 50.4971 44.5548 52.3754C44.4564 52.8694 44.4564 53.3634 44.4564 53.8575C45.1453 52.2756 47.7043 53.067 47.1137 54.8455C46.8194 55.8336 46.9169 56.8216 47.0153 57.9075C47.1137 58.698 46.2279 59.3896 45.539 59.3896C44.6532 59.3896 44.1611 58.698 44.0627 57.9075V57.4135C43.2753 58.2039 41.5037 57.9075 41.5037 56.4254C41.5037 54.7457 41.4063 53.1658 41.7006 51.5849Z" fill="white"/>
<path fill-rule="evenodd" clip-rule="evenodd" d="M53.9043 73.8164C54.0027 73.7166 54.0027 73.6187 54.1012 73.519C54.8885 72.6307 56.0696 73.0249 56.6611 73.8164C56.7585 73.9152 56.7585 74.013 56.8569 74.1128C56.9554 74.2106 57.0538 74.2106 57.1532 74.3104C57.7427 74.7046 57.9396 75.2984 57.8412 75.8913C58.3333 77.1748 58.4317 78.6568 58.038 80.0411C57.9396 80.2387 57.9396 80.4353 57.8412 80.633V80.8316C57.8412 81.0292 57.7427 81.2268 57.5459 81.4234C56.7585 82.7089 55.5775 83.8935 54.0027 83.3017C50.1643 82.0172 50.9517 75.1986 53.9043 73.8164Z" fill="#3B3734"/>
<path fill-rule="evenodd" clip-rule="evenodd" d="M64.5348 94.9598C65.2227 94.6643 66.1085 95.1584 66.3054 95.9478C66.4038 96.7383 66.5032 97.5297 66.6006 98.3202C66.6006 100.196 63.648 100.196 63.648 98.3202C63.648 97.7263 63.648 97.2323 63.5506 96.7383C63.3528 95.9478 63.7464 95.1584 64.5348 94.9598Z" fill="white"/>
<path fill-rule="evenodd" clip-rule="evenodd" d="M71.3251 73.8164C71.4245 73.7166 71.4245 73.6187 71.5219 73.519C72.3093 72.6307 73.4903 73.0249 74.0809 73.8164C74.1793 73.9152 74.1793 74.013 74.2777 74.1128C74.3771 74.2106 74.4745 74.2106 74.573 74.3104C75.1635 74.7046 75.3613 75.2984 75.2619 75.8913C75.754 77.1748 75.8534 78.6568 75.4588 80.0411C75.3613 80.2387 75.3613 80.4353 75.2619 80.633V80.8316C75.2619 81.0292 75.1635 81.2268 74.9667 81.4234C74.1793 82.7089 72.9982 83.8935 71.4245 83.3017C67.5851 82.0172 68.3725 75.1986 71.3251 73.8164Z" fill="#3B3734"/>
<path fill-rule="evenodd" clip-rule="evenodd" d="M84.5133 57.0195C84.8085 58.6982 85.0054 60.4777 85.0054 62.1564C85.0054 64.0347 82.0528 64.0347 82.0528 62.1564C82.0528 60.6743 81.9543 59.292 81.6591 57.81C81.2664 55.9317 84.1196 55.1422 84.5133 57.0195Z" fill="white"/>
<path fill-rule="evenodd" clip-rule="evenodd" d="M90.9112 74.3103C91.6012 74.0129 92.486 74.5069 92.6828 75.2984C92.7812 76.1866 92.8797 77.1747 92.9781 77.9651C93.1749 78.7566 92.7812 79.547 91.9939 79.7446C91.3049 79.9413 90.3207 79.547 90.2223 78.7566C90.1249 77.8673 90.0255 76.7805 89.927 76.0888C89.7302 75.2984 90.1249 74.5069 90.9112 74.3103Z" fill="white"/>
<path fill-rule="evenodd" clip-rule="evenodd" d="M17.0948 48.1269C15.2248 45.9531 13.3557 43.8772 11.3873 41.9011C11.1895 43.7794 11.3873 45.5569 11.9769 47.3354C12.5674 49.1149 9.7132 49.9054 9.12267 48.1269C8.23689 45.5569 8.13847 42.8892 8.63057 40.2224C8.82741 39.3332 9.61478 39.0367 10.3037 39.2344C10.7958 38.5427 11.78 38.1465 12.5674 38.9369C14.8321 41.2105 17.0948 43.5808 19.1616 46.051C20.3426 47.4352 18.2768 49.609 17.0948 48.1269Z" fill="#3B3734"/>
<path fill-rule="evenodd" clip-rule="evenodd" d="M73.6877 41.7044C78.1166 43.1865 82.8408 43.0867 87.4666 43.8772C87.8593 44.3712 88.6476 44.6686 89.2382 44.2734C89.435 44.2734 89.6318 44.3712 89.7303 44.3712C90.1436 44.4759 90.4989 44.4097 90.7873 44.2487C90.2657 44.1528 89.7421 44.055 89.2382 43.977C89.2382 43.1865 89.2382 42.4949 89.0413 41.6046C88.9429 40.8152 88.1555 40.1226 87.0729 40.3212C85.4982 40.7164 83.9225 40.6166 82.3487 40.6166C82.4462 39.7283 82.5456 38.7403 82.7424 37.851C82.956 37.2058 82.6095 36.6881 82.0672 36.4193C81.6785 36.3679 81.2907 36.3087 80.9019 36.2494C80.7592 36.2741 80.6165 36.3106 80.4777 36.3689C78.7071 37.1584 76.7387 37.4548 74.7703 38.0486C74.6719 37.5546 74.4751 37.0606 74.3766 36.5665C74.3156 36.2593 74.104 36.0389 73.8314 35.8838C73.3718 37.2009 72.985 38.5446 72.7035 39.9249C72.5066 40.7164 72.9003 41.5068 73.6877 41.7044Z" fill="#F73859"/>
<path fill-rule="evenodd" clip-rule="evenodd" d="M80.9014 36.25C81.2901 36.3093 81.6779 36.3677 82.0667 36.42C81.7271 36.253 81.3157 36.1808 80.9014 36.25Z" fill="white"/>
<path fill-rule="evenodd" clip-rule="evenodd" d="M92.6829 110.571C90.616 112.943 89.2382 115.709 87.3682 118.179C90.9113 118.082 94.4545 117.982 97.8008 117.389C96.4229 114.919 94.8481 112.449 92.6829 110.571Z" fill="white"/>
<path fill-rule="evenodd" clip-rule="evenodd" d="M37.6807 118.794C37.7951 118.794 37.9073 118.904 37.9073 118.904C39.8336 119.011 41.6467 118.794 43.4608 118.794C42.2132 116.838 40.8535 114.99 39.7203 113.143C38.9283 114.99 38.3617 116.947 37.6807 118.794Z" fill="white"/>
<path fill-rule="evenodd" clip-rule="evenodd" d="M63.7461 112.845C62.6635 114.523 61.6793 116.303 60.5977 117.982H68.9634C66.995 116.402 65.3218 114.721 63.7461 112.845Z" fill="white"/>
<path fill-rule="evenodd" clip-rule="evenodd" d="M46.7197 118.377C49.7718 118.279 52.7244 118.18 55.677 118.18C53.7086 116.303 52.1329 114.03 50.3613 111.955C49.2796 114.129 47.8033 116.204 46.7197 118.377Z" fill="white"/>
<path fill-rule="evenodd" clip-rule="evenodd" d="M77.9195 111.165C76.3448 113.437 74.8685 115.809 73.1953 117.981H74.1795C77.4274 117.981 80.6753 118.081 83.9232 118.081C81.4626 116.204 79.5927 113.734 77.9195 111.165Z" fill="white"/>
</svg>
