<svg width="127" height="158" viewBox="0 0 127 158" fill="none" xmlns="http://www.w3.org/2000/svg">
<path fill-rule="evenodd" clip-rule="evenodd" d="M44.9482 30.4917C44.8498 30.4917 44.7514 30.5905 44.653 30.5905C40.6177 31.6774 36.5825 32.5666 32.5472 33.5547H32.252C32.6456 34.7403 33.1377 36.0248 33.7283 37.2105C33.9251 37.1117 34.1219 37.0129 34.4172 36.9141C38.5509 36.0248 42.8814 35.926 46.9166 34.938C46.3261 33.3561 45.6372 31.9738 44.9482 30.4917Z" fill="#3B3734"/>
<path fill-rule="evenodd" clip-rule="evenodd" d="M38.5511 19.0298C38.4527 19.2274 38.1575 19.3272 37.8622 19.425C36.5827 19.6236 35.1064 19.7214 33.9254 20.2155C33.2364 20.5119 32.4491 20.3152 32.0554 19.8212C31.7601 21.5997 31.5633 23.2794 31.4648 25.0579C34.6143 24.4641 37.7638 23.9701 40.7164 22.8832C40.0274 21.5997 39.2401 20.3152 38.5511 19.0298Z" fill="#3B3734"/>
<path fill-rule="evenodd" clip-rule="evenodd" d="M50.3618 41.0646C49.7132 41.291 49.0627 41.4739 48.4102 41.635C48.4702 41.641 48.5302 41.6528 48.5903 41.6578C49.4761 41.3612 50.4603 41.1635 51.4445 40.8669C51.3923 40.6563 51.3342 40.4299 51.2811 40.2095C51.1305 40.6168 50.8254 40.948 50.3618 41.0646Z" fill="#263958"/>
<path fill-rule="evenodd" clip-rule="evenodd" d="M50.7559 38.3963C50.9724 38.9763 51.1318 39.6017 51.2805 40.2094C51.3867 39.9258 51.4271 39.6106 51.3464 39.2845C51.2204 38.665 51.0669 38.0544 50.9015 37.4487C50.7106 37.7402 50.6279 38.0761 50.7559 38.3963Z" fill="#263958"/>
<path fill-rule="evenodd" clip-rule="evenodd" d="M41.6016 40.2734C43.9037 40.8514 46.1123 41.4225 48.4094 41.6349C49.0619 41.4729 49.7125 41.2911 50.3611 41.0638C50.8246 40.9472 51.1307 40.6162 51.2803 40.2091C51.1317 39.6015 50.9723 38.976 50.7557 38.3961C50.6278 38.0759 50.7105 37.74 50.9014 37.4485C47.4646 24.8202 36.0861 15.0196 35.9926 1.44273C35.9926 -0.138156 33.4327 -0.632184 33.1375 1.04751C30.8748 14.0899 24.4774 29.4047 32.8432 41.2614C32.5666 41.5391 32.4692 41.9214 32.4918 42.3048C34.9041 42.0469 37.3174 41.9412 39.7326 41.7555C39.5348 40.8662 40.4216 39.977 41.6016 40.2734Z" fill="#3B3734"/>
<path fill-rule="evenodd" clip-rule="evenodd" d="M33.7283 37.2105C33.1377 36.0248 32.6456 34.7403 32.252 33.5547H32.5482C36.5825 32.5666 40.6177 31.6774 44.6539 30.5905C44.7514 30.5905 44.8508 30.4917 44.9482 30.4917C45.6381 31.9738 46.3271 33.3571 46.9166 34.938C42.8824 35.926 38.5509 36.0248 34.4172 36.9141C34.1219 37.0129 33.9251 37.1117 33.7283 37.2105Z" fill="white"/>
<path fill-rule="evenodd" clip-rule="evenodd" d="M32.0564 19.8207C32.4491 20.3147 33.2364 20.5124 33.9254 20.2159C35.1064 19.7219 36.5827 19.6231 37.8622 19.4255C38.1575 19.3267 38.4537 19.2279 38.5511 19.0303C39.2411 20.3147 40.0274 21.5992 40.7174 22.8837C37.7648 23.9706 34.6143 24.4646 31.4648 25.0574C31.5642 23.2789 31.7601 21.5992 32.0564 19.8207Z" fill="white"/>
<path fill-rule="evenodd" clip-rule="evenodd" d="M34.3189 43.7311C34.5157 43.7311 34.7116 43.6323 34.811 43.6323C35.4015 44.0285 36.1879 43.8309 36.5826 43.2371C40.546 42.5593 44.5094 42.5998 48.4088 41.6345C46.1116 41.422 43.9031 40.851 41.601 40.2729C40.421 39.9765 39.5352 40.8668 39.732 41.755C37.3178 41.9408 34.9045 42.0465 32.4922 42.3054C32.5404 43.1521 33.2343 44.0029 34.3189 43.7311Z" fill="#263958"/>
<path fill-rule="evenodd" clip-rule="evenodd" d="M74.3773 35.9265C74.4747 36.4205 74.6725 36.9145 74.77 37.4086C76.7384 36.8147 78.7068 36.5183 80.4784 35.7279C80.6172 35.6706 80.7589 35.634 80.9026 35.6093C79.6074 35.4127 78.3161 35.1756 77.0337 34.8386C77.6252 33.3565 78.2147 31.8745 79.0021 30.3924C79.1015 30.3924 79.1989 30.4922 79.2983 30.4922C83.3326 31.578 87.3678 32.4683 91.4041 33.4563H91.6983C91.3047 34.7398 90.912 35.9265 90.222 37.1122C90.0252 36.9145 89.8284 36.8147 89.5331 36.8147C87.0657 36.3425 84.5628 36.1152 82.0669 35.7793C82.6102 36.048 82.9566 36.5658 82.743 37.21C82.5462 38.1002 82.4468 39.0883 82.3484 39.9765C83.9231 39.9765 85.4988 40.0763 87.0726 39.6801C88.1562 39.4825 88.9436 40.1741 89.041 40.9646C89.2378 41.8548 89.2378 42.5465 89.2378 43.3369C89.7417 43.415 90.2653 43.5118 90.788 43.6086C91.5989 43.1581 91.8598 41.9171 91.2062 41.261C99.572 29.5041 93.1747 14.0894 90.912 1.04808C90.6167 -0.631616 88.0568 -0.137587 88.0568 1.44232C87.9682 14.2199 77.885 23.6519 73.832 35.2437C74.1037 35.3979 74.3153 35.6192 74.3773 35.9265ZM91.8956 19.8209C91.5019 20.315 90.812 20.5116 90.0256 20.2152C88.7462 19.7211 87.3673 19.7211 86.0888 19.4257C85.7935 19.3269 85.5967 19.2271 85.3989 19.0295C84.7109 20.315 84.022 21.5994 83.2346 22.8839C86.1872 23.9698 89.3357 24.4638 92.4861 25.0576C92.3877 23.2791 92.1909 21.5994 91.8956 19.8209Z" fill="#3B3734"/>
<path fill-rule="evenodd" clip-rule="evenodd" d="M85.3996 19.0298C85.5965 19.2274 85.7933 19.3272 86.0886 19.425C87.368 19.7214 88.7459 19.7214 90.0254 20.2155C90.8128 20.5119 91.5017 20.3152 91.8964 19.8212C92.1907 21.5997 92.3885 23.2794 92.4859 25.0579C89.3365 24.4641 86.188 23.9701 83.2354 22.8832C84.0227 21.5997 84.7117 20.3152 85.3996 19.0298Z" fill="white"/>
<path fill-rule="evenodd" clip-rule="evenodd" d="M90.2226 37.1121C90.9115 35.9264 91.3052 34.7408 91.6989 33.4563H91.4036C87.3684 32.4682 83.3331 31.578 79.2979 30.4921C79.1994 30.4921 79.101 30.3923 79.0026 30.3923C78.2152 31.8744 77.6247 33.3565 77.0342 34.8386C78.3156 35.1755 79.6079 35.4127 80.9021 35.6093C81.3165 35.5401 81.7279 35.6122 82.0674 35.7792C84.5634 36.1152 87.0662 36.3434 89.5336 36.8147C89.8289 36.8147 90.0257 36.9145 90.2226 37.1121Z" fill="white"/>
<path fill-rule="evenodd" clip-rule="evenodd" d="M126.637 92.3433C124.866 90.7634 123.291 88.9849 121.913 87.1076C122.307 86.7114 122.405 86.1196 122.012 85.6255C120.143 83.5506 118.174 81.5745 120.635 78.8069C121.127 78.3129 120.831 77.6223 120.437 77.227C118.666 75.4485 117.878 73.3726 116.303 71.5941C116.698 71.4963 117.19 71.3965 117.682 71.2987C118.666 71.1999 119.158 70.0142 118.567 69.4204C116.992 67.5441 115.811 66.1598 113.745 65.3704C114.63 64.3823 115.024 63.3942 115.122 62.504C117.976 59.7374 120.535 56.6755 121.815 52.6234C124.669 43.7309 121.716 33.1597 119.059 24.6614C118.666 23.4758 116.992 23.1793 116.402 24.2672C110.989 33.2585 99.9664 36.3205 93.1744 44.0283C92.3988 43.9088 91.5918 43.7576 90.7867 43.6084C90.4983 43.7695 90.143 43.8357 89.7296 43.7309C89.6322 43.7309 89.4344 43.6331 89.2375 43.6331C88.648 44.0283 87.8596 43.7309 87.466 43.2369C82.8402 42.4465 78.116 42.5462 73.6871 41.0642C72.9007 40.8666 72.506 40.0761 72.7029 39.2847C72.9853 37.9044 73.3711 36.5606 73.8317 35.2435C73.2274 34.9007 72.2915 34.9244 71.8171 35.3324C68.8644 37.9024 65.5191 38.2966 62.2703 35.9263C61.3845 35.2346 60.106 35.5301 59.7113 36.5181C58.0382 40.4703 54.6929 38.0002 53.0187 36.9143C52.2205 36.446 51.3013 36.8422 50.9017 37.4489C51.067 38.0545 51.2196 38.6652 51.3456 39.2847C51.4263 39.6097 51.3859 39.9259 51.2806 40.2095C51.3338 40.4298 51.3918 40.6561 51.444 40.8666C50.4598 41.163 49.4756 41.3606 48.5898 41.657C48.5298 41.6521 48.4697 41.6402 48.4097 41.6343C44.5093 42.6006 40.5468 42.5601 36.5825 43.2369C36.1888 43.8307 35.4014 44.0283 34.8109 43.6331C34.7125 43.6331 34.5166 43.7309 34.3188 43.7309C33.2352 44.0036 32.5413 43.1519 32.4921 42.3052C32.3464 42.32 32.2008 42.3318 32.0561 42.3486C29.5956 39.4823 26.643 37.0121 23.9846 34.9382C17.6857 30.1955 9.61519 25.0576 1.44627 25.2553C0.462062 25.2553 -0.226883 26.1435 0.0693631 27.1316C3.02198 38.0002 1.74153 57.2673 14.1425 62.504C12.0757 64.1837 10.4035 66.062 9.41933 68.63C8.92723 69.8166 10.5994 70.6061 11.682 70.112C11.7804 70.0142 11.8798 70.0142 12.0757 69.9144C10.7962 72.0882 9.51677 74.2629 8.13888 76.4366C7.35151 77.7211 9.41933 79.2032 10.5994 78.0165C10.9931 77.6223 11.3877 77.4247 11.7804 77.1282C11.1899 79.301 11.0915 81.4747 11.4852 83.7472C11.5836 84.2413 12.1741 84.6375 12.7647 84.6375C11.8798 86.7114 10.6978 88.7873 9.61519 90.8612C9.12308 91.7515 9.71361 92.7395 10.7962 92.8374C9.41933 95.8015 7.94302 98.6679 6.66257 101.632C6.17046 102.818 7.84362 103.608 8.92723 103.114C9.31993 102.917 9.71361 102.718 10.1073 102.62C9.71361 104.694 9.91143 106.77 10.0089 108.943C10.0089 110.228 11.5836 110.525 12.6662 109.833C13.0599 109.634 13.3562 109.437 13.7489 109.14C13.2568 111.216 13.1583 113.389 13.552 115.563C13.6504 116.453 15.0283 116.749 15.8167 116.353C14.3404 119.317 12.5678 122.281 11.3877 125.345C10.9931 126.431 12.5678 127.322 13.6504 126.827C14.3404 126.531 15.0283 126.136 15.7173 125.839C14.8325 128.804 13.1583 131.668 12.0757 134.632C11.5836 135.918 13.552 136.708 14.6346 135.918C14.9299 135.72 15.2252 135.424 15.6189 135.226C15.3246 136.608 15.1267 137.993 14.8325 139.376C14.5362 140.66 16.2094 141.549 17.3904 140.66C17.5873 140.463 17.8825 140.264 18.1778 140.166C17.1936 142.24 16.5046 144.316 16.0125 146.686C15.8167 147.774 16.9967 149.256 18.1778 148.367C18.4731 148.169 18.6699 147.971 18.9652 147.873C18.8667 148.959 18.6699 150.047 18.4731 151.133C18.1778 152.517 19.8509 153.801 20.9336 152.615C21.4257 152.121 21.8194 151.627 22.3115 151.232V151.627C22.3115 152.715 23.5909 153.505 24.5751 152.911C25.5593 152.319 26.5436 151.627 27.4293 150.935C27.4293 151.529 27.4293 152.121 27.3309 152.715C27.1351 153.999 28.7088 155.481 29.7914 154.197C30.382 153.405 31.0719 152.715 31.7598 152.023C33.0403 155.679 36.6809 156.567 39.043 153.505C39.6335 154.691 40.224 155.778 40.6177 156.963C41.1098 158.346 42.8824 158.346 43.4719 156.963C44.0624 155.284 44.7514 153.703 45.3429 152.023C46.2277 153.307 47.3113 154.493 48.3929 155.679C49.0819 156.469 50.6566 156.173 50.8535 154.987C50.9519 154.493 51.0503 154.097 51.1487 153.703C51.444 154.295 51.6408 154.887 51.9361 155.481C52.3298 156.667 54.0029 157.061 54.5934 155.875C55.3808 154.493 56.0698 153.209 56.5619 151.923C57.7429 152.813 59.1218 153.603 60.4003 154.493C61.2861 155.085 62.2703 154.393 62.5665 153.603C62.7624 153.109 62.9592 152.715 63.0586 152.221C64.0428 153.703 65.2229 154.987 66.7976 155.975C67.3881 156.369 68.4718 156.173 68.8645 155.481C69.3566 154.393 69.8487 153.405 70.2423 152.417C71.6202 153.603 73.0965 154.591 74.6713 155.579C75.4586 155.975 76.7381 155.679 76.8375 154.691C76.935 153.801 77.1318 153.109 77.2302 152.319C78.7065 153.999 80.3797 155.481 82.5449 156.567C83.4317 156.963 84.4159 156.667 84.7112 155.679C85.0054 154.591 85.4001 153.703 85.6954 152.715C86.9739 154.197 88.648 155.185 90.8133 155.679C91.7975 155.875 92.5848 155.185 92.6823 154.295C92.7817 153.011 92.9775 151.923 93.0769 150.738C94.3554 151.825 95.7343 152.813 97.308 153.603C98.1948 153.999 99.179 153.703 99.4743 152.715C99.7686 151.627 100.064 150.541 100.163 149.553C101.443 150.639 102.82 151.529 104.493 152.221C105.576 152.715 106.561 151.331 106.264 150.441C106.264 150.244 106.166 150.047 106.166 149.947C107.348 150.837 108.626 151.529 110.005 152.121C110.99 152.517 112.269 152.023 112.269 150.837C112.269 150.244 112.269 149.651 112.171 149.157C113.253 149.651 114.434 150.047 115.811 150.343C117.19 150.639 117.976 149.355 117.484 148.169C116.599 146.095 115.516 144.118 114.04 142.439V142.043C113.942 141.846 113.942 141.549 113.843 141.352C114.827 141.352 115.811 140.561 115.418 139.672C115.319 139.475 115.222 139.178 115.123 138.981C116.107 139.078 117.19 138.19 116.795 137.4C116.008 135.918 115.615 134.336 114.926 132.854C115.418 132.953 115.811 133.052 116.206 133.25C117.387 133.546 118.371 132.558 118.174 131.668C117.976 131.174 117.879 130.68 117.78 130.186C118.863 130.977 120.535 129.989 120.24 128.804L118.863 124.061C119.651 124.258 120.339 124.357 121.127 124.654C122.504 125.049 123.488 123.666 122.897 122.775C121.619 120.799 120.832 118.823 120.339 116.847C120.535 116.947 120.635 116.947 120.832 117.045C121.913 117.539 123.685 116.749 123.095 115.563C122.405 114.18 122.012 112.698 121.619 111.315C122.308 111.019 122.603 110.128 122.208 109.437C121.421 108.152 121.127 106.869 120.732 105.484C121.52 105.288 122.012 104.694 121.716 104.002C121.127 102.818 120.732 101.532 120.437 100.348C120.832 100.544 121.127 100.644 121.52 100.842C122.701 101.336 124.177 100.544 123.784 99.3595C123.193 97.3834 122.405 95.5061 121.52 93.6278C122.701 93.9252 123.882 94.4192 124.964 95.0121C126.145 95.3075 127.72 93.3314 126.637 92.3433Z" fill="#263958"/>
<path fill-rule="evenodd" clip-rule="evenodd" d="M111.678 53.4148C110.595 54.8969 107.938 53.5136 109.119 51.9327C111.186 49.0674 112.071 45.4106 111.481 41.9524C108.627 44.0283 105.872 46.1032 103.115 48.1771C101.639 49.3628 100.163 46.6951 101.639 45.6092C104.985 43.139 108.332 40.5701 111.678 38.1988C112.564 37.6059 113.548 38.2966 113.843 39.088C115.516 43.7309 114.63 49.4626 111.678 53.4148Z" fill="#7AC7C4"/>
<path fill-rule="evenodd" clip-rule="evenodd" d="M110.398 92.8371C110.3 93.6276 109.808 94.3192 108.921 94.3192C108.232 94.3192 107.347 93.6276 107.445 92.8371C107.642 91.6515 107.642 90.5656 107.642 89.3789C107.642 87.5026 110.594 87.5026 110.594 89.3789C110.594 90.5656 110.594 91.6515 110.398 92.8371Z" fill="white"/>
<path fill-rule="evenodd" clip-rule="evenodd" d="M101.54 91.2574C101.54 89.3791 104.493 89.3791 104.493 91.2574C104.493 92.6397 104.591 93.9251 104.69 95.4072C104.788 96.1976 103.903 96.8893 103.213 96.8893C102.327 96.8893 101.835 96.1976 101.737 95.4072C101.54 94.0239 101.54 92.6397 101.54 91.2574Z" fill="white"/>
<path fill-rule="evenodd" clip-rule="evenodd" d="M102.229 118.823C102.13 118.923 102.032 119.021 101.835 119.021C93.2726 120.997 84.5131 120.305 75.8531 120.305C65.2226 120.305 54.6926 120.405 44.0622 120.799H43.8663C40.9137 120.899 38.3538 121.393 35.4012 120.702C35.3027 120.702 35.1059 120.603 35.0085 120.503C30.5795 119.714 27.2322 116.353 25.8544 112.007C25.2638 110.228 28.119 109.437 28.7086 111.216C29.6928 114.279 31.858 116.651 34.8106 117.441C35.6964 114.477 36.6806 111.61 37.7633 108.746C38.1569 107.658 39.8301 107.066 40.4216 108.351C41.5033 110.821 43.078 112.895 44.4559 115.168C45.8347 112.698 47.4085 110.425 48.4911 107.857C48.8848 106.967 50.2637 106.967 50.8532 107.56C53.5106 110.031 55.1847 113.389 58.0379 115.663C59.5142 113.389 60.7937 111.019 62.3684 108.845C63.0584 107.955 64.2384 107.857 64.9274 108.845C66.6005 111.413 68.6674 113.291 71.0295 115.168C73.0963 112.401 74.8689 109.437 76.9347 106.77C77.6237 105.979 78.8057 106.375 79.2978 107.066C81.0684 110.031 82.9384 112.895 85.5957 114.971C87.5641 112.204 89.0405 109.14 91.501 106.77C91.8947 106.375 92.682 106.176 93.2726 106.572C96.7173 109.043 98.8825 112.501 100.851 116.157C104 115.465 106.756 112.995 106.658 109.634C106.559 107.758 109.512 107.758 109.61 109.634C109.709 113.983 106.461 117.539 102.229 118.823Z" fill="#7AC7C4"/>
<path fill-rule="evenodd" clip-rule="evenodd" d="M103.705 140.957C103.705 139.474 103.411 138.09 102.919 136.708C102.328 134.929 105.182 134.138 105.772 135.917C106.364 137.596 106.658 139.276 106.658 140.957C106.658 142.834 103.705 142.834 103.705 140.957Z" fill="white"/>
<path fill-rule="evenodd" clip-rule="evenodd" d="M97.9982 135.126C97.3083 135.522 96.3241 135.324 95.9304 134.632C95.3398 133.546 94.9462 132.359 94.7493 131.174C94.5535 130.383 94.8477 129.594 95.7335 129.395C96.4225 129.198 97.4067 129.594 97.5061 130.383C97.6035 131.371 97.8988 132.262 98.2925 133.15C98.5877 133.842 98.4903 134.732 97.9982 135.126Z" fill="white"/>
<path fill-rule="evenodd" clip-rule="evenodd" d="M86.2848 143.525C85.5958 143.722 84.6116 143.328 84.5132 142.537C84.4148 141.648 84.3163 140.66 84.2189 139.77C84.0211 138.981 84.3163 138.19 85.2031 137.993C85.8911 137.794 86.8753 138.19 86.9737 138.981C87.0721 139.87 87.0721 140.957 87.269 141.746C87.3674 142.537 87.0721 143.328 86.2848 143.525Z" fill="white"/>
<path fill-rule="evenodd" clip-rule="evenodd" d="M69.0606 139.078C68.1748 139.078 67.6827 138.387 67.5843 137.596C67.4869 136.214 67.2891 134.83 67.2891 133.347C67.2891 131.471 70.2417 131.471 70.2417 133.347C70.2417 134.83 70.4395 136.214 70.5369 137.596C70.6354 138.387 69.7496 139.078 69.0606 139.078Z" fill="white"/>
<path fill-rule="evenodd" clip-rule="evenodd" d="M47.1138 146.589C47.1138 148.465 44.1611 148.465 44.1611 146.589V144.612C44.1611 142.636 47.1138 142.636 47.1138 144.612V146.589Z" fill="white"/>
<path fill-rule="evenodd" clip-rule="evenodd" d="M39.6332 135.818C39.6332 134.632 39.6332 133.348 39.4374 132.064C39.338 131.274 40.2238 130.582 40.9137 130.582C41.7985 130.582 42.2906 131.274 42.39 132.064C42.4874 133.348 42.4874 134.534 42.5858 135.818C42.5858 137.696 39.6332 137.696 39.6332 135.818Z" fill="white"/>
<path fill-rule="evenodd" clip-rule="evenodd" d="M32.5483 142.933C32.5483 144.81 29.5957 144.81 29.5957 142.933V139.77C29.5957 137.893 32.5483 137.893 32.5483 139.77V142.933Z" fill="white"/>
<path fill-rule="evenodd" clip-rule="evenodd" d="M24.5753 85.2292C23.6905 85.2292 23.1984 84.5385 23.099 83.7471C23.0006 82.1672 22.8037 80.5863 22.8037 79.0044C22.8037 77.1281 25.7563 77.1281 25.7563 79.0044C25.8548 80.5863 25.9532 82.265 26.0516 83.7471C26.151 84.5385 25.3626 85.2292 24.5753 85.2292Z" fill="white"/>
<path fill-rule="evenodd" clip-rule="evenodd" d="M27.627 75.5462C28.4133 75.2508 29.2007 75.7448 29.3975 76.5343C29.5954 77.1281 29.5954 77.8187 29.6928 78.709C29.6928 80.5863 26.7402 80.5863 26.7402 78.709V77.9185V77.7209V77.6221C26.7402 77.5223 26.6427 77.4245 26.6427 77.3247C26.3465 76.634 26.8386 75.7448 27.627 75.5462Z" fill="white"/>
<path fill-rule="evenodd" clip-rule="evenodd" d="M39.2397 96.4939C39.2397 97.3832 39.2397 98.3712 39.3381 99.2595C39.535 100.05 39.1413 100.841 38.2555 101.038C37.5666 101.236 36.5824 100.841 36.4849 100.05C36.2871 98.8653 36.2871 97.6796 36.2871 96.4939C36.2871 94.6156 39.2397 94.6156 39.2397 96.4939Z" fill="white"/>
<path fill-rule="evenodd" clip-rule="evenodd" d="M41.7006 50.9446C42.0943 49.0673 44.9485 49.8567 44.5548 51.735C44.4564 52.229 44.4564 52.7231 44.4564 53.2171C45.1453 51.6352 47.7043 52.4266 47.1137 54.2052C46.8194 55.1932 46.9169 56.1813 47.0153 57.2671C47.1137 58.0576 46.2279 58.7492 45.539 58.7492C44.6532 58.7492 44.1611 58.0576 44.0627 57.2671V56.7731C43.2753 57.5636 41.5037 57.2671 41.5037 55.7851C41.5037 54.1054 41.4063 52.5255 41.7006 50.9446Z" fill="white"/>
<path fill-rule="evenodd" clip-rule="evenodd" d="M53.9043 73.176C54.0027 73.0762 54.0027 72.9784 54.1012 72.8786C54.8885 71.9903 56.0696 72.3845 56.6611 73.176C56.7585 73.2748 56.7585 73.3726 56.8569 73.4724C56.9554 73.5702 57.0538 73.5702 57.1532 73.67C57.7427 74.0642 57.9396 74.6581 57.8412 75.2509C58.3333 76.5344 58.4317 78.0165 58.038 79.4007C57.9396 79.5983 57.9396 79.795 57.8412 79.9926V80.1912C57.8412 80.3888 57.7427 80.5864 57.5459 80.783C56.7585 82.0685 55.5775 83.2532 54.0027 82.6613C50.1643 81.3769 50.9517 74.5583 53.9043 73.176Z" fill="#7AC7C4"/>
<path fill-rule="evenodd" clip-rule="evenodd" d="M64.5348 94.3194C65.2227 94.024 66.1085 94.518 66.3054 95.3074C66.4038 96.0979 66.5032 96.8893 66.6006 97.6798C66.6006 99.5561 63.648 99.5561 63.648 97.6798C63.648 97.0859 63.648 96.5919 63.5506 96.0979C63.3528 95.3074 63.7464 94.518 64.5348 94.3194Z" fill="white"/>
<path fill-rule="evenodd" clip-rule="evenodd" d="M71.3251 73.176C71.4245 73.0762 71.4245 72.9784 71.5219 72.8786C72.3093 71.9903 73.4903 72.3845 74.0809 73.176C74.1793 73.2748 74.1793 73.3726 74.2777 73.4724C74.3771 73.5702 74.4745 73.5702 74.573 73.67C75.1635 74.0642 75.3613 74.6581 75.2619 75.2509C75.754 76.5344 75.8534 78.0165 75.4588 79.4007C75.3613 79.5983 75.3613 79.795 75.2619 79.9926V80.1912C75.2619 80.3888 75.1635 80.5864 74.9667 80.783C74.1793 82.0685 72.9982 83.2532 71.4245 82.6613C67.5851 81.3769 68.3725 74.5583 71.3251 73.176Z" fill="#7AC7C4"/>
<path fill-rule="evenodd" clip-rule="evenodd" d="M84.5133 56.3789C84.8085 58.0576 85.0054 59.8371 85.0054 61.5158C85.0054 63.3941 82.0528 63.3941 82.0528 61.5158C82.0528 60.0337 81.9543 58.6514 81.6591 57.1693C81.2664 55.291 84.1196 54.5016 84.5133 56.3789Z" fill="white"/>
<path fill-rule="evenodd" clip-rule="evenodd" d="M90.9112 73.6699C91.6012 73.3725 92.486 73.8666 92.6828 74.658C92.7812 75.5463 92.8797 76.5343 92.9781 77.3248C93.1749 78.1162 92.7812 78.9066 91.9939 79.1042C91.3049 79.3009 90.3207 78.9066 90.2223 78.1162C90.1249 77.2269 90.0255 76.1401 89.927 75.4484C89.7302 74.658 90.1249 73.8666 90.9112 73.6699Z" fill="white"/>
<path fill-rule="evenodd" clip-rule="evenodd" d="M17.0948 47.4865C15.2248 45.3128 13.3557 43.2369 11.3873 41.2607C11.1895 43.139 11.3873 44.9165 11.9769 46.6951C12.5674 48.4745 9.7132 49.265 9.12267 47.4865C8.23689 44.9165 8.13847 42.2488 8.63057 39.582C8.82741 38.6928 9.61478 38.3964 10.3037 38.594C10.7958 37.9023 11.78 37.5061 12.5674 38.2966C14.8321 40.5701 17.0948 42.9404 19.1616 45.4106C20.3426 46.7948 18.2768 48.9686 17.0948 47.4865Z" fill="#7AC7C4"/>
<path fill-rule="evenodd" clip-rule="evenodd" d="M73.6877 41.064C78.1166 42.5461 82.8408 42.4463 87.4666 43.2368C87.8593 43.7308 88.6476 44.0282 89.2382 43.633C89.435 43.633 89.6318 43.7308 89.7303 43.7308C90.1436 43.8355 90.4989 43.7693 90.7873 43.6083C90.2657 43.5125 89.7421 43.4146 89.2382 43.3366C89.2382 42.5461 89.2382 41.8545 89.0413 40.9643C88.9429 40.1748 88.1555 39.4822 87.0729 39.6808C85.4982 40.076 83.9225 39.9762 82.3487 39.9762C82.4462 39.0879 82.5456 38.0999 82.7424 37.2106C82.956 36.5654 82.6095 36.0477 82.0672 35.7789C81.6785 35.7276 81.2907 35.6683 80.9019 35.609C80.7592 35.6337 80.6165 35.6702 80.4777 35.7285C78.7071 36.518 76.7387 36.8144 74.7703 37.4082C74.6719 36.9142 74.4751 36.4202 74.3766 35.9262C74.3156 35.6189 74.104 35.3985 73.8314 35.2434C73.3718 36.5605 72.985 37.9042 72.7035 39.2846C72.5066 40.076 72.9003 40.8664 73.6877 41.064Z" fill="#263958"/>
<path fill-rule="evenodd" clip-rule="evenodd" d="M80.9014 35.6096C81.2901 35.6689 81.6779 35.7273 82.0667 35.7797C81.7271 35.6126 81.3157 35.5404 80.9014 35.6096Z" fill="white"/>
<path fill-rule="evenodd" clip-rule="evenodd" d="M92.6829 109.931C90.616 112.302 89.2382 115.069 87.3682 117.539C90.9113 117.441 94.4545 117.341 97.8008 116.749C96.4229 114.278 94.8481 111.808 92.6829 109.931Z" fill="#263958"/>
<path fill-rule="evenodd" clip-rule="evenodd" d="M37.6807 118.154C37.7951 118.154 37.9073 118.263 37.9073 118.263C39.8336 118.371 41.6467 118.154 43.4608 118.154C42.2132 116.198 40.8535 114.35 39.7203 112.503C38.9283 114.35 38.3617 116.306 37.6807 118.154Z" fill="#263958"/>
<path fill-rule="evenodd" clip-rule="evenodd" d="M63.7461 112.204C62.6635 113.883 61.6793 115.663 60.5977 117.341H68.9634C66.995 115.761 65.3218 114.081 63.7461 112.204Z" fill="#263958"/>
<path fill-rule="evenodd" clip-rule="evenodd" d="M46.7197 117.737C49.7718 117.638 52.7244 117.539 55.677 117.539C53.7086 115.662 52.1329 113.39 50.3613 111.315C49.2796 113.488 47.8033 115.563 46.7197 117.737Z" fill="#263958"/>
<path fill-rule="evenodd" clip-rule="evenodd" d="M77.9195 110.524C76.3448 112.797 74.8685 115.168 73.1953 117.341H74.1795C77.4274 117.341 80.6753 117.441 83.9232 117.441C81.4626 115.564 79.5927 113.093 77.9195 110.524Z" fill="#263958"/>
</svg>
