<svg width="127" height="159" viewBox="0 0 127 159" fill="none" xmlns="http://www.w3.org/2000/svg">
<path fill-rule="evenodd" clip-rule="evenodd" d="M44.9482 31.4133C44.8498 31.4133 44.7514 31.5121 44.653 31.5121C40.6177 32.599 36.5825 33.4882 32.5472 34.4763H32.252C32.6456 35.662 33.1377 36.9464 33.7283 38.1321C33.9251 38.0333 34.1219 37.9345 34.4172 37.8357C38.5509 36.9464 42.8814 36.8476 46.9166 35.8596C46.3261 34.2777 45.6372 32.8954 44.9482 31.4133Z" fill="#3B3734"/>
<path fill-rule="evenodd" clip-rule="evenodd" d="M38.5511 19.9512C38.4527 20.1488 38.1575 20.2486 37.8622 20.3464C36.5827 20.545 35.1064 20.6428 33.9254 21.1368C33.2364 21.4333 32.4491 21.2366 32.0554 20.7426C31.7601 22.5211 31.5633 24.2008 31.4648 25.9793C34.6143 25.3855 37.7638 24.8915 40.7164 23.8046C40.0274 22.5211 39.2401 21.2366 38.5511 19.9512Z" fill="#3B3734"/>
<path fill-rule="evenodd" clip-rule="evenodd" d="M50.3618 41.986C49.7132 42.2124 49.0627 42.3953 48.4102 42.5564C48.4702 42.5624 48.5302 42.5742 48.5903 42.5792C49.4761 42.2826 50.4603 42.0849 51.4445 41.7883C51.3923 41.5777 51.3342 41.3513 51.2811 41.1309C51.1305 41.5382 50.8254 41.8693 50.3618 41.986Z" fill="white"/>
<path fill-rule="evenodd" clip-rule="evenodd" d="M50.7559 39.3177C50.9724 39.8977 51.1318 40.5231 51.2805 41.1307C51.3867 40.8472 51.4271 40.532 51.3464 40.2059C51.2204 39.5864 51.0669 38.9758 50.9015 38.3701C50.7106 38.6616 50.6279 38.9975 50.7559 39.3177Z" fill="white"/>
<path fill-rule="evenodd" clip-rule="evenodd" d="M41.6016 41.1948C43.9037 41.7728 46.1123 42.3439 48.4094 42.5563C49.0619 42.3943 49.7125 42.2125 50.3611 41.9852C50.8246 41.8686 51.1307 41.5376 51.2803 41.1305C51.1317 40.5229 50.9723 39.8974 50.7557 39.3174C50.6278 38.9973 50.7105 38.6614 50.9014 38.3699C47.4646 25.7415 36.0861 15.941 35.9926 2.36412C35.9926 0.783231 33.4327 0.289202 33.1375 1.9689C30.8748 15.0112 24.4774 30.3261 32.8432 42.1828C32.5666 42.4605 32.4692 42.8428 32.4918 43.2262C34.9041 42.9683 37.3174 42.8626 39.7326 42.6768C39.5348 41.7876 40.4216 40.8983 41.6016 41.1948Z" fill="#3B3734"/>
<path fill-rule="evenodd" clip-rule="evenodd" d="M33.7283 38.1319C33.1377 36.9462 32.6456 35.6617 32.252 34.4761H32.5482C36.5825 33.488 40.6177 32.5988 44.6539 31.5119C44.7514 31.5119 44.8508 31.4131 44.9482 31.4131C45.6381 32.8952 46.3271 34.2784 46.9166 35.8593C42.8824 36.8474 38.5509 36.9462 34.4172 37.8355C34.1219 37.9343 33.9251 38.0331 33.7283 38.1319Z" fill="white"/>
<path fill-rule="evenodd" clip-rule="evenodd" d="M32.0564 20.7421C32.4491 21.2361 33.2364 21.4337 33.9254 21.1373C35.1064 20.6433 36.5827 20.5445 37.8622 20.3469C38.1575 20.2481 38.4537 20.1493 38.5511 19.9517C39.2411 21.2361 40.0274 22.5206 40.7174 23.8051C37.7648 24.8919 34.6143 25.386 31.4648 25.9788C31.5642 24.2003 31.7601 22.5206 32.0564 20.7421Z" fill="white"/>
<path fill-rule="evenodd" clip-rule="evenodd" d="M34.3189 44.6528C34.5157 44.6528 34.7116 44.554 34.811 44.554C35.4015 44.9502 36.1879 44.7526 36.5826 44.1587C40.546 43.4809 44.5094 43.5214 48.4088 42.5561C46.1116 42.3437 43.9031 41.7726 41.601 41.1946C40.421 40.8982 39.5352 41.7884 39.732 42.6767C37.3178 42.8624 34.9045 42.9681 32.4922 43.227C32.5404 44.0738 33.2343 44.9245 34.3189 44.6528Z" fill="white"/>
<path fill-rule="evenodd" clip-rule="evenodd" d="M74.3773 36.8479C74.4747 37.3419 74.6725 37.8359 74.77 38.33C76.7384 37.7361 78.7068 37.4397 80.4784 36.6493C80.6172 36.592 80.7589 36.5554 80.9026 36.5307C79.6074 36.3341 78.3161 36.0969 77.0337 35.76C77.6252 34.2779 78.2147 32.7959 79.0021 31.3138C79.1015 31.3138 79.1989 31.4136 79.2983 31.4136C83.3326 32.4994 87.3678 33.3897 91.4041 34.3777H91.6983C91.3047 35.6612 90.912 36.8479 90.222 38.0335C90.0252 37.8359 89.8284 37.7361 89.5331 37.7361C87.0657 37.2638 84.5628 37.0366 82.0669 36.7006C82.6102 36.9694 82.9566 37.4871 82.743 38.1314C82.5462 39.0216 82.4468 40.0097 82.3484 40.8979C83.9231 40.8979 85.4988 40.9977 87.0726 40.6015C88.1562 40.4039 88.9436 41.0955 89.041 41.886C89.2378 42.7762 89.2378 43.4678 89.2378 44.2583C89.7417 44.3364 90.2653 44.4332 90.788 44.53C91.5989 44.0795 91.8598 42.8385 91.2062 42.1824C99.572 30.4255 93.1747 15.0108 90.912 1.96947C90.6167 0.289771 88.0568 0.783799 88.0568 2.3637C87.9682 15.1413 77.885 24.5732 73.832 36.1651C74.1037 36.3193 74.3153 36.5406 74.3773 36.8479ZM91.8956 20.7424C91.5019 21.2364 90.812 21.433 90.0256 21.1366C88.7462 20.6426 87.3673 20.6426 86.0888 20.3471C85.7935 20.2483 85.5967 20.1485 85.3989 19.9509C84.7109 21.2364 84.022 22.5209 83.2346 23.8053C86.1872 24.8912 89.3357 25.3852 92.4861 25.9791C92.3877 24.2006 92.1909 22.5209 91.8956 20.7424Z" fill="#3B3734"/>
<path fill-rule="evenodd" clip-rule="evenodd" d="M85.3996 19.9512C85.5965 20.1488 85.7933 20.2486 86.0886 20.3464C87.368 20.6428 88.7459 20.6428 90.0254 21.1368C90.8128 21.4333 91.5017 21.2366 91.8964 20.7426C92.1907 22.5211 92.3885 24.2008 92.4859 25.9793C89.3365 25.3855 86.188 24.8915 83.2354 23.8046C84.0227 22.5211 84.7117 21.2366 85.3996 19.9512Z" fill="white"/>
<path fill-rule="evenodd" clip-rule="evenodd" d="M90.2226 38.0335C90.9115 36.8478 91.3052 35.6622 91.6989 34.3777H91.4036C87.3684 33.3896 83.3331 32.4994 79.2979 31.4135C79.1994 31.4135 79.101 31.3137 79.0026 31.3137C78.2152 32.7958 77.6247 34.2779 77.0342 35.76C78.3156 36.0969 79.6079 36.334 80.9021 36.5307C81.3165 36.4615 81.7279 36.5336 82.0674 36.7006C84.5634 37.0365 87.0662 37.2648 89.5336 37.7361C89.8289 37.7361 90.0257 37.8359 90.2226 38.0335Z" fill="white"/>
<path fill-rule="evenodd" clip-rule="evenodd" d="M126.637 93.2647C124.866 91.6848 123.291 89.9063 121.913 88.029C122.307 87.6328 122.405 87.0409 122.012 86.5469C120.143 84.472 118.174 82.4959 120.635 79.7283C121.127 79.2343 120.831 78.5436 120.437 78.1484C118.666 76.3699 117.878 74.294 116.303 72.5155C116.698 72.4177 117.19 72.3179 117.682 72.2201C118.666 72.1213 119.158 70.9356 118.567 70.3418C116.992 68.4655 115.811 67.0812 113.745 66.2917C114.63 65.3037 115.024 64.3156 115.122 63.4254C117.976 60.6588 120.535 57.5968 121.815 53.5448C124.669 44.6523 121.716 34.0811 119.059 25.5828C118.666 24.3971 116.992 24.1007 116.402 25.1886C110.989 34.1799 99.9664 37.2419 93.1744 44.9497C92.3988 44.8302 91.5918 44.679 90.7867 44.5298C90.4983 44.6908 90.143 44.757 89.7296 44.6523C89.6322 44.6523 89.4344 44.5545 89.2375 44.5545C88.648 44.9497 87.8596 44.6523 87.466 44.1583C82.8402 43.3678 78.116 43.4676 73.6871 41.9855C72.9007 41.7879 72.506 40.9975 72.7029 40.2061C72.9853 38.8257 73.3711 37.482 73.8317 36.1649C73.2274 35.822 72.2915 35.8458 71.8171 36.2538C68.8644 38.8238 65.5191 39.218 62.2703 36.8477C61.3845 36.156 60.106 36.4514 59.7113 37.4395C58.0382 41.3917 54.6929 38.9216 53.0187 37.8357C52.2205 37.3674 51.3013 37.7636 50.9017 38.3702C51.067 38.9759 51.2196 39.5865 51.3456 40.2061C51.4263 40.5311 51.3859 40.8473 51.2806 41.1309C51.3338 41.3512 51.3918 41.5775 51.444 41.7879C50.4598 42.0844 49.4756 42.282 48.5898 42.5784C48.5298 42.5734 48.4697 42.5616 48.4097 42.5557C44.5093 43.522 40.5468 43.4815 36.5825 44.1583C36.1888 44.7521 35.4014 44.9497 34.8109 44.5545C34.7125 44.5545 34.5166 44.6523 34.3188 44.6523C33.2352 44.925 32.5413 44.0733 32.4921 43.2265C32.3464 43.2414 32.2008 43.2532 32.0561 43.27C29.5956 40.4037 26.643 37.9335 23.9846 35.8596C17.6857 31.1169 9.61519 25.979 1.44627 26.1766C0.462062 26.1766 -0.226883 27.0649 0.0693631 28.053C3.02198 38.9216 1.74153 58.1887 14.1425 63.4254C12.0757 65.1051 10.4035 66.9834 9.41933 69.5513C8.92723 70.738 10.5994 71.5275 11.682 71.0334C11.7804 70.9356 11.8798 70.9356 12.0757 70.8358C10.7962 73.0095 9.51677 75.1843 8.13888 77.358C7.35151 78.6425 9.41933 80.1245 10.5994 78.9379C10.9931 78.5436 11.3877 78.346 11.7804 78.0496C11.1899 80.2224 11.0915 82.3961 11.4852 84.6686C11.5836 85.1626 12.1741 85.5588 12.7647 85.5588C11.8798 87.6328 10.6978 89.7087 9.61519 91.7826C9.12308 92.6729 9.71361 93.6609 10.7962 93.7587C9.41933 96.7229 7.94302 99.5893 6.66257 102.553C6.17046 103.739 7.84362 104.53 8.92723 104.036C9.31993 103.838 9.71361 103.639 10.1073 103.541C9.71361 105.615 9.91143 107.691 10.0089 109.864C10.0089 111.15 11.5836 111.446 12.6662 110.754C13.0599 110.556 13.3562 110.358 13.7489 110.062C13.2568 112.138 13.1583 114.31 13.552 116.484C13.6504 117.374 15.0283 117.671 15.8167 117.274C14.3404 120.239 12.5678 123.203 11.3877 126.267C10.9931 127.353 12.5678 128.243 13.6504 127.749C14.3404 127.452 15.0283 127.057 15.7173 126.761C14.8325 129.725 13.1583 132.589 12.0757 135.554C11.5836 136.839 13.552 137.629 14.6346 136.839C14.9299 136.641 15.2252 136.345 15.6189 136.147C15.3246 137.53 15.1267 138.914 14.8325 140.297C14.5362 141.582 16.2094 142.47 17.3904 141.582C17.5873 141.384 17.8825 141.185 18.1778 141.088C17.1936 143.162 16.5046 145.237 16.0125 147.608C15.8167 148.696 16.9967 150.178 18.1778 149.289C18.4731 149.09 18.6699 148.892 18.9652 148.794C18.8667 149.88 18.6699 150.968 18.4731 152.054C18.1778 153.438 19.8509 154.723 20.9336 153.536C21.4257 153.042 21.8194 152.548 22.3115 152.154V152.548C22.3115 153.636 23.5909 154.426 24.5751 153.833C25.5593 153.241 26.5436 152.548 27.4293 151.856C27.4293 152.45 27.4293 153.042 27.3309 153.636C27.1351 154.92 28.7088 156.403 29.7914 155.118C30.382 154.327 31.0719 153.636 31.7598 152.944C33.0403 156.6 36.6809 157.488 39.043 154.426C39.6335 155.612 40.224 156.699 40.6177 157.885C41.1098 159.267 42.8824 159.267 43.4719 157.885C44.0624 156.205 44.7514 154.624 45.3429 152.944C46.2277 154.229 47.3113 155.414 48.3929 156.6C49.0819 157.391 50.6566 157.094 50.8535 155.908C50.9519 155.414 51.0503 155.018 51.1487 154.624C51.444 155.217 51.6408 155.809 51.9361 156.403C52.3298 157.588 54.0029 157.982 54.5934 156.797C55.3808 155.414 56.0698 154.13 56.5619 152.845C57.7429 153.735 59.1218 154.524 60.4003 155.414C61.2861 156.006 62.2703 155.315 62.5665 154.524C62.7624 154.03 62.9592 153.636 63.0586 153.142C64.0428 154.624 65.2229 155.908 66.7976 156.897C67.3881 157.291 68.4718 157.094 68.8645 156.403C69.3566 155.315 69.8487 154.327 70.2423 153.339C71.6202 154.524 73.0965 155.512 74.6713 156.5C75.4586 156.897 76.7381 156.6 76.8375 155.612C76.935 154.723 77.1318 154.03 77.2302 153.241C78.7065 154.92 80.3797 156.403 82.5449 157.488C83.4317 157.885 84.4159 157.588 84.7112 156.6C85.0054 155.512 85.4001 154.624 85.6954 153.636C86.9739 155.118 88.648 156.106 90.8133 156.6C91.7975 156.797 92.5848 156.106 92.6823 155.217C92.7817 153.932 92.9775 152.845 93.0769 151.66C94.3554 152.747 95.7343 153.735 97.308 154.524C98.1948 154.92 99.179 154.624 99.4743 153.636C99.7686 152.548 100.064 151.462 100.163 150.474C101.443 151.56 102.82 152.45 104.493 153.142C105.576 153.636 106.561 152.253 106.264 151.362C106.264 151.166 106.166 150.968 106.166 150.868C107.348 151.759 108.626 152.45 110.005 153.042C110.99 153.438 112.269 152.944 112.269 151.759C112.269 151.166 112.269 150.572 112.171 150.078C113.253 150.572 114.434 150.968 115.811 151.265C117.19 151.56 117.976 150.277 117.484 149.09C116.599 147.016 115.516 145.04 114.04 143.36V142.964C113.942 142.767 113.942 142.47 113.843 142.273C114.827 142.273 115.811 141.482 115.418 140.594C115.319 140.396 115.222 140.1 115.123 139.902C116.107 140 117.19 139.112 116.795 138.321C116.008 136.839 115.615 135.257 114.926 133.775C115.418 133.875 115.811 133.974 116.206 134.171C117.387 134.468 118.371 133.48 118.174 132.589C117.976 132.095 117.879 131.601 117.78 131.107C118.863 131.899 120.535 130.911 120.24 129.725L118.863 124.982C119.651 125.179 120.339 125.279 121.127 125.575C122.504 125.97 123.488 124.587 122.897 123.697C121.619 121.721 120.832 119.745 120.339 117.769C120.535 117.868 120.635 117.868 120.832 117.966C121.913 118.46 123.685 117.671 123.095 116.484C122.405 115.102 122.012 113.62 121.619 112.236C122.308 111.94 122.603 111.05 122.208 110.358C121.421 109.074 121.127 107.79 120.732 106.406C121.52 106.209 122.012 105.615 121.716 104.924C121.127 103.739 120.732 102.454 120.437 101.269C120.832 101.466 121.127 101.565 121.52 101.763C122.701 102.257 124.177 101.466 123.784 100.281C123.193 98.3048 122.405 96.4275 121.52 94.5492C122.701 94.8466 123.882 95.3406 124.964 95.9334C126.145 96.2289 127.72 94.2528 126.637 93.2647Z" fill="white"/>
<path fill-rule="evenodd" clip-rule="evenodd" d="M111.678 54.3362C110.595 55.8183 107.938 54.435 109.119 52.8541C111.186 49.9888 112.071 46.332 111.481 42.8738C108.627 44.9497 105.872 47.0246 103.115 49.0985C101.639 50.2842 100.163 47.6164 101.639 46.5306C104.985 44.0604 108.332 41.4915 111.678 39.1201C112.564 38.5273 113.548 39.218 113.843 40.0094C115.516 44.6523 114.63 50.384 111.678 54.3362Z" fill="#7AC7C4"/>
<path fill-rule="evenodd" clip-rule="evenodd" d="M110.398 93.7588C110.3 94.5492 109.808 95.2408 108.921 95.2408C108.232 95.2408 107.347 94.5492 107.445 93.7588C107.642 92.5731 107.642 91.4872 107.642 90.3006C107.642 88.4242 110.594 88.4242 110.594 90.3006C110.594 91.4872 110.594 92.5731 110.398 93.7588Z" fill="#7AC7C4"/>
<path fill-rule="evenodd" clip-rule="evenodd" d="M101.54 92.1787C101.54 90.3004 104.493 90.3004 104.493 92.1787C104.493 93.561 104.591 94.8465 104.69 96.3286C104.788 97.119 103.903 97.8107 103.213 97.8107C102.327 97.8107 101.835 97.119 101.737 96.3286C101.54 94.9453 101.54 93.561 101.54 92.1787Z" fill="#7AC7C4"/>
<path fill-rule="evenodd" clip-rule="evenodd" d="M102.229 119.745C102.13 119.844 102.032 119.942 101.835 119.942C93.2726 121.918 84.5131 121.227 75.8531 121.227C65.2226 121.227 54.6926 121.327 44.0622 121.721H43.8663C40.9137 121.821 38.3538 122.315 35.4012 121.623C35.3027 121.623 35.1059 121.524 35.0085 121.424C30.5795 120.635 27.2322 117.275 25.8544 112.928C25.2638 111.15 28.119 110.358 28.7086 112.138C29.6928 115.201 31.858 117.572 34.8106 118.362C35.6964 115.398 36.6806 112.532 37.7633 109.667C38.1569 108.58 39.8301 107.988 40.4216 109.272C41.5033 111.742 43.078 113.816 44.4559 116.09C45.8347 113.62 47.4085 111.346 48.4911 108.778C48.8848 107.888 50.2637 107.888 50.8532 108.482C53.5106 110.952 55.1847 114.31 58.0379 116.584C59.5142 114.31 60.7937 111.94 62.3684 109.766C63.0584 108.876 64.2384 108.778 64.9274 109.766C66.6005 112.334 68.6674 114.213 71.0295 116.09C73.0963 113.322 74.8689 110.358 76.9347 107.691C77.6237 106.9 78.8057 107.296 79.2978 107.988C81.0684 110.952 82.9384 113.816 85.5957 115.892C87.5641 113.126 89.0405 110.062 91.501 107.691C91.8947 107.296 92.682 107.098 93.2726 107.494C96.7173 109.964 98.8825 113.422 100.851 117.078C104 116.386 106.756 113.916 106.658 110.556C106.559 108.679 109.512 108.679 109.61 110.556C109.709 114.904 106.461 118.46 102.229 119.745Z" fill="#3B3734"/>
<path fill-rule="evenodd" clip-rule="evenodd" d="M103.705 141.878C103.705 140.396 103.411 139.012 102.919 137.629C102.328 135.851 105.182 135.059 105.772 136.839C106.364 138.518 106.658 140.197 106.658 141.878C106.658 143.755 103.705 143.755 103.705 141.878Z" fill="#7AC7C4"/>
<path fill-rule="evenodd" clip-rule="evenodd" d="M97.9982 136.048C97.3083 136.444 96.3241 136.245 95.9304 135.554C95.3398 134.468 94.9462 133.281 94.7493 132.095C94.5535 131.305 94.8477 130.515 95.7335 130.317C96.4225 130.119 97.4067 130.515 97.5061 131.305C97.6035 132.293 97.8988 133.183 98.2925 134.072C98.5877 134.763 98.4903 135.653 97.9982 136.048Z" fill="#7AC7C4"/>
<path fill-rule="evenodd" clip-rule="evenodd" d="M86.2848 144.446C85.5958 144.644 84.6116 144.249 84.5132 143.458C84.4148 142.57 84.3163 141.582 84.2189 140.692C84.0211 139.902 84.3163 139.112 85.2031 138.914C85.8911 138.715 86.8753 139.112 86.9737 139.902C87.0721 140.791 87.0721 141.878 87.269 142.668C87.3674 143.458 87.0721 144.249 86.2848 144.446Z" fill="#7AC7C4"/>
<path fill-rule="evenodd" clip-rule="evenodd" d="M69.0606 140C68.1748 140 67.6827 139.309 67.5843 138.518C67.4869 137.135 67.2891 135.751 67.2891 134.269C67.2891 132.393 70.2417 132.393 70.2417 134.269C70.2417 135.751 70.4395 137.135 70.5369 138.518C70.6354 139.309 69.7496 140 69.0606 140Z" fill="#7AC7C4"/>
<path fill-rule="evenodd" clip-rule="evenodd" d="M47.1138 147.51C47.1138 149.386 44.1611 149.386 44.1611 147.51V145.534C44.1611 143.558 47.1138 143.558 47.1138 145.534V147.51Z" fill="#7AC7C4"/>
<path fill-rule="evenodd" clip-rule="evenodd" d="M39.6332 136.739C39.6332 135.553 39.6332 134.269 39.4374 132.986C39.338 132.195 40.2238 131.503 40.9137 131.503C41.7985 131.503 42.2906 132.195 42.39 132.986C42.4874 134.269 42.4874 135.456 42.5858 136.739C42.5858 138.617 39.6332 138.617 39.6332 136.739Z" fill="#7AC7C4"/>
<path fill-rule="evenodd" clip-rule="evenodd" d="M32.5483 143.854C32.5483 145.732 29.5957 145.732 29.5957 143.854V140.691C29.5957 138.815 32.5483 138.815 32.5483 140.691V143.854Z" fill="#7AC7C4"/>
<path fill-rule="evenodd" clip-rule="evenodd" d="M24.5753 86.1508C23.6905 86.1508 23.1984 85.4601 23.099 84.6687C23.0006 83.0888 22.8037 81.5079 22.8037 79.926C22.8037 78.0497 25.7563 78.0497 25.7563 79.926C25.8548 81.5079 25.9532 83.1866 26.0516 84.6687C26.151 85.4601 25.3626 86.1508 24.5753 86.1508Z" fill="#7AC7C4"/>
<path fill-rule="evenodd" clip-rule="evenodd" d="M27.627 76.4678C28.4133 76.1724 29.2007 76.6664 29.3975 77.4559C29.5954 78.0497 29.5954 78.7404 29.6928 79.6306C29.6928 81.5079 26.7402 81.5079 26.7402 79.6306V78.8402V78.6425V78.5437C26.7402 78.4439 26.6427 78.3461 26.6427 78.2463C26.3465 77.5557 26.8386 76.6664 27.627 76.4678Z" fill="#7AC7C4"/>
<path fill-rule="evenodd" clip-rule="evenodd" d="M39.2397 97.4156C39.2397 98.3048 39.2397 99.2929 39.3381 100.181C39.535 100.972 39.1413 101.763 38.2555 101.96C37.5666 102.157 36.5824 101.763 36.4849 100.972C36.2871 99.7869 36.2871 98.6012 36.2871 97.4156C36.2871 95.5373 39.2397 95.5373 39.2397 97.4156Z" fill="#7AC7C4"/>
<path fill-rule="evenodd" clip-rule="evenodd" d="M41.7006 51.866C42.0943 49.9886 44.9485 50.7781 44.5548 52.6564C44.4564 53.1504 44.4564 53.6445 44.4564 54.1385C45.1453 52.5566 47.7043 53.348 47.1137 55.1265C46.8194 56.1146 46.9169 57.1027 47.0153 58.1885C47.1137 58.979 46.2279 59.6706 45.539 59.6706C44.6532 59.6706 44.1611 58.979 44.0627 58.1885V57.6945C43.2753 58.4849 41.5037 58.1885 41.5037 56.7064C41.5037 55.0267 41.4063 53.4468 41.7006 51.866Z" fill="#7AC7C4"/>
<path fill-rule="evenodd" clip-rule="evenodd" d="M53.9043 74.0974C54.0027 73.9976 54.0027 73.8998 54.1012 73.8C54.8885 72.9117 56.0696 73.3059 56.6611 74.0974C56.7585 74.1962 56.7585 74.294 56.8569 74.3938C56.9554 74.4916 57.0538 74.4916 57.1532 74.5914C57.7427 74.9856 57.9396 75.5794 57.8412 76.1723C58.3333 77.4558 58.4317 78.9379 58.038 80.3221C57.9396 80.5197 57.9396 80.7164 57.8412 80.914V81.1126C57.8412 81.3102 57.7427 81.5078 57.5459 81.7044C56.7585 82.9899 55.5775 84.1746 54.0027 83.5827C50.1643 82.2982 50.9517 75.4797 53.9043 74.0974Z" fill="#3B3734"/>
<path fill-rule="evenodd" clip-rule="evenodd" d="M64.5348 95.2408C65.2227 94.9453 66.1085 95.4394 66.3054 96.2288C66.4038 97.0193 66.5032 97.8107 66.6006 98.6012C66.6006 100.477 63.648 100.477 63.648 98.6012C63.648 98.0073 63.648 97.5133 63.5506 97.0193C63.3528 96.2288 63.7464 95.4394 64.5348 95.2408Z" fill="#7AC7C4"/>
<path fill-rule="evenodd" clip-rule="evenodd" d="M71.3251 74.0974C71.4245 73.9976 71.4245 73.8998 71.5219 73.8C72.3093 72.9117 73.4903 73.3059 74.0809 74.0974C74.1793 74.1962 74.1793 74.294 74.2777 74.3938C74.3771 74.4916 74.4745 74.4916 74.573 74.5914C75.1635 74.9856 75.3613 75.5794 75.2619 76.1723C75.754 77.4558 75.8534 78.9379 75.4588 80.3221C75.3613 80.5197 75.3613 80.7164 75.2619 80.914V81.1126C75.2619 81.3102 75.1635 81.5078 74.9667 81.7044C74.1793 82.9899 72.9982 84.1746 71.4245 83.5827C67.5851 82.2982 68.3725 75.4797 71.3251 74.0974Z" fill="#3B3734"/>
<path fill-rule="evenodd" clip-rule="evenodd" d="M84.5133 57.3005C84.8085 58.9792 85.0054 60.7587 85.0054 62.4374C85.0054 64.3157 82.0528 64.3157 82.0528 62.4374C82.0528 60.9553 81.9543 59.573 81.6591 58.091C81.2664 56.2127 84.1196 55.4232 84.5133 57.3005Z" fill="#7AC7C4"/>
<path fill-rule="evenodd" clip-rule="evenodd" d="M90.9112 74.5913C91.6012 74.2939 92.486 74.788 92.6828 75.5794C92.7812 76.4677 92.8797 77.4557 92.9781 78.2462C93.1749 79.0376 92.7812 79.828 91.9939 80.0256C91.3049 80.2223 90.3207 79.828 90.2223 79.0376C90.1249 78.1483 90.0255 77.0615 89.927 76.3698C89.7302 75.5794 90.1249 74.788 90.9112 74.5913Z" fill="#7AC7C4"/>
<path fill-rule="evenodd" clip-rule="evenodd" d="M17.0948 48.4079C15.2248 46.2341 13.3557 44.1582 11.3873 42.1821C11.1895 44.0604 11.3873 45.8379 11.9769 47.6164C12.5674 49.3959 9.7132 50.1864 9.12267 48.4079C8.23689 45.8379 8.13847 43.1702 8.63057 40.5034C8.82741 39.6142 9.61478 39.3177 10.3037 39.5154C10.7958 38.8237 11.78 38.4275 12.5674 39.218C14.8321 41.4915 17.0948 43.8618 19.1616 46.332C20.3426 47.7162 18.2768 49.89 17.0948 48.4079Z" fill="#7AC7C4"/>
<path fill-rule="evenodd" clip-rule="evenodd" d="M73.6877 41.9854C78.1166 43.4675 82.8408 43.3677 87.4666 44.1582C87.8593 44.6522 88.6476 44.9496 89.2382 44.5544C89.435 44.5544 89.6318 44.6522 89.7303 44.6522C90.1436 44.7569 90.4989 44.6907 90.7873 44.5297C90.2657 44.4338 89.7421 44.336 89.2382 44.258C89.2382 43.4675 89.2382 42.7759 89.0413 41.8856C88.9429 41.0962 88.1555 40.4036 87.0729 40.6022C85.4982 40.9974 83.9225 40.8976 82.3487 40.8976C82.4462 40.0093 82.5456 39.0213 82.7424 38.132C82.956 37.4868 82.6095 36.9691 82.0672 36.7003C81.6785 36.6489 81.2907 36.5897 80.9019 36.5304C80.7592 36.5551 80.6165 36.5916 80.4777 36.6499C78.7071 37.4394 76.7387 37.7358 74.7703 38.3296C74.6719 37.8356 74.4751 37.3416 74.3766 36.8475C74.3156 36.5403 74.104 36.3199 73.8314 36.1648C73.3718 37.4819 72.985 38.8256 72.7035 40.2059C72.5066 40.9974 72.9003 41.7878 73.6877 41.9854Z" fill="white"/>
<path fill-rule="evenodd" clip-rule="evenodd" d="M80.9014 36.531C81.2901 36.5903 81.6779 36.6487 82.0667 36.7011C81.7271 36.534 81.3157 36.4618 80.9014 36.531Z" fill="white"/>
<path fill-rule="evenodd" clip-rule="evenodd" d="M92.6829 110.852C90.616 113.223 89.2382 115.99 87.3682 118.46C90.9113 118.362 94.4545 118.262 97.8008 117.67C96.4229 115.199 94.8481 112.729 92.6829 110.852Z" fill="white"/>
<path fill-rule="evenodd" clip-rule="evenodd" d="M37.6807 119.075C37.7951 119.075 37.9073 119.184 37.9073 119.184C39.8336 119.292 41.6467 119.075 43.4608 119.075C42.2132 117.119 40.8535 115.271 39.7203 113.424C38.9283 115.271 38.3617 117.227 37.6807 119.075Z" fill="white"/>
<path fill-rule="evenodd" clip-rule="evenodd" d="M63.7461 113.126C62.6635 114.804 61.6793 116.584 60.5977 118.263H68.9634C66.995 116.683 65.3218 115.002 63.7461 113.126Z" fill="white"/>
<path fill-rule="evenodd" clip-rule="evenodd" d="M46.7197 118.658C49.7718 118.56 52.7244 118.461 55.677 118.461C53.7086 116.584 52.1329 114.311 50.3613 112.236C49.2796 114.41 47.8033 116.485 46.7197 118.658Z" fill="white"/>
<path fill-rule="evenodd" clip-rule="evenodd" d="M77.9195 111.446C76.3448 113.718 74.8685 116.09 73.1953 118.262H74.1795C77.4274 118.262 80.6753 118.362 83.9232 118.362C81.4626 116.485 79.5927 114.015 77.9195 111.446Z" fill="white"/>
</svg>
