<svg width="127" height="159" viewBox="0 0 127 159" fill="none" xmlns="http://www.w3.org/2000/svg">
<path fill-rule="evenodd" clip-rule="evenodd" d="M44.9482 30.7727C44.8498 30.7727 44.7514 30.8715 44.653 30.8715C40.6177 31.9584 36.5825 32.8476 32.5472 33.8357H32.252C32.6456 35.0214 33.1377 36.3058 33.7283 37.4915C33.9251 37.3927 34.1219 37.2939 34.4172 37.1951C38.5509 36.3058 42.8814 36.207 46.9166 35.219C46.3261 33.6371 45.6372 32.2548 44.9482 30.7727Z" fill="#3B3734"/>
<path fill-rule="evenodd" clip-rule="evenodd" d="M38.5511 19.3108C38.4527 19.5084 38.1575 19.6082 37.8622 19.706C36.5827 19.9046 35.1064 20.0024 33.9254 20.4965C33.2364 20.7929 32.4491 20.5963 32.0554 20.1022C31.7601 21.8807 31.5633 23.5604 31.4648 25.3389C34.6143 24.7451 37.7638 24.2511 40.7164 23.1642C40.0274 21.8807 39.2401 20.5963 38.5511 19.3108Z" fill="#3B3734"/>
<path fill-rule="evenodd" clip-rule="evenodd" d="M50.3618 41.3456C49.7132 41.572 49.0627 41.7549 48.4102 41.916C48.4702 41.922 48.5302 41.9338 48.5903 41.9388C49.4761 41.6422 50.4603 41.4445 51.4445 41.1479C51.3923 40.9373 51.3342 40.7109 51.2811 40.4905C51.1305 40.8978 50.8254 41.229 50.3618 41.3456Z" fill="#7AC7C4"/>
<path fill-rule="evenodd" clip-rule="evenodd" d="M50.7559 38.6773C50.9724 39.2573 51.1318 39.8827 51.2805 40.4904C51.3867 40.2068 51.4271 39.8916 51.3464 39.5655C51.2204 38.946 51.0669 38.3354 50.9015 37.7297C50.7106 38.0212 50.6279 38.3572 50.7559 38.6773Z" fill="#7AC7C4"/>
<path fill-rule="evenodd" clip-rule="evenodd" d="M41.6016 40.5544C43.9037 41.1324 46.1123 41.7035 48.4094 41.9159C49.0619 41.7539 49.7125 41.5721 50.3611 41.3448C50.8246 41.2282 51.1307 40.8972 51.2803 40.4902C51.1317 39.8825 50.9723 39.2571 50.7557 38.6771C50.6278 38.3569 50.7105 38.021 50.9014 37.7295C47.4646 25.1012 36.0861 15.3006 35.9926 1.72374C35.9926 0.14285 33.4327 -0.351179 33.1375 1.32852C30.8748 14.3709 24.4774 29.6857 32.8432 41.5424C32.5666 41.8201 32.4692 42.2024 32.4918 42.5858C34.9041 42.3279 37.3174 42.2222 39.7326 42.0365C39.5348 41.1472 40.4216 40.258 41.6016 40.5544Z" fill="#3B3734"/>
<path fill-rule="evenodd" clip-rule="evenodd" d="M33.7283 37.4915C33.1377 36.3058 32.6456 35.0213 32.252 33.8357H32.5482C36.5825 32.8476 40.6177 31.9584 44.6539 30.8715C44.7514 30.8715 44.8508 30.7727 44.9482 30.7727C45.6381 32.2548 46.3271 33.6381 46.9166 35.219C42.8824 36.207 38.5509 36.3058 34.4172 37.1951C34.1219 37.2939 33.9251 37.3927 33.7283 37.4915Z" fill="white"/>
<path fill-rule="evenodd" clip-rule="evenodd" d="M32.0564 20.1017C32.4491 20.5958 33.2364 20.7934 33.9254 20.4969C35.1064 20.0029 36.5827 19.9041 37.8622 19.7065C38.1575 19.6077 38.4537 19.5089 38.5511 19.3113C39.2411 20.5958 40.0274 21.8802 40.7174 23.1647C37.7648 24.2516 34.6143 24.7456 31.4648 25.3384C31.5642 23.5599 31.7601 21.8802 32.0564 20.1017Z" fill="white"/>
<path fill-rule="evenodd" clip-rule="evenodd" d="M34.3189 44.0121C34.5157 44.0121 34.7116 43.9133 34.811 43.9133C35.4015 44.3096 36.1879 44.1119 36.5826 43.5181C40.546 42.8403 44.5094 42.8808 48.4088 41.9155C46.1116 41.7031 43.9031 41.132 41.601 40.5539C40.421 40.2575 39.5352 41.1478 39.732 42.036C37.3178 42.2218 34.9045 42.3275 32.4922 42.5864C32.5404 43.4331 33.2343 44.2839 34.3189 44.0121Z" fill="#7AC7C4"/>
<path fill-rule="evenodd" clip-rule="evenodd" d="M74.3773 36.2075C74.4747 36.7015 74.6725 37.1955 74.77 37.6896C76.7384 37.0958 78.7068 36.7993 80.4784 36.0089C80.6172 35.9516 80.7589 35.915 80.9026 35.8903C79.6074 35.6937 78.3161 35.4566 77.0337 35.1196C77.6252 33.6376 78.2147 32.1555 79.0021 30.6734C79.1015 30.6734 79.1989 30.7732 79.2983 30.7732C83.3326 31.8591 87.3678 32.7493 91.4041 33.7373H91.6983C91.3047 35.0208 90.912 36.2075 90.222 37.3932C90.0252 37.1955 89.8284 37.0957 89.5331 37.0957C87.0657 36.6235 84.5628 36.3962 82.0669 36.0603C82.6102 36.329 82.9566 36.8468 82.743 37.491C82.5462 38.3812 82.4468 39.3693 82.3484 40.2575C83.9231 40.2575 85.4988 40.3573 87.0726 39.9611C88.1562 39.7635 88.9436 40.4551 89.041 41.2456C89.2378 42.1358 89.2378 42.8275 89.2378 43.6179C89.7417 43.696 90.2653 43.7928 90.788 43.8896C91.5989 43.4391 91.8598 42.1981 91.2062 41.542C99.572 29.7851 93.1747 14.3704 90.912 1.32909C90.6167 -0.35061 88.0568 0.143419 88.0568 1.72332C87.9682 14.5009 77.885 23.9329 73.832 35.5247C74.1037 35.6789 74.3153 35.9002 74.3773 36.2075ZM91.8956 20.102C91.5019 20.596 90.812 20.7926 90.0256 20.4962C88.7462 20.0022 87.3673 20.0022 86.0888 19.7067C85.7935 19.6079 85.5967 19.5081 85.3989 19.3105C84.7109 20.596 84.022 21.8805 83.2346 23.1649C86.1872 24.2508 89.3357 24.7448 92.4861 25.3387C92.3877 23.5602 92.1909 21.8805 91.8956 20.102Z" fill="#3B3734"/>
<path fill-rule="evenodd" clip-rule="evenodd" d="M85.3996 19.3108C85.5965 19.5084 85.7933 19.6082 86.0886 19.706C87.368 20.0024 88.7459 20.0024 90.0254 20.4965C90.8128 20.7929 91.5017 20.5963 91.8964 20.1022C92.1907 21.8807 92.3885 23.5604 92.4859 25.3389C89.3365 24.7451 86.188 24.2511 83.2354 23.1642C84.0227 21.8807 84.7117 20.5963 85.3996 19.3108Z" fill="white"/>
<path fill-rule="evenodd" clip-rule="evenodd" d="M90.2226 37.3931C90.9115 36.2074 91.3052 35.0218 91.6989 33.7373H91.4036C87.3684 32.7492 83.3331 31.859 79.2979 30.7731C79.1994 30.7731 79.101 30.6733 79.0026 30.6733C78.2152 32.1554 77.6247 33.6375 77.0342 35.1196C78.3156 35.4565 79.6079 35.6937 80.9021 35.8903C81.3165 35.8211 81.7279 35.8932 82.0674 36.0602C84.5634 36.3962 87.0662 36.6244 89.5336 37.0957C89.8289 37.0957 90.0257 37.1955 90.2226 37.3931Z" fill="white"/>
<path fill-rule="evenodd" clip-rule="evenodd" d="M126.637 92.6243C124.866 91.0444 123.291 89.2659 121.913 87.3886C122.307 86.9924 122.405 86.4006 122.012 85.9065C120.143 83.8316 118.174 81.8555 120.635 79.088C121.127 78.5939 120.831 77.9033 120.437 77.508C118.666 75.7295 117.878 73.6536 116.303 71.8751C116.698 71.7773 117.19 71.6775 117.682 71.5797C118.666 71.4809 119.158 70.2952 118.567 69.7014C116.992 67.8251 115.811 66.4408 113.745 65.6514C114.63 64.6633 115.024 63.6753 115.122 62.785C117.976 60.0185 120.535 56.9565 121.815 52.9044C124.669 44.0119 121.716 33.4407 119.059 24.9424C118.666 23.7568 116.992 23.4604 116.402 24.5482C110.989 33.5395 99.9664 36.6015 93.1744 44.3093C92.3988 44.1898 91.5918 44.0386 90.7867 43.8894C90.4983 44.0505 90.143 44.1167 89.7296 44.0119C89.6322 44.0119 89.4344 43.9141 89.2375 43.9141C88.648 44.3093 87.8596 44.0119 87.466 43.5179C82.8402 42.7275 78.116 42.8273 73.6871 41.3452C72.9007 41.1476 72.506 40.3571 72.7029 39.5657C72.9853 38.1854 73.3711 36.8416 73.8317 35.5245C73.2274 35.1817 72.2915 35.2054 71.8171 35.6135C68.8644 38.1834 65.5191 38.5776 62.2703 36.2073C61.3845 35.5156 60.106 35.8111 59.7113 36.7991C58.0382 40.7513 54.6929 38.2812 53.0187 37.1953C52.2205 36.727 51.3013 37.1232 50.9017 37.7299C51.067 38.3355 51.2196 38.9462 51.3456 39.5657C51.4263 39.8907 51.3859 40.2069 51.2806 40.4905C51.3338 40.7108 51.3918 40.9371 51.444 41.1476C50.4598 41.444 49.4756 41.6416 48.5898 41.938C48.5298 41.9331 48.4697 41.9212 48.4097 41.9153C44.5093 42.8816 40.5468 42.8411 36.5825 43.5179C36.1888 44.1117 35.4014 44.3093 34.8109 43.9141C34.7125 43.9141 34.5166 44.0119 34.3188 44.0119C33.2352 44.2846 32.5413 43.4329 32.4921 42.5862C32.3464 42.601 32.2008 42.6128 32.0561 42.6296C29.5956 39.7633 26.643 37.2931 23.9846 35.2192C17.6857 30.4765 9.61519 25.3386 1.44627 25.5363C0.462062 25.5363 -0.226883 26.4245 0.0693631 27.4126C3.02198 38.2812 1.74153 57.5483 14.1425 62.785C12.0757 64.4647 10.4035 66.343 9.41933 68.911C8.92723 70.0976 10.5994 70.8871 11.682 70.3931C11.7804 70.2952 11.8798 70.2952 12.0757 70.1954C10.7962 72.3692 9.51677 74.5439 8.13888 76.7176C7.35151 78.0021 9.41933 79.4842 10.5994 78.2975C10.9931 77.9033 11.3877 77.7057 11.7804 77.4092C11.1899 79.582 11.0915 81.7557 11.4852 84.0282C11.5836 84.5223 12.1741 84.9185 12.7647 84.9185C11.8798 86.9924 10.6978 89.0683 9.61519 91.1422C9.12308 92.0325 9.71361 93.0205 10.7962 93.1184C9.41933 96.0825 7.94302 98.9489 6.66257 101.913C6.17046 103.099 7.84362 103.889 8.92723 103.395C9.31993 103.198 9.71361 102.999 10.1073 102.901C9.71361 104.975 9.91143 107.051 10.0089 109.224C10.0089 110.509 11.5836 110.806 12.6662 110.114C13.0599 109.915 13.3562 109.718 13.7489 109.421C13.2568 111.497 13.1583 113.67 13.552 115.844C13.6504 116.734 15.0283 117.03 15.8167 116.634C14.3404 119.598 12.5678 122.562 11.3877 125.626C10.9931 126.712 12.5678 127.603 13.6504 127.109C14.3404 126.812 15.0283 126.417 15.7173 126.12C14.8325 129.085 13.1583 131.949 12.0757 134.913C11.5836 136.199 13.552 136.989 14.6346 136.199C14.9299 136.001 15.2252 135.705 15.6189 135.507C15.3246 136.889 15.1267 138.274 14.8325 139.657C14.5362 140.941 16.2094 141.83 17.3904 140.941C17.5873 140.744 17.8825 140.545 18.1778 140.447C17.1936 142.521 16.5046 144.597 16.0125 146.967C15.8167 148.055 16.9967 149.537 18.1778 148.648C18.4731 148.45 18.6699 148.252 18.9652 148.154C18.8667 149.24 18.6699 150.328 18.4731 151.414C18.1778 152.798 19.8509 154.082 20.9336 152.896C21.4257 152.402 21.8194 151.908 22.3115 151.514V151.908C22.3115 152.996 23.5909 153.786 24.5751 153.192C25.5593 152.6 26.5436 151.908 27.4293 151.216C27.4293 151.81 27.4293 152.402 27.3309 152.996C27.1351 154.28 28.7088 155.762 29.7914 154.478C30.382 153.686 31.0719 152.996 31.7598 152.304C33.0403 155.96 36.6809 156.848 39.043 153.786C39.6335 154.972 40.224 156.059 40.6177 157.244C41.1098 158.627 42.8824 158.627 43.4719 157.244C44.0624 155.565 44.7514 153.984 45.3429 152.304C46.2277 153.588 47.3113 154.774 48.3929 155.96C49.0819 156.75 50.6566 156.454 50.8535 155.268C50.9519 154.774 51.0503 154.378 51.1487 153.984C51.444 154.576 51.6408 155.168 51.9361 155.762C52.3298 156.948 54.0029 157.342 54.5934 156.156C55.3808 154.774 56.0698 153.49 56.5619 152.204C57.7429 153.094 59.1218 153.884 60.4003 154.774C61.2861 155.366 62.2703 154.674 62.5665 153.884C62.7624 153.39 62.9592 152.996 63.0586 152.502C64.0428 153.984 65.2229 155.268 66.7976 156.256C67.3881 156.65 68.4718 156.454 68.8645 155.762C69.3566 154.674 69.8487 153.686 70.2423 152.698C71.6202 153.884 73.0965 154.872 74.6713 155.86C75.4586 156.256 76.7381 155.96 76.8375 154.972C76.935 154.082 77.1318 153.39 77.2302 152.6C78.7065 154.28 80.3797 155.762 82.5449 156.848C83.4317 157.244 84.4159 156.948 84.7112 155.96C85.0054 154.872 85.4001 153.984 85.6954 152.996C86.9739 154.478 88.648 155.466 90.8133 155.96C91.7975 156.156 92.5848 155.466 92.6823 154.576C92.7817 153.292 92.9775 152.204 93.0769 151.019C94.3554 152.106 95.7343 153.094 97.308 153.884C98.1948 154.28 99.179 153.984 99.4743 152.996C99.7686 151.908 100.064 150.822 100.163 149.834C101.443 150.92 102.82 151.81 104.493 152.502C105.576 152.996 106.561 151.612 106.264 150.722C106.264 150.525 106.166 150.328 106.166 150.228C107.348 151.118 108.626 151.81 110.005 152.402C110.99 152.798 112.269 152.304 112.269 151.118C112.269 150.525 112.269 149.932 112.171 149.438C113.253 149.932 114.434 150.328 115.811 150.624C117.19 150.92 117.976 149.636 117.484 148.45C116.599 146.376 115.516 144.399 114.04 142.72V142.324C113.942 142.127 113.942 141.83 113.843 141.633C114.827 141.633 115.811 140.842 115.418 139.953C115.319 139.756 115.222 139.459 115.123 139.262C116.107 139.359 117.19 138.471 116.795 137.681C116.008 136.199 115.615 134.617 114.926 133.135C115.418 133.234 115.811 133.333 116.206 133.531C117.387 133.827 118.371 132.839 118.174 131.949C117.976 131.455 117.879 130.961 117.78 130.467C118.863 131.258 120.535 130.27 120.24 129.085L118.863 124.342C119.651 124.539 120.339 124.638 121.127 124.935C122.504 125.33 123.488 123.947 122.897 123.056C121.619 121.08 120.832 119.104 120.339 117.128C120.535 117.228 120.635 117.228 120.832 117.326C121.913 117.82 123.685 117.03 123.095 115.844C122.405 114.461 122.012 112.979 121.619 111.596C122.308 111.3 122.603 110.409 122.208 109.718C121.421 108.433 121.127 107.15 120.732 105.765C121.52 105.569 122.012 104.975 121.716 104.283C121.127 103.099 120.732 101.813 120.437 100.629C120.832 100.825 121.127 100.925 121.52 101.123C122.701 101.617 124.177 100.825 123.784 99.6405C123.193 97.6644 122.405 95.7871 121.52 93.9088C122.701 94.2062 123.882 94.7002 124.964 95.2931C126.145 95.5885 127.72 93.6124 126.637 92.6243Z" fill="#7AC7C4"/>
<path fill-rule="evenodd" clip-rule="evenodd" d="M111.678 53.6958C110.595 55.1779 107.938 53.7946 109.119 52.2138C111.186 49.3484 112.071 45.6916 111.481 42.2334C108.627 44.3093 105.872 46.3842 103.115 48.4582C101.639 49.6438 100.163 46.9761 101.639 45.8902C104.985 43.42 108.332 40.8511 111.678 38.4798C112.564 37.8869 113.548 38.5776 113.843 39.369C115.516 44.0119 114.63 49.7436 111.678 53.6958Z" fill="#3B3734"/>
<path fill-rule="evenodd" clip-rule="evenodd" d="M110.398 93.1184C110.3 93.9088 109.808 94.6005 108.921 94.6005C108.232 94.6005 107.347 93.9088 107.445 93.1184C107.642 91.9327 107.642 90.8468 107.642 89.6602C107.642 87.7838 110.594 87.7838 110.594 89.6602C110.594 90.8468 110.594 91.9327 110.398 93.1184Z" fill="white"/>
<path fill-rule="evenodd" clip-rule="evenodd" d="M101.54 91.5384C101.54 89.6601 104.493 89.6601 104.493 91.5384C104.493 92.9207 104.591 94.2061 104.69 95.6882C104.788 96.4786 103.903 97.1703 103.213 97.1703C102.327 97.1703 101.835 96.4786 101.737 95.6882C101.54 94.3049 101.54 92.9207 101.54 91.5384Z" fill="white"/>
<path fill-rule="evenodd" clip-rule="evenodd" d="M102.229 119.104C102.13 119.204 102.032 119.302 101.835 119.302C93.2726 121.278 84.5131 120.586 75.8531 120.586C65.2226 120.586 54.6926 120.686 44.0622 121.08H43.8663C40.9137 121.18 38.3538 121.674 35.4012 120.983C35.3027 120.983 35.1059 120.884 35.0085 120.784C30.5795 119.995 27.2322 116.634 25.8544 112.288C25.2638 110.509 28.119 109.718 28.7086 111.497C29.6928 114.56 31.858 116.932 34.8106 117.722C35.6964 114.758 36.6806 111.891 37.7633 109.027C38.1569 107.939 39.8301 107.347 40.4216 108.632C41.5033 111.102 43.078 113.176 44.4559 115.449C45.8347 112.979 47.4085 110.706 48.4911 108.138C48.8848 107.248 50.2637 107.248 50.8532 107.841C53.5106 110.312 55.1847 113.67 58.0379 115.944C59.5142 113.67 60.7937 111.3 62.3684 109.126C63.0584 108.236 64.2384 108.138 64.9274 109.126C66.6005 111.694 68.6674 113.572 71.0295 115.449C73.0963 112.682 74.8689 109.718 76.9347 107.051C77.6237 106.26 78.8057 106.656 79.2978 107.347C81.0684 110.312 82.9384 113.176 85.5957 115.252C87.5641 112.485 89.0405 109.421 91.501 107.051C91.8947 106.656 92.682 106.457 93.2726 106.853C96.7173 109.324 98.8825 112.782 100.851 116.438C104 115.746 106.756 113.276 106.658 109.915C106.559 108.039 109.512 108.039 109.61 109.915C109.709 114.264 106.461 117.82 102.229 119.104Z" fill="#3B3734"/>
<path fill-rule="evenodd" clip-rule="evenodd" d="M103.705 141.238C103.705 139.755 103.411 138.371 102.919 136.989C102.328 135.21 105.182 134.419 105.772 136.198C106.364 137.877 106.658 139.557 106.658 141.238C106.658 143.115 103.705 143.115 103.705 141.238Z" fill="white"/>
<path fill-rule="evenodd" clip-rule="evenodd" d="M97.9982 135.407C97.3083 135.803 96.3241 135.605 95.9304 134.913C95.3398 133.827 94.9462 132.641 94.7493 131.455C94.5535 130.665 94.8477 129.875 95.7335 129.677C96.4225 129.479 97.4067 129.875 97.5061 130.665C97.6035 131.653 97.8988 132.543 98.2925 133.431C98.5877 134.123 98.4903 135.013 97.9982 135.407Z" fill="white"/>
<path fill-rule="evenodd" clip-rule="evenodd" d="M86.2848 143.806C85.5958 144.003 84.6116 143.609 84.5132 142.818C84.4148 141.929 84.3163 140.941 84.2189 140.051C84.0211 139.262 84.3163 138.471 85.2031 138.274C85.8911 138.075 86.8753 138.471 86.9737 139.262C87.0721 140.151 87.0721 141.238 87.269 142.027C87.3674 142.818 87.0721 143.609 86.2848 143.806Z" fill="white"/>
<path fill-rule="evenodd" clip-rule="evenodd" d="M69.0606 139.359C68.1748 139.359 67.6827 138.668 67.5843 137.877C67.4869 136.495 67.2891 135.111 67.2891 133.628C67.2891 131.752 70.2417 131.752 70.2417 133.628C70.2417 135.111 70.4395 136.495 70.5369 137.877C70.6354 138.668 69.7496 139.359 69.0606 139.359Z" fill="white"/>
<path fill-rule="evenodd" clip-rule="evenodd" d="M47.1138 146.87C47.1138 148.746 44.1611 148.746 44.1611 146.87V144.893C44.1611 142.917 47.1138 142.917 47.1138 144.893V146.87Z" fill="white"/>
<path fill-rule="evenodd" clip-rule="evenodd" d="M39.6332 136.099C39.6332 134.913 39.6332 133.629 39.4374 132.345C39.338 131.555 40.2238 130.863 40.9137 130.863C41.7985 130.863 42.2906 131.555 42.39 132.345C42.4874 133.629 42.4874 134.815 42.5858 136.099C42.5858 137.977 39.6332 137.977 39.6332 136.099Z" fill="white"/>
<path fill-rule="evenodd" clip-rule="evenodd" d="M32.5483 143.214C32.5483 145.091 29.5957 145.091 29.5957 143.214V140.051C29.5957 138.175 32.5483 138.175 32.5483 140.051V143.214Z" fill="white"/>
<path fill-rule="evenodd" clip-rule="evenodd" d="M24.5753 85.5104C23.6905 85.5104 23.1984 84.8198 23.099 84.0283C23.0006 82.4484 22.8037 80.8675 22.8037 79.2857C22.8037 77.4093 25.7563 77.4093 25.7563 79.2857C25.8548 80.8675 25.9532 82.5462 26.0516 84.0283C26.151 84.8198 25.3626 85.5104 24.5753 85.5104Z" fill="white"/>
<path fill-rule="evenodd" clip-rule="evenodd" d="M27.627 75.8274C28.4133 75.532 29.2007 76.026 29.3975 76.8155C29.5954 77.4093 29.5954 78.1 29.6928 78.9902C29.6928 80.8675 26.7402 80.8675 26.7402 78.9902V78.1998V78.0022V77.9033C26.7402 77.8036 26.6427 77.7057 26.6427 77.6059C26.3465 76.9153 26.8386 76.026 27.627 75.8274Z" fill="white"/>
<path fill-rule="evenodd" clip-rule="evenodd" d="M39.2397 96.7752C39.2397 97.6644 39.2397 98.6525 39.3381 99.5407C39.535 100.331 39.1413 101.123 38.2555 101.319C37.5666 101.517 36.5824 101.123 36.4849 100.331C36.2871 99.1465 36.2871 97.9608 36.2871 96.7752C36.2871 94.8969 39.2397 94.8969 39.2397 96.7752Z" fill="white"/>
<path fill-rule="evenodd" clip-rule="evenodd" d="M41.7006 51.2256C42.0943 49.3483 44.9485 50.1377 44.5548 52.016C44.4564 52.51 44.4564 53.0041 44.4564 53.4981C45.1453 51.9162 47.7043 52.7077 47.1137 54.4862C46.8194 55.4742 46.9169 56.4623 47.0153 57.5481C47.1137 58.3386 46.2279 59.0302 45.539 59.0302C44.6532 59.0302 44.1611 58.3386 44.0627 57.5481V57.0541C43.2753 57.8446 41.5037 57.5481 41.5037 56.0661C41.5037 54.3864 41.4063 52.8065 41.7006 51.2256Z" fill="white"/>
<path fill-rule="evenodd" clip-rule="evenodd" d="M53.9043 73.457C54.0027 73.3572 54.0027 73.2594 54.1012 73.1596C54.8885 72.2713 56.0696 72.6655 56.6611 73.457C56.7585 73.5558 56.7585 73.6536 56.8569 73.7534C56.9554 73.8512 57.0538 73.8512 57.1532 73.951C57.7427 74.3452 57.9396 74.9391 57.8412 75.5319C58.3333 76.8154 58.4317 78.2975 58.038 79.6817C57.9396 79.8793 57.9396 80.076 57.8412 80.2736V80.4722C57.8412 80.6698 57.7427 80.8674 57.5459 81.064C56.7585 82.3495 55.5775 83.5342 54.0027 82.9423C50.1643 81.6579 50.9517 74.8393 53.9043 73.457Z" fill="#3B3734"/>
<path fill-rule="evenodd" clip-rule="evenodd" d="M64.5348 94.6004C65.2227 94.305 66.1085 94.799 66.3054 95.5884C66.4038 96.3789 66.5032 97.1703 66.6006 97.9608C66.6006 99.8371 63.648 99.8371 63.648 97.9608C63.648 97.367 63.648 96.8729 63.5506 96.3789C63.3528 95.5884 63.7464 94.799 64.5348 94.6004Z" fill="white"/>
<path fill-rule="evenodd" clip-rule="evenodd" d="M71.3251 73.457C71.4245 73.3572 71.4245 73.2594 71.5219 73.1596C72.3093 72.2713 73.4903 72.6655 74.0809 73.457C74.1793 73.5558 74.1793 73.6536 74.2777 73.7534C74.3771 73.8512 74.4745 73.8512 74.573 73.951C75.1635 74.3452 75.3613 74.9391 75.2619 75.5319C75.754 76.8154 75.8534 78.2975 75.4588 79.6817C75.3613 79.8793 75.3613 80.076 75.2619 80.2736V80.4722C75.2619 80.6698 75.1635 80.8674 74.9667 81.064C74.1793 82.3495 72.9982 83.5342 71.4245 82.9423C67.5851 81.6579 68.3725 74.8393 71.3251 73.457Z" fill="#3B3734"/>
<path fill-rule="evenodd" clip-rule="evenodd" d="M84.5133 56.6601C84.8085 58.3388 85.0054 60.1183 85.0054 61.797C85.0054 63.6753 82.0528 63.6753 82.0528 61.797C82.0528 60.315 81.9543 58.9327 81.6591 57.4506C81.2664 55.5723 84.1196 54.7828 84.5133 56.6601Z" fill="white"/>
<path fill-rule="evenodd" clip-rule="evenodd" d="M90.9112 73.9509C91.6012 73.6535 92.486 74.1476 92.6828 74.939C92.7812 75.8273 92.8797 76.8153 92.9781 77.6058C93.1749 78.3972 92.7812 79.1876 91.9939 79.3853C91.3049 79.5819 90.3207 79.1876 90.2223 78.3972C90.1249 77.5079 90.0255 76.4211 89.927 75.7294C89.7302 74.939 90.1249 74.1476 90.9112 73.9509Z" fill="white"/>
<path fill-rule="evenodd" clip-rule="evenodd" d="M17.0948 47.7675C15.2248 45.5938 13.3557 43.5179 11.3873 41.5417C11.1895 43.42 11.3873 45.1976 11.9769 46.9761C12.5674 48.7555 9.7132 49.546 9.12267 47.7675C8.23689 45.1976 8.13847 42.5298 8.63057 39.863C8.82741 38.9738 9.61478 38.6774 10.3037 38.875C10.7958 38.1833 11.78 37.7871 12.5674 38.5776C14.8321 40.8511 17.0948 43.2214 19.1616 45.6916C20.3426 47.0759 18.2768 49.2496 17.0948 47.7675Z" fill="#3B3734"/>
<path fill-rule="evenodd" clip-rule="evenodd" d="M73.6877 41.3451C78.1166 42.8271 82.8408 42.7273 87.4666 43.5178C87.8593 44.0118 88.6476 44.3092 89.2382 43.914C89.435 43.914 89.6318 44.0118 89.7303 44.0118C90.1436 44.1166 90.4989 44.0504 90.7873 43.8893C90.2657 43.7935 89.7421 43.6956 89.2382 43.6176C89.2382 42.8271 89.2382 42.1355 89.0413 41.2453C88.9429 40.4558 88.1555 39.7632 87.0729 39.9618C85.4982 40.357 83.9225 40.2572 82.3487 40.2572C82.4462 39.3689 82.5456 38.3809 82.7424 37.4916C82.956 36.8464 82.6095 36.3287 82.0672 36.0599C81.6785 36.0086 81.2907 35.9493 80.9019 35.89C80.7592 35.9147 80.6165 35.9513 80.4777 36.0095C78.7071 36.799 76.7387 37.0954 74.7703 37.6892C74.6719 37.1952 74.4751 36.7012 74.3766 36.2072C74.3156 35.8999 74.104 35.6795 73.8314 35.5244C73.3718 36.8415 72.985 38.1853 72.7035 39.5656C72.5066 40.357 72.9003 41.1474 73.6877 41.3451Z" fill="#7AC7C4"/>
<path fill-rule="evenodd" clip-rule="evenodd" d="M80.9014 35.8906C81.2901 35.95 81.6779 36.0083 82.0667 36.0607C81.7271 35.8936 81.3157 35.8214 80.9014 35.8906Z" fill="white"/>
<path fill-rule="evenodd" clip-rule="evenodd" d="M92.6829 110.212C90.616 112.583 89.2382 115.35 87.3682 117.82C90.9113 117.722 94.4545 117.622 97.8008 117.03C96.4229 114.559 94.8481 112.089 92.6829 110.212Z" fill="white"/>
<path fill-rule="evenodd" clip-rule="evenodd" d="M37.6807 118.435C37.7951 118.435 37.9073 118.544 37.9073 118.544C39.8336 118.652 41.6467 118.435 43.4608 118.435C42.2132 116.479 40.8535 114.631 39.7203 112.784C38.9283 114.631 38.3617 116.587 37.6807 118.435Z" fill="white"/>
<path fill-rule="evenodd" clip-rule="evenodd" d="M63.7461 112.485C62.6635 114.164 61.6793 115.944 60.5977 117.622H68.9634C66.995 116.042 65.3218 114.362 63.7461 112.485Z" fill="white"/>
<path fill-rule="evenodd" clip-rule="evenodd" d="M46.7197 118.018C49.7718 117.919 52.7244 117.82 55.677 117.82C53.7086 115.943 52.1329 113.671 50.3613 111.596C49.2796 113.769 47.8033 115.844 46.7197 118.018Z" fill="white"/>
<path fill-rule="evenodd" clip-rule="evenodd" d="M77.9195 110.805C76.3448 113.078 74.8685 115.449 73.1953 117.622H74.1795C77.4274 117.622 80.6753 117.722 83.9232 117.722C81.4626 115.845 79.5927 113.374 77.9195 110.805Z" fill="white"/>
</svg>
