<svg width="155" height="159" viewBox="0 0 155 159" fill="none" xmlns="http://www.w3.org/2000/svg">
<path fill-rule="evenodd" clip-rule="evenodd" d="M131.443 82.5112C132.626 83.1289 134.068 82.1228 133.706 80.7624C133.092 78.4435 132.352 76.1783 131.484 73.9585C132.682 74.3572 133.838 74.8489 134.867 75.6257C135.38 76.013 135.905 75.9707 136.32 75.7062C138.136 76.8549 139.833 78.2534 141.338 79.5797C145.065 82.8665 143.476 84.8208 140.76 88.1375C138.132 91.3479 135.205 94.4281 132.128 97.313C131.921 96.5332 131.738 95.7492 131.559 94.9611C132.239 94.5531 132.569 93.547 132.182 92.7868C131.43 91.3128 131.066 89.7014 130.7 88.0849C131.437 87.8328 132.003 87.1315 131.651 86.27C131.068 84.8373 130.693 83.3892 130.378 81.9203C130.721 82.1197 131.07 82.318 131.443 82.5112ZM26.052 103.737C21.903 95.9135 15.7016 89.4019 11.2033 81.7624C14.2347 78.6946 17.5085 75.9346 20.9024 73.3027C21.1274 73.5506 21.4325 73.7231 21.8054 73.7572C20.4782 77.2505 18.9836 80.6778 17.7396 84.2042C17.2476 85.5997 18.8952 86.4911 20.0036 85.955C20.3899 85.7092 20.7905 85.514 21.1973 85.3415C20.8038 87.8112 21.0391 90.314 21.1079 92.8798C21.148 94.3465 22.7083 94.7762 23.7386 93.9757C24.0838 93.7071 24.4382 93.4561 24.7946 93.2072C24.3098 95.7028 24.2163 98.2066 24.5882 100.867C24.7309 101.895 26.0704 102.227 26.8511 101.793C26.8594 101.787 26.8686 101.783 26.8779 101.776C26.6139 102.434 26.3314 103.085 26.052 103.737ZM151.883 75.4875C144.893 70.0212 137.314 66.0238 129.863 61.387C129.479 60.1103 129.611 58.7396 130.812 57.1654C131.253 56.5859 130.975 55.7771 130.57 55.2886C128.853 53.2083 128.009 50.7148 126.462 48.5952C126.899 48.4392 127.351 48.3163 127.836 48.2368C128.775 48.0839 129.298 46.7246 128.758 45.9602C127.164 43.7084 126.032 42.1508 123.972 41.1798C126.023 38.3155 125.592 35.7549 123.364 34.065C123.626 34.0464 123.888 34.0299 124.152 34.003C125.494 33.8615 126.184 32.4288 125.242 31.3587C124.993 31.0757 124.754 30.7875 124.511 30.5014C125.405 30.4776 126.303 30.4312 127.233 30.3878C128.867 30.3103 129.203 28.4097 128.011 27.4997C127.93 27.4398 127.856 27.3665 127.777 27.3045C128.435 27.2456 129.105 27.227 129.801 27.289C130.56 27.3572 130.997 26.9409 131.17 26.3965C131.598 26.5009 132.032 26.6042 132.474 26.7168C133.864 27.071 134.777 25.6456 134.213 24.4412C134.153 24.31 134.063 24.2016 133.992 24.0787C135.141 23.9413 136.289 23.7584 137.506 23.6737C138.792 23.5839 139.569 22.0748 138.624 21.0687C139.003 21.0036 139.334 20.8239 139.589 20.575H140.587C141.21 20.575 141.975 20.1081 142.074 19.4377C142.382 17.3326 142.788 15.9557 143.972 14.1264C144.355 13.5345 144.218 12.8807 143.83 12.4138C144.316 11.9035 144.784 11.3705 145.273 10.8252C146.282 9.69617 145.317 7.81624 143.774 8.23561C141.066 8.97208 139.075 8.66221 136.679 8.13231C137.009 7.53735 137.371 6.96201 137.809 6.37944C138.686 5.21119 137.249 3.82914 136.07 4.1039C135.594 4.21442 135.116 4.30738 134.638 4.39105C135.007 3.70105 134.873 2.79311 134.37 2.30247C134.546 1.26334 133.645 0.0589499 132.474 0.488648C131.34 0.903885 130.227 1.37593 129.107 1.82836C128.235 2.17955 127.356 2.51009 126.473 2.83236C126.372 2.86748 126.268 2.90157 126.165 2.93669C125.613 2.46154 124.773 2.31177 124.09 2.95321C123.733 3.28892 123.478 3.55438 123.226 3.96548C122.961 4.39828 122.914 5.10274 123.226 5.53037C123.332 5.67395 123.454 5.79273 123.583 5.89912C123.336 6.10881 123.094 6.32263 122.847 6.53231C119.94 7.14793 117.143 8.06414 114.349 9.08054C114.005 8.75827 113.521 8.59197 112.957 8.75207C109.547 9.72199 106.104 11.76 102.654 12.859C102.118 12.2558 101.185 12.0141 100.464 12.766C100.165 13.0769 99.8998 13.4002 99.6543 13.7411C99.6235 13.2949 99.5772 12.829 99.5207 12.3115C99.4139 11.3427 98.6147 10.508 97.57 10.8179C96.0425 11.2693 94.4493 11.1206 92.8756 11.1898C92.9578 10.0784 93.0266 8.96486 93.3019 7.90404C93.6563 6.54161 92.2264 5.53657 91.0389 6.15322C89.2536 7.08183 87.2998 7.45988 85.424 8.10443C85.2977 7.54148 85.1713 6.9775 85.084 6.39183C84.9104 5.21326 83.2432 4.93747 82.5088 5.70803C79.5976 8.7562 76.3135 9.24478 73.0459 6.39596C72.1317 5.59854 70.8795 5.94767 70.4706 7.07976C68.7819 11.7476 65.5101 8.81818 63.8316 7.53115C62.6965 6.66039 61.2523 8.0879 61.5686 9.28093C61.8255 10.255 62.0196 11.2373 62.2353 12.2134C61.2831 12.5181 60.338 12.8435 59.4043 13.2019C57.0899 12.9881 54.8557 12.2837 52.5064 11.5069C51.3107 11.1113 50.4756 12.2537 50.6122 13.267C49.8305 13.3362 49.0487 13.4002 48.266 13.4633C42.6029 9.2768 34.2597 9.76331 27.5919 9.21276C26.9838 9.16214 26.5462 9.47409 26.3048 9.91515C24.2257 8.96589 22.1764 7.94535 20.1517 6.84116C19.0844 6.26065 18.0952 7.02708 17.8815 7.93296C16.4136 7.54665 14.9755 7.01675 13.4747 6.32469C12.5142 5.88156 11.5794 6.38357 11.2733 7.14897C10.8018 6.8959 10.3365 6.62734 9.87938 6.32469C9.19113 5.87124 8.50494 6.07369 8.0694 6.55297C7.64926 6.30713 7.22501 6.06129 6.79768 5.80823C5.71087 5.16678 4.03751 6.23999 4.53469 7.55904C4.94353 8.64052 5.4027 9.69513 5.88139 10.7415C5.62047 10.9894 5.45612 11.3334 5.50645 11.7951C5.51981 11.9097 5.53213 12.0244 5.54446 12.139C5.62664 12.8735 6.04883 13.5097 6.76276 13.6564C7.24556 14.1378 7.71397 14.6305 8.1752 15.1294C5.48796 16.6261 4.15461 20.1205 2.99384 23.2616C2.5357 24.5011 4.18235 25.7851 5.25683 25.0124C5.79716 24.623 6.34159 24.246 6.89116 23.8783C6.61175 24.5218 6.34365 25.1777 6.07554 25.8439C5.63794 26.9306 6.63333 27.7135 7.5979 27.7383C7.5527 28.8601 8.71347 29.6782 9.87938 29.1441C10.4639 28.8756 11.0288 28.6153 11.5825 28.3519C11.9061 28.7754 12.4362 29.0078 13.1069 28.7826C13.5867 28.6215 14.0602 28.48 14.5297 28.3436C14.1557 29.2268 13.7377 30.0841 13.1491 30.8423C12.4187 31.7812 12.6529 33.0155 13.8281 33.4308C15.3514 33.971 16.9015 34.4141 18.4547 34.8459C17.3052 35.664 17.936 37.6183 19.3741 37.6183H19.6864C18.5718 38.6708 17.4316 39.6934 16.2307 40.6551C15.0535 41.5971 16.1599 43.1775 17.3196 43.2994C18.2349 43.3954 19.1162 43.6237 19.9986 43.8448C19.7768 44.1629 19.559 44.4841 19.3124 44.7868C18.5533 45.7299 18.842 46.9456 19.9914 47.3753C20.4003 48.3483 20.8091 49.3214 21.218 50.2954L19.2642 54.2236C18.5225 55.7172 20.4948 57.5156 21.6843 56.1015C22.0295 55.6904 22.4301 55.3691 22.8574 55.0944C22.4517 56.8028 22.2914 58.5289 22.3315 60.3076C17.4788 64.9434 12.0191 69.073 6.37446 72.6769C2.88188 74.908 0.0888324 77.1143 0.00151771 81.5466C-0.099151 86.6803 4.83053 91.6766 8.11562 95.014C13.0412 100.014 18.0787 104.335 22.5657 109.814C22.7896 110.087 23.0413 110.238 23.2981 110.3C23.03 111.008 22.7629 111.715 22.5338 112.438C22.1055 113.783 23.6607 114.812 24.7968 114.188C25.4728 113.816 26.1384 113.425 26.804 113.035C25.9771 116.596 24.3017 119.988 23.218 123.456C22.7362 124.999 24.7075 125.974 25.7932 124.964C26.1066 124.671 26.4158 124.386 26.726 124.101C26.4568 125.711 26.237 127.333 25.9576 128.965C25.6967 130.486 27.3279 131.552 28.5329 130.472C29.0475 130.012 29.5807 129.579 30.123 129.158C29.4553 131.791 29.3608 134.503 30.0665 137.364C30.2597 138.146 30.9356 138.501 31.6156 138.458C31.7871 138.764 32.0758 139.014 32.5113 139.134C34.4035 139.656 36.1231 139.166 37.8088 138.29C38.044 138.168 38.2002 137.997 38.3244 137.812H39.8745C40.1077 138.192 40.5258 138.472 41.1391 138.501C41.4863 138.518 41.8674 138.55 42.2639 138.588C41.4185 139.348 41.3825 140.95 42.7837 141.2C49.0518 142.317 55.2666 141.34 61.4957 140.521C61.5296 141.994 61.5029 143.471 61.4844 144.935C61.4577 147.007 59.8963 146.879 58.1644 147.272C55.3056 147.919 51.2368 149.41 50.2044 152.551C47.1977 161.687 65.7341 157.491 69.1948 157.094C69.8235 157.023 70.5682 156.681 70.6812 155.957C71.4907 150.741 70.5364 145.625 70.7357 140.395C70.7439 140.202 70.7141 140.033 70.6679 139.878H75.3808C75.8677 139.878 76.2293 139.708 76.4758 139.452C78.2334 139.322 79.989 139.235 81.7373 139.302C81.9838 139.637 82.3721 139.873 82.9145 139.878C82.9515 139.879 82.9874 139.879 83.0244 139.879C82.859 143.941 82.2047 148.152 83.4312 152.078C84.7584 156.329 88.9269 157.455 92.9085 157.434C94.9752 157.422 103.966 155.001 101.585 151.377C100.589 149.859 98.3158 148.734 96.7986 147.838C95.4673 147.05 94.9989 147.218 94.3075 145.492C93.5731 143.66 93.5659 141.879 93.3645 139.98C96.4144 139.926 99.4581 139.72 102.498 139.134C103.044 139.03 103.375 138.692 103.519 138.277C105.303 138.177 107.084 138.044 108.863 137.82C111.026 137.832 113.187 137.877 115.342 138.022C115.589 138.31 115.965 138.501 116.47 138.501H119.895C120.33 138.501 120.683 138.313 120.94 138.033C121.731 137.94 122.521 137.856 123.318 137.812C125.071 137.716 125.396 135.328 123.727 134.769C123.498 134.693 123.269 134.615 123.04 134.539C123.345 134.226 123.521 133.808 123.476 133.357C123.947 133.038 124.259 132.467 124.119 131.719C124.068 131.449 123.999 131.184 123.929 130.917C124.907 130.96 125.825 129.971 125.488 128.965C125.397 128.691 125.302 128.417 125.21 128.144C126.2 128.212 127.292 127.264 126.858 126.211C126.127 124.438 125.657 122.6 125.031 120.813C125.471 120.92 125.904 121.049 126.333 121.23C127.477 121.636 128.506 120.401 128.228 119.324C128.075 118.727 127.96 118.12 127.86 117.51C128.941 118.458 130.622 117.252 130.282 115.882L129.342 112.101C129.799 111.675 130.241 111.228 130.663 110.755C130.818 110.804 130.974 110.847 131.126 110.9C132.467 111.385 133.469 109.736 132.867 108.625C132.799 108.502 132.749 108.377 132.685 108.254C134.536 105.789 136.258 103.166 138.425 101.206C143.857 96.2948 149.826 92.0587 153.409 85.4914C155.786 81.1335 155.671 78.4499 151.883 75.4875Z" fill="#F73859"/>
<path fill-rule="evenodd" clip-rule="evenodd" d="M68.9519 45.1686C69.0125 44.6345 68.8338 44.0695 68.2832 43.6842C68.1856 43.615 68.0911 43.5613 67.9945 43.5035C67.9308 43.4053 67.8795 43.3021 67.8086 43.207C67.2488 42.4468 66.1147 42.0904 65.3884 42.893C65.3063 42.9839 65.2487 43.0862 65.1717 43.1791C62.3119 44.5147 61.6236 51.0934 65.2929 52.3464C66.8307 52.8711 67.9863 51.8082 68.6602 50.5264C68.8286 50.3497 68.954 50.14 68.9909 49.9097C69.0012 49.8426 69.0074 49.7785 69.0166 49.7114C69.0865 49.5182 69.146 49.324 69.1933 49.1391C69.5333 47.7912 69.4594 46.3874 68.9519 45.1686Z" fill="#263958"/>
<path fill-rule="evenodd" clip-rule="evenodd" d="M88.969 45.1686C89.0296 44.6345 88.8509 44.0695 88.3003 43.6842C88.2027 43.615 88.1082 43.5613 88.0116 43.5035C87.9479 43.4053 87.8966 43.3021 87.8257 43.207C87.2659 42.4468 86.1318 42.0904 85.4055 42.893C85.3234 42.9839 85.2658 43.0862 85.1888 43.1791C82.328 44.5147 81.6408 51.0934 85.309 52.3464C86.8488 52.8711 88.0034 51.8082 88.6773 50.5264C88.8457 50.3497 88.9711 50.14 89.007 49.9097C89.0183 49.8426 89.0245 49.7785 89.0337 49.7114C89.1036 49.5182 89.1632 49.324 89.2104 49.1391C89.5504 47.7912 89.4765 46.3874 88.969 45.1686Z" fill="#263958"/>
<path fill-rule="evenodd" clip-rule="evenodd" d="M103.35 82.2066C103.306 80.8152 101.927 80.3773 100.962 80.9898C100.6 80.8524 100.177 80.8875 99.7478 81.2119C94.0302 85.545 87.0543 85.5915 80.1307 86.3166C71.0767 87.2638 62.1213 86.5903 53.7083 83.0195C53.5049 82.9338 53.3056 82.8966 53.1125 82.8894C52.5085 82.5702 51.9322 82.1911 51.397 81.8151C50.5526 81.2222 49.4062 81.8471 49.134 82.7417C47.2614 88.8617 48.2948 97.1882 52.6739 102.046C54.564 104.142 57.8275 105.016 60.3966 105.822C65.1722 107.321 69.766 108.13 74.7624 108.246C79.2761 108.351 83.7527 107.866 88.1801 107.027C91.6768 106.366 95.9819 105.809 98.6199 103.1C103.733 97.8472 103.566 89.0652 103.35 82.2066Z" fill="#263958"/>
<path fill-rule="evenodd" clip-rule="evenodd" d="M61.8057 85.6333C60.6213 85.3472 59.4832 84.8338 58.2669 84.7078C57.9885 84.5704 57.6804 84.5002 57.3845 84.5859C56.1015 84.9567 55.8468 86.2882 55.4944 87.4399C55.2345 88.2952 55.027 89.169 54.836 90.0449C54.6151 90.7762 54.3932 91.5055 54.2073 92.2451C54.0049 93.0487 54.2278 93.9401 55.0876 94.251C56.3573 94.7107 57.6547 95.1755 59.0096 95.287C59.6424 95.3387 60.4169 94.9689 60.6008 94.3058C61.1473 92.3236 62.0492 90.4643 62.5392 88.4666C62.5957 88.2373 62.609 88.007 62.5936 87.7849C62.6255 87.7363 62.6635 87.6971 62.6871 87.6372C62.9593 86.9296 62.6234 85.8306 61.8057 85.6333Z" fill="white"/>
<path fill-rule="evenodd" clip-rule="evenodd" d="M90.696 85.1823C91.8825 84.9096 93.0279 84.4107 94.2472 84.3012C94.5266 84.168 94.8358 84.1009 95.1296 84.1918C96.4085 84.5781 96.6468 85.9126 96.9837 87.0685C97.2344 87.9279 97.4295 88.8038 97.6093 89.6818C97.8219 90.4151 98.0346 91.1475 98.2102 91.8902C98.4034 92.6948 98.1681 93.5842 97.3063 93.8837C96.0284 94.3279 94.7259 94.7762 93.3709 94.8702C92.7371 94.9146 91.9667 94.5334 91.7921 93.8672C91.2703 91.8798 90.392 90.0102 89.9266 88.0053C89.8732 87.775 89.863 87.5446 89.8814 87.3226C89.8506 87.275 89.8126 87.2348 89.789 87.1759C89.527 86.4632 89.8743 85.3703 90.696 85.1823Z" fill="white"/>
<path fill-rule="evenodd" clip-rule="evenodd" d="M109.972 68.9682C109.494 67.0656 108.967 65.1753 108.431 63.2871C107.887 61.37 104.913 62.186 105.459 64.1124C105.996 65.9985 106.524 67.8888 107 69.7935C107.486 71.7303 110.459 70.907 109.972 68.9682Z" fill="white"/>
<path fill-rule="evenodd" clip-rule="evenodd" d="M115.109 68.1935C114.833 66.1462 114.279 64.1909 113.568 62.2541C112.886 60.3969 109.907 61.1995 110.596 63.0795C111.308 65.0152 111.861 66.9684 112.137 69.0188C112.25 69.8565 113.306 70.3017 114.032 70.1003C114.923 69.8534 115.221 69.0312 115.109 68.1935Z" fill="white"/>
<path fill-rule="evenodd" clip-rule="evenodd" d="M109.459 57.606C109.185 56.7807 108.909 55.9554 108.534 55.1714C108.17 54.4101 107.106 54.2149 106.426 54.6147C105.658 55.0671 105.508 55.974 105.873 56.7342C105.944 56.8943 105.956 56.914 105.91 56.7972C105.979 56.9625 106.04 57.1319 106.102 57.3013C106.24 57.6742 106.362 58.0533 106.487 58.4313C106.753 59.2308 107.54 59.7452 108.383 59.5128C109.16 59.2979 109.725 58.4076 109.459 57.606Z" fill="white"/>
<path fill-rule="evenodd" clip-rule="evenodd" d="M117.163 52.4414C117.001 51.613 116.031 51.1482 115.268 51.3599C114.414 51.5965 114.029 52.4373 114.192 53.2667C114.434 54.498 114.634 55.7282 114.651 56.9853C114.676 58.9819 117.758 58.985 117.733 56.9853C117.712 55.4586 117.456 53.9371 117.163 52.4414Z" fill="white"/>
<path fill-rule="evenodd" clip-rule="evenodd" d="M120.759 65.0947C120.621 64.2611 119.609 63.8076 118.864 64.0132C117.991 64.2549 117.65 65.0864 117.787 65.92C118.035 67.4146 118.231 68.8958 118.246 70.4132C118.266 72.4109 121.347 72.413 121.328 70.4132C121.309 68.6221 121.05 66.8599 120.759 65.0947Z" fill="white"/>
<path fill-rule="evenodd" clip-rule="evenodd" d="M115.109 80.5886C115.051 80.4089 115.003 80.2271 114.959 80.0443C114.934 79.9379 114.912 79.8325 114.892 79.7251C114.895 79.7427 114.852 79.4565 114.84 79.3987C114.817 79.189 114.806 78.9783 114.8 78.7665C114.799 78.6942 114.805 78.623 114.808 78.5496C114.809 78.6199 114.836 78.3658 114.852 78.3152C115.4 76.3898 112.428 75.5738 111.88 77.4899C111.528 78.7283 111.756 80.2064 112.137 81.4139C112.736 83.3104 115.712 82.4995 115.109 80.5886Z" fill="white"/>
<path fill-rule="evenodd" clip-rule="evenodd" d="M90.7666 20.8331V24.9649C90.7666 26.9636 93.8483 26.9636 93.8483 24.9649V20.8331C93.8483 18.8344 90.7666 18.8344 90.7666 20.8331Z" fill="white"/>
<path fill-rule="evenodd" clip-rule="evenodd" d="M96.8753 20.6788C96.6822 19.8576 95.7679 19.3793 94.98 19.5973C94.15 19.8276 93.7104 20.6829 93.9035 21.5041C94.0956 22.3129 94.1059 23.0245 94.1059 23.9315C94.1069 25.9302 97.1886 25.9302 97.1876 23.9315C97.1876 22.8335 97.129 21.752 96.8753 20.6788Z" fill="white"/>
<path fill-rule="evenodd" clip-rule="evenodd" d="M98.2147 21.0913C98.2147 22.2482 98.2229 23.4123 98.0133 24.5527C97.8603 25.3821 98.228 26.2208 99.0899 26.4584C99.8459 26.6681 100.832 26.2084 100.984 25.3769C101.246 23.9546 101.295 22.5333 101.296 21.0913C101.297 19.0926 98.2157 19.0926 98.2147 21.0913Z" fill="white"/>
<path fill-rule="evenodd" clip-rule="evenodd" d="M92.0511 29.6131C92.0511 30.9414 92.0542 32.2749 91.8498 33.5909C91.7194 34.4244 92.0481 35.2549 92.9263 35.4966C93.6649 35.7022 94.6901 35.2508 94.8206 34.4151C95.0702 32.8151 95.1328 31.2296 95.1328 29.6131C95.1339 27.6143 92.0522 27.6143 92.0511 29.6131Z" fill="white"/>
<path fill-rule="evenodd" clip-rule="evenodd" d="M71.7627 117.412V122.835C71.7627 124.833 74.8444 124.833 74.8444 122.835V117.412C74.8444 115.413 71.7627 115.413 71.7627 117.412Z" fill="white"/>
<path fill-rule="evenodd" clip-rule="evenodd" d="M65.5996 122.06V125.675C65.5996 127.674 68.6813 127.674 68.6813 125.675V122.06C68.6813 120.061 65.5996 120.061 65.5996 122.06Z" fill="white"/>
<path fill-rule="evenodd" clip-rule="evenodd" d="M72.2764 130.065V131.098C72.2764 133.097 75.3581 133.097 75.3581 131.098V130.065C75.3581 128.067 72.2764 128.067 72.2764 130.065Z" fill="white"/>
<path fill-rule="evenodd" clip-rule="evenodd" d="M77.9268 121.544V125.159C77.9268 127.158 81.0085 127.158 81.0085 125.159V121.544C81.0085 119.545 77.9268 119.545 77.9268 121.544Z" fill="white"/>
<path fill-rule="evenodd" clip-rule="evenodd" d="M86.3456 119.84C86.1813 119.011 85.2157 118.547 84.4504 118.758C83.5978 118.995 83.2095 119.837 83.3739 120.665C83.6029 121.815 83.8146 122.949 83.833 124.125C83.8628 126.122 86.9445 126.125 86.9147 124.125C86.8921 122.679 86.6261 121.255 86.3456 119.84Z" fill="white"/>
<path fill-rule="evenodd" clip-rule="evenodd" d="M85.3186 130.944C85.0238 130.076 84.6375 129.274 84.1362 128.509C83.675 127.805 82.7813 127.508 82.0284 127.952C81.3329 128.362 81.0135 129.367 81.4757 130.072C81.6658 130.364 81.8486 130.66 82.014 130.967C82.0777 131.085 82.1331 131.208 82.1896 131.329C82.1968 131.351 82.2081 131.38 82.2359 131.45C82.2749 131.556 82.3119 131.662 82.3468 131.769C82.618 132.567 83.3956 133.084 84.242 132.851C85.0145 132.637 85.5908 131.744 85.3186 130.944Z" fill="white"/>
<path fill-rule="evenodd" clip-rule="evenodd" d="M96.1048 123.455C95.8922 122.812 95.6631 122.164 95.6467 121.543C95.6231 120.699 94.9626 119.994 94.1059 119.994C93.283 119.994 92.5414 120.699 92.565 121.543C92.5897 122.492 92.8372 123.386 93.1331 124.28C93.3981 125.08 94.187 125.594 95.0283 125.362C95.8059 125.147 96.3699 124.258 96.1048 123.455Z" fill="white"/>
<path fill-rule="evenodd" clip-rule="evenodd" d="M31.5972 67.8868C30.8586 67.6833 29.8303 68.1326 29.7019 68.9682C29.4287 70.7376 29.3907 72.5009 29.3896 74.2868C29.3896 76.2855 32.4713 76.2855 32.4713 74.2868C32.4724 72.7911 32.4446 71.2737 32.6727 69.7936C32.8021 68.9579 32.4754 68.1295 31.5972 67.8868Z" fill="white"/>
<path fill-rule="evenodd" clip-rule="evenodd" d="M36.5249 67.4188C36.038 65.6856 35.6045 63.9637 35.81 62.1499C35.9045 61.3091 35.0365 60.6005 34.2691 60.6005C33.357 60.6005 32.8228 61.3122 32.7283 62.1499C32.4951 64.2116 32.9995 66.2733 33.5532 68.2441C34.0924 70.1623 37.0663 69.3463 36.5249 67.4188Z" fill="white"/>
<path fill-rule="evenodd" clip-rule="evenodd" d="M40.8914 69.2264C40.6839 68.5468 40.6901 67.9198 40.6901 67.0562C40.6891 65.0586 37.6074 65.0586 37.6084 67.0562C37.6084 68.0551 37.6259 69.0891 37.9196 70.0517C38.1662 70.8574 38.988 71.3615 39.8159 71.1332C40.6069 70.9142 41.138 70.0342 40.8914 69.2264Z" fill="white"/>
<path fill-rule="evenodd" clip-rule="evenodd" d="M38.1833 73.9664C37.606 73.3849 36.5777 73.3477 36.0045 73.9664C35.5094 74.5005 35.1899 75.1171 34.927 75.772C34.0107 75.3785 32.7133 75.8267 32.7277 77.1282C32.7472 78.7448 32.9865 80.3468 33.2967 81.9303C33.6809 83.8888 36.6507 83.0583 36.2685 81.105C36.1083 80.2921 35.984 79.4812 35.9028 78.6642C36.6486 78.7448 37.3122 78.2603 37.5526 77.5404C37.607 77.3751 37.6635 77.2098 37.72 77.0435C37.7128 77.0652 37.8196 76.7915 37.8381 76.7347C37.8998 76.6004 37.9686 76.4713 38.0405 76.3442C38.0662 76.2998 38.0816 76.2688 38.0939 76.2471C38.1124 76.2306 38.1381 76.2069 38.1833 76.1573C38.7555 75.5406 38.7924 74.579 38.1833 73.9664Z" fill="white"/>
<path fill-rule="evenodd" clip-rule="evenodd" d="M38.1216 78.6771C38.1216 79.6605 38.1401 80.6593 37.9202 81.622C37.4754 83.567 40.4462 84.3934 40.891 82.4463C41.1745 81.2088 41.2033 79.9414 41.2033 78.6771C41.2033 76.6784 38.1216 76.6784 38.1216 78.6771Z" fill="white"/>
<path fill-rule="evenodd" clip-rule="evenodd" d="M34.9842 111.06C34.5363 109.114 31.5656 109.94 32.0124 111.885C32.2158 112.769 32.2138 113.666 32.2148 114.571C32.2158 116.57 35.2975 116.57 35.2965 114.571C35.2955 113.389 35.2503 112.218 34.9842 111.06Z" fill="white"/>
<path fill-rule="evenodd" clip-rule="evenodd" d="M40.6341 115.966C40.3834 114.602 40.3721 113.203 40.1205 111.835C39.9684 111.003 38.9823 110.544 38.2252 110.753C37.3644 110.992 36.9966 111.83 37.1487 112.66C37.4003 114.025 37.4106 115.423 37.6623 116.792C37.8153 117.623 38.8015 118.083 39.5586 117.873C40.4194 117.635 40.7861 116.797 40.6341 115.966Z" fill="white"/>
<path fill-rule="evenodd" clip-rule="evenodd" d="M37.3503 25.7395C33.3092 26.2715 34.2594 33.471 34.2686 36.327C34.2748 38.3257 37.3565 38.3257 37.3503 36.327C37.3462 35.0142 37.3277 33.7054 37.3657 32.3936C37.3893 31.5931 37.4335 30.7864 37.5506 29.9931C37.6009 29.6564 37.6821 29.3289 37.7694 29.0005C37.8269 28.7804 37.8855 28.6875 37.9029 28.6606C39.2702 27.9531 39.1058 25.5081 37.3503 25.7395Z" fill="white"/>
<path fill-rule="evenodd" clip-rule="evenodd" d="M43.9725 31.5246C43.7465 30.0434 43.7711 28.525 43.7711 27.0304C43.7701 25.0327 40.6884 25.0327 40.6895 27.0304C40.6895 28.8153 40.7316 30.5816 41.0007 32.3499C41.1281 33.1845 42.1584 33.6349 42.897 33.4314C43.7763 33.1876 44.0999 32.3603 43.9725 31.5246Z" fill="white"/>
<path fill-rule="evenodd" clip-rule="evenodd" d="M51.1638 24.6027C51.2912 23.767 50.9676 22.9397 50.0883 22.6959C49.3507 22.4924 48.3194 22.9428 48.192 23.7774C47.8982 25.7079 47.8982 27.5786 48.192 29.5091C48.3194 30.3447 49.3507 30.7941 50.0883 30.5906C50.9676 30.3478 51.2912 29.5194 51.1638 28.6838C50.9614 27.3513 50.9614 25.9352 51.1638 24.6027Z" fill="white"/>
<path fill-rule="evenodd" clip-rule="evenodd" d="M43.5144 40.4587C43.4918 38.4621 40.4101 38.459 40.4327 40.4587C40.4492 41.9265 40.6731 43.3809 40.6895 44.8487C40.7121 46.8453 43.7938 46.8484 43.7712 44.8487C43.7548 43.3809 43.5309 41.9265 43.5144 40.4587Z" fill="white"/>
<path fill-rule="evenodd" clip-rule="evenodd" d="M63.7469 69.4847C63.523 68.2638 63.5456 67.0036 63.5456 65.7651C63.5445 63.7674 60.4628 63.7674 60.4639 65.7651C60.4639 67.2907 60.4988 68.805 60.7751 70.31C60.9282 71.1415 61.9143 71.6011 62.6714 71.3915C63.5322 71.1529 63.8989 70.3152 63.7469 69.4847Z" fill="white"/>
<path fill-rule="evenodd" clip-rule="evenodd" d="M74.8444 69.8972C74.5794 67.7456 74.339 65.593 74.074 63.4414C73.8326 61.485 70.7478 61.4613 70.9923 63.4414C71.2573 65.593 71.4977 67.7456 71.7627 69.8972C72.0041 71.8536 75.0879 71.8773 74.8444 69.8972Z" fill="white"/>
<path fill-rule="evenodd" clip-rule="evenodd" d="M81.8246 64.2091C81.461 63.4489 80.3967 63.2516 79.7167 63.6524C78.9494 64.1037 78.7994 65.0117 79.1641 65.773C79.5154 66.5063 79.7095 67.2779 79.7239 68.0898C79.7588 70.0854 82.8405 70.0885 82.8056 68.0898C82.782 66.7088 82.4183 65.4455 81.8246 64.2091Z" fill="white"/>
<path fill-rule="evenodd" clip-rule="evenodd" d="M91.7389 67.6771C91.4945 66.8703 90.6706 66.3663 89.8437 66.5956C89.0517 66.8146 88.5227 67.6936 88.7672 68.5024C88.8946 68.9217 88.9182 69.1356 88.9428 69.5105C88.9747 69.9826 88.9695 70.4567 88.9695 70.9298C88.9706 72.9285 92.0523 72.9285 92.0512 70.9298C92.0512 69.8483 92.0564 68.7234 91.7389 67.6771Z" fill="white"/>
<path fill-rule="evenodd" clip-rule="evenodd" d="M112.027 109.511C111.799 108.056 111.741 106.579 111.513 105.121C111.382 104.285 110.357 103.835 109.618 104.039C108.74 104.282 108.411 105.111 108.541 105.946C108.769 107.4 108.828 108.877 109.055 110.336C109.185 111.171 110.21 111.622 110.95 111.417C111.828 111.175 112.157 110.345 112.027 109.511Z" fill="white"/>
<path fill-rule="evenodd" clip-rule="evenodd" d="M120.502 101.764C120.2 100.977 119.477 100.441 118.606 100.682C117.858 100.889 117.227 101.799 117.53 102.589C117.962 103.716 118.228 104.841 118.246 106.049C118.274 108.046 121.355 108.049 121.328 106.049C121.306 104.576 121.029 103.137 120.502 101.764Z" fill="white"/>
<path fill-rule="evenodd" clip-rule="evenodd" d="M110.596 92.2092C110.106 94.306 110.028 96.4173 110.027 98.5606C110.026 100.559 113.108 100.559 113.109 98.5606C113.11 96.6921 113.142 94.8607 113.568 93.0345C114.021 91.0895 111.049 90.2642 110.596 92.2092Z" fill="white"/>
</svg>
