<svg width="155" height="159" viewBox="0 0 155 159" fill="none" xmlns="http://www.w3.org/2000/svg">
<path fill-rule="evenodd" clip-rule="evenodd" d="M131.443 82.3078C132.626 82.9255 134.068 81.9194 133.706 80.559C133.092 78.2401 132.352 75.9749 131.484 73.7551C132.682 74.1538 133.838 74.6455 134.867 75.4223C135.38 75.8096 135.905 75.7673 136.32 75.5028C138.136 76.6515 139.833 78.05 141.338 79.3763C145.065 82.6631 143.476 84.6174 140.76 87.9341C138.132 91.1445 135.205 94.2247 132.128 97.1096C131.921 96.3298 131.738 95.5458 131.559 94.7577C132.239 94.3496 132.569 93.3436 132.182 92.5833C131.43 91.1093 131.066 89.498 130.7 87.8814C131.437 87.6294 132.003 86.9281 131.651 86.0666C131.068 84.6339 130.693 83.1858 130.378 81.7169C130.721 81.9163 131.07 82.1146 131.443 82.3078ZM26.052 103.533C21.903 95.7101 15.7016 89.1985 11.2033 81.5589C14.2347 78.4911 17.5085 75.7312 20.9024 73.0993C21.1274 73.3472 21.4325 73.5197 21.8054 73.5538C20.4782 77.0471 18.9836 80.4744 17.7396 84.0008C17.2476 85.3963 18.8952 86.2877 20.0036 85.7516C20.3899 85.5058 20.7905 85.3105 21.1973 85.138C20.8038 87.6078 21.0391 90.1106 21.1079 92.6764C21.148 94.1431 22.7083 94.5728 23.7386 93.7723C24.0838 93.5037 24.4382 93.2527 24.7946 93.0038C24.3098 95.4993 24.2163 98.0032 24.5882 100.664C24.7309 101.692 26.0704 102.023 26.8511 101.589C26.8594 101.583 26.8686 101.579 26.8779 101.573C26.6139 102.231 26.3314 102.882 26.052 103.533ZM151.883 75.2841C144.893 69.8179 137.314 65.8204 129.863 61.1836C129.479 59.9069 129.611 58.5362 130.812 56.962C131.253 56.3826 130.975 55.5738 130.57 55.0852C128.853 53.0049 128.009 50.5114 126.462 48.3918C126.899 48.2359 127.351 48.1129 127.836 48.0334C128.775 47.8805 129.298 46.5212 128.758 45.7568C127.164 43.5051 126.032 41.9474 123.972 40.9764C126.023 38.1121 125.592 35.5515 123.364 33.8616C123.626 33.843 123.888 33.8265 124.152 33.7997C125.494 33.6581 126.184 32.2255 125.242 31.1554C124.993 30.8723 124.754 30.5842 124.511 30.298C125.405 30.2743 126.303 30.2278 127.233 30.1844C128.867 30.1069 129.203 28.2064 128.011 27.2963C127.93 27.2364 127.856 27.1631 127.777 27.1011C128.435 27.0422 129.105 27.0237 129.801 27.0856C130.56 27.1538 130.997 26.7375 131.17 26.1932C131.598 26.2975 132.032 26.4008 132.474 26.5134C133.864 26.8677 134.777 25.4422 134.213 24.2378C134.153 24.1067 134.063 23.9982 133.992 23.8753C135.141 23.7379 136.289 23.5551 137.506 23.4704C138.792 23.3805 139.569 21.8714 138.624 20.8653C139.003 20.8003 139.334 20.6205 139.589 20.3716H140.587C141.21 20.3716 141.975 19.9047 142.074 19.2343C142.382 17.1292 142.788 15.7523 143.972 13.923C144.355 13.3312 144.218 12.6773 143.83 12.2104C144.316 11.7002 144.784 11.1672 145.273 10.6218C146.282 9.4928 145.317 7.61287 143.774 8.03224C141.066 8.76872 139.075 8.45884 136.679 7.92895C137.009 7.33398 137.371 6.75864 137.809 6.17607C138.686 5.00783 137.249 3.62577 136.07 3.90053C135.594 4.01105 135.116 4.10401 134.638 4.18768C135.007 3.49768 134.873 2.58974 134.37 2.0991C134.546 1.05997 133.645 -0.144419 132.474 0.285279C131.34 0.700516 130.227 1.17256 129.107 1.62499C128.235 1.97618 127.356 2.30672 126.473 2.62899C126.372 2.66411 126.268 2.6982 126.165 2.73332C125.613 2.25817 124.773 2.1084 124.09 2.74984C123.733 3.08555 123.478 3.35101 123.226 3.76211C122.961 4.19491 122.914 4.89937 123.226 5.327C123.332 5.47058 123.454 5.58936 123.583 5.69576C123.336 5.90544 123.094 6.11926 122.847 6.32894C119.94 6.94457 117.143 7.86077 114.349 8.87717C114.005 8.5549 113.521 8.3886 112.957 8.5487C109.547 9.51862 106.104 11.5566 102.654 12.6556C102.118 12.0524 101.185 11.8107 100.464 12.5627C100.165 12.8736 99.8998 13.1969 99.6543 13.5377C99.6235 13.0915 99.5772 12.6257 99.5207 12.1082C99.4139 11.1393 98.6147 10.3047 97.57 10.6146C96.0425 11.0659 94.4493 10.9172 92.8756 10.9864C92.9578 9.87498 93.0266 8.76149 93.3019 7.70067C93.6563 6.33824 92.2264 5.3332 91.0389 5.94986C89.2536 6.87846 87.2998 7.25651 85.424 7.90106C85.2977 7.33811 85.1713 6.77413 85.084 6.18846C84.9104 5.00989 83.2432 4.7341 82.5088 5.50466C79.5976 8.55283 76.3135 9.04141 73.0459 6.19259C72.1317 5.39517 70.8795 5.7443 70.4706 6.87639C68.7819 11.5442 65.5101 8.61481 63.8316 7.32778C62.6965 6.45702 61.2523 7.88453 61.5686 9.07756C61.8255 10.0516 62.0196 11.0339 62.2353 12.01C61.2831 12.3148 60.338 12.6401 59.4043 12.9986C57.0899 12.7847 54.8557 12.0803 52.5064 11.3035C51.3107 10.9079 50.4756 12.0503 50.6122 13.0636C49.8305 13.1328 49.0487 13.1969 48.266 13.2599C42.6029 9.07343 34.2597 9.55994 27.5919 9.00939C26.9838 8.95877 26.5462 9.27072 26.3048 9.71178C24.2257 8.76252 22.1764 7.74199 20.1517 6.63779C19.0844 6.05728 18.0952 6.82371 17.8815 7.72959C16.4136 7.34328 14.9755 6.81338 13.4747 6.12132C12.5142 5.6782 11.5794 6.1802 11.2733 6.9456C10.8018 6.69253 10.3365 6.42397 9.87938 6.12132C9.19113 5.66787 8.50494 5.87032 8.0694 6.3496C7.64926 6.10376 7.22501 5.85793 6.79768 5.60486C5.71087 4.96341 4.03751 6.03662 4.53469 7.35567C4.94353 8.43715 5.4027 9.49177 5.88139 10.5381C5.62047 10.786 5.45612 11.13 5.50645 11.5917C5.51981 11.7064 5.53213 11.821 5.54446 11.9357C5.62664 12.6701 6.04883 13.3064 6.76276 13.453C7.24556 13.9344 7.71397 14.4271 8.1752 14.926C5.48796 16.4227 4.15461 19.9171 2.99384 23.0582C2.5357 24.2978 4.18235 25.5817 5.25683 24.8091C5.79716 24.4196 6.34159 24.0426 6.89116 23.6749C6.61175 24.3184 6.34365 24.9743 6.07554 25.6406C5.63794 26.7272 6.63333 27.5102 7.5979 27.535C7.5527 28.6567 8.71347 29.4748 9.87938 28.9408C10.4639 28.6722 11.0288 28.4119 11.5825 28.1485C11.9061 28.572 12.4362 28.8044 13.1069 28.5792C13.5867 28.4181 14.0602 28.2766 14.5297 28.1402C14.1557 29.0234 13.7377 29.8807 13.1491 30.6389C12.4187 31.5778 12.6529 32.8122 13.8281 33.2274C15.3514 33.7676 16.9015 34.2108 18.4547 34.6425C17.3052 35.4606 17.936 37.4149 19.3741 37.4149H19.6864C18.5718 38.4675 17.4316 39.4901 16.2307 40.4517C15.0535 41.3937 16.1599 42.9741 17.3196 43.096C18.2349 43.1921 19.1162 43.4204 19.9986 43.6414C19.7768 43.9595 19.559 44.2808 19.3124 44.5834C18.5533 45.5265 18.842 46.7422 19.9914 47.1719C20.4003 48.145 20.8091 49.118 21.218 50.092L19.2642 54.0203C18.5225 55.5139 20.4948 57.3122 21.6843 55.8981C22.0295 55.487 22.4301 55.1658 22.8574 54.891C22.4517 56.5995 22.2914 58.3255 22.3315 60.1042C17.4788 64.74 12.0191 68.8696 6.37446 72.4735C2.88188 74.7046 0.0888324 76.911 0.00151771 81.3433C-0.099151 86.4769 4.83053 91.4732 8.11562 94.8106C13.0412 99.811 18.0787 104.132 22.5657 109.61C22.7896 109.884 23.0413 110.035 23.2981 110.097C23.03 110.804 22.7629 111.512 22.5338 112.235C22.1055 113.58 23.6607 114.609 24.7968 113.985C25.4728 113.613 26.1384 113.221 26.804 112.832C25.9771 116.393 24.3017 119.785 23.218 123.252C22.7362 124.795 24.7075 125.771 25.7932 124.76C26.1066 124.468 26.4158 124.183 26.726 123.898C26.4568 125.507 26.237 127.13 25.9576 128.762C25.6967 130.282 27.3279 131.348 28.5329 130.269C29.0475 129.808 29.5807 129.375 30.123 128.955C29.4553 131.588 29.3608 134.299 30.0665 137.161C30.2597 137.943 30.9356 138.298 31.6156 138.255C31.7871 138.56 32.0758 138.81 32.5113 138.931C34.4035 139.453 36.1231 138.963 37.8088 138.086C38.044 137.964 38.2002 137.794 38.3244 137.609H39.8745C40.1077 137.989 40.5258 138.269 41.1391 138.298C41.4863 138.314 41.8674 138.346 42.2639 138.385C41.4185 139.145 41.3825 140.747 42.7837 140.997C49.0518 142.114 55.2666 141.136 61.4957 140.317C61.5296 141.79 61.5029 143.267 61.4844 144.732C61.4577 146.804 59.8963 146.676 58.1644 147.068C55.3056 147.716 51.2368 149.207 50.2044 152.348C47.1977 161.484 65.7341 157.287 69.1948 156.891C69.8235 156.819 70.5682 156.477 70.6812 155.753C71.4907 150.538 70.5364 145.422 70.7357 140.191C70.7439 139.999 70.7141 139.83 70.6679 139.675H75.3808C75.8677 139.675 76.2293 139.504 76.4758 139.248C78.2334 139.119 79.989 139.031 81.7373 139.098C81.9838 139.434 82.3721 139.67 82.9145 139.675C82.9515 139.676 82.9874 139.676 83.0244 139.676C82.859 143.737 82.2047 147.949 83.4312 151.875C84.7584 156.125 88.9269 157.252 92.9085 157.23C94.9752 157.219 103.966 154.798 101.585 151.173C100.589 149.656 98.3158 148.531 96.7986 147.635C95.4673 146.846 94.9989 147.015 94.3075 145.289C93.5731 143.456 93.5659 141.676 93.3645 139.777C96.4144 139.722 99.4581 139.517 102.498 138.931C103.044 138.827 103.375 138.489 103.519 138.074C105.303 137.974 107.084 137.84 108.863 137.616C111.026 137.629 113.187 137.674 115.342 137.819C115.589 138.107 115.965 138.298 116.47 138.298H119.895C120.33 138.298 120.683 138.11 120.94 137.83C121.731 137.737 122.521 137.652 123.318 137.609C125.071 137.513 125.396 135.125 123.727 134.566C123.498 134.489 123.269 134.412 123.04 134.336C123.345 134.023 123.521 133.604 123.476 133.154C123.947 132.835 124.259 132.264 124.119 131.516C124.068 131.246 123.999 130.981 123.929 130.714C124.907 130.756 125.825 129.768 125.488 128.762C125.397 128.487 125.302 128.213 125.21 127.941C126.2 128.009 127.292 127.061 126.858 126.008C126.127 124.235 125.657 122.397 125.031 120.61C125.471 120.716 125.904 120.846 126.333 121.026C127.477 121.432 128.506 120.198 128.228 119.121C128.075 118.524 127.96 117.916 127.86 117.307C128.941 118.255 130.622 117.048 130.282 115.679L129.342 111.897C129.799 111.472 130.241 111.024 130.663 110.551C130.818 110.601 130.974 110.643 131.126 110.697C132.467 111.181 133.469 109.533 132.867 108.421C132.799 108.299 132.749 108.174 132.685 108.051C134.536 105.586 136.258 102.962 138.425 101.003C143.857 96.0914 149.826 91.8554 153.409 85.288C155.786 80.9301 155.671 78.2466 151.883 75.2841Z" fill="white"/>
<path fill-rule="evenodd" clip-rule="evenodd" d="M68.9519 44.9651C69.0125 44.431 68.8338 43.866 68.2832 43.4807C68.1856 43.4115 68.0911 43.3578 67.9945 43.3C67.9308 43.2019 67.8795 43.0986 67.8086 43.0035C67.2488 42.2433 66.1147 41.8869 65.3884 42.6895C65.3063 42.7804 65.2487 42.8827 65.1717 42.9756C62.3119 44.3112 61.6236 50.8899 65.2929 52.1429C66.8307 52.6676 67.9863 51.6047 68.6602 50.3229C68.8286 50.1462 68.954 49.9365 68.9909 49.7062C69.0012 49.6391 69.0074 49.575 69.0166 49.5079C69.0865 49.3147 69.146 49.1205 69.1933 48.9356C69.5333 47.5877 69.4594 46.1839 68.9519 44.9651Z" fill="#263958"/>
<path fill-rule="evenodd" clip-rule="evenodd" d="M88.969 44.9651C89.0296 44.431 88.8509 43.866 88.3003 43.4807C88.2027 43.4115 88.1082 43.3578 88.0116 43.3C87.9479 43.2019 87.8966 43.0986 87.8257 43.0035C87.2659 42.2433 86.1318 41.8869 85.4055 42.6895C85.3234 42.7804 85.2658 42.8827 85.1888 42.9756C82.328 44.3112 81.6408 50.8899 85.309 52.1429C86.8488 52.6676 88.0034 51.6047 88.6773 50.3229C88.8457 50.1462 88.9711 49.9365 89.007 49.7062C89.0183 49.6391 89.0245 49.575 89.0337 49.5079C89.1036 49.3147 89.1632 49.1205 89.2104 48.9356C89.5504 47.5877 89.4765 46.1839 88.969 44.9651Z" fill="#263958"/>
<path fill-rule="evenodd" clip-rule="evenodd" d="M103.35 82.0032C103.306 80.6119 101.927 80.1739 100.962 80.7864C100.6 80.6491 100.177 80.6842 99.7478 81.0085C94.0302 85.3416 87.0543 85.3881 80.1307 86.1132C71.0767 87.0604 62.1213 86.387 53.7083 82.8161C53.5049 82.7304 53.3056 82.6932 53.1125 82.686C52.5085 82.3668 51.9322 81.9877 51.397 81.6117C50.5526 81.0188 49.4062 81.6438 49.134 82.5383C47.2614 88.6584 48.2948 96.9848 52.6739 101.843C54.564 103.938 57.8275 104.812 60.3966 105.619C65.1722 107.118 69.766 107.927 74.7624 108.042C79.2761 108.148 83.7527 107.662 88.1801 106.823C91.6768 106.162 95.9819 105.606 98.6199 102.896C103.733 97.6438 103.566 88.8619 103.35 82.0032Z" fill="#263958"/>
<path fill-rule="evenodd" clip-rule="evenodd" d="M61.8057 85.4298C60.6213 85.1437 59.4832 84.6303 58.2669 84.5043C57.9885 84.3669 57.6804 84.2967 57.3845 84.3824C56.1015 84.7532 55.8468 86.0847 55.4944 87.2364C55.2345 88.0917 55.027 88.9655 54.836 89.8414C54.6151 90.5728 54.3932 91.302 54.2073 92.0416C54.0049 92.8452 54.2278 93.7366 55.0876 94.0475C56.3573 94.5072 57.6547 94.972 59.0096 95.0836C59.6424 95.1352 60.4169 94.7654 60.6008 94.1023C61.1473 92.1201 62.0492 90.2608 62.5392 88.2631C62.5957 88.0338 62.609 87.8035 62.5936 87.5814C62.6255 87.5328 62.6635 87.4936 62.6871 87.4337C62.9593 86.7261 62.6234 85.6271 61.8057 85.4298Z" fill="white"/>
<path fill-rule="evenodd" clip-rule="evenodd" d="M90.696 84.979C91.8825 84.7063 93.0279 84.2074 94.2472 84.0979C94.5266 83.9646 94.8358 83.8975 95.1296 83.9884C96.4085 84.3747 96.6468 85.7092 96.9837 86.8651C97.2344 87.7245 97.4295 88.6004 97.6093 89.4784C97.8219 90.2118 98.0346 90.9441 98.2102 91.6868C98.4034 92.4915 98.1681 93.3808 97.3063 93.6804C96.0284 94.1245 94.7259 94.5728 93.3709 94.6668C92.7371 94.7112 91.9667 94.3301 91.7921 93.6638C91.2703 91.6765 90.392 89.8069 89.9266 87.802C89.8732 87.5716 89.863 87.3413 89.8814 87.1192C89.8506 87.0717 89.8126 87.0314 89.789 86.9725C89.527 86.2598 89.8743 85.167 90.696 84.979Z" fill="white"/>
<path fill-rule="evenodd" clip-rule="evenodd" d="M109.972 68.7648C109.494 66.8622 108.967 64.9719 108.431 63.0837C107.887 61.1666 104.913 61.9826 105.459 63.909C105.996 65.7952 106.524 67.6854 107 69.5902C107.486 71.5269 110.459 70.7037 109.972 68.7648Z" fill="#3B3734"/>
<path fill-rule="evenodd" clip-rule="evenodd" d="M115.109 67.9901C114.833 65.9428 114.279 63.9875 113.568 62.0508C112.886 60.1936 109.907 60.9962 110.596 62.8761C111.308 64.8118 111.861 66.7651 112.137 68.8154C112.25 69.6531 113.306 70.0983 114.032 69.8969C114.923 69.65 115.221 68.8278 115.109 67.9901Z" fill="#3B3734"/>
<path fill-rule="evenodd" clip-rule="evenodd" d="M109.459 57.4025C109.185 56.5772 108.909 55.7519 108.534 54.9679C108.17 54.2066 107.106 54.0114 106.426 54.4112C105.658 54.8636 105.508 55.7705 105.873 56.5307C105.944 56.6908 105.956 56.7105 105.91 56.5937C105.979 56.759 106.04 56.9284 106.102 57.0978C106.24 57.4707 106.362 57.8498 106.487 58.2278C106.753 59.0273 107.54 59.5417 108.383 59.3093C109.16 59.0945 109.725 58.2041 109.459 57.4025Z" fill="#3B3734"/>
<path fill-rule="evenodd" clip-rule="evenodd" d="M117.163 52.238C117.001 51.4096 116.031 50.9448 115.268 51.1566C114.414 51.3931 114.029 52.2339 114.192 53.0634C114.434 54.2946 114.634 55.5248 114.651 56.7819C114.676 58.7785 117.758 58.7816 117.733 56.7819C117.712 55.2552 117.456 53.7337 117.163 52.238Z" fill="#3B3734"/>
<path fill-rule="evenodd" clip-rule="evenodd" d="M120.759 64.8913C120.621 64.0577 119.609 63.6043 118.864 63.8098C117.991 64.0515 117.65 64.883 117.787 65.7166C118.035 67.2112 118.231 68.6925 118.246 70.2098C118.266 72.2075 121.347 72.2096 121.328 70.2098C121.309 68.4187 121.05 66.6566 120.759 64.8913Z" fill="#3B3734"/>
<path fill-rule="evenodd" clip-rule="evenodd" d="M115.109 80.3853C115.051 80.2055 115.003 80.0237 114.959 79.8409C114.934 79.7345 114.912 79.6292 114.892 79.5217C114.895 79.5393 114.852 79.2532 114.84 79.1953C114.817 78.9856 114.806 78.7749 114.8 78.5632C114.799 78.4909 114.805 78.4196 114.808 78.3463C114.809 78.4165 114.836 78.1624 114.852 78.1118C115.4 76.1864 112.428 75.3704 111.88 77.2865C111.528 78.525 111.756 80.0031 112.137 81.2106C112.736 83.107 115.712 82.2962 115.109 80.3853Z" fill="#3B3734"/>
<path fill-rule="evenodd" clip-rule="evenodd" d="M90.7666 20.6298V24.7615C90.7666 26.7602 93.8483 26.7602 93.8483 24.7615V20.6298C93.8483 18.6311 90.7666 18.6311 90.7666 20.6298Z" fill="#3B3734"/>
<path fill-rule="evenodd" clip-rule="evenodd" d="M96.8753 20.4754C96.6822 19.6542 95.7679 19.176 94.98 19.3939C94.15 19.6243 93.7104 20.4795 93.9035 21.3007C94.0956 22.1095 94.1059 22.8212 94.1059 23.7281C94.1069 25.7268 97.1886 25.7268 97.1876 23.7281C97.1876 22.6301 97.129 21.5486 96.8753 20.4754Z" fill="#3B3734"/>
<path fill-rule="evenodd" clip-rule="evenodd" d="M98.2147 20.888C98.2147 22.0448 98.2229 23.2089 98.0133 24.3493C97.8603 25.1787 98.228 26.0175 99.0899 26.255C99.8459 26.4647 100.832 26.0051 100.984 25.1736C101.246 23.7512 101.295 22.3299 101.296 20.888C101.297 18.8892 98.2157 18.8892 98.2147 20.888Z" fill="#3B3734"/>
<path fill-rule="evenodd" clip-rule="evenodd" d="M92.0511 29.4097C92.0511 30.738 92.0542 32.0715 91.8498 33.3875C91.7194 34.2211 92.0481 35.0515 92.9263 35.2932C93.6649 35.4988 94.6901 35.0474 94.8206 34.2118C95.0702 32.6118 95.1328 31.0262 95.1328 29.4097C95.1339 27.411 92.0522 27.411 92.0511 29.4097Z" fill="#3B3734"/>
<path fill-rule="evenodd" clip-rule="evenodd" d="M71.7627 117.209V122.631C71.7627 124.63 74.8444 124.63 74.8444 122.631V117.209C74.8444 115.21 71.7627 115.21 71.7627 117.209Z" fill="#3B3734"/>
<path fill-rule="evenodd" clip-rule="evenodd" d="M65.5996 121.857V125.472C65.5996 127.471 68.6813 127.471 68.6813 125.472V121.857C68.6813 119.858 65.5996 119.858 65.5996 121.857Z" fill="#3B3734"/>
<path fill-rule="evenodd" clip-rule="evenodd" d="M72.2764 129.862V130.895C72.2764 132.893 75.3581 132.893 75.3581 130.895V129.862C75.3581 127.863 72.2764 127.863 72.2764 129.862Z" fill="#3B3734"/>
<path fill-rule="evenodd" clip-rule="evenodd" d="M77.9268 121.34V124.955C77.9268 126.954 81.0085 126.954 81.0085 124.955V121.34C81.0085 119.342 77.9268 119.342 77.9268 121.34Z" fill="#3B3734"/>
<path fill-rule="evenodd" clip-rule="evenodd" d="M86.3456 119.636C86.1813 118.808 85.2157 118.343 84.4504 118.555C83.5978 118.792 83.2095 119.633 83.3739 120.462C83.6029 121.611 83.8146 122.746 83.833 123.922C83.8628 125.919 86.9445 125.922 86.9147 123.922C86.8921 122.476 86.6261 121.052 86.3456 119.636Z" fill="#3B3734"/>
<path fill-rule="evenodd" clip-rule="evenodd" d="M85.3186 130.74C85.0238 129.873 84.6375 129.07 84.1362 128.306C83.675 127.601 82.7813 127.305 82.0284 127.749C81.3329 128.158 81.0135 129.163 81.4757 129.869C81.6658 130.161 81.8486 130.456 82.014 130.763C82.0777 130.882 82.1331 131.005 82.1896 131.126C82.1968 131.147 82.2081 131.176 82.2359 131.247C82.2749 131.353 82.3119 131.458 82.3468 131.566C82.618 132.363 83.3956 132.881 84.242 132.647C85.0145 132.433 85.5908 131.541 85.3186 130.74Z" fill="#3B3734"/>
<path fill-rule="evenodd" clip-rule="evenodd" d="M96.1048 123.252C95.8922 122.608 95.6631 121.961 95.6467 121.34C95.6231 120.496 94.9626 119.79 94.1059 119.79C93.283 119.79 92.5414 120.496 92.565 121.34C92.5897 122.289 92.8372 123.183 93.1331 124.077C93.3981 124.877 94.187 125.391 95.0283 125.159C95.8059 124.944 96.3699 124.054 96.1048 123.252Z" fill="#3B3734"/>
<path fill-rule="evenodd" clip-rule="evenodd" d="M31.5972 67.6834C30.8586 67.4799 29.8303 67.9292 29.7019 68.7649C29.4287 70.5343 29.3907 72.2975 29.3896 74.0834C29.3896 76.0821 32.4713 76.0821 32.4713 74.0834C32.4724 72.5877 32.4446 71.0704 32.6727 69.5902C32.8021 68.7545 32.4754 67.9261 31.5972 67.6834Z" fill="#3B3734"/>
<path fill-rule="evenodd" clip-rule="evenodd" d="M36.5249 67.2155C36.038 65.4822 35.6045 63.7603 35.81 61.9465C35.9045 61.1057 35.0365 60.3971 34.2691 60.3971C33.357 60.3971 32.8228 61.1088 32.7283 61.9465C32.4951 64.0082 32.9995 66.0699 33.5532 68.0408C34.0924 69.9589 37.0663 69.1429 36.5249 67.2155Z" fill="#3B3734"/>
<path fill-rule="evenodd" clip-rule="evenodd" d="M40.8914 69.0231C40.6839 68.3434 40.6901 67.7164 40.6901 66.8529C40.6891 64.8552 37.6074 64.8552 37.6084 66.8529C37.6084 67.8517 37.6259 68.8857 37.9196 69.8484C38.1662 70.654 38.988 71.1581 39.8159 70.9298C40.6069 70.7109 41.138 69.8308 40.8914 69.0231Z" fill="#3B3734"/>
<path fill-rule="evenodd" clip-rule="evenodd" d="M38.1833 73.7631C37.606 73.1815 36.5777 73.1443 36.0045 73.7631C35.5094 74.2971 35.1899 74.9138 34.927 75.5686C34.0107 75.1751 32.7133 75.6234 32.7277 76.9249C32.7472 78.5414 32.9865 80.1435 33.2967 81.727C33.6809 83.6854 36.6507 82.8549 36.2685 80.9016C36.1083 80.0887 35.984 79.2779 35.9028 78.4608C36.6486 78.5414 37.3122 78.057 37.5526 77.337C37.607 77.1717 37.6635 77.0065 37.72 76.8402C37.7128 76.8619 37.8196 76.5881 37.8381 76.5313C37.8998 76.397 37.9686 76.2679 38.0405 76.1409C38.0662 76.0965 38.0816 76.0655 38.0939 76.0438C38.1124 76.0273 38.1381 76.0035 38.1833 75.9539C38.7555 75.3373 38.7924 74.3756 38.1833 73.7631Z" fill="#3B3734"/>
<path fill-rule="evenodd" clip-rule="evenodd" d="M38.1216 78.4736C38.1216 79.457 38.1401 80.4558 37.9202 81.4185C37.4754 83.3635 40.4462 84.1899 40.891 82.2428C41.1745 81.0054 41.2033 79.738 41.2033 78.4736C41.2033 76.4749 38.1216 76.4749 38.1216 78.4736Z" fill="#3B3734"/>
<path fill-rule="evenodd" clip-rule="evenodd" d="M34.9842 110.857C34.5363 108.911 31.5656 109.737 32.0124 111.682C32.2158 112.565 32.2138 113.463 32.2148 114.368C32.2158 116.366 35.2975 116.366 35.2965 114.368C35.2955 113.186 35.2503 112.015 34.9842 110.857Z" fill="#3B3734"/>
<path fill-rule="evenodd" clip-rule="evenodd" d="M40.6341 115.763C40.3834 114.398 40.3721 113 40.1205 111.631C39.9684 110.8 38.9823 110.34 38.2252 110.55C37.3644 110.788 36.9966 111.626 37.1487 112.457C37.4003 113.821 37.4106 115.22 37.6623 116.588C37.8153 117.42 38.8015 117.879 39.5586 117.67C40.4194 117.431 40.7861 116.593 40.6341 115.763Z" fill="#3B3734"/>
<path fill-rule="evenodd" clip-rule="evenodd" d="M37.3503 25.5361C33.3092 26.0681 34.2594 33.2676 34.2686 36.1236C34.2748 38.1224 37.3565 38.1224 37.3503 36.1236C37.3462 34.8108 37.3277 33.5021 37.3657 32.1903C37.3893 31.3897 37.4335 30.583 37.5506 29.7897C37.6009 29.453 37.6821 29.1256 37.7694 28.7971C37.8269 28.5771 37.8855 28.4841 37.9029 28.4573C39.2702 27.7497 39.1058 25.3048 37.3503 25.5361Z" fill="#3B3734"/>
<path fill-rule="evenodd" clip-rule="evenodd" d="M43.9725 31.3211C43.7465 29.8399 43.7711 28.3215 43.7711 26.8269C43.7701 24.8292 40.6884 24.8292 40.6895 26.8269C40.6895 28.6118 40.7316 30.3781 41.0007 32.1465C41.1281 32.9811 42.1584 33.4314 42.897 33.2279C43.7763 32.9842 44.0999 32.1568 43.9725 31.3211Z" fill="#3B3734"/>
<path fill-rule="evenodd" clip-rule="evenodd" d="M51.1638 24.3992C51.2912 23.5636 50.9676 22.7362 50.0883 22.4924C49.3507 22.2889 48.3194 22.7393 48.192 23.5739C47.8982 25.5044 47.8982 27.3751 48.192 29.3056C48.3194 30.1412 49.3507 30.5906 50.0883 30.3871C50.9676 30.1443 51.2912 29.3159 51.1638 28.4803C50.9614 27.1478 50.9614 25.7317 51.1638 24.3992Z" fill="#3B3734"/>
<path fill-rule="evenodd" clip-rule="evenodd" d="M43.5144 40.2554C43.4918 38.2587 40.4101 38.2556 40.4327 40.2554C40.4492 41.7232 40.6731 43.1775 40.6895 44.6453C40.7121 46.642 43.7938 46.6451 43.7712 44.6453C43.7548 43.1775 43.5309 41.7232 43.5144 40.2554Z" fill="#3B3734"/>
<path fill-rule="evenodd" clip-rule="evenodd" d="M63.7469 69.2812C63.523 68.0603 63.5456 66.8001 63.5456 65.5616C63.5445 63.5639 60.4628 63.5639 60.4639 65.5616C60.4639 67.0872 60.4988 68.6015 60.7751 70.1065C60.9282 70.938 61.9143 71.3977 62.6714 71.188C63.5322 70.9494 63.8989 70.1117 63.7469 69.2812Z" fill="#3B3734"/>
<path fill-rule="evenodd" clip-rule="evenodd" d="M74.8444 69.6937C74.5794 67.5421 74.339 65.3895 74.074 63.2379C73.8326 61.2816 70.7478 61.2578 70.9923 63.2379C71.2573 65.3895 71.4977 67.5421 71.7627 69.6937C72.0041 71.6501 75.0879 71.6738 74.8444 69.6937Z" fill="#3B3734"/>
<path fill-rule="evenodd" clip-rule="evenodd" d="M81.8246 64.0056C81.461 63.2454 80.3967 63.0481 79.7167 63.4489C78.9494 63.9003 78.7994 64.8082 79.1641 65.5695C79.5154 66.3028 79.7095 67.0744 79.7239 67.8863C79.7588 69.8819 82.8405 69.885 82.8056 67.8863C82.782 66.5053 82.4183 65.242 81.8246 64.0056Z" fill="#3B3734"/>
<path fill-rule="evenodd" clip-rule="evenodd" d="M91.7389 67.4736C91.4945 66.6669 90.6706 66.1628 89.8437 66.3921C89.0517 66.6111 88.5227 67.4901 88.7672 68.2989C88.8946 68.7183 88.9182 68.9321 88.9428 69.307C88.9747 69.7791 88.9695 70.2532 88.9695 70.7263C88.9706 72.725 92.0523 72.725 92.0512 70.7263C92.0512 69.6448 92.0564 68.5199 91.7389 67.4736Z" fill="#3B3734"/>
<path fill-rule="evenodd" clip-rule="evenodd" d="M112.027 109.307C111.799 107.853 111.741 106.376 111.513 104.917C111.382 104.082 110.357 103.631 109.618 103.836C108.74 104.079 108.411 104.908 108.541 105.743C108.769 107.197 108.828 108.674 109.055 110.133C109.185 110.967 110.21 111.419 110.95 111.214C111.828 110.971 112.157 110.142 112.027 109.307Z" fill="#3B3734"/>
<path fill-rule="evenodd" clip-rule="evenodd" d="M120.502 101.56C120.2 100.773 119.477 100.238 118.606 100.479C117.858 100.685 117.227 101.595 117.53 102.386C117.962 103.512 118.228 104.637 118.246 105.846C118.274 107.843 121.355 107.846 121.328 105.846C121.306 104.373 121.029 102.934 120.502 101.56Z" fill="#3B3734"/>
<path fill-rule="evenodd" clip-rule="evenodd" d="M110.596 92.0057C110.106 94.1025 110.028 96.2138 110.027 98.3571C110.026 100.356 113.108 100.356 113.109 98.3571C113.11 96.4886 113.142 94.6572 113.568 92.831C114.021 90.886 111.049 90.0607 110.596 92.0057Z" fill="#3B3734"/>
</svg>
