<svg width="155" height="159" viewBox="0 0 155 159" fill="none" xmlns="http://www.w3.org/2000/svg">
<path fill-rule="evenodd" clip-rule="evenodd" d="M131.443 82.9095C132.626 83.5272 134.068 82.5212 133.706 81.1608C133.092 78.8419 132.352 76.5767 131.484 74.3569C132.682 74.7556 133.838 75.2473 134.867 76.024C135.38 76.4114 135.905 76.369 136.32 76.1046C138.136 77.2532 139.833 78.6518 141.338 79.9781C145.065 83.2649 143.476 85.2192 140.76 88.5359C138.132 91.7462 135.205 94.8264 132.128 97.7114C131.921 96.9315 131.738 96.1476 131.559 95.3594C132.239 94.9514 132.569 93.9454 132.182 93.1851C131.43 91.7111 131.066 90.0998 130.7 88.4832C131.437 88.2312 132.003 87.5298 131.651 86.6684C131.068 85.2357 130.693 83.7875 130.378 82.3187C130.721 82.5181 131.07 82.7164 131.443 82.9095ZM26.052 104.135C21.903 96.3118 15.7016 89.8003 11.2033 82.1607C14.2347 79.0929 17.5085 76.3329 20.9024 73.701C21.1274 73.9489 21.4325 74.1214 21.8054 74.1555C20.4782 77.6489 18.9836 81.0761 17.7396 84.6026C17.2476 85.998 18.8952 86.8895 20.0036 86.3534C20.3899 86.1075 20.7905 85.9123 21.1973 85.7398C20.8038 88.2095 21.0391 90.7123 21.1079 93.2781C21.148 94.7449 22.7083 95.1746 23.7386 94.3741C24.0838 94.1055 24.4382 93.8545 24.7946 93.6056C24.3098 96.1011 24.2163 98.6049 24.5882 101.266C24.7309 102.294 26.0704 102.625 26.8511 102.191C26.8594 102.185 26.8686 102.181 26.8779 102.175C26.6139 102.833 26.3314 103.483 26.052 104.135ZM151.883 75.8858C144.893 70.4195 137.314 66.4221 129.863 61.7853C129.479 60.5086 129.611 59.1379 130.812 57.5637C131.253 56.9842 130.975 56.1755 130.57 55.6869C128.853 53.6066 128.009 51.1131 126.462 48.9935C126.899 48.8375 127.351 48.7146 127.836 48.6351C128.775 48.4822 129.298 47.1229 128.758 46.3585C127.164 44.1067 126.032 42.5491 123.972 41.5781C126.023 38.7138 125.592 36.1532 123.364 34.4633C123.626 34.4447 123.888 34.4282 124.152 34.4013C125.494 34.2598 126.184 32.8272 125.242 31.757C124.993 31.474 124.754 31.1858 124.511 30.8997C125.405 30.876 126.303 30.8295 127.233 30.7861C128.867 30.7086 129.203 28.808 128.011 27.898C127.93 27.8381 127.856 27.7648 127.777 27.7028C128.435 27.6439 129.105 27.6253 129.801 27.6873C130.56 27.7555 130.997 27.3392 131.17 26.7949C131.598 26.8992 132.032 27.0025 132.474 27.1151C133.864 27.4694 134.777 26.0439 134.213 24.8395C134.153 24.7083 134.063 24.5999 133.992 24.477C135.141 24.3396 136.289 24.1568 137.506 24.0721C138.792 23.9822 139.569 22.4731 138.624 21.467C139.003 21.4019 139.334 21.2222 139.589 20.9733H140.587C141.21 20.9733 141.975 20.5064 142.074 19.836C142.382 17.7309 142.788 16.354 143.972 14.5247C144.355 13.9328 144.218 13.279 143.83 12.8121C144.316 12.3019 144.784 11.7689 145.273 11.2235C146.282 10.0945 145.317 8.21455 143.774 8.63392C141.066 9.3704 139.075 9.06052 136.679 8.53063C137.009 7.93566 137.371 7.36032 137.809 6.77775C138.686 5.60951 137.249 4.22745 136.07 4.50221C135.594 4.61273 135.116 4.7057 134.638 4.78937C135.007 4.09937 134.873 3.19143 134.37 2.70078C134.546 1.66166 133.645 0.457265 132.474 0.886963C131.34 1.3022 130.227 1.77425 129.107 2.22667C128.235 2.57787 127.356 2.9084 126.473 3.23068C126.372 3.2658 126.268 3.29988 126.165 3.335C125.613 2.85986 124.773 2.71008 124.09 3.35153C123.733 3.68723 123.478 3.95269 123.226 4.3638C122.961 4.7966 122.914 5.50105 123.226 5.92868C123.332 6.07226 123.454 6.19105 123.583 6.29744C123.336 6.50712 123.094 6.72094 122.847 6.93062C119.94 7.54625 117.143 8.46246 114.349 9.47886C114.005 9.15658 113.521 8.99028 112.957 9.15039C109.547 10.1203 106.104 12.1583 102.654 13.2573C102.118 12.6541 101.185 12.4124 100.464 13.1643C100.165 13.4753 99.8998 13.7986 99.6543 14.1394C99.6235 13.6932 99.5772 13.2274 99.5207 12.7099C99.4139 11.741 98.6147 10.9064 97.57 11.2162C96.0425 11.6676 94.4493 11.5189 92.8756 11.5881C92.9578 10.4767 93.0266 9.36317 93.3019 8.30235C93.6563 6.93992 92.2264 5.93488 91.0389 6.55154C89.2536 7.48014 87.2998 7.85819 85.424 8.50274C85.2977 7.9398 85.1713 7.37582 85.084 6.79015C84.9104 5.61158 83.2432 5.33578 82.5088 6.10635C79.5976 9.15452 76.3135 9.64309 73.0459 6.79428C72.1317 5.99686 70.8795 6.34599 70.4706 7.47808C68.7819 12.1459 65.5101 9.21649 63.8316 7.92947C62.6965 7.05871 61.2523 8.48621 61.5686 9.67925C61.8255 10.6533 62.0196 11.6356 62.2353 12.6117C61.2831 12.9164 60.338 13.2418 59.4043 13.6002C57.0899 13.3864 54.8557 12.682 52.5064 11.9052C51.3107 11.5096 50.4756 12.652 50.6122 13.6653C49.8305 13.7345 49.0487 13.7986 48.266 13.8616C42.6029 9.67511 34.2597 10.1616 27.5919 9.61107C26.9838 9.56046 26.5462 9.8724 26.3048 10.3135C24.2257 9.3642 22.1764 8.34367 20.1517 7.23947C19.0844 6.65896 18.0952 7.4254 17.8815 8.33128C16.4136 7.94496 14.9755 7.41507 13.4747 6.72301C12.5142 6.27988 11.5794 6.78188 11.2733 7.54728C10.8018 7.29422 10.3365 7.02565 9.87938 6.72301C9.19113 6.26955 8.50494 6.472 8.0694 6.95128C7.64926 6.70545 7.22501 6.45961 6.79768 6.20654C5.71087 5.56509 4.03751 6.63831 4.53469 7.95736C4.94353 9.03883 5.4027 10.0934 5.88139 11.1398C5.62047 11.3877 5.45612 11.7317 5.50645 12.1934C5.51981 12.308 5.53213 12.4227 5.54446 12.5374C5.62664 13.2718 6.04883 13.9081 6.76276 14.0547C7.24556 14.5361 7.71397 15.0288 8.1752 15.5277C5.48796 17.0244 4.15461 20.5188 2.99384 23.6599C2.5357 24.8994 4.18235 26.1834 5.25683 25.4107C5.79716 25.0213 6.34159 24.6443 6.89116 24.2766C6.61175 24.9201 6.34365 25.576 6.07554 26.2422C5.63794 27.3289 6.63333 28.1118 7.5979 28.1366C7.5527 29.2584 8.71347 30.0765 9.87938 29.5425C10.4639 29.2739 11.0288 29.0136 11.5825 28.7502C11.9061 29.1737 12.4362 29.4061 13.1069 29.1809C13.5867 29.0198 14.0602 28.8783 14.5297 28.7419C14.1557 29.6251 13.7377 30.4824 13.1491 31.2406C12.4187 32.1795 12.6529 33.4139 13.8281 33.8291C15.3514 34.3693 16.9015 34.8124 18.4547 35.2442C17.3052 36.0623 17.936 38.0166 19.3741 38.0166H19.6864C18.5718 39.0691 17.4316 40.0917 16.2307 41.0534C15.0535 41.9954 16.1599 43.5758 17.3196 43.6977C18.2349 43.7938 19.1162 44.022 19.9986 44.2431C19.7768 44.5612 19.559 44.8825 19.3124 45.1851C18.5533 46.1282 18.842 47.3439 19.9914 47.7736C20.4003 48.7466 20.8091 49.7197 21.218 50.6937L19.2642 54.6219C18.5225 56.1156 20.4948 57.9139 21.6843 56.4998C22.0295 56.0887 22.4301 55.7675 22.8574 55.4927C22.4517 57.2012 22.2914 58.9272 22.3315 60.7059C17.4788 65.3417 12.0191 69.4713 6.37446 73.0752C2.88188 75.3063 0.0888324 77.5127 0.00151771 81.945C-0.099151 87.0786 4.83053 92.0749 8.11562 95.4123C13.0412 100.413 18.0787 104.733 22.5657 110.212C22.7896 110.486 23.0413 110.637 23.2981 110.699C23.03 111.406 22.7629 112.114 22.5338 112.837C22.1055 114.182 23.6607 115.21 24.7968 114.587C25.4728 114.215 26.1384 113.823 26.804 113.434C25.9771 116.994 24.3017 120.386 23.218 123.854C22.7362 125.397 24.7075 126.372 25.7932 125.362C26.1066 125.07 26.4158 124.785 26.726 124.5C26.4568 126.109 26.237 127.732 25.9576 129.364C25.6967 130.884 27.3279 131.95 28.5329 130.871C29.0475 130.41 29.5807 129.977 30.123 129.557C29.4553 132.19 29.3608 134.901 30.0665 137.762C30.2597 138.544 30.9356 138.9 31.6156 138.856C31.7871 139.162 32.0758 139.412 32.5113 139.533C34.4035 140.054 36.1231 139.565 37.8088 138.688C38.044 138.566 38.2002 138.395 38.3244 138.211H39.8745C40.1077 138.591 40.5258 138.871 41.1391 138.9C41.4863 138.916 41.8674 138.948 42.2639 138.986C41.4185 139.747 41.3825 141.349 42.7837 141.599C49.0518 142.715 55.2666 141.738 61.4957 140.919C61.5296 142.392 61.5029 143.869 61.4844 145.334C61.4577 147.406 59.8963 147.278 58.1644 147.67C55.3056 148.318 51.2368 149.808 50.2044 152.949C47.1977 162.086 65.7341 157.889 69.1948 157.492C69.8235 157.421 70.5682 157.079 70.6812 156.355C71.4907 151.14 70.5364 146.024 70.7357 140.793C70.7439 140.601 70.7141 140.431 70.6679 140.276H75.3808C75.8677 140.276 76.2293 140.106 76.4758 139.85C78.2334 139.721 79.989 139.633 81.7373 139.7C81.9838 140.036 82.3721 140.271 82.9145 140.276C82.9515 140.277 82.9874 140.277 83.0244 140.277C82.859 144.339 82.2047 148.55 83.4312 152.476C84.7584 156.727 88.9269 157.854 92.9085 157.832C94.9752 157.821 103.966 155.4 101.585 151.775C100.589 150.258 98.3158 149.133 96.7986 148.236C95.4673 147.448 94.9989 147.616 94.3075 145.89C93.5731 144.058 93.5659 142.277 93.3645 140.379C96.4144 140.324 99.4581 140.118 102.498 139.533C103.044 139.428 103.375 139.091 103.519 138.675C105.303 138.575 107.084 138.442 108.863 138.218C111.026 138.23 113.187 138.276 115.342 138.42C115.589 138.708 115.965 138.9 116.47 138.9H119.895C120.33 138.9 120.683 138.712 120.94 138.432C121.731 138.339 122.521 138.254 123.318 138.211C125.071 138.115 125.396 135.726 123.727 135.168C123.498 135.091 123.269 135.014 123.04 134.937C123.345 134.624 123.521 134.206 123.476 133.756C123.947 133.436 124.259 132.865 124.119 132.117C124.068 131.848 123.999 131.582 123.929 131.316C124.907 131.358 125.825 130.37 125.488 129.364C125.397 129.089 125.302 128.815 125.21 128.542C126.2 128.611 127.292 127.662 126.858 126.61C126.127 124.836 125.657 122.999 125.031 121.212C125.471 121.318 125.904 121.447 126.333 121.628C127.477 122.034 128.506 120.8 128.228 119.722C128.075 119.125 127.96 118.518 127.86 117.908C128.941 118.857 130.622 117.65 130.282 116.281L129.342 112.499C129.799 112.073 130.241 111.626 130.663 111.153C130.818 111.203 130.974 111.245 131.126 111.299C132.467 111.783 133.469 110.135 132.867 109.023C132.799 108.9 132.749 108.775 132.685 108.652C134.536 106.188 136.258 103.564 138.425 101.605C143.857 96.6931 149.826 92.4571 153.409 85.8897C155.786 81.5318 155.671 78.8482 151.883 75.8858Z" fill="#7AC7C4"/>
<path fill-rule="evenodd" clip-rule="evenodd" d="M68.9519 45.5669C69.0125 45.0328 68.8338 44.4678 68.2832 44.0825C68.1856 44.0133 68.0911 43.9596 67.9945 43.9018C67.9308 43.8037 67.8795 43.7004 67.8086 43.6053C67.2488 42.8451 66.1147 42.4887 65.3884 43.2913C65.3063 43.3822 65.2487 43.4845 65.1717 43.5774C62.3119 44.913 61.6236 51.4917 65.2929 52.7447C66.8307 53.2694 67.9863 52.2065 68.6602 50.9247C68.8286 50.748 68.954 50.5383 68.9909 50.308C69.0012 50.2409 69.0074 50.1768 69.0166 50.1097C69.0865 49.9165 69.146 49.7223 69.1933 49.5374C69.5333 48.1895 69.4594 46.7857 68.9519 45.5669Z" fill="#263958"/>
<path fill-rule="evenodd" clip-rule="evenodd" d="M88.969 45.5669C89.0296 45.0328 88.8509 44.4678 88.3003 44.0825C88.2027 44.0133 88.1082 43.9596 88.0116 43.9018C87.9479 43.8037 87.8966 43.7004 87.8257 43.6053C87.2659 42.8451 86.1318 42.4887 85.4055 43.2913C85.3234 43.3822 85.2658 43.4845 85.1888 43.5774C82.328 44.913 81.6408 51.4917 85.309 52.7447C86.8488 53.2694 88.0034 52.2065 88.6773 50.9247C88.8457 50.748 88.9711 50.5383 89.007 50.308C89.0183 50.2409 89.0245 50.1768 89.0337 50.1097C89.1036 49.9165 89.1632 49.7223 89.2104 49.5374C89.5504 48.1895 89.4765 46.7857 88.969 45.5669Z" fill="#263958"/>
<path fill-rule="evenodd" clip-rule="evenodd" d="M103.35 82.6049C103.306 81.2136 101.927 80.7756 100.962 81.3881C100.6 81.2507 100.177 81.2859 99.7478 81.6102C94.0302 85.9433 87.0543 85.9898 80.1307 86.7149C71.0767 87.6621 62.1213 86.9887 53.7083 83.4178C53.5049 83.3321 53.3056 83.2949 53.1125 83.2877C52.5085 82.9685 51.9322 82.5894 51.397 82.2134C50.5526 81.6205 49.4062 82.2455 49.134 83.14C47.2614 89.2601 48.2948 97.5865 52.6739 102.444C54.564 104.54 57.8275 105.414 60.3966 106.221C65.1722 107.72 69.766 108.528 74.7624 108.644C79.2761 108.749 83.7527 108.264 88.1801 107.425C91.6768 106.764 95.9819 106.207 98.6199 103.498C103.733 98.2455 103.566 89.4636 103.35 82.6049Z" fill="#263958"/>
<path fill-rule="evenodd" clip-rule="evenodd" d="M61.8057 86.0316C60.6213 85.7455 59.4832 85.2321 58.2669 85.1061C57.9885 84.9687 57.6804 84.8985 57.3845 84.9842C56.1015 85.355 55.8468 86.6865 55.4944 87.8382C55.2345 88.6935 55.027 89.5673 54.836 90.4433C54.6151 91.1746 54.3932 91.9038 54.2073 92.6434C54.0049 93.447 54.2278 94.3384 55.0876 94.6493C56.3573 95.109 57.6547 95.5738 59.0096 95.6854C59.6424 95.737 60.4169 95.3672 60.6008 94.7041C61.1473 92.7219 62.0492 90.8626 62.5392 88.8649C62.5957 88.6356 62.609 88.4053 62.5936 88.1832C62.6255 88.1347 62.6635 88.0954 62.6871 88.0355C62.9593 87.3279 62.6234 86.2289 61.8057 86.0316Z" fill="white"/>
<path fill-rule="evenodd" clip-rule="evenodd" d="M90.696 85.5808C91.8825 85.3081 93.0279 84.8092 94.2472 84.6997C94.5266 84.5664 94.8358 84.4993 95.1296 84.5902C96.4085 84.9765 96.6468 86.311 96.9837 87.4669C97.2344 88.3263 97.4295 89.2022 97.6093 90.0802C97.8219 90.8136 98.0346 91.5459 98.2102 92.2886C98.4034 93.0933 98.1681 93.9826 97.3063 94.2822C96.0284 94.7263 94.7259 95.1746 93.3709 95.2686C92.7371 95.313 91.9667 94.9319 91.7921 94.2656C91.2703 92.2783 90.392 90.4087 89.9266 88.4038C89.8732 88.1734 89.863 87.9431 89.8814 87.721C89.8506 87.6735 89.8126 87.6332 89.789 87.5743C89.527 86.8616 89.8743 85.7688 90.696 85.5808Z" fill="white"/>
<path fill-rule="evenodd" clip-rule="evenodd" d="M109.972 69.3665C109.494 67.4639 108.967 65.5736 108.431 63.6854C107.887 61.7683 104.913 62.5843 105.459 64.5107C105.996 66.3969 106.524 68.2871 107 70.1918C107.486 72.1286 110.459 71.3053 109.972 69.3665Z" fill="white"/>
<path fill-rule="evenodd" clip-rule="evenodd" d="M115.109 68.5918C114.833 66.5445 114.279 64.5892 113.568 62.6525C112.886 60.7953 109.907 61.5978 110.596 63.4778C111.308 65.4135 111.861 67.3667 112.137 69.4171C112.25 70.2548 113.306 70.7 114.032 70.4986C114.923 70.2517 115.221 69.4295 115.109 68.5918Z" fill="white"/>
<path fill-rule="evenodd" clip-rule="evenodd" d="M109.459 58.0043C109.185 57.179 108.909 56.3537 108.534 55.5697C108.17 54.8084 107.106 54.6132 106.426 55.013C105.658 55.4654 105.508 56.3723 105.873 57.1325C105.944 57.2926 105.956 57.3123 105.91 57.1955C105.979 57.3608 106.04 57.5302 106.102 57.6996C106.24 58.0725 106.362 58.4516 106.487 58.8296C106.753 59.6291 107.54 60.1435 108.383 59.9111C109.16 59.6963 109.725 58.8059 109.459 58.0043Z" fill="white"/>
<path fill-rule="evenodd" clip-rule="evenodd" d="M117.163 52.8397C117.001 52.0113 116.031 51.5465 115.268 51.7582C114.414 51.9948 114.029 52.8356 114.192 53.665C114.434 54.8963 114.634 56.1265 114.651 57.3836C114.676 59.3802 117.758 59.3833 117.733 57.3836C117.712 55.8569 117.456 54.3354 117.163 52.8397Z" fill="white"/>
<path fill-rule="evenodd" clip-rule="evenodd" d="M120.759 65.4931C120.621 64.6595 119.609 64.2061 118.864 64.4116C117.991 64.6533 117.65 65.4848 117.787 66.3184C118.035 67.8131 118.231 69.2943 118.246 70.8116C118.266 72.8093 121.347 72.8114 121.328 70.8116C121.309 69.0205 121.05 67.2584 120.759 65.4931Z" fill="white"/>
<path fill-rule="evenodd" clip-rule="evenodd" d="M115.109 80.9871C115.051 80.8073 115.003 80.6255 114.959 80.4427C114.934 80.3363 114.912 80.231 114.892 80.1235C114.895 80.1411 114.852 79.855 114.84 79.7971C114.817 79.5875 114.806 79.3767 114.8 79.165C114.799 79.0927 114.805 79.0214 114.808 78.9481C114.809 79.0183 114.836 78.7642 114.852 78.7136C115.4 76.7882 112.428 75.9722 111.88 77.8883C111.528 79.1268 111.756 80.6049 112.137 81.8124C112.736 83.7088 115.712 82.898 115.109 80.9871Z" fill="white"/>
<path fill-rule="evenodd" clip-rule="evenodd" d="M90.7666 21.2316V25.3633C90.7666 27.362 93.8483 27.362 93.8483 25.3633V21.2316C93.8483 19.2329 90.7666 19.2329 90.7666 21.2316Z" fill="white"/>
<path fill-rule="evenodd" clip-rule="evenodd" d="M96.8753 21.0772C96.6822 20.256 95.7679 19.7778 94.98 19.9957C94.15 20.2261 93.7104 21.0813 93.9035 21.9025C94.0956 22.7113 94.1059 23.423 94.1059 24.3299C94.1069 26.3286 97.1886 26.3286 97.1876 24.3299C97.1876 23.2319 97.129 22.1504 96.8753 21.0772Z" fill="white"/>
<path fill-rule="evenodd" clip-rule="evenodd" d="M98.2147 21.4898C98.2147 22.6466 98.2229 23.8107 98.0133 24.9511C97.8603 25.7805 98.228 26.6193 99.0899 26.8569C99.8459 27.0665 100.832 26.6069 100.984 25.7754C101.246 24.353 101.295 22.9317 101.296 21.4898C101.297 19.491 98.2157 19.491 98.2147 21.4898Z" fill="white"/>
<path fill-rule="evenodd" clip-rule="evenodd" d="M92.0511 30.0115C92.0511 31.3398 92.0542 32.6733 91.8498 33.9893C91.7194 34.8229 92.0481 35.6533 92.9263 35.895C93.6649 36.1006 94.6901 35.6492 94.8206 34.8136C95.0702 33.2136 95.1328 31.628 95.1328 30.0115C95.1339 28.0128 92.0522 28.0128 92.0511 30.0115Z" fill="white"/>
<path fill-rule="evenodd" clip-rule="evenodd" d="M71.7627 117.81V123.233C71.7627 125.232 74.8444 125.232 74.8444 123.233V117.81C74.8444 115.812 71.7627 115.812 71.7627 117.81Z" fill="white"/>
<path fill-rule="evenodd" clip-rule="evenodd" d="M65.5996 122.458V126.074C65.5996 128.072 68.6813 128.072 68.6813 126.074V122.458C68.6813 120.46 65.5996 120.46 65.5996 122.458Z" fill="white"/>
<path fill-rule="evenodd" clip-rule="evenodd" d="M72.2764 130.464V131.497C72.2764 133.495 75.3581 133.495 75.3581 131.497V130.464C75.3581 128.465 72.2764 128.465 72.2764 130.464Z" fill="white"/>
<path fill-rule="evenodd" clip-rule="evenodd" d="M77.9268 121.942V125.557C77.9268 127.556 81.0085 127.556 81.0085 125.557V121.942C81.0085 119.943 77.9268 119.943 77.9268 121.942Z" fill="white"/>
<path fill-rule="evenodd" clip-rule="evenodd" d="M86.3456 120.238C86.1813 119.41 85.2157 118.945 84.4504 119.157C83.5978 119.393 83.2095 120.235 83.3739 121.064C83.6029 122.213 83.8146 123.347 83.833 124.524C83.8628 126.521 86.9445 126.524 86.9147 124.524C86.8921 123.078 86.6261 121.653 86.3456 120.238Z" fill="white"/>
<path fill-rule="evenodd" clip-rule="evenodd" d="M85.3186 131.342C85.0238 130.475 84.6375 129.672 84.1362 128.908C83.675 128.203 82.7813 127.907 82.0284 128.351C81.3329 128.76 81.0135 129.765 81.4757 130.47C81.6658 130.763 81.8486 131.058 82.014 131.365C82.0777 131.484 82.1331 131.607 82.1896 131.728C82.1968 131.749 82.2081 131.778 82.2359 131.848C82.2749 131.955 82.3119 132.06 82.3468 132.168C82.618 132.965 83.3956 133.482 84.242 133.249C85.0145 133.035 85.5908 132.143 85.3186 131.342Z" fill="white"/>
<path fill-rule="evenodd" clip-rule="evenodd" d="M96.1048 123.853C95.8922 123.21 95.6631 122.562 95.6467 121.941C95.6231 121.098 94.9626 120.392 94.1059 120.392C93.283 120.392 92.5414 121.098 92.565 121.941C92.5897 122.891 92.8372 123.784 93.1331 124.679C93.3981 125.478 94.187 125.993 95.0283 125.76C95.8059 125.545 96.3699 124.656 96.1048 123.853Z" fill="white"/>
<path fill-rule="evenodd" clip-rule="evenodd" d="M31.5972 68.2852C30.8586 68.0817 29.8303 68.531 29.7019 69.3667C29.4287 71.1361 29.3907 72.8993 29.3896 74.6852C29.3896 76.6839 32.4713 76.6839 32.4713 74.6852C32.4724 73.1895 32.4446 71.6722 32.6727 70.192C32.8021 69.3564 32.4754 68.5279 31.5972 68.2852Z" fill="white"/>
<path fill-rule="evenodd" clip-rule="evenodd" d="M36.5249 67.8171C36.038 66.0839 35.6045 64.362 35.81 62.5482C35.9045 61.7074 35.0365 60.9988 34.2691 60.9988C33.357 60.9988 32.8228 61.7105 32.7283 62.5482C32.4951 64.6099 32.9995 66.6716 33.5532 68.6425C34.0924 70.5606 37.0663 69.7446 36.5249 67.8171Z" fill="white"/>
<path fill-rule="evenodd" clip-rule="evenodd" d="M40.8914 69.6247C40.6839 68.9451 40.6901 68.3181 40.6901 67.4546C40.6891 65.4569 37.6074 65.4569 37.6084 67.4546C37.6084 68.4534 37.6259 69.4874 37.9196 70.4501C38.1662 71.2557 38.988 71.7598 39.8159 71.5315C40.6069 71.3126 41.138 70.4325 40.8914 69.6247Z" fill="white"/>
<path fill-rule="evenodd" clip-rule="evenodd" d="M38.1833 74.3649C37.606 73.7833 36.5777 73.7462 36.0045 74.3649C35.5094 74.8989 35.1899 75.5156 34.927 76.1704C34.0107 75.7769 32.7133 76.2252 32.7277 77.5267C32.7472 79.1432 32.9865 80.7453 33.2967 82.3288C33.6809 84.2872 36.6507 83.4567 36.2685 81.5034C36.1083 80.6905 35.984 79.8797 35.9028 79.0626C36.6486 79.1432 37.3122 78.6588 37.5526 77.9388C37.607 77.7735 37.6635 77.6083 37.72 77.442C37.7128 77.4637 37.8196 77.1899 37.8381 77.1331C37.8998 76.9988 37.9686 76.8697 38.0405 76.7427C38.0662 76.6983 38.0816 76.6673 38.0939 76.6456C38.1124 76.6291 38.1381 76.6053 38.1833 76.5557C38.7555 75.9391 38.7924 74.9774 38.1833 74.3649Z" fill="white"/>
<path fill-rule="evenodd" clip-rule="evenodd" d="M38.1216 79.0755C38.1216 80.0588 38.1401 81.0576 37.9202 82.0203C37.4754 83.9653 40.4462 84.7917 40.891 82.8446C41.1745 81.6072 41.2033 80.3398 41.2033 79.0755C41.2033 77.0767 38.1216 77.0767 38.1216 79.0755Z" fill="white"/>
<path fill-rule="evenodd" clip-rule="evenodd" d="M34.9842 111.458C34.5363 109.512 31.5656 110.339 32.0124 112.284C32.2158 113.167 32.2138 114.064 32.2148 114.969C32.2158 116.968 35.2975 116.968 35.2965 114.969C35.2955 113.788 35.2503 112.616 34.9842 111.458Z" fill="white"/>
<path fill-rule="evenodd" clip-rule="evenodd" d="M40.6341 116.365C40.3834 115 40.3721 113.602 40.1205 112.233C39.9684 111.402 38.9823 110.942 38.2252 111.152C37.3644 111.39 36.9966 112.228 37.1487 113.058C37.4003 114.423 37.4106 115.821 37.6623 117.19C37.8153 118.022 38.8015 118.481 39.5586 118.272C40.4194 118.033 40.7861 117.195 40.6341 116.365Z" fill="white"/>
<path fill-rule="evenodd" clip-rule="evenodd" d="M37.3503 26.1378C33.3092 26.6698 34.2594 33.8693 34.2686 36.7253C34.2748 38.724 37.3565 38.724 37.3503 36.7253C37.3462 35.4125 37.3277 34.1038 37.3657 32.7919C37.3893 31.9914 37.4335 31.1847 37.5506 30.3914C37.6009 30.0547 37.6821 29.7272 37.7694 29.3988C37.8269 29.1788 37.8855 29.0858 37.9029 29.0589C39.2702 28.3514 39.1058 25.9064 37.3503 26.1378Z" fill="white"/>
<path fill-rule="evenodd" clip-rule="evenodd" d="M43.9725 31.923C43.7465 30.4417 43.7711 28.9233 43.7711 27.4287C43.7701 25.431 40.6884 25.431 40.6895 27.4287C40.6895 29.2136 40.7316 30.9799 41.0007 32.7483C41.1281 33.5829 42.1584 34.0332 42.897 33.8297C43.7763 33.586 44.0999 32.7586 43.9725 31.923Z" fill="white"/>
<path fill-rule="evenodd" clip-rule="evenodd" d="M51.1638 25.001C51.2912 24.1654 50.9676 23.338 50.0883 23.0942C49.3507 22.8907 48.3194 23.3411 48.192 24.1757C47.8982 26.1062 47.8982 27.9769 48.192 29.9074C48.3194 30.7431 49.3507 31.1924 50.0883 30.9889C50.9676 30.7462 51.2912 29.9177 51.1638 29.0821C50.9614 27.7496 50.9614 26.3335 51.1638 25.001Z" fill="white"/>
<path fill-rule="evenodd" clip-rule="evenodd" d="M43.5144 40.8572C43.4918 38.8605 40.4101 38.8574 40.4327 40.8572C40.4492 42.325 40.6731 43.7793 40.6895 45.2471C40.7121 47.2438 43.7938 47.2469 43.7712 45.2471C43.7548 43.7793 43.5309 42.325 43.5144 40.8572Z" fill="white"/>
<path fill-rule="evenodd" clip-rule="evenodd" d="M63.7469 69.883C63.523 68.6621 63.5456 67.4019 63.5456 66.1634C63.5445 64.1657 60.4628 64.1657 60.4639 66.1634C60.4639 67.6891 60.4988 69.2033 60.7751 70.7083C60.9282 71.5398 61.9143 71.9995 62.6714 71.7898C63.5322 71.5512 63.8989 70.7135 63.7469 69.883Z" fill="white"/>
<path fill-rule="evenodd" clip-rule="evenodd" d="M74.8444 70.2955C74.5794 68.1439 74.339 65.9913 74.074 63.8397C73.8326 61.8834 70.7478 61.8596 70.9923 63.8397C71.2573 65.9913 71.4977 68.1439 71.7627 70.2955C72.0041 72.2519 75.0879 72.2756 74.8444 70.2955Z" fill="white"/>
<path fill-rule="evenodd" clip-rule="evenodd" d="M81.8246 64.6074C81.461 63.8472 80.3967 63.6499 79.7167 64.0507C78.9494 64.5021 78.7994 65.41 79.1641 66.1713C79.5154 66.9046 79.7095 67.6762 79.7239 68.4881C79.7588 70.4837 82.8405 70.4868 82.8056 68.4881C82.782 67.1071 82.4183 65.8438 81.8246 64.6074Z" fill="white"/>
<path fill-rule="evenodd" clip-rule="evenodd" d="M91.7389 68.0754C91.4945 67.2687 90.6706 66.7646 89.8437 66.9939C89.0517 67.2129 88.5227 68.0919 88.7672 68.9007C88.8946 69.3201 88.9182 69.5339 88.9428 69.9088C88.9747 70.3809 88.9695 70.855 88.9695 71.3281C88.9706 73.3268 92.0523 73.3268 92.0512 71.3281C92.0512 70.2466 92.0564 69.1217 91.7389 68.0754Z" fill="white"/>
<path fill-rule="evenodd" clip-rule="evenodd" d="M112.027 109.909C111.799 108.455 111.741 106.978 111.513 105.519C111.382 104.683 110.357 104.233 109.618 104.438C108.74 104.68 108.411 105.51 108.541 106.344C108.769 107.799 108.828 109.276 109.055 110.734C109.185 111.569 110.21 112.02 110.95 111.816C111.828 111.573 112.157 110.744 112.027 109.909Z" fill="white"/>
<path fill-rule="evenodd" clip-rule="evenodd" d="M120.502 102.162C120.2 101.375 119.477 100.84 118.606 101.081C117.858 101.287 117.227 102.197 117.53 102.987C117.962 104.114 118.228 105.239 118.246 106.448C118.274 108.444 121.355 108.447 121.328 106.448C121.306 104.975 121.029 103.536 120.502 102.162Z" fill="white"/>
<path fill-rule="evenodd" clip-rule="evenodd" d="M110.596 92.6073C110.106 94.7042 110.028 96.8155 110.027 98.9588C110.026 100.958 113.108 100.958 113.109 98.9588C113.11 97.0903 113.142 95.2589 113.568 93.4327C114.021 91.4877 111.049 90.6623 110.596 92.6073Z" fill="white"/>
</svg>
