<svg width="155" height="158" viewBox="0 0 155 158" fill="none" xmlns="http://www.w3.org/2000/svg">
<path fill-rule="evenodd" clip-rule="evenodd" d="M131.443 82.1128C132.626 82.7305 134.068 81.7244 133.706 80.364C133.092 78.0451 132.352 75.7799 131.484 73.5601C132.682 73.9588 133.838 74.4505 134.867 75.2273C135.38 75.6146 135.905 75.5723 136.32 75.3078C138.136 76.4565 139.833 77.855 141.338 79.1813C145.065 82.4681 143.476 84.4224 140.76 87.7391C138.132 90.9495 135.205 94.0297 132.128 96.9146C131.921 96.1348 131.738 95.3508 131.559 94.5627C132.239 94.1546 132.569 93.1486 132.182 92.3883C131.43 90.9144 131.066 89.303 130.7 87.6864C131.437 87.4344 132.003 86.7331 131.651 85.8716C131.068 84.4389 130.693 82.9908 130.378 81.5219C130.721 81.7213 131.07 81.9196 131.443 82.1128ZM26.052 103.338C21.903 95.5151 15.7016 89.0035 11.2033 81.3639C14.2347 78.2961 17.5085 75.5362 20.9024 72.9043C21.1274 73.1522 21.4325 73.3247 21.8054 73.3587C20.4782 76.8521 18.9836 80.2794 17.7396 83.8058C17.2476 85.2013 18.8952 86.0927 20.0036 85.5566C20.3899 85.3108 20.7905 85.1155 21.1973 84.943C20.8038 87.4128 21.0391 89.9156 21.1079 92.4813C21.148 93.9481 22.7083 94.3778 23.7386 93.5773C24.0838 93.3087 24.4382 93.0577 24.7946 92.8088C24.3098 95.3043 24.2163 97.8082 24.5882 100.469C24.7309 101.497 26.0704 101.828 26.8511 101.394C26.8594 101.388 26.8686 101.384 26.8779 101.378C26.6139 102.036 26.3314 102.687 26.052 103.338ZM151.883 75.089C144.893 69.6228 137.314 65.6254 129.863 60.9885C129.479 59.7118 129.611 58.3412 130.812 56.767C131.253 56.1875 130.975 55.3787 130.57 54.8901C128.853 52.8098 128.009 50.3163 126.462 48.1968C126.899 48.0408 127.351 47.9179 127.836 47.8383C128.775 47.6855 129.298 46.3261 128.758 45.5618C127.164 43.31 126.032 41.7523 123.972 40.7814C126.023 37.9171 125.592 35.3564 123.364 33.6666C123.626 33.648 123.888 33.6314 124.152 33.6046C125.494 33.4631 126.184 32.0304 125.242 30.9603C124.993 30.6773 124.754 30.3891 124.511 30.103C125.405 30.0792 126.303 30.0327 127.233 29.9893C128.867 29.9119 129.203 28.0113 128.011 27.1013C127.93 27.0414 127.856 26.968 127.777 26.9061C128.435 26.8472 129.105 26.8286 129.801 26.8906C130.56 26.9587 130.997 26.5425 131.17 25.9981C131.598 26.1024 132.032 26.2057 132.474 26.3183C133.864 26.6726 134.777 25.2472 134.213 24.0428C134.153 23.9116 134.063 23.8031 133.992 23.6802C135.141 23.5428 136.289 23.36 137.506 23.2753C138.792 23.1854 139.569 21.6763 138.624 20.6703C139.003 20.6052 139.334 20.4255 139.589 20.1765H140.587C141.21 20.1765 141.975 19.7096 142.074 19.0393C142.382 16.9342 142.788 15.5573 143.972 13.728C144.355 13.1361 144.218 12.4822 143.83 12.0154C144.316 11.5051 144.784 10.9721 145.273 10.4267C146.282 9.29773 145.317 7.4178 143.774 7.83717C141.066 8.57365 139.075 8.26377 136.679 7.73388C137.009 7.13891 137.371 6.56357 137.809 5.981C138.686 4.81276 137.249 3.4307 136.07 3.70546C135.594 3.81598 135.116 3.90895 134.638 3.99261C135.007 3.30262 134.873 2.39467 134.37 1.90403C134.546 0.864906 133.645 -0.339488 132.474 0.0902104C131.34 0.505447 130.227 0.977496 129.107 1.42992C128.235 1.78111 127.356 2.11165 126.473 2.43392C126.372 2.46904 126.268 2.50313 126.165 2.53825C125.613 2.0631 124.773 1.91333 124.09 2.55478C123.733 2.89048 123.478 3.15594 123.226 3.56705C122.961 3.99984 122.914 4.7043 123.226 5.13193C123.332 5.27551 123.454 5.3943 123.583 5.50069C123.336 5.71037 123.094 5.92419 122.847 6.13387C119.94 6.7495 117.143 7.6657 114.349 8.68211C114.005 8.35983 113.521 8.19353 112.957 8.35363C109.547 9.32355 106.104 11.3615 102.654 12.4606C102.118 11.8573 101.185 11.6156 100.464 12.3676C100.165 12.6785 99.8998 13.0018 99.6543 13.3427C99.6235 12.8965 99.5772 12.4306 99.5207 11.9131C99.4139 10.9442 98.6147 10.1096 97.57 10.4195C96.0425 10.8709 94.4493 10.7221 92.8756 10.7913C92.9578 9.67991 93.0266 8.56642 93.3019 7.5056C93.6563 6.14317 92.2264 5.13813 91.0389 5.75479C89.2536 6.68339 87.2998 7.06144 85.424 7.70599C85.2977 7.14304 85.1713 6.57906 85.084 5.99339C84.9104 4.81482 83.2432 4.53903 82.5088 5.3096C79.5976 8.35777 76.3135 8.84634 73.0459 5.99753C72.1317 5.20011 70.8795 5.54923 70.4706 6.68132C68.7819 11.3491 65.5101 8.41974 63.8316 7.13271C62.6965 6.26196 61.2523 7.68946 61.5686 8.88249C61.8255 9.85654 62.0196 10.8389 62.2353 11.815C61.2831 12.1197 60.338 12.4451 59.4043 12.8035C57.0899 12.5897 54.8557 11.8852 52.5064 11.1085C51.3107 10.7128 50.4756 11.8553 50.6122 12.8686C49.8305 12.9378 49.0487 13.0018 48.266 13.0648C42.6029 8.87836 34.2597 9.36487 27.5919 8.81432C26.9838 8.76371 26.5462 9.07565 26.3048 9.51671C24.2257 8.56745 22.1764 7.54692 20.1517 6.44272C19.0844 5.86221 18.0952 6.62864 17.8815 7.53452C16.4136 7.14821 14.9755 6.61832 13.4747 5.92625C12.5142 5.48313 11.5794 5.98513 11.2733 6.75053C10.8018 6.49746 10.3365 6.2289 9.87938 5.92625C9.19113 5.4728 8.50494 5.67525 8.0694 6.15453C7.64926 5.90869 7.22501 5.66286 6.79768 5.40979C5.71087 4.76834 4.03751 5.84155 4.53469 7.1606C4.94353 8.24208 5.4027 9.2967 5.88139 10.3431C5.62047 10.591 5.45612 10.9349 5.50645 11.3966C5.51981 11.5113 5.53213 11.6259 5.54446 11.7406C5.62664 12.475 6.04883 13.1113 6.76276 13.258C7.24556 13.7393 7.71397 14.232 8.1752 14.7309C5.48796 16.2276 4.15461 19.722 2.99384 22.8632C2.5357 24.1027 4.18235 25.3866 5.25683 24.614C5.79716 24.2246 6.34159 23.8476 6.89116 23.4798C6.61175 24.1233 6.34365 24.7793 6.07554 25.4455C5.63794 26.5321 6.63333 27.3151 7.5979 27.3399C7.5527 28.4616 8.71347 29.2797 9.87938 28.7457C10.4639 28.4771 11.0288 28.2168 11.5825 27.9534C11.9061 28.3769 12.4362 28.6094 13.1069 28.3842C13.5867 28.223 14.0602 28.0815 14.5297 27.9452C14.1557 28.8283 13.7377 29.6857 13.1491 30.4438C12.4187 31.3828 12.6529 32.6171 13.8281 33.0323C15.3514 33.5726 16.9015 34.0157 18.4547 34.4475C17.3052 35.2655 17.936 37.2198 19.3741 37.2198H19.6864C18.5718 38.2724 17.4316 39.295 16.2307 40.2566C15.0535 41.1987 16.1599 42.7791 17.3196 42.9009C18.2349 42.997 19.1162 43.2253 19.9986 43.4463C19.7768 43.7645 19.559 44.0857 19.3124 44.3884C18.5533 45.3314 18.842 46.5472 19.9914 46.9769C20.4003 47.9499 20.8091 48.9229 21.218 49.897L19.2642 53.8252C18.5225 55.3188 20.4948 57.1171 21.6843 55.7031C22.0295 55.2919 22.4301 54.9707 22.8574 54.6959C22.4517 56.4044 22.2914 58.1304 22.3315 59.9091C17.4788 64.5449 12.0191 68.6746 6.37446 72.2785C2.88188 74.5096 0.0888324 76.7159 0.00151771 81.1482C-0.099151 86.2819 4.83053 91.2781 8.11562 94.6155C13.0412 99.6159 18.0787 103.937 22.5657 109.415C22.7896 109.689 23.0413 109.84 23.2981 109.902C23.03 110.609 22.7629 111.317 22.5338 112.04C22.1055 113.385 23.6607 114.414 24.7968 113.79C25.4728 113.418 26.1384 113.026 26.804 112.637C25.9771 116.198 24.3017 119.59 23.218 123.057C22.7362 124.6 24.7075 125.575 25.7932 124.565C26.1066 124.273 26.4158 123.988 26.726 123.703C26.4568 125.312 26.237 126.935 25.9576 128.567C25.6967 130.087 27.3279 131.153 28.5329 130.074C29.0475 129.613 29.5807 129.18 30.123 128.76C29.4553 131.393 29.3608 134.104 30.0665 136.966C30.2597 137.747 30.9356 138.103 31.6156 138.059C31.7871 138.365 32.0758 138.615 32.5113 138.736C34.4035 139.258 36.1231 138.768 37.8088 137.891C38.044 137.769 38.2002 137.599 38.3244 137.414H39.8745C40.1077 137.794 40.5258 138.074 41.1391 138.103C41.4863 138.119 41.8674 138.151 42.2639 138.19C41.4185 138.95 41.3825 140.552 42.7837 140.802C49.0518 141.918 55.2666 140.941 61.4957 140.122C61.5296 141.595 61.5029 143.072 61.4844 144.537C61.4577 146.609 59.8963 146.481 58.1644 146.873C55.3056 147.521 51.2368 149.012 50.2044 152.153C47.1977 161.289 65.7341 157.092 69.1948 156.696C69.8235 156.624 70.5682 156.282 70.6812 155.558C71.4907 150.343 70.5364 145.227 70.7357 139.996C70.7439 139.804 70.7141 139.635 70.6679 139.48H75.3808C75.8677 139.48 76.2293 139.309 76.4758 139.053C78.2334 138.924 79.989 138.836 81.7373 138.903C81.9838 139.239 82.3721 139.475 82.9145 139.48C82.9515 139.481 82.9874 139.481 83.0244 139.481C82.859 143.542 82.2047 147.753 83.4312 151.68C84.7584 155.93 88.9269 157.057 92.9085 157.035C94.9752 157.024 103.966 154.603 101.585 150.978C100.589 149.461 98.3158 148.336 96.7986 147.439C95.4673 146.651 94.9989 146.82 94.3075 145.094C93.5731 143.261 93.5659 141.48 93.3645 139.582C96.4144 139.527 99.4581 139.322 102.498 138.736C103.044 138.632 103.375 138.294 103.519 137.879C105.303 137.778 107.084 137.645 108.863 137.421C111.026 137.433 113.187 137.479 115.342 137.624C115.589 137.912 115.965 138.103 116.47 138.103H119.895C120.33 138.103 120.683 137.915 120.94 137.635C121.731 137.542 122.521 137.457 123.318 137.414C125.071 137.318 125.396 134.93 123.727 134.371C123.498 134.294 123.269 134.217 123.04 134.141C123.345 133.828 123.521 133.409 123.476 132.959C123.947 132.64 124.259 132.068 124.119 131.321C124.068 131.051 123.999 130.786 123.929 130.519C124.907 130.561 125.825 129.573 125.488 128.567C125.397 128.292 125.302 128.018 125.21 127.746C126.2 127.814 127.292 126.866 126.858 125.813C126.127 124.04 125.657 122.202 125.031 120.415C125.471 120.521 125.904 120.65 126.333 120.831C127.477 121.237 128.506 120.003 128.228 118.925C128.075 118.328 127.96 117.721 127.86 117.112C128.941 118.06 130.622 116.853 130.282 115.484L129.342 111.702C129.799 111.277 130.241 110.829 130.663 110.356C130.818 110.406 130.974 110.448 131.126 110.502C132.467 110.986 133.469 109.338 132.867 108.226C132.799 108.103 132.749 107.979 132.685 107.856C134.536 105.391 136.258 102.767 138.425 100.808C143.857 95.8963 149.826 91.6603 153.409 85.0929C155.786 80.735 155.671 78.0515 151.883 75.089Z" 
    fill="#263958"/>
<path fill-rule="evenodd" clip-rule="evenodd" d="M68.9519 44.7701C69.0125 44.2361 68.8338 43.6711 68.2832 43.2858C68.1856 43.2166 68.0911 43.1629 67.9945 43.105C67.9308 43.0069 67.8795 42.9036 67.8086 42.8086C67.2488 42.0483 66.1147 41.692 65.3884 42.4946C65.3063 42.5855 65.2487 42.6877 65.1717 42.7807C62.3119 44.1163 61.6236 50.695 65.2929 51.9479C66.8307 52.4727 67.9863 51.4098 68.6602 50.1279C68.8286 49.9513 68.954 49.7416 68.9909 49.5113C69.0012 49.4441 69.0074 49.3801 69.0166 49.3129C69.0865 49.1198 69.146 48.9256 69.1933 48.7407C69.5333 47.3927 69.4594 45.989 68.9519 44.7701Z" 
    fill="#7AC7C4"/>
<path fill-rule="evenodd" clip-rule="evenodd" d="M88.969 44.7701C89.0296 44.2361 88.8509 43.6711 88.3003 43.2858C88.2027 43.2166 88.1082 43.1629 88.0116 43.105C87.9479 43.0069 87.8966 42.9036 87.8257 42.8086C87.2659 42.0483 86.1318 41.692 85.4055 42.4946C85.3234 42.5855 85.2658 42.6877 85.1888 42.7807C82.328 44.1163 81.6408 50.695 85.309 51.9479C86.8488 52.4727 88.0034 51.4098 88.6773 50.1279C88.8457 49.9513 88.9711 49.7416 89.007 49.5113C89.0183 49.4441 89.0245 49.3801 89.0337 49.3129C89.1036 49.1198 89.1632 48.9256 89.2104 48.7407C89.5504 47.3927 89.4765 45.989 88.969 44.7701Z" 
    fill="#7AC7C4"/>
<path fill-rule="evenodd" clip-rule="evenodd" d="M103.35 81.8082C103.306 80.4168 101.927 79.9788 100.962 80.5914C100.6 80.454 100.177 80.4891 99.7478 80.8134C94.0302 85.1466 87.0543 85.1931 80.1307 85.9182C71.0767 86.8654 62.1213 86.1919 53.7083 82.6211C53.5049 82.5353 53.3056 82.4982 53.1125 82.4909C52.5085 82.1717 51.9322 81.7927 51.397 81.4167C50.5526 80.8238 49.4062 81.4487 49.134 82.3432C47.2614 88.4633 48.2948 96.7897 52.6739 101.648C54.564 103.743 57.8275 104.617 60.3966 105.424C65.1722 106.923 69.766 107.732 74.7624 107.847C79.2761 107.953 83.7527 107.467 88.1801 106.628C91.6768 105.967 95.9819 105.411 98.6199 102.701C103.733 97.4488 103.566 88.6668 103.35 81.8082Z" 
    fill="#7AC7C4"/>
<path fill-rule="evenodd" clip-rule="evenodd" d="M61.8057 85.2349C60.6213 84.9487 59.4832 84.4354 58.2669 84.3094C57.9885 84.172 57.6804 84.1017 57.3845 84.1875C56.1015 84.5583 55.8468 85.8897 55.4944 87.0414C55.2345 87.8967 55.027 88.7706 54.836 89.6465C54.6151 90.3778 54.3932 91.107 54.2073 91.8466C54.0049 92.6502 54.2278 93.5417 55.0876 93.8526C56.3573 94.3122 57.6547 94.777 59.0096 94.8886C59.6424 94.9402 60.4169 94.5705 60.6008 93.9073C61.1473 91.9251 62.0492 90.0659 62.5392 88.0682C62.5957 87.8389 62.609 87.6085 62.5936 87.3864C62.6255 87.3379 62.6635 87.2986 62.6871 87.2387C62.9593 86.5312 62.6234 85.4321 61.8057 85.2349Z" 
    fill="white"/>
<path fill-rule="evenodd" clip-rule="evenodd" d="M90.696 84.784C91.8825 84.5113 93.0279 84.0124 94.2472 83.9029C94.5266 83.7696 94.8358 83.7025 95.1296 83.7934C96.4085 84.1797 96.6468 85.5142 96.9837 86.6701C97.2344 87.5295 97.4295 88.4054 97.6093 89.2834C97.8219 90.0168 98.0346 90.7491 98.2102 91.4918C98.4034 92.2964 98.1681 93.1858 97.3063 93.4853C96.0284 93.9295 94.7259 94.3778 93.3709 94.4718C92.7371 94.5162 91.9667 94.135 91.7921 93.4688C91.2703 91.4815 90.392 89.6119 89.9266 87.6069C89.8732 87.3766 89.863 87.1463 89.8814 86.9242C89.8506 86.8767 89.8126 86.8364 89.789 86.7775C89.527 86.0648 89.8743 84.9719 90.696 84.784Z" 
    fill="white"/>
<path fill-rule="evenodd" clip-rule="evenodd" d="M109.972 68.5698C109.494 66.6671 108.967 64.7769 108.431 62.8887C107.887 60.9716 104.913 61.7876 105.459 63.714C105.996 65.6001 106.524 67.4904 107 69.3951C107.486 71.3318 110.459 70.5086 109.972 68.5698Z" 
    fill="white"/>
<path fill-rule="evenodd" clip-rule="evenodd" d="M115.109 67.795C114.833 65.7478 114.279 63.7924 113.568 61.8557C112.886 59.9985 109.907 60.8011 110.596 62.681C111.308 64.6167 111.861 66.57 112.137 68.6203C112.25 69.4581 113.306 69.9032 114.032 69.7018C114.923 69.455 115.221 68.6327 115.109 67.795Z" 
    fill="white"/>
<path fill-rule="evenodd" clip-rule="evenodd" d="M109.459 57.2076C109.185 56.3823 108.909 55.557 108.534 54.773C108.17 54.0117 107.106 53.8165 106.426 54.2162C105.658 54.6686 105.508 55.5755 105.873 56.3358C105.944 56.4959 105.956 56.5155 105.91 56.3988C105.979 56.5641 106.04 56.7335 106.102 56.9029C106.24 57.2757 106.362 57.6548 106.487 58.0329C106.753 58.8324 107.54 59.3468 108.383 59.1144C109.16 58.8995 109.725 58.0091 109.459 57.2076Z" 
    fill="white"/>
<path fill-rule="evenodd" clip-rule="evenodd" d="M117.163 52.043C117.001 51.2146 116.031 50.7497 115.268 50.9615C114.414 51.198 114.029 52.0388 114.192 52.8683C114.434 54.0995 114.634 55.3297 114.651 56.5868C114.676 58.5835 117.758 58.5866 117.733 56.5868C117.712 55.0602 117.456 53.5387 117.163 52.043Z" 
    fill="white"/>
<path fill-rule="evenodd" clip-rule="evenodd" d="M120.759 64.6963C120.621 63.8627 119.609 63.4093 118.864 63.6148C117.991 63.8565 117.65 64.688 117.787 65.5216C118.035 67.0162 118.231 68.4975 118.246 70.0148C118.266 72.0125 121.347 72.0146 121.328 70.0148C121.309 68.2237 121.05 66.4616 120.759 64.6963Z" 
    fill="white"/>
<path fill-rule="evenodd" clip-rule="evenodd" d="M115.109 80.1903C115.051 80.0105 115.003 79.8287 114.959 79.6459C114.934 79.5395 114.912 79.4342 114.892 79.3267C114.895 79.3443 114.852 79.0582 114.84 79.0003C114.817 78.7906 114.806 78.5799 114.8 78.3682C114.799 78.2959 114.805 78.2246 114.808 78.1513C114.809 78.2215 114.836 77.9674 114.852 77.9168C115.4 75.9914 112.428 75.1754 111.88 77.0915C111.528 78.33 111.756 79.8081 112.137 81.0156C112.736 82.912 115.712 82.1012 115.109 80.1903Z" 
    fill="white"/>
<path fill-rule="evenodd" clip-rule="evenodd" d="M90.7666 20.4348V24.5665C90.7666 26.5652 93.8483 26.5652 93.8483 24.5665V20.4348C93.8483 18.4361 90.7666 18.4361 90.7666 20.4348Z" 
    fill="white"/>
<path fill-rule="evenodd" clip-rule="evenodd" d="M96.8753 20.2804C96.6822 19.4592 95.7679 18.981 94.98 19.1989C94.15 19.4293 93.7104 20.2845 93.9035 21.1057C94.0956 21.9145 94.1059 22.6262 94.1059 23.5331C94.1069 25.5318 97.1886 25.5318 97.1876 23.5331C97.1876 22.4351 97.129 21.3536 96.8753 20.2804Z" 
    fill="white"/>
<path fill-rule="evenodd" clip-rule="evenodd" d="M98.2147 20.6929C98.2147 21.8498 98.2229 23.0139 98.0133 24.1543C97.8603 24.9837 98.228 25.8225 99.0899 26.06C99.8459 26.2697 100.832 25.8101 100.984 24.9786C101.246 23.5562 101.295 22.1349 101.296 20.6929C101.297 18.6942 98.2157 18.6942 98.2147 20.6929Z" 
    fill="white"/>
<path fill-rule="evenodd" clip-rule="evenodd" d="M92.0511 29.2147C92.0511 30.543 92.0542 31.8765 91.8498 33.1925C91.7194 34.0261 92.0481 34.8565 92.9263 35.0982C93.6649 35.3038 94.6901 34.8524 94.8206 34.0168C95.0702 32.4168 95.1328 30.8312 95.1328 29.2147C95.1339 27.216 92.0522 27.216 92.0511 29.2147Z" 
    fill="white"/>
<path fill-rule="evenodd" clip-rule="evenodd" d="M71.7627 117.014V122.436C71.7627 124.435 74.8444 124.435 74.8444 122.436V117.014C74.8444 115.015 71.7627 115.015 71.7627 117.014Z" 
    fill="white"/>
<path fill-rule="evenodd" clip-rule="evenodd" d="M65.5996 121.662V125.277C65.5996 127.276 68.6813 127.276 68.6813 125.277V121.662C68.6813 119.663 65.5996 119.663 65.5996 121.662Z" 
    fill="white"/>
<path fill-rule="evenodd" clip-rule="evenodd" d="M72.2764 129.667V130.7C72.2764 132.699 75.3581 132.699 75.3581 130.7V129.667C75.3581 127.668 72.2764 127.668 72.2764 129.667Z" 
    fill="white"/>
<path fill-rule="evenodd" clip-rule="evenodd" d="M77.9268 121.145V124.76C77.9268 126.759 81.0085 126.759 81.0085 124.76V121.145C81.0085 119.146 77.9268 119.146 77.9268 121.145Z" 
    fill="white"/>
<path fill-rule="evenodd" clip-rule="evenodd" d="M86.3456 119.441C86.1813 118.613 85.2157 118.148 84.4504 118.36C83.5978 118.597 83.2095 119.438 83.3739 120.267C83.6029 121.416 83.8146 122.551 83.833 123.727C83.8628 125.724 86.9445 125.727 86.9147 123.727C86.8921 122.281 86.6261 120.857 86.3456 119.441Z" 
    fill="white"/>
<path fill-rule="evenodd" clip-rule="evenodd" d="M85.3186 130.545C85.0238 129.678 84.6375 128.875 84.1362 128.111C83.675 127.406 82.7813 127.11 82.0284 127.554C81.3329 127.963 81.0135 128.968 81.4757 129.674C81.6658 129.966 81.8486 130.261 82.014 130.568C82.0777 130.687 82.1331 130.81 82.1896 130.931C82.1968 130.952 82.2081 130.981 82.2359 131.052C82.2749 131.158 82.3119 131.263 82.3468 131.371C82.618 132.168 83.3956 132.686 84.242 132.452C85.0145 132.238 85.5908 131.346 85.3186 130.545Z" 
    fill="white"/>
<path fill-rule="evenodd" clip-rule="evenodd" d="M96.1048 123.057C95.8922 122.413 95.6631 121.766 95.6467 121.145C95.6231 120.301 94.9626 119.595 94.1059 119.595C93.283 119.595 92.5414 120.301 92.565 121.145C92.5897 122.094 92.8372 122.987 93.1331 123.882C93.3981 124.681 94.187 125.196 95.0283 124.963C95.8059 124.749 96.3699 123.859 96.1048 123.057Z" 
    fill="white"/>
<path fill-rule="evenodd" clip-rule="evenodd" d="M31.5972 67.4884C30.8586 67.2849 29.8303 67.7342 29.7019 68.5699C29.4287 70.3393 29.3907 72.1025 29.3896 73.8884C29.3896 75.8871 32.4713 75.8871 32.4713 73.8884C32.4724 72.3927 32.4446 70.8754 32.6727 69.3952C32.8021 68.5595 32.4754 67.7311 31.5972 67.4884Z" 
    fill="white"/>
<path fill-rule="evenodd" clip-rule="evenodd" d="M36.5249 67.0204C36.038 65.2872 35.6045 63.5653 35.81 61.7515C35.9045 60.9107 35.0365 60.2021 34.2691 60.2021C33.357 60.2021 32.8228 60.9138 32.7283 61.7515C32.4951 63.8132 32.9995 65.8749 33.5532 67.8457C34.0924 69.7639 37.0663 68.9479 36.5249 67.0204Z" 
    fill="white"/>
<path fill-rule="evenodd" clip-rule="evenodd" d="M40.8914 68.828C40.6839 68.1484 40.6901 67.5214 40.6901 66.6579C40.6891 64.6602 37.6074 64.6602 37.6084 66.6579C37.6084 67.6567 37.6259 68.6907 37.9196 69.6534C38.1662 70.459 38.988 70.9631 39.8159 70.7348C40.6069 70.5159 41.138 69.6358 40.8914 68.828Z" 
    fill="white"/>
<path fill-rule="evenodd" clip-rule="evenodd" d="M38.1833 73.5681C37.606 72.9865 36.5777 72.9493 36.0045 73.5681C35.5094 74.1021 35.1899 74.7187 34.927 75.3736C34.0107 74.9801 32.7133 75.4284 32.7277 76.7299C32.7472 78.3464 32.9865 79.9485 33.2967 81.5319C33.6809 83.4904 36.6507 82.6599 36.2685 80.7066C36.1083 79.8937 35.984 79.0829 35.9028 78.2658C36.6486 78.3464 37.3122 77.8619 37.5526 77.142C37.607 76.9767 37.6635 76.8115 37.72 76.6452C37.7128 76.6668 37.8196 76.3931 37.8381 76.3363C37.8998 76.202 37.9686 76.0729 38.0405 75.9459C38.0662 75.9014 38.0816 75.8705 38.0939 75.8488C38.1124 75.8322 38.1381 75.8085 38.1833 75.7589C38.7555 75.1422 38.7924 74.1806 38.1833 73.5681Z" 
    fill="white"/>
<path fill-rule="evenodd" clip-rule="evenodd" d="M38.1216 78.2787C38.1216 79.262 38.1401 80.2609 37.9202 81.2236C37.4754 83.1686 40.4462 83.9949 40.891 82.0479C41.1745 80.8104 41.2033 79.543 41.2033 78.2787C41.2033 76.28 38.1216 76.28 38.1216 78.2787Z" 
    fill="white"/>
<path fill-rule="evenodd" clip-rule="evenodd" d="M34.9842 110.662C34.5363 108.716 31.5656 109.542 32.0124 111.487C32.2158 112.37 32.2138 113.268 32.2148 114.173C32.2158 116.171 35.2975 116.171 35.2965 114.173C35.2955 112.991 35.2503 111.82 34.9842 110.662Z" 
    fill="white"/>
<path fill-rule="evenodd" clip-rule="evenodd" d="M40.6341 115.568C40.3834 114.203 40.3721 112.805 40.1205 111.436C39.9684 110.605 38.9823 110.145 38.2252 110.355C37.3644 110.593 36.9966 111.431 37.1487 112.262C37.4003 113.626 37.4106 115.025 37.6623 116.393C37.8153 117.225 38.8015 117.684 39.5586 117.475C40.4194 117.236 40.7861 116.398 40.6341 115.568Z" 
    fill="white"/>
<path fill-rule="evenodd" clip-rule="evenodd" d="M37.3503 25.3411C33.3092 25.873 34.2594 33.0725 34.2686 35.9286C34.2748 37.9273 37.3565 37.9273 37.3503 35.9286C37.3462 34.6157 37.3277 33.307 37.3657 31.9952C37.3893 31.1947 37.4335 30.3879 37.5506 29.5947C37.6009 29.2579 37.6821 28.9305 37.7694 28.602C37.8269 28.382 37.8855 28.289 37.9029 28.2622C39.2702 27.5546 39.1058 25.1097 37.3503 25.3411Z" 
    fill="white"/>
<path fill-rule="evenodd" clip-rule="evenodd" d="M43.9725 31.1262C43.7465 29.645 43.7711 28.1266 43.7711 26.6319C43.7701 24.6342 40.6884 24.6342 40.6895 26.6319C40.6895 28.4168 40.7316 30.1831 41.0007 31.9515C41.1281 32.7861 42.1584 33.2365 42.897 33.033C43.7763 32.7892 44.0999 31.9618 43.9725 31.1262Z" 
    fill="white"/>
<path fill-rule="evenodd" clip-rule="evenodd" d="M51.1638 24.2043C51.2912 23.3686 50.9676 22.5412 50.0883 22.2975C49.3507 22.094 48.3194 22.5443 48.192 23.3789C47.8982 25.3095 47.8982 27.1801 48.192 29.1107C48.3194 29.9463 49.3507 30.3956 50.0883 30.1921C50.9676 29.9494 51.2912 29.121 51.1638 28.2854C50.9614 26.9529 50.9614 25.5367 51.1638 24.2043Z" 
    fill="white"/>
<path fill-rule="evenodd" clip-rule="evenodd" d="M43.5144 40.0604C43.4918 38.0637 40.4101 38.0606 40.4327 40.0604C40.4492 41.5281 40.6731 42.9825 40.6895 44.4503C40.7121 46.4469 43.7938 46.45 43.7712 44.4503C43.7548 42.9825 43.5309 41.5281 43.5144 40.0604Z" 
    fill="white"/>
<path fill-rule="evenodd" clip-rule="evenodd" d="M63.7469 69.0862C63.523 67.8653 63.5456 66.6051 63.5456 65.3667C63.5445 63.369 60.4628 63.369 60.4639 65.3667C60.4639 66.8923 60.4988 68.4066 60.7751 69.9116C60.9282 70.7431 61.9143 71.2027 62.6714 70.993C63.5322 70.7544 63.8989 69.9167 63.7469 69.0862Z" 
    fill="white"/>
<path fill-rule="evenodd" clip-rule="evenodd" d="M74.8444 69.4988C74.5794 67.3472 74.339 65.1946 74.074 63.043C73.8326 61.0866 70.7478 61.0628 70.9923 63.043C71.2573 65.1946 71.4977 67.3472 71.7627 69.4988C72.0041 71.4551 75.0879 71.4789 74.8444 69.4988Z" 
    fill="white"/>
<path fill-rule="evenodd" clip-rule="evenodd" d="M81.8246 63.8107C81.461 63.0504 80.3967 62.8531 79.7167 63.2539C78.9494 63.7053 78.7994 64.6132 79.1641 65.3745C79.5154 66.1079 79.7095 66.8795 79.7239 67.6914C79.7588 69.687 82.8405 69.6901 82.8056 67.6914C82.782 66.3104 82.4183 65.0471 81.8246 63.8107Z" 
    fill="white"/>
<path fill-rule="evenodd" clip-rule="evenodd" d="M91.7389 67.2786C91.4945 66.4719 90.6706 65.9678 89.8437 66.1971C89.0517 66.4161 88.5227 67.2951 88.7672 68.1039C88.8946 68.5233 88.9182 68.7371 88.9428 69.1121C88.9747 69.5841 88.9695 70.0582 88.9695 70.5313C88.9706 72.53 92.0523 72.53 92.0512 70.5313C92.0512 69.4498 92.0564 68.325 91.7389 67.2786Z" 
    fill="white"/>
<path fill-rule="evenodd" clip-rule="evenodd" d="M112.027 109.112C111.799 107.658 111.741 106.181 111.513 104.722C111.382 103.887 110.357 103.436 109.618 103.641C108.74 103.884 108.411 104.713 108.541 105.548C108.769 107.002 108.828 108.479 109.055 109.938C109.185 110.772 110.21 111.224 110.95 111.019C111.828 110.776 112.157 109.947 112.027 109.112Z" 
    fill="white"/>
<path fill-rule="evenodd" clip-rule="evenodd" d="M120.502 101.365C120.2 100.578 119.477 100.043 118.606 100.284C117.858 100.49 117.227 101.4 117.53 102.191C117.962 103.317 118.228 104.442 118.246 105.651C118.274 107.648 121.355 107.651 121.328 105.651C121.306 104.178 121.029 102.739 120.502 101.365Z" 
    fill="white"/>
<path fill-rule="evenodd" clip-rule="evenodd" d="M110.596 91.8106C110.106 93.9074 110.028 96.0187 110.027 98.1621C110.026 100.161 113.108 100.161 113.109 98.1621C113.11 96.2935 113.142 94.4621 113.568 92.6359C114.021 90.6909 111.049 89.8656 110.596 91.8106Z" 
    fill="white"/>
</svg>
