<svg width="117" height="181" viewBox="0 0 117 181" fill="none" xmlns="http://www.w3.org/2000/svg">
<path fill-rule="evenodd" clip-rule="evenodd" d="M116.599 117.758C114.881 116.234 113.354 114.521 112.018 112.714C112.4 112.332 112.496 111.762 112.114 111.286C110.301 109.287 108.392 107.383 110.778 104.718C111.255 104.243 110.969 103.576 110.587 103.197C108.869 101.483 108.106 99.4839 106.579 97.7718C106.961 97.6757 107.438 97.5805 107.915 97.4863C108.869 97.3901 109.347 96.248 108.774 95.677C107.247 93.8687 106.102 92.5372 104.098 91.7759C106.77 88.6342 105.148 85.9693 100.568 84.8272C101.045 84.162 101.522 83.59 101.999 82.9238C102.667 82.1624 101.999 81.3068 101.14 81.1164C101.045 80.9251 100.949 80.7348 100.758 80.5444C101.14 79.7831 100.281 78.5458 98.9453 78.7371C96.6551 79.0217 94.5558 78.8313 92.361 78.4516C92.4565 77.9757 92.6473 77.4998 92.7427 76.9278C92.9336 75.9761 92.0748 75.2147 90.9297 75.406C89.9754 75.5964 89.0212 75.5002 87.9715 75.406C87.6852 75.2147 87.399 74.9302 87.1127 74.7389C87.2081 74.1688 87.2081 73.5968 87.399 73.0267C87.6852 72.1692 86.9218 71.503 85.9676 71.4078C84.0591 71.2174 82.1506 70.7416 80.2421 70.4561C80.2421 69.6956 80.2421 69.0285 80.0513 68.1719C79.9559 67.4105 79.1925 66.7443 78.1428 66.9346C76.616 67.3163 75.0892 67.2202 73.5624 67.2202C73.6579 66.3646 73.7533 65.4128 73.9441 64.5553C74.135 63.7939 73.6579 63.2238 72.8945 63.0335C73.0853 59.6063 72.8945 56.0858 72.799 52.7548C72.7036 45.3303 73.3716 37.7164 74.3258 30.2929C89.212 26.5821 92.5519 3.83468 75.5664 0.408437C67.9324 -1.11434 59.058 1.55052 56.5769 9.54508C54.1913 17.0647 58.9625 25.5342 64.4017 30.4832C64.5926 30.6745 64.7834 30.7688 64.9743 30.8649C65.6422 36.2888 64.7834 41.8098 64.4971 47.2337C64.3063 52.3731 64.4017 57.5134 64.4971 62.5576C64.02 62.5576 63.5429 62.6518 63.2566 62.9374C60.3939 65.4128 57.1495 65.7926 54.0005 63.5094C53.1416 62.8422 51.9011 63.1277 51.5194 64.0794C50.2789 66.9346 48.0842 66.2684 46.4619 65.3167C46.7482 62.8422 46.5574 60.2735 46.6528 58.7507C46.8436 54.1824 47.0345 49.2333 46.3665 44.665C52.5691 43.2374 55.7181 38.0029 54.1913 31.6263C52.1874 23.6317 43.7901 20.9659 36.6332 23.1558C29.7627 25.2487 28.3313 32.1021 30.5261 38.2884C31.5758 41.2388 35.1065 47.6144 39.2097 47.425C39.0189 54.5631 38.5417 61.7001 38.3509 68.8381C36.9195 68.5526 35.4882 68.1719 34.0568 67.7922C32.9117 67.5066 32.0529 68.3622 32.2437 69.2198C28.9039 69.5043 25.564 69.5995 22.3196 69.9802C21.0791 70.0754 20.0294 71.7894 21.5562 72.3595C23.4647 73.0267 25.3732 73.5026 27.2817 73.7871C26.9 74.0726 26.5183 74.3582 26.0412 74.5485C25.6595 74.4543 25.2778 74.4543 24.8961 74.6446C18.3118 77.3095 11.5367 79.6888 5.42951 83.0199C4.47526 83.59 4.37984 85.1137 5.8112 85.3031C8.29224 85.6838 10.6778 85.5896 13.0634 85.2079C8.67393 87.7786 4.66611 90.4425 2.75763 94.9166C2.28051 96.0587 3.90272 96.82 4.95239 96.3442C5.04781 96.2481 5.14323 96.2481 5.33408 96.1529C4.09357 98.2476 2.85305 100.341 1.51711 102.434C0.753718 103.673 2.75763 105.1 3.90272 103.958C4.28442 103.576 4.66611 103.386 5.04781 103.101C4.47527 105.194 4.37984 107.289 4.76154 109.477C4.85696 109.953 5.42951 110.335 6.00205 110.335C5.14323 112.332 3.99814 114.331 2.94848 116.331C2.47135 117.186 3.0439 118.138 4.09357 118.234C2.75763 121.089 1.32626 123.848 0.0857478 126.704C-0.391374 127.846 1.23084 128.607 2.28051 128.131C2.6622 127.942 3.0439 127.751 3.4256 127.655C3.0439 129.655 3.23475 131.653 3.33017 133.746C3.33017 134.984 4.85696 135.269 5.90663 134.604C6.28833 134.414 6.5746 134.222 6.9563 133.938C6.47917 135.935 6.38375 138.029 6.76545 140.124C6.86087 140.98 8.19681 141.266 8.96021 140.884C7.52884 143.74 5.8112 146.595 4.66611 149.545C4.28442 150.593 5.8112 151.449 6.86087 150.973C7.52884 150.687 8.19681 150.307 8.86478 150.021C8.00596 152.876 6.38375 155.636 5.33408 158.491C4.85696 159.729 6.76545 160.49 7.81511 159.729C8.10139 159.538 8.38766 159.253 8.76936 159.062C8.48308 160.395 8.29224 161.728 8.00596 163.06C7.71969 164.297 9.3419 165.154 10.487 164.297C10.6778 164.108 10.9641 163.917 11.2504 163.821C10.2961 165.821 9.62818 167.818 9.15105 170.104C8.96021 171.15 10.1053 172.577 11.2504 171.722C11.5367 171.531 11.7275 171.34 12.0138 171.246C11.9184 172.292 11.7275 173.339 11.5367 174.386C11.2504 175.718 12.8726 176.956 13.9223 175.814C14.3994 175.338 14.7811 174.862 15.2582 174.481V174.862C15.2582 175.908 16.4987 176.67 17.453 176.099C18.4072 175.528 19.3615 174.862 20.2203 174.195C20.2203 174.766 20.2203 175.338 20.1248 175.908C19.934 177.145 21.4608 178.573 22.5105 177.336C23.083 176.574 23.751 175.908 24.4189 175.242C25.6595 178.763 29.1902 179.621 31.4803 176.67C32.0529 177.812 32.6254 178.86 33.0071 180.001C33.4842 181.333 35.2019 181.333 35.7744 180.001C36.347 178.384 37.0149 176.86 37.5875 175.242C38.4463 176.48 39.496 177.621 40.5456 178.763C41.2136 179.525 42.7404 179.239 42.9313 178.097C43.0267 177.621 43.1221 177.242 43.2175 176.86C43.5038 177.432 43.6946 178.002 43.9809 178.573C44.3626 179.715 45.9848 180.097 46.5574 178.954C47.3208 177.621 47.9887 176.384 48.4659 175.147C49.611 176.004 50.9469 176.766 52.1874 177.621C53.0462 178.193 54.0005 177.526 54.2867 176.766C54.4776 176.29 54.6684 175.908 54.7639 175.432C55.7181 176.86 56.8632 178.097 58.39 179.049C58.9625 179.43 60.0122 179.239 60.3939 178.573C60.871 177.526 61.3481 176.574 61.7298 175.623C63.0658 176.766 64.4971 177.717 66.0239 178.669C66.7873 179.049 68.0278 178.763 68.1233 177.812C68.2187 176.956 68.4095 176.29 68.505 175.528C69.9363 177.145 71.5585 178.573 73.6579 179.621C74.5167 180.001 75.4709 179.715 75.7572 178.763C76.0435 177.717 76.4252 176.86 76.7114 175.908C77.952 177.336 79.5742 178.288 81.6735 178.763C82.6277 178.954 83.3911 178.288 83.4866 177.432C83.582 176.194 83.7728 175.147 83.8683 174.005C85.1088 175.053 86.4447 176.004 87.9715 176.766C88.8303 177.145 89.7846 176.86 90.0708 175.908C90.3571 174.862 90.6434 173.814 90.7388 172.863C91.9793 173.911 93.3153 174.766 94.9375 175.432C95.9872 175.908 96.9414 174.577 96.6551 173.719C96.6551 173.529 96.5597 173.339 96.5597 173.243C97.7048 174.101 98.9453 174.766 100.281 175.338C101.235 175.718 102.476 175.242 102.476 174.101C102.476 173.529 102.476 172.959 102.381 172.483C103.43 172.959 104.575 173.339 105.911 173.625C107.247 173.91 108.011 172.673 107.533 171.531C106.675 169.532 105.625 167.628 104.194 166.011V165.629C104.098 165.439 104.098 165.154 104.003 164.963C104.957 164.963 105.911 164.202 105.53 163.345C105.434 163.156 105.339 162.869 105.243 162.68C106.198 162.774 107.247 161.918 106.866 161.156C106.102 159.729 105.72 158.207 105.052 156.779C105.53 156.874 105.911 156.97 106.293 157.159C107.438 157.446 108.392 156.494 108.201 155.636C108.011 155.16 107.915 154.685 107.82 154.209C108.869 154.97 110.492 154.018 110.205 152.876L108.869 148.308C109.633 148.498 110.301 148.593 111.064 148.88C112.4 149.26 113.354 147.928 112.782 147.071C111.541 145.167 110.778 143.264 110.301 141.36C110.492 141.455 110.587 141.455 110.778 141.552C111.828 142.027 113.545 141.266 112.973 140.124C112.305 138.791 111.923 137.363 111.541 136.031C112.209 135.745 112.496 134.889 112.114 134.222C111.35 132.986 111.064 131.749 110.682 130.415C111.446 130.225 111.923 129.655 111.637 128.988C111.064 127.846 110.682 126.608 110.396 125.466C110.778 125.657 111.064 125.752 111.446 125.942C112.591 126.418 114.022 125.657 113.641 124.515C113.068 122.611 112.305 120.804 111.446 118.994C112.591 119.28 113.736 119.756 114.786 120.328C116.217 120.613 117.744 118.804 116.599 117.758Z" fill="#263958"/>
<path fill-rule="evenodd" clip-rule="evenodd" d="M78.5241 145.643C71.8444 151.925 62.4928 154.59 53.4275 154.685C43.6942 154.78 33.8655 151.069 29.7623 141.456C27.4721 136.032 25.3728 126.228 29.3806 120.898C29.476 120.232 30.2394 119.662 30.9074 119.756C31.4799 119.756 32.0525 120.138 32.2433 120.708C32.7624 121.225 33.3063 121.698 33.8608 122.147C34.1318 122.179 34.4028 122.29 34.6289 122.517C35.0373 122.932 35.5011 123.305 35.9897 123.66C38.0251 124.932 40.2265 125.851 42.5262 126.492C47.3127 127.696 52.8807 127.866 57.2445 127.751C57.7216 127.56 58.1987 127.56 58.5804 127.751C58.9621 127.655 59.3438 127.655 59.7255 127.655C60.112 127.63 60.4965 127.594 60.882 127.558C63.9623 127.219 67.6868 126.494 71.1755 125.265C71.4951 125.144 71.8148 125.026 72.1307 124.896C73.2013 124.469 74.3331 123.867 75.4905 123.365C78.0727 121.96 80.2198 120.181 81.3868 117.949C82.1502 116.425 84.2495 116.807 84.1541 118.328C84.2495 118.424 84.2495 118.519 84.345 118.614C87.9711 127.179 85.4901 139.267 78.5241 145.643Z" fill="#7AC7C4"/>
<path fill-rule="evenodd" clip-rule="evenodd" d="M98.1822 132.414C97.5142 130.131 96.8462 127.942 97.1325 125.657C97.3234 123.848 100.186 123.848 99.9952 125.657C99.709 127.752 100.282 129.655 100.854 131.653C101.331 133.462 98.5639 134.222 98.1822 132.414Z" fill="white"/>
<path fill-rule="evenodd" clip-rule="evenodd" d="M93.0287 142.598C92.0744 144.216 89.5934 142.788 90.5476 141.17C90.9293 140.504 90.9293 139.839 90.7385 139.076C90.1659 137.269 92.9332 136.602 93.5058 138.315C93.9829 139.742 93.8875 141.36 93.0287 142.598Z" fill="white"/>
<path fill-rule="evenodd" clip-rule="evenodd" d="M87.2083 104.814C87.4946 102.339 87.7809 99.9599 87.4946 97.4863C87.3038 95.6771 90.1665 95.6771 90.3574 97.4863C90.6436 99.8657 90.3574 102.339 90.0711 104.814C89.8802 106.622 87.0175 106.622 87.2083 104.814Z" fill="white"/>
<path fill-rule="evenodd" clip-rule="evenodd" d="M85.8717 163.536C85.8717 162.394 85.5855 161.442 85.2992 160.395C84.8221 158.587 87.5894 157.825 88.0665 159.635C88.4482 160.871 88.7345 162.108 88.7345 163.536C88.7345 165.345 85.8717 165.345 85.8717 163.536Z" fill="white"/>
<path fill-rule="evenodd" clip-rule="evenodd" d="M79.7652 157.54C79.2881 158.016 78.2384 158.111 77.7613 157.54C77.475 157.159 77.3796 156.874 77.1888 156.494C77.1888 156.303 77.0933 156.207 77.0933 156.112C76.7116 155.542 76.6162 154.78 77.1888 154.209C77.6659 153.733 78.7155 153.639 79.1927 154.209C79.4789 154.59 79.5744 154.876 79.7652 155.256C79.7652 155.352 79.7652 155.542 79.8606 155.636C80.3378 156.207 80.3378 156.97 79.7652 157.54Z" fill="white"/>
<path fill-rule="evenodd" clip-rule="evenodd" d="M62.1122 167.057C61.8259 165.535 61.8259 164.012 61.4442 162.584C61.0625 160.777 63.8299 160.014 64.2116 161.823C64.5933 163.345 64.5933 164.869 64.8795 166.297C65.2612 168.009 62.4939 168.866 62.1122 167.057Z" fill="white"/>
<path fill-rule="evenodd" clip-rule="evenodd" d="M35.0111 165.059C35.0111 163.25 35.0111 161.538 34.7248 159.729C34.4386 157.921 37.2059 157.159 37.4921 158.967C37.8738 160.966 37.8738 162.966 37.8738 165.059C37.8738 166.867 35.0111 166.867 35.0111 165.059Z" fill="white"/>
<path fill-rule="evenodd" clip-rule="evenodd" d="M24.5148 94.5349C24.5148 93.4889 24.7057 92.3459 24.8965 91.2999C24.992 90.7279 25.0874 90.1578 25.0874 89.5858V89.4907C24.1332 89.0148 23.656 87.5872 24.8965 87.0171C29.5723 85.1137 27.473 92.6314 27.3776 94.5349C27.3776 96.3441 24.5148 96.3441 24.5148 94.5349Z" fill="white"/>
<path fill-rule="evenodd" clip-rule="evenodd" d="M41.6904 102.245C41.9767 104.434 42.0721 106.717 42.3584 108.907C42.6447 110.714 39.6865 110.714 39.4957 108.907C39.2094 106.717 39.114 104.434 38.8277 102.245C38.5414 100.436 41.4042 100.436 41.6904 102.245Z" fill="white"/>
<path fill-rule="evenodd" clip-rule="evenodd" d="M39.4004 29.723C39.4958 29.6269 39.4958 29.5317 39.5912 29.4375C40.3546 28.58 41.4997 28.9616 42.0722 29.723C42.1677 29.8172 42.1677 29.9133 42.2631 30.0076C42.3585 30.1027 42.4539 30.1027 42.5494 30.1989C43.1219 30.5786 43.3128 31.1506 43.2173 31.7207C43.7899 32.9579 43.7899 34.2904 43.4082 35.718C43.3128 35.9093 43.3128 36.0996 43.2173 36.289V36.4794C43.2173 36.6697 43.1219 36.861 42.9311 37.0513C42.1677 38.2886 41.0226 39.4307 39.4958 38.8587C35.7742 37.6214 36.5376 31.0545 39.4004 29.723Z" fill="white"/>
<path fill-rule="evenodd" clip-rule="evenodd" d="M45.5075 84.7319C45.7937 86.3508 45.8892 87.8727 45.8892 89.5858C45.8892 91.3941 43.0264 91.3941 43.0264 89.5858C43.0264 88.1582 43.0264 86.8267 42.7402 85.4933C42.4539 83.686 45.1258 82.9236 45.5075 84.7319Z" fill="white"/>
<path fill-rule="evenodd" clip-rule="evenodd" d="M59.7255 100.912C60.0118 102.815 60.1072 104.719 60.3935 106.622C60.6798 108.431 57.9125 109.193 57.6262 107.383C57.3399 105.48 57.2445 103.576 56.9582 101.673C56.672 99.8657 59.4393 99.1033 59.7255 100.912Z" fill="white"/>
<path fill-rule="evenodd" clip-rule="evenodd" d="M66.596 88.6341C66.8823 85.875 66.8823 83.1141 66.8823 80.355C66.8823 78.5457 69.745 78.5457 69.745 80.355C69.745 83.1141 69.745 85.875 69.4588 88.6341C69.2679 90.4424 66.4052 90.4424 66.596 88.6341Z" fill="white"/>
<path fill-rule="evenodd" clip-rule="evenodd" d="M72.2261 112.714C72.2261 114.522 69.3634 114.522 69.3634 112.714C69.3634 111.287 69.3634 109.953 69.0771 108.621C68.7908 106.814 71.4627 106.052 71.8444 107.859C72.2261 109.477 72.2261 111.096 72.2261 112.714Z" fill="white"/>
<path fill-rule="evenodd" clip-rule="evenodd" d="M69.5547 11.4487C69.6501 11.3544 69.6501 11.2583 69.7455 11.1641C70.5089 10.3066 71.654 10.6882 72.2265 11.4487C72.322 11.5438 72.322 11.64 72.4174 11.7342C72.5128 11.8303 72.6082 11.8303 72.7037 11.9245C73.2762 12.3062 73.467 12.8763 73.3716 13.4473C73.8487 14.6855 73.9442 16.017 73.5625 17.4446C73.467 17.6349 73.467 17.8262 73.3716 18.0166V18.206C73.3716 18.3963 73.2762 18.5867 73.0854 18.778C72.322 20.0143 71.1769 21.1573 69.6501 20.5853C65.9285 19.3481 66.6919 12.782 69.5547 11.4487Z" fill="white"/>
<path fill-rule="evenodd" clip-rule="evenodd" d="M22.3198 140.314C22.3198 142.122 19.457 142.122 19.457 140.314V136.507C19.457 134.698 22.3198 134.698 22.3198 136.507V140.314Z" fill="white"/>
<path fill-rule="evenodd" clip-rule="evenodd" d="M19.362 161.252C18.9803 163.06 16.3084 162.298 16.5947 160.49C16.8809 159.062 16.8809 157.635 16.5947 156.207C16.3084 154.4 19.0757 153.639 19.362 155.446C19.7437 157.445 19.7437 159.349 19.362 161.252Z" fill="white"/>
<path fill-rule="evenodd" clip-rule="evenodd" d="M14.6859 117.853C14.6859 116.139 14.6859 114.427 14.3996 112.808C14.1134 111 16.8807 110.239 17.1669 112.048C17.5486 113.951 17.5486 115.855 17.5486 117.853C17.5486 119.662 14.6859 119.662 14.6859 117.853Z" fill="white"/>
<path fill-rule="evenodd" clip-rule="evenodd" d="M33.0068 122.326C32.3388 122.421 31.6708 122.802 31.5754 123.658C31.3846 125.752 30.3349 127.656 29.4761 129.559C29.0944 130.416 29.3807 131.367 30.3349 131.653C32.6251 132.414 35.297 132.605 37.2055 134.127C38.0643 134.794 39.3048 134.603 39.5911 133.461C40.0682 131.843 40.7361 130.416 41.4995 128.988C42.0721 129.083 42.6446 129.274 43.2172 129.369C43.0263 130.796 42.3584 132.224 41.9767 133.652C41.7858 134.508 42.4538 135.46 43.3126 135.46C46.6525 135.269 49.8969 136.126 53.2367 136.412C53.8093 136.507 54.4772 135.936 54.5727 135.365C54.9544 133.747 55.1452 132.034 55.3361 130.416H56.3857H56.4812C56.5766 132.034 56.4812 133.652 56.4812 135.269C56.4812 136.031 57.1491 136.697 57.9125 136.697C60.9661 136.697 64.6876 136.697 67.3595 135.174C68.1229 134.698 68.6 133.842 68.5046 132.89C68.4092 131.558 68.1229 130.32 68.0275 128.988C68.1229 128.988 68.3138 128.893 68.4092 128.893C68.5046 130.511 69.268 132.224 69.6497 133.461C69.936 134.318 70.604 134.603 71.3673 134.413C74.5163 133.937 77.3791 132.319 80.3372 131.082C81.4823 130.987 81.9594 130.32 81.7686 129.559C81.2915 127.751 81.2915 125.657 80.1464 124.134L80.051 124.039C80.051 123.182 79.2876 122.326 78.2379 122.516C77.3161 122.642 76.3962 122.973 75.4906 123.365C74.1451 124.096 72.688 124.731 71.1765 125.265C67.8939 126.506 64.4281 127.235 60.8821 127.559C60.1035 127.645 59.3553 127.713 58.6759 127.751C53.3856 128.026 47.7174 127.942 42.5273 126.493C40.0396 125.867 37.7723 124.956 35.9897 123.659C35.2578 123.202 34.546 122.702 33.8608 122.147C33.5602 122.111 33.2577 122.176 33.0068 122.326Z" fill="white"/>
</svg>
