<svg width="117" height="182" viewBox="0 0 117 182" fill="none" xmlns="http://www.w3.org/2000/svg">
<path fill-rule="evenodd" clip-rule="evenodd" d="M116.599 118.205C114.881 116.681 113.354 114.968 112.018 113.161C112.4 112.779 112.496 112.209 112.114 111.733C110.301 109.734 108.392 107.83 110.778 105.165C111.255 104.689 110.969 104.023 110.587 103.643C108.869 101.929 108.106 99.9307 106.579 98.2186C106.961 98.1224 107.438 98.0273 107.915 97.933C108.869 97.8369 109.347 96.6948 108.774 96.1238C107.247 94.3155 106.102 92.984 104.098 92.2226C106.77 89.081 105.148 86.4161 100.568 85.274C101.045 84.6088 101.522 84.0368 101.999 83.3706C102.667 82.6092 101.999 81.7536 101.14 81.5632C101.045 81.3719 100.949 81.1816 100.758 80.9912C101.14 80.2298 100.281 78.9926 98.9453 79.1839C96.6551 79.4684 94.5558 79.2781 92.361 78.8984C92.4565 78.4225 92.6473 77.9466 92.7427 77.3746C92.9336 76.4229 92.0748 75.6615 90.9297 75.8528C89.9754 76.0432 89.0212 75.947 87.9715 75.8528C87.6852 75.6615 87.399 75.3769 87.1127 75.1856C87.2081 74.6156 87.2081 74.0436 87.399 73.4735C87.6852 72.616 86.9218 71.9497 85.9676 71.8546C84.0591 71.6642 82.1506 71.1884 80.2421 70.9028C80.2421 70.1424 80.2421 69.4752 80.0513 68.6187C79.9559 67.8573 79.1925 67.1911 78.1428 67.3814C76.616 67.7631 75.0892 67.6669 73.5624 67.6669C73.6579 66.8113 73.7533 65.8596 73.9441 65.0021C74.135 64.2407 73.6579 63.6706 72.8945 63.4803C73.0853 60.0531 72.8945 56.5326 72.799 53.2015C72.7036 45.7771 73.3716 38.1632 74.3258 30.7397C89.212 27.0288 92.5519 4.28146 75.5664 0.855214C67.9324 -0.66756 59.058 1.99729 56.5769 9.99186C54.1913 17.5115 58.9625 25.981 64.4017 30.93C64.5926 31.1213 64.7834 31.2155 64.9743 31.3117C65.6422 36.7356 64.7834 42.2566 64.4971 47.6805C64.3063 52.8199 64.4017 57.9602 64.4971 63.0044C64.02 63.0044 63.5429 63.0986 63.2566 63.3841C60.3939 65.8596 57.1495 66.2393 54.0005 63.9561C53.1416 63.289 51.9011 63.5745 51.5194 64.5262C50.2789 67.3814 48.0842 66.7152 46.4619 65.7635C46.7482 63.289 46.5574 60.7202 46.6528 59.1975C46.8436 54.6291 47.0345 49.6801 46.3665 45.1118C52.5691 43.6842 55.7181 38.4497 54.1913 32.073C52.1874 24.0785 43.7901 21.4127 36.6332 23.6026C29.7627 25.6955 28.3313 32.5489 30.5261 38.7352C31.5758 41.6856 35.1065 48.0612 39.2097 47.8718C39.0189 55.0098 38.5417 62.1469 38.3509 69.2849C36.9195 68.9994 35.4882 68.6187 34.0568 68.2389C32.9117 67.9534 32.0529 68.809 32.2437 69.6665C28.9039 69.9511 25.564 70.0463 22.3196 70.427C21.0791 70.5221 20.0294 72.2362 21.5562 72.8063C23.4647 73.4735 25.3732 73.9493 27.2817 74.2339C26.9 74.5194 26.5183 74.8049 26.0412 74.9953C25.6595 74.9011 25.2778 74.9011 24.8961 75.0914C18.3118 77.7563 11.5367 80.1356 5.42951 83.4667C4.47526 84.0368 4.37984 85.5605 5.8112 85.7499C8.29224 86.1306 10.6778 86.0364 13.0634 85.6547C8.67393 88.2253 4.66611 90.8893 2.75763 95.3634C2.28051 96.5054 3.90272 97.2668 4.95239 96.791C5.04781 96.6948 5.14323 96.6948 5.33408 96.5997C4.09357 98.6944 2.85305 100.788 1.51711 102.881C0.753718 104.119 2.75763 105.547 3.90272 104.405C4.28442 104.023 4.66611 103.833 5.04781 103.547C4.47527 105.641 4.37984 107.736 4.76154 109.924C4.85696 110.4 5.42951 110.781 6.00205 110.781C5.14323 112.779 3.99814 114.778 2.94848 116.777C2.47135 117.633 3.0439 118.585 4.09357 118.681C2.75763 121.536 1.32626 124.295 0.0857478 127.15C-0.391374 128.292 1.23084 129.054 2.28051 128.578C2.6622 128.389 3.0439 128.198 3.4256 128.102C3.0439 130.102 3.23475 132.099 3.33017 134.193C3.33017 135.43 4.85696 135.716 5.90663 135.051C6.28833 134.86 6.5746 134.669 6.9563 134.384C6.47917 136.382 6.38375 138.476 6.76545 140.571C6.86087 141.426 8.19681 141.713 8.96021 141.331C7.52884 144.186 5.8112 147.042 4.66611 149.992C4.28442 151.04 5.8112 151.895 6.86087 151.42C7.52884 151.134 8.19681 150.754 8.86478 150.468C8.00596 153.323 6.38375 156.083 5.33408 158.938C4.85696 160.175 6.76545 160.937 7.81511 160.175C8.10139 159.985 8.38766 159.7 8.76936 159.509C8.48308 160.842 8.29224 162.175 8.00596 163.507C7.71969 164.744 9.3419 165.6 10.487 164.744C10.6778 164.554 10.9641 164.364 11.2504 164.268C10.2961 166.268 9.62818 168.265 9.15105 170.55C8.96021 171.596 10.1053 173.024 11.2504 172.168C11.5367 171.978 11.7275 171.787 12.0138 171.692C11.9184 172.738 11.7275 173.785 11.5367 174.833C11.2504 176.165 12.8726 177.403 13.9223 176.261C14.3994 175.785 14.7811 175.309 15.2582 174.927V175.309C15.2582 176.355 16.4987 177.116 17.453 176.545C18.4072 175.975 19.3615 175.309 20.2203 174.642C20.2203 175.213 20.2203 175.785 20.1248 176.355C19.934 177.592 21.4608 179.02 22.5105 177.783C23.083 177.021 23.751 176.355 24.4189 175.689C25.6595 179.21 29.1902 180.068 31.4803 177.116C32.0529 178.258 32.6254 179.306 33.0071 180.447C33.4842 181.78 35.2019 181.78 35.7744 180.447C36.347 178.83 37.0149 177.307 37.5875 175.689C38.4463 176.927 39.496 178.068 40.5456 179.21C41.2136 179.972 42.7404 179.686 42.9313 178.544C43.0267 178.068 43.1221 177.688 43.2175 177.307C43.5038 177.879 43.6946 178.449 43.9809 179.02C44.3626 180.162 45.9848 180.544 46.5574 179.4C47.3208 178.068 47.9887 176.831 48.4659 175.594C49.611 176.451 50.9469 177.212 52.1874 178.068C53.0462 178.64 54.0005 177.973 54.2867 177.212C54.4776 176.737 54.6684 176.355 54.7639 175.879C55.7181 177.307 56.8632 178.544 58.39 179.496C58.9625 179.876 60.0122 179.686 60.3939 179.02C60.871 177.973 61.3481 177.021 61.7298 176.069C63.0658 177.212 64.4971 178.164 66.0239 179.116C66.7873 179.496 68.0278 179.21 68.1233 178.258C68.2187 177.403 68.4095 176.737 68.505 175.975C69.9363 177.592 71.5585 179.02 73.6579 180.068C74.5167 180.447 75.4709 180.162 75.7572 179.21C76.0435 178.164 76.4252 177.307 76.7114 176.355C77.952 177.783 79.5742 178.734 81.6735 179.21C82.6277 179.4 83.3911 178.734 83.4866 177.879C83.582 176.64 83.7728 175.594 83.8683 174.451C85.1088 175.499 86.4447 176.451 87.9715 177.212C88.8303 177.592 89.7846 177.307 90.0708 176.355C90.3571 175.309 90.6434 174.261 90.7388 173.309C91.9793 174.357 93.3153 175.213 94.9375 175.879C95.9872 176.355 96.9414 175.023 96.6551 174.166C96.6551 173.976 96.5597 173.785 96.5597 173.69C97.7048 174.548 98.9453 175.213 100.281 175.785C101.235 176.165 102.476 175.689 102.476 174.548C102.476 173.976 102.476 173.406 102.381 172.93C103.43 173.406 104.575 173.785 105.911 174.072C107.247 174.357 108.011 173.12 107.533 171.978C106.675 169.978 105.625 168.075 104.194 166.458V166.076C104.098 165.886 104.098 165.6 104.003 165.41C104.957 165.41 105.911 164.649 105.53 163.792C105.434 163.603 105.339 163.316 105.243 163.127C106.198 163.221 107.247 162.364 106.866 161.603C106.102 160.175 105.72 158.654 105.052 157.226C105.53 157.32 105.911 157.416 106.293 157.606C107.438 157.892 108.392 156.941 108.201 156.083C108.011 155.607 107.915 155.131 107.82 154.655C108.869 155.417 110.492 154.465 110.205 153.323L108.869 148.755C109.633 148.945 110.301 149.04 111.064 149.327C112.4 149.706 113.354 148.375 112.782 147.517C111.541 145.614 110.778 143.71 110.301 141.807C110.492 141.902 110.587 141.902 110.778 141.998C111.828 142.474 113.545 141.713 112.973 140.571C112.305 139.237 111.923 137.81 111.541 136.478C112.209 136.192 112.496 135.336 112.114 134.669C111.35 133.433 111.064 132.195 110.682 130.862C111.446 130.672 111.923 130.102 111.637 129.434C111.064 128.292 110.682 127.055 110.396 125.913C110.778 126.103 111.064 126.199 111.446 126.389C112.591 126.865 114.022 126.103 113.641 124.961C113.068 123.058 112.305 121.251 111.446 119.441C112.591 119.727 113.736 120.203 114.786 120.775C116.217 121.06 117.744 119.251 116.599 118.205Z" fill="white"/>
<path fill-rule="evenodd" clip-rule="evenodd" d="M78.5241 146.09C71.8444 152.371 62.4928 155.037 53.4275 155.131C43.6942 155.227 33.8655 151.516 29.7623 141.902C27.4721 136.478 25.3728 126.675 29.3806 121.345C29.476 120.679 30.2394 120.109 30.9074 120.203C31.4799 120.203 32.0525 120.584 32.2433 121.154C32.7624 121.672 33.3063 122.144 33.8608 122.594C34.1318 122.626 34.4028 122.737 34.6289 122.964C35.0373 123.379 35.5011 123.752 35.9897 124.107C38.0251 125.379 40.2265 126.298 42.5262 126.939C47.3127 128.143 52.8807 128.312 57.2445 128.198C57.7216 128.007 58.1987 128.007 58.5804 128.198C58.9621 128.102 59.3438 128.102 59.7255 128.102C60.112 128.076 60.4965 128.041 60.882 128.005C63.9623 127.665 67.6868 126.941 71.1755 125.711C71.4951 125.591 71.8148 125.473 72.1307 125.343C73.2013 124.916 74.3331 124.313 75.4905 123.812C78.0727 122.407 80.2198 120.628 81.3868 118.395C82.1502 116.872 84.2495 117.253 84.1541 118.775C84.2495 118.871 84.2495 118.965 84.345 119.061C87.9711 127.626 85.4901 139.713 78.5241 146.09Z" fill="#3B3734"/>
<path fill-rule="evenodd" clip-rule="evenodd" d="M98.1822 132.861C97.5142 130.577 96.8462 128.388 97.1325 126.103C97.3234 124.295 100.186 124.295 99.9952 126.103C99.709 128.198 100.282 130.102 100.854 132.099C101.331 133.908 98.5639 134.669 98.1822 132.861Z" fill="#3B3734"/>
<path fill-rule="evenodd" clip-rule="evenodd" d="M93.0287 143.044C92.0744 144.662 89.5934 143.235 90.5476 141.617C90.9293 140.95 90.9293 140.285 90.7385 139.523C90.1659 137.715 92.9332 137.048 93.5058 138.761C93.9829 140.189 93.8875 141.807 93.0287 143.044Z" fill="#3B3734"/>
<path fill-rule="evenodd" clip-rule="evenodd" d="M87.2083 105.261C87.4946 102.786 87.7809 100.407 87.4946 97.9331C87.3038 96.1239 90.1665 96.1239 90.3574 97.9331C90.6436 100.312 90.3574 102.786 90.0711 105.261C89.8802 107.069 87.0175 107.069 87.2083 105.261Z" fill="#3B3734"/>
<path fill-rule="evenodd" clip-rule="evenodd" d="M85.8717 163.982C85.8717 162.84 85.5855 161.888 85.2992 160.842C84.8221 159.033 87.5894 158.272 88.0665 160.081C88.4482 161.317 88.7345 162.555 88.7345 163.982C88.7345 165.791 85.8717 165.791 85.8717 163.982Z" fill="#3B3734"/>
<path fill-rule="evenodd" clip-rule="evenodd" d="M79.7652 157.987C79.2881 158.462 78.2384 158.558 77.7613 157.987C77.475 157.606 77.3796 157.32 77.1888 156.941C77.1888 156.75 77.0933 156.654 77.0933 156.559C76.7116 155.989 76.6162 155.227 77.1888 154.655C77.6659 154.18 78.7155 154.085 79.1927 154.655C79.4789 155.037 79.5744 155.323 79.7652 155.702C79.7652 155.799 79.7652 155.989 79.8606 156.083C80.3378 156.654 80.3378 157.416 79.7652 157.987Z" fill="#3B3734"/>
<path fill-rule="evenodd" clip-rule="evenodd" d="M62.1122 167.504C61.8259 165.982 61.8259 164.458 61.4442 163.031C61.0625 161.223 63.8299 160.461 64.2116 162.269C64.5933 163.792 64.5933 165.316 64.8795 166.743C65.2612 168.456 62.4939 169.313 62.1122 167.504Z" fill="#3B3734"/>
<path fill-rule="evenodd" clip-rule="evenodd" d="M35.0111 165.506C35.0111 163.697 35.0111 161.985 34.7248 160.175C34.4386 158.368 37.2059 157.606 37.4921 159.414C37.8738 161.413 37.8738 163.412 37.8738 165.506C37.8738 167.313 35.0111 167.313 35.0111 165.506Z" fill="#3B3734"/>
<path fill-rule="evenodd" clip-rule="evenodd" d="M24.5148 94.9816C24.5148 93.9357 24.7057 92.7927 24.8965 91.7467C24.992 91.1747 25.0874 90.6046 25.0874 90.0326V89.9375C24.1332 89.4616 23.656 88.034 24.8965 87.4639C29.5723 85.5604 27.473 93.0782 27.3776 94.9816C27.3776 96.7909 24.5148 96.7909 24.5148 94.9816Z" fill="#3B3734"/>
<path fill-rule="evenodd" clip-rule="evenodd" d="M41.6904 102.692C41.9767 104.881 42.0721 107.164 42.3584 109.354C42.6447 111.161 39.6865 111.161 39.4957 109.354C39.2094 107.164 39.114 104.881 38.8277 102.692C38.5414 100.882 41.4042 100.882 41.6904 102.692Z" fill="#3B3734"/>
<path fill-rule="evenodd" clip-rule="evenodd" d="M39.4004 30.1698C39.4958 30.0736 39.4958 29.9785 39.5912 29.8843C40.3546 29.0267 41.4997 29.4084 42.0722 30.1698C42.1677 30.264 42.1677 30.3601 42.2631 30.4543C42.3585 30.5495 42.4539 30.5495 42.5494 30.6456C43.1219 31.0254 43.3128 31.5974 43.2173 32.1675C43.7899 33.4047 43.7899 34.7371 43.4082 36.1647C43.3128 36.356 43.3128 36.5464 43.2173 36.7358V36.9261C43.2173 37.1165 43.1219 37.3078 42.9311 37.4981C42.1677 38.7354 41.0226 39.8775 39.4958 39.3055C35.7742 38.0682 36.5376 31.5012 39.4004 30.1698Z" fill="#3B3734"/>
<path fill-rule="evenodd" clip-rule="evenodd" d="M45.5075 85.1787C45.7937 86.7976 45.8892 88.3194 45.8892 90.0326C45.8892 91.8409 43.0264 91.8409 43.0264 90.0326C43.0264 88.605 43.0264 87.2735 42.7402 85.9401C42.4539 84.1328 45.1258 83.3704 45.5075 85.1787Z" fill="#3B3734"/>
<path fill-rule="evenodd" clip-rule="evenodd" d="M59.7255 101.358C60.0118 103.262 60.1072 105.165 60.3935 107.069C60.6798 108.878 57.9125 109.639 57.6262 107.83C57.3399 105.926 57.2445 104.023 56.9582 102.12C56.672 100.312 59.4393 99.5499 59.7255 101.358Z" fill="#3B3734"/>
<path fill-rule="evenodd" clip-rule="evenodd" d="M66.596 89.0809C66.8823 86.3218 66.8823 83.5608 66.8823 80.8018C66.8823 78.9925 69.745 78.9925 69.745 80.8018C69.745 83.5608 69.745 86.3218 69.4588 89.0809C69.2679 90.8892 66.4052 90.8892 66.596 89.0809Z" fill="#3B3734"/>
<path fill-rule="evenodd" clip-rule="evenodd" d="M72.2261 113.161C72.2261 114.968 69.3634 114.968 69.3634 113.161C69.3634 111.733 69.3634 110.4 69.0771 109.067C68.7908 107.26 71.4627 106.499 71.8444 108.306C72.2261 109.924 72.2261 111.543 72.2261 113.161Z" fill="#3B3734"/>
<path fill-rule="evenodd" clip-rule="evenodd" d="M69.5547 11.8954C69.6501 11.8012 69.6501 11.7051 69.7455 11.6109C70.5089 10.7534 71.654 11.135 72.2265 11.8954C72.322 11.9906 72.322 12.0867 72.4174 12.181C72.5128 12.2771 72.6082 12.2771 72.7037 12.3713C73.2762 12.753 73.467 13.323 73.3716 13.8941C73.8487 15.1323 73.9442 16.4638 73.5625 17.8914C73.467 18.0817 73.467 18.273 73.3716 18.4634V18.6528C73.3716 18.8431 73.2762 19.0334 73.0854 19.2247C72.322 20.4611 71.1769 21.6041 69.6501 21.0321C65.9285 19.7948 66.6919 13.2288 69.5547 11.8954Z" fill="#3B3734"/>
<path fill-rule="evenodd" clip-rule="evenodd" d="M22.3198 140.761C22.3198 142.568 19.457 142.568 19.457 140.761V136.954C19.457 135.145 22.3198 135.145 22.3198 136.954V140.761Z" fill="#3B3734"/>
<path fill-rule="evenodd" clip-rule="evenodd" d="M19.362 161.699C18.9803 163.507 16.3084 162.745 16.5947 160.937C16.8809 159.509 16.8809 158.082 16.5947 156.654C16.3084 154.847 19.0757 154.085 19.362 155.893C19.7437 157.892 19.7437 159.796 19.362 161.699Z" fill="#3B3734"/>
<path fill-rule="evenodd" clip-rule="evenodd" d="M14.6859 118.299C14.6859 116.586 14.6859 114.874 14.3996 113.255C14.1134 111.447 16.8807 110.685 17.1669 112.495C17.5486 114.398 17.5486 116.302 17.5486 118.299C17.5486 120.109 14.6859 120.109 14.6859 118.299Z" fill="#3B3734"/>
<path fill-rule="evenodd" clip-rule="evenodd" d="M33.0068 121.946C32.3388 122.041 31.6708 122.422 31.5754 123.279C31.3846 125.372 30.3349 127.276 29.4761 129.179C29.0944 130.036 29.3807 130.988 30.3349 131.273C32.6251 132.035 35.297 132.225 37.2055 133.748C38.0643 134.414 39.3048 134.224 39.5911 133.082C40.0682 131.464 40.7361 130.036 41.4995 128.608C42.0721 128.704 42.6446 128.894 43.2172 128.989C43.0263 130.417 42.3584 131.844 41.9767 133.272C41.7858 134.128 42.4538 135.08 43.3126 135.08C46.6525 134.89 49.8969 135.746 53.2367 136.032C53.8093 136.127 54.4772 135.556 54.5727 134.985C54.9544 133.367 55.1452 131.654 55.3361 130.036H56.3857H56.4812C56.5766 131.654 56.4812 133.272 56.4812 134.89C56.4812 135.651 57.1491 136.317 57.9125 136.317C60.9661 136.317 64.6876 136.317 67.3595 134.795C68.1229 134.319 68.6 133.462 68.5046 132.51C68.4092 131.178 68.1229 129.941 68.0275 128.608C68.1229 128.608 68.3138 128.513 68.4092 128.513C68.5046 130.131 69.268 131.844 69.6497 133.082C69.936 133.938 70.604 134.224 71.3673 134.033C74.5163 133.557 77.3791 131.939 80.3372 130.702C81.4823 130.607 81.9594 129.941 81.7686 129.179C81.2915 127.371 81.2915 125.277 80.1464 123.755L80.051 123.659C80.051 122.803 79.2876 121.946 78.2379 122.137C77.3161 122.262 76.3962 122.593 75.4906 122.986C74.1451 123.716 72.688 124.351 71.1765 124.885C67.8939 126.126 64.4281 126.855 60.8821 127.179C60.1035 127.265 59.3553 127.333 58.6759 127.371C53.3856 127.646 47.7174 127.562 42.5273 126.113C40.0396 125.488 37.7723 124.577 35.9897 123.28C35.2578 122.823 34.546 122.322 33.8608 121.767C33.5602 121.731 33.2577 121.797 33.0068 121.946Z" fill="white"/>
</svg>
