<svg width="117" height="182" viewBox="0 0 117 182" fill="none" xmlns="http://www.w3.org/2000/svg">
<path fill-rule="evenodd" clip-rule="evenodd" d="M116.599 118.389C114.881 116.866 113.354 115.152 112.018 113.345C112.4 112.963 112.496 112.393 112.114 111.918C110.301 109.918 108.392 108.014 110.778 105.35C111.255 104.874 110.969 104.208 110.587 103.828C108.869 102.114 108.106 100.115 106.579 98.4029C106.961 98.3068 107.438 98.2116 107.915 98.1174C108.869 98.0212 109.347 96.8792 108.774 96.3081C107.247 94.4998 106.102 93.1683 104.098 92.407C106.77 89.2653 105.148 86.6004 100.568 85.4584C101.045 84.7931 101.522 84.2211 101.999 83.5549C102.667 82.7935 101.999 81.9379 101.14 81.7475C101.045 81.5562 100.949 81.3659 100.758 81.1755C101.14 80.4142 100.281 79.1769 98.9453 79.3682C96.6551 79.6528 94.5558 79.4624 92.361 79.0827C92.4565 78.6068 92.6473 78.1309 92.7427 77.559C92.9336 76.6072 92.0748 75.8458 90.9297 76.0371C89.9754 76.2275 89.0212 76.1313 87.9715 76.0371C87.6852 75.8458 87.399 75.5613 87.1127 75.37C87.2081 74.7999 87.2081 74.2279 87.399 73.6578C87.6852 72.8003 86.9218 72.1341 85.9676 72.0389C84.0591 71.8485 82.1506 71.3727 80.2421 71.0872C80.2421 70.3267 80.2421 69.6596 80.0513 68.803C79.9559 68.0416 79.1925 67.3754 78.1428 67.5657C76.616 67.9474 75.0892 67.8513 73.5624 67.8513C73.6579 66.9957 73.7533 66.0439 73.9441 65.1864C74.135 64.425 73.6579 63.8549 72.8945 63.6646C73.0853 60.2374 72.8945 56.7169 72.799 53.3859C72.7036 45.9614 73.3716 38.3475 74.3258 30.924C89.212 27.2132 92.5519 4.46578 75.5664 1.03954C67.9324 -0.483234 59.058 2.18162 56.5769 10.1762C54.1913 17.6958 58.9625 26.1653 64.4017 31.1143C64.5926 31.3056 64.7834 31.3999 64.9743 31.496C65.6422 36.9199 64.7834 42.4409 64.4971 47.8649C64.3063 53.0042 64.4017 58.1445 64.4971 63.1887C64.02 63.1887 63.5429 63.2829 63.2566 63.5685C60.3939 66.0439 57.1495 66.4237 54.0005 64.1405C53.1416 63.4733 51.9011 63.7588 51.5194 64.7105C50.2789 67.5657 48.0842 66.8995 46.4619 65.9478C46.7482 63.4733 46.5574 60.9046 46.6528 59.3818C46.8436 54.8135 47.0345 49.8644 46.3665 45.2961C52.5691 43.8685 55.7181 38.634 54.1913 32.2574C52.1874 24.2628 43.7901 21.597 36.6332 23.7869C29.7627 25.8798 28.3313 32.7332 30.5261 38.9195C31.5758 41.8699 35.1065 48.2455 39.2097 48.0562C39.0189 55.1942 38.5417 62.3312 38.3509 69.4692C36.9195 69.1837 35.4882 68.803 34.0568 68.4233C32.9117 68.1377 32.0529 68.9933 32.2437 69.8509C28.9039 70.1354 25.564 70.2306 22.3196 70.6113C21.0791 70.7065 20.0294 72.4205 21.5562 72.9906C23.4647 73.6578 25.3732 74.1337 27.2817 74.4182C26.9 74.7038 26.5183 74.9893 26.0412 75.1796C25.6595 75.0854 25.2778 75.0854 24.8961 75.2757C18.3118 77.9406 11.5367 80.3199 5.42951 83.651C4.47526 84.2211 4.37984 85.7448 5.8112 85.9342C8.29224 86.3149 10.6778 86.2207 13.0634 85.839C8.67393 88.4097 4.66611 91.0736 2.75763 95.5477C2.28051 96.6898 3.90272 97.4511 4.95239 96.9753C5.04781 96.8792 5.14323 96.8792 5.33408 96.784C4.09357 98.8787 2.85305 100.973 1.51711 103.065C0.753718 104.304 2.75763 105.731 3.90272 104.589C4.28442 104.208 4.66611 104.017 5.04781 103.732C4.47527 105.825 4.37984 107.92 4.76154 110.108C4.85696 110.584 5.42951 110.966 6.00205 110.966C5.14323 112.963 3.99814 114.962 2.94848 116.962C2.47135 117.817 3.0439 118.769 4.09357 118.865C2.75763 121.72 1.32626 124.479 0.0857478 127.335C-0.391374 128.477 1.23084 129.238 2.28051 128.762C2.6622 128.573 3.0439 128.382 3.4256 128.286C3.0439 130.286 3.23475 132.284 3.33017 134.377C3.33017 135.615 4.85696 135.9 5.90663 135.235C6.28833 135.045 6.5746 134.853 6.9563 134.569C6.47917 136.566 6.38375 138.66 6.76545 140.755C6.86087 141.611 8.19681 141.897 8.96021 141.515C7.52884 144.371 5.8112 147.226 4.66611 150.176C4.28442 151.224 5.8112 152.08 6.86087 151.604C7.52884 151.318 8.19681 150.939 8.86478 150.652C8.00596 153.507 6.38375 156.267 5.33408 159.123C4.85696 160.36 6.76545 161.121 7.81511 160.36C8.10139 160.169 8.38766 159.884 8.76936 159.694C8.48308 161.026 8.29224 162.359 8.00596 163.691C7.71969 164.928 9.3419 165.785 10.487 164.928C10.6778 164.739 10.9641 164.548 11.2504 164.452C10.2961 166.452 9.62818 168.45 9.15105 170.735C8.96021 171.781 10.1053 173.208 11.2504 172.353C11.5367 172.162 11.7275 171.971 12.0138 171.877C11.9184 172.923 11.7275 173.97 11.5367 175.017C11.2504 176.349 12.8726 177.587 13.9223 176.445C14.3994 175.969 14.7811 175.493 15.2582 175.112V175.493C15.2582 176.539 16.4987 177.301 17.453 176.73C18.4072 176.16 19.3615 175.493 20.2203 174.826C20.2203 175.397 20.2203 175.969 20.1248 176.539C19.934 177.777 21.4608 179.204 22.5105 177.967C23.083 177.205 23.751 176.539 24.4189 175.873C25.6595 179.394 29.1902 180.252 31.4803 177.301C32.0529 178.443 32.6254 179.491 33.0071 180.632C33.4842 181.964 35.2019 181.964 35.7744 180.632C36.347 179.015 37.0149 177.491 37.5875 175.873C38.4463 177.111 39.496 178.252 40.5456 179.394C41.2136 180.156 42.7404 179.87 42.9313 178.728C43.0267 178.252 43.1221 177.873 43.2175 177.491C43.5038 178.063 43.6946 178.633 43.9809 179.204C44.3626 180.346 45.9848 180.728 46.5574 179.585C47.3208 178.252 47.9887 177.015 48.4659 175.778C49.611 176.635 50.9469 177.397 52.1874 178.252C53.0462 178.824 54.0005 178.157 54.2867 177.397C54.4776 176.921 54.6684 176.539 54.7639 176.063C55.7181 177.491 56.8632 178.728 58.39 179.68C58.9625 180.061 60.0122 179.87 60.3939 179.204C60.871 178.157 61.3481 177.206 61.7298 176.254C63.0658 177.397 64.4971 178.349 66.0239 179.3C66.7873 179.68 68.0278 179.395 68.1233 178.443C68.2187 177.587 68.4095 176.921 68.505 176.16C69.9363 177.777 71.5585 179.204 73.6579 180.252C74.5167 180.632 75.4709 180.346 75.7572 179.394C76.0435 178.349 76.4252 177.491 76.7114 176.539C77.952 177.967 79.5742 178.919 81.6735 179.394C82.6277 179.585 83.3911 178.919 83.4866 178.063C83.582 176.825 83.7728 175.778 83.8683 174.636C85.1088 175.684 86.4447 176.635 87.9715 177.397C88.8303 177.777 89.7846 177.491 90.0708 176.539C90.3571 175.493 90.6434 174.445 90.7388 173.494C91.9793 174.542 93.3153 175.397 94.9375 176.063C95.9872 176.539 96.9414 175.208 96.6551 174.35C96.6551 174.16 96.5597 173.97 96.5597 173.874C97.7048 174.732 98.9453 175.397 100.281 175.969C101.235 176.349 102.476 175.873 102.476 174.732C102.476 174.16 102.476 173.59 102.381 173.114C103.43 173.59 104.575 173.97 105.911 174.256C107.247 174.542 108.011 173.304 107.533 172.162C106.675 170.163 105.625 168.259 104.194 166.642V166.261C104.098 166.07 104.098 165.785 104.003 165.594C104.957 165.594 105.911 164.833 105.53 163.976C105.434 163.787 105.339 163.501 105.243 163.311C106.198 163.405 107.247 162.549 106.866 161.787C106.102 160.36 105.72 158.838 105.052 157.41C105.53 157.505 105.911 157.601 106.293 157.79C107.438 158.077 108.392 157.125 108.201 156.267C108.011 155.791 107.915 155.316 107.82 154.84C108.869 155.601 110.492 154.649 110.205 153.507L108.869 148.939C109.633 149.129 110.301 149.225 111.064 149.511C112.4 149.891 113.354 148.559 112.782 147.702C111.541 145.798 110.778 143.895 110.301 141.991C110.492 142.087 110.587 142.087 110.778 142.183C111.828 142.659 113.545 141.897 112.973 140.755C112.305 139.422 111.923 137.994 111.541 136.663C112.209 136.376 112.496 135.521 112.114 134.853C111.35 133.617 111.064 132.38 110.682 131.046C111.446 130.856 111.923 130.286 111.637 129.619C111.064 128.477 110.682 127.239 110.396 126.097C110.778 126.288 111.064 126.383 111.446 126.573C112.591 127.049 114.022 126.288 113.641 125.146C113.068 123.242 112.305 121.435 111.446 119.626C112.591 119.911 113.736 120.387 114.786 120.959C116.217 121.244 117.744 119.435 116.599 118.389Z" fill="#7AC7C4"/>
<path fill-rule="evenodd" clip-rule="evenodd" d="M78.5241 146.274C71.8444 152.556 62.4928 155.221 53.4275 155.316C43.6942 155.411 33.8655 151.7 29.7623 142.087C27.4721 136.663 25.3728 126.859 29.3806 121.529C29.476 120.863 30.2394 120.293 30.9074 120.387C31.4799 120.387 32.0525 120.769 32.2433 121.339C32.7624 121.857 33.3063 122.329 33.8608 122.778C34.1318 122.81 34.4028 122.922 34.6289 123.148C35.0373 123.563 35.5011 123.936 35.9897 124.291C38.0251 125.564 40.2265 126.482 42.5262 127.123C47.3127 128.327 52.8807 128.497 57.2445 128.383C57.7216 128.191 58.1987 128.191 58.5804 128.383C58.9621 128.286 59.3438 128.286 59.7255 128.286C60.112 128.261 60.4965 128.226 60.882 128.189C63.9623 127.85 67.6868 127.125 71.1755 125.896C71.4951 125.775 71.8148 125.657 72.1307 125.527C73.2013 125.1 74.3331 124.498 75.4905 123.996C78.0727 122.591 80.2198 120.813 81.3868 118.58C82.1502 117.056 84.2495 117.438 84.1541 118.959C84.2495 119.056 84.2495 119.15 84.345 119.245C87.9711 127.811 85.4901 139.898 78.5241 146.274Z" fill="#3B3734"/>
<path fill-rule="evenodd" clip-rule="evenodd" d="M98.1822 133.045C97.5142 130.762 96.8462 128.573 97.1325 126.288C97.3234 124.48 100.186 124.48 99.9952 126.288C99.709 128.383 100.282 130.286 100.854 132.284C101.331 134.093 98.5639 134.853 98.1822 133.045Z" fill="white"/>
<path fill-rule="evenodd" clip-rule="evenodd" d="M93.0287 143.229C92.0744 144.847 89.5934 143.419 90.5476 141.801C90.9293 141.135 90.9293 140.47 90.7385 139.707C90.1659 137.9 92.9332 137.233 93.5058 138.946C93.9829 140.374 93.8875 141.992 93.0287 143.229Z" fill="white"/>
<path fill-rule="evenodd" clip-rule="evenodd" d="M87.2083 105.445C87.4946 102.97 87.7809 100.591 87.4946 98.1174C87.3038 96.3082 90.1665 96.3082 90.3574 98.1174C90.6436 100.497 90.3574 102.97 90.0711 105.445C89.8802 107.253 87.0175 107.253 87.2083 105.445Z" fill="white"/>
<path fill-rule="evenodd" clip-rule="evenodd" d="M85.8717 164.167C85.8717 163.025 85.5855 162.073 85.2992 161.026C84.8221 159.218 87.5894 158.456 88.0665 160.266C88.4482 161.502 88.7345 162.739 88.7345 164.167C88.7345 165.976 85.8717 165.976 85.8717 164.167Z" fill="white"/>
<path fill-rule="evenodd" clip-rule="evenodd" d="M79.7652 158.171C79.2881 158.647 78.2384 158.742 77.7613 158.171C77.475 157.79 77.3796 157.505 77.1888 157.125C77.1888 156.935 77.0933 156.838 77.0933 156.743C76.7116 156.173 76.6162 155.411 77.1888 154.84C77.6659 154.364 78.7155 154.27 79.1927 154.84C79.4789 155.221 79.5744 155.507 79.7652 155.887C79.7652 155.983 79.7652 156.173 79.8606 156.267C80.3378 156.838 80.3378 157.601 79.7652 158.171Z" fill="white"/>
<path fill-rule="evenodd" clip-rule="evenodd" d="M62.1122 167.688C61.8259 166.166 61.8259 164.643 61.4442 163.215C61.0625 161.408 63.8299 160.645 64.2116 162.454C64.5933 163.976 64.5933 165.5 64.8795 166.928C65.2612 168.64 62.4939 169.497 62.1122 167.688Z" fill="white"/>
<path fill-rule="evenodd" clip-rule="evenodd" d="M35.0111 165.69C35.0111 163.881 35.0111 162.169 34.7248 160.36C34.4386 158.552 37.2059 157.79 37.4921 159.598C37.8738 161.597 37.8738 163.597 37.8738 165.69C37.8738 167.498 35.0111 167.498 35.0111 165.69Z" fill="white"/>
<path fill-rule="evenodd" clip-rule="evenodd" d="M24.5148 95.166C24.5148 94.12 24.7057 92.977 24.8965 91.931C24.992 91.359 25.0874 90.7889 25.0874 90.217V90.1218C24.1332 89.6459 23.656 88.2183 24.8965 87.6482C29.5723 85.7448 27.473 93.2625 27.3776 95.166C27.3776 96.9752 24.5148 96.9752 24.5148 95.166Z" fill="white"/>
<path fill-rule="evenodd" clip-rule="evenodd" d="M41.6904 102.876C41.9767 105.065 42.0721 107.348 42.3584 109.538C42.6447 111.345 39.6865 111.345 39.4957 109.538C39.2094 107.348 39.114 105.065 38.8277 102.876C38.5414 101.067 41.4042 101.067 41.6904 102.876Z" fill="white"/>
<path fill-rule="evenodd" clip-rule="evenodd" d="M39.4004 30.3541C39.4958 30.258 39.4958 30.1628 39.5912 30.0686C40.3546 29.2111 41.4997 29.5927 42.0722 30.3541C42.1677 30.4483 42.1677 30.5444 42.2631 30.6387C42.3585 30.7338 42.4539 30.7338 42.5494 30.83C43.1219 31.2097 43.3128 31.7817 43.2173 32.3518C43.7899 33.589 43.7899 34.9215 43.4082 36.3491C43.3128 36.5404 43.3128 36.7307 43.2173 36.9201V37.1105C43.2173 37.3008 43.1219 37.4921 42.9311 37.6825C42.1677 38.9197 41.0226 40.0618 39.4958 39.4898C35.7742 38.2525 36.5376 31.6856 39.4004 30.3541Z" fill="#3B3734"/>
<path fill-rule="evenodd" clip-rule="evenodd" d="M45.5075 85.363C45.7937 86.9819 45.8892 88.5038 45.8892 90.2169C45.8892 92.0252 43.0264 92.0252 43.0264 90.2169C43.0264 88.7893 43.0264 87.4578 42.7402 86.1244C42.4539 84.3171 45.1258 83.5547 45.5075 85.363Z" fill="white"/>
<path fill-rule="evenodd" clip-rule="evenodd" d="M59.7255 101.543C60.0118 103.446 60.1072 105.35 60.3935 107.253C60.6798 109.062 57.9125 109.824 57.6262 108.015C57.3399 106.111 57.2445 104.208 56.9582 102.304C56.672 100.497 59.4393 99.7344 59.7255 101.543Z" fill="white"/>
<path fill-rule="evenodd" clip-rule="evenodd" d="M66.596 89.2652C66.8823 86.5061 66.8823 83.7452 66.8823 80.9861C66.8823 79.1768 69.745 79.1768 69.745 80.9861C69.745 83.7452 69.745 86.5061 69.4588 89.2652C69.2679 91.0735 66.4052 91.0735 66.596 89.2652Z" fill="white"/>
<path fill-rule="evenodd" clip-rule="evenodd" d="M72.2261 113.345C72.2261 115.153 69.3634 115.153 69.3634 113.345C69.3634 111.918 69.3634 110.584 69.0771 109.252C68.7908 107.445 71.4627 106.683 71.8444 108.491C72.2261 110.109 72.2261 111.727 72.2261 113.345Z" fill="white"/>
<path fill-rule="evenodd" clip-rule="evenodd" d="M69.5547 12.0798C69.6501 11.9856 69.6501 11.8894 69.7455 11.7952C70.5089 10.9377 71.654 11.3193 72.2265 12.0798C72.322 12.1749 72.322 12.2711 72.4174 12.3653C72.5128 12.4614 72.6082 12.4614 72.7037 12.5556C73.2762 12.9373 73.467 13.5074 73.3716 14.0784C73.8487 15.3166 73.9442 16.6481 73.5625 18.0757C73.467 18.266 73.467 18.4573 73.3716 18.6477V18.8371C73.3716 19.0274 73.2762 19.2178 73.0854 19.4091C72.322 20.6454 71.1769 21.7884 69.6501 21.2164C65.9285 19.9792 66.6919 13.4132 69.5547 12.0798Z" fill="#3B3734"/>
<path fill-rule="evenodd" clip-rule="evenodd" d="M22.3198 140.946C22.3198 142.753 19.457 142.753 19.457 140.946V137.139C19.457 135.329 22.3198 135.329 22.3198 137.139V140.946Z" fill="white"/>
<path fill-rule="evenodd" clip-rule="evenodd" d="M19.362 161.884C18.9803 163.691 16.3084 162.929 16.5947 161.121C16.8809 159.694 16.8809 158.266 16.5947 156.838C16.3084 155.031 19.0757 154.27 19.362 156.077C19.7437 158.077 19.7437 159.98 19.362 161.884Z" fill="white"/>
<path fill-rule="evenodd" clip-rule="evenodd" d="M14.6859 118.484C14.6859 116.771 14.6859 115.058 14.3996 113.439C14.1134 111.631 16.8807 110.87 17.1669 112.679C17.5486 114.582 17.5486 116.486 17.5486 118.484C17.5486 120.293 14.6859 120.293 14.6859 118.484Z" fill="white"/>
<path fill-rule="evenodd" clip-rule="evenodd" d="M33.0068 122.957C32.3388 123.052 31.6708 123.433 31.5754 124.29C31.3846 126.383 30.3349 128.287 29.4761 130.19C29.0944 131.047 29.3807 131.999 30.3349 132.284C32.6251 133.046 35.297 133.236 37.2055 134.759C38.0643 135.425 39.3048 135.235 39.5911 134.093C40.0682 132.475 40.7361 131.047 41.4995 129.619C42.0721 129.715 42.6446 129.905 43.2172 130C43.0263 131.428 42.3584 132.855 41.9767 134.283C41.7858 135.139 42.4538 136.091 43.3126 136.091C46.6525 135.901 49.8969 136.757 53.2367 137.043C53.8093 137.138 54.4772 136.567 54.5727 135.996C54.9544 134.378 55.1452 132.665 55.3361 131.047H56.3857H56.4812C56.5766 132.665 56.4812 134.283 56.4812 135.901C56.4812 136.662 57.1491 137.328 57.9125 137.328C60.9661 137.328 64.6876 137.328 67.3595 135.806C68.1229 135.33 68.6 134.473 68.5046 133.521C68.4092 132.189 68.1229 130.952 68.0275 129.619C68.1229 129.619 68.3138 129.524 68.4092 129.524C68.5046 131.142 69.268 132.855 69.6497 134.093C69.936 134.949 70.604 135.235 71.3673 135.044C74.5163 134.568 77.3791 132.95 80.3372 131.713C81.4823 131.618 81.9594 130.952 81.7686 130.19C81.2915 128.382 81.2915 126.288 80.1464 124.766L80.051 124.67C80.051 123.814 79.2876 122.957 78.2379 123.148C77.3161 123.273 76.3962 123.604 75.4906 123.997C74.1451 124.727 72.688 125.362 71.1765 125.896C67.8939 127.137 64.4281 127.866 60.8821 128.19C60.1035 128.276 59.3553 128.344 58.6759 128.382C53.3856 128.657 47.7174 128.573 42.5273 127.124C40.0396 126.499 37.7723 125.588 35.9897 124.291C35.2578 123.834 34.546 123.333 33.8608 122.778C33.5602 122.742 33.2577 122.808 33.0068 122.957Z" fill="white"/>
</svg>
