<svg width="117" height="182" viewBox="0 0 117 182" fill="none" xmlns="http://www.w3.org/2000/svg">
<path fill-rule="evenodd" clip-rule="evenodd" d="M116.599 118.574C114.881 117.05 113.354 115.337 112.018 113.53C112.4 113.148 112.496 112.578 112.114 112.102C110.301 110.102 108.392 108.199 110.778 105.534C111.255 105.058 110.969 104.392 110.587 104.012C108.869 102.298 108.106 100.3 106.579 98.5875C106.961 98.4913 107.438 98.3962 107.915 98.3019C108.869 98.2058 109.347 97.0637 108.774 96.4927C107.247 94.6844 106.102 93.3529 104.098 92.5915C106.77 89.4499 105.148 86.785 100.568 85.6429C101.045 84.9777 101.522 84.4057 101.999 83.7394C102.667 82.9781 101.999 82.1225 101.14 81.9321C101.045 81.7408 100.949 81.5505 100.758 81.3601C101.14 80.5987 100.281 79.3615 98.9453 79.5528C96.6551 79.8373 94.5558 79.647 92.361 79.2673C92.4565 78.7914 92.6473 78.3155 92.7427 77.7435C92.9336 76.7918 92.0748 76.0304 90.9297 76.2217C89.9754 76.412 89.0212 76.3159 87.9715 76.2217C87.6852 76.0304 87.399 75.7458 87.1127 75.5545C87.2081 74.9845 87.2081 74.4125 87.399 73.8424C87.6852 72.9849 86.9218 72.3186 85.9676 72.2235C84.0591 72.0331 82.1506 71.5573 80.2421 71.2717C80.2421 70.5113 80.2421 69.8441 80.0513 68.9876C79.9559 68.2262 79.1925 67.56 78.1428 67.7503C76.616 68.132 75.0892 68.0358 73.5624 68.0358C73.6579 67.1802 73.7533 66.2285 73.9441 65.371C74.135 64.6096 73.6579 64.0395 72.8945 63.8492C73.0853 60.422 72.8945 56.9015 72.799 53.5704C72.7036 46.146 73.3716 38.5321 74.3258 31.1086C89.212 27.3977 92.5519 4.65035 75.5664 1.22411C67.9324 -0.298664 59.058 2.36619 56.5769 10.3608C54.1913 17.8804 58.9625 26.3499 64.4017 31.2989C64.5926 31.4902 64.7834 31.5844 64.9743 31.6806C65.6422 37.1045 64.7834 42.6255 64.4971 48.0494C64.3063 53.1888 64.4017 58.3291 64.4971 63.3733C64.02 63.3733 63.5429 63.4675 63.2566 63.753C60.3939 66.2285 57.1495 66.6082 54.0005 64.325C53.1416 63.6579 51.9011 63.9434 51.5194 64.8951C50.2789 67.7503 48.0842 67.0841 46.4619 66.1324C46.7482 63.6579 46.5574 61.0891 46.6528 59.5664C46.8436 54.998 47.0345 50.049 46.3665 45.4807C52.5691 44.0531 55.7181 38.8186 54.1913 32.4419C52.1874 24.4474 43.7901 21.7816 36.6332 23.9715C29.7627 26.0644 28.3313 32.9178 30.5261 39.1041C31.5758 42.0544 35.1065 48.4301 39.2097 48.2407C39.0189 55.3787 38.5417 62.5158 38.3509 69.6538C36.9195 69.3683 35.4882 68.9876 34.0568 68.6078C32.9117 68.3223 32.0529 69.1779 32.2437 70.0354C28.9039 70.32 25.564 70.4152 22.3196 70.7959C21.0791 70.891 20.0294 72.6051 21.5562 73.1752C23.4647 73.8424 25.3732 74.3182 27.2817 74.6028C26.9 74.8883 26.5183 75.1738 26.0412 75.3642C25.6595 75.27 25.2778 75.27 24.8961 75.4603C18.3118 78.1252 11.5367 80.5045 5.42951 83.8356C4.47526 84.4057 4.37984 85.9294 5.8112 86.1188C8.29224 86.4995 10.6778 86.4053 13.0634 86.0236C8.67393 88.5942 4.66611 91.2581 2.75763 95.7323C2.28051 96.8743 3.90272 97.6357 4.95239 97.1599C5.04781 97.0637 5.14323 97.0637 5.33408 96.9686C4.09357 99.0633 2.85305 101.157 1.51711 103.25C0.753718 104.488 2.75763 105.916 3.90272 104.774C4.28442 104.392 4.66611 104.202 5.04781 103.916C4.47527 106.01 4.37984 108.105 4.76154 110.293C4.85696 110.769 5.42951 111.15 6.00205 111.15C5.14323 113.148 3.99814 115.147 2.94848 117.146C2.47135 118.002 3.0439 118.954 4.09357 119.05C2.75763 121.905 1.32626 124.664 0.0857478 127.519C-0.391374 128.661 1.23084 129.423 2.28051 128.947C2.6622 128.757 3.0439 128.567 3.4256 128.471C3.0439 130.471 3.23475 132.468 3.33017 134.562C3.33017 135.799 4.85696 136.085 5.90663 135.42C6.28833 135.229 6.5746 135.038 6.9563 134.753C6.47917 136.751 6.38375 138.845 6.76545 140.94C6.86087 141.795 8.19681 142.082 8.96021 141.7C7.52884 144.555 5.8112 147.41 4.66611 150.361C4.28442 151.409 5.8112 152.264 6.86087 151.788C7.52884 151.503 8.19681 151.123 8.86478 150.837C8.00596 153.692 6.38375 156.452 5.33408 159.307C4.85696 160.544 6.76545 161.306 7.81511 160.544C8.10139 160.354 8.38766 160.069 8.76936 159.878C8.48308 161.211 8.29224 162.544 8.00596 163.875C7.71969 165.113 9.3419 165.969 10.487 165.113C10.6778 164.923 10.9641 164.733 11.2504 164.637C10.2961 166.636 9.62818 168.634 9.15105 170.919C8.96021 171.965 10.1053 173.393 11.2504 172.537C11.5367 172.347 11.7275 172.156 12.0138 172.061C11.9184 173.107 11.7275 174.154 11.5367 175.202C11.2504 176.534 12.8726 177.772 13.9223 176.63C14.3994 176.154 14.7811 175.678 15.2582 175.296V175.678C15.2582 176.724 16.4987 177.485 17.453 176.914C18.4072 176.344 19.3615 175.678 20.2203 175.011C20.2203 175.582 20.2203 176.154 20.1248 176.724C19.934 177.961 21.4608 179.389 22.5105 178.151C23.083 177.39 23.751 176.724 24.4189 176.058C25.6595 179.579 29.1902 180.437 31.4803 177.485C32.0529 178.627 32.6254 179.675 33.0071 180.816C33.4842 182.149 35.2019 182.149 35.7744 180.816C36.347 179.199 37.0149 177.676 37.5875 176.058C38.4463 177.296 39.496 178.437 40.5456 179.579C41.2136 180.34 42.7404 180.055 42.9313 178.913C43.0267 178.437 43.1221 178.057 43.2175 177.676C43.5038 178.248 43.6946 178.818 43.9809 179.389C44.3626 180.531 45.9848 180.912 46.5574 179.769C47.3208 178.437 47.9887 177.2 48.4659 175.962C49.611 176.82 50.9469 177.581 52.1874 178.437C53.0462 179.009 54.0005 178.342 54.2867 177.581C54.4776 177.106 54.6684 176.724 54.7639 176.248C55.7181 177.676 56.8632 178.913 58.39 179.865C58.9625 180.245 60.0122 180.055 60.3939 179.389C60.871 178.342 61.3481 177.39 61.7298 176.438C63.0658 177.581 64.4971 178.533 66.0239 179.485C66.7873 179.865 68.0278 179.579 68.1233 178.627C68.2187 177.772 68.4095 177.106 68.505 176.344C69.9363 177.961 71.5585 179.389 73.6579 180.437C74.5167 180.816 75.4709 180.531 75.7572 179.579C76.0435 178.533 76.4252 177.676 76.7114 176.724C77.952 178.151 79.5742 179.103 81.6735 179.579C82.6277 179.769 83.3911 179.103 83.4866 178.248C83.582 177.009 83.7728 175.962 83.8683 174.82C85.1088 175.868 86.4447 176.82 87.9715 177.581C88.8303 177.961 89.7846 177.676 90.0708 176.724C90.3571 175.678 90.6434 174.63 90.7388 173.678C91.9793 174.726 93.3153 175.582 94.9375 176.248C95.9872 176.724 96.9414 175.392 96.6551 174.535C96.6551 174.345 96.5597 174.154 96.5597 174.059C97.7048 174.917 98.9453 175.582 100.281 176.154C101.235 176.534 102.476 176.058 102.476 174.917C102.476 174.345 102.476 173.774 102.381 173.299C103.43 173.774 104.575 174.154 105.911 174.441C107.247 174.726 108.011 173.489 107.533 172.347C106.675 170.347 105.625 168.444 104.194 166.827V166.445C104.098 166.255 104.098 165.969 104.003 165.779C104.957 165.779 105.911 165.018 105.53 164.161C105.434 163.972 105.339 163.685 105.243 163.496C106.198 163.59 107.247 162.733 106.866 161.972C106.102 160.544 105.72 159.023 105.052 157.595C105.53 157.689 105.911 157.785 106.293 157.975C107.438 158.261 108.392 157.309 108.201 156.452C108.011 155.976 107.915 155.5 107.82 155.024C108.869 155.786 110.492 154.834 110.205 153.692L108.869 149.124C109.633 149.314 110.301 149.409 111.064 149.696C112.4 150.075 113.354 148.744 112.782 147.886C111.541 145.983 110.778 144.079 110.301 142.176C110.492 142.271 110.587 142.271 110.778 142.367C111.828 142.843 113.545 142.082 112.973 140.94C112.305 139.606 111.923 138.179 111.541 136.847C112.209 136.561 112.496 135.705 112.114 135.038C111.35 133.802 111.064 132.564 110.682 131.231C111.446 131.041 111.923 130.471 111.637 129.803C111.064 128.661 110.682 127.424 110.396 126.282C110.778 126.472 111.064 126.567 111.446 126.758C112.591 127.234 114.022 126.472 113.641 125.33C113.068 123.427 112.305 121.619 111.446 119.81C112.591 120.096 113.736 120.572 114.786 121.144C116.217 121.429 117.744 119.62 116.599 118.574Z" fill="#F73859"/>
<path fill-rule="evenodd" clip-rule="evenodd" d="M78.5241 146.459C71.8444 152.74 62.4928 155.406 53.4275 155.5C43.6942 155.595 33.8655 151.885 29.7623 142.271C27.4721 136.847 25.3728 127.043 29.3806 121.714C29.476 121.048 30.2394 120.477 30.9074 120.572C31.4799 120.572 32.0525 120.953 32.2433 121.523C32.7624 122.041 33.3063 122.513 33.8608 122.962C34.1318 122.995 34.4028 123.106 34.6289 123.333C35.0373 123.748 35.5011 124.121 35.9897 124.476C38.0251 125.748 40.2265 126.667 42.5262 127.308C47.3127 128.512 52.8807 128.681 57.2445 128.567C57.7216 128.376 58.1987 128.376 58.5804 128.567C58.9621 128.471 59.3438 128.471 59.7255 128.471C60.112 128.445 60.4965 128.41 60.882 128.374C63.9623 128.034 67.6868 127.31 71.1755 126.08C71.4951 125.959 71.8148 125.841 72.1307 125.712C73.2013 125.285 74.3331 124.682 75.4905 124.181C78.0727 122.776 80.2198 120.997 81.3868 118.764C82.1502 117.241 84.2495 117.622 84.1541 119.144C84.2495 119.24 84.2495 119.334 84.345 119.43C87.9711 127.995 85.4901 140.082 78.5241 146.459Z" fill="#3B3734"/>
<path fill-rule="evenodd" clip-rule="evenodd" d="M98.1822 133.23C97.5142 130.947 96.8462 128.758 97.1325 126.472C97.3234 124.664 100.186 124.664 99.9952 126.472C99.709 128.567 100.282 130.471 100.854 132.468C101.331 134.278 98.5639 135.038 98.1822 133.23Z" fill="white"/>
<path fill-rule="evenodd" clip-rule="evenodd" d="M93.0287 143.413C92.0744 145.031 89.5934 143.603 90.5476 141.985C90.9293 141.319 90.9293 140.654 90.7385 139.892C90.1659 138.084 92.9332 137.417 93.5058 139.13C93.9829 140.558 93.8875 142.176 93.0287 143.413Z" fill="white"/>
<path fill-rule="evenodd" clip-rule="evenodd" d="M87.2083 105.629C87.4946 103.155 87.7809 100.776 87.4946 98.302C87.3038 96.4928 90.1665 96.4928 90.3574 98.302C90.6436 100.681 90.3574 103.155 90.0711 105.629C89.8802 107.438 87.0175 107.438 87.2083 105.629Z" fill="white"/>
<path fill-rule="evenodd" clip-rule="evenodd" d="M85.8717 164.351C85.8717 163.209 85.5855 162.258 85.2992 161.211C84.8221 159.402 87.5894 158.641 88.0665 160.45C88.4482 161.687 88.7345 162.924 88.7345 164.351C88.7345 166.161 85.8717 166.161 85.8717 164.351Z" fill="white"/>
<path fill-rule="evenodd" clip-rule="evenodd" d="M79.7652 158.355C79.2881 158.831 78.2384 158.926 77.7613 158.355C77.475 157.975 77.3796 157.689 77.1888 157.309C77.1888 157.119 77.0933 157.023 77.0933 156.928C76.7116 156.358 76.6162 155.595 77.1888 155.024C77.6659 154.549 78.7155 154.454 79.1927 155.024C79.4789 155.406 79.5744 155.692 79.7652 156.071C79.7652 156.167 79.7652 156.358 79.8606 156.452C80.3378 157.023 80.3378 157.785 79.7652 158.355Z" fill="white"/>
<path fill-rule="evenodd" clip-rule="evenodd" d="M62.1122 167.873C61.8259 166.351 61.8259 164.827 61.4442 163.4C61.0625 161.592 63.8299 160.83 64.2116 162.638C64.5933 164.161 64.5933 165.685 64.8795 167.112C65.2612 168.824 62.4939 169.682 62.1122 167.873Z" fill="white"/>
<path fill-rule="evenodd" clip-rule="evenodd" d="M35.0111 165.875C35.0111 164.066 35.0111 162.354 34.7248 160.544C34.4386 158.737 37.2059 157.975 37.4921 159.783C37.8738 161.782 37.8738 163.781 37.8738 165.875C37.8738 167.682 35.0111 167.682 35.0111 165.875Z" fill="white"/>
<path fill-rule="evenodd" clip-rule="evenodd" d="M24.5148 95.3505C24.5148 94.3046 24.7057 93.1616 24.8965 92.1156C24.992 91.5436 25.0874 90.9735 25.0874 90.4015V90.3063C24.1332 89.8305 23.656 88.4029 24.8965 87.8328C29.5723 85.9293 27.473 93.4471 27.3776 95.3505C27.3776 97.1598 24.5148 97.1598 24.5148 95.3505Z" fill="white"/>
<path fill-rule="evenodd" clip-rule="evenodd" d="M41.6904 103.061C41.9767 105.25 42.0721 107.533 42.3584 109.723C42.6447 111.53 39.6865 111.53 39.4957 109.723C39.2094 107.533 39.114 105.25 38.8277 103.061C38.5414 101.251 41.4042 101.251 41.6904 103.061Z" fill="white"/>
<path fill-rule="evenodd" clip-rule="evenodd" d="M39.4004 30.5387C39.4958 30.4425 39.4958 30.3474 39.5912 30.2531C40.3546 29.3956 41.4997 29.7773 42.0722 30.5387C42.1677 30.6329 42.1677 30.729 42.2631 30.8232C42.3585 30.9184 42.4539 30.9184 42.5494 31.0145C43.1219 31.3943 43.3128 31.9663 43.2173 32.5364C43.7899 33.7736 43.7899 35.106 43.4082 36.5336C43.3128 36.7249 43.3128 36.9153 43.2173 37.1047V37.295C43.2173 37.4854 43.1219 37.6767 42.9311 37.867C42.1677 39.1043 41.0226 40.2464 39.4958 39.6744C35.7742 38.4371 36.5376 31.8701 39.4004 30.5387Z" fill="#3B3734"/>
<path fill-rule="evenodd" clip-rule="evenodd" d="M45.5075 85.5476C45.7937 87.1665 45.8892 88.6883 45.8892 90.4015C45.8892 92.2098 43.0264 92.2098 43.0264 90.4015C43.0264 88.9739 43.0264 87.6424 42.7402 86.309C42.4539 84.5017 45.1258 83.7393 45.5075 85.5476Z" fill="white"/>
<path fill-rule="evenodd" clip-rule="evenodd" d="M59.7255 101.727C60.0118 103.631 60.1072 105.534 60.3935 107.438C60.6798 109.247 57.9125 110.008 57.6262 108.199C57.3399 106.296 57.2445 104.392 56.9582 102.489C56.672 100.681 59.4393 99.919 59.7255 101.727Z" fill="white"/>
<path fill-rule="evenodd" clip-rule="evenodd" d="M66.596 89.4498C66.8823 86.6907 66.8823 83.9297 66.8823 81.1707C66.8823 79.3614 69.745 79.3614 69.745 81.1707C69.745 83.9297 69.745 86.6907 69.4588 89.4498C69.2679 91.2581 66.4052 91.2581 66.596 89.4498Z" fill="white"/>
<path fill-rule="evenodd" clip-rule="evenodd" d="M72.2261 113.53C72.2261 115.337 69.3634 115.337 69.3634 113.53C69.3634 112.102 69.3634 110.769 69.0771 109.437C68.7908 107.629 71.4627 106.868 71.8444 108.675C72.2261 110.293 72.2261 111.912 72.2261 113.53Z" fill="white"/>
<path fill-rule="evenodd" clip-rule="evenodd" d="M69.5547 12.2643C69.6501 12.1701 69.6501 12.074 69.7455 11.9798C70.5089 11.1223 71.654 11.5039 72.2265 12.2643C72.322 12.3595 72.322 12.4556 72.4174 12.5499C72.5128 12.646 72.6082 12.646 72.7037 12.7402C73.2762 13.1219 73.467 13.6919 73.3716 14.263C73.8487 15.5012 73.9442 16.8327 73.5625 18.2603C73.467 18.4506 73.467 18.6419 73.3716 18.8323V19.0217C73.3716 19.212 73.2762 19.4023 73.0854 19.5936C72.322 20.8299 71.1769 21.973 69.6501 21.401C65.9285 20.1637 66.6919 13.5977 69.5547 12.2643Z" fill="#3B3734"/>
<path fill-rule="evenodd" clip-rule="evenodd" d="M22.3198 141.13C22.3198 142.937 19.457 142.937 19.457 141.13V137.323C19.457 135.514 22.3198 135.514 22.3198 137.323V141.13Z" fill="white"/>
<path fill-rule="evenodd" clip-rule="evenodd" d="M19.362 162.068C18.9803 163.875 16.3084 163.114 16.5947 161.306C16.8809 159.878 16.8809 158.451 16.5947 157.023C16.3084 155.216 19.0757 154.454 19.362 156.262C19.7437 158.261 19.7437 160.165 19.362 162.068Z" fill="white"/>
<path fill-rule="evenodd" clip-rule="evenodd" d="M14.6859 118.668C14.6859 116.955 14.6859 115.243 14.3996 113.624C14.1134 111.816 16.8807 111.054 17.1669 112.864C17.5486 114.767 17.5486 116.671 17.5486 118.668C17.5486 120.477 14.6859 120.477 14.6859 118.668Z" fill="white"/>
<path fill-rule="evenodd" clip-rule="evenodd" d="M33.0068 123.142C32.3388 123.237 31.6708 123.617 31.5754 124.474C31.3846 126.568 30.3349 128.471 29.4761 130.375C29.0944 131.231 29.3807 132.183 30.3349 132.469C32.6251 133.23 35.297 133.42 37.2055 134.943C38.0643 135.609 39.3048 135.419 39.5911 134.277C40.0682 132.659 40.7361 131.231 41.4995 129.804C42.0721 129.899 42.6446 130.089 43.2172 130.184C43.0263 131.612 42.3584 133.04 41.9767 134.467C41.7858 135.324 42.4538 136.275 43.3126 136.275C46.6525 136.085 49.8969 136.942 53.2367 137.227C53.8093 137.322 54.4772 136.751 54.5727 136.18C54.9544 134.562 55.1452 132.849 55.3361 131.231H56.3857H56.4812C56.5766 132.849 56.4812 134.467 56.4812 136.085C56.4812 136.847 57.1491 137.513 57.9125 137.513C60.9661 137.513 64.6876 137.513 67.3595 135.99C68.1229 135.514 68.6 134.658 68.5046 133.706C68.4092 132.373 68.1229 131.136 68.0275 129.804C68.1229 129.804 68.3138 129.709 68.4092 129.709C68.5046 131.326 69.268 133.04 69.6497 134.277C69.936 135.133 70.604 135.419 71.3673 135.229C74.5163 134.753 77.3791 133.135 80.3372 131.897C81.4823 131.802 81.9594 131.136 81.7686 130.375C81.2915 128.566 81.2915 126.473 80.1464 124.95L80.051 124.855C80.051 123.998 79.2876 123.142 78.2379 123.332C77.3161 123.458 76.3962 123.789 75.4906 124.181C74.1451 124.912 72.688 125.547 71.1765 126.08C67.8939 127.322 64.4281 128.051 60.8821 128.374C60.1035 128.461 59.3553 128.528 58.6759 128.566C53.3856 128.841 47.7174 128.758 42.5273 127.308C40.0396 126.683 37.7723 125.772 35.9897 124.475C35.2578 124.018 34.546 123.517 33.8608 122.963C33.5602 122.926 33.2577 122.992 33.0068 123.142Z" fill="white"/>
</svg>
