<svg width="152" height="182" viewBox="0 0 152 182" fill="none" xmlns="http://www.w3.org/2000/svg">
<path fill-rule="evenodd" clip-rule="evenodd" d="M44.614 31.0683C43.9711 32.2397 43.0946 33.1325 42.1013 33.9224C42.0772 33.6508 41.9524 33.3766 41.6759 33.1361C41.1178 32.6488 40.4909 32.2947 39.8587 31.9371C41.2328 30.4737 42.169 28.7129 42.589 26.8262C42.6791 26.82 42.7727 26.8067 42.869 26.7818C44.03 26.4801 45.1678 26.0656 46.368 25.9733C46.0505 27.7545 45.4843 29.4841 44.614 31.0683ZM38.0469 15.5739C36.1164 14.2063 33.7579 13.3579 31.3637 13.1121C31.3637 13.0988 31.3682 13.0872 31.3682 13.0739C31.4092 11.2599 31.8033 9.46282 32.0307 7.66659C32.2046 6.28214 32.5202 4.56844 31.9157 3.22837C36.6817 3.34995 40.3429 6.17742 42.8378 10.0503C42.7059 10.1213 42.5784 10.2181 42.4598 10.3574C40.984 12.0924 39.511 13.8292 38.0469 15.5739ZM16.3247 26.1366C12.7535 23.6765 7.75301 24.6731 3.95446 22.5734C3.7244 22.4456 3.49881 22.3985 3.28391 22.4012C4.4636 17.064 8.23184 12.8982 12.9613 9.80274C13.0086 10.0637 13.1289 10.3033 13.3313 10.4648C15.9805 12.5832 18.3711 14.9589 21.3654 16.5812C18.7768 19.1549 17.1005 22.5388 16.3247 26.1366ZM24.2927 49.3269C24.1982 49.3686 24.1019 49.421 24.0056 49.4938C20.6199 52.0452 18.1776 56.0353 14.5048 58.1741C11.0031 52.1863 8.18721 46.4222 7.42215 44.8292C7.36776 44.7165 7.32139 44.6047 7.26789 44.492C7.44712 44.4361 7.62545 44.3402 7.7922 44.1885C10.5805 41.6637 13.2618 38.4741 16.676 36.7426C16.7384 36.9565 16.7821 37.1784 16.8516 37.3896C18.3666 42.0018 21.0622 45.8605 24.2927 49.3269ZM37.4973 1.66111C29.8824 -1.90029 19.8867 2.98965 13.2767 6.70724C4.40269 11.7001 -0.185892 18.8345 0.232305 29.0856C0.69687 40.4869 7.18829 51.2048 12.9949 60.6918C15.768 65.2214 24.8997 81.273 32.1642 75.2498C32.5155 74.9596 32.635 74.6153 32.6056 74.2851C35.5562 70.4069 38.611 66.6707 42.2705 63.4172C42.7921 62.954 42.793 61.9982 42.2705 61.5349C33.6506 53.8965 22.9184 47.3008 19.143 35.8037C16.4502 27.6053 21.4721 13.9303 31.886 15.8872C38.126 17.0595 42.3097 23.073 39.0096 28.933C37.0479 32.4163 31.7763 31.9042 30.4977 35.4931C29.7906 37.4792 32.5637 39.7565 34.2962 39.8878C37.8558 40.1594 41.196 37.986 43.9005 35.9129C54.8075 27.5547 48.5533 6.83238 37.4973 1.66111Z" fill="#3B3734"/>
<mask id="mask0" mask-type="alpha" maskUnits="userSpaceOnUse" x="95" y="0" width="50" height="77">
<path fill-rule="evenodd" clip-rule="evenodd" d="M95.2813 0.42395H144.661V76.5849H95.2812V0.42395H95.2813Z" fill="white"/>
</mask>
<g mask="url(#mask0)">
<path fill-rule="evenodd" clip-rule="evenodd" d="M98.4992 25.9731C99.6994 26.0654 100.837 26.4799 101.998 26.7816C102.094 26.8065 102.188 26.8198 102.277 26.826C102.698 28.7127 103.634 30.4735 105.008 31.9369C104.376 32.2945 103.749 32.6486 103.191 33.1359C102.915 33.3764 102.79 33.6506 102.766 33.9222C101.773 33.1323 100.896 32.2404 100.253 31.0681C99.3829 29.4839 98.8158 27.7543 98.4992 25.9731ZM102.407 10.3573C102.289 10.218 102.161 10.1221 102.029 10.0502C104.524 6.17732 108.185 3.34985 112.952 3.22827C112.346 4.56834 112.663 6.28204 112.837 7.66737C113.064 9.46272 113.457 11.2598 113.499 13.0738C113.499 13.0871 113.504 13.0987 113.504 13.112C111.109 13.3587 108.751 14.2062 106.82 15.5738C105.355 13.8291 103.883 12.0923 102.407 10.3573ZM123.502 16.5811C126.495 14.9588 128.887 12.5831 131.536 10.4647C131.737 10.3032 131.859 10.0636 131.906 9.80264C136.635 12.899 140.404 17.0639 141.582 22.402C141.368 22.3984 141.143 22.4455 140.912 22.5733C137.114 24.673 132.114 23.6764 128.542 26.1373C127.767 22.5387 126.09 19.1548 123.502 16.5811ZM128.016 37.3895C128.085 37.1783 128.129 36.9564 128.191 36.7425C131.606 38.474 134.287 41.6644 137.075 44.1884C137.242 44.3401 137.419 44.4369 137.599 44.4919C137.546 44.6046 137.5 44.7164 137.445 44.8291C136.679 46.4221 133.864 52.1862 130.362 58.174C126.69 56.0352 124.247 52.0451 120.862 49.4937C120.765 49.4209 120.669 49.3685 120.575 49.3268C123.805 45.8604 126.5 42.0026 128.016 37.3895ZM100.967 35.9127C103.671 37.9859 107.011 40.1593 110.571 39.8886C112.302 39.7564 115.076 37.4791 114.369 35.4939C113.091 31.9049 107.819 32.4161 105.857 28.9328C102.557 23.0729 106.741 17.0603 112.981 15.8871C123.395 13.9302 128.417 27.6052 125.724 35.8036C121.949 47.3007 111.216 53.8964 102.597 61.5348C102.074 61.998 102.075 62.9538 102.597 63.4171C106.256 66.6706 109.311 70.4068 112.261 74.285C112.231 74.616 112.352 74.9595 112.703 75.2497C119.967 81.2738 129.098 65.2222 131.872 60.6917C137.678 51.2056 144.17 40.4867 144.635 29.0855C145.053 18.8343 140.464 11.7 131.589 6.708C124.98 2.9904 114.985 -1.90042 107.37 1.66098C96.3138 6.83224 90.0595 27.5546 100.967 35.9127Z" fill="#3B3734"/>
</g>
<mask id="mask1" mask-type="alpha" maskUnits="userSpaceOnUse" x="0" y="41" width="152" height="141">
<path fill-rule="evenodd" clip-rule="evenodd" d="M0 181.424V41.692L152 41.692V181.424H0H0Z" fill="white"/>
</mask>
<g mask="url(#mask1)">
<path fill-rule="evenodd" clip-rule="evenodd" d="M146.805 127.766C143.486 120.591 138.016 113.305 131.897 107.558C132.819 107.309 133.421 105.914 132.622 105.062C130.93 103.259 129.52 101.302 128.202 99.263C128.567 98.7935 128.696 98.1377 128.33 97.6443C126.623 95.3439 124.712 93.1297 127.038 90.1079C127.455 89.5683 127.192 88.8122 126.812 88.3569C125.192 86.4151 124.396 84.0891 122.938 82.1118C123.349 81.9663 123.775 81.8518 124.235 81.7773C125.119 81.6353 125.611 80.3671 125.101 79.6535C123.599 77.5529 122.533 76.0984 120.59 75.194C123.199 71.5856 121.556 68.4937 117.226 67.2201C117.688 66.4969 118.137 65.7647 118.647 65.0503C119.302 64.13 118.643 63.2461 117.782 63.0162C117.725 62.7793 117.617 62.568 117.459 62.3932C117.785 61.488 117.019 60.1417 115.715 60.3565C113.545 60.7132 111.488 60.4461 109.405 60.0059C109.535 59.4344 109.668 58.862 109.755 58.2798C109.919 57.1687 109.137 56.2644 107.968 56.5013C107.07 56.6833 106.11 56.6158 105.138 56.5359C104.859 56.2848 104.576 56.039 104.29 55.7949C104.348 55.1231 104.412 54.4531 104.59 53.7821C104.848 52.8121 104.125 52.0365 103.189 51.9513C101.319 51.7853 99.5272 51.236 97.6912 50.897C97.726 50.0592 97.6529 49.2578 97.5414 48.2577C97.4407 47.3533 96.6872 46.575 95.7019 46.8643C94.2618 47.285 92.7612 47.1448 91.2774 47.2104C91.355 46.1739 91.4192 45.1347 91.6796 44.1442C92.0139 42.8743 90.6657 41.9353 89.5458 42.5122C87.8614 43.3775 86.021 43.7307 84.2536 44.3315C84.1333 43.807 84.0138 43.2807 83.9317 42.7341C83.7677 41.6345 82.1974 41.3771 81.5055 42.096C78.76 44.9403 75.665 45.3965 72.5842 42.7376C71.7229 41.9948 70.5423 42.3196 70.1562 43.3748C68.5655 47.7305 65.4802 44.9971 63.8975 43.7964C62.8284 42.9852 61.4668 44.3164 61.7646 45.4302C62.0063 46.3381 62.1891 47.2548 62.3933 48.1671C61.4953 48.4502 60.6045 48.7537 59.7245 49.0883C57.5434 48.8895 55.4373 48.2319 53.2223 47.506C52.0944 47.1377 51.307 48.2044 51.4363 49.1487C48.2432 49.4282 45.0439 49.6235 41.8615 50.0237C40.6301 50.1799 39.6305 52.0684 41.1285 52.7189C42.9297 53.5008 44.7648 54.0422 46.6471 54.3865C46.2655 54.6936 45.8829 54.9997 45.495 55.2944C45.1393 55.1755 44.7407 55.1737 44.3555 55.3618C38.0424 58.4564 31.5697 61.2005 25.6338 64.9997C24.6744 65.6156 24.6574 67.4172 25.9807 67.6417C28.3525 68.0455 30.6611 67.9257 32.9732 67.5547C28.7672 70.5055 24.891 73.5176 23.0301 78.7146C22.5807 79.9713 24.1206 80.9146 25.1639 80.3467C25.2807 80.2828 25.393 80.2144 25.509 80.1505C24.3007 82.5556 23.0934 84.9597 21.8852 87.3638C21.1861 88.7572 23.0461 90.4354 24.1661 89.1157C24.4925 88.7323 24.8696 88.4333 25.2736 88.1759C24.7002 90.5596 24.603 92.9709 24.9668 95.5454C25.0435 96.0859 25.5785 96.4808 26.1269 96.5811C25.2709 98.9107 24.1625 101.133 23.1772 103.426C22.7626 104.393 23.2798 105.5 24.2811 105.59C24.0448 106.204 23.8005 106.816 23.5553 107.427C16.4611 115.607 15.8369 127.676 8.2532 135.625C7.97856 135.562 7.6745 135.582 7.36063 135.725C-0.0331701 139.143 -3.98955 151.355 5.92859 154.129C13.9484 156.372 15.3153 145.648 13.9974 139.991C17.6916 132.974 18.7866 124.227 23.5508 117.846C23.4278 119.68 23.5722 121.537 23.624 123.431C23.6605 124.8 25.1327 125.2 26.1037 124.454C26.4283 124.203 26.7627 123.969 27.0988 123.738C26.6405 126.065 26.554 128.402 26.9036 130.884C27.04 131.844 28.3017 132.153 29.0373 131.748C29.0463 131.742 29.0543 131.739 29.0623 131.734C27.715 135.056 26.068 138.253 24.9668 141.68C24.5629 142.936 26.0297 143.896 27.1006 143.314C27.7382 142.965 28.3659 142.601 28.9936 142.238C28.2134 145.56 26.6334 148.725 25.6124 151.96C25.1585 153.4 27.0168 154.31 28.0404 153.367C28.3356 153.095 28.6281 152.828 28.9196 152.561C28.6664 154.064 28.4586 155.578 28.1947 157.101C27.9486 158.52 29.4867 159.513 30.6218 158.508C31.1078 158.076 31.6116 157.673 32.1217 157.282C31.493 159.737 31.4021 162.267 32.0682 164.937C32.2501 165.667 32.8876 165.998 33.5287 165.958C33.691 166.242 33.9621 166.476 34.3731 166.589C36.1565 167.077 37.7776 166.619 39.3665 165.801C39.5895 165.687 39.7366 165.527 39.8525 165.355H41.314C41.5342 165.71 41.9283 165.972 42.5061 165.998C42.565 166 42.6345 166.008 42.6943 166.013C36.5881 168.671 28.1127 174.131 31.9371 178.805C35.0758 182.64 42.5106 181.555 46.4705 179.998C52.1514 177.766 55.9571 172.482 60.2532 168.434C60.3879 168.307 60.4788 168.171 60.5466 168.033C63.3598 167.661 66.1758 167.293 69.0006 167.159C69.1771 167.238 69.384 167.284 69.6203 167.284H74.784C75.2441 167.284 75.5847 167.125 75.8175 166.884C77.4733 166.764 79.1301 166.684 80.777 166.745C81.0097 167.057 81.3753 167.278 81.8862 167.284C87.2024 167.329 92.4776 167.638 97.7367 166.989C101.071 171.296 105.546 174.701 110.576 176.817C113.788 178.166 120.281 179.572 123.119 176.581C126.652 172.86 122.585 168.401 118.277 165.503C118.842 165.442 119.406 165.387 119.974 165.355C121.627 165.266 121.932 163.037 120.361 162.515C120.145 162.443 119.928 162.372 119.712 162.301C120 162.01 120.166 161.619 120.122 161.198C120.566 160.9 120.86 160.368 120.73 159.67C120.681 159.418 120.615 159.171 120.549 158.923C121.471 158.962 122.338 158.04 122.021 157.101C121.933 156.844 121.845 156.59 121.758 156.333C122.691 156.398 123.72 155.514 123.311 154.53C122.623 152.877 122.179 151.162 121.589 149.494C122.003 149.594 122.413 149.714 122.816 149.883C123.895 150.261 124.864 149.11 124.603 148.105C124.458 147.547 124.35 146.981 124.256 146.413C125.274 147.297 126.86 146.171 126.539 144.893L125.22 139.641C125.929 139.818 126.639 139.998 127.334 140.246C128.599 140.697 129.543 139.16 128.975 138.122C127.804 135.984 127.093 133.801 126.562 131.528C126.704 131.601 126.843 131.674 126.987 131.748C127.99 132.257 129.651 131.394 129.121 130.114C128.476 128.556 128.11 126.973 127.743 125.373C128.385 124.992 128.694 124.053 128.33 123.345C127.621 121.97 127.277 120.465 126.934 118.959C127.628 118.723 128.162 118.068 127.831 117.264C127.301 115.979 126.954 114.678 126.665 113.362C132.222 117.789 136.268 123.781 139.976 129.787C141.087 131.585 141.607 132.021 140.527 133.921C140.105 134.661 139.777 135.708 139.78 136.566C139.788 138.343 140.306 140.296 141.949 141.298C150.488 146.505 156.99 130.47 146.805 127.766Z" fill="#7AC7C4"/>
</g>
<path fill-rule="evenodd" clip-rule="evenodd" d="M68.7258 78.9153C68.7819 78.4165 68.6143 77.8893 68.0945 77.529C68.0026 77.4651 67.9135 77.4163 67.8234 77.3604C67.7628 77.269 67.7137 77.174 67.6477 77.0844C67.1199 76.3762 66.0507 76.0416 65.3659 76.7915C65.2883 76.8759 65.234 76.9726 65.1617 77.0587C62.4653 78.3056 61.817 84.4433 65.2759 85.6112C66.7257 86.102 67.8154 85.1089 68.4502 83.9144C68.609 83.7475 68.7276 83.554 68.7623 83.3375C68.7712 83.2754 68.7784 83.2159 68.7864 83.1538C68.8524 82.9728 68.9086 82.7926 68.954 82.6187C69.2733 81.3611 69.2037 80.0503 68.7258 78.9153Z" fill="#3B3734"/>
<path fill-rule="evenodd" clip-rule="evenodd" d="M87.5944 78.9153C87.6515 78.4165 87.483 77.8893 86.964 77.529C86.8722 77.4651 86.783 77.4163 86.692 77.3604C86.6323 77.269 86.5833 77.174 86.5164 77.0844C85.9885 76.3762 84.9203 76.0416 84.2346 76.7915C84.1579 76.8759 84.1035 76.9726 84.0304 77.0587C81.334 78.3056 80.6866 84.4433 84.1454 85.6112C85.5953 86.102 86.684 85.1089 87.3189 83.9144C87.4785 83.7475 87.5971 83.554 87.631 83.3375C87.6408 83.2754 87.647 83.2159 87.656 83.1538C87.721 82.9728 87.7781 82.7926 87.8227 82.6187C88.1419 81.3611 88.0724 80.0503 87.5944 78.9153Z" fill="#3B3734"/>
<path fill-rule="evenodd" clip-rule="evenodd" d="M102.083 115.24C100.784 113.585 99.6119 111.834 98.1344 110.351C99.702 110.077 101.261 109.748 102.812 109.356C102.632 111.321 102.343 113.28 102.083 115.24ZM85.1248 111.471C88.0851 111.438 91.0348 111.28 93.9658 110.945C92.6577 112.98 91.4057 115.05 90.0326 117.04C88.5595 115.054 86.7895 113.313 85.1248 111.471ZM77.113 116.886C75.5766 114.934 74.0376 112.984 72.5244 111.014C73.5329 111.069 74.5423 111.124 75.5517 111.192C77.3707 111.313 79.1897 111.398 81.0061 111.445C79.6052 113.178 78.6922 115.311 77.113 116.886ZM65.8172 116.167C64.7383 114.317 63.3544 112.646 62.0882 110.904C62.1614 110.753 62.2149 110.596 62.2345 110.43C64.4895 110.602 66.7481 110.719 69.0077 110.833C67.9305 112.604 66.9381 114.425 65.8172 116.167ZM53.8537 115.21C53.0423 113.015 52.509 110.708 52.0605 108.404C54.1346 108.973 56.189 109.651 58.3183 110.028C56.5501 111.377 55.2349 113.4 53.8537 115.21ZM105.655 105.575C104.983 104.608 103.084 104.856 102.992 106.314C93.363 108.871 83.723 108.661 73.7719 108.159C68.3692 107.886 61.9465 108.459 56.7275 106.926C54.9102 106.392 53.0903 105.768 51.241 105.293C50.9262 104.989 50.4714 104.908 50.0345 105.007C49.2391 104.837 48.4375 104.702 47.6261 104.626C45.7607 104.45 45.7776 107.343 47.6261 107.517C48.0817 107.56 48.532 107.628 48.9814 107.704C49.6912 111.461 50.5267 115.218 52.1817 118.688C52.582 119.525 53.8563 119.616 54.4635 118.979C56.1791 117.182 57.7145 113.961 59.8876 112.372C61.5131 114.536 63.3865 116.626 64.337 119.137C64.7668 120.274 66.0669 120.401 66.7811 119.456C68.2988 117.445 69.4999 115.242 70.7759 113.08C72.495 115.306 74.2418 117.512 75.9761 119.725C76.3132 120.154 77.1612 120.253 77.5963 119.933C80.0627 118.117 81.1256 115.324 83.0454 113.129C83.0685 113.159 83.0837 113.188 83.1096 113.216C85.1025 115.438 87.3076 117.466 88.8448 120.047C89.4021 120.983 90.5658 120.82 91.1543 120.047C93.0027 117.617 94.5444 114.99 96.1878 112.426C98.4072 114.564 99.8597 117.503 102.117 119.622C103.093 120.539 104.483 119.837 104.596 118.6C104.904 115.239 105.532 111.895 105.781 108.528C105.891 108.492 106.003 108.463 106.113 108.428C107.785 107.904 107.215 105.41 105.655 105.575Z" fill="#3B3734"/>
<path fill-rule="evenodd" clip-rule="evenodd" d="M41.0014 81.0888C41.4178 79.274 38.6171 78.5028 38.2007 80.3203C37.7985 82.0757 37.8716 83.8258 38.2007 85.5865C38.5422 87.4183 41.342 86.6399 41.0014 84.8171C40.7723 83.5862 40.7214 82.3153 41.0014 81.0888Z" fill="white"/>
<path fill-rule="evenodd" clip-rule="evenodd" d="M46.541 63.6775V68.4964C46.541 70.361 49.4461 70.361 49.4461 68.4964V63.6775C49.4461 61.8129 46.541 61.8129 46.541 63.6775Z" fill="white"/>
<path fill-rule="evenodd" clip-rule="evenodd" d="M73.6033 96.7044C73.1762 94.8895 70.3763 95.659 70.8016 97.4729C71.046 98.5122 71.0718 99.5594 71.0727 100.623C71.0727 102.487 73.9778 102.487 73.9778 100.623C73.9769 99.3038 73.9056 97.9939 73.6033 96.7044Z" fill="white"/>
<path fill-rule="evenodd" clip-rule="evenodd" d="M71.6671 60.7238C71.3247 58.8921 68.5257 59.6704 68.8655 61.4915C69.1196 62.8502 69.1356 64.2266 69.1365 65.6049C69.1365 67.4703 72.0416 67.4703 72.0416 65.6049C72.0407 63.963 71.9694 62.3416 71.6671 60.7238Z" fill="white"/>
<path fill-rule="evenodd" clip-rule="evenodd" d="M89.4182 63.6151C89.1221 62.3424 89.0695 61.0325 88.7735 59.7599C88.3508 57.9433 85.5501 58.7145 85.9718 60.5276C86.2679 61.8002 86.3214 63.111 86.6174 64.3836C87.0401 66.1994 89.8417 65.4299 89.4182 63.6151Z" fill="white"/>
<path fill-rule="evenodd" clip-rule="evenodd" d="M106.578 72.6735V80.3838C106.578 82.2484 109.484 82.2484 109.484 80.3838V72.6735C109.484 70.8081 106.578 70.8081 106.578 72.6735Z" fill="white"/>
<path fill-rule="evenodd" clip-rule="evenodd" d="M99.1539 90.0207C99.1539 91.4025 99.1414 92.7737 98.8838 94.1341C98.5396 95.9552 101.339 96.7335 101.685 94.9036C101.993 93.2813 102.059 91.667 102.06 90.0207C102.061 88.1562 99.1557 88.1562 99.1539 90.0207Z" fill="white"/>
<path fill-rule="evenodd" clip-rule="evenodd" d="M112.389 94.8392V97.0889C112.389 98.9535 115.294 98.9535 115.294 97.0889V94.8392C115.294 92.9755 112.389 92.9755 112.389 94.8392Z" fill="white"/>
<path fill-rule="evenodd" clip-rule="evenodd" d="M40.0338 109.555C39.6959 107.723 36.8969 108.501 37.233 110.323C37.5407 111.992 37.5032 113.711 37.5041 115.4C37.505 117.265 40.4101 117.265 40.4092 115.4C40.4083 113.441 40.3905 111.488 40.0338 109.555Z" fill="white"/>
<path fill-rule="evenodd" clip-rule="evenodd" d="M47.1873 143.028C47.1686 141.164 44.2635 141.162 44.2813 143.028C44.3045 145.388 44.5818 147.736 44.605 150.096C44.622 151.959 47.5279 151.961 47.5092 150.096C47.4869 147.736 47.2096 145.388 47.1873 143.028Z" fill="white"/>
<path fill-rule="evenodd" clip-rule="evenodd" d="M50.7363 132.427V136.924C50.7363 138.789 53.6414 138.789 53.6414 136.924V132.427C53.6414 130.562 50.7363 130.562 50.7363 132.427Z" fill="white"/>
<path fill-rule="evenodd" clip-rule="evenodd" d="M64.2939 130.178V136.925C64.2939 138.789 67.1999 138.789 67.1999 136.925V130.178C67.1999 128.313 64.2939 128.313 64.2939 130.178Z" fill="white"/>
<path fill-rule="evenodd" clip-rule="evenodd" d="M62.9507 157.743C62.372 155.649 62.0564 153.553 62.0341 151.381C62.0154 149.517 59.1103 149.515 59.129 151.381C59.154 153.799 59.5044 156.181 60.1491 158.511C60.6466 160.307 63.4501 159.544 62.9507 157.743Z" fill="white"/>
<path fill-rule="evenodd" clip-rule="evenodd" d="M78.8193 128.25V134.034C78.8193 135.898 81.7244 135.898 81.7244 134.034V128.25C81.7244 126.386 78.8193 126.386 78.8193 128.25Z" fill="white"/>
<path fill-rule="evenodd" clip-rule="evenodd" d="M82.9631 149.711C82.5306 147.898 79.729 148.668 80.1614 150.481C80.412 151.526 80.4325 152.559 80.4334 153.63C80.4334 155.494 83.3385 155.494 83.3385 153.63C83.3376 152.305 83.2725 151.006 82.9631 149.711Z" fill="white"/>
<path fill-rule="evenodd" clip-rule="evenodd" d="M97.1661 131.4C96.8433 129.473 96.5205 127.545 96.1978 125.617C95.8901 123.782 93.092 124.563 93.3961 126.386C93.7198 128.313 94.0426 130.241 94.3645 132.168C94.6712 134.005 97.4711 133.224 97.1661 131.4Z" fill="white"/>
<path fill-rule="evenodd" clip-rule="evenodd" d="M114.597 130.114C114.313 128.277 111.514 129.061 111.795 130.884C112.087 132.771 112.066 134.699 112.066 136.604C112.066 138.467 114.972 138.467 114.971 136.604C114.971 134.427 114.929 132.27 114.597 130.114Z" fill="white"/>
<path fill-rule="evenodd" clip-rule="evenodd" d="M101.686 146.947C102.028 145.124 99.2273 144.347 98.884 146.177C98.5095 148.172 98.5692 150.089 98.884 152.087C99.0079 152.866 99.9727 153.288 100.671 153.097C101.497 152.87 101.809 152.096 101.686 151.318C101.456 149.868 101.415 148.393 101.686 146.947Z" fill="white"/>
<path fill-rule="evenodd" clip-rule="evenodd" d="M85.6499 100.88C85.3262 102.277 85.2754 103.692 85.2754 105.119C85.2736 106.985 88.1796 106.985 88.1805 105.119C88.1805 103.952 88.1858 102.793 88.4507 101.649C88.8715 99.8346 86.0717 99.0643 85.6499 100.88Z" fill="white"/>
</svg>
