<svg width="152" height="181" viewBox="0 0 152 181" fill="none" xmlns="http://www.w3.org/2000/svg">
<path fill-rule="evenodd" clip-rule="evenodd" d="M44.614 30.6444C43.9711 31.8159 43.0946 32.7087 42.1013 33.4985C42.0772 33.227 41.9524 32.9527 41.6759 32.7122C41.1178 32.225 40.4909 31.8709 39.8587 31.5133C41.2328 30.0498 42.169 28.2891 42.589 26.4023C42.6791 26.3961 42.7727 26.3828 42.869 26.358C44.03 26.0562 45.1678 25.6418 46.368 25.5495C46.0505 27.3306 45.4843 29.0603 44.614 30.6444ZM38.0469 15.1501C36.1164 13.7825 33.7579 12.9341 31.3637 12.6883C31.3637 12.675 31.3682 12.6634 31.3682 12.6501C31.4092 10.8361 31.8033 9.03903 32.0307 7.24279C32.2046 5.85835 32.5202 4.14465 31.9157 2.80457C36.6817 2.92616 40.3429 5.75362 42.8378 9.62653C42.7059 9.69753 42.5784 9.79426 42.4598 9.93359C40.984 11.6686 39.511 13.4054 38.0469 15.1501ZM16.3247 25.7127C12.7535 23.2527 7.75301 24.2493 3.95446 22.1495C3.7244 22.0217 3.49881 21.9747 3.28391 21.9774C4.4636 16.6401 8.23184 12.4744 12.9613 9.37889C13.0086 9.63981 13.1289 9.87943 13.3313 10.0409C15.9805 12.1593 18.3711 14.5351 21.3654 16.1574C18.7768 18.731 17.1005 22.1149 16.3247 25.7127ZM24.2927 48.9031C24.1982 48.9448 24.1019 48.9972 24.0056 49.0699C20.6199 51.6214 18.1776 55.6114 14.5048 57.7502C11.0031 51.7625 8.18721 45.9984 7.42215 44.4054C7.36776 44.2927 7.32139 44.1809 7.26789 44.0682C7.44712 44.0123 7.62545 43.9164 7.7922 43.7646C10.5805 41.2398 13.2618 38.0503 16.676 36.3188C16.7384 36.5327 16.7821 36.7546 16.8516 36.9658C18.3666 41.5779 21.0622 45.4366 24.2927 48.9031ZM37.4973 1.23728C29.8824 -2.32412 19.8867 2.56582 13.2767 6.28342C4.40269 11.2763 -0.185892 18.4106 0.232305 28.6618C0.69687 40.063 7.18829 50.781 12.9949 60.268C15.768 64.7976 24.8997 80.8492 32.1642 74.826C32.5155 74.5358 32.635 74.1915 32.6056 73.8613C35.5562 69.9831 38.611 66.2468 42.2705 62.9934C42.7921 62.5301 42.793 61.5743 42.2705 61.1111C33.6506 53.4727 22.9184 46.877 19.143 35.3799C16.4502 27.1815 21.4721 13.5065 31.886 15.4634C38.126 16.6357 42.3097 22.6492 39.0096 28.5091C37.0479 31.9924 31.7763 31.4804 30.4977 35.0693C29.7906 37.0554 32.5637 39.3327 34.2962 39.464C37.8558 39.7356 41.196 37.5622 43.9005 35.489C54.8075 27.1309 48.5533 6.40855 37.4973 1.23728Z" fill="#263958"/>
<mask id="mask0" mask-type="alpha" maskUnits="userSpaceOnUse" x="95" y="0" width="50" height="77">
<path fill-rule="evenodd" clip-rule="evenodd" d="M95.2813 0.00012207H144.661V76.1611H95.2812V0.00012207H95.2813Z" fill="white"/>
</mask>
<g mask="url(#mask0)">
<path fill-rule="evenodd" clip-rule="evenodd" d="M98.4992 25.5493C99.6994 25.6416 100.837 26.0561 101.998 26.3578C102.094 26.3827 102.188 26.396 102.277 26.4022C102.698 28.2889 103.634 30.0497 105.008 31.5131C104.376 31.8708 103.749 32.2249 103.191 32.7121C102.915 32.9526 102.79 33.2268 102.766 33.4984C101.773 32.7085 100.896 31.8166 100.253 30.6443C99.3829 29.0602 98.8158 27.3305 98.4992 25.5493ZM102.407 9.93345C102.289 9.79412 102.161 9.69827 102.029 9.62639C104.524 5.75348 108.185 2.92602 112.952 2.80443C112.346 4.14451 112.663 5.85821 112.837 7.24354C113.064 9.03889 113.457 10.836 113.499 12.65C113.499 12.6633 113.504 12.6748 113.504 12.6881C111.109 12.9349 108.751 13.7824 106.82 15.15C105.355 13.4052 103.883 11.6684 102.407 9.93345ZM123.502 16.1573C126.495 14.535 128.887 12.1592 131.536 10.0409C131.737 9.87934 131.859 9.63972 131.906 9.3788C136.635 12.4752 140.404 16.6401 141.582 21.9782C141.368 21.9746 141.143 22.0216 140.912 22.1494C137.114 24.2492 132.114 23.2526 128.542 25.7135C127.767 22.1148 126.09 18.7309 123.502 16.1573ZM128.016 36.9657C128.085 36.7545 128.129 36.5326 128.191 36.3188C131.606 38.0502 134.287 41.2407 137.075 43.7646C137.242 43.9164 137.419 44.0131 137.599 44.0681C137.546 44.1808 137.5 44.2926 137.445 44.4054C136.679 45.9984 133.864 51.7625 130.362 57.7502C126.69 55.6114 124.247 51.6213 120.862 49.0699C120.765 48.9971 120.669 48.9447 120.575 48.903C123.805 45.4366 126.5 41.5788 128.016 36.9657ZM100.967 35.4889C103.671 37.562 107.011 39.7354 110.571 39.4648C112.302 39.3325 115.076 37.0553 114.369 35.07C113.091 31.4811 107.819 31.9923 105.857 28.509C102.557 22.649 106.741 16.6365 112.981 15.4632C123.395 13.5064 128.417 27.1813 125.724 35.3798C121.949 46.8769 111.216 53.4725 102.597 61.1109C102.074 61.5742 102.075 62.53 102.597 62.9933C106.256 66.2467 109.311 69.9829 112.261 73.8612C112.231 74.1922 112.352 74.5357 112.703 74.8259C119.967 80.85 129.098 64.7984 131.872 60.2679C137.678 50.7817 144.17 40.0629 144.635 28.6616C145.053 18.4105 140.464 11.2762 131.589 6.28417C124.98 2.56657 114.985 -2.32425 107.37 1.23715C96.3138 6.40842 90.0595 27.1308 100.967 35.4889Z" fill="#263958"/>
</g>
<mask id="mask1" mask-type="alpha" maskUnits="userSpaceOnUse" x="0" y="41" width="152" height="141">
<path fill-rule="evenodd" clip-rule="evenodd" d="M0 181V41.2682L152 41.2682V181H0H0Z" fill="white"/>
</mask>
<g mask="url(#mask1)">
<path fill-rule="evenodd" clip-rule="evenodd" d="M146.805 127.342C143.486 120.168 138.016 112.882 131.897 107.134C132.819 106.885 133.421 105.49 132.622 104.638C130.93 102.835 129.52 100.879 128.202 98.8392C128.567 98.3697 128.696 97.7139 128.33 97.2204C126.623 94.9201 124.712 92.7059 127.038 89.6841C127.455 89.1445 127.192 88.3884 126.812 87.9331C125.192 85.9913 124.396 83.6653 122.938 81.688C123.349 81.5425 123.775 81.428 124.235 81.3534C125.119 81.2114 125.611 79.9432 125.101 79.2297C123.599 77.1291 122.533 75.6745 120.59 74.7702C123.199 71.1618 121.556 68.0698 117.226 66.7963C117.688 66.073 118.137 65.3409 118.647 64.6265C119.302 63.7062 118.643 62.8222 117.782 62.5924C117.725 62.3554 117.617 62.1442 117.459 61.9694C117.785 61.0642 117.019 59.7179 115.715 59.9327C113.545 60.2894 111.488 60.0223 109.405 59.5821C109.535 59.0106 109.668 58.4382 109.755 57.856C109.919 56.7449 109.137 55.8405 107.968 56.0775C107.07 56.2594 106.11 56.192 105.138 56.1121C104.859 55.861 104.576 55.6151 104.29 55.3711C104.348 54.6993 104.412 54.0292 104.59 53.3583C104.848 52.3883 104.125 51.6127 103.189 51.5275C101.319 51.3615 99.5272 50.8122 97.6912 50.4731C97.726 49.6354 97.6529 48.834 97.5414 47.8338C97.4407 46.9295 96.6872 46.1512 95.7019 46.4405C94.2618 46.8612 92.7612 46.7209 91.2774 46.7866C91.355 45.7501 91.4192 44.7108 91.6796 43.7204C92.0139 42.4505 90.6657 41.5115 89.5458 42.0884C87.8614 42.9536 86.021 43.3069 84.2536 43.9077C84.1333 43.3832 84.0138 42.8569 83.9317 42.3102C83.7677 41.2107 82.1974 40.9533 81.5055 41.6721C78.76 44.5165 75.665 44.9726 72.5842 42.3138C71.7229 41.571 70.5423 41.8958 70.1562 42.951C68.5655 47.3067 65.4802 44.5733 63.8975 43.3725C62.8284 42.5614 61.4668 43.8926 61.7646 45.0064C62.0063 45.9142 62.1891 46.831 62.3933 47.7433C61.4953 48.0264 60.6045 48.3299 59.7245 48.6645C57.5434 48.4657 55.4373 47.8081 53.2223 47.0821C52.0944 46.7138 51.307 47.7806 51.4363 48.7248C48.2432 49.0044 45.0439 49.1996 41.8615 49.5999C40.6301 49.7561 39.6305 51.6446 41.1285 52.2951C42.9297 53.077 44.7648 53.6183 46.6471 53.9627C46.2655 54.2697 45.8829 54.5759 45.495 54.8705C45.1393 54.7516 44.7407 54.7498 44.3555 54.938C38.0424 58.0326 31.5697 60.7766 25.6338 64.5759C24.6744 65.1918 24.6574 66.9933 25.9807 67.2179C28.3525 67.6217 30.6611 67.5019 32.9732 67.1309C28.7672 70.0817 24.891 73.0938 23.0301 78.2908C22.5807 79.5474 24.1206 80.4908 25.1639 79.9228C25.2807 79.8589 25.393 79.7906 25.509 79.7267C24.3007 82.1317 23.0934 84.5359 21.8852 86.94C21.1861 88.3333 23.0461 90.0116 24.1661 88.6919C24.4925 88.3085 24.8696 88.0094 25.2736 87.7521C24.7002 90.1358 24.603 92.547 24.9668 95.1216C25.0435 95.662 25.5785 96.057 26.1269 96.1572C25.2709 98.4869 24.1625 100.709 23.1772 103.002C22.7626 103.969 23.2798 105.076 24.2811 105.166C24.0448 105.78 23.8005 106.392 23.5553 107.003C16.4611 115.184 15.8369 127.252 8.2532 135.201C7.97856 135.138 7.6745 135.158 7.36063 135.302C-0.0331701 138.719 -3.98955 150.931 5.92859 153.705C13.9484 155.949 15.3153 145.224 13.9974 139.567C17.6916 132.55 18.7866 123.803 23.5508 117.422C23.4278 119.256 23.5722 121.113 23.624 123.008C23.6605 124.376 25.1327 124.776 26.1037 124.03C26.4283 123.78 26.7627 123.545 27.0988 123.314C26.6405 125.642 26.554 127.978 26.9036 130.46C27.04 131.42 28.3017 131.729 29.0373 131.324C29.0463 131.318 29.0543 131.315 29.0623 131.31C27.715 134.632 26.068 137.829 24.9668 141.257C24.5629 142.512 26.0297 143.473 27.1006 142.89C27.7382 142.542 28.3659 142.177 28.9936 141.814C28.2134 145.137 26.6334 148.301 25.6124 151.536C25.1585 152.976 27.0168 153.886 28.0404 152.944C28.3356 152.671 28.6281 152.404 28.9196 152.137C28.6664 153.64 28.4586 155.154 28.1947 156.677C27.9486 158.096 29.4867 159.089 30.6218 158.084C31.1078 157.652 31.6116 157.25 32.1217 156.858C31.493 159.313 31.4021 161.843 32.0682 164.513C32.2501 165.243 32.8876 165.574 33.5287 165.534C33.691 165.818 33.9621 166.052 34.3731 166.165C36.1565 166.653 37.7776 166.195 39.3665 165.377C39.5895 165.263 39.7366 165.104 39.8525 164.931H41.314C41.5342 165.286 41.9283 165.548 42.5061 165.574C42.565 165.577 42.6345 165.585 42.6943 165.589C36.5881 168.247 28.1127 173.707 31.9371 178.381C35.0758 182.217 42.5106 181.131 46.4705 179.575C52.1514 177.343 55.9571 172.058 60.2532 168.01C60.3879 167.883 60.4788 167.747 60.5466 167.609C63.3598 167.237 66.1758 166.869 69.0006 166.735C69.1771 166.814 69.384 166.86 69.6203 166.86H74.784C75.2441 166.86 75.5847 166.701 75.8175 166.461C77.4733 166.34 79.1301 166.26 80.777 166.321C81.0097 166.634 81.3753 166.854 81.8862 166.86C87.2024 166.905 92.4776 167.214 97.7367 166.565C101.071 170.872 105.546 174.277 110.576 176.393C113.788 177.742 120.281 179.148 123.119 176.157C126.652 172.436 122.585 167.977 118.277 165.079C118.842 165.018 119.406 164.963 119.974 164.931C121.627 164.842 121.932 162.613 120.361 162.092C120.145 162.02 119.928 161.949 119.712 161.877C120 161.587 120.166 161.195 120.122 160.775C120.566 160.476 120.86 159.944 120.73 159.246C120.681 158.994 120.615 158.748 120.549 158.499C121.471 158.538 122.338 157.616 122.021 156.677C121.933 156.421 121.845 156.166 121.758 155.909C122.691 155.974 123.72 155.09 123.311 154.106C122.623 152.453 122.179 150.738 121.589 149.071C122.003 149.17 122.413 149.29 122.816 149.459C123.895 149.837 124.864 148.686 124.603 147.681C124.458 147.124 124.35 146.557 124.256 145.989C125.274 146.873 126.86 145.747 126.539 144.469L125.22 139.217C125.929 139.394 126.639 139.574 127.334 139.822C128.599 140.273 129.543 138.736 128.975 137.699C127.804 135.56 127.093 133.378 126.562 131.104C126.704 131.178 126.843 131.25 126.987 131.324C127.99 131.833 129.651 130.97 129.121 129.69C128.476 128.133 128.11 126.549 127.743 124.949C128.385 124.569 128.694 123.63 128.33 122.921C127.621 121.546 127.277 120.042 126.934 118.535C127.628 118.3 128.162 117.644 127.831 116.841C127.301 115.555 126.954 114.254 126.665 112.938C132.222 117.365 136.268 123.357 139.976 129.363C141.087 131.161 141.607 131.597 140.527 133.497C140.105 134.238 139.777 135.284 139.78 136.142C139.788 137.92 140.306 139.872 141.949 140.874C150.488 146.081 156.99 130.046 146.805 127.342Z" fill="#263958"/>
</g>
<path fill-rule="evenodd" clip-rule="evenodd" d="M68.7258 78.4913C68.7819 77.9925 68.6143 77.4654 68.0945 77.1051C68.0026 77.0412 67.9135 76.9924 67.8234 76.9365C67.7628 76.8451 67.7137 76.7501 67.6477 76.6605C67.1199 75.9523 66.0507 75.6177 65.3659 76.3676C65.2883 76.4519 65.234 76.5486 65.1617 76.6347C62.4653 77.8816 61.817 84.0193 65.2759 85.1872C66.7257 85.678 67.8154 84.6849 68.4502 83.4904C68.609 83.3236 68.7276 83.1301 68.7623 82.9135C68.7712 82.8514 68.7784 82.792 68.7864 82.7298C68.8524 82.5488 68.9086 82.3686 68.954 82.1947C69.2733 80.9372 69.2037 79.6264 68.7258 78.4913Z" fill="#F73859"/>
<path fill-rule="evenodd" clip-rule="evenodd" d="M87.5944 78.4913C87.6515 77.9925 87.483 77.4654 86.964 77.1051C86.8722 77.0412 86.783 76.9924 86.692 76.9365C86.6323 76.8451 86.5833 76.7501 86.5164 76.6605C85.9885 75.9523 84.9203 75.6177 84.2346 76.3676C84.1579 76.4519 84.1035 76.5486 84.0304 76.6347C81.334 77.8816 80.6866 84.0193 84.1454 85.1872C85.5953 85.678 86.684 84.6849 87.3189 83.4904C87.4785 83.3236 87.5971 83.1301 87.631 82.9135C87.6408 82.8514 87.647 82.792 87.656 82.7298C87.721 82.5488 87.7781 82.3686 87.8227 82.1947C88.1419 80.9372 88.0724 79.6264 87.5944 78.4913Z" fill="#F73859"/>
<path fill-rule="evenodd" clip-rule="evenodd" d="M102.083 114.817C100.784 113.162 99.6119 111.411 98.1344 109.927C99.702 109.653 101.261 109.324 102.812 108.932C102.632 110.898 102.343 112.856 102.083 114.817ZM85.1248 111.047C88.0851 111.014 91.0348 110.856 93.9658 110.521C92.6577 112.556 91.4057 114.626 90.0326 116.617C88.5595 114.63 86.7895 112.889 85.1248 111.047ZM77.113 116.462C75.5766 114.51 74.0376 112.56 72.5244 110.591C73.5329 110.645 74.5423 110.7 75.5517 110.768C77.3707 110.889 79.1897 110.974 81.0061 111.021C79.6052 112.754 78.6922 114.887 77.113 116.462ZM65.8172 115.743C64.7383 113.893 63.3544 112.222 62.0882 110.481C62.1614 110.329 62.2149 110.172 62.2345 110.007C64.4895 110.178 66.7481 110.295 69.0077 110.409C67.9305 112.18 66.9381 114.001 65.8172 115.743ZM53.8537 114.787C53.0423 112.591 52.509 110.285 52.0605 107.981C54.1346 108.55 56.189 109.228 58.3183 109.605C56.5501 110.954 55.2349 112.976 53.8537 114.787ZM105.655 105.151C104.983 104.184 103.084 104.433 102.992 105.891C93.363 108.447 83.723 108.237 73.7719 107.736C68.3692 107.462 61.9465 108.036 56.7275 106.502C54.9102 105.968 53.0903 105.344 51.241 104.869C50.9262 104.565 50.4714 104.484 50.0345 104.583C49.2391 104.413 48.4375 104.278 47.6261 104.202C45.7607 104.026 45.7776 106.919 47.6261 107.093C48.0817 107.137 48.532 107.204 48.9814 107.28C49.6912 111.037 50.5267 114.795 52.1817 118.264C52.582 119.101 53.8563 119.192 54.4635 118.556C56.1791 116.759 57.7145 113.537 59.8876 111.948C61.5131 114.112 63.3865 116.202 64.337 118.714C64.7668 119.85 66.0669 119.977 66.7811 119.032C68.2988 117.021 69.4999 114.819 70.7759 112.657C72.495 114.882 74.2418 117.088 75.9761 119.301C76.3132 119.731 77.1612 119.829 77.5963 119.509C80.0627 117.693 81.1256 114.9 83.0454 112.705C83.0685 112.735 83.0837 112.764 83.1096 112.792C85.1025 115.015 87.3076 117.043 88.8448 119.623C89.4021 120.56 90.5658 120.396 91.1543 119.623C93.0027 117.193 94.5444 114.566 96.1878 112.002C98.4072 114.141 99.8597 117.079 102.117 119.198C103.093 120.115 104.483 119.413 104.596 118.176C104.904 114.815 105.532 111.471 105.781 108.104C105.891 108.068 106.003 108.039 106.113 108.005C107.785 107.48 107.215 104.986 105.655 105.151Z" fill="#F73859"/>
<path fill-rule="evenodd" clip-rule="evenodd" d="M41.0014 80.6649C41.4178 78.85 38.6171 78.0788 38.2007 79.8964C37.7985 81.6518 37.8716 83.4018 38.2007 85.1626C38.5422 86.9943 41.342 86.216 41.0014 84.3931C40.7723 83.1622 40.7214 81.8914 41.0014 80.6649Z" fill="white"/>
<path fill-rule="evenodd" clip-rule="evenodd" d="M46.541 63.2536V68.0726C46.541 69.9372 49.4461 69.9372 49.4461 68.0726V63.2536C49.4461 61.3891 46.541 61.3891 46.541 63.2536Z" fill="white"/>
<path fill-rule="evenodd" clip-rule="evenodd" d="M73.6033 96.2804C73.1762 94.4656 70.3763 95.235 70.8016 97.049C71.046 98.0882 71.0718 99.1354 71.0727 100.199C71.0727 102.063 73.9778 102.063 73.9778 100.199C73.9769 98.8798 73.9056 97.5699 73.6033 96.2804Z" fill="white"/>
<path fill-rule="evenodd" clip-rule="evenodd" d="M71.6671 60.3C71.3247 58.4682 68.5257 59.2465 68.8655 61.0676C69.1196 62.4263 69.1356 63.8028 69.1365 65.181C69.1365 67.0465 72.0416 67.0465 72.0416 65.181C72.0407 63.5392 71.9694 61.9178 71.6671 60.3Z" fill="white"/>
<path fill-rule="evenodd" clip-rule="evenodd" d="M89.4182 63.1912C89.1221 61.9186 89.0695 60.6087 88.7735 59.3361C88.3508 57.5194 85.5501 58.2906 85.9718 60.1037C86.2679 61.3764 86.3214 62.6871 86.6174 63.9598C87.0401 65.7755 89.8417 65.0061 89.4182 63.1912Z" fill="white"/>
<path fill-rule="evenodd" clip-rule="evenodd" d="M106.578 72.2497V79.96C106.578 81.8245 109.484 81.8245 109.484 79.96V72.2497C109.484 70.3842 106.578 70.3842 106.578 72.2497Z" fill="white"/>
<path fill-rule="evenodd" clip-rule="evenodd" d="M99.1539 89.5968C99.1539 90.9786 99.1414 92.3497 98.8838 93.7102C98.5396 95.5313 101.339 96.3096 101.685 94.4796C101.993 92.8573 102.059 91.243 102.06 89.5968C102.061 87.7322 99.1557 87.7322 99.1539 89.5968Z" fill="white"/>
<path fill-rule="evenodd" clip-rule="evenodd" d="M112.389 94.4155V96.6652C112.389 98.5297 115.294 98.5297 115.294 96.6652V94.4155C115.294 92.5518 112.389 92.5518 112.389 94.4155Z" fill="white"/>
<path fill-rule="evenodd" clip-rule="evenodd" d="M40.0338 109.131C39.6959 107.299 36.8969 108.077 37.233 109.899C37.5407 111.568 37.5032 113.287 37.5041 114.976C37.505 116.841 40.4101 116.841 40.4092 114.976C40.4083 113.017 40.3905 111.064 40.0338 109.131Z" fill="white"/>
<path fill-rule="evenodd" clip-rule="evenodd" d="M47.1873 142.605C47.1686 140.74 44.2635 140.738 44.2813 142.605C44.3045 144.964 44.5818 147.313 44.605 149.672C44.622 151.535 47.5279 151.537 47.5092 149.672C47.4869 147.313 47.2096 144.964 47.1873 142.605Z" fill="white"/>
<path fill-rule="evenodd" clip-rule="evenodd" d="M50.7363 132.003V136.5C50.7363 138.365 53.6414 138.365 53.6414 136.5V132.003C53.6414 130.138 50.7363 130.138 50.7363 132.003Z" fill="white"/>
<path fill-rule="evenodd" clip-rule="evenodd" d="M64.2939 129.755V136.501C64.2939 138.365 67.1999 138.365 67.1999 136.501V129.755C67.1999 127.889 64.2939 127.889 64.2939 129.755Z" fill="white"/>
<path fill-rule="evenodd" clip-rule="evenodd" d="M62.9507 157.319C62.372 155.225 62.0564 153.129 62.0341 150.957C62.0154 149.093 59.1103 149.091 59.129 150.957C59.154 153.375 59.5044 155.757 60.1491 158.087C60.6466 159.883 63.4501 159.12 62.9507 157.319Z" fill="white"/>
<path fill-rule="evenodd" clip-rule="evenodd" d="M78.8193 127.826V133.61C78.8193 135.474 81.7244 135.474 81.7244 133.61V127.826C81.7244 125.962 78.8193 125.962 78.8193 127.826Z" fill="white"/>
<path fill-rule="evenodd" clip-rule="evenodd" d="M82.9631 149.288C82.5306 147.474 79.729 148.244 80.1614 150.057C80.412 151.102 80.4325 152.135 80.4334 153.206C80.4334 155.07 83.3385 155.07 83.3385 153.206C83.3376 151.881 83.2725 150.582 82.9631 149.288Z" fill="white"/>
<path fill-rule="evenodd" clip-rule="evenodd" d="M97.1661 130.977C96.8433 129.049 96.5205 127.121 96.1978 125.193C95.8901 123.358 93.092 124.139 93.3961 125.962C93.7198 127.889 94.0426 129.817 94.3645 131.744C94.6712 133.581 97.4711 132.8 97.1661 130.977Z" fill="white"/>
<path fill-rule="evenodd" clip-rule="evenodd" d="M114.597 129.69C114.313 127.853 111.514 128.637 111.795 130.46C112.087 132.348 112.066 134.275 112.066 136.18C112.066 138.043 114.972 138.043 114.971 136.18C114.971 134.003 114.929 131.846 114.597 129.69Z" fill="white"/>
<path fill-rule="evenodd" clip-rule="evenodd" d="M101.686 146.523C102.028 144.7 99.2273 143.923 98.884 145.753C98.5095 147.748 98.5692 149.665 98.884 151.663C99.0079 152.442 99.9727 152.864 100.671 152.673C101.497 152.446 101.809 151.672 101.686 150.895C101.456 149.444 101.415 147.969 101.686 146.523Z" fill="white"/>
<path fill-rule="evenodd" clip-rule="evenodd" d="M85.6499 100.456C85.3262 101.853 85.2754 103.268 85.2754 104.695C85.2736 106.561 88.1796 106.561 88.1805 104.695C88.1805 103.528 88.1858 102.369 88.4507 101.225C88.8715 99.4106 86.0717 98.6403 85.6499 100.456Z" fill="white"/>
</svg>
