<svg width="152" height="182" viewBox="0 0 152 182" fill="none" xmlns="http://www.w3.org/2000/svg">
<path fill-rule="evenodd" clip-rule="evenodd" d="M44.614 31.3563C43.9711 32.5278 43.0946 33.4206 42.1013 34.2104C42.0772 33.9389 41.9524 33.6646 41.6759 33.4241C41.1178 32.9369 40.4909 32.5828 39.8587 32.2252C41.2328 30.7617 42.169 29.001 42.589 27.1143C42.6791 27.108 42.7727 27.0947 42.869 27.0699C44.03 26.7681 45.1678 26.3537 46.368 26.2614C46.0505 28.0425 45.4843 29.7722 44.614 31.3563ZM38.0469 15.862C36.1164 14.4944 33.7579 13.646 31.3637 13.4002C31.3637 13.3868 31.3682 13.3753 31.3682 13.362C31.4092 11.548 31.8033 9.7509 32.0307 7.95467C32.2046 6.57022 32.5202 4.85652 31.9157 3.51645C36.6817 3.63803 40.3429 6.4655 42.8378 10.3384C42.7059 10.4094 42.5784 10.5061 42.4598 10.6455C40.984 12.3805 39.511 14.1172 38.0469 15.862ZM16.3247 26.4246C12.7535 23.9646 7.75301 24.9612 3.95446 22.8615C3.7244 22.7337 3.49881 22.6866 3.28391 22.6893C4.4636 17.3521 8.23184 13.1863 12.9613 10.0908C13.0086 10.3517 13.1289 10.5913 13.3313 10.7529C15.9805 12.8712 18.3711 15.247 21.3654 16.8693C18.7768 19.4429 17.1005 22.8268 16.3247 26.4246ZM24.2927 49.615C24.1982 49.6567 24.1019 49.7091 24.0056 49.7818C20.6199 52.3333 18.1776 56.3234 14.5048 58.4622C11.0031 52.4744 8.18721 46.7103 7.42215 45.1173C7.36776 45.0046 7.32139 44.8928 7.26789 44.7801C7.44712 44.7242 7.62545 44.6283 7.7922 44.4766C10.5805 41.9517 13.2618 38.7622 16.676 37.0307C16.7384 37.2446 16.7821 37.4665 16.8516 37.6777C18.3666 42.2899 21.0622 46.1486 24.2927 49.615ZM37.4973 1.9492C29.8824 -1.61221 19.8867 3.27773 13.2767 6.99533C4.40269 11.9882 -0.185892 19.1226 0.232305 29.3737C0.69687 40.775 7.18829 51.4929 12.9949 60.9799C15.768 65.5095 24.8997 81.5611 32.1642 75.5379C32.5155 75.2477 32.635 74.9034 32.6056 74.5732C35.5562 70.695 38.611 66.9588 42.2705 63.7053C42.7921 63.2421 42.793 62.2863 42.2705 61.823C33.6506 54.1846 22.9184 47.5889 19.143 36.0918C16.4502 27.8934 21.4721 14.2184 31.886 16.1753C38.126 17.3476 42.3097 23.3611 39.0096 29.221C37.0479 32.7043 31.7763 32.1923 30.4977 35.7812C29.7906 37.7673 32.5637 40.0446 34.2962 40.1759C37.8558 40.4475 41.196 38.2741 43.9005 36.201C54.8075 27.8428 48.5533 7.12046 37.4973 1.9492Z" fill="#3B3734"/>
<mask id="mask0" mask-type="alpha" maskUnits="userSpaceOnUse" x="95" y="0" width="50" height="77">
<path fill-rule="evenodd" clip-rule="evenodd" d="M95.2813 0.712036H144.661V76.873H95.2812V0.712036H95.2813Z" fill="white"/>
</mask>
<g mask="url(#mask0)">
<path fill-rule="evenodd" clip-rule="evenodd" d="M98.4992 26.2612C99.6994 26.3535 100.837 26.7679 101.998 27.0697C102.094 27.0945 102.188 27.1078 102.277 27.1141C102.698 29.0008 103.634 30.7615 105.008 32.225C104.376 32.5826 103.749 32.9367 103.191 33.4239C102.915 33.6644 102.79 33.9387 102.766 34.2102C101.773 33.4204 100.896 32.5285 100.253 31.3561C99.3829 29.772 98.8158 28.0423 98.4992 26.2612ZM102.407 10.6454C102.289 10.506 102.161 10.4102 102.029 10.3383C104.524 6.4654 108.185 3.63793 112.952 3.51635C112.346 4.85642 112.663 6.57012 112.837 7.95545C113.064 9.7508 113.457 11.5479 113.499 13.3619C113.499 13.3752 113.504 13.3867 113.504 13.4001C111.109 13.6468 108.751 14.4943 106.82 15.8619C105.355 14.1171 103.883 12.3804 102.407 10.6454ZM123.502 16.8692C126.495 15.2469 128.887 12.8711 131.536 10.7528C131.737 10.5912 131.859 10.3516 131.906 10.0907C136.635 13.1871 140.404 17.352 141.582 22.6901C141.368 22.6865 141.143 22.7336 140.912 22.8614C137.114 24.9611 132.114 23.9645 128.542 26.4254C127.767 22.8267 126.09 19.4428 123.502 16.8692ZM128.016 37.6776C128.085 37.4664 128.129 37.2445 128.191 37.0306C131.606 38.7621 134.287 41.9525 137.075 44.4765C137.242 44.6282 137.419 44.725 137.599 44.78C137.546 44.8927 137.5 45.0045 137.445 45.1172C136.679 46.7102 133.864 52.4743 130.362 58.462C126.69 56.3233 124.247 52.3332 120.862 49.7817C120.765 49.709 120.669 49.6566 120.575 49.6149C123.805 46.1485 126.5 42.2906 128.016 37.6776ZM100.967 36.2008C103.671 38.2739 107.011 40.4474 110.571 40.1767C112.302 40.0444 115.076 37.7672 114.369 35.7819C113.091 32.193 107.819 32.7042 105.857 29.2209C102.557 23.361 106.741 17.3484 112.981 16.1751C123.395 14.2183 128.417 27.8933 125.724 36.0917C121.949 47.5888 111.216 54.1844 102.597 61.8229C102.074 62.2861 102.075 63.2419 102.597 63.7052C106.256 66.9586 109.311 70.6949 112.261 74.5731C112.231 74.9041 112.352 75.2476 112.703 75.5378C119.967 81.5619 129.098 65.5103 131.872 60.9798C137.678 51.4936 144.17 40.7748 144.635 29.3736C145.053 19.1224 140.464 11.9881 131.589 6.99608C124.98 3.27849 114.985 -1.61234 107.37 1.94906C96.3138 7.12033 90.0595 27.8427 100.967 36.2008Z" fill="#3B3734"/>
</g>
<mask id="mask1" mask-type="alpha" maskUnits="userSpaceOnUse" x="0" y="41" width="152" height="141">
<path fill-rule="evenodd" clip-rule="evenodd" d="M0 181.712V41.9801L152 41.9801V181.712H0H0Z" fill="white"/>
</mask>
<g mask="url(#mask1)">
<path fill-rule="evenodd" clip-rule="evenodd" d="M146.805 128.054C143.486 120.88 138.016 113.593 131.897 107.846C132.819 107.597 133.421 106.202 132.622 105.35C130.93 103.547 129.52 101.59 128.202 99.5511C128.567 99.0816 128.696 98.4258 128.33 97.9323C126.623 95.632 124.712 93.4178 127.038 90.396C127.455 89.8564 127.192 89.1003 126.812 88.645C125.192 86.7032 124.396 84.3772 122.938 82.3999C123.349 82.2544 123.775 82.1399 124.235 82.0653C125.119 81.9233 125.611 80.6552 125.101 79.9416C123.599 77.841 122.533 76.3864 120.59 75.4821C123.199 71.8737 121.556 68.7817 117.226 67.5082C117.688 66.7849 118.137 66.0528 118.647 65.3384C119.302 64.4181 118.643 63.5342 117.782 63.3043C117.725 63.0673 117.617 62.8561 117.459 62.6813C117.785 61.7761 117.019 60.4298 115.715 60.6446C113.545 61.0013 111.488 60.7342 109.405 60.294C109.535 59.7225 109.668 59.1501 109.755 58.5679C109.919 57.4568 109.137 56.5525 107.968 56.7894C107.07 56.9713 106.11 56.9039 105.138 56.824C104.859 56.5729 104.576 56.327 104.29 56.083C104.348 55.4112 104.412 54.7411 104.59 54.0702C104.848 53.1002 104.125 52.3246 103.189 52.2394C101.319 52.0734 99.5272 51.5241 97.6912 51.1851C97.726 50.3473 97.6529 49.5459 97.5414 48.5457C97.4407 47.6414 96.6872 46.8631 95.7019 47.1524C94.2618 47.5731 92.7612 47.4329 91.2774 47.4985C91.355 46.462 91.4192 45.4227 91.6796 44.4323C92.0139 43.1624 90.6657 42.2234 89.5458 42.8003C87.8614 43.6656 86.021 44.0188 84.2536 44.6196C84.1333 44.0951 84.0138 43.5688 83.9317 43.0221C83.7677 41.9226 82.1974 41.6652 81.5055 42.3841C78.76 45.2284 75.665 45.6845 72.5842 43.0257C71.7229 42.2829 70.5423 42.6077 70.1562 43.6629C68.5655 48.0186 65.4802 45.2852 63.8975 44.0844C62.8284 43.2733 61.4668 44.6045 61.7646 45.7183C62.0063 46.6261 62.1891 47.5429 62.3933 48.4552C61.4953 48.7383 60.6045 49.0418 59.7245 49.3764C57.5434 49.1776 55.4373 48.52 53.2223 47.7941C52.0944 47.4258 51.307 48.4925 51.4363 49.4368C48.2432 49.7163 45.0439 49.9115 41.8615 50.3118C40.6301 50.468 39.6305 52.3565 41.1285 53.007C42.9297 53.7889 44.7648 54.3302 46.6471 54.6746C46.2655 54.9816 45.8829 55.2878 45.495 55.5825C45.1393 55.4635 44.7407 55.4618 44.3555 55.6499C38.0424 58.7445 31.5697 61.4885 25.6338 65.2878C24.6744 65.9037 24.6574 67.7052 25.9807 67.9298C28.3525 68.3336 30.6611 68.2138 32.9732 67.8428C28.7672 70.7936 24.891 73.8057 23.0301 79.0027C22.5807 80.2593 24.1206 81.2027 25.1639 80.6347C25.2807 80.5708 25.393 80.5025 25.509 80.4386C24.3007 82.8436 23.0934 85.2478 21.8852 87.6519C21.1861 89.0453 23.0461 90.7235 24.1661 89.4038C24.4925 89.0204 24.8696 88.7213 25.2736 88.464C24.7002 90.8477 24.603 93.2589 24.9668 95.8335C25.0435 96.374 25.5785 96.7689 26.1269 96.8692C25.2709 99.1988 24.1625 101.421 23.1772 103.714C22.7626 104.681 23.2798 105.788 24.2811 105.878C24.0448 106.492 23.8005 107.104 23.5553 107.715C16.4611 115.896 15.8369 127.964 8.2532 135.913C7.97856 135.85 7.6745 135.87 7.36063 136.014C-0.0331701 139.431 -3.98955 151.643 5.92859 154.417C13.9484 156.66 15.3153 145.936 13.9974 140.279C17.6916 133.262 18.7866 124.515 23.5508 118.134C23.4278 119.968 23.5722 121.825 23.624 123.719C23.6605 125.088 25.1327 125.488 26.1037 124.742C26.4283 124.492 26.7627 124.257 27.0988 124.026C26.6405 126.353 26.554 128.69 26.9036 131.172C27.04 132.132 28.3017 132.441 29.0373 132.036C29.0463 132.03 29.0543 132.027 29.0623 132.022C27.715 135.344 26.068 138.541 24.9668 141.968C24.5629 143.224 26.0297 144.184 27.1006 143.602C27.7382 143.253 28.3659 142.889 28.9936 142.526C28.2134 145.848 26.6334 149.013 25.6124 152.248C25.1585 153.688 27.0168 154.598 28.0404 153.655C28.3356 153.383 28.6281 153.116 28.9196 152.849C28.6664 154.352 28.4586 155.866 28.1947 157.389C27.9486 158.808 29.4867 159.801 30.6218 158.796C31.1078 158.364 31.6116 157.961 32.1217 157.57C31.493 160.025 31.4021 162.555 32.0682 165.225C32.2501 165.955 32.8876 166.286 33.5287 166.246C33.691 166.53 33.9621 166.764 34.3731 166.877C36.1565 167.365 37.7776 166.907 39.3665 166.089C39.5895 165.975 39.7366 165.816 39.8525 165.643H41.314C41.5342 165.998 41.9283 166.26 42.5061 166.286C42.565 166.289 42.6345 166.297 42.6943 166.301C36.5881 168.959 28.1127 174.419 31.9371 179.093C35.0758 182.929 42.5106 181.843 46.4705 180.287C52.1514 178.055 55.9571 172.77 60.2532 168.722C60.3879 168.595 60.4788 168.459 60.5466 168.321C63.3598 167.949 66.1758 167.581 69.0006 167.447C69.1771 167.526 69.384 167.572 69.6203 167.572H74.784C75.2441 167.572 75.5847 167.413 75.8175 167.172C77.4733 167.052 79.1301 166.972 80.777 167.033C81.0097 167.346 81.3753 167.566 81.8862 167.572C87.2024 167.617 92.4776 167.926 97.7367 167.277C101.071 171.584 105.546 174.989 110.576 177.105C113.788 178.454 120.281 179.86 123.119 176.869C126.652 173.148 122.585 168.689 118.277 165.791C118.842 165.73 119.406 165.675 119.974 165.643C121.627 165.554 121.932 163.325 120.361 162.803C120.145 162.732 119.928 162.661 119.712 162.589C120 162.299 120.166 161.907 120.122 161.486C120.566 161.188 120.86 160.656 120.73 159.958C120.681 159.706 120.615 159.459 120.549 159.211C121.471 159.25 122.338 158.328 122.021 157.389C121.933 157.133 121.845 156.878 121.758 156.621C122.691 156.686 123.72 155.802 123.311 154.818C122.623 153.165 122.179 151.45 121.589 149.783C122.003 149.882 122.413 150.002 122.816 150.171C123.895 150.549 124.864 149.398 124.603 148.393C124.458 147.835 124.35 147.269 124.256 146.701C125.274 147.585 126.86 146.459 126.539 145.181L125.22 139.929C125.929 140.106 126.639 140.286 127.334 140.534C128.599 140.985 129.543 139.448 128.975 138.411C127.804 136.272 127.093 134.09 126.562 131.816C126.704 131.889 126.843 131.962 126.987 132.036C127.99 132.545 129.651 131.682 129.121 130.402C128.476 128.845 128.11 127.261 127.743 125.661C128.385 125.281 128.694 124.342 128.33 123.633C127.621 122.258 127.277 120.754 126.934 119.247C127.628 119.011 128.162 118.356 127.831 117.552C127.301 116.267 126.954 114.966 126.665 113.65C132.222 118.077 136.268 124.069 139.976 130.075C141.087 131.873 141.607 132.309 140.527 134.209C140.105 134.949 139.777 135.996 139.78 136.854C139.788 138.632 140.306 140.584 141.949 141.586C150.488 146.793 156.99 130.758 146.805 128.054Z" fill="#F73859"/>
</g>
<path fill-rule="evenodd" clip-rule="evenodd" d="M68.7258 79.2032C68.7819 78.7045 68.6143 78.1773 68.0945 77.817C68.0026 77.7531 67.9135 77.7043 67.8234 77.6484C67.7628 77.557 67.7137 77.462 67.6477 77.3724C67.1199 76.6642 66.0507 76.3296 65.3659 77.0795C65.2883 77.1638 65.234 77.2606 65.1617 77.3466C62.4653 78.5935 61.817 84.7312 65.2759 85.8992C66.7257 86.3899 67.8154 85.3968 68.4502 84.2023C68.609 84.0355 68.7276 83.842 68.7623 83.6255C68.7712 83.5633 68.7784 83.5039 68.7864 83.4418C68.8524 83.2607 68.9086 83.0806 68.954 82.9066C69.2733 81.6491 69.2037 80.3383 68.7258 79.2032Z" fill="#3B3734"/>
<path fill-rule="evenodd" clip-rule="evenodd" d="M87.5944 79.2032C87.6515 78.7045 87.483 78.1773 86.964 77.817C86.8722 77.7531 86.783 77.7043 86.692 77.6484C86.6323 77.557 86.5833 77.462 86.5164 77.3724C85.9885 76.6642 84.9203 76.3296 84.2346 77.0795C84.1579 77.1638 84.1035 77.2606 84.0304 77.3466C81.334 78.5935 80.6866 84.7312 84.1454 85.8992C85.5953 86.3899 86.684 85.3968 87.3189 84.2023C87.4785 84.0355 87.5971 83.842 87.631 83.6255C87.6408 83.5633 87.647 83.5039 87.656 83.4418C87.721 83.2607 87.7781 83.0806 87.8227 82.9066C88.1419 81.6491 88.0724 80.3383 87.5944 79.2032Z" fill="#3B3734"/>
<path fill-rule="evenodd" clip-rule="evenodd" d="M102.083 115.529C100.784 113.874 99.6119 112.123 98.1344 110.639C99.702 110.365 101.261 110.036 102.812 109.644C102.632 111.61 102.343 113.568 102.083 115.529ZM85.1248 111.759C88.0851 111.726 91.0348 111.568 93.9658 111.233C92.6577 113.268 91.4057 115.338 90.0326 117.329C88.5595 115.342 86.7895 113.601 85.1248 111.759ZM77.113 117.174C75.5766 115.222 74.0376 113.272 72.5244 111.303C73.5329 111.357 74.5423 111.412 75.5517 111.48C77.3707 111.601 79.1897 111.686 81.0061 111.733C79.6052 113.466 78.6922 115.599 77.113 117.174ZM65.8172 116.455C64.7383 114.605 63.3544 112.934 62.0882 111.193C62.1614 111.041 62.2149 110.884 62.2345 110.719C64.4895 110.89 66.7481 111.007 69.0077 111.121C67.9305 112.892 66.9381 114.713 65.8172 116.455ZM53.8537 115.499C53.0423 113.303 52.509 110.996 52.0605 108.693C54.1346 109.261 56.189 109.939 58.3183 110.317C56.5501 111.666 55.2349 113.688 53.8537 115.499ZM105.655 105.863C104.983 104.896 103.084 105.144 102.992 106.603C93.363 109.159 83.723 108.949 73.7719 108.448C68.3692 108.174 61.9465 108.748 56.7275 107.214C54.9102 106.68 53.0903 106.056 51.241 105.581C50.9262 105.277 50.4714 105.196 50.0345 105.295C49.2391 105.125 48.4375 104.99 47.6261 104.914C45.7607 104.738 45.7776 107.631 47.6261 107.805C48.0817 107.849 48.532 107.916 48.9814 107.992C49.6912 111.749 50.5267 115.506 52.1817 118.976C52.582 119.813 53.8563 119.904 54.4635 119.268C56.1791 117.47 57.7145 114.249 59.8876 112.66C61.5131 114.824 63.3865 116.914 64.337 119.426C64.7668 120.562 66.0669 120.689 66.7811 119.744C68.2988 117.733 69.4999 115.53 70.7759 113.369C72.495 115.594 74.2418 117.8 75.9761 120.013C76.3132 120.443 77.1612 120.541 77.5963 120.221C80.0627 118.405 81.1256 115.612 83.0454 113.417C83.0685 113.447 83.0837 113.476 83.1096 113.504C85.1025 115.727 87.3076 117.754 88.8448 120.335C89.4021 121.271 90.5658 121.108 91.1543 120.335C93.0027 117.905 94.5444 115.278 96.1878 112.714C98.4072 114.852 99.8597 117.791 102.117 119.91C103.093 120.827 104.483 120.125 104.596 118.888C104.904 115.527 105.532 112.183 105.781 108.816C105.891 108.78 106.003 108.751 106.113 108.716C107.785 108.192 107.215 105.698 105.655 105.863Z" fill="#3B3734"/>
<path fill-rule="evenodd" clip-rule="evenodd" d="M41.0014 81.3768C41.4178 79.5619 38.6171 78.7907 38.2007 80.6083C37.7985 82.3637 37.8716 84.1138 38.2007 85.8745C38.5422 87.7062 41.342 86.9279 41.0014 85.1051C40.7723 83.8741 40.7214 82.6033 41.0014 81.3768Z" fill="white"/>
<path fill-rule="evenodd" clip-rule="evenodd" d="M46.541 63.9656V68.7845C46.541 70.6491 49.4461 70.6491 49.4461 68.7845V63.9656C49.4461 62.101 46.541 62.101 46.541 63.9656Z" fill="white"/>
<path fill-rule="evenodd" clip-rule="evenodd" d="M73.6033 96.9924C73.1762 95.1775 70.3763 95.9469 70.8016 97.7609C71.046 98.8001 71.0718 99.8473 71.0727 100.911C71.0727 102.775 73.9778 102.775 73.9778 100.911C73.9769 99.5917 73.9056 98.2818 73.6033 96.9924Z" fill="white"/>
<path fill-rule="evenodd" clip-rule="evenodd" d="M71.6671 61.0119C71.3247 59.1802 68.5257 59.9585 68.8655 61.7795C69.1196 63.1383 69.1356 64.5147 69.1365 65.8929C69.1365 67.7584 72.0416 67.7584 72.0416 65.8929C72.0407 64.2511 71.9694 62.6297 71.6671 61.0119Z" fill="white"/>
<path fill-rule="evenodd" clip-rule="evenodd" d="M89.4182 63.9031C89.1221 62.6305 89.0695 61.3206 88.7735 60.048C88.3508 58.2313 85.5501 59.0026 85.9718 60.8156C86.2679 62.0883 86.3214 63.3991 86.6174 64.6717C87.0401 66.4874 89.8417 65.718 89.4182 63.9031Z" fill="white"/>
<path fill-rule="evenodd" clip-rule="evenodd" d="M106.578 72.9616V80.6719C106.578 82.5365 109.484 82.5365 109.484 80.6719V72.9616C109.484 71.0961 106.578 71.0961 106.578 72.9616Z" fill="white"/>
<path fill-rule="evenodd" clip-rule="evenodd" d="M99.1539 90.3087C99.1539 91.6905 99.1414 93.0616 98.8838 94.4221C98.5396 96.2432 101.339 97.0215 101.685 95.1915C101.993 93.5693 102.059 91.955 102.06 90.3087C102.061 88.4441 99.1557 88.4441 99.1539 90.3087Z" fill="white"/>
<path fill-rule="evenodd" clip-rule="evenodd" d="M112.389 95.1274V97.3771C112.389 99.2417 115.294 99.2417 115.294 97.3771V95.1274C115.294 93.2637 112.389 93.2637 112.389 95.1274Z" fill="white"/>
<path fill-rule="evenodd" clip-rule="evenodd" d="M40.0338 109.843C39.6959 108.011 36.8969 108.789 37.233 110.611C37.5407 112.279 37.5032 113.999 37.5041 115.688C37.505 117.553 40.4101 117.553 40.4092 115.688C40.4083 113.729 40.3905 111.776 40.0338 109.843Z" fill="white"/>
<path fill-rule="evenodd" clip-rule="evenodd" d="M47.1873 143.317C47.1686 141.452 44.2635 141.45 44.2813 143.317C44.3045 145.676 44.5818 148.025 44.605 150.384C44.622 152.247 47.5279 152.249 47.5092 150.384C47.4869 148.025 47.2096 145.676 47.1873 143.317Z" fill="white"/>
<path fill-rule="evenodd" clip-rule="evenodd" d="M50.7363 132.715V137.212C50.7363 139.077 53.6414 139.077 53.6414 137.212V132.715C53.6414 130.85 50.7363 130.85 50.7363 132.715Z" fill="white"/>
<path fill-rule="evenodd" clip-rule="evenodd" d="M64.2939 130.467V137.213C64.2939 139.077 67.1999 139.077 67.1999 137.213V130.467C67.1999 128.601 64.2939 128.601 64.2939 130.467Z" fill="white"/>
<path fill-rule="evenodd" clip-rule="evenodd" d="M62.9507 158.031C62.372 155.937 62.0564 153.841 62.0341 151.669C62.0154 149.805 59.1103 149.803 59.129 151.669C59.154 154.087 59.5044 156.469 60.1491 158.799C60.6466 160.595 63.4501 159.831 62.9507 158.031Z" fill="white"/>
<path fill-rule="evenodd" clip-rule="evenodd" d="M78.8193 128.538V134.322C78.8193 136.185 81.7244 136.185 81.7244 134.322V128.538C81.7244 126.674 78.8193 126.674 78.8193 128.538Z" fill="white"/>
<path fill-rule="evenodd" clip-rule="evenodd" d="M82.9631 149.999C82.5306 148.186 79.729 148.956 80.1614 150.769C80.412 151.814 80.4325 152.847 80.4334 153.918C80.4334 155.782 83.3385 155.782 83.3385 153.918C83.3376 152.593 83.2725 151.294 82.9631 149.999Z" fill="white"/>
<path fill-rule="evenodd" clip-rule="evenodd" d="M97.1661 131.689C96.8433 129.761 96.5205 127.833 96.1978 125.905C95.8901 124.07 93.092 124.851 93.3961 126.674C93.7198 128.601 94.0426 130.529 94.3645 132.456C94.6712 134.293 97.4711 133.512 97.1661 131.689Z" fill="white"/>
<path fill-rule="evenodd" clip-rule="evenodd" d="M114.597 130.403C114.313 128.565 111.514 129.349 111.795 131.172C112.087 133.06 112.066 134.987 112.066 136.892C112.066 138.755 114.972 138.755 114.971 136.892C114.971 134.715 114.929 132.558 114.597 130.403Z" fill="white"/>
<path fill-rule="evenodd" clip-rule="evenodd" d="M101.686 147.235C102.028 145.412 99.2273 144.635 98.884 146.465C98.5095 148.46 98.5692 150.377 98.884 152.375C99.0079 153.154 99.9727 153.576 100.671 153.385C101.497 153.158 101.809 152.384 101.686 151.606C101.456 150.156 101.415 148.68 101.686 147.235Z" fill="white"/>
<path fill-rule="evenodd" clip-rule="evenodd" d="M85.6499 101.168C85.3262 102.565 85.2754 103.98 85.2754 105.407C85.2736 107.273 88.1796 107.273 88.1805 105.407C88.1805 104.239 88.1858 103.081 88.4507 101.937C88.8715 100.123 86.0717 99.3522 85.6499 101.168Z" fill="white"/>
</svg>
