<svg width="152" height="182" viewBox="0 0 152 182" fill="none" xmlns="http://www.w3.org/2000/svg">
<path fill-rule="evenodd" clip-rule="evenodd" d="M44.614 30.7802C43.9711 31.9516 43.0946 32.8444 42.1013 33.6343C42.0772 33.3627 41.9524 33.0885 41.6759 32.848C41.1178 32.3608 40.4909 32.0067 39.8587 31.649C41.2328 30.1856 42.169 28.4249 42.589 26.5381C42.6791 26.5319 42.7727 26.5186 42.869 26.4937C44.03 26.192 45.1678 25.7775 46.368 25.6852C46.0505 27.4664 45.4843 29.1961 44.614 30.7802ZM38.0469 15.2858C36.1164 13.9182 33.7579 13.0698 31.3637 12.824C31.3637 12.8107 31.3682 12.7992 31.3682 12.7858C31.4092 10.9719 31.8033 9.17474 32.0307 7.37851C32.2046 5.99406 32.5202 4.28036 31.9157 2.94029C36.6817 3.06187 40.3429 5.88934 42.8378 9.76224C42.7059 9.83324 42.5784 9.92998 42.4598 10.0693C40.984 11.8043 39.511 13.5411 38.0469 15.2858ZM16.3247 25.8485C12.7535 23.3884 7.75301 24.385 3.95446 22.2853C3.7244 22.1575 3.49881 22.1105 3.28391 22.1131C4.4636 16.7759 8.23184 12.6101 12.9613 9.51466C13.0086 9.77558 13.1289 10.0152 13.3313 10.1767C15.9805 12.2951 18.3711 14.6708 21.3654 16.2931C18.7768 18.8668 17.1005 22.2507 16.3247 25.8485ZM24.2927 49.0388C24.1982 49.0806 24.1019 49.1329 24.0056 49.2057C20.6199 51.7572 18.1776 55.7472 14.5048 57.886C11.0031 51.8983 8.18721 46.1342 7.42215 44.5412C7.36776 44.4285 7.32139 44.3166 7.26789 44.2039C7.44712 44.148 7.62545 44.0522 7.7922 43.9004C10.5805 41.3756 13.2618 38.186 16.676 36.4546C16.7384 36.6684 16.7821 36.8903 16.8516 37.1015C18.3666 41.7137 21.0622 45.5724 24.2927 49.0388ZM37.4973 1.37303C29.8824 -2.18838 19.8867 2.70156 13.2767 6.41916C4.40269 11.412 -0.185892 18.5464 0.232305 28.7975C0.69687 40.1988 7.18829 50.9167 12.9949 60.4037C15.768 64.9334 24.8997 80.985 32.1642 74.9617C32.5155 74.6715 32.635 74.3272 32.6056 73.9971C35.5562 70.1188 38.611 66.3826 42.2705 63.1291C42.7921 62.6659 42.793 61.7101 42.2705 61.2468C33.6506 53.6084 22.9184 47.0128 19.143 35.5156C16.4502 27.3172 21.4721 13.6422 31.886 15.5991C38.126 16.7715 42.3097 22.7849 39.0096 28.6449C37.0479 32.1282 31.7763 31.6161 30.4977 35.205C29.7906 37.1912 32.5637 39.4684 34.2962 39.5997C37.8558 39.8713 41.196 37.6979 43.9005 35.6248C54.8075 27.2666 48.5533 6.54429 37.4973 1.37303Z" fill="#3B3734"/>
<mask id="mask0" mask-type="alpha" maskUnits="userSpaceOnUse" x="95" y="0" width="50" height="77">
<path fill-rule="evenodd" clip-rule="evenodd" d="M95.2813 0.135742H144.661V76.2967H95.2812V0.135742H95.2813Z" fill="white"/>
</mask>
<g mask="url(#mask0)">
<path fill-rule="evenodd" clip-rule="evenodd" d="M98.4992 25.6848C99.6994 25.7771 100.837 26.1915 101.998 26.4933C102.094 26.5181 102.188 26.5314 102.277 26.5377C102.698 28.4244 103.634 30.1851 105.008 31.6486C104.376 32.0062 103.749 32.3603 103.191 32.8475C102.915 33.0881 102.79 33.3623 102.766 33.6338C101.773 32.844 100.896 31.9521 100.253 30.7797C99.3829 29.1956 98.8158 27.4659 98.4992 25.6848ZM102.407 10.069C102.289 9.92963 102.161 9.83378 102.029 9.7619C104.524 5.889 108.185 3.06153 112.952 2.93995C112.346 4.28002 112.663 5.99372 112.837 7.37905C113.064 9.1744 113.457 10.9715 113.499 12.7855C113.499 12.7988 113.504 12.8103 113.504 12.8237C111.109 13.0704 108.751 13.9179 106.82 15.2855C105.355 13.5407 103.883 11.804 102.407 10.069ZM123.502 16.2928C126.495 14.6705 128.887 12.2947 131.536 10.1764C131.737 10.0148 131.859 9.77523 131.906 9.51432C136.635 12.6107 140.404 16.7756 141.582 22.1137C141.368 22.1101 141.143 22.1572 140.912 22.285C137.114 24.3847 132.114 23.3881 128.542 25.849C127.767 22.2503 126.09 18.8664 123.502 16.2928ZM128.016 37.1012C128.085 36.89 128.129 36.6681 128.191 36.4542C131.606 38.1857 134.287 41.3761 137.075 43.9001C137.242 44.0518 137.419 44.1486 137.599 44.2036C137.546 44.3163 137.5 44.4281 137.445 44.5408C136.679 46.1338 133.864 51.8979 130.362 57.8857C126.69 55.7469 124.247 51.7568 120.862 49.2053C120.765 49.1326 120.669 49.0802 120.575 49.0385C123.805 45.5721 126.5 41.7142 128.016 37.1012ZM100.967 35.6244C103.671 37.6975 107.011 39.8709 110.571 39.6003C112.302 39.468 115.076 37.1908 114.369 35.2055C113.091 31.6166 107.819 32.1278 105.857 28.6445C102.557 22.7845 106.741 16.772 112.981 15.5987C123.395 13.6419 128.417 27.3168 125.724 35.5153C121.949 47.0124 111.216 53.608 102.597 61.2464C102.074 61.7097 102.075 62.6655 102.597 63.1288C106.256 66.3822 109.311 70.1184 112.261 73.9967C112.231 74.3277 112.352 74.6712 112.703 74.9614C119.967 80.9855 129.098 64.9339 131.872 60.4034C137.678 50.9172 144.17 40.1984 144.635 28.7971C145.053 18.546 140.464 11.4117 131.589 6.41967C124.98 2.70207 114.985 -2.18875 107.37 1.37265C96.3138 6.54391 90.0595 27.2663 100.967 35.6244Z" fill="#3B3734"/>
</g>
<mask id="mask1" mask-type="alpha" maskUnits="userSpaceOnUse" x="0" y="41" width="152" height="141">
<path fill-rule="evenodd" clip-rule="evenodd" d="M0 181.136V41.4038L152 41.4038V181.136H0H0Z" fill="white"/>
</mask>
<g mask="url(#mask1)">
<path fill-rule="evenodd" clip-rule="evenodd" d="M146.805 127.478C143.486 120.303 138.016 113.017 131.897 107.27C132.819 107.021 133.421 105.625 132.622 104.774C130.93 102.971 129.52 101.014 128.202 98.9748C128.567 98.5053 128.696 97.8495 128.33 97.3561C126.623 95.0558 124.712 92.8415 127.038 89.8197C127.455 89.2801 127.192 88.524 126.812 88.0687C125.192 86.127 124.396 83.8009 122.938 81.8236C123.349 81.6781 123.775 81.5636 124.235 81.4891C125.119 81.3471 125.611 80.0789 125.101 79.3653C123.599 77.2647 122.533 75.8102 120.59 74.9058C123.199 71.2974 121.556 68.2055 117.226 66.9319C117.688 66.2087 118.137 65.4765 118.647 64.7621C119.302 63.8418 118.643 62.9579 117.782 62.728C117.725 62.4911 117.617 62.2798 117.459 62.105C117.785 61.1998 117.019 59.8535 115.715 60.0683C113.545 60.425 111.488 60.1579 109.405 59.7177C109.535 59.1462 109.668 58.5738 109.755 57.9916C109.919 56.8805 109.137 55.9762 107.968 56.2131C107.07 56.3951 106.11 56.3276 105.138 56.2477C104.859 55.9966 104.576 55.7507 104.29 55.5067C104.348 54.8349 104.412 54.1648 104.59 53.4939C104.848 52.5239 104.125 51.7483 103.189 51.6631C101.319 51.4971 99.5272 50.9478 97.6912 50.6088C97.726 49.771 97.6529 48.9696 97.5414 47.9694C97.4407 47.0651 96.6872 46.2868 95.7019 46.5761C94.2618 46.9968 92.7612 46.8566 91.2774 46.9222C91.355 45.8857 91.4192 44.8464 91.6796 43.856C92.0139 42.5861 90.6657 41.6471 89.5458 42.224C87.8614 43.0893 86.021 43.4425 84.2536 44.0433C84.1333 43.5188 84.0138 42.9925 83.9317 42.4459C83.7677 41.3463 82.1974 41.0889 81.5055 41.8078C78.76 44.6521 75.665 45.1083 72.5842 42.4494C71.7229 41.7066 70.5423 42.0314 70.1562 43.0866C68.5655 47.4423 65.4802 44.7089 63.8975 43.5081C62.8284 42.697 61.4668 44.0282 61.7646 45.142C62.0063 46.0499 62.1891 46.9666 62.3933 47.8789C61.4953 48.162 60.6045 48.4655 59.7245 48.8001C57.5434 48.6013 55.4373 47.9437 53.2223 47.2178C52.0944 46.8495 51.307 47.9162 51.4363 48.8605C48.2432 49.14 45.0439 49.3353 41.8615 49.7355C40.6301 49.8917 39.6305 51.7802 41.1285 52.4307C42.9297 53.2126 44.7648 53.754 46.6471 54.0983C46.2655 54.4054 45.8829 54.7115 45.495 55.0062C45.1393 54.8872 44.7407 54.8855 44.3555 55.0736C38.0424 58.1682 31.5697 60.9123 25.6338 64.7115C24.6744 65.3274 24.6574 67.129 25.9807 67.3535C28.3525 67.7573 30.6611 67.6375 32.9732 67.2665C28.7672 70.2173 24.891 73.2294 23.0301 78.4264C22.5807 79.6831 24.1206 80.6264 25.1639 80.0585C25.2807 79.9946 25.393 79.9262 25.509 79.8623C24.3007 82.2674 23.0934 84.6715 21.8852 87.0757C21.1861 88.469 23.0461 90.1472 24.1661 88.8275C24.4925 88.4441 24.8696 88.1451 25.2736 87.8877C24.7002 90.2714 24.603 92.6827 24.9668 95.2572C25.0435 95.7977 25.5785 96.1926 26.1269 96.2929C25.2709 98.6225 24.1625 100.845 23.1772 103.138C22.7626 104.104 23.2798 105.212 24.2811 105.302C24.0448 105.916 23.8005 106.528 23.5553 107.139C16.4611 115.319 15.8369 127.388 8.2532 135.337C7.97856 135.274 7.6745 135.293 7.36063 135.437C-0.0331701 138.855 -3.98955 151.066 5.92859 153.841C13.9484 156.084 15.3153 145.36 13.9974 139.702C17.6916 132.686 18.7866 123.938 23.5508 117.557C23.4278 119.392 23.5722 121.248 23.624 123.143C23.6605 124.512 25.1327 124.912 26.1037 124.166C26.4283 123.915 26.7627 123.681 27.0988 123.449C26.6405 125.777 26.554 128.114 26.9036 130.596C27.04 131.555 28.3017 131.864 29.0373 131.46C29.0463 131.453 29.0543 131.451 29.0623 131.445C27.715 134.768 26.068 137.965 24.9668 141.392C24.5629 142.648 26.0297 143.608 27.1006 143.026C27.7382 142.677 28.3659 142.312 28.9936 141.949C28.2134 145.272 26.6334 148.437 25.6124 151.672C25.1585 153.112 27.0168 154.022 28.0404 153.079C28.3356 152.807 28.6281 152.54 28.9196 152.272C28.6664 153.776 28.4586 155.29 28.1947 156.813C27.9486 158.232 29.4867 159.225 30.6218 158.219C31.1078 157.788 31.6116 157.385 32.1217 156.994C31.493 159.449 31.4021 161.979 32.0682 164.649C32.2501 165.379 32.8876 165.71 33.5287 165.67C33.691 165.954 33.9621 166.188 34.3731 166.301C36.1565 166.789 37.7776 166.331 39.3665 165.513C39.5895 165.399 39.7366 165.239 39.8525 165.067H41.314C41.5342 165.422 41.9283 165.684 42.5061 165.71C42.565 165.712 42.6345 165.72 42.6943 165.725C36.5881 168.383 28.1127 173.842 31.9371 178.517C35.0758 182.352 42.5106 181.267 46.4705 179.71C52.1514 177.478 55.9571 172.193 60.2532 168.146C60.3879 168.019 60.4788 167.883 60.5466 167.745C63.3598 167.373 66.1758 167.004 69.0006 166.87C69.1771 166.949 69.384 166.996 69.6203 166.996H74.784C75.2441 166.996 75.5847 166.837 75.8175 166.596C77.4733 166.476 79.1301 166.396 80.777 166.457C81.0097 166.769 81.3753 166.989 81.8862 166.996C87.2024 167.041 92.4776 167.35 97.7367 166.701C101.071 171.008 105.546 174.413 110.576 176.529C113.788 177.878 120.281 179.283 123.119 176.293C126.652 172.572 122.585 168.113 118.277 165.214C118.842 165.154 119.406 165.099 119.974 165.067C121.627 164.977 121.932 162.749 120.361 162.227C120.145 162.155 119.928 162.084 119.712 162.012C120 161.722 120.166 161.331 120.122 160.91C120.566 160.612 120.86 160.08 120.73 159.382C120.681 159.13 120.615 158.883 120.549 158.635C121.471 158.674 122.338 157.752 122.021 156.813C121.933 156.556 121.845 156.302 121.758 156.045C122.691 156.11 123.72 155.226 123.311 154.242C122.623 152.588 122.179 150.874 121.589 149.206C122.003 149.306 122.413 149.425 122.816 149.595C123.895 149.973 124.864 148.822 124.603 147.817C124.458 147.259 124.35 146.693 124.256 146.125C125.274 147.009 126.86 145.883 126.539 144.605L125.22 139.353C125.929 139.529 126.639 139.71 127.334 139.958C128.599 140.409 129.543 138.872 128.975 137.834C127.804 135.696 127.093 133.513 126.562 131.24C126.704 131.313 126.843 131.386 126.987 131.46C127.99 131.969 129.651 131.106 129.121 129.826C128.476 128.268 128.11 126.685 127.743 125.085C128.385 124.704 128.694 123.765 128.33 123.057C127.621 121.682 127.277 120.177 126.934 118.67C127.628 118.435 128.162 117.779 127.831 116.976C127.301 115.691 126.954 114.39 126.665 113.074C132.222 117.501 136.268 123.493 139.976 129.498C141.087 131.296 141.607 131.733 140.527 133.633C140.105 134.373 139.777 135.42 139.78 136.278C139.788 138.055 140.306 140.008 141.949 141.01C150.488 146.216 156.99 130.182 146.805 127.478Z" fill="white"/>
</g>
<path fill-rule="evenodd" clip-rule="evenodd" d="M68.7258 78.6269C68.7819 78.1282 68.6143 77.601 68.0945 77.2407C68.0026 77.1768 67.9135 77.128 67.8234 77.0721C67.7628 76.9807 67.7137 76.8857 67.6477 76.7961C67.1199 76.0879 66.0507 75.7533 65.3659 76.5032C65.2883 76.5875 65.234 76.6843 65.1617 76.7703C62.4653 78.0172 61.817 84.155 65.2759 85.3229C66.7257 85.8136 67.8154 84.8206 68.4502 83.626C68.609 83.4592 68.7276 83.2657 68.7623 83.0492C68.7712 82.987 68.7784 82.9276 68.7864 82.8655C68.8524 82.6844 68.9086 82.5043 68.954 82.3303C69.2733 81.0728 69.2037 79.762 68.7258 78.6269Z" fill="#3B3734"/>
<path fill-rule="evenodd" clip-rule="evenodd" d="M87.5944 78.6269C87.6515 78.1282 87.483 77.601 86.964 77.2407C86.8722 77.1768 86.783 77.128 86.692 77.0721C86.6323 76.9807 86.5833 76.8857 86.5164 76.7961C85.9885 76.0879 84.9203 75.7533 84.2346 76.5032C84.1579 76.5875 84.1035 76.6843 84.0304 76.7703C81.334 78.0172 80.6866 84.155 84.1454 85.3229C85.5953 85.8136 86.684 84.8206 87.3189 83.626C87.4785 83.4592 87.5971 83.2657 87.631 83.0492C87.6408 82.987 87.647 82.9276 87.656 82.8655C87.721 82.6844 87.7781 82.5043 87.8227 82.3303C88.1419 81.0728 88.0724 79.762 87.5944 78.6269Z" fill="#3B3734"/>
<path fill-rule="evenodd" clip-rule="evenodd" d="M102.083 114.952C100.784 113.297 99.6119 111.546 98.1344 110.062C99.702 109.789 101.261 109.46 102.812 109.068C102.632 111.033 102.343 112.992 102.083 114.952ZM85.1248 111.183C88.0851 111.15 91.0348 110.992 93.9658 110.657C92.6577 112.692 91.4057 114.762 90.0326 116.752C88.5595 114.766 86.7895 113.025 85.1248 111.183ZM77.113 116.598C75.5766 114.645 74.0376 112.696 72.5244 110.726C73.5329 110.781 74.5423 110.836 75.5517 110.904C77.3707 111.025 79.1897 111.11 81.0061 111.157C79.6052 112.89 78.6922 115.023 77.113 116.598ZM65.8172 115.879C64.7383 114.029 63.3544 112.358 62.0882 110.616C62.1614 110.465 62.2149 110.307 62.2345 110.142C64.4895 110.314 66.7481 110.431 69.0077 110.544C67.9305 112.316 66.9381 114.137 65.8172 115.879ZM53.8537 114.922C53.0423 112.727 52.509 110.42 52.0605 108.116C54.1346 108.685 56.189 109.363 58.3183 109.74C56.5501 111.089 55.2349 113.112 53.8537 114.922ZM105.655 105.287C104.983 104.32 103.084 104.568 102.992 106.026C93.363 108.583 83.723 108.373 73.7719 107.871C68.3692 107.598 61.9465 108.171 56.7275 106.638C54.9102 106.104 53.0903 105.48 51.241 105.005C50.9262 104.7 50.4714 104.62 50.0345 104.719C49.2391 104.549 48.4375 104.414 47.6261 104.338C45.7607 104.162 45.7776 107.055 47.6261 107.229C48.0817 107.272 48.532 107.34 48.9814 107.416C49.6912 111.173 50.5267 114.93 52.1817 118.399C52.582 119.237 53.8563 119.328 54.4635 118.691C56.1791 116.894 57.7145 113.673 59.8876 112.084C61.5131 114.248 63.3865 116.338 64.337 118.849C64.7668 119.986 66.0669 120.113 66.7811 119.168C68.2988 117.157 69.4999 114.954 70.7759 112.792C72.495 115.018 74.2418 117.224 75.9761 119.437C76.3132 119.866 77.1612 119.965 77.5963 119.645C80.0627 117.829 81.1256 115.036 83.0454 112.841C83.0685 112.871 83.0837 112.9 83.1096 112.928C85.1025 115.15 87.3076 117.178 88.8448 119.759C89.4021 120.695 90.5658 120.532 91.1543 119.759C93.0027 117.329 94.5444 114.702 96.1878 112.137C98.4072 114.276 99.8597 117.215 102.117 119.334C103.093 120.251 104.483 119.549 104.596 118.312C104.904 114.951 105.532 111.607 105.781 108.24C105.891 108.204 106.003 108.175 106.113 108.14C107.785 107.616 107.215 105.122 105.655 105.287Z" fill="#3B3734"/>
<path fill-rule="evenodd" clip-rule="evenodd" d="M41.0014 80.8005C41.4178 78.9856 38.6171 78.2144 38.2007 80.032C37.7985 81.7874 37.8716 83.5375 38.2007 85.2982C38.5422 87.1299 41.342 86.3516 41.0014 84.5288C40.7723 83.2978 40.7214 82.027 41.0014 80.8005Z" fill="#7AC7C4"/>
<path fill-rule="evenodd" clip-rule="evenodd" d="M46.541 63.3894V68.2083C46.541 70.0729 49.4461 70.0729 49.4461 68.2083V63.3894C49.4461 61.5248 46.541 61.5248 46.541 63.3894Z" fill="#7AC7C4"/>
<path fill-rule="evenodd" clip-rule="evenodd" d="M73.6033 96.4161C73.1762 94.6012 70.3763 95.3706 70.8016 97.1846C71.046 98.2238 71.0718 99.271 71.0727 100.334C71.0727 102.199 73.9778 102.199 73.9778 100.334C73.9769 99.0155 73.9056 97.7056 73.6033 96.4161Z" fill="#7AC7C4"/>
<path fill-rule="evenodd" clip-rule="evenodd" d="M71.6671 60.4355C71.3247 58.6037 68.5257 59.382 68.8655 61.2031C69.1196 62.5618 69.1356 63.9383 69.1365 65.3165C69.1365 67.182 72.0416 67.182 72.0416 65.3165C72.0407 63.6747 71.9694 62.0533 71.6671 60.4355Z" fill="#7AC7C4"/>
<path fill-rule="evenodd" clip-rule="evenodd" d="M89.4182 63.327C89.1221 62.0543 89.0695 60.7444 88.7735 59.4718C88.3508 57.6552 85.5501 58.4264 85.9718 60.2395C86.2679 61.5121 86.3214 62.8229 86.6174 64.0955C87.0401 65.9113 89.8417 65.1418 89.4182 63.327Z" fill="#7AC7C4"/>
<path fill-rule="evenodd" clip-rule="evenodd" d="M106.578 72.3852V80.0955C106.578 81.96 109.484 81.96 109.484 80.0955V72.3852C109.484 70.5197 106.578 70.5197 106.578 72.3852Z" fill="#7AC7C4"/>
<path fill-rule="evenodd" clip-rule="evenodd" d="M99.1539 89.7324C99.1539 91.1142 99.1414 92.4853 98.8838 93.8458C98.5396 95.6669 101.339 96.4452 101.685 94.6152C101.993 92.993 102.059 91.3787 102.06 89.7324C102.061 87.8678 99.1557 87.8678 99.1539 89.7324Z" fill="#7AC7C4"/>
<path fill-rule="evenodd" clip-rule="evenodd" d="M112.389 94.5511V96.8008C112.389 98.6654 115.294 98.6654 115.294 96.8008V94.5511C115.294 92.6874 112.389 92.6874 112.389 94.5511Z" fill="#7AC7C4"/>
<path fill-rule="evenodd" clip-rule="evenodd" d="M40.0338 109.266C39.6959 107.434 36.8969 108.213 37.233 110.035C37.5407 111.703 37.5032 113.422 37.5041 115.112C37.505 116.977 40.4101 116.977 40.4092 115.112C40.4083 113.152 40.3905 111.2 40.0338 109.266Z" fill="#7AC7C4"/>
<path fill-rule="evenodd" clip-rule="evenodd" d="M47.1873 142.74C47.1686 140.876 44.2635 140.874 44.2813 142.74C44.3045 145.1 44.5818 147.448 44.605 149.808C44.622 151.671 47.5279 151.673 47.5092 149.808C47.4869 147.448 47.2096 145.1 47.1873 142.74Z" fill="#7AC7C4"/>
<path fill-rule="evenodd" clip-rule="evenodd" d="M50.7363 132.138V136.636C50.7363 138.501 53.6414 138.501 53.6414 136.636V132.138C53.6414 130.274 50.7363 130.274 50.7363 132.138Z" fill="#7AC7C4"/>
<path fill-rule="evenodd" clip-rule="evenodd" d="M64.2939 129.89V136.637C64.2939 138.501 67.1999 138.501 67.1999 136.637V129.89C67.1999 128.025 64.2939 128.025 64.2939 129.89Z" fill="#7AC7C4"/>
<path fill-rule="evenodd" clip-rule="evenodd" d="M62.9507 157.455C62.372 155.361 62.0564 153.265 62.0341 151.092C62.0154 149.229 59.1103 149.227 59.129 151.092C59.154 153.511 59.5044 155.893 60.1491 158.223C60.6466 160.018 63.4501 159.255 62.9507 157.455Z" fill="#7AC7C4"/>
<path fill-rule="evenodd" clip-rule="evenodd" d="M78.8193 127.962V133.746C78.8193 135.609 81.7244 135.609 81.7244 133.746V127.962C81.7244 126.097 78.8193 126.097 78.8193 127.962Z" fill="#7AC7C4"/>
<path fill-rule="evenodd" clip-rule="evenodd" d="M82.9631 149.423C82.5306 147.61 79.729 148.38 80.1614 150.193C80.412 151.238 80.4325 152.271 80.4334 153.341C80.4334 155.206 83.3385 155.206 83.3385 153.341C83.3376 152.016 83.2725 150.718 82.9631 149.423Z" fill="#7AC7C4"/>
<path fill-rule="evenodd" clip-rule="evenodd" d="M97.1661 131.112C96.8433 129.185 96.5205 127.257 96.1978 125.329C95.8901 123.493 93.092 124.274 93.3961 126.098C93.7198 128.025 94.0426 129.952 94.3645 131.88C94.6712 133.717 97.4711 132.936 97.1661 131.112Z" fill="#7AC7C4"/>
<path fill-rule="evenodd" clip-rule="evenodd" d="M114.597 129.826C114.313 127.989 111.514 128.773 111.795 130.596C112.087 132.483 112.066 134.411 112.066 136.315C112.066 138.179 114.972 138.179 114.971 136.315C114.971 134.138 114.929 131.982 114.597 129.826Z" fill="#7AC7C4"/>
<path fill-rule="evenodd" clip-rule="evenodd" d="M101.686 146.659C102.028 144.836 99.2273 144.058 98.884 145.889C98.5095 147.883 98.5692 149.801 98.884 151.799C99.0079 152.578 99.9727 152.999 100.671 152.809C101.497 152.581 101.809 151.808 101.686 151.03C101.456 149.58 101.415 148.104 101.686 146.659Z" fill="#7AC7C4"/>
<path fill-rule="evenodd" clip-rule="evenodd" d="M85.6499 100.592C85.3262 101.989 85.2754 103.404 85.2754 104.831C85.2736 106.697 88.1796 106.697 88.1805 104.831C88.1805 103.663 88.1858 102.505 88.4507 101.361C88.8715 99.5462 86.0717 98.7759 85.6499 100.592Z" fill="#7AC7C4"/>
</svg>
