<svg width="180" height="169" viewBox="0 0 180 169" fill="none" xmlns="http://www.w3.org/2000/svg">
<path fill-rule="evenodd" clip-rule="evenodd" d="M86.0432 135.391C84.2856 135.606 82.5322 135.436 80.7714 135.4C80.3812 133.355 80.0154 131.306 79.6752 129.255C82.0229 129.266 84.4175 129.278 86.7439 128.944C86.6057 131.091 86.4749 133.237 86.3441 135.384C86.2484 135.377 86.1495 135.378 86.0432 135.391ZM85.5604 150.347C85.5423 150.347 85.5295 150.338 85.5114 150.338H83.4731C83.1541 148.136 82.7724 145.939 82.3684 143.745C83.5337 143.876 84.6906 143.855 85.8591 143.691C85.7475 145.91 85.6444 148.128 85.5604 150.347ZM85.2627 161.353C85.0075 161.34 84.73 161.319 84.4322 161.294C84.4184 160.37 84.378 159.449 84.328 158.53C84.461 158.497 84.5939 158.455 84.7215 158.393C84.7895 158.361 84.8693 158.331 84.9405 158.3C85.0702 158.291 85.1989 158.278 85.3286 158.268C85.3095 159.297 85.2712 160.325 85.2627 161.353ZM88.4355 162.883C88.4812 151.028 89.2287 139.207 90.0304 127.384C90.0932 126.472 89.502 125.967 88.8119 125.864C88.4727 125.591 88.0198 125.45 87.4796 125.573C84.6119 126.218 81.522 126.049 78.6001 126.049C78.4768 126.049 78.3619 126.062 78.2535 126.083C77.2859 125.948 76.0673 126.768 76.2651 128.076C77.9217 139.061 81.0159 149.873 81.2392 161.025C77.3731 160.788 73.1476 161.126 74.3629 165.563C76.0408 171.688 84.764 168.165 87.9113 166.134C88.8853 165.505 88.7992 164.349 88.2271 163.661C88.359 163.414 88.4344 163.138 88.4355 162.883Z" fill="#7AC7C4"/>
<path fill-rule="evenodd" clip-rule="evenodd" d="M98.0784 135.384C97.9487 133.237 97.8168 131.091 97.6797 128.944C100.005 129.278 102.4 129.266 104.747 129.256C104.408 131.307 104.042 133.355 103.651 135.4C101.891 135.436 100.138 135.606 98.3793 135.391C98.274 135.379 98.1741 135.378 98.0784 135.384ZM98.5643 143.691C99.7329 143.856 100.89 143.876 102.055 143.746C101.65 145.94 101.269 148.135 100.95 150.338H98.9109C98.8939 150.338 98.8812 150.347 98.8631 150.347C98.778 148.128 98.6759 145.909 98.5643 143.691ZM99.0949 158.268C99.2246 158.278 99.3533 158.291 99.4819 158.3C99.5532 158.331 99.634 158.361 99.702 158.394C99.8285 158.455 99.9615 158.496 100.094 158.53C100.045 159.45 100.005 160.37 99.9912 161.295C99.6946 161.319 99.416 161.341 99.1608 161.353C99.1523 160.324 99.1151 159.296 99.0949 158.268ZM96.1964 163.66C95.6243 164.349 95.5382 165.505 96.5122 166.134C99.6585 168.165 108.382 171.688 110.061 165.563C111.276 161.126 107.05 160.788 103.184 161.025C103.408 149.873 106.502 139.06 108.158 128.076C108.356 126.768 107.138 125.948 106.169 126.084C106.062 126.062 105.946 126.05 105.822 126.05C102.901 126.05 99.8105 126.218 96.9439 125.573C96.4027 125.451 95.9497 125.592 95.6116 125.864C94.9215 125.967 94.3314 126.471 94.392 127.384C95.1948 139.207 95.9412 151.027 95.9869 162.883C95.989 163.138 96.0645 163.414 96.1964 163.66Z" fill="#7AC7C4"/>
<path fill-rule="evenodd" clip-rule="evenodd" d="M28.3559 93.5259C28.4208 93.4512 28.4676 93.3679 28.5229 93.2868C30.238 95.042 31.8829 96.8548 33.4161 98.7723C32.8409 99.0669 32.2678 99.3638 31.7244 99.7161C31.4958 99.8645 31.3278 100.043 31.2056 100.239C29.4798 98.6548 27.7105 97.111 25.9029 95.6163C26.8174 95.0398 27.6606 94.3352 28.3559 93.5259ZM20.1867 89.0087C20.1133 89.0739 20.0548 89.1443 19.9974 89.2127C19.7188 89.4112 19.4413 89.6098 19.1436 89.7774C18.9958 89.8618 18.8778 89.9622 18.7725 90.0689C18.6311 89.9675 18.4961 89.8565 18.3546 89.7561C16.025 88.0959 13.5805 86.4379 11.2923 84.609C13.0797 84.0015 14.8362 83.3033 16.5651 82.5399C16.8745 82.4043 17.0851 82.21 17.2254 81.9912C18.546 83.4058 19.9272 84.7307 21.1447 85.967C21.5775 86.4069 22.0166 86.8382 22.4536 87.2728C21.671 87.8151 20.898 88.3735 20.1867 89.0087ZM10.0928 75.0034C9.11884 75.4091 7.01353 76.4468 6.0991 76.1842C5.25698 75.9418 4.59774 76.3582 4.26706 76.9561C4.17242 76.7959 4.07247 76.6411 3.98209 76.4767C2.11921 73.0955 3.70032 69.8691 6.37343 67.0569C7.06563 68.1021 8.25757 68.7342 9.42932 69.1175C10.1959 69.3662 11.2975 69.6385 12.213 69.5477C11.8398 70.7317 11.7313 71.9713 11.9823 73.2652C12.0344 73.5428 12.1046 73.8151 12.179 74.0873C11.4878 74.4002 10.7946 74.7108 10.0928 75.0034ZM16.1909 59.56C18.109 58.218 20.0049 56.8162 21.8763 55.3802C21.905 56.3966 21.9635 57.4109 21.9294 58.4262C21.9188 58.7209 21.9815 58.9728 22.0857 59.1885C20.8587 60.0341 19.6062 60.933 18.4142 61.8811C17.8826 61.6035 17.3371 61.359 16.7831 61.1337C16.2036 60.87 15.6241 60.6042 15.0436 60.3394C15.4561 60.0629 15.8432 59.8013 16.1909 59.56ZM39.4046 101.718C38.8155 100.759 38.1893 99.8388 37.5396 98.9366C37.4386 98.3622 37.0579 97.8391 36.5529 97.617C31.3151 90.8204 24.5707 85.3829 18.9267 78.8874C16.8246 76.4671 14.4237 73.845 15.5104 70.4403C16.2494 68.1235 18.6237 66.2605 20.392 64.7337C23.5244 62.0305 27.1162 59.9208 30.2965 57.2773C30.7537 56.8973 30.893 56.4307 30.8324 55.9908C31.7755 55.2018 32.5028 54.2079 32.9419 52.9032C33.7766 50.4306 33.5278 47.7604 34.4539 45.2749C34.8282 44.2713 34.1956 43.5293 33.3992 43.3094C32.9005 42.562 31.8861 42.1905 31.0918 43.0233C25.1778 49.2284 18.1697 54.2602 11.1977 59.1873C6.34698 62.6155 -0.195425 67.3035 0.00447285 73.9677C0.185232 79.9924 6.44693 84.8192 10.7022 88.1652C18.477 94.2775 26.4825 99.7374 33.4661 106.856C34.4008 107.809 35.7161 107.238 36.135 106.317C36.9835 106.297 37.8203 105.634 38.0936 104.761C38.1637 104.537 38.1818 104.329 38.1669 104.135C38.2041 104.076 38.2307 104.018 38.2594 103.958C39.244 103.783 40.0745 102.808 39.4046 101.718Z" fill="#7AC7C4"/>
<path fill-rule="evenodd" clip-rule="evenodd" d="M154.097 95.6163C152.289 97.111 150.521 98.6548 148.794 100.239C148.671 100.043 148.504 99.8645 148.275 99.7161C147.733 99.3638 147.16 99.0669 146.585 98.7723C148.117 96.8548 149.762 95.042 151.477 93.2868C151.532 93.3679 151.579 93.4512 151.644 93.5259C152.339 94.3352 153.183 95.0398 154.097 95.6163ZM157.546 87.2728C157.983 86.8382 158.421 86.4069 158.856 85.967C160.072 84.7307 161.454 83.4058 162.774 81.9912C162.916 82.21 163.125 82.4043 163.435 82.5399C165.163 83.3033 166.92 84.0015 168.707 84.609C166.42 86.4379 163.975 88.0959 161.646 89.7561C161.505 89.8565 161.369 89.9675 161.227 90.0689C161.122 89.9622 161.005 89.8618 160.856 89.7774C160.558 89.6098 160.281 89.4112 160.002 89.2127C159.945 89.1443 159.887 89.0739 159.813 89.0087C159.102 88.3735 158.328 87.8151 157.546 87.2728ZM167.821 74.0873C167.896 73.8151 167.965 73.5428 168.018 73.2652C168.268 71.9713 168.16 70.7317 167.787 69.5477C168.702 69.6385 169.804 69.3662 170.57 69.1175C171.743 68.7342 172.934 68.1021 173.626 67.0569C176.3 69.8691 177.88 73.0955 176.018 76.4767C175.927 76.6411 175.827 76.7959 175.734 76.9561C175.403 76.3582 174.743 75.9418 173.901 76.1842C172.986 76.4468 170.882 75.4091 169.907 75.0034C169.205 74.7108 168.513 74.4002 167.821 74.0873ZM164.956 60.3394C164.376 60.6042 163.796 60.87 163.217 61.1337C162.663 61.359 162.117 61.6035 161.586 61.8811C160.394 60.933 159.141 60.0341 157.915 59.1885C158.018 58.9728 158.081 58.7209 158.07 58.4262C158.037 57.4109 158.096 56.3966 158.123 55.3802C159.996 56.8162 161.891 58.218 163.81 59.56C164.157 59.8013 164.544 60.0629 164.956 60.3394ZM141.741 103.958C141.769 104.018 141.797 104.076 141.834 104.135C141.818 104.329 141.837 104.537 141.906 104.761C142.179 105.634 143.016 106.297 143.865 106.317C144.284 107.238 145.6 107.809 146.535 106.856C153.517 99.7374 161.522 94.2775 169.298 88.1652C173.553 84.8192 179.815 79.9924 179.995 73.9677C180.196 67.3035 173.653 62.6155 168.802 59.1873C161.83 54.2602 154.823 49.2284 148.908 43.0233C148.115 42.1905 147.099 42.562 146.601 43.3094C145.805 43.5293 145.172 44.2713 145.546 45.2749C146.472 47.7604 146.224 50.4306 147.058 52.9032C147.497 54.2079 148.225 55.2018 149.167 55.9908C149.108 56.4307 149.246 56.8973 149.703 57.2773C152.884 59.9208 156.475 62.0305 159.608 64.7337C161.377 66.2605 163.75 68.1235 164.489 70.4403C165.576 73.845 163.175 76.4671 161.074 78.8874C155.429 85.3829 148.686 90.8204 143.447 97.617C142.943 97.8391 142.561 98.3622 142.461 98.9366C141.811 99.8388 141.184 100.759 140.595 101.718C139.926 102.808 140.756 103.783 141.741 103.958Z" fill="#7AC7C4"/>
<mask id="mask0" mask-type="alpha" maskUnits="userSpaceOnUse" x="25" y="0" width="132" height="133">
<path fill-rule="evenodd" clip-rule="evenodd" d="M25.9668 0H156.645V132.686H25.9668V0H25.9668Z" fill="white"/>
</mask>
<g mask="url(#mask0)">
<path fill-rule="evenodd" clip-rule="evenodd" d="M156.212 61.8845C154.25 60.1251 152.615 58.214 151.085 56.2218C151.508 55.7648 151.658 55.1221 151.234 54.6417C149.253 52.3932 147.036 50.2323 149.736 47.2814C150.218 46.754 149.913 46.0173 149.472 45.5721C147.594 43.6749 146.669 41.404 144.978 39.4737C145.455 39.3307 145.949 39.2185 146.482 39.1459C147.508 39.0072 148.08 37.7687 147.489 37.0726C145.745 35.0195 144.507 33.5996 142.253 32.7166C145.283 29.1934 143.374 26.1741 138.35 24.9314C138.887 24.2235 139.407 23.5082 139.999 22.81C140.76 21.9132 139.995 21.0484 138.996 20.8242C138.929 20.5936 138.803 20.3875 138.62 20.2178C139.001 19.3327 138.11 18.0184 136.598 18.2266C134.081 18.5757 131.692 18.3142 129.277 17.885C129.428 17.3266 129.582 16.7682 129.682 16.1992C129.873 15.1144 128.964 14.2315 127.61 14.4621C126.567 14.6393 125.452 14.5742 124.326 14.4952C124.002 14.2518 123.672 14.0105 123.342 13.7735C123.408 13.118 123.483 12.4614 123.69 11.808C123.989 10.8599 123.149 10.1008 122.065 10.0207C119.894 9.85738 117.816 9.32143 115.685 8.98939C115.725 8.17158 115.641 7.39007 115.512 6.41104C115.394 5.52917 114.521 4.76795 113.378 5.05087C111.708 5.46298 109.965 5.32525 108.244 5.38931C108.334 4.37719 108.408 3.36293 108.709 2.39458C109.097 1.15398 107.534 0.23795 106.234 0.800596C104.281 1.64617 102.144 1.98995 100.095 2.57822C99.9557 2.06468 99.8164 1.55115 99.7207 1.01626C99.5304 -0.0556513 97.709 -0.307614 96.9051 0.393825C93.7216 3.17289 90.1298 3.6181 86.5551 1.0216C85.5556 0.294535 84.1861 0.613759 83.7384 1.64403C81.8915 5.89858 78.3125 3.22948 76.4762 2.05614C75.2353 1.26288 73.6563 2.56327 74.0008 3.65013C74.2815 4.53734 74.4942 5.43308 74.7313 6.3235C73.6893 6.60108 72.6558 6.89682 71.635 7.22352C69.1033 7.02921 66.6599 6.38649 64.0899 5.67757C62.7821 5.31778 61.8687 6.3598 62.0186 7.28224C58.3141 7.55449 54.6011 7.74666 50.9083 8.13742C49.4803 8.28902 48.3203 10.1328 50.0588 10.7681C52.1481 11.5314 54.2779 12.0599 56.4619 12.3984C56.0196 12.6984 55.5762 12.9962 55.1243 13.2845C54.7128 13.1671 54.2492 13.166 53.8037 13.3496C46.4776 16.3721 38.9687 19.0519 32.0818 22.7609C30.9674 23.362 30.9483 25.1225 32.4837 25.3424C35.2355 25.7364 37.9139 25.619 40.5976 25.256C35.7172 28.1386 31.2194 31.0799 29.061 36.1534C28.5378 37.3822 30.3252 38.3036 31.5363 37.7484C31.6713 37.6876 31.8021 37.6192 31.9372 37.5573C30.5347 39.905 29.1333 42.2528 27.7319 44.6016C26.9206 45.9618 29.079 47.6006 30.3784 46.3119C30.7569 45.9372 31.1939 45.6447 31.6628 45.3948C30.9972 47.7234 30.8845 50.0754 31.3077 52.5918C31.3959 53.1192 32.0169 53.5046 32.6528 53.6029C31.6607 55.878 30.3741 58.0485 29.23 60.2884C28.7494 61.2322 29.3491 62.3127 30.5113 62.3991C29.061 65.5839 27.4256 68.7057 26.0646 71.9182C25.5266 73.1908 27.3278 74.0033 28.54 73.5143C28.9631 73.2901 29.4012 73.1129 29.8467 72.9549C29.4172 75.2055 29.6734 77.486 29.7489 79.8241C29.7925 81.1608 31.4991 81.5526 32.6262 80.8223C33.0036 80.5779 33.3917 80.3494 33.7809 80.1241C33.2503 82.396 33.1482 84.6787 33.5544 87.1022C33.7118 88.0385 35.1759 88.3396 36.0298 87.9456C36.0393 87.9392 36.05 87.936 36.0595 87.9307C34.4965 91.1763 32.5847 94.2981 31.3077 97.6451C30.8388 98.8719 32.54 99.8082 33.783 99.2391C34.5231 98.9007 35.2514 98.5441 35.9787 98.1886C35.0739 101.434 33.2418 104.524 32.0563 107.684C31.5299 109.09 33.6863 109.979 34.8729 109.057C35.2163 108.792 35.5545 108.532 35.8937 108.271C35.5991 109.739 35.3588 111.217 35.0526 112.704C34.7676 114.09 36.5518 115.06 37.8692 114.078C38.1351 113.88 38.4168 113.701 38.6912 113.512C37.5949 115.71 36.8506 118.034 36.3923 120.552C36.1712 121.762 37.4907 123.295 38.7348 122.361C39.0038 122.158 39.2813 121.979 39.5599 121.799C39.4174 122.988 39.2728 124.177 39.0506 125.357C38.7762 126.805 40.5732 128.218 41.7152 126.914C42.2043 126.357 42.7242 125.874 43.2463 125.405V125.783C43.2463 126.959 44.6137 127.827 45.6461 127.165C46.719 126.477 47.7291 125.809 48.6808 125.073C48.7095 125.698 48.7095 126.326 48.6201 126.958C48.4234 128.329 50.1534 129.926 51.2847 128.516C51.945 127.694 52.6575 126.925 53.3709 126.158C54.7883 130.141 58.6427 131.097 61.2361 127.789C61.8623 129.017 62.4992 130.238 62.9745 131.546C63.5338 133.09 65.4733 133.043 66.0496 131.546C66.7311 129.777 67.384 127.997 68.04 126.218C69.014 127.591 70.1134 128.852 71.3586 130.117C72.155 130.927 73.7903 130.615 74.0242 129.411C74.1178 128.93 74.2464 128.466 74.3911 128.009C74.6835 128.64 74.9652 129.278 75.2023 129.944C75.6447 131.193 77.4002 131.614 78.1168 130.327C78.9685 128.798 79.7394 127.482 80.2817 126.032C81.6001 127.013 83.0271 127.818 84.4412 128.767C85.3727 129.391 86.4317 128.71 86.7837 127.809C86.9846 127.297 87.175 126.803 87.3525 126.316C88.4052 127.887 89.6822 129.264 91.3526 130.368C92.0161 130.807 93.1996 130.566 93.5345 129.793C94.0289 128.652 94.5829 127.571 95.0507 126.454C96.5521 127.712 98.1279 128.848 99.8589 129.834C100.668 130.295 102.049 129.931 102.201 128.877C102.335 127.955 102.51 127.123 102.66 126.317C104.286 128.127 106.056 129.705 108.365 130.902C109.28 131.376 110.416 130.979 110.708 129.944C111.026 128.819 111.41 127.784 111.733 126.746C113.165 128.302 114.913 129.412 117.252 129.996C118.318 130.262 119.188 129.497 119.271 128.452C119.377 127.108 119.581 125.848 119.719 124.584C121.111 125.783 122.581 126.842 124.315 127.699C125.225 128.15 126.374 127.794 126.657 126.742C126.981 125.542 127.248 124.436 127.408 123.346C128.752 124.543 130.282 125.496 132.138 126.259C133.351 126.759 134.325 125.347 134.1 124.289C134.057 124.093 134.017 123.902 133.976 123.706C135.258 124.62 136.631 125.413 138.137 126.098C139.193 126.577 140.553 126.028 140.537 124.715C140.529 124.071 140.499 123.47 140.441 122.887C141.631 123.422 142.904 123.807 144.366 124.124C145.831 124.442 146.721 123.054 146.167 121.772C145.195 119.519 144.059 117.358 142.437 115.599C142.444 115.475 142.446 115.35 142.415 115.213C142.361 114.969 142.283 114.726 142.206 114.485C143.276 114.522 144.281 113.621 143.914 112.704C143.813 112.453 143.71 112.205 143.608 111.955C144.692 112.018 145.887 111.154 145.411 110.195C144.612 108.58 144.097 106.905 143.413 105.277C143.893 105.372 144.368 105.491 144.836 105.657C146.089 106.026 147.212 104.9 146.909 103.92C146.741 103.374 146.616 102.822 146.507 102.266C147.689 103.131 149.528 102.031 149.156 100.783L147.625 95.654C148.448 95.8259 149.272 96.001 150.079 96.2444C151.545 96.6853 152.641 95.1832 151.981 94.17C150.623 92.0806 149.797 89.9507 149.183 87.731C149.346 87.8015 149.508 87.8741 149.677 87.9456C150.84 88.4421 152.766 87.6008 152.152 86.3516C151.405 84.8281 150.979 83.2843 150.553 81.7202C151.297 81.3487 151.658 80.4316 151.234 79.7398C150.412 78.3977 150.013 76.9276 149.614 75.4564C150.42 75.2258 151.039 74.5852 150.654 73.8015C150.015 72.4958 149.605 71.1762 149.261 69.8374C149.635 70.02 150.017 70.2004 150.427 70.3765C151.72 70.9381 153.297 70.0221 152.902 68.7826C152.229 66.6708 151.42 64.607 150.47 62.5828C151.78 62.9479 153.046 63.3942 154.171 64.102C155.758 65.1013 157.465 63.0077 156.212 61.8845Z" fill="#263958"/>
</g>
<path fill-rule="evenodd" clip-rule="evenodd" d="M108.314 41.1146C102.987 31.8432 87.5357 29.1965 79.3005 36.0294C74.7847 37.8988 70.8463 40.7089 67.8117 44.7851C63.6776 50.3368 61.6446 59.9936 64.8451 66.376C71.5736 79.7962 88.5671 85.9779 101.858 77.899C115.104 69.8479 115.614 53.8195 108.314 41.1146Z" fill="white"/>
<path fill-rule="evenodd" clip-rule="evenodd" d="M97.4488 71.8216C89.7857 76.4072 79.1294 72.5444 74.6477 65.4809C71.83 61.0385 72.5828 52.2251 76.2533 47.2894C76.9189 47.5574 77.7599 47.4667 78.2937 46.7375C83.2061 40.0177 95.8677 37.9775 101.06 45.2235C106.819 53.2565 106.385 66.4728 97.4488 71.8216ZM102.846 42.278C97.233 35.791 86.8989 36.3366 79.9663 40.9573C79.7941 40.9562 79.6133 40.9787 79.4166 41.0491C70.939 44.0759 67.3281 58.1762 71.2399 65.8194C76.6074 76.3101 90.2036 79.8867 100.244 73.8769C110.47 67.7572 110.013 50.5629 102.846 42.278Z" fill="#7AC7C4"/>
<path fill-rule="evenodd" clip-rule="evenodd" d="M92.0948 53.4071C92.1629 52.8081 91.9619 52.1729 91.3431 51.7394C91.2325 51.6636 91.1272 51.6038 91.0188 51.5387C90.9465 51.4276 90.8891 51.3134 90.8093 51.2045C90.1798 50.3536 88.906 49.9522 88.0884 50.8522C87.9969 50.9547 87.931 51.0711 87.8449 51.1757C84.6305 52.6736 83.8575 60.0574 87.982 61.4645C89.7109 62.0539 91.0092 60.8592 91.7663 59.4221C91.9555 59.2225 92.0969 58.9887 92.1384 58.7282C92.1501 58.6534 92.1576 58.5819 92.1671 58.5072C92.2469 58.2894 92.3128 58.0726 92.367 57.8634C92.7487 56.3516 92.6658 54.7747 92.0948 53.4071Z" fill="#7AC7C4"/>
<path fill-rule="evenodd" clip-rule="evenodd" d="M107.835 70.9813C104.115 77.9541 96.5459 80.2388 89.1667 80.1331C76.5327 79.9548 65.8797 72.1077 64.7409 59.0494C64.1188 51.9261 66.894 45.6462 71.6841 41.4205C72.0403 41.4162 72.4072 41.2742 72.7283 40.923C73.1844 40.4244 73.664 39.9642 74.1552 39.5222C76.957 37.6998 80.2415 36.4827 83.8279 36.0535C84.8764 35.9275 85.3803 35.0029 85.3421 34.1766C88.7499 33.5456 92.3151 33.5509 95.7836 34.0933C103.565 35.3093 108.317 42.2618 110.373 49.337C112.463 56.5244 111.322 64.4452 107.835 70.9813ZM113.09 47.2499C110.794 39.3515 104.784 32.7076 96.6309 31.0057C88.0576 29.2142 78.3158 31.3153 71.8255 37.3069C64.8248 42.1679 60.796 50.4026 61.6338 59.9996C63.0129 75.8114 77.2184 83.6991 91.811 83.3222C110.369 82.8407 117.714 63.1545 113.09 47.2499Z" fill="#7AC7C4"/>
<path fill-rule="evenodd" clip-rule="evenodd" d="M127.189 98.933C126.144 95.5144 123.618 92.9595 121.462 90.2189C120.188 88.5982 117.946 90.8819 119.206 92.4834C119.609 92.9958 120.037 93.504 120.465 94.0154C113.189 100.417 103.76 103.437 94.2032 103.922C83.6437 104.457 73.8306 99.2351 64.428 95.0852C64.8193 94.5642 65.2127 94.0453 65.6391 93.551C66.9788 91.9976 64.7331 89.7224 63.3838 91.2865C61.0318 94.0133 59.203 97.1148 57.2859 100.152C56.1822 101.902 58.9435 103.508 60.0409 101.768C60.8851 100.43 61.7081 99.0707 62.5704 97.7404C72.7737 102.212 82.7963 107.264 94.2032 107.125C104.37 107.001 114.733 103.175 122.434 96.5201C123.142 97.5312 123.751 98.5977 124.112 99.7839C124.714 101.753 127.794 100.912 127.189 98.933Z" fill="#7AC7C4"/>
<path fill-rule="evenodd" clip-rule="evenodd" d="M53.5484 20.8222L48.7636 26.4273C47.4324 27.9861 49.678 30.2633 51.0188 28.6918L55.8036 23.0867C57.1349 21.5279 54.8892 19.2506 53.5484 20.8222Z" fill="#7AC7C4"/>
<path fill-rule="evenodd" clip-rule="evenodd" d="M55.7473 28.3124C54.9307 27.8319 54.0875 28.1906 53.5654 28.8867C52.7382 29.9885 51.8567 31.0498 50.8913 32.032C49.4452 33.5022 51.6994 35.7677 53.1465 34.2965C54.3044 33.1199 55.3294 31.8228 56.3204 30.5032C56.8446 29.8038 56.4321 28.7149 55.7473 28.3124Z" fill="#7AC7C4"/>
<path fill-rule="evenodd" clip-rule="evenodd" d="M45.0584 32.0897C44.2376 33.4477 43.3827 34.7364 42.7713 36.2087C42.4364 37.0158 43.1275 37.9692 43.8846 38.1785C44.8043 38.4315 45.5125 37.8646 45.8474 37.0596C46.3418 35.8692 47.1489 34.8036 47.8134 33.7061C48.8831 31.9349 46.1239 30.327 45.0584 32.0897Z" fill="#7AC7C4"/>
<path fill-rule="evenodd" clip-rule="evenodd" d="M125.699 29.6875C124.6 28.0465 123.38 26.4995 121.994 25.0924C120.545 23.6222 118.291 25.8878 119.739 27.3569C120.937 28.575 121.994 29.884 122.945 31.3039C124.086 33.0068 126.851 31.4064 125.699 29.6875Z" fill="#7AC7C4"/>
<path fill-rule="evenodd" clip-rule="evenodd" d="M125.433 22.7478C124.321 21.108 122.996 19.6666 121.462 18.4196C120.787 17.8709 119.87 17.7545 119.207 18.4196C118.639 18.9887 118.53 20.1343 119.207 20.6841C120.521 21.7539 121.724 22.955 122.679 24.3643C123.828 26.0607 126.594 24.4603 125.433 22.7478Z" fill="#7AC7C4"/>
<path fill-rule="evenodd" clip-rule="evenodd" d="M134.205 29.1537C133.474 27.9206 132.81 26.6491 132.078 25.417C131.027 23.6447 128.269 25.2547 129.324 27.0334C130.056 28.2665 130.72 29.537 131.451 30.7701C132.501 32.5424 135.259 30.9324 134.205 29.1537Z" fill="#7AC7C4"/>
<path fill-rule="evenodd" clip-rule="evenodd" d="M131.547 75.8629C130.451 74.1942 129.454 72.4604 128.357 70.7916C127.229 69.077 124.466 70.6795 125.603 72.408C126.699 74.0768 127.696 75.8095 128.793 77.4793C129.921 79.194 132.683 77.5914 131.547 75.8629Z" fill="#7AC7C4"/>
<path fill-rule="evenodd" clip-rule="evenodd" d="M131.974 69.0391C131.569 67.9127 130.876 66.9711 130.218 65.9878C129.734 65.2639 128.822 64.9511 128.036 65.4134C127.321 65.833 126.978 66.8782 127.464 67.6031C127.745 68.0248 128.036 68.4401 128.314 68.8651C128.439 69.0572 128.557 69.2526 128.673 69.4512C128.726 69.5452 128.778 69.6402 128.827 69.7363C128.85 69.7779 128.864 69.8025 128.876 69.8249C128.883 69.8452 128.887 69.859 128.898 69.89C129.193 70.71 129.973 71.2534 130.859 71.0089C131.648 70.7911 132.269 69.8612 131.974 69.0391Z" fill="#7AC7C4"/>
<path fill-rule="evenodd" clip-rule="evenodd" d="M137.66 71.8593L136.863 70.2578C136.475 69.4774 135.393 69.2639 134.681 69.6834C133.895 70.1457 133.721 71.0927 134.109 71.8742L134.906 73.4757C135.295 74.2561 136.376 74.4686 137.088 74.0501C137.874 73.5878 138.048 72.6397 137.66 71.8593Z" fill="#7AC7C4"/>
<path fill-rule="evenodd" clip-rule="evenodd" d="M43.7298 76.3968C42.8792 77.821 42.0753 79.2453 41.4427 80.7827C41.1099 81.5909 41.7957 82.5432 42.5559 82.7525C43.4735 83.0055 44.187 82.4407 44.5188 81.6336C45.0398 80.3674 45.7841 79.1855 46.4848 78.0132C47.5449 76.2377 44.7867 74.6277 43.7298 76.3968Z" fill="#7AC7C4"/>
<path fill-rule="evenodd" clip-rule="evenodd" d="M45.164 81.8507C44.9205 82.7571 44.4399 83.5247 43.9954 84.4045C43.602 85.1817 43.7849 86.1351 44.5675 86.5942C45.2841 87.0159 46.357 86.7981 46.7504 86.0198C47.298 84.9362 47.9221 83.8856 48.2401 82.7016C48.7749 80.7051 45.6978 79.8585 45.164 81.8507Z" fill="#7AC7C4"/>
<path fill-rule="evenodd" clip-rule="evenodd" d="M52.0829 81.1439C51.4726 80.5311 50.437 80.5214 49.8277 81.1439C48.9643 82.0257 48.2732 83.0357 47.7171 84.1375C47.3236 84.9158 47.5065 85.8682 48.2902 86.3273C49.0047 86.749 50.0786 86.5323 50.472 85.7529C50.7092 85.2831 50.9643 84.8262 51.2557 84.3874C51.4577 84.082 51.7076 83.7916 52.0829 83.4083C52.6922 82.7859 52.7018 81.7652 52.0829 81.1439Z" fill="#7AC7C4"/>
<path fill-rule="evenodd" clip-rule="evenodd" d="M65.6325 111.745C65.3167 113.413 64.5862 114.951 64.0376 116.549C63.3656 118.507 66.4481 119.341 67.1137 117.4C67.6613 115.802 68.3928 114.265 68.7086 112.596C69.0893 110.578 66.0153 109.717 65.6325 111.745Z" fill="#7AC7C4"/>
<path fill-rule="evenodd" clip-rule="evenodd" d="M71.0496 113.028C70.1926 112.791 69.343 113.313 69.0878 114.147C68.8209 115.018 68.822 115.944 68.5562 116.816C68.301 117.65 68.8507 118.559 69.6694 118.786C70.5264 119.022 71.3771 118.501 71.6312 117.667C71.8981 116.795 71.897 115.869 72.1628 114.998C72.4191 114.163 71.8683 113.254 71.0496 113.028Z" fill="#7AC7C4"/>
<path fill-rule="evenodd" clip-rule="evenodd" d="M116.661 116.166C116.166 115.393 115.828 114.536 115.332 113.764C114.863 113.031 113.924 112.734 113.15 113.19C112.425 113.616 112.107 114.646 112.578 115.381C113.072 116.152 113.41 117.011 113.907 117.783C114.377 118.515 115.315 118.813 116.089 118.357C116.815 117.93 117.132 116.9 116.661 116.166Z" fill="#7AC7C4"/>
<path fill-rule="evenodd" clip-rule="evenodd" d="M121.712 114.298C121.261 113.377 120.893 112.406 120.866 111.37C120.812 109.308 117.622 109.303 117.676 111.37C117.718 112.992 118.252 114.471 118.958 115.914C119.341 116.697 120.43 116.905 121.14 116.489C121.93 116.024 122.095 115.081 121.712 114.298Z" fill="#7AC7C4"/>
</svg>
