<svg width="180" height="169" viewBox="0 0 180 169" fill="none" xmlns="http://www.w3.org/2000/svg">
<path fill-rule="evenodd" clip-rule="evenodd" d="M86.0432 135.391C84.2856 135.606 82.5322 135.436 80.7714 135.4C80.3812 133.355 80.0154 131.306 79.6752 129.256C82.0229 129.266 84.4175 129.278 86.7439 128.944C86.6057 131.091 86.4749 133.237 86.3441 135.384C86.2484 135.377 86.1495 135.378 86.0432 135.391ZM85.5604 150.347C85.5423 150.347 85.5295 150.338 85.5114 150.338H83.4731C83.1541 148.136 82.7724 145.94 82.3684 143.746C83.5337 143.876 84.6906 143.856 85.8591 143.691C85.7475 145.91 85.6444 148.128 85.5604 150.347ZM85.2627 161.353C85.0075 161.34 84.73 161.319 84.4322 161.294C84.4184 160.37 84.378 159.45 84.328 158.53C84.461 158.497 84.5939 158.456 84.7215 158.394C84.7895 158.362 84.8693 158.331 84.9405 158.3C85.0702 158.291 85.1989 158.278 85.3286 158.268C85.3095 159.297 85.2712 160.325 85.2627 161.353ZM88.4355 162.883C88.4812 151.028 89.2287 139.207 90.0304 127.384C90.0932 126.472 89.502 125.967 88.8119 125.864C88.4727 125.591 88.0198 125.45 87.4796 125.573C84.6119 126.218 81.522 126.049 78.6001 126.049C78.4768 126.049 78.3619 126.062 78.2535 126.084C77.2859 125.948 76.0673 126.768 76.2651 128.076C77.9217 139.061 81.0159 149.873 81.2392 161.025C77.3731 160.788 73.1476 161.126 74.3629 165.563C76.0408 171.688 84.764 168.165 87.9113 166.134C88.8853 165.505 88.7992 164.349 88.2271 163.661C88.359 163.414 88.4344 163.138 88.4355 162.883Z" fill="#3B3734"/>
<path fill-rule="evenodd" clip-rule="evenodd" d="M98.0784 135.384C97.9487 133.237 97.8168 131.091 97.6797 128.944C100.005 129.278 102.4 129.266 104.747 129.256C104.408 131.307 104.042 133.355 103.651 135.4C101.891 135.436 100.138 135.606 98.3793 135.391C98.274 135.379 98.1741 135.378 98.0784 135.384ZM98.5643 143.691C99.7329 143.856 100.89 143.876 102.055 143.746C101.65 145.94 101.269 148.135 100.95 150.338H98.9109C98.8939 150.338 98.8812 150.347 98.8631 150.347C98.778 148.128 98.6759 145.909 98.5643 143.691ZM99.0949 158.268C99.2246 158.278 99.3533 158.291 99.4819 158.3C99.5532 158.331 99.634 158.361 99.702 158.394C99.8285 158.455 99.9615 158.496 100.094 158.53C100.045 159.45 100.005 160.37 99.9912 161.295C99.6946 161.319 99.416 161.34 99.1608 161.353C99.1523 160.324 99.1151 159.296 99.0949 158.268ZM96.1964 163.66C95.6243 164.349 95.5382 165.505 96.5122 166.134C99.6585 168.165 108.382 171.688 110.061 165.563C111.276 161.126 107.05 160.788 103.184 161.026C103.408 149.873 106.502 139.06 108.158 128.076C108.356 126.768 107.138 125.948 106.169 126.084C106.062 126.062 105.946 126.05 105.822 126.05C102.901 126.05 99.8105 126.218 96.9439 125.573C96.4027 125.451 95.9497 125.592 95.6116 125.864C94.9215 125.967 94.3314 126.471 94.392 127.384C95.1948 139.207 95.9412 151.027 95.9869 162.883C95.989 163.138 96.0645 163.414 96.1964 163.66Z" fill="#3B3734"/>
<path fill-rule="evenodd" clip-rule="evenodd" d="M28.3559 93.5259C28.4208 93.4511 28.4676 93.3679 28.5229 93.2867C30.238 95.0419 31.8829 96.8548 33.4161 98.7723C32.8409 99.0669 32.2678 99.3637 31.7244 99.7161C31.4958 99.8645 31.3278 100.043 31.2056 100.239C29.4798 98.6548 27.7105 97.111 25.9029 95.6163C26.8174 95.0398 27.6606 94.3351 28.3559 93.5259ZM20.1867 89.0087C20.1133 89.0739 20.0548 89.1443 19.9974 89.2126C19.7188 89.4112 19.4413 89.6098 19.1436 89.7774C18.9958 89.8618 18.8778 89.9621 18.7725 90.0689C18.6311 89.9675 18.4961 89.8564 18.3546 89.7561C16.025 88.0959 13.5805 86.4379 11.2923 84.609C13.0797 84.0015 14.8362 83.3033 16.5651 82.5399C16.8745 82.4043 17.0851 82.21 17.2254 81.9911C18.546 83.4058 19.9272 84.7307 21.1447 85.967C21.5775 86.4069 22.0166 86.8382 22.4536 87.2727C21.671 87.8151 20.898 88.3735 20.1867 89.0087ZM10.0928 75.0033C9.11884 75.4091 7.01353 76.4468 6.0991 76.1842C5.25698 75.9418 4.59774 76.3582 4.26706 76.9561C4.17242 76.7959 4.07247 76.6411 3.98209 76.4767C2.11921 73.0955 3.70032 69.8691 6.37343 67.0569C7.06563 68.1021 8.25757 68.7342 9.42932 69.1175C10.1959 69.3662 11.2975 69.6385 12.213 69.5477C11.8398 70.7317 11.7313 71.9713 11.9823 73.2652C12.0344 73.5428 12.1046 73.8151 12.179 74.0873C11.4878 74.4001 10.7946 74.7108 10.0928 75.0033ZM16.1909 59.56C18.109 58.218 20.0049 56.8162 21.8763 55.3802C21.905 56.3966 21.9635 57.4109 21.9294 58.4262C21.9188 58.7209 21.9815 58.9728 22.0857 59.1885C20.8587 60.034 19.6062 60.933 18.4142 61.8811C17.8826 61.6035 17.3371 61.359 16.7831 61.1337C16.2036 60.87 15.6241 60.6042 15.0436 60.3394C15.4561 60.0629 15.8432 59.8013 16.1909 59.56ZM39.4046 101.718C38.8155 100.759 38.1893 99.8389 37.5396 98.9367C37.4386 98.3623 37.0579 97.8392 36.5529 97.6171C31.3151 90.8205 24.5707 85.383 18.9267 78.8875C16.8246 76.4672 14.4237 73.845 15.5104 70.4403C16.2494 68.1236 18.6237 66.2605 20.392 64.7338C23.5244 62.0305 27.1162 59.9209 30.2965 57.2774C30.7537 56.8973 30.893 56.4308 30.8324 55.9909C31.7755 55.2019 32.5028 54.2079 32.9419 52.9033C33.7766 50.4306 33.5278 47.7605 34.4539 45.275C34.8282 44.2714 34.1956 43.5294 33.3992 43.3095C32.9005 42.5621 31.8861 42.1906 31.0918 43.0233C25.1778 49.2285 18.1697 54.2603 11.1977 59.1874C6.34698 62.6156 -0.195425 67.3036 0.00447285 73.9678C0.185232 79.9925 6.44693 84.8193 10.7022 88.1653C18.477 94.2775 26.4825 99.7374 33.4661 106.856C34.4008 107.809 35.7161 107.238 36.135 106.317C36.9835 106.297 37.8203 105.634 38.0936 104.761C38.1637 104.538 38.1818 104.329 38.1669 104.135C38.2041 104.076 38.2307 104.018 38.2594 103.958C39.244 103.783 40.0745 102.808 39.4046 101.718Z" fill="#3B3734"/>
<path fill-rule="evenodd" clip-rule="evenodd" d="M154.097 95.6163C152.289 97.111 150.521 98.6548 148.794 100.239C148.671 100.043 148.504 99.8645 148.275 99.7161C147.733 99.3637 147.16 99.0669 146.585 98.7723C148.117 96.8548 149.762 95.0419 151.477 93.2867C151.532 93.3679 151.579 93.4511 151.644 93.5259C152.339 94.3351 153.183 95.0398 154.097 95.6163ZM157.546 87.2727C157.983 86.8382 158.421 86.4069 158.856 85.967C160.072 84.7307 161.454 83.4058 162.774 81.9911C162.916 82.21 163.125 82.4043 163.435 82.5399C165.163 83.3033 166.92 84.0015 168.707 84.609C166.42 86.4379 163.975 88.0959 161.646 89.7561C161.505 89.8564 161.369 89.9675 161.227 90.0689C161.122 89.9621 161.005 89.8618 160.856 89.7774C160.558 89.6098 160.281 89.4112 160.002 89.2126C159.945 89.1443 159.887 89.0739 159.813 89.0087C159.102 88.3735 158.328 87.8151 157.546 87.2727ZM167.821 74.0873C167.896 73.8151 167.965 73.5428 168.018 73.2652C168.268 71.9713 168.16 70.7317 167.787 69.5477C168.702 69.6385 169.804 69.3662 170.57 69.1175C171.743 68.7342 172.934 68.1021 173.626 67.0569C176.3 69.8691 177.88 73.0955 176.018 76.4767C175.927 76.6411 175.827 76.7959 175.734 76.9561C175.403 76.3582 174.743 75.9418 173.901 76.1842C172.986 76.4468 170.882 75.4091 169.907 75.0033C169.205 74.7108 168.513 74.4001 167.821 74.0873ZM164.956 60.3394C164.376 60.6042 163.796 60.87 163.217 61.1337C162.663 61.359 162.117 61.6035 161.586 61.8811C160.394 60.933 159.141 60.034 157.915 59.1885C158.018 58.9728 158.081 58.7209 158.07 58.4262C158.037 57.4109 158.096 56.3966 158.123 55.3802C159.996 56.8162 161.891 58.218 163.81 59.56C164.157 59.8013 164.544 60.0629 164.956 60.3394ZM141.741 103.958C141.769 104.018 141.797 104.076 141.834 104.135C141.818 104.329 141.837 104.538 141.906 104.761C142.179 105.634 143.016 106.297 143.865 106.317C144.284 107.238 145.6 107.809 146.535 106.856C153.517 99.7374 161.522 94.2775 169.298 88.1653C173.553 84.8193 179.815 79.9925 179.995 73.9678C180.196 67.3036 173.653 62.6156 168.802 59.1874C161.83 54.2603 154.823 49.2285 148.908 43.0233C148.115 42.1906 147.099 42.5621 146.601 43.3095C145.805 43.5294 145.172 44.2714 145.546 45.275C146.472 47.7605 146.224 50.4306 147.058 52.9033C147.497 54.2079 148.225 55.2019 149.167 55.9909C149.108 56.4308 149.246 56.8973 149.703 57.2774C152.884 59.9209 156.475 62.0305 159.608 64.7338C161.377 66.2605 163.75 68.1236 164.489 70.4403C165.576 73.845 163.175 76.4672 161.074 78.8875C155.429 85.383 148.686 90.8205 143.447 97.6171C142.943 97.8392 142.561 98.3623 142.461 98.9367C141.811 99.8389 141.184 100.759 140.595 101.718C139.926 102.808 140.756 103.783 141.741 103.958Z" fill="#3B3734"/>
<mask id="mask0" mask-type="alpha" maskUnits="userSpaceOnUse" x="25" y="0" width="132" height="133">
<path fill-rule="evenodd" clip-rule="evenodd" d="M25.9668 6.10352e-05H156.645V132.686H25.9668V6.10352e-05H25.9668Z" fill="white"/>
</mask>
<g mask="url(#mask0)">
<path fill-rule="evenodd" clip-rule="evenodd" d="M156.212 61.8846C154.25 60.1251 152.615 58.2141 151.085 56.2219C151.508 55.7649 151.658 55.1222 151.234 54.6418C149.253 52.3933 147.036 50.2324 149.736 47.2814C150.218 46.754 149.913 46.0174 149.472 45.5721C147.594 43.675 146.669 41.4041 144.978 39.4738C145.455 39.3307 145.949 39.2186 146.482 39.146C147.508 39.0072 148.08 37.7688 147.489 37.0727C145.745 35.0196 144.507 33.5996 142.253 32.7167C145.283 29.1935 143.374 26.1742 138.35 24.9315C138.887 24.2236 139.407 23.5083 139.999 22.8101C140.76 21.9132 139.995 21.0485 138.996 20.8243C138.929 20.5936 138.803 20.3876 138.62 20.2178C139.001 19.3328 138.11 18.0185 136.598 18.2267C134.081 18.5758 131.692 18.3142 129.277 17.885C129.428 17.3267 129.582 16.7683 129.682 16.1992C129.873 15.1145 128.964 14.2316 127.61 14.4622C126.567 14.6394 125.452 14.5743 124.326 14.4953C124.002 14.2519 123.672 14.0106 123.342 13.7736C123.408 13.118 123.483 12.4614 123.69 11.808C123.989 10.86 123.149 10.1009 122.065 10.0208C119.894 9.85746 117.816 9.32151 115.685 8.98947C115.725 8.17166 115.641 7.39015 115.512 6.41112C115.394 5.52925 114.521 4.76802 113.378 5.05095C111.708 5.46306 109.965 5.32533 108.244 5.38939C108.334 4.37727 108.408 3.36301 108.709 2.39466C109.097 1.15406 107.534 0.238026 106.234 0.800672C104.281 1.64624 102.144 1.99002 100.095 2.57829C99.9557 2.06476 99.8164 1.55122 99.7207 1.01634C99.5304 -0.055575 97.709 -0.307538 96.9051 0.393901C93.7216 3.17297 90.1298 3.61817 86.5551 1.02167C85.5556 0.294611 84.1861 0.613835 83.7384 1.64411C81.8915 5.89865 78.3125 3.22955 76.4762 2.05622C75.2353 1.26296 73.6563 2.56335 74.0008 3.6502C74.2815 4.53741 74.4942 5.43316 74.7313 6.32357C73.6893 6.60116 72.6558 6.8969 71.635 7.22359C69.1033 7.02928 66.6599 6.38656 64.0899 5.67765C62.7821 5.31786 61.8687 6.35987 62.0186 7.28231C58.3141 7.55456 54.6011 7.74674 50.9083 8.13749C49.4803 8.2891 48.3203 10.1329 50.0588 10.7682C52.1481 11.5315 54.2779 12.06 56.4619 12.3984C56.0196 12.6985 55.5762 12.9963 55.1243 13.2846C54.7128 13.1671 54.2492 13.1661 53.8037 13.3497C46.4776 16.3722 38.9687 19.052 32.0818 22.761C30.9674 23.362 30.9483 25.1226 32.4837 25.3425C35.2355 25.7365 37.9139 25.619 40.5976 25.256C35.7172 28.1387 31.2194 31.08 29.061 36.1534C28.5378 37.3823 30.3252 38.3037 31.5363 37.7485C31.6713 37.6876 31.8021 37.6193 31.9372 37.5574C30.5347 39.9051 29.1333 42.2529 27.7319 44.6017C26.9206 45.9618 29.079 47.6007 30.3784 46.312C30.7569 45.9373 31.1939 45.6447 31.6628 45.3949C30.9972 47.7234 30.8845 50.0755 31.3077 52.5919C31.3959 53.1193 32.0169 53.5047 32.6528 53.6029C31.6607 55.8781 30.3741 58.0486 29.23 60.2885C28.7494 61.2323 29.3491 62.3127 30.5113 62.3992C29.061 65.584 27.4256 68.7058 26.0646 71.9183C25.5266 73.1909 27.3278 74.0034 28.54 73.5144C28.9631 73.2902 29.4012 73.113 29.8467 72.955C29.4172 75.2056 29.6734 77.486 29.7489 79.8242C29.7925 81.1609 31.4991 81.5527 32.6262 80.8224C33.0036 80.5779 33.3917 80.3494 33.7809 80.1242C33.2503 82.3961 33.1482 84.6787 33.5544 87.1023C33.7118 88.0386 35.1759 88.3397 36.0298 87.9457C36.0393 87.9393 36.05 87.9361 36.0595 87.9308C34.4965 91.1764 32.5847 94.2982 31.3077 97.6452C30.8388 98.8719 32.54 99.8083 33.783 99.2392C34.5231 98.9008 35.2514 98.5442 35.9787 98.1886C35.0739 101.434 33.2418 104.524 32.0563 107.684C31.5299 109.09 33.6863 109.979 34.8729 109.057C35.2163 108.792 35.5545 108.532 35.8937 108.271C35.5991 109.739 35.3588 111.217 35.0526 112.704C34.7676 114.09 36.5518 115.061 37.8692 114.078C38.1351 113.88 38.4168 113.701 38.6912 113.512C37.5949 115.71 36.8506 118.034 36.3923 120.552C36.1712 121.762 37.4907 123.295 38.7348 122.361C39.0038 122.158 39.2813 121.979 39.5599 121.799C39.4174 122.988 39.2728 124.177 39.0506 125.357C38.7762 126.805 40.5732 128.218 41.7152 126.915C42.2043 126.357 42.7242 125.874 43.2463 125.405V125.783C43.2463 126.959 44.6137 127.827 45.6461 127.165C46.719 126.477 47.7291 125.81 48.6808 125.073C48.7095 125.699 48.7095 126.326 48.6201 126.958C48.4234 128.329 50.1534 129.926 51.2847 128.516C51.945 127.694 52.6575 126.925 53.3709 126.158C54.7883 130.141 58.6427 131.098 61.2361 127.789C61.8623 129.017 62.4992 130.238 62.9745 131.546C63.5338 133.09 65.4733 133.043 66.0496 131.546C66.7311 129.777 67.384 127.997 68.04 126.218C69.014 127.591 70.1134 128.852 71.3586 130.117C72.155 130.927 73.7903 130.615 74.0242 129.411C74.1178 128.93 74.2464 128.466 74.3911 128.009C74.6835 128.64 74.9652 129.278 75.2023 129.945C75.6447 131.193 77.4002 131.614 78.1168 130.327C78.9685 128.798 79.7394 127.483 80.2817 126.032C81.6001 127.013 83.0271 127.818 84.4412 128.767C85.3727 129.391 86.4317 128.71 86.7837 127.809C86.9846 127.297 87.175 126.804 87.3525 126.316C88.4052 127.887 89.6822 129.264 91.3526 130.368C92.0161 130.807 93.1996 130.566 93.5345 129.793C94.0289 128.652 94.5829 127.571 95.0507 126.454C96.5521 127.712 98.1279 128.848 99.8589 129.835C100.668 130.295 102.049 129.931 102.201 128.877C102.335 127.956 102.51 127.123 102.66 126.317C104.286 128.127 106.056 129.705 108.365 130.902C109.28 131.376 110.416 130.979 110.708 129.945C111.026 128.819 111.41 127.784 111.733 126.746C113.165 128.302 114.913 129.412 117.252 129.996C118.318 130.262 119.188 129.497 119.271 128.452C119.377 127.108 119.581 125.848 119.719 124.584C121.111 125.783 122.581 126.842 124.315 127.699C125.225 128.15 126.374 127.794 126.657 126.742C126.981 125.542 127.248 124.437 127.408 123.347C128.752 124.543 130.282 125.496 132.138 126.259C133.351 126.759 134.325 125.347 134.1 124.289C134.057 124.093 134.017 123.902 133.976 123.706C135.258 124.62 136.631 125.413 138.137 126.098C139.193 126.577 140.553 126.028 140.537 124.715C140.529 124.071 140.499 123.47 140.441 122.887C141.631 123.422 142.904 123.807 144.366 124.124C145.831 124.442 146.721 123.054 146.167 121.772C145.195 119.519 144.059 117.358 142.437 115.599C142.444 115.475 142.446 115.35 142.415 115.213C142.361 114.969 142.283 114.726 142.206 114.485C143.276 114.522 144.281 113.621 143.914 112.704C143.813 112.453 143.71 112.205 143.608 111.955C144.692 112.018 145.887 111.154 145.411 110.195C144.612 108.58 144.097 106.905 143.413 105.277C143.893 105.372 144.368 105.491 144.836 105.657C146.089 106.026 147.212 104.9 146.909 103.92C146.741 103.374 146.616 102.822 146.507 102.266C147.689 103.131 149.528 102.031 149.156 100.783L147.625 95.6541C148.448 95.826 149.272 96.0011 150.079 96.2445C151.545 96.6854 152.641 95.1832 151.981 94.17C150.623 92.0807 149.797 89.9507 149.183 87.7311C149.346 87.8016 149.508 87.8742 149.677 87.9457C150.84 88.4422 152.766 87.6009 152.152 86.3517C151.405 84.8282 150.979 83.2844 150.553 81.7203C151.297 81.3488 151.658 80.4317 151.234 79.7398C150.412 78.3978 150.013 76.9277 149.614 75.4565C150.42 75.2258 151.039 74.5853 150.654 73.8016C150.015 72.4959 149.605 71.1763 149.261 69.8375C149.635 70.02 150.017 70.2005 150.427 70.3766C151.72 70.9382 153.297 70.0222 152.902 68.7826C152.229 66.6708 151.42 64.6071 150.47 62.5829C151.78 62.948 153.046 63.3943 154.171 64.1021C155.758 65.1014 157.465 63.0078 156.212 61.8846Z" fill="white"/>
</g>
<path fill-rule="evenodd" clip-rule="evenodd" d="M108.314 41.1146C102.987 31.8432 87.5357 29.1966 79.3005 36.0294C74.7847 37.8989 70.8463 40.7089 67.8117 44.7852C63.6776 50.3369 61.6446 59.9937 64.8451 66.376C71.5736 79.7963 88.5671 85.9779 101.858 77.8991C115.104 69.848 115.614 53.8195 108.314 41.1146Z" fill="white"/>
<path fill-rule="evenodd" clip-rule="evenodd" d="M97.4488 71.8218C89.7857 76.4073 79.1294 72.5446 74.6477 65.4811C71.83 61.0386 72.5828 52.2253 76.2533 47.2896C76.9189 47.5575 77.7599 47.4668 78.2937 46.7376C83.2061 40.0179 95.8677 37.9776 101.06 45.2237C106.819 53.2566 106.385 66.4729 97.4488 71.8218ZM102.846 42.2781C97.233 35.7911 86.8989 36.3367 79.9663 40.9574C79.7941 40.9563 79.6133 40.9788 79.4166 41.0492C70.939 44.076 67.3281 58.1763 71.2399 65.8195C76.6074 76.3102 90.2036 79.8868 100.244 73.877C110.47 67.7573 110.013 50.563 102.846 42.2781Z" fill="#263958"/>
<path fill-rule="evenodd" clip-rule="evenodd" d="M92.0948 53.4071C92.1629 52.8082 91.9619 52.1729 91.3431 51.7395C91.2325 51.6637 91.1272 51.6039 91.0188 51.5388C90.9465 51.4277 90.8891 51.3135 90.8093 51.2046C90.1798 50.3537 88.906 49.9523 88.0884 50.8523C87.9969 50.9548 87.931 51.0711 87.8449 51.1758C84.6305 52.6737 83.8575 60.0575 87.982 61.4646C89.7109 62.054 91.0092 60.8593 91.7663 59.4222C91.9555 59.2226 92.0969 58.9888 92.1384 58.7283C92.1501 58.6535 92.1576 58.582 92.1671 58.5073C92.2469 58.2895 92.3128 58.0727 92.367 57.8635C92.7487 56.3517 92.6658 54.7748 92.0948 53.4071Z" fill="#263958"/>
<path fill-rule="evenodd" clip-rule="evenodd" d="M107.835 70.9814C104.115 77.9541 96.5459 80.2389 89.1667 80.1332C76.5327 79.9549 65.8797 72.1077 64.7409 59.0494C64.1188 51.9261 66.894 45.6463 71.6841 41.4206C72.0403 41.4163 72.4072 41.2743 72.7283 40.9231C73.1844 40.4245 73.664 39.9643 74.1552 39.5223C76.957 37.6998 80.2415 36.4827 83.8279 36.0535C84.8764 35.9276 85.3803 35.003 85.3421 34.1766C88.7499 33.5457 92.3151 33.551 95.7836 34.0934C103.565 35.3094 108.317 42.2619 110.373 49.3371C112.463 56.5245 111.322 64.4453 107.835 70.9814ZM113.09 47.2499C110.794 39.3515 104.784 32.7076 96.6309 31.0058C88.0576 29.2143 78.3158 31.3154 71.8255 37.307C64.8248 42.168 60.796 50.4027 61.6338 59.9997C63.0129 75.8114 77.2184 83.6992 91.811 83.3223C110.369 82.8408 117.714 63.1546 113.09 47.2499Z" fill="#263958"/>
<path fill-rule="evenodd" clip-rule="evenodd" d="M127.189 98.9331C126.144 95.5145 123.618 92.9596 121.462 90.219C120.188 88.5983 117.946 90.882 119.206 92.4834C119.609 92.9959 120.037 93.5041 120.465 94.0155C113.189 100.417 103.76 103.437 94.2032 103.922C83.6437 104.457 73.8306 99.2352 64.428 95.0853C64.8193 94.5643 65.2127 94.0454 65.6391 93.5511C66.9788 91.9977 64.7331 89.7225 63.3838 91.2866C61.0318 94.0134 59.203 97.1149 57.2859 100.152C56.1822 101.902 58.9435 103.508 60.0409 101.768C60.8851 100.43 61.7081 99.0708 62.5704 97.7405C72.7737 102.212 82.7963 107.264 94.2032 107.125C104.37 107.001 114.733 103.175 122.434 96.5202C123.142 97.5313 123.751 98.5978 124.112 99.784C124.714 101.753 127.794 100.912 127.189 98.9331Z" fill="#3B3734"/>
<path fill-rule="evenodd" clip-rule="evenodd" d="M53.5484 20.8223L48.7636 26.4274C47.4324 27.9862 49.678 30.2634 51.0188 28.6919L55.8036 23.0868C57.1349 21.528 54.8892 19.2507 53.5484 20.8223Z" fill="#3B3734"/>
<path fill-rule="evenodd" clip-rule="evenodd" d="M55.7473 28.3124C54.9307 27.832 54.0875 28.1907 53.5654 28.8868C52.7382 29.9886 51.8567 31.0499 50.8913 32.0321C49.4452 33.5022 51.6994 35.7678 53.1465 34.2966C54.3044 33.12 55.3294 31.8228 56.3204 30.5032C56.8446 29.8039 56.4321 28.7149 55.7473 28.3124Z" fill="#3B3734"/>
<path fill-rule="evenodd" clip-rule="evenodd" d="M45.0584 32.0898C44.2376 33.4479 43.3827 34.7365 42.7713 36.2088C42.4364 37.0159 43.1275 37.9693 43.8846 38.1786C44.8043 38.4316 45.5125 37.8647 45.8474 37.0597C46.3418 35.8693 47.1489 34.8038 47.8134 33.7062C48.8831 31.935 46.1239 30.3271 45.0584 32.0898Z" fill="#3B3734"/>
<path fill-rule="evenodd" clip-rule="evenodd" d="M125.699 29.6876C124.6 28.0467 123.38 26.4996 121.994 25.0925C120.545 23.6224 118.291 25.8879 119.739 27.357C120.937 28.5751 121.994 29.8841 122.945 31.304C124.086 33.0069 126.851 31.4065 125.699 29.6876Z" fill="#3B3734"/>
<path fill-rule="evenodd" clip-rule="evenodd" d="M125.433 22.7479C124.321 21.108 122.996 19.6667 121.462 18.4197C120.787 17.8709 119.87 17.7546 119.207 18.4197C118.639 18.9887 118.53 20.1343 119.207 20.6842C120.521 21.7539 121.724 22.955 122.679 24.3643C123.828 26.0608 126.594 24.4604 125.433 22.7479Z" fill="#3B3734"/>
<path fill-rule="evenodd" clip-rule="evenodd" d="M134.205 29.1539C133.474 27.9207 132.81 26.6492 132.078 25.4171C131.027 23.6448 128.269 25.2548 129.324 27.0335C130.056 28.2667 130.72 29.5371 131.451 30.7703C132.501 32.5425 135.259 30.9325 134.205 29.1539Z" fill="#3B3734"/>
<path fill-rule="evenodd" clip-rule="evenodd" d="M131.547 75.863C130.451 74.1943 129.454 72.4604 128.357 70.7917C127.229 69.0771 124.466 70.6796 125.603 72.4081C126.699 74.0769 127.696 75.8096 128.793 77.4794C129.921 79.194 132.683 77.5915 131.547 75.863Z" fill="#3B3734"/>
<path fill-rule="evenodd" clip-rule="evenodd" d="M131.974 69.0392C131.569 67.9128 130.876 66.9712 130.218 65.9879C129.734 65.264 128.822 64.9512 128.036 65.4135C127.321 65.8331 126.978 66.8783 127.464 67.6032C127.745 68.0249 128.036 68.4403 128.314 68.8652C128.439 69.0574 128.557 69.2527 128.673 69.4513C128.726 69.5453 128.778 69.6403 128.827 69.7364C128.85 69.778 128.864 69.8026 128.876 69.825C128.883 69.8453 128.887 69.8592 128.898 69.8901C129.193 70.7101 129.973 71.2535 130.859 71.009C131.648 70.7912 132.269 69.8613 131.974 69.0392Z" fill="#3B3734"/>
<path fill-rule="evenodd" clip-rule="evenodd" d="M137.66 71.8594L136.863 70.258C136.475 69.4775 135.393 69.264 134.681 69.6836C133.895 70.1458 133.721 71.0928 134.109 71.8744L134.906 73.4758C135.295 74.2563 136.376 74.4687 137.088 74.0502C137.874 73.5879 138.048 72.6399 137.66 71.8594Z" fill="#3B3734"/>
<path fill-rule="evenodd" clip-rule="evenodd" d="M43.7298 76.3969C42.8792 77.8211 42.0753 79.2454 41.4427 80.7828C41.1099 81.591 41.7957 82.5433 42.5559 82.7526C43.4735 83.0056 44.187 82.4408 44.5188 81.6337C45.0398 80.3674 45.7841 79.1856 46.4848 78.0133C47.5449 76.2378 44.7867 74.6278 43.7298 76.3969Z" fill="#3B3734"/>
<path fill-rule="evenodd" clip-rule="evenodd" d="M45.164 81.8508C44.9205 82.7572 44.4399 83.5249 43.9954 84.4046C43.602 85.1818 43.7849 86.1352 44.5675 86.5943C45.2841 87.016 46.357 86.7982 46.7504 86.0199C47.298 84.9363 47.9221 83.8857 48.2401 82.7017C48.7749 80.7052 45.6978 79.8586 45.164 81.8508Z" fill="#3B3734"/>
<path fill-rule="evenodd" clip-rule="evenodd" d="M52.0829 81.144C51.4726 80.5311 50.437 80.5215 49.8277 81.144C48.9643 82.0258 48.2732 83.0358 47.7171 84.1376C47.3236 84.9159 47.5065 85.8683 48.2902 86.3274C49.0047 86.7491 50.0786 86.5323 50.472 85.753C50.7092 85.2832 50.9643 84.8262 51.2557 84.3874C51.4577 84.0821 51.7076 83.7917 52.0829 83.4084C52.6922 82.786 52.7018 81.7653 52.0829 81.144Z" fill="#3B3734"/>
<path fill-rule="evenodd" clip-rule="evenodd" d="M65.6325 111.745C65.3167 113.413 64.5862 114.951 64.0376 116.549C63.3656 118.507 66.4481 119.341 67.1137 117.4C67.6613 115.802 68.3928 114.265 68.7086 112.596C69.0893 110.578 66.0153 109.717 65.6325 111.745Z" fill="#3B3734"/>
<path fill-rule="evenodd" clip-rule="evenodd" d="M71.0496 113.028C70.1926 112.791 69.343 113.313 69.0878 114.147C68.8209 115.018 68.822 115.944 68.5562 116.816C68.301 117.65 68.8507 118.56 69.6694 118.786C70.5264 119.022 71.3771 118.501 71.6312 117.667C71.8981 116.795 71.897 115.869 72.1628 114.998C72.4191 114.163 71.8683 113.254 71.0496 113.028Z" fill="#3B3734"/>
<path fill-rule="evenodd" clip-rule="evenodd" d="M116.661 116.166C116.166 115.393 115.828 114.536 115.332 113.764C114.863 113.031 113.924 112.734 113.15 113.19C112.425 113.616 112.107 114.646 112.578 115.381C113.072 116.153 113.41 117.011 113.907 117.783C114.377 118.515 115.315 118.813 116.089 118.357C116.815 117.93 117.132 116.9 116.661 116.166Z" fill="#3B3734"/>
<path fill-rule="evenodd" clip-rule="evenodd" d="M121.712 114.298C121.261 113.377 120.893 112.406 120.866 111.37C120.812 109.308 117.622 109.303 117.676 111.37C117.718 112.992 118.252 114.471 118.958 115.915C119.341 116.697 120.43 116.905 121.14 116.489C121.93 116.024 122.095 115.081 121.712 114.298Z" fill="#3B3734"/>
</svg>
