<?xml version="1.0" encoding="UTF-8"?>
<svg width="208px" height="166px" viewBox="0 0 208 166" version="1.1" xmlns="http://www.w3.org/2000/svg" xmlns:xlink="http://www.w3.org/1999/xlink">
    <!-- Generator: Sketch 62 (91390) - https://sketch.com -->
    <title>Page 1</title>
    <desc>Created with Sketch.</desc>
    <defs>
        <polygon id="path-1" points="0.492485614 0.233710526 1.99008561 0.233710526 1.99008561 1.72749211 0.492485614 1.72749211 0.492485614 0.233710526"></polygon>
    </defs>
    <g id="Desktop" stroke="none" stroke-width="1" fill="none" fill-rule="evenodd">
        <g id="what-we-do" transform="translate(-684.000000, -1785.000000)">
            <path d="M-14.2562504,1093.4739 C528.675338,1070.99906 350.013691,1083.11351 712.520613,1093.4739 C1153.53954,1106.07816 1369.5204,980.614207 1491.74375,1093.4739 C1759.13197,1340.37726 1491.74375,1813 1491.74375,1813 L-14.2562504,1813 C-14.2562504,1813 -607.679687,1118.03888 -14.2562504,1093.4739 Z" id="Rectangle-2-Copy-2" fill="#F73859" transform="translate(666.291480, 1429.500000) scale(1, -1) translate(-666.291480, -1429.500000) "></path>
            <text id="Language-Copy" font-family="Helvetica" font-size="30" font-weight="normal" fill="#7AC7C4">
                <tspan x="502" y="1853">Language</tspan>
            </text>
            <text id="React-Native-Nativ-I" font-family="Helvetica" font-size="20" font-weight="normal" fill="#263958">
                <tspan x="502" y="1884">React Native</tspan>
                <tspan x="502" y="1908">Nativ IOS</tspan>
                <tspan x="502" y="1932">Nativ Android</tspan>
            </text>
            <line x1="820.5" y1="1940.5" x2="822" y2="1942" id="Line" stroke="#979797" stroke-linecap="square"></line>
            <g id="Page-1" transform="translate(684.000000, 1785.000000)">
                <polygon id="Fill-1" fill="#263958" points="193.427009 105.932318 193.427009 111.514432 103.811121 163.130967 103.811121 157.548125"></polygon>
                <polygon id="Fill-2" fill="#7AC7C4" points="193.427009 105.932318 103.811121 54.3165105 14.1952337 105.932318 103.811121 157.548125"></polygon>
                <g id="Group-350" transform="translate(0.000000, 0.494360)">
                    <path d="M180.41847,102.810061 L105.33193,59.5634211 C104.391186,59.0202807 103.230765,59.0202807 102.290021,59.5634211 L27.2034807,102.810061 C25.1752982,103.977886 25.1752982,106.898175 27.2034807,108.066728 L102.290021,151.31264 C103.230765,151.855053 104.391186,151.855053 105.33193,151.31264 L180.41847,108.066728 C182.446653,106.898175 182.446653,103.977886 180.41847,102.810061" id="Fill-3" fill="#263958"></path>
                    <path d="M175.7808,103.389532 L112.21673,66.7785237 C111.419761,66.3198395 110.438147,66.3198395 109.641179,66.7785237 L46.0771088,103.389532 C44.3605614,104.378252 44.3605614,106.850778 46.0771088,107.839497 L108.500463,143.793059 C110.003172,144.658734 111.854737,144.658734 113.357446,143.793059 L175.7808,107.839497 C177.498077,106.850778 177.498077,104.378252 175.7808,103.389532" id="Fill-5" fill="#7AC7C4"></path>
                    <polygon id="Fill-7" fill="#263958" points="103.811121 157.053401 14.1952337 105.437594 14.1952337 111.019708 103.811121 162.636243"></polygon>
                    <polygon id="Stroke-9" stroke="#C5C5FF" stroke-width="0.25" stroke-linejoin="round" points="197.863029 105.437958 103.811267 51.2673526 9.75950596 105.437958 103.811267 159.607835"></polygon>
                    <polyline id="Stroke-11" stroke="#C5C5FF" stroke-width="0.276" stroke-linejoin="round" points="9.42283789 110.808131 103.811048 165.171675 137.939834 145.514508"></polyline>
                    <polyline id="Stroke-13" stroke="#C5C5FF" stroke-width="0.276" stroke-linejoin="round" points="168.370672 82.8883868 103.811121 45.7043868 8.33036351 100.698439 0.100861754 105.438904 5.31691789 108.442922"></polyline>
                    <polyline id="Stroke-15" stroke="#C5C5FF" stroke-width="0.276" stroke-linejoin="round" points="160.774512 132.363012 207.521965 105.438977 177.459032 88.1232842"></polyline>
                    <polygon id="Stroke-17" stroke="#C5C5FF" stroke-width="0.111" stroke-linejoin="round" points="117.265145 15.9795386 107.819756 10.5386702 98.3743663 15.9795386 107.819756 21.4196789"></polygon>
                    <polygon id="Stroke-19" stroke="#C5C5FF" stroke-width="0.111" stroke-linejoin="round" points="117.265145 26.8600377 107.819756 21.4198974 107.819756 10.5388886 117.265145 15.979757"></polygon>
                    <polygon id="Stroke-21" stroke="#C5C5FF" stroke-width="0.111" stroke-linejoin="round" points="107.819464 21.4197518 98.3748042 15.9796114 98.3748042 26.8598921"></polygon>
                    <polygon id="Fill-23" fill="#7AC7C4" points="115.836149 17.2937781 115.836149 26.5286202 107.819756 31.1453132 107.819756 21.9111991"></polygon>
                    <polygon id="Fill-25" fill="#263958" points="115.836149 17.2937781 107.819756 12.676357 99.802633 17.2937781 107.819756 21.9111991"></polygon>
                    <polygon id="Fill-27" fill="#F73859" points="107.819464 21.9110535 99.8030709 17.2936325 99.8030709 26.5284746 107.819464 31.1458956"></polygon>
                    <polygon id="Stroke-29" stroke="#C5C5FF" stroke-width="0.111" stroke-linejoin="round" points="107.819464 32.3003237 107.819464 21.420043 98.3748042 15.9791746 98.3748042 26.8601833"></polygon>
                    <polygon id="Stroke-31" stroke="#C5C5FF" stroke-width="0.111" stroke-linejoin="round" points="107.819464 32.3003237 117.264853 26.8601833 117.264853 15.9791746 107.819464 21.420043"></polygon>
                    <path d="M107.322672,10.5388886 C107.322672,10.812643 107.545269,11.0354325 107.819683,11.0354325 C108.094827,11.0354325 108.316693,10.812643 108.316693,10.5388886 C108.316693,10.2651342 108.094827,10.0430728 107.819683,10.0430728 C107.545269,10.0430728 107.322672,10.2651342 107.322672,10.5388886" id="Fill-33" fill="#C5C5FF"></path>
                    <path d="M97.9882161,15.8706921 C97.9882161,16.1444465 98.2108126,16.3665079 98.4859565,16.3665079 C98.7603705,16.3665079 98.9822372,16.1444465 98.9822372,15.8706921 C98.9822372,15.5969377 98.7603705,15.3748763 98.4859565,15.3748763 C98.2108126,15.3748763 97.9882161,15.5969377 97.9882161,15.8706921" id="Fill-35" fill="#C5C5FF"></path>
                    <path d="M97.8770639,26.8600377 C97.8770639,27.1337921 98.0996604,27.3558535 98.3740744,27.3558535 C98.6492182,27.3558535 98.8710849,27.1337921 98.8710849,26.8600377 C98.8710849,26.5862833 98.6492182,26.3642219 98.3740744,26.3642219 C98.0996604,26.3642219 97.8770639,26.5862833 97.8770639,26.8600377" id="Fill-37" fill="#C5C5FF"></path>
                    <path d="M116.767624,26.8600377 C116.767624,27.1337921 116.99095,27.3558535 117.265364,27.3558535 C117.539778,27.3558535 117.761645,27.1337921 117.761645,26.8600377 C117.761645,26.5862833 117.539778,26.3634939 117.265364,26.3634939 C116.99095,26.3634939 116.767624,26.5862833 116.767624,26.8600377" id="Fill-39" fill="#C5C5FF"></path>
                    <path d="M116.767624,15.9795386 C116.767624,16.253293 116.99095,16.4753544 117.265364,16.4753544 C117.539778,16.4753544 117.761645,16.253293 117.761645,15.9795386 C117.761645,15.7057842 117.539778,15.4829947 117.265364,15.4829947 C116.99095,15.4829947 116.767624,15.7057842 116.767624,15.9795386" id="Fill-41" fill="#C5C5FF"></path>
                    <path d="M107.322672,32.3003237 C107.322672,32.5740781 107.545269,32.7961395 107.819683,32.7961395 C108.094827,32.7961395 108.316693,32.5740781 108.316693,32.3003237 C108.316693,32.0265693 108.094827,31.8045079 107.819683,31.8045079 C107.545269,31.8045079 107.322672,32.0265693 107.322672,32.3003237" id="Fill-43" fill="#C5C5FF"></path>
                    <g id="Group-51" transform="translate(81.740351, 55.333333)">
                        <path d="M20.9703411,5.63686491 L20.9703411,5.6274 C20.9703411,5.57789123 20.9688814,5.52911053 20.9666919,5.48032982 C20.9645025,5.43154912 20.9615832,5.38349649 20.9572042,5.3369 C20.9542849,5.28666316 20.9491761,5.23788246 20.9426077,5.18982982 C20.9360393,5.13959298 20.9287411,5.09154035 20.920713,5.04421579 C20.9170639,5.02091754 20.9119551,4.99980351 20.9075761,4.97723333 C20.9061165,4.97140877 20.9046568,4.96558421 20.903927,4.95903158 C20.8988182,4.93791754 20.8951691,4.91534737 20.8907902,4.89350526 C20.8783832,4.84035614 20.8645165,4.78866316 20.84992,4.73842632 C20.8338639,4.68236491 20.8156182,4.62921579 20.7966428,4.57752281 C20.7754779,4.52218947 20.7528533,4.46904035 20.7287691,4.41734737 C20.7280393,4.41589123 20.7273095,4.41297895 20.7258498,4.41079474 C20.72512,4.40861053 20.7236604,4.40642632 20.7229305,4.40351404 C20.6878989,4.32925088 20.6492182,4.25935614 20.6068884,4.19455789 C20.5740463,4.14140877 20.5317165,4.10209298 20.4952253,4.05549649 C20.4667621,4.01909298 20.4397586,3.98268947 20.409106,3.94992632 C20.3076604,3.84144386 20.1974568,3.74606667 20.0733867,3.67398772 L17.871506,2.39695263 C17.996306,2.46903158 18.1057796,2.56586491 18.2079551,2.6736193 C18.2386077,2.70565439 18.2648814,2.74351404 18.2933446,2.7784614 C18.378734,2.88621579 18.4612042,2.99979474 18.5239691,3.13448772 C18.5254288,3.13667193 18.5261586,3.13885614 18.5268884,3.14176842 C18.6027902,3.30267193 18.6611761,3.48468947 18.7027761,3.68199649 C18.703506,3.68927719 18.7049656,3.69510175 18.7056954,3.70165439 C18.7458358,3.90260175 18.7677305,4.12247895 18.7684604,4.35982982 L18.794734,13.3332947 L20.9958849,14.6096018 L20.9703411,5.63686491 Z" id="Fill-45" fill="#263958"></path>
                        <path d="M0.347834386,14.7590746 C0.35002386,14.6833553 0.354402807,14.607636 0.358781754,14.5319167 C0.360971228,14.4962412 0.363890526,14.4612939 0.366809825,14.4256184 C0.368269474,14.4103289 0.368999298,14.3957675 0.370458947,14.3804781 C0.372648421,14.3542675 0.37410807,14.328057 0.377027368,14.3018465 C0.384325614,14.2253991 0.393083509,14.1482237 0.402571228,14.0717763 C0.412788772,13.9924167 0.42373614,13.9137851 0.436872982,13.8336974 C0.436872982,13.8322412 0.437602807,13.8293289 0.437602807,13.8264167 C0.438332632,13.8220482 0.439062456,13.8184079 0.439792281,13.8140395 C0.452199298,13.7419605 0.463876491,13.6684254 0.478472982,13.5956184 C0.493069474,13.5140746 0.510585263,13.4318026 0.528101053,13.3488026 C0.534669474,13.3196798 0.542697544,13.2898289 0.54853614,13.2599781 C0.552915088,13.2425044 0.556564211,13.2257588 0.560943158,13.2082851 C0.569701053,13.1726096 0.576269474,13.1369342 0.585757193,13.1019868 C0.606192281,13.0182588 0.628816842,12.9345307 0.652171228,12.8515307 C0.668957193,12.7889167 0.687932632,12.7270307 0.706178246,12.6651447 C0.709097544,12.6542237 0.712746667,12.6440307 0.715665965,12.6331096 C0.719315088,12.6221886 0.722234386,12.6119956 0.725153684,12.6010746 C0.749967719,12.5202588 0.776241404,12.4379868 0.803244912,12.356443 C0.830248421,12.2763553 0.858711579,12.1955395 0.887904561,12.1154518 C0.893013333,12.1008904 0.899581754,12.0848728 0.905420351,12.0703114 C0.909799298,12.0579342 0.914178246,12.045557 0.918557193,12.0339079 C0.937532632,11.9836711 0.955778246,11.9334342 0.974753684,11.8839254 C1.00467649,11.80675 1.03605895,11.7303026 1.0674414,11.6531272 C1.09152561,11.5985219 1.11488,11.5439167 1.13896421,11.4885833 C1.14334316,11.4791184 1.14699228,11.4696535 1.15137123,11.4601886 C1.15575018,11.4492675 1.16012912,11.4383465 1.16523789,11.4281535 C1.19880982,11.3517061 1.2338414,11.2759868 1.26960281,11.1995395 C1.30828351,11.1165395 1.34915368,11.0328114 1.39075368,10.9505395 C1.39659228,10.9374342 1.4031607,10.9243289 1.40972912,10.9119518 C1.41775719,10.8959342 1.42651509,10.8806447 1.43454316,10.8646272 C1.46811509,10.7991009 1.50241684,10.7321184 1.53744842,10.665864 C1.58050807,10.5850482 1.62721684,10.5049605 1.67246596,10.4248728 C1.69655018,10.3833728 1.71917474,10.3411447 1.74325895,10.2996447 C1.75347649,10.2836272 1.76150456,10.2654254 1.77172211,10.2494079 C1.81259228,10.1795132 1.8578414,10.1132588 1.90090105,10.0440921 C1.96366596,9.94216228 2.02643088,9.83877632 2.09357474,9.73830263 C2.10379228,9.72155702 2.11400982,9.7048114 2.12495719,9.68806579 C2.21545544,9.55337281 2.30960281,9.42086404 2.40448,9.2898114 C2.41104842,9.2825307 2.41688702,9.27306579 2.42345544,9.26432895 C2.42418526,9.26360088 2.42418526,9.26214474 2.42491509,9.26141667 C2.4935186,9.16822368 2.56358175,9.07721491 2.63510456,8.98620614 C2.69057123,8.9163114 2.74749754,8.8456886 2.80515368,8.77652193 C2.80734316,8.77360965 2.81026246,8.7699693 2.81245193,8.76778509 C2.8146414,8.76560088 2.81610105,8.76341667 2.81829053,8.76123246 C2.87813614,8.68842544 2.9394414,8.61707456 3.00147649,8.54717982 C3.06132211,8.47874123 3.12262737,8.41030263 3.18466246,8.34404825 C3.19342035,8.33458333 3.20363789,8.32511842 3.21312561,8.31492544 C3.22188351,8.30473246 3.23210105,8.29453947 3.2423186,8.28361842 C3.28756772,8.23629386 3.33208702,8.1889693 3.37806596,8.14164474 C3.44375018,8.07466228 3.51016421,8.00913596 3.57730807,7.94579386 C3.59701333,7.92613596 3.6167186,7.90866228 3.63715368,7.88973246 C3.65175018,7.87589912 3.66780632,7.86133772 3.68240281,7.84823246 C3.71670456,7.81619737 3.75027649,7.78343421 3.78530807,7.75285526 C3.8546414,7.69024123 3.92397474,7.62908333 3.99476772,7.57010965 C4.02542035,7.54462719 4.05607298,7.52060088 4.08672561,7.49511842 C4.10205193,7.4834693 4.1159186,7.47036404 4.13197474,7.45944298 C4.15605895,7.43905702 4.18014316,7.41867105 4.20495719,7.39901316 C4.2735607,7.34513596 4.34289404,7.29271491 4.41149754,7.24175 C4.46112561,7.20534649 4.51075368,7.17039912 4.56038175,7.13545175 C4.5705993,7.12962719 4.57935719,7.12234649 4.58957474,7.11579386 C4.59833263,7.10924123 4.60709053,7.1026886 4.61657825,7.09686404 C4.68226246,7.05099561 4.74940632,7.0073114 4.81582035,6.96508333 C4.88223439,6.92285526 4.94864842,6.88208333 5.01579228,6.84349561 C5.0311186,6.8340307 5.04571509,6.82529386 5.06177123,6.81655702 L15.6821782,0.698583333 C15.7318063,0.670188596 15.7814344,0.64252193 15.8317923,0.615583333 C15.8960168,0.580635965 15.9602414,0.547872807 16.0237361,0.516565789 C16.066066,0.495451754 16.1083958,0.47652193 16.1499958,0.456864035 C16.1602133,0.452495614 16.1697011,0.447399123 16.1791888,0.443030702 C16.190866,0.437934211 16.203273,0.431381579 16.2149502,0.426285088 C16.2777151,0.398618421 16.34048,0.371679825 16.4032449,0.346925439 C16.4667396,0.321442982 16.5302344,0.298144737 16.5937291,0.274846491 L16.6280309,0.264653509 C16.6375186,0.261013158 16.6477361,0.258100877 16.6579537,0.254460526 C16.6995537,0.241355263 16.7411537,0.22679386 16.7827537,0.213688596 C16.8477081,0.194030702 16.9126625,0.176557018 16.9776168,0.159811404 C17.0097291,0.152530702 17.0411116,0.14597807 17.0732239,0.138697368 C17.0870905,0.135785088 17.1002274,0.132872807 17.1133642,0.129960526 C17.1323396,0.125592105 17.1513151,0.121223684 17.1710204,0.117583333 C17.2403537,0.10375 17.309687,0.0921008772 17.3782905,0.0833640351 C17.4213502,0.0775394737 17.46368,0.074627193 17.5067396,0.0702587719 C17.5206063,0.0688026316 17.5352028,0.0673464912 17.5483396,0.0658903509 C17.5614765,0.0644342105 17.5746133,0.0629780702 17.5877502,0.0615219298 C17.6636519,0.0564254386 17.7373642,0.0549692982 17.8110765,0.0549692982 C17.8446484,0.0549692982 17.8760309,0.0578815789 17.908873,0.0593377193 C17.9329572,0.0607938596 17.9577712,0.0607938596 17.9818554,0.06225 C18.0066695,0.0644342105 18.0322133,0.0637061404 18.0570274,0.0658903509 C18.1497151,0.074627193 18.2409432,0.0877324561 18.3299818,0.105934211 C18.3321712,0.105934211 18.3336309,0.107390351 18.3350905,0.107390351 C18.3584449,0.111758772 18.3796098,0.120495614 18.4022344,0.125592105 C18.4898133,0.14597807 18.5781221,0.167092105 18.6613221,0.196942982 C18.6686204,0.199855263 18.6744589,0.204223684 18.6817572,0.207135965 C18.8087467,0.252276316 18.9306274,0.306881579 19.0452098,0.373864035 L21.2470905,1.65017105 C21.1325081,1.5831886 21.0106274,1.5293114 20.8836379,1.48271491 C20.7938695,1.44995175 20.6997221,1.4244693 20.6041151,1.40189912 C20.5814905,1.39680263 20.5595958,1.38879386 20.5369712,1.38369737 C20.4231186,1.36039912 20.304887,1.34656579 20.1837361,1.33855702 C20.1596519,1.33710088 20.1348379,1.33564474 20.1107537,1.33564474 C19.9932519,1.33127632 19.8735607,1.33273246 19.7509502,1.34219737 C19.7356239,1.34292544 19.7217572,1.34510965 19.7071607,1.34656579 C19.5794414,1.35894298 19.4488028,1.37860088 19.3152449,1.40626754 C19.3021081,1.40917982 19.2882414,1.41282018 19.2751046,1.41573246 C19.1386274,1.44558333 18.9999607,1.48417105 18.8583747,1.53076754 C18.8496168,1.53440789 18.8393993,1.53732018 18.8291818,1.54096053 C18.682487,1.5904693 18.532873,1.65017105 18.3810695,1.72006579 C18.3708519,1.72443421 18.3613642,1.7295307 18.3511467,1.73317105 C18.1971537,1.80525 18.0409712,1.88460965 17.8833291,1.97561842 L7.26365193,8.09286404 C7.10382035,8.18460088 6.94690807,8.28434649 6.79145544,8.39137281 C6.78123789,8.39865351 6.77102035,8.40593421 6.76080281,8.41321491 C6.61629754,8.51441667 6.47471158,8.62144298 6.33385544,8.73429386 C6.31852912,8.74667105 6.30247298,8.76050439 6.28714667,8.77288158 C6.14993965,8.88500439 6.01638175,9.00222368 5.88428351,9.12453947 C5.86895719,9.13764474 5.85363088,9.15220614 5.83830456,9.16603947 C5.70474667,9.29272368 5.57264842,9.42377632 5.44346947,9.55992544 C5.43398175,9.57084649 5.42376421,9.58103947 5.41427649,9.59123246 C5.2777993,9.73757456 5.1442414,9.88828509 5.01506246,10.042636 C5.01214316,10.0470044 5.00922386,10.0506447 5.00557474,10.0542851 C4.87493614,10.2122763 4.74721684,10.374636 4.62460632,10.540636 C4.61876772,10.5493728 4.61292912,10.5573816 4.6063607,10.5661184 C4.49834667,10.7124605 4.3954414,10.862443 4.29399579,11.0153377 C4.22758175,11.1158114 4.16408702,11.2199254 4.10132211,11.3218553 C4.04877474,11.4070395 3.99549754,11.4900395 3.94586947,11.5752237 C3.92105544,11.6174518 3.89770105,11.6604079 3.87361684,11.703364 C3.79187649,11.8475219 3.71159579,11.9924079 3.63642386,12.1402061 C3.62839579,12.1569518 3.61890807,12.1729693 3.61160982,12.1897149 C3.52038175,12.3695482 3.43426246,12.5522939 3.35252211,12.7364956 C3.34887298,12.7459605 3.34449404,12.7554254 3.34084491,12.7656184 C3.26202386,12.9461798 3.1890414,13.1274693 3.12043789,13.3094868 C3.11605895,13.321864 3.11095018,13.3342412 3.10657123,13.3466184 C3.03796772,13.5330044 2.97447298,13.7215746 2.91754667,13.9094167 C2.91462737,13.9203377 2.91170807,13.9305307 2.90805895,13.9414518 C2.85405193,14.1227412 2.80515368,14.3033026 2.76282386,14.483864 C2.75917474,14.5013377 2.75479579,14.5195395 2.75041684,14.5362851 C2.70735719,14.7226711 2.67086596,14.9083289 2.64167298,15.0925307 C2.64094316,15.0961711 2.64021333,15.0990833 2.64021333,15.1019956 C2.61029053,15.2883816 2.58766596,15.4725833 2.57233965,15.6567851 C2.57088,15.6720746 2.57015018,15.686636 2.56869053,15.7026535 C2.55409404,15.8861272 2.54679579,16.0681447 2.54679579,16.2479781 L2.57233965,25.221443 L0.370458947,23.9444079 L0.344915088,14.9716711 C0.344915088,14.9010482 0.345644912,14.8304254 0.347834386,14.7590746" id="Fill-47" fill="#263958"></path>
                        <path d="M7.26328702,8.09264561 C4.65562386,9.59465439 2.53767298,13.2524789 2.54643088,16.2477596 L2.57197474,25.2212246 L4.23305544,24.2652684 L4.20751158,15.2918035 C4.20167298,13.3485842 5.57812211,10.9750754 7.26839579,10.0016456 L17.8888028,3.8844 C19.5790765,2.91169825 20.9642835,3.69364561 20.9701221,5.63686491 L20.995666,14.6096018 L22.6560168,13.6536456 L22.6312028,4.6801807 C22.6224449,1.6849 20.4913572,0.473391228 17.883694,1.97612807 L7.26328702,8.09264561 Z" id="Fill-49" fill="#7AC7C4"></path>
                    </g>
                    <g id="Group-58" transform="translate(102.905263, 66.254386)">
                        <path d="M21.0237642,6.02223246 L21.0237642,6.01349561 C21.0237642,5.96398684 21.0223046,5.91520614 21.0201151,5.86642544 C21.0186554,5.81764474 21.0150063,5.76959211 21.0113572,5.72226754 C21.0077081,5.67275877 21.0025993,5.62325 20.9960309,5.57592544 C20.9901923,5.5256886 20.982894,5.47763596 20.974866,5.4303114 C20.970487,5.40701316 20.9653782,5.38589912 20.9609993,5.36332895 C20.9595396,5.35750439 20.9588098,5.35095175 20.9573502,5.34512719 C20.9529712,5.32328509 20.9493221,5.30144298 20.9442133,5.27960088 C20.9318063,5.22645175 20.9179396,5.17475877 20.904073,5.12452193 C20.887287,5.06846053 20.8690414,5.0153114 20.850066,4.96361842 C20.8289011,4.90828509 20.8062765,4.85513596 20.7829221,4.80417105 C20.7821923,4.80125877 20.7807326,4.79907456 20.7800028,4.79689035 C20.7785432,4.79397807 20.7778133,4.79179386 20.7763537,4.78960965 C20.7413221,4.71534649 20.7026414,4.64545175 20.6603116,4.57992544 C20.6274695,4.52750439 20.5851396,4.4881886 20.5486484,4.44086404 C20.5201853,4.4051886 20.4931818,4.36878509 20.4625291,4.33602193 C20.3618133,4.22753947 20.25088,4.13143421 20.1268098,4.06008333 L17.9256589,2.78304825 C18.0497291,2.85512719 18.1599326,2.95123246 18.2613782,3.05971491 C18.2920309,3.09175 18.3190344,3.12888158 18.3467677,3.16455702 C18.4321572,3.27303947 18.5146274,3.38516228 18.5773923,3.51985526 C18.5788519,3.52276754 18.5795818,3.52495175 18.5810414,3.52713596 C18.6569432,3.68949561 18.7153291,3.87005702 18.7561993,4.06882018 C18.7569291,4.07464474 18.7583888,4.08119737 18.7591186,4.08702193 C18.7992589,4.28869737 18.8211537,4.50857456 18.8218835,4.74592544 L18.8481572,13.7193904 L21.0493081,14.9956974 L21.0237642,6.02223246 Z" id="Fill-52" fill="#263958"></path>
                        <path d="M0.401987368,15.1451702 C0.404176842,15.0694509 0.407825965,14.9937316 0.412934737,14.9172842 C0.415124211,14.8823368 0.418043509,14.8466614 0.420232982,14.811714 C0.421692632,14.7964246 0.423152281,14.7818632 0.423882105,14.7665737 C0.426801404,14.7403632 0.428261053,14.7141526 0.430450526,14.6879421 C0.438478596,14.6114947 0.447236491,14.5343193 0.455994386,14.4571439 C0.46621193,14.3785123 0.477889123,14.2991526 0.49029614,14.219793 C0.49029614,14.2183368 0.491025965,14.2154246 0.491755789,14.2125123 C0.492485614,14.2081439 0.493215439,14.2037754 0.493945263,14.2001351 C0.505622456,14.1280561 0.518029474,14.0545211 0.53189614,13.981714 C0.546492632,13.8994421 0.564008421,13.8178982 0.581524211,13.7348982 C0.588092632,13.7057754 0.596120702,13.6751965 0.601959298,13.6460737 C0.606338246,13.6286 0.610717193,13.6118544 0.614366316,13.5943807 C0.623124211,13.5587053 0.630422456,13.5230298 0.639180351,13.4880825 C0.660345263,13.4043544 0.68224,13.3206263 0.705594386,13.2376263 C0.722380351,13.1750123 0.741355789,13.1131263 0.759601404,13.0512404 C0.763250526,13.0403193 0.766169825,13.0301263 0.769089123,13.0192053 C0.772738246,13.0082842 0.775657544,12.9980912 0.779306667,12.9871702 C0.804120702,12.9063544 0.830394386,12.8240825 0.857397895,12.7425386 C0.884401404,12.6624509 0.912134737,12.5816351 0.941327719,12.5015474 C0.947166316,12.486986 0.953004912,12.4709684 0.958843509,12.4556789 C0.963222456,12.4440298 0.967601404,12.4316526 0.971980351,12.4200035 C0.991685614,12.3690386 1.0092014,12.3195298 1.02890667,12.2700211 C1.05882947,12.1928456 1.08948211,12.1163982 1.12159439,12.0392228 C1.14494877,11.9846175 1.16903298,11.9292842 1.19238737,11.8746789 C1.19676632,11.865214 1.20114526,11.8550211 1.20479439,11.8462842 C1.20917333,11.8353632 1.21355228,11.8244421 1.21866105,11.8142491 C1.25223298,11.7378018 1.28726456,11.6620825 1.32302596,11.5856351 C1.36170667,11.501907 1.40257684,11.418907 1.44417684,11.3366351 C1.45074526,11.3235298 1.45731368,11.3104246 1.46315228,11.2980474 C1.47191018,11.2820298 1.47993825,11.2667404 1.48796632,11.2507228 C1.52153825,11.1844684 1.55584,11.118214 1.59087158,11.0519596 C1.63393123,10.9711439 1.68136982,10.8910561 1.72588912,10.8109684 C1.75070316,10.7687404 1.77259789,10.7272404 1.79668211,10.6857404 C1.80689965,10.6689947 1.81565754,10.6515211 1.82514526,10.6355035 C1.86674526,10.5656088 1.91126456,10.4993544 1.95432421,10.4301877 C2.01781895,10.3282579 2.08058386,10.2248719 2.14699789,10.1243982 C2.15721544,10.1076526 2.16743298,10.090907 2.17911018,10.0734333 C2.26960842,9.93874035 2.36302596,9.80623158 2.45790316,9.67590702 C2.46447158,9.66789825 2.47031018,9.6591614 2.4768786,9.65042456 C2.47760842,9.64896842 2.47833825,9.64824035 2.47833825,9.64751228 C2.54694175,9.5543193 2.61700491,9.46258246 2.68852772,9.37230175 C2.74472421,9.30167895 2.80165053,9.23178421 2.85857684,9.16188947 C2.86149614,9.15897719 2.86368561,9.15606491 2.86587509,9.1538807 C2.86806456,9.15169649 2.87025404,9.14951228 2.87171368,9.1466 C2.93228912,9.07452105 2.99286456,9.00317018 3.05489965,8.93327544 C3.11547509,8.86410877 3.17678035,8.79639825 3.23881544,8.73014386 L3.26654877,8.70029298 C3.27603649,8.69082807 3.28625404,8.67990702 3.29647158,8.66971404 C3.34099088,8.62238947 3.38624,8.57433684 3.43148912,8.52774035 C3.49717333,8.46075789 3.56431719,8.39523158 3.63146105,8.3311614 C3.65043649,8.31223158 3.67087158,8.29475789 3.69057684,8.27582807 C3.70590316,8.26199474 3.72122947,8.24743333 3.73582596,8.2336 C3.77012772,8.20229298 3.80442947,8.16952982 3.83873123,8.13895088 C3.90806456,8.07633684 3.97812772,8.01517895 4.0489207,7.95620526 C4.07884351,7.93072281 4.10949614,7.90669649 4.14014877,7.88048596 L4.18539789,7.84481053 C4.20948211,7.82515263 4.23356632,7.80476667 4.25838035,7.78510877 C4.32698386,7.73050351 4.39631719,7.67881053 4.4649207,7.62784561 C4.5152786,7.59144211 4.56490667,7.55649474 4.61453474,7.52154737 C4.62402246,7.51572281 4.63351018,7.50844211 4.64299789,7.50188947 C4.65175579,7.49533684 4.66051368,7.48805614 4.6700014,7.48295965 C4.73568561,7.43709123 4.80282947,7.39340702 4.86997333,7.35045088 C4.93565754,7.30822281 5.0028014,7.26817895 5.06921544,7.22886316 C5.08454175,7.22012632 5.09986807,7.21138947 5.11519439,7.20265263 L15.7356014,1.08467895 C15.7852295,1.05628421 15.8348575,1.02861754 15.8852154,1.00167895 C15.94944,0.966731579 16.0143944,0.933240351 16.0778891,0.902661404 C16.1194891,0.881547368 16.1625488,0.862617544 16.2041488,0.842231579 C16.2136365,0.838591228 16.223854,0.834222807 16.2326119,0.829854386 C16.2442891,0.824029825 16.2566961,0.817477193 16.2683733,0.812380702 C16.3311382,0.783985965 16.394633,0.757775439 16.4566681,0.733021053 C16.5208926,0.707538596 16.5843874,0.683512281 16.6471523,0.660942105 L16.681454,0.650749123 C16.6909418,0.647108772 16.7011593,0.643468421 16.7121067,0.64055614 C16.7529768,0.626722807 16.7953067,0.612161404 16.8361768,0.599784211 C16.9011312,0.580126316 16.9660856,0.562652632 17.03104,0.545907018 C17.0631523,0.538626316 17.0952646,0.532073684 17.1273768,0.524792982 C17.1405137,0.521880702 17.1536505,0.518968421 17.1675172,0.51605614 C17.1857628,0.511687719 17.2054681,0.507319298 17.2251733,0.503678947 C17.2945067,0.489845614 17.3631102,0.478196491 17.4317137,0.469459649 C17.4755032,0.463635088 17.5171032,0.459994737 17.5601628,0.455626316 C17.5740295,0.454898246 17.588626,0.452714035 17.6017628,0.451985965 C17.6156295,0.450529825 17.6287663,0.448345614 17.6419032,0.447617544 C17.7170751,0.443249123 17.7915172,0.440336842 17.8644996,0.440336842 C17.8980716,0.441064912 17.929454,0.443977193 17.9622961,0.445433333 C17.9871102,0.446161404 18.0111944,0.447617544 18.0352786,0.448345614 C18.0600926,0.449801754 18.0856365,0.449801754 18.1104505,0.451985965 C18.2038681,0.460722807 18.2943663,0.47382807 18.3834049,0.491301754 C18.3855944,0.492029825 18.3877839,0.492757895 18.3892435,0.493485965 C18.4118681,0.497854386 18.433033,0.506591228 18.4556575,0.510959649 C18.5432365,0.532073684 18.6315453,0.553187719 18.7147453,0.583038596 C18.7227733,0.585222807 18.7278821,0.589591228 18.7359102,0.592503509 C18.8621698,0.63837193 18.9840505,0.692977193 19.098633,0.759959649 L21.3012435,2.03626667 C21.1859312,1.96928421 21.0640505,1.91467895 20.9377909,1.86881053 C20.8472926,1.83604737 20.7531453,1.81056491 20.6575382,1.78799474 C20.6349137,1.78217018 20.6137488,1.7741614 20.5903944,1.76979298 C20.4765418,1.74649474 20.3583102,1.7326614 20.2371593,1.72465263 C20.2130751,1.72319649 20.1882611,1.72246842 20.1641768,1.72174035 C20.0466751,1.71737193 19.9269839,1.71882807 19.8043733,1.72829298 C19.7897768,1.72902105 19.7759102,1.73120526 19.7605839,1.7326614 C19.6328646,1.7450386 19.502226,1.76396842 19.3686681,1.79236316 L19.3285277,1.8011 C19.1920505,1.83167895 19.0541137,1.87026667 18.9125277,1.91686316 C18.90304,1.92050351 18.8935523,1.92341579 18.8833347,1.92705614 C18.7359102,1.97656491 18.5862961,2.03626667 18.4344926,2.10543333 C18.4250049,2.11052982 18.4155172,2.11562632 18.4052996,2.11926667 C18.2505768,2.19061754 18.0951242,2.27070526 17.9367523,2.36171404 L7.31707509,8.47895965 C7.15797333,8.57069649 7.00033123,8.67044211 6.8448786,8.77746842 C6.83466105,8.78474912 6.82517333,8.79202982 6.81422596,8.79931053 C6.67045053,8.90051228 6.52813474,9.00681053 6.38800842,9.12038947 C6.37268211,9.13276667 6.35589614,9.14587193 6.34056982,9.15824912 C6.20409263,9.2711 6.06980491,9.38759123 5.93770667,9.50990702 C5.92238035,9.52374035 5.90778386,9.53830175 5.89172772,9.55213509 C5.75816982,9.67809123 5.62607158,9.80987193 5.49689263,9.94602105 C5.48813474,9.95694211 5.47791719,9.96713509 5.46769965,9.97732807 C5.33195228,10.1229421 5.19766456,10.2736526 5.06848561,10.4287316 C5.06556632,10.4323719 5.06264702,10.4367404 5.05972772,10.4403807 C4.9283593,10.5983719 4.80136982,10.7607316 4.67802947,10.9267316 C4.67219088,10.9354684 4.66635228,10.9434772 4.65978386,10.952214 C4.55249965,11.0985561 4.44886456,11.2485386 4.34814877,11.4007053 C4.28100491,11.501907 4.21824,11.6060211 4.15474526,11.7079509 C4.10292772,11.7931351 4.0489207,11.8761351 3.99929263,11.9613193 C3.97520842,12.0035474 3.95112421,12.0465035 3.92704,12.0887316 C3.84529965,12.2336175 3.76501895,12.3785035 3.68984702,12.5263018 C3.68181895,12.5430474 3.67233123,12.5583368 3.66503298,12.5750825 C3.57380491,12.7556439 3.48768561,12.9383895 3.40667509,13.1225912 C3.40229614,13.1313281 3.39791719,13.1415211 3.39426807,13.151714 C3.31544702,13.3322754 3.24246456,13.5135649 3.17386105,13.6955825 C3.16948211,13.7079596 3.16437333,13.7203368 3.15999439,13.732714 C3.09139088,13.9191 3.02862596,14.1069421 2.97169965,14.2955123 C2.96805053,14.3064333 2.96513123,14.3166263 2.96148211,14.3275474 C2.90747509,14.5081088 2.85857684,14.6893982 2.81697684,14.8699596 C2.81259789,14.8874333 2.80821895,14.904907 2.80384,14.9223807 C2.76078035,15.1087667 2.72501895,15.2944246 2.69509614,15.4786263 C2.69509614,15.4815386 2.69436632,15.4851789 2.69363649,15.4880912 C2.66371368,15.6744772 2.64108912,15.8586789 2.62649263,16.0421526 C2.62503298,16.0581702 2.62357333,16.0727316 2.62211368,16.0887491 C2.60751719,16.2722228 2.60021895,16.4542404 2.60094877,16.6340737 L2.62576281,25.6068105 L0.423882105,24.3305035 L0.398338246,15.3570386 C0.398338246,15.2864158 0.399797895,15.2165211 0.401987368,15.1451702" id="Fill-54" fill="#263958"></path>
                        <path d="M7.31678316,8.47874123 C4.70912,9.98075 2.59189895,13.6385746 2.60065684,16.6338553 L2.6262007,25.6065921 L4.28655158,24.650636 L4.26100772,15.6778991 C4.25516912,13.7339518 5.63161825,11.3611711 7.32189193,10.3877412 L17.9430288,4.27049561 C19.6325726,3.29706579 21.0185095,4.07901316 21.0236182,6.02223246 L21.0491621,14.9956974 L22.7102428,14.0397412 L22.6846989,5.06627632 C22.6759411,2.07099561 20.5448533,0.859486842 17.9371902,2.36222368 L7.31678316,8.47874123 Z" id="Fill-56" fill="#7AC7C4"></path>
                    </g>
                    <polygon id="Stroke-59" stroke="#C5C5FF" stroke-width="0.15" stroke-linejoin="round" points="92.9557109 41.8483816 86.2172407 37.9670395 79.4773109 41.8483816 85.3604267 45.2360921 86.2172407 45.7297237"></polygon>
                    <polyline id="Stroke-61" stroke="#C5C5FF" stroke-width="0.15" stroke-linejoin="round" points="86.2169488 42.7851167 86.2169488 37.9667482 92.9554189 41.8480904 92.9554189 49.6107746 87.7145488 46.5929237"></polyline>
                    <polyline id="Stroke-63" stroke="#C5C5FF" stroke-width="0.15" stroke-linejoin="round" points="79.4774568 41.8483816 79.4774568 49.6110658 82.5295832 47.8535044"></polyline>
                    <polyline id="Stroke-65" stroke="#C5C5FF" stroke-width="0.15" stroke-linejoin="round" points="84.4465404 44.710207 79.4771649 41.8481632 79.4771649 49.6108474 86.2170947 53.4929175 86.2170947 45.7295053"></polyline>
                    <polygon id="Stroke-67" stroke="#C5C5FF" stroke-width="0.15" stroke-linejoin="round" points="86.2169488 53.4925535 92.9554189 49.6112114 92.9554189 41.8485272 86.2169488 45.7298693"></polygon>
                    <path d="M85.8620351,37.9670395 C85.8620351,38.1628904 86.0211368,38.3208816 86.2167298,38.3208816 C86.4123228,38.3208816 86.5714246,38.1628904 86.5714246,37.9670395 C86.5714246,37.7719167 86.4123228,37.6131974 86.2167298,37.6131974 C86.0211368,37.6131974 85.8620351,37.7719167 85.8620351,37.9670395" id="Fill-69" fill="#C5C5FF"></path>
                    <path d="M79.202386,41.7709149 C79.202386,41.9667658 79.3614877,42.124757 79.5570807,42.124757 C79.7534035,42.124757 79.9125053,41.9667658 79.9125053,41.7709149 C79.9125053,41.575064 79.7534035,41.4170728 79.5570807,41.4170728 C79.3614877,41.4170728 79.202386,41.575064 79.202386,41.7709149" id="Fill-71" fill="#C5C5FF"></path>
                    <path d="M79.123273,49.6111386 C79.123273,49.8069895 79.2823747,49.9642526 79.4772379,49.9642526 C79.6735607,49.9642526 79.8326625,49.8069895 79.8326625,49.6111386 C79.8326625,49.4152877 79.6735607,49.2580246 79.4772379,49.2580246 C79.2823747,49.2580246 79.123273,49.4152877 79.123273,49.6111386" id="Fill-73" fill="#C5C5FF"></path>
                    <path d="M85.8620351,53.4925535 C85.8620351,53.6884044 86.0211368,53.8463956 86.2167298,53.8463956 C86.4123228,53.8463956 86.5714246,53.6884044 86.5714246,53.4925535 C86.5714246,53.2967026 86.4123228,53.1387114 86.2167298,53.1387114 C86.0211368,53.1387114 85.8620351,53.2967026 85.8620351,53.4925535" id="Fill-75" fill="#C5C5FF"></path>
                    <path d="M92.6007972,49.6111386 C92.6007972,49.8069895 92.7598989,49.9642526 92.9554919,49.9642526 C93.1518147,49.9642526 93.3101867,49.8069895 93.3101867,49.6111386 C93.3101867,49.4152877 93.1518147,49.2572965 92.9554919,49.2572965 C92.7598989,49.2572965 92.6007972,49.4152877 92.6007972,49.6111386" id="Fill-77" fill="#C5C5FF"></path>
                    <path d="M92.6007972,41.8483816 C92.6007972,42.0442325 92.7598989,42.2022237 92.9554919,42.2022237 C93.1518147,42.2022237 93.3101867,42.0442325 93.3101867,41.8483816 C93.3101867,41.6532588 93.1518147,41.4945395 92.9554919,41.4945395 C92.7598989,41.4945395 92.6007972,41.6532588 92.6007972,41.8483816" id="Fill-79" fill="#C5C5FF"></path>
                    <polygon id="Stroke-81" stroke="#C5C5FF" stroke-width="0.15" stroke-linejoin="round" points="90.8039691 11.9786474 78.0378779 4.62586667 65.2717867 11.9786474 78.0378779 19.3314281"></polygon>
                    <polygon id="Stroke-83" stroke="#C5C5FF" stroke-width="0.15" stroke-linejoin="round" points="90.8039691 26.6844272 78.0378779 19.3316465 78.0378779 4.62608509 90.8039691 11.9788658"></polygon>
                    <polygon id="Stroke-85" stroke="#C5C5FF" stroke-width="0.15" stroke-linejoin="round" points="78.0378049 19.3315737 65.2717137 11.978793 65.2717137 26.6843544"></polygon>
                    <polygon id="Fill-87" fill="#7AC7C4" points="88.8725614 13.7551386 88.8725614 26.2364456 78.037586 32.4767351 78.037586 19.9954281"></polygon>
                    <polygon id="Fill-89" fill="#263958" points="88.8725614 13.7551386 78.037586 7.51412105 67.2026105 13.7551386 78.037586 19.9954281"></polygon>
                    <polygon id="Fill-91" fill="#F73859" points="78.0378049 19.9956465 67.2020996 13.755357 67.2020996 26.236664 78.0378049 32.4769535"></polygon>
                    <polygon id="Stroke-93" stroke="#C5C5FF" stroke-width="0.15" stroke-linejoin="round" points="78.0378049 34.0372807 78.0378049 19.3317193 65.2717137 11.9789386 65.2717137 26.6845"></polygon>
                    <polygon id="Stroke-95" stroke="#C5C5FF" stroke-width="0.15" stroke-linejoin="round" points="78.0378049 34.0372807 90.8038961 26.6845 90.8038961 11.9789386 78.0378049 19.3317193"></polygon>
                    <path d="M77.3657095,4.62579386 C77.3657095,4.99565351 77.6663972,5.29634649 78.0378779,5.29634649 C78.4093586,5.29634649 78.7100463,4.99565351 78.7100463,4.62579386 C78.7100463,4.25593421 78.4093586,3.95524123 78.0378779,3.95524123 C77.6663972,3.95524123 77.3657095,4.25593421 77.3657095,4.62579386" id="Fill-97" fill="#C5C5FF"></path>
                    <path d="M64.7498161,11.8318684 C64.7498161,12.2017281 65.0505039,12.5024211 65.4219846,12.5024211 C65.7934653,12.5024211 66.094153,12.2017281 66.094153,11.8318684 C66.094153,11.4612807 65.7934653,11.1613158 65.4219846,11.1613158 C65.0505039,11.1613158 64.7498161,11.4612807 64.7498161,11.8318684" id="Fill-99" fill="#C5C5FF"></path>
                    <path d="M64.5994723,26.6844272 C64.5994723,27.0550149 64.90016,27.3549798 65.2716407,27.3549798 C65.6423916,27.3549798 65.9438091,27.0550149 65.9438091,26.6844272 C65.9438091,26.3145675 65.6423916,26.0146026 65.2716407,26.0146026 C64.90016,26.0146026 64.5994723,26.3145675 64.5994723,26.6844272" id="Fill-101" fill="#C5C5FF"></path>
                    <path d="M90.1318737,26.6844272 C90.1318737,27.0542868 90.4325614,27.3549798 90.8040421,27.3549798 C91.174793,27.3549798 91.4754807,27.0542868 91.4754807,26.6844272 C91.4754807,26.3145675 91.174793,26.0138746 90.8040421,26.0138746 C90.4325614,26.0138746 90.1318737,26.3145675 90.1318737,26.6844272" id="Fill-103" fill="#C5C5FF"></path>
                    <path d="M90.1318737,11.9786474 C90.1318737,12.348507 90.4325614,12.6492 90.8040421,12.6492 C91.174793,12.6492 91.4754807,12.348507 91.4754807,11.9786474 C91.4754807,11.6087877 91.174793,11.3088228 90.8040421,11.3088228 C90.4325614,11.3088228 90.1318737,11.6087877 90.1318737,11.9786474" id="Fill-105" fill="#C5C5FF"></path>
                    <path d="M77.3657095,34.0372807 C77.3657095,34.4078684 77.6663972,34.7078333 78.0378779,34.7078333 C78.4093586,34.7078333 78.7100463,34.4078684 78.7100463,34.0372807 C78.7100463,33.6674211 78.4093586,33.3674561 78.0378779,33.3674561 C77.6663972,33.3674561 77.3657095,33.6674211 77.3657095,34.0372807" id="Fill-107" fill="#C5C5FF"></path>
                    <polygon id="Stroke-109" stroke="#C5C5FF" stroke-width="0.167" stroke-linejoin="round" points="173.837934 9.17339298 159.613653 0.980419298 145.389373 9.17339298 159.613653 17.3663667"></polygon>
                    <polygon id="Stroke-111" stroke="#C5C5FF" stroke-width="0.167" stroke-linejoin="round" points="173.837934 25.5592675 159.613653 17.3662939 159.613653 0.980346491 173.837934 9.17332018"></polygon>
                    <polygon id="Stroke-113" stroke="#C5C5FF" stroke-width="0.167" stroke-linejoin="round" points="159.613507 17.3662939 145.389227 9.17332018 145.389227 25.5592675"></polygon>
                    <polygon id="Fill-115" fill="#7AC7C4" points="171.686265 11.1528702 171.686265 25.0597386 159.613507 32.0135368 159.613507 18.1066684"></polygon>
                    <polygon id="Fill-117" fill="#263958" points="171.686265 11.1528702 159.613507 4.19907193 147.540749 11.1528702 159.613507 18.1066684"></polygon>
                    <polygon id="Fill-119" fill="#F73859" points="159.613507 18.10645 147.540749 11.1526518 147.540749 25.0595202 159.613507 32.0133184"></polygon>
                    <polygon id="Stroke-121" stroke="#C5C5FF" stroke-width="0.167" stroke-linejoin="round" points="159.613507 33.7521684 159.613507 17.3662211 145.389227 9.17324737 145.389227 25.5591947"></polygon>
                    <polygon id="Stroke-123" stroke="#C5C5FF" stroke-width="0.167" stroke-linejoin="round" points="159.613507 33.7521684 173.837788 25.5591947 173.837788 9.17324737 159.613507 17.3662211"></polygon>
                    <g id="Group-127" transform="translate(158.371930, 0.000000)">
                        <mask id="mask-2" fill="white">
                            <use xlink:href="#path-1"></use>
                        </mask>
                        <g id="Clip-126"></g>
                        <path d="M0.492485614,0.980492105 C0.492485614,1.39330789 0.828204912,1.72749211 1.24128561,1.72749211 C1.65509614,1.72749211 1.99008561,1.39330789 1.99008561,0.980492105 C1.99008561,0.568404386 1.65509614,0.233492105 1.24128561,0.233492105 C0.828204912,0.233492105 0.492485614,0.568404386 0.492485614,0.980492105" id="Fill-125" fill="#C5C5FF" mask="url(#mask-2)"></path>
                    </g>
                    <path d="M144.807484,9.00986842 C144.807484,9.42195614 145.142473,9.75686842 145.556284,9.75686842 C145.970094,9.75686842 146.305084,9.42195614 146.305084,9.00986842 C146.305084,8.59705263 145.970094,8.26286842 145.556284,8.26286842 C145.142473,8.26286842 144.807484,8.59705263 144.807484,9.00986842" id="Fill-128" fill="#C5C5FF"></path>
                    <path d="M144.639989,25.5592675 C144.639989,25.9713553 144.974978,26.3062675 145.388059,26.3062675 C145.802599,26.3062675 146.137589,25.9713553 146.137589,25.5592675 C146.137589,25.1471798 145.802599,24.8122675 145.388059,24.8122675 C144.974978,24.8122675 144.639989,25.1471798 144.639989,25.5592675" id="Fill-130" fill="#C5C5FF"></path>
                    <path d="M173.088842,25.5592675 C173.088842,25.9713553 173.424561,26.3062675 173.837642,26.3062675 C174.251453,26.3062675 174.586442,25.9713553 174.586442,25.5592675 C174.586442,25.1471798 174.251453,24.8122675 173.837642,24.8122675 C173.424561,24.8122675 173.088842,25.1471798 173.088842,25.5592675" id="Fill-132" fill="#C5C5FF"></path>
                    <path d="M173.088842,9.17339298 C173.088842,9.58620877 173.424561,9.92039298 173.837642,9.92039298 C174.251453,9.92039298 174.586442,9.58620877 174.586442,9.17339298 C174.586442,8.76130526 174.251453,8.42639298 173.837642,8.42639298 C173.424561,8.42639298 173.088842,8.76130526 173.088842,9.17339298" id="Fill-134" fill="#C5C5FF"></path>
                    <path d="M158.864415,33.7521684 C158.864415,34.1642561 159.200135,34.4991684 159.613215,34.4991684 C160.027026,34.4991684 160.362015,34.1642561 160.362015,33.7521684 C160.362015,33.3393526 160.027026,33.0051684 159.613215,33.0051684 C159.200135,33.0051684 158.864415,33.3393526 158.864415,33.7521684" id="Fill-136" fill="#C5C5FF"></path>
                    <polygon id="Stroke-138" stroke="#C5C5FF" stroke-width="0.134" stroke-linejoin="round" points="55.6883144 26.2514439 44.324946 19.706093 32.9608477 26.2514439 44.324946 32.7960667"></polygon>
                    <polygon id="Stroke-140" stroke="#C5C5FF" stroke-width="0.134" stroke-linejoin="round" points="55.6883144 39.3414175 44.324946 32.7960667 44.324946 19.706093 55.6883144 26.2514439"></polygon>
                    <polygon id="Stroke-142" stroke="#C5C5FF" stroke-width="0.134" stroke-linejoin="round" points="44.324727 32.7962123 32.9613586 26.2515895 32.9613586 39.3408351"></polygon>
                    <polygon id="Fill-144" fill="#7AC7C4" points="53.9692126 27.8323026 53.9692126 38.9419254 44.3245811 44.4971009 44.3245811 33.3874781"></polygon>
                    <polygon id="Fill-146" fill="#263958" points="53.9692126 27.8323026 44.3245811 22.2778553 34.6799495 27.8323026 44.3245811 33.3874781"></polygon>
                    <polygon id="Fill-148" fill="#F73859" points="44.324727 33.3874053 34.6800954 27.8322298 34.6800954 38.9418526 44.324727 44.4970281"></polygon>
                    <polygon id="Stroke-150" stroke="#C5C5FF" stroke-width="0.134" stroke-linejoin="round" points="44.324727 45.886186 44.324727 32.7962123 32.9613586 26.2515895 32.9613586 39.3408351"></polygon>
                    <polygon id="Stroke-152" stroke="#C5C5FF" stroke-width="0.134" stroke-linejoin="round" points="44.324727 45.886186 55.6880954 39.3415632 55.6880954 26.2515895 44.324727 32.7962123"></polygon>
                    <path d="M43.7267818,19.7062386 C43.7267818,20.0360544 43.9946274,20.3032561 44.3245081,20.3032561 C44.6551186,20.3032561 44.923694,20.0360544 44.923694,19.7062386 C44.923694,19.3764228 44.6551186,19.1099491 44.3245081,19.1099491 C43.9946274,19.1099491 43.7267818,19.3764228 43.7267818,19.7062386" id="Fill-154" fill="#C5C5FF"></path>
                    <path d="M32.4971172,26.1206096 C32.4971172,26.4504254 32.7649628,26.7168991 33.0948435,26.7168991 C33.425454,26.7168991 33.6940295,26.4504254 33.6940295,26.1206096 C33.6940295,25.7907939 33.425454,25.5235921 33.0948435,25.5235921 C32.7649628,25.5235921 32.4971172,25.7907939 32.4971172,26.1206096" id="Fill-156" fill="#C5C5FF"></path>
                    <path d="M32.3631944,39.3414175 C32.3631944,39.6705053 32.63104,39.937707 32.9609207,39.937707 C33.2915312,39.937707 33.5601067,39.6705053 33.5601067,39.3414175 C33.5601067,39.0116018 33.2915312,38.7444 32.9609207,38.7444 C32.63104,38.7444 32.3631944,39.0116018 32.3631944,39.3414175" id="Fill-158" fill="#C5C5FF"></path>
                    <path d="M55.0903691,39.3410535 C55.0903691,39.6708693 55.3582147,39.9380711 55.6880954,39.9380711 C56.018706,39.9380711 56.2865516,39.6708693 56.2865516,39.3410535 C56.2865516,39.0112377 56.018706,38.744764 55.6880954,38.744764 C55.3582147,38.744764 55.0903691,39.0112377 55.0903691,39.3410535" id="Fill-160" fill="#C5C5FF"></path>
                    <path d="M55.0903691,26.2514439 C55.0903691,26.5805316 55.3582147,26.8477333 55.6880954,26.8477333 C56.018706,26.8477333 56.2865516,26.5805316 56.2865516,26.2514439 C56.2865516,25.9216281 56.018706,25.6544263 55.6880954,25.6544263 C55.3582147,25.6544263 55.0903691,25.9216281 55.0903691,26.2514439" id="Fill-162" fill="#C5C5FF"></path>
                    <path d="M43.7267818,45.886186 C43.7267818,46.2160018 43.9946274,46.4824754 44.3245081,46.4824754 C44.6551186,46.4824754 44.923694,46.2160018 44.923694,45.886186 C44.923694,45.5563702 44.6551186,45.2898965 44.3245081,45.2898965 C43.9946274,45.2898965 43.7267818,45.5563702 43.7267818,45.886186" id="Fill-164" fill="#C5C5FF"></path>
                    <polygon id="Stroke-166" stroke="#C5C5FF" stroke-width="0.16" stroke-linejoin="round" points="72.6595818 50.7068114 59.0038344 42.8421974 45.3473572 50.7068114 59.0038344 58.5728816"></polygon>
                    <polygon id="Stroke-168" stroke="#C5C5FF" stroke-width="0.16" stroke-linejoin="round" points="72.6595818 66.4385149 59.0038344 58.5724447 59.0038344 42.8417605 72.6595818 50.7071026"></polygon>
                    <polygon id="Stroke-170" stroke="#C5C5FF" stroke-width="0.16" stroke-linejoin="round" points="59.0039074 58.5726632 45.3474302 50.706593 45.3474302 66.4387333"></polygon>
                    <polygon id="Fill-172" fill="#7AC7C4" points="70.5941053 52.6080211 70.5941053 65.9586439 59.0037614 72.6343193 59.0037614 59.2829684"></polygon>
                    <polygon id="Fill-174" fill="#263958" points="70.5941053 52.6080211 59.0037614 45.9316175 47.4126877 52.6080211 59.0037614 59.2829684"></polygon>
                    <polygon id="Fill-176" fill="#FFFFFF" points="59.0039074 59.2829684 47.4128337 52.6080211 47.4128337 65.9586439 59.0039074 72.6343193"></polygon>
                    <polygon id="Stroke-178" stroke="#C5C5FF" stroke-width="0.16" stroke-linejoin="round" points="59.0039074 74.3037114 59.0039074 58.5730272 45.3474302 50.706957 45.3474302 66.4383693"></polygon>
                    <polygon id="Stroke-180" stroke="#C5C5FF" stroke-width="0.16" stroke-linejoin="round" points="59.0039074 74.3037114 72.6596547 66.4383693 72.6596547 50.706957 59.0039074 58.5730272"></polygon>
                    <path d="M58.2847382,42.8420518 C58.2847382,43.2381219 58.6058611,43.5592009 59.0036154,43.5592009 C59.3999102,43.5592009 59.7224926,43.2381219 59.7224926,42.8420518 C59.7224926,42.4459816 59.3999102,42.1249026 59.0036154,42.1249026 C58.6058611,42.1249026 58.2847382,42.4459816 58.2847382,42.8420518" id="Fill-182" fill="#C5C5FF"></path>
                    <path d="M44.7894063,50.5504219 C44.7894063,50.945764 45.1105291,51.266843 45.5075537,51.266843 C45.9045782,51.266843 46.2271607,50.945764 46.2271607,50.5504219 C46.2271607,50.1536237 45.9045782,49.8332728 45.5075537,49.8332728 C45.1105291,49.8332728 44.7894063,50.1536237 44.7894063,50.5504219" id="Fill-184" fill="#C5C5FF"></path>
                    <path d="M44.628334,66.4385149 C44.628334,66.8345851 44.9501867,67.154936 45.3472112,67.154936 C45.7442358,67.154936 46.0660884,66.8345851 46.0660884,66.4385149 C46.0660884,66.0424447 45.7442358,65.7213658 45.3472112,65.7213658 C44.9501867,65.7213658 44.628334,66.0424447 44.628334,66.4385149" id="Fill-186" fill="#C5C5FF"></path>
                    <path d="M71.9411425,66.4385149 C71.9411425,66.8345851 72.2622653,67.154936 72.6592898,67.154936 C73.0563144,67.154936 73.378167,66.8345851 73.378167,66.4385149 C73.378167,66.0424447 73.0563144,65.7213658 72.6592898,65.7213658 C72.2622653,65.7213658 71.9411425,66.0424447 71.9411425,66.4385149" id="Fill-188" fill="#C5C5FF"></path>
                    <path d="M71.9411425,50.7068114 C71.9411425,51.1036096 72.2622653,51.4246886 72.6592898,51.4246886 C73.0563144,51.4246886 73.378167,51.1036096 73.378167,50.7068114 C73.378167,50.3114693 73.0563144,49.9903904 72.6592898,49.9903904 C72.2622653,49.9903904 71.9411425,50.3114693 71.9411425,50.7068114" id="Fill-190" fill="#C5C5FF"></path>
                    <path d="M58.2847382,74.3037114 C58.2847382,74.6997816 58.6058611,75.0201325 59.0036154,75.0201325 C59.3999102,75.0201325 59.7224926,74.6997816 59.7224926,74.3037114 C59.7224926,73.9076412 59.3999102,73.5865623 59.0036154,73.5865623 C58.6058611,73.5865623 58.2847382,73.9076412 58.2847382,74.3037114" id="Fill-192" fill="#C5C5FF"></path>
                    <polygon id="Stroke-194" stroke="#C5C5FF" stroke-width="0.113" stroke-linejoin="round" points="151.777162 38.0220816 142.163913 32.4851079 132.550664 38.0220816 142.163913 43.5590553"></polygon>
                    <polygon id="Stroke-196" stroke="#C5C5FF" stroke-width="0.113" stroke-linejoin="round" points="151.777162 49.0956649 142.163913 43.5594193 142.163913 32.4854719 151.777162 38.0224456"></polygon>
                    <polygon id="Stroke-198" stroke="#C5C5FF" stroke-width="0.113" stroke-linejoin="round" points="142.163986 43.5590553 132.550737 38.0220816 132.550737 49.0953009"></polygon>
                    <polygon id="Fill-200" fill="#7AC7C4" points="150.323206 39.3598377 150.323206 48.7584956 142.163767 53.4574605 142.163767 44.0588026"></polygon>
                    <polygon id="Fill-202" fill="#263958" points="150.323206 39.3598377 142.163767 34.6601447 134.005058 39.3598377 142.163767 44.0588026"></polygon>
                    <polygon id="Fill-204" fill="#F73859" points="142.163986 44.0588754 134.004547 39.3599105 134.004547 48.7585684 142.163986 53.4575333"></polygon>
                    <polygon id="Stroke-206" stroke="#C5C5FF" stroke-width="0.113" stroke-linejoin="round" points="142.163986 54.6330026 142.163986 43.5590553 132.550737 38.0220816 132.550737 49.0960289"></polygon>
                    <polygon id="Stroke-208" stroke="#C5C5FF" stroke-width="0.113" stroke-linejoin="round" points="142.163986 54.6330026 151.777235 49.0960289 151.777235 38.0220816 142.163986 43.5590553"></polygon>
                    <path d="M141.657926,32.4851807 C141.657926,32.7640316 141.884901,32.9897333 142.163694,32.9897333 C142.443217,32.9897333 142.670192,32.7640316 142.670192,32.4851807 C142.670192,32.2063298 142.443217,31.9806281 142.163694,31.9806281 C141.884901,31.9806281 141.657926,32.2063298 141.657926,32.4851807" id="Fill-210" fill="#C5C5FF"></path>
                    <path d="M132.158091,37.9115605 C132.158091,38.1904114 132.385067,38.4161132 132.66386,38.4161132 C132.943382,38.4161132 133.170358,38.1904114 133.170358,37.9115605 C133.170358,37.6327096 132.943382,37.4070079 132.66386,37.4070079 C132.385067,37.4070079 132.158091,37.6327096 132.158091,37.9115605" id="Fill-212" fill="#C5C5FF"></path>
                    <path d="M132.044822,49.0956649 C132.044822,49.3745158 132.271798,49.6002175 132.550591,49.6002175 C132.830114,49.6002175 133.057089,49.3745158 133.057089,49.0956649 C133.057089,48.816814 132.830114,48.5911123 132.550591,48.5911123 C132.271798,48.5911123 132.044822,48.816814 132.044822,49.0956649" id="Fill-214" fill="#C5C5FF"></path>
                    <path d="M151.271102,49.0956649 C151.271102,49.3745158 151.498077,49.6002175 151.77687,49.6002175 C152.056393,49.6002175 152.283368,49.3745158 152.283368,49.0956649 C152.283368,48.816814 152.056393,48.5911123 151.77687,48.5911123 C151.498077,48.5911123 151.271102,48.816814 151.271102,49.0956649" id="Fill-216" fill="#C5C5FF"></path>
                    <path d="M151.271102,38.0220816 C151.271102,38.3009325 151.498077,38.5266342 151.77687,38.5266342 C152.056393,38.5266342 152.283368,38.3009325 152.283368,38.0220816 C152.283368,37.7432307 152.056393,37.5175289 151.77687,37.5175289 C151.498077,37.5175289 151.271102,37.7432307 151.271102,38.0220816" id="Fill-218" fill="#C5C5FF"></path>
                    <path d="M141.657926,54.6330026 C141.657926,54.9118535 141.884901,55.1375553 142.163694,55.1375553 C142.443217,55.1375553 142.670192,54.9118535 142.670192,54.6330026 C142.670192,54.3541518 142.443217,54.12845 142.163694,54.12845 C141.884901,54.12845 141.657926,54.3541518 141.657926,54.6330026" id="Fill-220" fill="#C5C5FF"></path>
                    <polygon id="Stroke-222" stroke="#C5C5FF" stroke-width="0.081" stroke-linejoin="round" points="164.750086 60.9047447 157.843756 56.9265693 150.937426 60.9047447 157.843756 64.8821921"></polygon>
                    <polygon id="Stroke-224" stroke="#C5C5FF" stroke-width="0.081" stroke-linejoin="round" points="164.750086 68.8602219 157.843756 64.8820465 157.843756 56.9264237 164.750086 60.9045991"></polygon>
                    <polygon id="Stroke-226" stroke="#C5C5FF" stroke-width="0.081" stroke-linejoin="round" points="157.843829 64.8821193 150.937499 60.9046719 150.937499 68.8602947"></polygon>
                    <polygon id="Fill-228" fill="#7AC7C4" points="163.705196 61.8653605 163.705196 68.6174833 157.843975 71.9935447 157.843975 65.24215"></polygon>
                    <polygon id="Fill-230" fill="#263958" points="163.705196 61.8653605 157.843975 58.4892991 151.982754 61.8653605 157.843975 65.24215"></polygon>
                    <polygon id="Fill-232" fill="#F73859" points="157.843829 65.2419316 151.982608 61.8651421 151.982608 68.617993 157.843829 71.9933263"></polygon>
                    <polygon id="Stroke-234" stroke="#C5C5FF" stroke-width="0.081" stroke-linejoin="round" points="157.843829 72.8375965 157.843829 64.8819737 150.937499 60.9045263 150.937499 68.8601491"></polygon>
                    <polygon id="Stroke-236" stroke="#C5C5FF" stroke-width="0.081" stroke-linejoin="round" points="157.843829 72.8375965 164.750159 68.8601491 164.750159 60.9045263 157.843829 64.8819737"></polygon>
                    <path d="M157.480303,56.9267149 C157.480303,57.1269342 157.643054,57.2892939 157.843756,57.2892939 C158.044458,57.2892939 158.207208,57.1269342 158.207208,56.9267149 C158.207208,56.7264956 158.044458,56.564136 157.843756,56.564136 C157.643054,56.564136 157.480303,56.7264956 157.480303,56.9267149" id="Fill-238" fill="#C5C5FF"></path>
                    <path d="M150.655349,60.8251667 C150.655349,61.025386 150.8181,61.1877456 151.018801,61.1877456 C151.219503,61.1877456 151.382254,61.025386 151.382254,60.8251667 C151.382254,60.6249474 151.219503,60.4625877 151.018801,60.4625877 C150.8181,60.4625877 150.655349,60.6249474 150.655349,60.8251667" id="Fill-240" fill="#C5C5FF"></path>
                    <path d="M150.574046,68.8602219 C150.574046,69.0604412 150.736797,69.2228009 150.937499,69.2228009 C151.138201,69.2228009 151.300952,69.0604412 151.300952,68.8602219 C151.300952,68.6600026 151.138201,68.497643 150.937499,68.497643 C150.736797,68.497643 150.574046,68.6600026 150.574046,68.8602219" id="Fill-242" fill="#C5C5FF"></path>
                    <path d="M164.38656,68.8602219 C164.38656,69.0604412 164.549311,69.2228009 164.750013,69.2228009 C164.950714,69.2228009 165.113465,69.0604412 165.113465,68.8602219 C165.113465,68.6600026 164.950714,68.497643 164.750013,68.497643 C164.549311,68.497643 164.38656,68.6600026 164.38656,68.8602219" id="Fill-244" fill="#C5C5FF"></path>
                    <path d="M164.38656,60.9047447 C164.38656,61.104964 164.549311,61.2673237 164.750013,61.2673237 C164.950714,61.2673237 165.113465,61.104964 165.113465,60.9047447 C165.113465,60.7045254 164.950714,60.5421658 164.750013,60.5421658 C164.549311,60.5421658 164.38656,60.7045254 164.38656,60.9047447" id="Fill-246" fill="#C5C5FF"></path>
                    <path d="M157.480303,72.8375965 C157.480303,73.0378158 157.643054,73.2001754 157.843756,73.2001754 C158.044458,73.2001754 158.207208,73.0378158 158.207208,72.8375965 C158.207208,72.6381053 158.044458,72.4750175 157.843756,72.4750175 C157.643054,72.4750175 157.480303,72.6381053 157.480303,72.8375965" id="Fill-248" fill="#C5C5FF"></path>
                    <polygon id="Stroke-250" stroke="#C5C5FF" stroke-width="0.148" stroke-linejoin="round" points="158.902877 90.1925325 146.304646 82.9365851 133.707874 90.1925325 146.304646 97.4484798"></polygon>
                    <polygon id="Stroke-252" stroke="#C5C5FF" stroke-width="0.148" stroke-linejoin="round" points="158.902877 104.704136 146.304646 97.4481886 146.304646 82.9370219 158.902877 90.1922412"></polygon>
                    <polygon id="Stroke-254" stroke="#C5C5FF" stroke-width="0.148" stroke-linejoin="round" points="146.304865 97.4483342 133.707363 90.1923868 133.707363 104.704282"></polygon>
                    <polygon id="Fill-256" fill="#7AC7C4" points="156.997086 91.945143 156.997086 104.261906 146.305156 110.419924 146.305156 98.1038886"></polygon>
                    <polygon id="Fill-258" fill="#263958" points="156.997086 91.945143 146.305156 85.7871254 135.612497 91.945143 146.305156 98.1038886"></polygon>
                    <polygon id="Fill-260" fill="#F73859" points="146.304865 98.1038886 135.612935 91.945143 135.612935 104.261906 146.304865 110.419924"></polygon>
                    <polygon id="Stroke-262" stroke="#C5C5FF" stroke-width="0.148" stroke-linejoin="round" points="146.304865 111.960011 146.304865 97.4481158 133.707363 90.1928965 133.707363 104.704063"></polygon>
                    <polygon id="Stroke-264" stroke="#C5C5FF" stroke-width="0.148" stroke-linejoin="round" points="146.304865 111.960011 158.903096 104.704063 158.903096 90.1928965 146.304865 97.4481158"></polygon>
                    <path d="M145.642038,82.9367307 C145.642038,83.3022219 145.938347,83.5978184 146.304719,83.5978184 C146.671091,83.5978184 146.968129,83.3022219 146.968129,82.9367307 C146.968129,82.5712395 146.671091,82.2749149 146.304719,82.2749149 C145.938347,82.2749149 145.642038,82.5712395 145.642038,82.9367307" id="Fill-266" fill="#C5C5FF"></path>
                    <path d="M133.192253,90.0475009 C133.192253,90.4129921 133.489291,90.7085886 133.855663,90.7085886 C134.221305,90.7085886 134.518344,90.4129921 134.518344,90.0475009 C134.518344,89.6820096 134.221305,89.3864132 133.855663,89.3864132 C133.489291,89.3864132 133.192253,89.6820096 133.192253,90.0475009" id="Fill-268" fill="#C5C5FF"></path>
                    <path d="M133.044025,104.704136 C133.044025,105.069627 133.340334,105.365224 133.706706,105.365224 C134.073078,105.365224 134.370116,105.069627 134.370116,104.704136 C134.370116,104.338645 134.073078,104.043048 133.706706,104.043048 C133.340334,104.043048 133.044025,104.338645 133.044025,104.704136" id="Fill-270" fill="#C5C5FF"></path>
                    <path d="M158.239394,104.704136 C158.239394,105.069627 158.536432,105.365224 158.902804,105.365224 C159.269176,105.365224 159.565485,105.069627 159.565485,104.704136 C159.565485,104.338645 159.269176,104.043048 158.902804,104.043048 C158.536432,104.043048 158.239394,104.338645 158.239394,104.704136" id="Fill-272" fill="#C5C5FF"></path>
                    <path d="M158.239394,90.1925325 C158.239394,90.5580237 158.536432,90.8536202 158.902804,90.8536202 C159.269176,90.8536202 159.565485,90.5580237 159.565485,90.1925325 C159.565485,89.8270412 159.269176,89.5307167 158.902804,89.5307167 C158.536432,89.5307167 158.239394,89.8270412 158.239394,90.1925325" id="Fill-274" fill="#C5C5FF"></path>
                    <path d="M145.642038,111.960011 C145.642038,112.325502 145.938347,112.621098 146.304719,112.621098 C146.671091,112.621098 146.967399,112.325502 146.967399,111.960011 C146.967399,111.594519 146.671091,111.298923 146.304719,111.298923 C145.938347,111.298923 145.642038,111.594519 145.642038,111.960011" id="Fill-276" fill="#C5C5FF"></path>
                    <polygon id="Stroke-278" stroke="#C5C5FF" stroke-width="0.083" stroke-linejoin="round" points="133.578549 108.567786 126.49998 104.490593 119.422142 108.567786 126.49998 112.644979"></polygon>
                    <polygon id="Stroke-280" stroke="#C5C5FF" stroke-width="0.083" stroke-linejoin="round" points="133.578549 116.721589 126.49998 112.644396 126.49998 104.490739 133.578549 108.567932"></polygon>
                    <polygon id="Stroke-282" stroke="#C5C5FF" stroke-width="0.083" stroke-linejoin="round" points="126.499834 112.644688 119.421996 108.567495 119.421996 116.721881"></polygon>
                    <polygon id="Fill-284" fill="#7AC7C4" points="132.508042 109.552501 132.508042 116.472808 126.500126 119.933325 126.500126 113.013018"></polygon>
                    <polygon id="Fill-286" fill="#263958" points="132.508042 109.552501 126.500126 106.092711 120.49294 109.552501 126.500126 113.013018"></polygon>
                    <polygon id="Fill-288" fill="#FFFFFF" points="126.499834 113.013018 120.493378 109.552501 120.493378 116.472808 126.499834 119.933325"></polygon>
                    <polygon id="Stroke-290" stroke="#C5C5FF" stroke-width="0.083" stroke-linejoin="round" points="126.499834 120.797763 126.499834 112.644833 119.421996 108.56764 119.421996 116.721298"></polygon>
                    <polygon id="Stroke-292" stroke="#C5C5FF" stroke-width="0.083" stroke-linejoin="round" points="126.499834 120.797763 133.578403 116.721298 133.578403 108.56764 126.499834 112.644833"></polygon>
                    <path d="M126.12777,104.490884 C126.12777,104.6962 126.2949,104.862928 126.49998,104.862928 C126.705791,104.862928 126.872921,104.6962 126.872921,104.490884 C126.872921,104.285568 126.705791,104.11884 126.49998,104.11884 C126.2949,104.11884 126.12777,104.285568 126.12777,104.490884" id="Fill-294" fill="#C5C5FF"></path>
                    <path d="M119.132474,108.486024 C119.132474,108.691339 119.299604,108.858068 119.505415,108.858068 C119.711225,108.858068 119.877625,108.691339 119.877625,108.486024 C119.877625,108.281436 119.711225,108.114708 119.505415,108.114708 C119.299604,108.114708 119.132474,108.281436 119.132474,108.486024" id="Fill-296" fill="#C5C5FF"></path>
                    <path d="M119.049055,116.721589 C119.049055,116.926905 119.216185,117.092905 119.421996,117.092905 C119.627806,117.092905 119.794206,116.926905 119.794206,116.721589 C119.794206,116.516274 119.627806,116.349546 119.421996,116.349546 C119.216185,116.349546 119.049055,116.516274 119.049055,116.721589" id="Fill-298" fill="#C5C5FF"></path>
                    <path d="M133.205827,116.721589 C133.205827,116.926177 133.372957,117.092905 133.578768,117.092905 C133.783848,117.092905 133.950978,116.926177 133.950978,116.721589 C133.950978,116.516274 133.783848,116.349546 133.578768,116.349546 C133.372957,116.349546 133.205827,116.516274 133.205827,116.721589" id="Fill-300" fill="#C5C5FF"></path>
                    <path d="M133.205827,108.567786 C133.205827,108.773102 133.372957,108.93983 133.578768,108.93983 C133.783848,108.93983 133.950978,108.773102 133.950978,108.567786 C133.950978,108.36247 133.783848,108.195742 133.578768,108.195742 C133.372957,108.195742 133.205827,108.36247 133.205827,108.567786" id="Fill-302" fill="#C5C5FF"></path>
                    <path d="M126.12777,120.798491 C126.12777,121.003079 126.2949,121.169807 126.49998,121.169807 C126.705791,121.169807 126.872921,121.003079 126.872921,120.798491 C126.872921,120.593175 126.705791,120.426447 126.49998,120.426447 C126.2949,120.426447 126.12777,120.593175 126.12777,120.798491" id="Fill-304" fill="#C5C5FF"></path>
                    <polygon id="Stroke-306" stroke="#C5C5FF" stroke-width="0.15" stroke-linejoin="round" points="137.939688 18.0297114 131.201218 14.1483693 124.462018 18.0297114 130.345134 21.4174219 131.201218 21.9110535"></polygon>
                    <polyline id="Stroke-308" stroke="#C5C5FF" stroke-width="0.15" stroke-linejoin="round" points="131.200926 14.1482965 137.939396 18.0296386 137.939396 25.7923228 132.699256 22.7737439"></polyline>
                    <polyline id="Stroke-310" stroke="#C5C5FF" stroke-width="0.15" stroke-linejoin="round" points="124.462164 18.0297114 124.462164 25.7923956 127.514291 24.0348342"></polyline>
                    <polyline id="Stroke-312" stroke="#C5C5FF" stroke-width="0.15" stroke-linejoin="round" points="129.431248 20.891464 124.461872 18.0294202 124.461872 25.7921044 131.201072 29.6741746 131.201072 21.9107623"></polyline>
                    <polygon id="Stroke-314" stroke="#C5C5FF" stroke-width="0.15" stroke-linejoin="round" points="131.200926 29.6738105 137.939396 25.7924684 137.939396 18.0297842 131.200926 21.9111263"></polygon>
                    <path d="M130.846742,14.1482965 C130.846742,14.3441474 131.005114,14.5021386 131.200707,14.5021386 C131.39703,14.5021386 131.556132,14.3441474 131.556132,14.1482965 C131.556132,13.9524456 131.39703,13.7944544 131.200707,13.7944544 C131.005114,13.7944544 130.846742,13.9524456 130.846742,14.1482965" id="Fill-316" fill="#C5C5FF"></path>
                    <path d="M124.187093,17.9521719 C124.187093,18.1472947 124.346195,18.306014 124.541788,18.306014 C124.737381,18.306014 124.896483,18.1472947 124.896483,17.9521719 C124.896483,17.7563211 124.737381,17.5983298 124.541788,17.5983298 C124.346195,17.5983298 124.187093,17.7563211 124.187093,17.9521719" id="Fill-318" fill="#C5C5FF"></path>
                    <path d="M124.107251,25.7924684 C124.107251,25.9883193 124.266352,26.1463105 124.461945,26.1463105 C124.658268,26.1463105 124.81737,25.9883193 124.81737,25.7924684 C124.81737,25.5966175 124.658268,25.4386263 124.461945,25.4386263 C124.266352,25.4386263 124.107251,25.5966175 124.107251,25.7924684" id="Fill-320" fill="#C5C5FF"></path>
                    <path d="M130.846742,29.6738105 C130.846742,29.8689333 131.005114,30.0276526 131.200707,30.0276526 C131.39703,30.0276526 131.556132,29.8689333 131.556132,29.6738105 C131.556132,29.4779596 131.39703,29.3199684 131.200707,29.3199684 C131.005114,29.3199684 130.846742,29.4779596 130.846742,29.6738105" id="Fill-322" fill="#C5C5FF"></path>
                    <path d="M137.585505,25.7921044 C137.585505,25.9879553 137.743876,26.1459465 137.939469,26.1459465 C138.135792,26.1459465 138.294894,25.9879553 138.294894,25.7921044 C138.294894,25.5969816 138.135792,25.4382623 137.939469,25.4382623 C137.743876,25.4382623 137.585505,25.5969816 137.585505,25.7921044" id="Fill-324" fill="#C5C5FF"></path>
                    <path d="M137.585505,18.0297114 C137.585505,18.2255623 137.743876,18.3835535 137.939469,18.3835535 C138.135792,18.3835535 138.294894,18.2255623 138.294894,18.0297114 C138.294894,17.8338605 138.135792,17.6758693 137.939469,17.6758693 C137.743876,17.6758693 137.585505,17.8338605 137.585505,18.0297114" id="Fill-326" fill="#C5C5FF"></path>
                    <polygon id="Stroke-328" stroke="#C5C5FF" stroke-width="0.15" stroke-linejoin="round" points="144.361999 68.1122754 137.623528 64.2309333 130.884328 68.1122754 136.767444 71.499986 137.623528 71.9936175"></polygon>
                    <polyline id="Stroke-330" stroke="#C5C5FF" stroke-width="0.15" stroke-linejoin="round" points="137.623236 64.2308605 144.361707 68.1122026 144.361707 75.8748868"></polyline>
                    <polyline id="Stroke-332" stroke="#C5C5FF" stroke-width="0.15" stroke-linejoin="round" points="130.884474 68.1122754 130.884474 75.8749596 133.936601 74.1173982"></polyline>
                    <polyline id="Stroke-334" stroke="#C5C5FF" stroke-width="0.15" stroke-linejoin="round" points="135.853558 70.9740281 130.884182 68.1119842 130.884182 75.8746684 137.623382 79.7567386 137.623382 71.9933263"></polyline>
                    <polygon id="Stroke-336" stroke="#C5C5FF" stroke-width="0.15" stroke-linejoin="round" points="137.623236 79.7563746 144.361707 75.8750325 144.361707 68.1123482 137.623236 71.9936904"></polygon>
                    <path d="M137.268323,64.2308605 C137.268323,64.4267114 137.427425,64.5847026 137.623018,64.5847026 C137.81934,64.5847026 137.978442,64.4267114 137.978442,64.2308605 C137.978442,64.0350096 137.81934,63.8777465 137.623018,63.8777465 C137.427425,63.8777465 137.268323,64.0350096 137.268323,64.2308605" id="Fill-338" fill="#C5C5FF"></path>
                    <path d="M130.609404,68.034736 C130.609404,68.2305868 130.767775,68.3885781 130.963368,68.3885781 C131.159691,68.3885781 131.318793,68.2305868 131.318793,68.034736 C131.318793,67.8388851 131.159691,67.6816219 130.963368,67.6816219 C130.767775,67.6816219 130.609404,67.8388851 130.609404,68.034736" id="Fill-340" fill="#C5C5FF"></path>
                    <path d="M130.529561,75.8750325 C130.529561,76.0708833 130.688662,76.2288746 130.884255,76.2288746 C131.080578,76.2288746 131.23895,76.0708833 131.23895,75.8750325 C131.23895,75.6791816 131.080578,75.5211904 130.884255,75.5211904 C130.688662,75.5211904 130.529561,75.6791816 130.529561,75.8750325" id="Fill-342" fill="#C5C5FF"></path>
                    <path d="M137.268323,79.7563746 C137.268323,79.9522254 137.427425,80.1102167 137.623018,80.1102167 C137.81934,80.1102167 137.978442,79.9522254 137.978442,79.7563746 C137.978442,79.5605237 137.81934,79.4025325 137.623018,79.4025325 C137.427425,79.4025325 137.268323,79.5605237 137.268323,79.7563746" id="Fill-344" fill="#C5C5FF"></path>
                    <path d="M144.007085,75.8750325 C144.007085,76.0708833 144.166187,76.2288746 144.36178,76.2288746 C144.558102,76.2288746 144.717204,76.0708833 144.717204,75.8750325 C144.717204,75.6791816 144.558102,75.5211904 144.36178,75.5211904 C144.166187,75.5211904 144.007085,75.6791816 144.007085,75.8750325" id="Fill-346" fill="#C5C5FF"></path>
                    <path d="M144.007085,68.1122754 C144.007085,68.3081263 144.166187,68.4661175 144.36178,68.4661175 C144.558102,68.4661175 144.717204,68.3081263 144.717204,68.1122754 C144.717204,67.9164246 144.558102,67.7584333 144.36178,67.7584333 C144.166187,67.7584333 144.007085,67.9164246 144.007085,68.1122754" id="Fill-348" fill="#C5C5FF"></path>
                </g>
            </g>
        </g>
    </g>
</svg>
