<svg width="570" height="648" viewBox="0 0 570 648" fill="none" xmlns="http://www.w3.org/2000/svg">
<path fill-rule="evenodd" clip-rule="evenodd" d="M324.105 1.88809C311.14 4.1747 298.068 8.55844 285 15.3192C128.109 96.2807 0 166.821 0 324.476C0 463.486 91.9664 622.205 200.271 645.183C224.709 650.372 249.986 648.594 275.219 638.168C276.032 637.832 276.831 637.518 277.643 637.169C279.43 636.39 281.208 635.563 282.978 634.693C283.076 634.641 283.179 634.598 283.277 634.547C283.854 634.271 284.427 634.026 285 633.737C433.132 558.929 570 497.897 570 324.476C570 163.949 452.347 -20.7153 324.105 1.88809Z" 
fill="currentColor"/>
<path opacity="0.15" d="M151.892 193.81C148.274 193.81 145.034 192.865 142.172 190.975C139.364 189.031 137.096 186.682 135.368 183.928V210.253H131.318V150.88H135.044V159.304C136.772 156.604 139.067 154.417 141.929 152.743C144.791 151.015 147.815 150.151 151.001 150.151C153.917 150.151 156.59 150.772 159.02 152.014C161.504 153.202 163.637 154.849 165.419 156.955C167.255 159.007 168.659 161.329 169.631 163.921C170.657 166.513 171.17 169.213 171.17 172.021C171.17 175.909 170.36 179.527 168.74 182.875C167.12 186.169 164.852 188.815 161.936 190.813C159.074 192.811 155.726 193.81 151.892 193.81ZM150.92 190.165C154.16 190.165 156.995 189.301 159.425 187.573C161.855 185.791 163.718 183.523 165.014 180.769C166.364 177.961 167.039 175.045 167.039 172.021C167.039 168.781 166.283 165.784 164.771 163.03C163.313 160.276 161.288 158.062 158.696 156.388C156.158 154.66 153.323 153.796 150.191 153.796C148.733 153.796 147.167 154.12 145.493 154.768C143.873 155.362 142.307 156.199 140.795 157.279C139.337 158.305 138.095 159.493 137.069 160.843C136.097 162.193 135.53 163.624 135.368 165.136V178.987C136.286 181.039 137.528 182.929 139.094 184.657C140.714 186.331 142.523 187.681 144.521 188.707C146.573 189.679 148.706 190.165 150.92 190.165ZM200.841 154.525C197.061 154.633 193.74 155.767 190.878 157.927C188.07 160.033 186.099 162.949 184.965 166.675V193H180.915V150.88H184.803V161.248C186.261 158.332 188.205 155.929 190.635 154.039C193.065 152.149 195.63 151.069 198.33 150.799C198.87 150.799 199.329 150.799 199.707 150.799C200.139 150.745 200.517 150.718 200.841 150.718V154.525ZM204.722 180.85C204.722 178.366 205.451 176.179 206.909 174.289C208.421 172.399 210.5 170.941 213.146 169.915C215.846 168.835 218.924 168.295 222.38 168.295C224.54 168.295 226.781 168.484 229.103 168.862C231.479 169.24 233.558 169.753 235.34 170.401V166.432C235.34 162.544 234.206 159.439 231.938 157.117C229.67 154.795 226.592 153.634 222.704 153.634C220.598 153.634 218.411 154.066 216.143 154.93C213.875 155.794 211.553 157.036 209.177 158.656L207.476 155.74C212.984 152.014 218.195 150.151 223.109 150.151C228.077 150.151 232.019 151.636 234.935 154.606C237.905 157.576 239.39 161.626 239.39 166.756V187.654C239.39 188.95 239.984 189.625 241.172 189.679V193C240.146 193.108 239.471 193.135 239.147 193.081C238.121 192.973 237.311 192.541 236.717 191.785C236.177 191.029 235.88 190.246 235.826 189.436V186.115C233.882 188.545 231.371 190.435 228.293 191.785C225.269 193.135 222.083 193.81 218.735 193.81C216.089 193.81 213.686 193.243 211.526 192.109C209.42 190.921 207.746 189.355 206.504 187.411C205.316 185.467 204.722 183.28 204.722 180.85ZM233.72 184.333C234.8 182.983 235.34 181.714 235.34 180.526V173.56C231.452 172.048 227.267 171.292 222.785 171.292C218.519 171.292 215.09 172.156 212.498 173.884C209.906 175.558 208.61 177.799 208.61 180.607C208.61 182.389 209.069 184.036 209.987 185.548C210.905 187.06 212.174 188.275 213.794 189.193C215.468 190.111 217.385 190.57 219.545 190.57C222.569 190.57 225.35 190.003 227.888 188.869C230.426 187.681 232.37 186.169 233.72 184.333ZM251.711 141.322V133.87H255.761V141.322H251.711ZM251.711 193V150.88H255.761V193H251.711ZM281.764 193.81C278.416 193.81 275.311 193.243 272.449 192.109C269.587 190.975 267.076 189.247 264.916 186.925L266.779 184.09C269.047 186.304 271.369 187.924 273.745 188.95C276.175 189.922 278.794 190.408 281.602 190.408C285.166 190.408 288.082 189.652 290.35 188.14C292.618 186.628 293.752 184.522 293.752 181.822C293.752 179.986 293.212 178.582 292.132 177.61C291.106 176.638 289.594 175.828 287.596 175.18C285.652 174.532 283.276 173.857 280.468 173.155C277.606 172.399 275.203 171.616 273.259 170.806C271.315 169.996 269.83 168.943 268.804 167.647C267.832 166.351 267.346 164.596 267.346 162.382C267.346 159.628 268.021 157.36 269.371 155.578C270.775 153.742 272.638 152.392 274.96 151.528C277.336 150.61 279.955 150.151 282.817 150.151C286.111 150.151 288.973 150.691 291.403 151.771C293.887 152.851 295.777 154.282 297.073 156.064L294.886 158.656C293.59 156.982 291.835 155.713 289.621 154.849C287.407 153.985 285.031 153.553 282.493 153.553C280.495 153.553 278.632 153.823 276.904 154.363C275.23 154.903 273.853 155.794 272.773 157.036C271.747 158.224 271.234 159.844 271.234 161.896C271.234 163.516 271.612 164.785 272.368 165.703C273.124 166.621 274.285 167.377 275.851 167.971C277.417 168.511 279.388 169.105 281.764 169.753C285.058 170.563 287.893 171.4 290.269 172.264C292.645 173.128 294.481 174.262 295.777 175.666C297.073 177.016 297.721 178.933 297.721 181.417C297.721 185.251 296.263 188.275 293.347 190.489C290.431 192.703 286.57 193.81 281.764 193.81ZM325.141 193.81C321.199 193.81 317.635 192.811 314.449 190.813C311.317 188.815 308.833 186.142 306.997 182.794C305.215 179.446 304.324 175.774 304.324 171.778C304.324 167.836 305.215 164.245 306.997 161.005C308.779 157.711 311.236 155.092 314.368 153.148C317.5 151.15 321.01 150.151 324.898 150.151C328.894 150.151 332.431 151.15 335.509 153.148C338.641 155.092 341.098 157.711 342.88 161.005C344.662 164.299 345.553 167.89 345.553 171.778C345.553 172.426 345.526 173.02 345.472 173.56H308.536C308.752 176.8 309.643 179.716 311.209 182.308C312.775 184.846 314.773 186.871 317.203 188.383C319.687 189.841 322.387 190.57 325.303 190.57C328.219 190.57 330.973 189.814 333.565 188.302C336.157 186.79 337.966 184.846 338.992 182.47L342.556 183.442C341.746 185.44 340.45 187.222 338.668 188.788C336.94 190.354 334.888 191.596 332.512 192.514C330.19 193.378 327.733 193.81 325.141 193.81ZM308.374 170.401H341.665C341.449 167.107 340.558 164.191 338.992 161.653C337.48 159.061 335.509 157.063 333.079 155.659C330.649 154.201 327.949 153.472 324.979 153.472C322.009 153.472 319.309 154.201 316.879 155.659C314.449 157.117 312.478 159.142 310.966 161.734C309.454 164.272 308.59 167.161 308.374 170.401Z" 
fill="white"/>
<path opacity="0.3" d="M151.892 257.81C148.274 257.81 145.034 256.865 142.172 254.975C139.364 253.031 137.096 250.682 135.368 247.928V274.253H131.318V214.88H135.044V223.304C136.772 220.604 139.067 218.417 141.929 216.743C144.791 215.015 147.815 214.151 151.001 214.151C153.917 214.151 156.59 214.772 159.02 216.014C161.504 217.202 163.637 218.849 165.419 220.955C167.255 223.007 168.659 225.329 169.631 227.921C170.657 230.513 171.17 233.213 171.17 236.021C171.17 239.909 170.36 243.527 168.74 246.875C167.12 250.169 164.852 252.815 161.936 254.813C159.074 256.811 155.726 257.81 151.892 257.81ZM150.92 254.165C154.16 254.165 156.995 253.301 159.425 251.573C161.855 249.791 163.718 247.523 165.014 244.769C166.364 241.961 167.039 239.045 167.039 236.021C167.039 232.781 166.283 229.784 164.771 227.03C163.313 224.276 161.288 222.062 158.696 220.388C156.158 218.66 153.323 217.796 150.191 217.796C148.733 217.796 147.167 218.12 145.493 218.768C143.873 219.362 142.307 220.199 140.795 221.279C139.337 222.305 138.095 223.493 137.069 224.843C136.097 226.193 135.53 227.624 135.368 229.136V242.987C136.286 245.039 137.528 246.929 139.094 248.657C140.714 250.331 142.523 251.681 144.521 252.707C146.573 253.679 148.706 254.165 150.92 254.165ZM198.573 257.81C194.631 257.81 191.094 256.811 187.962 254.813C184.884 252.815 182.454 250.169 180.672 246.875C178.89 243.581 177.999 239.963 177.999 236.021C177.999 233.051 178.512 230.27 179.538 227.678C180.564 225.032 182.022 222.71 183.912 220.712C185.802 218.66 187.989 217.067 190.473 215.933C192.957 214.745 195.657 214.151 198.573 214.151C201.489 214.151 204.189 214.745 206.673 215.933C209.157 217.067 211.317 218.66 213.153 220.712C215.043 222.71 216.501 225.032 217.527 227.678C218.607 230.27 219.147 233.051 219.147 236.021C219.147 239.963 218.229 243.581 216.393 246.875C214.611 250.169 212.154 252.815 209.022 254.813C205.944 256.811 202.461 257.81 198.573 257.81ZM182.049 236.183C182.049 239.477 182.778 242.501 184.236 245.255C185.748 247.955 187.746 250.115 190.23 251.735C192.714 253.355 195.468 254.165 198.492 254.165C201.516 254.165 204.27 253.355 206.754 251.735C209.292 250.061 211.29 247.847 212.748 245.093C214.26 242.339 215.016 239.288 215.016 235.94C215.016 232.646 214.26 229.622 212.748 226.868C211.29 224.114 209.292 221.927 206.754 220.307C204.27 218.633 201.543 217.796 198.573 217.796C195.549 217.796 192.795 218.633 190.311 220.307C187.827 221.981 185.829 224.222 184.317 227.03C182.805 229.784 182.049 232.835 182.049 236.183ZM247.089 254.975C246.711 255.191 245.712 255.677 244.092 256.433C242.472 257.135 240.528 257.486 238.26 257.486C236.046 257.486 234.102 256.838 232.428 255.542C230.808 254.246 229.998 252.383 229.998 249.953V218.201H224.085V214.88H229.998V200.462H234.048V214.88H243.849V218.201H234.048V248.981C234.156 250.547 234.723 251.735 235.749 252.545C236.775 253.301 237.963 253.679 239.313 253.679C240.987 253.679 242.445 253.409 243.687 252.869C244.929 252.275 245.658 251.897 245.874 251.735L247.089 254.975ZM271.352 257.81C267.41 257.81 263.846 256.811 260.66 254.813C257.528 252.815 255.044 250.142 253.208 246.794C251.426 243.446 250.535 239.774 250.535 235.778C250.535 231.836 251.426 228.245 253.208 225.005C254.99 221.711 257.447 219.092 260.579 217.148C263.711 215.15 267.221 214.151 271.109 214.151C275.105 214.151 278.642 215.15 281.72 217.148C284.852 219.092 287.309 221.711 289.091 225.005C290.873 228.299 291.764 231.89 291.764 235.778C291.764 236.426 291.737 237.02 291.683 237.56H254.747C254.963 240.8 255.854 243.716 257.42 246.308C258.986 248.846 260.984 250.871 263.414 252.383C265.898 253.841 268.598 254.57 271.514 254.57C274.43 254.57 277.184 253.814 279.776 252.302C282.368 250.79 284.177 248.846 285.203 246.47L288.767 247.442C287.957 249.44 286.661 251.222 284.879 252.788C283.151 254.354 281.099 255.596 278.723 256.514C276.401 257.378 273.944 257.81 271.352 257.81ZM254.585 234.401H287.876C287.66 231.107 286.769 228.191 285.203 225.653C283.691 223.061 281.72 221.063 279.29 219.659C276.86 218.201 274.16 217.472 271.19 217.472C268.22 217.472 265.52 218.201 263.09 219.659C260.66 221.117 258.689 223.142 257.177 225.734C255.665 228.272 254.801 231.161 254.585 234.401ZM335.099 257H331.049V233.51C331.049 228.11 330.266 224.168 328.7 221.684C327.134 219.146 324.704 217.877 321.41 217.877C319.034 217.877 316.712 218.444 314.444 219.578C312.176 220.712 310.178 222.278 308.45 224.276C306.722 226.22 305.48 228.434 304.724 230.918V257H300.674V214.88H304.481V224.924C306.155 221.738 308.639 219.146 311.933 217.148C315.281 215.15 318.818 214.151 322.544 214.151C327.134 214.151 330.374 215.771 332.264 219.011C334.154 222.251 335.099 226.841 335.099 232.781V257ZM365.741 254.975C365.363 255.191 364.364 255.677 362.744 256.433C361.124 257.135 359.18 257.486 356.912 257.486C354.698 257.486 352.754 256.838 351.08 255.542C349.46 254.246 348.65 252.383 348.65 249.953V218.201H342.737V214.88H348.65V200.462H352.7V214.88H362.501V218.201H352.7V248.981C352.808 250.547 353.375 251.735 354.401 252.545C355.427 253.301 356.615 253.679 357.965 253.679C359.639 253.679 361.097 253.409 362.339 252.869C363.581 252.275 364.31 251.897 364.526 251.735L365.741 254.975ZM372.894 205.322V197.87H376.944V205.322H372.894ZM372.894 257V214.88H376.944V257H372.894ZM386.181 244.85C386.181 242.366 386.91 240.179 388.368 238.289C389.88 236.399 391.959 234.941 394.605 233.915C397.305 232.835 400.383 232.295 403.839 232.295C405.999 232.295 408.24 232.484 410.562 232.862C412.938 233.24 415.017 233.753 416.799 234.401V230.432C416.799 226.544 415.665 223.439 413.397 221.117C411.129 218.795 408.051 217.634 404.163 217.634C402.057 217.634 399.87 218.066 397.602 218.93C395.334 219.794 393.012 221.036 390.636 222.656L388.935 219.74C394.443 216.014 399.654 214.151 404.568 214.151C409.536 214.151 413.478 215.636 416.394 218.606C419.364 221.576 420.849 225.626 420.849 230.756V251.654C420.849 252.95 421.443 253.625 422.631 253.679V257C421.605 257.108 420.93 257.135 420.606 257.081C419.58 256.973 418.77 256.541 418.176 255.785C417.636 255.029 417.339 254.246 417.285 253.436V250.115C415.341 252.545 412.83 254.435 409.752 255.785C406.728 257.135 403.542 257.81 400.194 257.81C397.548 257.81 395.145 257.243 392.985 256.109C390.879 254.921 389.205 253.355 387.963 251.411C386.775 249.467 386.181 247.28 386.181 244.85ZM415.179 248.333C416.259 246.983 416.799 245.714 416.799 244.526V237.56C412.911 236.048 408.726 235.292 404.244 235.292C399.978 235.292 396.549 236.156 393.957 237.884C391.365 239.558 390.069 241.799 390.069 244.607C390.069 246.389 390.528 248.036 391.446 249.548C392.364 251.06 393.633 252.275 395.253 253.193C396.927 254.111 398.844 254.57 401.004 254.57C404.028 254.57 406.809 254.003 409.347 252.869C411.885 251.681 413.829 250.169 415.179 248.333ZM433.494 197.87H437.625V248.657C437.625 250.601 438.03 251.951 438.84 252.707C439.65 253.409 440.703 253.76 441.999 253.76C442.863 253.76 443.754 253.679 444.672 253.517C445.59 253.355 446.4 253.139 447.102 252.869L447.912 256.19C446.994 256.514 445.86 256.811 444.51 257.081C443.16 257.351 441.999 257.486 441.027 257.486C438.759 257.486 436.923 256.811 435.519 255.461C434.169 254.057 433.494 252.194 433.494 249.872V197.87Z" 
fill="white"/>
<path d="M151.892 321.81C148.274 321.81 145.034 320.865 142.172 318.975C139.364 317.031 137.096 314.682 135.368 311.928V338.253H131.318V278.88H135.044V287.304C136.772 284.604 139.067 282.417 141.929 280.743C144.791 279.015 147.815 278.151 151.001 278.151C153.917 278.151 156.59 278.772 159.02 280.014C161.504 281.202 163.637 282.849 165.419 284.955C167.255 287.007 168.659 289.329 169.631 291.921C170.657 294.513 171.17 297.213 171.17 300.021C171.17 303.909 170.36 307.527 168.74 310.875C167.12 314.169 164.852 316.815 161.936 318.813C159.074 320.811 155.726 321.81 151.892 321.81ZM150.92 318.165C154.16 318.165 156.995 317.301 159.425 315.573C161.855 313.791 163.718 311.523 165.014 308.769C166.364 305.961 167.039 303.045 167.039 300.021C167.039 296.781 166.283 293.784 164.771 291.03C163.313 288.276 161.288 286.062 158.696 284.388C156.158 282.66 153.323 281.796 150.191 281.796C148.733 281.796 147.167 282.12 145.493 282.768C143.873 283.362 142.307 284.199 140.795 285.279C139.337 286.305 138.095 287.493 137.069 288.843C136.097 290.193 135.53 291.624 135.368 293.136V306.987C136.286 309.039 137.528 310.929 139.094 312.657C140.714 314.331 142.523 315.681 144.521 316.707C146.573 317.679 148.706 318.165 150.92 318.165ZM198.816 321.81C194.874 321.81 191.31 320.811 188.124 318.813C184.992 316.815 182.508 314.142 180.672 310.794C178.89 307.446 177.999 303.774 177.999 299.778C177.999 295.836 178.89 292.245 180.672 289.005C182.454 285.711 184.911 283.092 188.043 281.148C191.175 279.15 194.685 278.151 198.573 278.151C202.569 278.151 206.106 279.15 209.184 281.148C212.316 283.092 214.773 285.711 216.555 289.005C218.337 292.299 219.228 295.89 219.228 299.778C219.228 300.426 219.201 301.02 219.147 301.56H182.211C182.427 304.8 183.318 307.716 184.884 310.308C186.45 312.846 188.448 314.871 190.878 316.383C193.362 317.841 196.062 318.57 198.978 318.57C201.894 318.57 204.648 317.814 207.24 316.302C209.832 314.79 211.641 312.846 212.667 310.47L216.231 311.442C215.421 313.44 214.125 315.222 212.343 316.788C210.615 318.354 208.563 319.596 206.187 320.514C203.865 321.378 201.408 321.81 198.816 321.81ZM182.049 298.401H215.34C215.124 295.107 214.233 292.191 212.667 289.653C211.155 287.061 209.184 285.063 206.754 283.659C204.324 282.201 201.624 281.472 198.654 281.472C195.684 281.472 192.984 282.201 190.554 283.659C188.124 285.117 186.153 287.142 184.641 289.734C183.129 292.272 182.265 295.161 182.049 298.401ZM245.796 321.81C241.854 321.81 238.317 320.811 235.185 318.813C232.107 316.815 229.677 314.169 227.895 310.875C226.113 307.581 225.222 303.963 225.222 300.021C225.222 297.051 225.735 294.27 226.761 291.678C227.787 289.032 229.245 286.71 231.135 284.712C233.025 282.66 235.212 281.067 237.696 279.933C240.18 278.745 242.88 278.151 245.796 278.151C248.712 278.151 251.412 278.745 253.896 279.933C256.38 281.067 258.54 282.66 260.376 284.712C262.266 286.71 263.724 289.032 264.75 291.678C265.83 294.27 266.37 297.051 266.37 300.021C266.37 303.963 265.452 307.581 263.616 310.875C261.834 314.169 259.377 316.815 256.245 318.813C253.167 320.811 249.684 321.81 245.796 321.81ZM229.272 300.183C229.272 303.477 230.001 306.501 231.459 309.255C232.971 311.955 234.969 314.115 237.453 315.735C239.937 317.355 242.691 318.165 245.715 318.165C248.739 318.165 251.493 317.355 253.977 315.735C256.515 314.061 258.513 311.847 259.971 309.093C261.483 306.339 262.239 303.288 262.239 299.94C262.239 296.646 261.483 293.622 259.971 290.868C258.513 288.114 256.515 285.927 253.977 284.307C251.493 282.633 248.766 281.796 245.796 281.796C242.772 281.796 240.018 282.633 237.534 284.307C235.05 285.981 233.052 288.222 231.54 291.03C230.028 293.784 229.272 296.835 229.272 300.183ZM296.648 321.81C293.03 321.81 289.79 320.865 286.928 318.975C284.12 317.031 281.852 314.682 280.124 311.928V338.253H276.074V278.88H279.8V287.304C281.528 284.604 283.823 282.417 286.685 280.743C289.547 279.015 292.571 278.151 295.757 278.151C298.673 278.151 301.346 278.772 303.776 280.014C306.26 281.202 308.393 282.849 310.175 284.955C312.011 287.007 313.415 289.329 314.387 291.921C315.413 294.513 315.926 297.213 315.926 300.021C315.926 303.909 315.116 307.527 313.496 310.875C311.876 314.169 309.608 316.815 306.692 318.813C303.83 320.811 300.482 321.81 296.648 321.81ZM295.676 318.165C298.916 318.165 301.751 317.301 304.181 315.573C306.611 313.791 308.474 311.523 309.77 308.769C311.12 305.961 311.795 303.045 311.795 300.021C311.795 296.781 311.039 293.784 309.527 291.03C308.069 288.276 306.044 286.062 303.452 284.388C300.914 282.66 298.079 281.796 294.947 281.796C293.489 281.796 291.923 282.12 290.249 282.768C288.629 283.362 287.063 284.199 285.551 285.279C284.093 286.305 282.851 287.493 281.825 288.843C280.853 290.193 280.286 291.624 280.124 293.136V306.987C281.042 309.039 282.284 310.929 283.85 312.657C285.47 314.331 287.279 315.681 289.277 316.707C291.329 317.679 293.462 318.165 295.676 318.165ZM325.995 261.87H330.126V312.657C330.126 314.601 330.531 315.951 331.341 316.707C332.151 317.409 333.204 317.76 334.5 317.76C335.364 317.76 336.255 317.679 337.173 317.517C338.091 317.355 338.901 317.139 339.603 316.869L340.413 320.19C339.495 320.514 338.361 320.811 337.011 321.081C335.661 321.351 334.5 321.486 333.528 321.486C331.26 321.486 329.424 320.811 328.02 319.461C326.67 318.057 325.995 316.194 325.995 313.872V261.87ZM364.533 321.81C360.591 321.81 357.027 320.811 353.841 318.813C350.709 316.815 348.225 314.142 346.389 310.794C344.607 307.446 343.716 303.774 343.716 299.778C343.716 295.836 344.607 292.245 346.389 289.005C348.171 285.711 350.628 283.092 353.76 281.148C356.892 279.15 360.402 278.151 364.29 278.151C368.286 278.151 371.823 279.15 374.901 281.148C378.033 283.092 380.49 285.711 382.272 289.005C384.054 292.299 384.945 295.89 384.945 299.778C384.945 300.426 384.918 301.02 384.864 301.56H347.928C348.144 304.8 349.035 307.716 350.601 310.308C352.167 312.846 354.165 314.871 356.595 316.383C359.079 317.841 361.779 318.57 364.695 318.57C367.611 318.57 370.365 317.814 372.957 316.302C375.549 314.79 377.358 312.846 378.384 310.47L381.948 311.442C381.138 313.44 379.842 315.222 378.06 316.788C376.332 318.354 374.28 319.596 371.904 320.514C369.582 321.378 367.125 321.81 364.533 321.81ZM347.766 298.401H381.057C380.841 295.107 379.95 292.191 378.384 289.653C376.872 287.061 374.901 285.063 372.471 283.659C370.041 282.201 367.341 281.472 364.371 281.472C361.401 281.472 358.701 282.201 356.271 283.659C353.841 285.117 351.87 287.142 350.358 289.734C348.846 292.272 347.982 295.161 347.766 298.401Z" 
fill="white"/>
<path opacity="0.3" d="M151.892 385.81C148.274 385.81 145.034 384.865 142.172 382.975C139.364 381.031 137.096 378.682 135.368 375.928V402.253H131.318V342.88H135.044V351.304C136.772 348.604 139.067 346.417 141.929 344.743C144.791 343.015 147.815 342.151 151.001 342.151C153.917 342.151 156.59 342.772 159.02 344.014C161.504 345.202 163.637 346.849 165.419 348.955C167.255 351.007 168.659 353.329 169.631 355.921C170.657 358.513 171.17 361.213 171.17 364.021C171.17 367.909 170.36 371.527 168.74 374.875C167.12 378.169 164.852 380.815 161.936 382.813C159.074 384.811 155.726 385.81 151.892 385.81ZM150.92 382.165C154.16 382.165 156.995 381.301 159.425 379.573C161.855 377.791 163.718 375.523 165.014 372.769C166.364 369.961 167.039 367.045 167.039 364.021C167.039 360.781 166.283 357.784 164.771 355.03C163.313 352.276 161.288 350.062 158.696 348.388C156.158 346.66 153.323 345.796 150.191 345.796C148.733 345.796 147.167 346.12 145.493 346.768C143.873 347.362 142.307 348.199 140.795 349.279C139.337 350.305 138.095 351.493 137.069 352.843C136.097 354.193 135.53 355.624 135.368 357.136V370.987C136.286 373.039 137.528 374.929 139.094 376.657C140.714 378.331 142.523 379.681 144.521 380.707C146.573 381.679 148.706 382.165 150.92 382.165ZM177.432 372.85C177.432 370.366 178.161 368.179 179.619 366.289C181.131 364.399 183.21 362.941 185.856 361.915C188.556 360.835 191.634 360.295 195.09 360.295C197.25 360.295 199.491 360.484 201.813 360.862C204.189 361.24 206.268 361.753 208.05 362.401V358.432C208.05 354.544 206.916 351.439 204.648 349.117C202.38 346.795 199.302 345.634 195.414 345.634C193.308 345.634 191.121 346.066 188.853 346.93C186.585 347.794 184.263 349.036 181.887 350.656L180.186 347.74C185.694 344.014 190.905 342.151 195.819 342.151C200.787 342.151 204.729 343.636 207.645 346.606C210.615 349.576 212.1 353.626 212.1 358.756V379.654C212.1 380.95 212.694 381.625 213.882 381.679V385C212.856 385.108 212.181 385.135 211.857 385.081C210.831 384.973 210.021 384.541 209.427 383.785C208.887 383.029 208.59 382.246 208.536 381.436V378.115C206.592 380.545 204.081 382.435 201.003 383.785C197.979 385.135 194.793 385.81 191.445 385.81C188.799 385.81 186.396 385.243 184.236 384.109C182.13 382.921 180.456 381.355 179.214 379.411C178.026 377.467 177.432 375.28 177.432 372.85ZM206.43 376.333C207.51 374.983 208.05 373.714 208.05 372.526V365.56C204.162 364.048 199.977 363.292 195.495 363.292C191.229 363.292 187.8 364.156 185.208 365.884C182.616 367.558 181.32 369.799 181.32 372.607C181.32 374.389 181.779 376.036 182.697 377.548C183.615 379.06 184.884 380.275 186.504 381.193C188.178 382.111 190.095 382.57 192.255 382.57C195.279 382.57 198.06 382.003 200.598 380.869C203.136 379.681 205.08 378.169 206.43 376.333ZM237.705 385.81C234.357 385.81 231.252 385.243 228.39 384.109C225.528 382.975 223.017 381.247 220.857 378.925L222.72 376.09C224.988 378.304 227.31 379.924 229.686 380.95C232.116 381.922 234.735 382.408 237.543 382.408C241.107 382.408 244.023 381.652 246.291 380.14C248.559 378.628 249.693 376.522 249.693 373.822C249.693 371.986 249.153 370.582 248.073 369.61C247.047 368.638 245.535 367.828 243.537 367.18C241.593 366.532 239.217 365.857 236.409 365.155C233.547 364.399 231.144 363.616 229.2 362.806C227.256 361.996 225.771 360.943 224.745 359.647C223.773 358.351 223.287 356.596 223.287 354.382C223.287 351.628 223.962 349.36 225.312 347.578C226.716 345.742 228.579 344.392 230.901 343.528C233.277 342.61 235.896 342.151 238.758 342.151C242.052 342.151 244.914 342.691 247.344 343.771C249.828 344.851 251.718 346.282 253.014 348.064L250.827 350.656C249.531 348.982 247.776 347.713 245.562 346.849C243.348 345.985 240.972 345.553 238.434 345.553C236.436 345.553 234.573 345.823 232.845 346.363C231.171 346.903 229.794 347.794 228.714 349.036C227.688 350.224 227.175 351.844 227.175 353.896C227.175 355.516 227.553 356.785 228.309 357.703C229.065 358.621 230.226 359.377 231.792 359.971C233.358 360.511 235.329 361.105 237.705 361.753C240.999 362.563 243.834 363.4 246.21 364.264C248.586 365.128 250.422 366.262 251.718 367.666C253.014 369.016 253.662 370.933 253.662 373.417C253.662 377.251 252.204 380.275 249.288 382.489C246.372 384.703 242.511 385.81 237.705 385.81ZM276.464 385.81C273.116 385.81 270.011 385.243 267.149 384.109C264.287 382.975 261.776 381.247 259.616 378.925L261.479 376.09C263.747 378.304 266.069 379.924 268.445 380.95C270.875 381.922 273.494 382.408 276.302 382.408C279.866 382.408 282.782 381.652 285.05 380.14C287.318 378.628 288.452 376.522 288.452 373.822C288.452 371.986 287.912 370.582 286.832 369.61C285.806 368.638 284.294 367.828 282.296 367.18C280.352 366.532 277.976 365.857 275.168 365.155C272.306 364.399 269.903 363.616 267.959 362.806C266.015 361.996 264.53 360.943 263.504 359.647C262.532 358.351 262.046 356.596 262.046 354.382C262.046 351.628 262.721 349.36 264.071 347.578C265.475 345.742 267.338 344.392 269.66 343.528C272.036 342.61 274.655 342.151 277.517 342.151C280.811 342.151 283.673 342.691 286.103 343.771C288.587 344.851 290.477 346.282 291.773 348.064L289.586 350.656C288.29 348.982 286.535 347.713 284.321 346.849C282.107 345.985 279.731 345.553 277.193 345.553C275.195 345.553 273.332 345.823 271.604 346.363C269.93 346.903 268.553 347.794 267.473 349.036C266.447 350.224 265.934 351.844 265.934 353.896C265.934 355.516 266.312 356.785 267.068 357.703C267.824 358.621 268.985 359.377 270.551 359.971C272.117 360.511 274.088 361.105 276.464 361.753C279.758 362.563 282.593 363.4 284.969 364.264C287.345 365.128 289.181 366.262 290.477 367.666C291.773 369.016 292.421 370.933 292.421 373.417C292.421 377.251 290.963 380.275 288.047 382.489C285.131 384.703 281.27 385.81 276.464 385.81ZM301.94 333.322V325.87H305.99V333.322H301.94ZM301.94 385V342.88H305.99V385H301.94ZM336.368 385.81C332.426 385.81 328.889 384.811 325.757 382.813C322.679 380.815 320.249 378.169 318.467 374.875C316.685 371.581 315.794 367.963 315.794 364.021C315.794 361.051 316.307 358.27 317.333 355.678C318.359 353.032 319.817 350.71 321.707 348.712C323.597 346.66 325.784 345.067 328.268 343.933C330.752 342.745 333.452 342.151 336.368 342.151C339.284 342.151 341.984 342.745 344.468 343.933C346.952 345.067 349.112 346.66 350.948 348.712C352.838 350.71 354.296 353.032 355.322 355.678C356.402 358.27 356.942 361.051 356.942 364.021C356.942 367.963 356.024 371.581 354.188 374.875C352.406 378.169 349.949 380.815 346.817 382.813C343.739 384.811 340.256 385.81 336.368 385.81ZM319.844 364.183C319.844 367.477 320.573 370.501 322.031 373.255C323.543 375.955 325.541 378.115 328.025 379.735C330.509 381.355 333.263 382.165 336.287 382.165C339.311 382.165 342.065 381.355 344.549 379.735C347.087 378.061 349.085 375.847 350.543 373.093C352.055 370.339 352.811 367.288 352.811 363.94C352.811 360.646 352.055 357.622 350.543 354.868C349.085 352.114 347.087 349.927 344.549 348.307C342.065 346.633 339.338 345.796 336.368 345.796C333.344 345.796 330.59 346.633 328.106 348.307C325.622 349.981 323.624 352.222 322.112 355.03C320.6 357.784 319.844 360.835 319.844 364.183ZM401.07 385H397.02V361.51C397.02 356.11 396.237 352.168 394.671 349.684C393.105 347.146 390.675 345.877 387.381 345.877C385.005 345.877 382.683 346.444 380.415 347.578C378.147 348.712 376.149 350.278 374.421 352.276C372.693 354.22 371.451 356.434 370.695 358.918V385H366.645V342.88H370.452V352.924C372.126 349.738 374.61 347.146 377.904 345.148C381.252 343.15 384.789 342.151 388.515 342.151C393.105 342.151 396.345 343.771 398.235 347.011C400.125 350.251 401.07 354.841 401.07 360.781V385Z" 
fill="white"/>
<path opacity="0.15" d="M151.892 449.81C148.274 449.81 145.034 448.865 142.172 446.975C139.364 445.031 137.096 442.682 135.368 439.928V466.253H131.318V406.88H135.044V415.304C136.772 412.604 139.067 410.417 141.929 408.743C144.791 407.015 147.815 406.151 151.001 406.151C153.917 406.151 156.59 406.772 159.02 408.014C161.504 409.202 163.637 410.849 165.419 412.955C167.255 415.007 168.659 417.329 169.631 419.921C170.657 422.513 171.17 425.213 171.17 428.021C171.17 431.909 170.36 435.527 168.74 438.875C167.12 442.169 164.852 444.815 161.936 446.813C159.074 448.811 155.726 449.81 151.892 449.81ZM150.92 446.165C154.16 446.165 156.995 445.301 159.425 443.573C161.855 441.791 163.718 439.523 165.014 436.769C166.364 433.961 167.039 431.045 167.039 428.021C167.039 424.781 166.283 421.784 164.771 419.03C163.313 416.276 161.288 414.062 158.696 412.388C156.158 410.66 153.323 409.796 150.191 409.796C148.733 409.796 147.167 410.12 145.493 410.768C143.873 411.362 142.307 412.199 140.795 413.279C139.337 414.305 138.095 415.493 137.069 416.843C136.097 418.193 135.53 419.624 135.368 421.136V434.987C136.286 437.039 137.528 438.929 139.094 440.657C140.714 442.331 142.523 443.681 144.521 444.707C146.573 445.679 148.706 446.165 150.92 446.165ZM198.573 449.81C194.631 449.81 191.094 448.811 187.962 446.813C184.884 444.815 182.454 442.169 180.672 438.875C178.89 435.581 177.999 431.963 177.999 428.021C177.999 425.051 178.512 422.27 179.538 419.678C180.564 417.032 182.022 414.71 183.912 412.712C185.802 410.66 187.989 409.067 190.473 407.933C192.957 406.745 195.657 406.151 198.573 406.151C201.489 406.151 204.189 406.745 206.673 407.933C209.157 409.067 211.317 410.66 213.153 412.712C215.043 414.71 216.501 417.032 217.527 419.678C218.607 422.27 219.147 425.051 219.147 428.021C219.147 431.963 218.229 435.581 216.393 438.875C214.611 442.169 212.154 444.815 209.022 446.813C205.944 448.811 202.461 449.81 198.573 449.81ZM182.049 428.183C182.049 431.477 182.778 434.501 184.236 437.255C185.748 439.955 187.746 442.115 190.23 443.735C192.714 445.355 195.468 446.165 198.492 446.165C201.516 446.165 204.27 445.355 206.754 443.735C209.292 442.061 211.29 439.847 212.748 437.093C214.26 434.339 215.016 431.288 215.016 427.94C215.016 424.646 214.26 421.622 212.748 418.868C211.29 416.114 209.292 413.927 206.754 412.307C204.27 410.633 201.543 409.796 198.573 409.796C195.549 409.796 192.795 410.633 190.311 412.307C187.827 413.981 185.829 416.222 184.317 419.03C182.805 421.784 182.049 424.835 182.049 428.183ZM280.726 406.88H284.776L266.551 449H262.987L253.672 427.049L244.357 449H240.793L222.568 406.88H226.537L242.656 444.545L251.323 423.971L244.276 406.961H247.921L253.672 420.812L259.342 406.961H263.068L256.021 423.971L264.688 444.545L280.726 406.88ZM309.004 449.81C305.062 449.81 301.498 448.811 298.312 446.813C295.18 444.815 292.696 442.142 290.86 438.794C289.078 435.446 288.187 431.774 288.187 427.778C288.187 423.836 289.078 420.245 290.86 417.005C292.642 413.711 295.099 411.092 298.231 409.148C301.363 407.15 304.873 406.151 308.761 406.151C312.757 406.151 316.294 407.15 319.372 409.148C322.504 411.092 324.961 413.711 326.743 417.005C328.525 420.299 329.416 423.89 329.416 427.778C329.416 428.426 329.389 429.02 329.335 429.56H292.399C292.615 432.8 293.506 435.716 295.072 438.308C296.638 440.846 298.636 442.871 301.066 444.383C303.55 445.841 306.25 446.57 309.166 446.57C312.082 446.57 314.836 445.814 317.428 444.302C320.02 442.79 321.829 440.846 322.855 438.47L326.419 439.442C325.609 441.44 324.313 443.222 322.531 444.788C320.803 446.354 318.751 447.596 316.375 448.514C314.053 449.378 311.596 449.81 309.004 449.81ZM292.237 426.401H325.528C325.312 423.107 324.421 420.191 322.855 417.653C321.343 415.061 319.372 413.063 316.942 411.659C314.512 410.201 311.812 409.472 308.842 409.472C305.872 409.472 303.172 410.201 300.742 411.659C298.312 413.117 296.341 415.142 294.829 417.734C293.317 420.272 292.453 423.161 292.237 426.401ZM358.253 410.525C354.473 410.633 351.152 411.767 348.29 413.927C345.482 416.033 343.511 418.949 342.377 422.675V449H338.327V406.88H342.215V417.248C343.673 414.332 345.617 411.929 348.047 410.039C350.477 408.149 353.042 407.069 355.742 406.799C356.282 406.799 356.741 406.799 357.119 406.799C357.551 406.745 357.929 406.718 358.253 406.718V410.525Z" 
fill="white"/>
<path opacity="0.06" d="M151.892 513.81C148.274 513.81 145.034 512.865 142.172 510.975C139.364 509.031 137.096 506.682 135.368 503.928V530.253H131.318V470.88H135.044V479.304C136.772 476.604 139.067 474.417 141.929 472.743C144.791 471.015 147.815 470.151 151.001 470.151C153.917 470.151 156.59 470.772 159.02 472.014C161.504 473.202 163.637 474.849 165.419 476.955C167.255 479.007 168.659 481.329 169.631 483.921C170.657 486.513 171.17 489.213 171.17 492.021C171.17 495.909 170.36 499.527 168.74 502.875C167.12 506.169 164.852 508.815 161.936 510.813C159.074 512.811 155.726 513.81 151.892 513.81ZM150.92 510.165C154.16 510.165 156.995 509.301 159.425 507.573C161.855 505.791 163.718 503.523 165.014 500.769C166.364 497.961 167.039 495.045 167.039 492.021C167.039 488.781 166.283 485.784 164.771 483.03C163.313 480.276 161.288 478.062 158.696 476.388C156.158 474.66 153.323 473.796 150.191 473.796C148.733 473.796 147.167 474.12 145.493 474.768C143.873 475.362 142.307 476.199 140.795 477.279C139.337 478.305 138.095 479.493 137.069 480.843C136.097 482.193 135.53 483.624 135.368 485.136V498.987C136.286 501.039 137.528 502.929 139.094 504.657C140.714 506.331 142.523 507.681 144.521 508.707C146.573 509.679 148.706 510.165 150.92 510.165ZM198.816 513.81C194.874 513.81 191.31 512.811 188.124 510.813C184.992 508.815 182.508 506.142 180.672 502.794C178.89 499.446 177.999 495.774 177.999 491.778C177.999 487.836 178.89 484.245 180.672 481.005C182.454 477.711 184.911 475.092 188.043 473.148C191.175 471.15 194.685 470.151 198.573 470.151C202.569 470.151 206.106 471.15 209.184 473.148C212.316 475.092 214.773 477.711 216.555 481.005C218.337 484.299 219.228 487.89 219.228 491.778C219.228 492.426 219.201 493.02 219.147 493.56H182.211C182.427 496.8 183.318 499.716 184.884 502.308C186.45 504.846 188.448 506.871 190.878 508.383C193.362 509.841 196.062 510.57 198.978 510.57C201.894 510.57 204.648 509.814 207.24 508.302C209.832 506.79 211.641 504.846 212.667 502.47L216.231 503.442C215.421 505.44 214.125 507.222 212.343 508.788C210.615 510.354 208.563 511.596 206.187 512.514C203.865 513.378 201.408 513.81 198.816 513.81ZM182.049 490.401H215.34C215.124 487.107 214.233 484.191 212.667 481.653C211.155 479.061 209.184 477.063 206.754 475.659C204.324 474.201 201.624 473.472 198.654 473.472C195.684 473.472 192.984 474.201 190.554 475.659C188.124 477.117 186.153 479.142 184.641 481.734C183.129 484.272 182.265 487.161 182.049 490.401ZM248.064 474.525C244.284 474.633 240.963 475.767 238.101 477.927C235.293 480.033 233.322 482.949 232.188 486.675V513H228.138V470.88H232.026V481.248C233.484 478.332 235.428 475.929 237.858 474.039C240.288 472.149 242.853 471.069 245.553 470.799C246.093 470.799 246.552 470.799 246.93 470.799C247.362 470.745 247.74 470.718 248.064 470.718V474.525ZM257.608 513V474.201H251.695V470.88H257.608V469.503C257.608 464.373 258.661 460.35 260.767 457.434C262.927 454.518 265.843 453.06 269.515 453.06C271.135 453.06 272.701 453.303 274.213 453.789C275.725 454.275 276.967 454.923 277.939 455.733L276.481 458.649C274.861 457.299 272.782 456.624 270.244 456.624C267.49 456.624 265.357 457.731 263.845 459.945C262.387 462.105 261.658 465.264 261.658 469.422V470.88H273.646V474.201H261.658V513H257.608ZM297.851 513.81C293.909 513.81 290.345 512.811 287.159 510.813C284.027 508.815 281.543 506.142 279.707 502.794C277.925 499.446 277.034 495.774 277.034 491.778C277.034 487.836 277.925 484.245 279.707 481.005C281.489 477.711 283.946 475.092 287.078 473.148C290.21 471.15 293.72 470.151 297.608 470.151C301.604 470.151 305.141 471.15 308.219 473.148C311.351 475.092 313.808 477.711 315.59 481.005C317.372 484.299 318.263 487.89 318.263 491.778C318.263 492.426 318.236 493.02 318.182 493.56H281.246C281.462 496.8 282.353 499.716 283.919 502.308C285.485 504.846 287.483 506.871 289.913 508.383C292.397 509.841 295.097 510.57 298.013 510.57C300.929 510.57 303.683 509.814 306.275 508.302C308.867 506.79 310.676 504.846 311.702 502.47L315.266 503.442C314.456 505.44 313.16 507.222 311.378 508.788C309.65 510.354 307.598 511.596 305.222 512.514C302.9 513.378 300.443 513.81 297.851 513.81ZM281.084 490.401H314.375C314.159 487.107 313.268 484.191 311.702 481.653C310.19 479.061 308.219 477.063 305.789 475.659C303.359 474.201 300.659 473.472 297.689 473.472C294.719 473.472 292.019 474.201 289.589 475.659C287.159 477.117 285.188 479.142 283.676 481.734C282.164 484.272 281.3 487.161 281.084 490.401ZM345.074 513.81C341.132 513.81 337.595 512.811 334.463 510.813C331.331 508.815 328.847 506.142 327.011 502.794C325.175 499.446 324.257 495.774 324.257 491.778C324.257 487.782 325.148 484.164 326.93 480.924C328.712 477.63 331.169 475.011 334.301 473.067C337.433 471.123 340.997 470.151 344.993 470.151C348.827 470.151 352.202 471.042 355.118 472.824C358.034 474.552 360.221 476.928 361.679 479.952L357.71 481.248C356.468 478.926 354.686 477.117 352.364 475.821C350.096 474.471 347.585 473.796 344.831 473.796C341.753 473.796 338.972 474.606 336.488 476.226C334.004 477.792 332.006 479.925 330.494 482.625C329.036 485.325 328.307 488.376 328.307 491.778C328.307 495.18 329.063 498.285 330.575 501.093C332.087 503.847 334.085 506.061 336.569 507.735C339.107 509.355 341.888 510.165 344.912 510.165C346.856 510.165 348.746 509.814 350.582 509.112C352.472 508.356 354.092 507.384 355.442 506.196C356.846 505.008 357.764 503.739 358.196 502.389L362.165 503.523C361.463 505.521 360.248 507.303 358.52 508.869C356.846 510.381 354.848 511.596 352.526 512.514C350.204 513.378 347.72 513.81 345.074 513.81ZM390.104 510.975C389.726 511.191 388.727 511.677 387.107 512.433C385.487 513.135 383.543 513.486 381.275 513.486C379.061 513.486 377.117 512.838 375.443 511.542C373.823 510.246 373.013 508.383 373.013 505.953V474.201H367.1V470.88H373.013V456.462H377.063V470.88H386.864V474.201H377.063V504.981C377.171 506.547 377.738 507.735 378.764 508.545C379.79 509.301 380.978 509.679 382.328 509.679C384.002 509.679 385.46 509.409 386.702 508.869C387.944 508.275 388.673 507.897 388.889 507.735L390.104 510.975ZM397.257 461.322V453.87H401.307V461.322H397.257ZM397.257 513V470.88H401.307V513H397.257ZM431.685 513.81C427.743 513.81 424.206 512.811 421.074 510.813C417.996 508.815 415.566 506.169 413.784 502.875C412.002 499.581 411.111 495.963 411.111 492.021C411.111 489.051 411.624 486.27 412.65 483.678C413.676 481.032 415.134 478.71 417.024 476.712C418.914 474.66 421.101 473.067 423.585 471.933C426.069 470.745 428.769 470.151 431.685 470.151C434.601 470.151 437.301 470.745 439.785 471.933C442.269 473.067 444.429 474.66 446.265 476.712C448.155 478.71 449.613 481.032 450.639 483.678C451.719 486.27 452.259 489.051 452.259 492.021C452.259 495.963 451.341 499.581 449.505 502.875C447.723 506.169 445.266 508.815 442.134 510.813C439.056 512.811 435.573 513.81 431.685 513.81ZM415.161 492.183C415.161 495.477 415.89 498.501 417.348 501.255C418.86 503.955 420.858 506.115 423.342 507.735C425.826 509.355 428.58 510.165 431.604 510.165C434.628 510.165 437.382 509.355 439.866 507.735C442.404 506.061 444.402 503.847 445.86 501.093C447.372 498.339 448.128 495.288 448.128 491.94C448.128 488.646 447.372 485.622 445.86 482.868C444.402 480.114 442.404 477.927 439.866 476.307C437.382 474.633 434.655 473.796 431.685 473.796C428.661 473.796 425.907 474.633 423.423 476.307C420.939 477.981 418.941 480.222 417.429 483.03C415.917 485.784 415.161 488.835 415.161 492.183ZM496.388 513H492.338V489.51C492.338 484.11 491.555 480.168 489.989 477.684C488.423 475.146 485.993 473.877 482.699 473.877C480.323 473.877 478.001 474.444 475.733 475.578C473.465 476.712 471.467 478.278 469.739 480.276C468.011 482.22 466.769 484.434 466.013 486.918V513H461.963V470.88H465.77V480.924C467.444 477.738 469.928 475.146 473.222 473.148C476.57 471.15 480.107 470.151 483.833 470.151C488.423 470.151 491.663 471.771 493.553 475.011C495.443 478.251 496.388 482.841 496.388 488.781V513Z" 
fill="white"/>
</svg>