<?xml version="1.0" encoding="utf-8"?>
<svg viewBox="516 1080.863 111.171 138.059" width="111.171" height="138.059" xmlns="http://www.w3.org/2000/svg">
  <g id="Page-1" transform="matrix(1, 0, 0, 1, 516, 1080)">
    <path d="M44.0848369,36.7446932 C43.5170831,36.9424012 42.9476062,37.1021217 42.3764062,37.2428484 C42.42896,37.2480286 42.4815138,37.2583888 42.5340677,37.2627056 C43.3094523,37.0036994 44.1709908,36.8310286 45.0325292,36.5720224 C44.9868677,36.388128 44.9360369,36.1904199 44.8895138,35.9978919 C44.7576985,36.3535938 44.4906215,36.6428174 44.0848369,36.7446932" id="Fill-1" fill="#FFFFFF"/>
    <path d="M39.3463754,27.5066323 C39.2602215,27.5066323 39.1740677,27.5929677 39.0879138,27.5929677 C35.5556062,28.5426571 32.0232985,29.3196758 28.4909908,30.1830298 L28.2325292,30.1830298 C28.5771446,31.2190547 29.0079138,32.3414149 29.5248369,33.3774398 C29.6971446,33.2911043 29.8694523,33.2047689 30.1279138,33.1184335 C33.7463754,32.3414149 37.5371446,32.2550795 41.0694523,31.3917255 C40.5525292,30.0094957 39.9494523,28.8016634 39.3463754,27.5066323" id="Fill-3" fill="#FFFFFF"/>
    <path d="M80.4419323,18.1825814 C80.0973169,18.6142584 79.4933785,18.7860658 78.8050092,18.5270596 C77.6850092,18.0953826 76.4779938,18.0953826 75.3588554,17.8372398 C75.1003938,17.7509043 74.9280862,17.6637056 74.7549169,17.4910348 C74.1527015,18.6142584 73.5496246,19.7366186 72.8603938,20.8589789 C75.4450092,21.807805 78.2010708,22.239482 80.9588554,22.7583578 C80.8727015,21.2043205 80.7003938,19.7366186 80.4419323,18.1825814" id="Fill-5" fill="#FFFFFF"/>
    <path d="M33.7463754,17.4912075 C33.6602215,17.6638783 33.40176,17.751077 33.1432985,17.8365491 C32.0232985,18.0100832 30.7309908,18.0955553 29.6971446,18.5272323 C29.0940677,18.7862385 28.4048369,18.6144311 28.0602215,18.182754 C27.80176,19.7367913 27.6294523,21.2044932 27.5432985,22.7585304 C30.3002215,22.2396547 33.0571446,21.8079776 35.64176,20.8582882 C35.0386831,19.7367913 34.3494523,18.6144311 33.7463754,17.4912075" id="Fill-7" fill="#FFFFFF"/>
    <path d="M78.9771446,33.291277 C79.5802215,32.2552522 79.9248369,31.2192273 80.2694523,30.0968671 L80.0109908,30.0968671 C76.4786831,29.233513 72.9463754,28.4556311 69.4140677,27.506805 C69.3279138,27.506805 69.24176,27.4196062 69.1556062,27.4196062 C68.4663754,28.7146373 67.9494523,30.0096683 67.4325292,31.3046994 C68.5542523,31.5991031 69.6854523,31.8063081 70.8183754,31.9781155 C71.1810831,31.9176807 71.5412062,31.9807056 71.8384369,32.1266124 C74.0232985,32.4201528 76.2141908,32.6195876 78.3740677,33.0314075 C78.6325292,33.0314075 78.8048369,33.1186062 78.9771446,33.291277" id="Fill-9" fill="#FFFFFF"/>
    <g id="Group-13" transform="translate(24.984615, 0.785652)">
      <mask id="mask-38" fill="white">
        <polygon points="0.106 0.078 19.905 0.078 19.905 37.043 0.106 37.043 0.106 0.078"/>
      </mask>
      <g id="Clip-12"/>
      <path d="M4.53987692,32.5916149 C4.02295385,31.5555901 3.59218462,30.4332298 3.24756923,29.397205 L3.50689231,29.397205 C7.03833846,28.5338509 10.5706462,27.7568323 14.1038154,26.8071429 C14.1891077,26.8071429 14.2761231,26.7208075 14.3614154,26.7208075 C14.9653538,28.0158385 15.5684308,29.2245342 16.0844923,30.6059006 C12.5530462,31.4692547 8.76141538,31.5555901 5.14295385,32.3326087 C4.88449231,32.4189441 4.71218462,32.5052795 4.53987692,32.5916149 M3.07612308,17.3965839 C3.41987692,17.8282609 4.10910769,18.0009317 4.71218462,17.7419255 C5.74603077,17.3102484 7.03833846,17.223913 8.15833846,17.0512422 C8.4168,16.9649068 8.67612308,16.8785714 8.76141538,16.7059006 C9.36535385,17.8282609 10.0537231,18.9506211 10.6576615,20.0729814 C8.07304615,21.0226708 5.31526154,21.4543478 2.55833846,21.9723602 C2.64535385,20.418323 2.8168,18.9506211 3.07612308,17.3965839 M11.4321846,35.2680124 C13.4473231,35.7730745 15.3806154,36.2720932 17.3914462,36.4577143 C17.9626462,36.3161242 18.5321231,36.1572671 19.0998769,35.9586957 C19.5056615,35.8568199 19.7736,35.5675963 19.9045538,35.2118944 C19.7744615,34.6809317 19.6348923,34.1344286 19.4453538,33.6276398 C19.3333538,33.347913 19.4057231,33.0543727 19.5728615,32.7996832 C16.5643692,21.7651553 6.60412308,13.2015466 6.52227692,1.33819876 C6.52227692,-0.0431677019 4.28141538,-0.47484472 4.02295385,0.992857143 C2.04227692,12.3891304 -3.55772308,25.771118 3.76535385,36.1313665 C3.52326154,36.3739689 3.43796923,36.708087 3.45778462,37.0430683 C5.56941538,36.8177329 7.68190769,36.725354 9.79612308,36.5630435 C9.62295385,35.7860248 10.3992,35.0090062 11.4321846,35.2680124" id="Fill-11" fill="#FFFFFF" mask="url(#mask-38)"/>
    </g>
    <path d="M74.7552615,17.4912075 C74.9275692,17.6638783 75.0998769,17.751077 75.3583385,17.8365491 C76.4783385,18.0955553 77.6844923,18.0955553 78.8044923,18.5272323 C79.4937231,18.7862385 80.0968,18.6144311 80.4422769,18.182754 C80.6998769,19.7367913 80.8730462,21.2044932 80.9583385,22.7585304 C78.2014154,22.2396547 75.4453538,21.8079776 72.8607385,20.8582882 C73.5499692,19.7367913 74.1530462,18.6144311 74.7552615,17.4912075 M65.1068923,32.2554248 C65.1921846,32.6871019 65.3653538,33.1187789 65.4506462,33.5504559 C67.1737231,33.0315801 68.8968,32.7725739 70.4475692,32.0818907 C70.5690462,32.0318161 70.6931077,31.999872 70.8188923,31.9782882 C69.6851077,31.8064807 68.5547692,31.5992758 67.4321846,31.304872 C67.9499692,30.009841 68.4660308,28.7148099 69.1552615,27.4197789 C69.2422769,27.4197789 69.3275692,27.5069776 69.4145846,27.5069776 C72.9460308,28.4558037 76.4783385,29.2336857 80.0115077,30.0970398 L80.2691077,30.0970398 C79.9244923,31.2185366 79.5807385,32.2554248 78.9768,33.2914497 C78.8044923,33.1187789 78.6321846,33.0315801 78.3737231,33.0315801 C76.2138462,32.6188969 74.0229538,32.4203255 71.8380923,32.1267851 C72.3136615,32.3616174 72.6169231,32.8140149 72.4299692,33.3769217 C72.2576615,34.1548037 72.1706462,35.0181578 72.0844923,35.794313 C73.4629538,35.794313 74.8422769,35.8815118 76.2198769,35.5353068 C77.1684308,35.362636 77.8576615,35.9669839 77.9429538,36.6576671 C78.1152615,37.4355491 78.1152615,38.0398969 78.1152615,38.7305801 C78.5563692,38.7987851 79.0147077,38.8833938 79.4721846,38.9680025 C80.1820923,38.574313 80.4104,37.4899404 79.8383385,36.9166733 C87.1614154,26.6436236 81.5614154,13.1744373 79.5807385,1.77902733 C79.3222769,0.311325466 77.0814154,0.743002484 77.0814154,2.12350559 C77.0038769,13.2884 68.1774154,21.5299776 64.6296,31.6588472 C64.8673846,31.7935304 65.0526154,31.9869217 65.1068923,32.2554248" id="Fill-14" fill="#FFFFFF"/>
    <path d="M33.1431262,103.999455 C33.2301415,103.999455 33.3154338,104.086653 33.3154338,104.086653 C34.7800492,104.172125 36.1585108,103.999455 37.5378338,103.999455 C36.58928,102.445417 35.5554338,100.977716 34.6938954,99.5100137 C34.09168,100.977716 33.6609108,102.531753 33.1431262,103.999455" id="Fill-16" fill="#FFFFFF"/>
    <path d="M70.8186338,31.9785472 C71.1589415,32.0303484 71.4983877,32.0812863 71.8386954,32.1270441 C71.5414646,31.9811373 71.1813415,31.9181124 70.8186338,31.9785472" id="Fill-18" fill="#FFFFFF"/>
    <path d="M81.1309908,96.9197789 C79.32176,98.9918286 78.1156062,101.40922 76.4786831,103.567605 C79.5802215,103.482133 82.68176,103.394934 85.6109908,102.876922 C84.4048369,100.718537 83.0263754,98.5601516 81.1309908,96.9197789" id="Fill-20" fill="#FFFFFF"/>
    <path d="M55.8014154,98.9061839 C54.8537231,100.373022 53.9921846,101.927923 53.0453538,103.394761 L60.3684308,103.394761 C58.6453538,102.014258 57.1807385,100.545693 55.8014154,98.9061839" id="Fill-22" fill="#FFFFFF"/>
    <path d="M40.8969723,103.740621 C43.5686031,103.654286 46.1532185,103.56795 48.7378338,103.56795 C47.0147569,101.927578 45.6354338,99.9418634 44.0846646,98.1288199 C43.1378338,100.028199 41.8455262,101.841242 40.8969723,103.740621" id="Fill-24" fill="#FFFFFF"/>
    <path d="M68.2079138,97.4383093 C66.8294523,99.4240236 65.5371446,101.496073 64.0725292,103.394589 L64.9340677,103.394589 C67.7771446,103.394589 70.6202215,103.481788 73.4632985,103.481788 C71.3094523,101.841415 69.6725292,99.6830298 68.2079138,97.4383093" id="Fill-26" fill="#FFFFFF"/>
    <g id="Group-30" transform="translate(0.000000, 20.642795)">
      <mask id="mask-40" fill="white">
        <polygon points="111.171 118.279 111.171 0.835 0 0.835 0 118.279 111.171 118.279"/>
      </mask>
      <g id="Clip-29"/>
      <path d="M97.7585108,26.8938236 C96.8108185,28.1888547 94.4846646,26.980159 95.5185108,25.5987925 C97.3277415,23.0950658 98.1031262,19.8997925 97.5862031,16.8780534 C95.0877415,18.6919602 92.6762954,20.5050037 90.2631262,22.3171839 C88.9708185,23.3532087 87.6785108,21.0221528 88.9708185,20.0733267 C91.9000492,17.9149416 94.8301415,15.6702211 97.7585108,13.5981714 C98.5338954,13.080159 99.3954338,13.6836435 99.6538954,14.3751901 C101.118511,18.4320907 100.343126,23.4404075 97.7585108,26.8938236 L97.7585108,26.8938236 Z M96.6385108,61.3407863 C96.5532185,62.0314696 96.1224492,62.6358174 95.3462031,62.6358174 C94.7431262,62.6358174 93.9686031,62.0314696 94.0538954,61.3407863 C94.2262031,60.3047615 94.2262031,59.3559354 94.2262031,58.3190472 C94.2262031,56.6795379 96.8108185,56.6795379 96.8108185,58.3190472 C96.8108185,59.3559354 96.8108185,60.3047615 96.6385108,61.3407863 L96.6385108,61.3407863 Z M88.8846646,59.9602832 C88.8846646,58.3190472 91.46928,58.3190472 91.46928,59.9602832 C91.46928,61.1681155 91.5554338,62.2913391 91.6415877,63.5863702 C91.7277415,64.2770534 90.9532185,64.8814012 90.34928,64.8814012 C89.5738954,64.8814012 89.1431262,64.2770534 89.0569723,63.5863702 C88.8846646,62.3776745 88.8846646,61.1681155 88.8846646,59.9602832 L88.8846646,59.9602832 Z M89.4877415,84.0469975 C89.4015877,84.1341963 89.3154338,84.2196683 89.1431262,84.2196683 C81.6477415,85.9463764 73.9800492,85.3420286 66.3993723,85.3420286 C57.0938954,85.3420286 47.8762954,85.4292273 38.5708185,85.7737056 L38.3993723,85.7737056 C35.8147569,85.8609043 33.5738954,86.2925814 30.98928,85.6882335 C30.9031262,85.6882335 30.7308185,85.6018981 30.6455262,85.5146994 C26.7686031,84.8248795 23.8385108,81.8886124 22.6323569,78.090718 C22.1154338,76.5366807 24.6147569,75.8451342 25.1308185,77.4000348 C25.9923569,80.0764323 27.8877415,82.148482 30.4723569,82.8391652 C31.2477415,80.2491031 32.10928,77.744513 33.0569723,75.2416497 C33.4015877,74.2910969 34.8662031,73.7739478 35.3839877,74.8963081 C36.3308185,77.0546932 37.70928,78.8668733 38.9154338,80.8534509 C40.1224492,78.6950658 41.5000492,76.7084882 42.4477415,74.4646311 C42.7923569,73.6867491 43.9993723,73.6867491 44.5154338,74.2056248 C46.8415877,76.3640099 48.3070646,79.2985503 50.8046646,81.285128 C52.0969723,79.2985503 53.2169723,77.227364 54.5954338,75.3279851 C55.1993723,74.5501031 56.2323569,74.4646311 56.8354338,75.3279851 C58.3000492,77.5718422 60.10928,79.2130783 62.1769723,80.8534509 C63.9862031,78.4351963 65.5378338,75.8451342 67.3462031,73.5149416 C67.94928,72.823395 68.9839877,73.1696 69.4147569,73.7739478 C70.9646646,76.3640099 72.6015877,78.8668733 74.9277415,80.6807801 C76.6508185,78.2633888 77.9431262,75.586128 80.0969723,73.5149416 C80.4415877,73.1696 81.1308185,72.9960658 81.6477415,73.3422708 C84.6631262,75.5006559 86.5585108,78.522395 88.2815877,81.716805 C91.0385108,81.1124571 93.4508185,78.954072 93.3646646,76.017805 C93.2785108,74.3782957 95.8631262,74.3782957 95.94928,76.017805 C96.0354338,79.8174261 93.1923569,82.9246373 89.4877415,84.0469975 L89.4877415,84.0469975 Z M90.7800492,103.386991 C90.7800492,102.09196 90.5224492,100.882401 90.09168,99.6745689 C89.5738954,98.1205317 92.0723569,97.4289851 92.58928,98.9838857 C93.1070646,100.450724 93.3646646,101.918426 93.3646646,103.386991 C93.3646646,105.027364 90.7800492,105.027364 90.7800492,103.386991 L90.7800492,103.386991 Z M85.7839877,98.2923391 C85.1800492,98.6385441 84.3185108,98.4650099 83.9738954,97.8606621 C83.4569723,96.911836 83.1123569,95.8749478 82.9400492,94.838923 C82.7686031,94.1482398 83.0262031,93.4584199 83.8015877,93.2848857 C84.4046646,93.1122149 85.2662031,93.4584199 85.3532185,94.1482398 C85.4385108,95.0115938 85.6969723,95.7894758 86.0415877,96.5656311 C86.3000492,97.1699789 86.2147569,97.9478609 85.7839877,98.2923391 L85.7839877,98.2923391 Z M75.5308185,105.630848 C74.9277415,105.803519 74.0662031,105.459041 73.9800492,104.767494 C73.8938954,103.991339 73.8077415,103.127985 73.7224492,102.350103 C73.54928,101.660283 73.8077415,100.9696 74.5839877,100.796929 C75.1862031,100.623395 76.0477415,100.9696 76.1338954,101.660283 C76.2200492,102.437302 76.2200492,103.386991 76.3923569,104.076811 C76.4785108,104.767494 76.2200492,105.459041 75.5308185,105.630848 L75.5308185,105.630848 Z M60.4538954,101.745755 C59.6785108,101.745755 59.2477415,101.142271 59.1615877,100.450724 C59.0762954,99.2428919 58.9031262,98.0333329 58.9031262,96.7383019 C58.9031262,95.0987925 61.4877415,95.0987925 61.4877415,96.7383019 C61.4877415,98.0333329 61.6609108,99.2428919 61.7462031,100.450724 C61.8323569,101.142271 61.0569723,101.745755 60.4538954,101.745755 L60.4538954,101.745755 Z M41.2415877,108.308109 C41.2415877,109.947619 38.6569723,109.947619 38.6569723,108.308109 L38.6569723,106.581401 C38.6569723,104.854693 41.2415877,104.854693 41.2415877,106.581401 L41.2415877,108.308109 Z M34.6938954,98.896687 C34.6938954,97.8606621 34.6938954,96.7383019 34.5224492,95.616805 C34.4354338,94.9261217 35.2108185,94.3217739 35.8147569,94.3217739 C36.58928,94.3217739 37.0200492,94.9261217 37.1070646,95.616805 C37.1923569,96.7383019 37.1923569,97.7751901 37.2785108,98.896687 C37.2785108,100.537923 34.6938954,100.537923 34.6938954,98.896687 L34.6938954,98.896687 Z M28.49168,105.113699 C28.49168,106.754072 25.9070646,106.754072 25.9070646,105.113699 L25.9070646,102.350103 C25.9070646,100.710594 28.49168,100.710594 28.49168,102.350103 L28.49168,105.113699 Z M21.5123569,54.6929602 C20.7378338,54.6929602 20.3070646,54.0894758 20.2200492,53.3979292 C20.1338954,52.0174261 19.9615877,50.6360596 19.9615877,49.2538298 C19.9615877,47.6143205 22.5462031,47.6143205 22.5462031,49.2538298 C22.6323569,50.6360596 22.7185108,52.1028981 22.8046646,53.3979292 C22.89168,54.0894758 22.2015877,54.6929602 21.5123569,54.6929602 L21.5123569,54.6929602 Z M24.1839877,46.2320907 C24.8723569,45.9739478 25.5615877,46.4056248 25.7338954,47.0954447 C25.9070646,47.6143205 25.9070646,48.217805 25.9923569,48.995687 C25.9923569,50.6360596 23.4077415,50.6360596 23.4077415,48.995687 L23.4077415,48.3050037 L23.4077415,48.1323329 L23.4077415,48.0459975 C23.4077415,47.9587988 23.3224492,47.8733267 23.3224492,47.786128 C23.0631262,47.1826435 23.4938954,46.4056248 24.1839877,46.2320907 L24.1839877,46.2320907 Z M34.34928,64.5360596 C34.34928,65.3130783 34.34928,66.1764323 34.4354338,66.9525876 C34.6077415,67.6432708 34.2631262,68.3348174 33.4877415,68.5066248 C32.8846646,68.6792957 32.0231262,68.3348174 31.9378338,67.6432708 C31.7646646,66.6081093 31.7646646,65.5720845 31.7646646,64.5360596 C31.7646646,62.8948236 34.34928,62.8948236 34.34928,64.5360596 L34.34928,64.5360596 Z M36.5031262,24.7354385 C36.8477415,23.0950658 39.3462031,23.7848857 39.0015877,25.4261217 C38.9154338,25.8577988 38.9154338,26.2894758 38.9154338,26.7211528 C39.5185108,25.338923 41.7585108,26.0304696 41.2415877,27.5845068 C40.9839877,28.4478609 41.06928,29.3112149 41.1554338,30.260041 C41.2415877,30.9507242 40.4662031,31.555072 39.8631262,31.555072 C39.0877415,31.555072 38.6569723,30.9507242 38.5708185,30.260041 L38.5708185,29.828364 C37.8815877,30.5190472 36.3308185,30.260041 36.3308185,28.9650099 C36.3308185,27.4973081 36.2455262,26.116805 36.5031262,24.7354385 L36.5031262,24.7354385 Z M47.1862031,44.1609043 C47.2723569,44.0737056 47.2723569,43.9882335 47.3585108,43.9010348 C48.0477415,43.1248795 49.0815877,43.4693578 49.5993723,44.1609043 C49.6846646,44.2472398 49.6846646,44.3327118 49.7708185,44.4199106 C49.8569723,44.5053826 49.9431262,44.5053826 50.0301415,44.5925814 C50.5462031,44.9370596 50.7185108,45.4559354 50.6323569,45.9739478 C51.0631262,47.0954447 51.14928,48.3904758 50.8046646,49.6000348 C50.7185108,49.7727056 50.7185108,49.944513 50.6323569,50.1171839 L50.6323569,50.290718 C50.6323569,50.4633888 50.5462031,50.6360596 50.3738954,50.8078671 C49.6846646,51.9310907 48.6508185,52.9662522 47.2723569,52.4491031 C43.9123569,51.3267429 44.6015877,45.3687366 47.1862031,44.1609043 L47.1862031,44.1609043 Z M56.49168,62.6358174 C57.0938954,62.3776745 57.86928,62.8093516 58.0415877,63.4991714 C58.1277415,64.1898547 58.2147569,64.8814012 58.3000492,65.5720845 C58.3000492,67.2115938 55.7154338,67.2115938 55.7154338,65.5720845 C55.7154338,65.0532087 55.7154338,64.6215317 55.6301415,64.1898547 C55.4569723,63.4991714 55.8015877,62.8093516 56.49168,62.6358174 L56.49168,62.6358174 Z M62.4354338,44.1609043 C62.5224492,44.0737056 62.5224492,43.9882335 62.6077415,43.9010348 C63.2969723,43.1248795 64.3308185,43.4693578 64.8477415,44.1609043 C64.9338954,44.2472398 64.9338954,44.3327118 65.0200492,44.4199106 C65.1070646,44.5053826 65.1923569,44.5053826 65.2785108,44.5925814 C65.7954338,44.9370596 65.9686031,45.4559354 65.8815877,45.9739478 C66.3123569,47.0954447 66.3993723,48.3904758 66.0538954,49.6000348 C65.9686031,49.7727056 65.9686031,49.944513 65.8815877,50.1171839 L65.8815877,50.290718 C65.8815877,50.4633888 65.7954338,50.6360596 65.6231262,50.8078671 C64.9338954,51.9310907 63.9000492,52.9662522 62.5224492,52.4491031 C59.1615877,51.3267429 59.8508185,45.3687366 62.4354338,44.1609043 L62.4354338,44.1609043 Z M73.9800492,29.4838857 C74.2385108,30.9507242 74.4108185,32.5056248 74.4108185,33.9724634 C74.4108185,35.6136994 71.8262031,35.6136994 71.8262031,33.9724634 C71.8262031,32.6774323 71.7400492,31.4696 71.4815877,30.1745689 C71.1378338,28.5333329 73.6354338,27.843513 73.9800492,29.4838857 L73.9800492,29.4838857 Z M79.5800492,44.5925814 C80.1839877,44.3327118 80.9585108,44.7643888 81.1308185,45.4559354 C81.2169723,46.2320907 81.3031262,47.0954447 81.38928,47.786128 C81.5615877,48.4776745 81.2169723,49.1683578 80.5277415,49.3410286 C79.9246646,49.512836 79.0631262,49.1683578 78.9769723,48.4776745 C78.89168,47.7006559 78.8046646,46.7509665 78.7185108,46.1466186 C78.5462031,45.4559354 78.89168,44.7643888 79.5800492,44.5925814 L79.5800492,44.5925814 Z M14.9646646,21.7136994 C13.3277415,19.8143205 11.69168,18.0004137 9.96860308,16.2737056 C9.79543385,17.9149416 9.96860308,19.4681155 10.4846646,21.0221528 C11.0015877,22.5770534 8.50312615,23.2677366 7.98620308,21.7136994 C7.21081846,19.4681155 7.12466462,17.1370596 7.55543385,14.8068671 C7.72774154,14.0298484 8.41697231,13.7708422 9.02004923,13.943513 C9.45081846,13.3391652 10.3123569,12.9929602 11.0015877,13.6836435 C12.9839877,15.6702211 14.9646646,17.7414075 16.7738954,19.8997925 C17.8077415,21.1093516 15.9993723,23.0087304 14.9646646,21.7136994 L14.9646646,21.7136994 Z M110.853895,60.9091093 C109.303126,59.5286062 107.924665,57.9745689 106.718511,56.3341963 C107.063126,55.9879913 107.14928,55.4708422 106.804665,55.0391652 C105.168603,53.2261217 103.445526,51.4994137 105.599372,49.081159 C106.030142,48.649482 105.770818,48.0459975 105.426203,47.7006559 C103.876295,46.1466186 103.186203,44.3327118 101.807742,42.7786745 C102.153218,42.6932025 102.583988,42.6060037 103.014757,42.5205317 C103.876295,42.4341963 104.307065,41.3981714 103.78928,40.8792957 C102.410818,39.2397863 101.376972,38.0302273 99.5686031,37.3404075 C100.343126,36.4770534 100.687742,35.6136994 100.773895,34.8358174 C103.272357,32.4184261 105.512357,29.7428919 106.632357,26.202277 C109.130818,18.4320907 106.546203,9.19506584 104.220049,1.76935776 C103.876295,0.733332919 102.410818,0.474326708 101.893895,1.4248795 C97.1554338,9.28140124 87.5070646,11.9569354 81.5615877,18.6919602 C80.8826954,18.5874944 80.1762338,18.4554012 79.4714954,18.3250348 C79.2190646,18.4657615 78.9080492,18.5236062 78.5462031,18.4320907 C78.4609108,18.4320907 78.2877415,18.3466186 78.1154338,18.3466186 C77.5993723,18.6919602 76.90928,18.4320907 76.5646646,18.0004137 C72.5154338,17.3097304 68.3800492,17.3969292 64.5031262,16.1018981 C63.8147569,15.9292273 63.46928,15.2385441 63.6415877,14.5469975 C63.8888492,13.3408919 64.2265723,12.1667304 64.6297723,11.0158795 C64.1007877,10.7162957 63.2814646,10.7370161 62.8662031,11.0935814 C60.2815877,13.3391652 57.3532185,13.6836435 54.50928,11.6124571 C53.7338954,11.0081093 52.6147569,11.2662522 52.26928,12.1296062 C50.8046646,15.5830224 47.8762954,13.4246373 46.4108185,12.4758112 C45.7121108,12.0665814 44.9074338,12.4127863 44.5576492,12.9428857 C44.7023877,13.4721217 44.8359262,14.0056745 44.9462031,14.5469975 C45.0168492,14.831041 44.9815262,15.1073143 44.8893415,15.3550969 C44.9358646,15.5476248 44.9866954,15.7453329 45.0323569,15.9292273 C44.1708185,16.1882335 43.30928,16.3609043 42.5338954,16.6199106 C42.4813415,16.6155938 42.4287877,16.6052335 42.3762338,16.6000534 C38.9619569,17.4444137 35.4934031,17.4090161 32.0231262,18.0004137 C31.6785108,18.5192894 30.98928,18.6919602 30.4723569,18.3466186 C30.3862031,18.3466186 30.2147569,18.4320907 30.0415877,18.4320907 C29.0930338,18.6703764 28.4856492,17.9261652 28.4425723,17.1862708 C28.3150646,17.1992211 28.1875569,17.2095814 28.0609108,17.2242584 C25.9070646,14.7196683 23.3224492,12.5612832 20.9954338,10.7491031 C15.4815877,6.60500373 8.41697231,2.11556273 1.26620308,2.28823354 C0.404664615,2.28823354 -0.198412308,3.06438882 0.0609107692,3.92774286 C2.64552615,13.4246373 1.52466462,30.260041 12.3800492,34.8358174 C10.5708185,36.3035193 9.10706462,37.9447553 8.24552615,40.1886124 C7.81475692,41.2255006 9.27851077,41.9153205 10.2262031,41.4836435 C10.3123569,41.3981714 10.3993723,41.3981714 10.5708185,41.3109727 C9.45081846,43.2103516 8.33081846,45.1105938 7.12466462,47.0099727 C6.43543385,48.1323329 8.24552615,49.427364 9.27851077,48.3904758 C9.62312615,48.0459975 9.96860308,47.8733267 10.3123569,47.6143205 C9.79543385,49.512836 9.70928,51.4122149 10.0538954,53.3979292 C10.1400492,53.8296062 10.6569723,54.1758112 11.1738954,54.1758112 C10.3993723,55.9879913 9.36466462,57.8018981 8.41697231,59.6140783 C7.98620308,60.3919602 8.50312615,61.2553143 9.45081846,61.3407863 C8.24552615,63.9308484 6.95321846,66.4354385 5.83235692,69.0255006 C5.40158769,70.0615255 6.86620308,70.7522087 7.81475692,70.3205317 C8.15851077,70.1478609 8.50312615,69.9743267 8.84774154,69.8888547 C8.50312615,71.7010348 8.67629538,73.5149416 8.76158769,75.4134571 C8.76158769,76.5366807 10.1400492,76.795687 11.0877415,76.1913391 C11.4323569,76.017805 11.69168,75.8451342 12.0354338,75.586128 C11.6046646,77.4000348 11.5185108,79.2985503 11.8631262,81.1979292 C11.94928,81.9758112 13.1554338,82.2348174 13.8455262,81.8886124 C12.5532185,84.4786745 11.0015877,87.0687366 9.96860308,89.7459975 C9.62312615,90.6948236 11.0015877,91.4727056 11.94928,91.0410286 C12.5532185,90.7820224 13.1554338,90.4366807 13.7585108,90.1776745 C12.9839877,92.7677366 11.5185108,95.2706 10.5708185,97.8606621 C10.1400492,98.9838857 11.8631262,99.6745689 12.8108185,98.9838857 C13.06928,98.8112149 13.3277415,98.5522087 13.6723569,98.3795379 C13.4147569,99.5873702 13.2415877,100.796929 12.9839877,102.005625 C12.7246646,103.127985 14.18928,103.90414 15.2231262,103.127985 C15.3954338,102.955314 15.6538954,102.78178 15.9123569,102.696308 C15.0508185,104.508488 14.4477415,106.322395 14.0169723,108.393581 C13.8455262,109.344134 14.8785108,110.639165 15.9123569,109.862147 C16.1708185,109.688612 16.3431262,109.515942 16.6015877,109.43047 C16.5154338,110.379296 16.3431262,111.329848 16.1708185,112.278675 C15.9123569,113.488234 17.3769723,114.610594 18.3246646,113.573706 C18.7554338,113.142029 19.1000492,112.710352 19.5308185,112.365873 L19.5308185,112.710352 C19.5308185,113.660904 20.6508185,114.351588 21.5123569,113.832712 C22.3738954,113.315563 23.2354338,112.710352 24.0108185,112.106004 C24.0108185,112.62488 24.0108185,113.142029 23.9246646,113.660904 C23.7532185,114.783265 25.1308185,116.078296 26.0785108,114.955935 C26.5954338,114.264389 27.1993723,113.660904 27.8015877,113.056557 C28.9224492,116.250966 32.10928,117.027122 34.1769723,114.351588 C34.6938954,115.387612 35.2108185,116.337302 35.5554338,117.373327 C35.9862031,118.581159 37.5378338,118.581159 38.0538954,117.373327 C38.5708185,115.905625 39.1738954,114.524258 39.69168,113.056557 C40.4662031,114.178917 41.4147569,115.214942 42.3615877,116.250966 C42.9646646,116.94165 44.3431262,116.682643 44.5154338,115.646619 C44.6015877,115.214942 44.6877415,114.868737 44.7738954,114.524258 C45.0323569,115.042271 45.2046646,115.55942 45.4631262,116.078296 C45.8077415,117.11432 47.2723569,117.458799 47.78928,116.422774 C48.4785108,115.214942 49.0815877,114.092581 49.5123569,112.969358 C50.5462031,113.74724 51.7532185,114.43706 52.8723569,115.214942 C53.6477415,115.732091 54.50928,115.127743 54.7686031,114.43706 C54.9400492,114.005383 55.1123569,113.660904 55.1993723,113.229227 C56.0609108,114.524258 57.0938954,115.646619 58.4723569,116.509973 C58.98928,116.854451 59.9378338,116.682643 60.2815877,116.078296 C60.7123569,115.127743 61.1431262,114.264389 61.4877415,113.401035 C62.6938954,114.43706 63.9862031,115.300414 65.3646646,116.163768 C66.0538954,116.509973 67.1738954,116.250966 67.2609108,115.387612 C67.3462031,114.610594 67.5185108,114.005383 67.6046646,113.315563 C68.8969723,114.783265 70.3615877,116.078296 72.2569723,117.027122 C73.0332185,117.373327 73.8947569,117.11432 74.1532185,116.250966 C74.4108185,115.300414 74.7562954,114.524258 75.0147569,113.660904 C76.1338954,114.955935 77.5993723,115.819289 79.4947569,116.250966 C80.3562954,116.422774 81.0455262,115.819289 81.1308185,115.042271 C81.2178338,113.919911 81.38928,112.969358 81.4762954,111.934196 C82.5954338,112.883886 83.8024492,113.74724 85.1800492,114.43706 C85.9562954,114.783265 86.8178338,114.524258 87.0762954,113.660904 C87.3338954,112.710352 87.5923569,111.761525 87.6793723,110.898171 C88.7993723,111.846998 90.0046646,112.62488 91.46928,113.229227 C92.4178338,113.660904 93.2793723,112.452209 93.0200492,111.674327 C93.0200492,111.502519 92.9338954,111.329848 92.9338954,111.24265 C93.9686031,112.020532 95.0877415,112.62488 96.2947569,113.142029 C97.1562954,113.488234 98.2762954,113.056557 98.2762954,112.020532 C98.2762954,111.502519 98.2762954,110.983643 98.1901415,110.551966 C99.1378338,110.983643 100.17168,111.329848 101.376972,111.588855 C102.583988,111.846998 103.272357,110.725501 102.841588,109.688612 C102.067065,107.876432 101.118511,106.149724 99.8262031,104.682022 L99.8262031,104.335817 C99.7409108,104.16401 99.7409108,103.90414 99.6538954,103.732333 C100.515434,103.732333 101.376972,103.040786 101.033218,102.264631 C100.946203,102.09196 100.860911,101.832954 100.774757,101.660283 C101.636295,101.745755 102.583988,100.9696 102.238511,100.278917 C101.54928,98.9838857 101.205526,97.6016559 100.602449,96.3066248 C101.033218,96.3938236 101.376972,96.480159 101.722449,96.6528298 C102.756295,96.911836 103.617834,96.048482 103.445526,95.2706 C103.272357,94.838923 103.187065,94.407246 103.100049,93.9755689 C104.048603,94.6671155 105.512357,93.8037615 105.253895,92.7677366 L104.048603,88.6236373 C104.737834,88.7954447 105.340911,88.8826435 106.030142,89.1416497 C107.235434,89.4869913 108.096972,88.2782957 107.580049,87.5004137 C106.460911,85.7737056 105.77168,84.0469975 105.340911,82.3202894 C105.512357,82.4074882 105.599372,82.4074882 105.77168,82.4929602 C106.718511,82.9246373 108.26928,82.2348174 107.753218,81.1979292 C107.14928,79.9900969 106.804665,78.6950658 106.460911,77.4863702 C107.063988,77.227364 107.322449,76.449482 106.976972,75.8451342 C106.287742,74.7227739 106.030142,73.601277 105.684665,72.391718 C106.373895,72.2199106 106.804665,71.7010348 106.546203,71.096687 C106.030142,70.0615255 105.684665,68.9383019 105.426203,67.9031404 C105.77168,68.0749478 106.030142,68.1621466 106.373895,68.3348174 C107.407742,68.7664944 108.700049,68.0749478 108.356295,67.0397863 C107.838511,65.3130783 107.14928,63.6727056 106.373895,62.0314696 C107.407742,62.2913391 108.441588,62.7230161 109.38928,63.2410286 C110.423126,63.4991714 111.801588,61.7724634 110.853895,60.9091093 L110.853895,60.9091093 Z" id="Fill-28" fill="#F73859" mask="url(#mask-40)"/>
    </g>
    <path d="M30.0419323,39.0750584 C30.21424,39.0750584 30.3856862,38.988723 30.4727015,38.988723 C30.9896246,39.334928 31.6779938,39.1622571 32.0234708,38.6433814 C35.4928862,38.0511205 38.9623015,38.086518 42.3757169,37.2430211 C40.3648862,37.0574 38.4315938,36.5583814 36.4164554,36.0533193 C35.3834708,35.794313 34.6080862,36.572195 34.7803938,37.3483503 C32.66704,37.5106609 30.5545477,37.6030398 28.4429169,37.8292385 C28.4851323,38.5691329 29.0925169,39.3124807 30.0419323,39.0750584" id="Fill-31" fill="#FFFFFF"/>
    <path d="M44.4297969,34.4134646 C44.6193354,34.9202534 44.7589046,35.4667565 44.8889969,35.9977193 C44.9820431,35.7499366 45.0173662,35.4745267 44.94672,35.1896199 C44.8364431,34.6482969 44.7020431,34.1147441 44.5573046,33.5855081 C44.3901662,33.8401975 44.3177969,34.1337379 44.4297969,34.4134646" id="Fill-33" fill="#FFFFFF"/>
    <path d="M64.5034708,36.7446932 C68.3803938,38.0397242 72.5157785,37.9525255 76.5650092,38.6432087 C76.9087631,39.0748857 77.5988554,39.3347553 78.1157785,38.9894137 C78.2880862,38.9894137 78.4603938,39.0748857 78.5465477,39.0748857 C78.9083938,39.1664012 79.2194092,39.1085565 79.47184,38.9678298 C79.0152246,38.8840845 78.5568862,38.7986124 78.1157785,38.7304075 C78.1157785,38.0397242 78.1157785,37.4353764 77.9434708,36.6574944 C77.8573169,35.9676745 77.1680862,35.3624634 76.2203938,35.5359975 C74.8419323,35.8813391 73.4626092,35.7941404 72.0850092,35.7941404 C72.1703015,35.0179851 72.2573169,34.1546311 72.4296246,33.3776124 C72.6165785,32.8138422 72.3133169,32.3614447 71.8386092,32.1266124 C71.4983015,32.081718 71.1588554,32.0299168 70.8185477,31.9781155 C70.6936246,31.9996994 70.5687015,32.0316435 70.4472246,32.0825814 C68.8973169,32.7724012 67.17424,33.0314075 65.4511631,33.5502832 C65.3650092,33.1186062 65.1927015,32.6869292 65.1065477,32.2552522 C65.0531323,31.9867491 64.8679015,31.7942211 64.6292554,31.6586745 C64.2269169,32.8095255 63.8883323,33.983687 63.6419323,35.1897925 C63.4696246,35.8813391 63.81424,36.5720224 64.5034708,36.7446932" id="Fill-35" fill="#FFFFFF"/>
  </g>
</svg>