<?xml version="1.0" encoding="UTF-8"?>
<svg width="188px" height="191px" viewBox="0 0 188 191" version="1.1" xmlns="http://www.w3.org/2000/svg" xmlns:xlink="http://www.w3.org/1999/xlink">
  <!-- Generator: Sketch 62 (91390) - https://sketch.com -->
  <title>Page 1</title>
  <desc>Created with Sketch.</desc>
  <g id="Desktop" stroke="none" stroke-width="1" fill="none" fill-rule="evenodd">
    <g id="Page-1">
      <g id="Group-3" transform="translate(0.000000, 0.200623)">
        <polygon id="Clip-2" points="187.863647 190.753247 0 190.753247 0 0.0461298701 187.864291 0.0461298701 187.864291 190.753247 187.863647 0.0469933689 2.80428741e-05 0.0469933689 2.80428741e-05 190.753531 187.863647 190.753531"></polygon>
        <path d="M159.31257,99.1570286 C160.746848,99.902587 162.493629,98.6882494 162.055377,97.0462753 C161.310848,94.2473143 160.414424,91.5131844 159.362371,88.8339117 C160.814079,89.3151584 162.215987,89.908613 163.462265,90.8461714 C164.084781,91.3137039 164.720993,91.262587 165.223987,90.9434182 C167.425205,92.3298078 169.482,94.0179117 171.305974,95.6187429 C175.822954,99.5859117 173.896887,101.944769 170.60502,105.948094 C167.420225,109.823003 163.871881,113.540821 160.143007,117.023003 C159.89151,116.081704 159.669894,115.135418 159.453258,114.184145 C160.27747,113.691678 160.677126,112.47734 160.207748,111.55973 C159.296384,109.780613 158.855642,107.835678 158.412411,105.884509 C159.305099,105.580301 159.991113,104.733756 159.565311,103.693964 C158.858132,101.964717 158.403695,100.216769 158.02147,98.4438857 C158.437311,98.6845091 158.860623,98.9238857 159.31257,99.1570286 M31.5759073,124.776561 C26.5472185,115.333652 19.0309536,107.474119 13.5789536,98.2531325 C17.2530464,94.5502753 21.2209669,91.2189506 25.3345563,88.0422234 C25.6072185,88.3414442 25.9769934,88.5496519 26.4289404,88.5907948 C24.8203576,92.8073143 23.0088344,96.9440416 21.5010993,101.200457 C20.9047285,102.884821 22.9017616,103.960769 24.2451523,103.313704 C24.7132848,103.016977 25.1988477,102.78134 25.6918808,102.573132 C25.2150331,105.554119 25.5001457,108.575003 25.5835629,111.671938 C25.6321192,113.442327 27.5233245,113.960977 28.7720927,112.994743 C29.1904238,112.670587 29.6199603,112.367626 30.0519868,112.067158 C29.4643311,115.079314 29.3510331,118.101444 29.8017351,121.313081 C29.9747947,122.5536 31.5983179,122.953808 32.544543,122.430171 C32.5545033,122.422691 32.5657086,122.417704 32.5769139,122.410223 C32.2569404,123.204405 31.9145563,123.98986 31.5759073,124.776561 M184.086238,90.6791065 C175.613788,84.0812883 166.427934,79.2563532 157.397709,73.6596779 C156.932066,72.1186909 157.092675,70.4642494 158.548119,68.5641974 C159.082238,67.8647688 158.744834,66.888561 158.254291,66.2988468 C156.173841,63.7878857 155.150424,60.7782234 153.275404,58.2198857 C153.804543,58.031626 154.352358,57.8832623 154.941258,57.7872623 C156.079219,57.6027429 156.71294,55.9620156 156.058053,55.0394182 C154.125762,52.3214961 152.753735,50.4413922 150.257444,49.2694442 C152.743775,45.8121974 152.220861,42.7214961 149.520384,40.6818078 C149.837868,40.6593662 150.155351,40.6394182 150.475325,40.6070026 C152.102583,40.4361974 152.938,38.7069506 151.796305,37.4153143 C151.495007,37.0737039 151.204914,36.7258597 150.911086,36.3805091 C151.994265,36.3518338 153.082424,36.2957299 154.210424,36.2433662 C156.190026,36.1498597 156.597152,33.8558338 155.152914,32.7574442 C155.054556,32.6851325 154.964914,32.596613 154.869046,32.5218078 C155.667113,32.4507429 156.478874,32.4283013 157.323007,32.5031065 C158.241841,32.5853922 158.772225,32.0829506 158.981391,31.4259117 C159.50057,31.5518338 160.025974,31.6765091 160.562583,31.8124052 C162.247113,32.2400416 163.353947,30.5195221 162.670424,29.0658078 C162.596967,28.9074701 162.488649,28.776561 162.401497,28.6281974 C163.794689,28.4623792 165.186636,28.2417039 166.660755,28.1394701 C168.219536,28.0310026 169.162026,26.2094961 168.016596,24.9951584 C168.476013,24.916613 168.876914,24.6996779 169.185682,24.3992104 L170.395854,24.3992104 C171.150344,24.3992104 172.077894,23.8356779 172.197417,23.0265351 C172.570927,20.4856519 173.062715,18.8237299 174.498238,16.6157299 C174.962636,15.9013403 174.795801,15.1121455 174.326424,14.548613 C174.915325,13.9327169 175.481815,13.2893922 176.07445,12.6311065 C177.298318,11.2684052 176.127987,8.99931429 174.257947,9.5054961 C170.97604,10.3944312 168.563166,10.0204052 165.658503,9.38082078 C166.058159,8.66269091 166.497656,7.96824935 167.02804,7.26508052 C168.091298,5.8550026 166.349497,4.18684675 164.920199,4.51848312 C164.343748,4.65188571 163.764808,4.76409351 163.184623,4.86508052 C163.632834,4.03224935 163.469735,2.93635325 162.859669,2.34414545 C163.073815,1.08991169 161.981921,-0.363802597 160.562583,0.154846753 C159.188066,0.656041558 157.83845,1.22580779 156.481364,1.77188571 C155.424331,2.19578182 154.358583,2.59474286 153.289099,2.98372987 C153.165841,3.02611948 153.040093,3.06726234 152.915589,3.10965195 C152.247007,2.53614545 151.22857,2.35536623 150.400623,3.1296 C149.967351,3.53479481 149.658583,3.85521039 149.35355,4.35141818 C149.032331,4.87380779 148.97506,5.72409351 149.35355,6.24024935 C149.481788,6.41354805 149.629947,6.55692468 149.785576,6.68534026 C149.486768,6.93843117 149.19294,7.19650909 148.894132,7.4496 C145.370689,8.19266494 141.980464,9.29853506 138.593974,10.5253403 C138.176887,10.1363532 137.590477,9.93562597 136.906954,10.1288727 C132.773444,11.299574 128.601338,13.7594182 124.419272,15.0859636 C123.769364,14.3578597 122.638874,14.0661195 121.764861,14.9737558 C121.402556,15.3490286 121.081338,15.7392623 120.783775,16.1506909 C120.746424,15.6120935 120.690397,15.0498078 120.621921,14.4251844 C120.492437,13.2557299 119.523801,12.2483532 118.257603,12.6223792 C116.406238,13.1672104 114.475192,12.9876779 112.567801,13.0712104 C112.667404,11.7297039 112.750821,10.3857039 113.08449,9.10528831 C113.514026,7.46082078 111.78094,6.24772987 110.341682,6.99204156 C108.177815,8.11287273 105.809762,8.56918442 103.536331,9.34715844 C103.383192,8.66767792 103.230053,7.98695065 103.124225,7.28004156 C102.913815,5.8574961 100.893126,5.52461299 100.002927,6.45469091 C96.4745033,10.1338597 92.4941325,10.723574 88.5336821,7.28502857 C87.4256026,6.32253506 85.9079073,6.74393766 85.4123841,8.11037922 C83.3655497,13.7444571 79.4001192,10.2086649 77.3657351,8.65521039 C75.9899735,7.6041974 74.239457,9.32721039 74.6229272,10.7672104 C74.9341854,11.9428987 75.1694967,13.128561 75.4309536,14.3067429 C74.2768079,14.6745351 73.1313775,15.0672623 71.9996424,15.4998857 C69.1945828,15.2418078 66.4866358,14.3915221 63.639245,13.4539636 C62.1900265,12.9764571 61.1778146,14.3553662 61.343404,15.5784312 C60.3959338,15.6619636 59.4484636,15.7392623 58.4997483,15.8153143 C51.6358808,10.7622234 41.5237219,11.3494442 33.4422119,10.6849247 C32.7051523,10.6238338 32.1747682,11.0003532 31.8821854,11.5327169 C29.3622384,10.3869506 26.8783974,9.15515844 24.4244371,7.82237922 C23.1308477,7.1217039 21.9318808,8.04679481 21.6729139,9.1401974 C19.8937616,8.67391169 18.1507152,8.03432727 16.3317219,7.1990026 C15.1676159,6.66414545 14.0346358,7.27006753 13.6636159,8.19391169 C13.0921457,7.88845714 12.5281457,7.5643013 11.974106,7.1990026 C11.1399338,6.65167792 10.3082517,6.89604156 9.78035762,7.47453506 C9.27113907,7.17780779 8.7569404,6.88108052 8.23900662,6.57562597 C6.92176159,5.80139221 4.89360265,7.09676883 5.49619868,8.68887273 C5.99172185,9.99422338 6.54825166,11.2671584 7.12843709,12.5301195 C6.81219868,12.8293403 6.61299338,13.2445091 6.674,13.8018078 C6.69018543,13.9401974 6.70512583,14.078587 6.72006623,14.2169766 C6.81966887,15.1034182 7.33137748,15.8714182 8.1966755,16.0484571 C8.78184106,16.6294442 9.34957616,17.2241455 9.90859603,17.8263273 C6.6515894,19.6328727 5.03553642,23.850639 3.62864901,27.6420156 C3.07336424,29.1381195 5.06915232,30.6878338 6.37145695,29.7552623 C7.02634437,29.2852364 7.68621192,28.8301714 8.35230464,28.3863273 C8.01365563,29.1630545 7.68870199,29.9547429 7.36374834,30.7588987 C6.83336424,32.0704831 8.03980132,33.0155221 9.20888742,33.0454442 C9.15410596,34.3994182 10.5609934,35.3868468 11.974106,34.7422753 C12.6825298,34.4181195 13.367298,34.1039377 14.0383709,33.7860156 C14.4305563,34.2971844 15.0729934,34.5777039 15.886,34.3059117 C16.4674305,34.1114182 17.0413907,33.940613 17.6103709,33.7760416 C17.1571788,34.8420156 16.6504503,35.8768208 15.9370464,36.7919377 C15.0518278,37.9252364 15.3356954,39.4151065 16.7600132,39.9163013 C18.6063974,40.5683532 20.4851523,41.1032104 22.3676424,41.6243532 C20.9744503,42.6117818 21.7389007,44.970639 23.481947,44.970639 L23.8604371,44.970639 C22.5095762,46.2410805 21.1275894,47.4753662 19.6721457,48.6360935 C18.2453377,49.7731325 19.5862384,51.6806649 20.9918808,51.8277818 C22.1012053,51.9437299 23.1694437,52.2192623 24.2389272,52.4860675 C23.97,52.8700675 23.706053,53.2578078 23.407245,53.6231065 C22.4871656,54.7613922 22.8370199,56.2288208 24.2302119,56.7474701 C24.7257351,57.9219117 25.2212583,59.0963532 25.7167815,60.2720416 L23.3487285,65.0134442 C22.4498146,66.8162494 24.8402781,68.9868468 26.2820265,67.2800416 C26.7003576,66.7838338 27.1859205,66.3960935 27.7038543,66.0644571 C27.2120662,68.126587 27.0178411,70.2099117 27.0663974,72.3568208 C21.1848609,77.9522494 14.5675099,82.9367688 7.72605298,87.2866909 C3.4929404,89.9796779 0.107695364,92.6427429 0.00186754967,97.992561 C-0.120145695,104.188925 5.85476821,110.21947 9.83638411,114.24773 C15.8063179,120.283262 21.9119603,125.498431 27.3502649,132.11121 C27.6216821,132.4416 27.9267152,132.623626 28.2379735,132.698431 C27.9130199,133.552457 27.5893113,134.406483 27.3116689,135.27921 C26.7924901,136.902483 28.6774702,138.144249 30.0544768,137.39121 C30.8737086,136.942379 31.6804901,136.46986 32.4872715,135.999834 C31.4850199,140.297392 29.4543709,144.39173 28.1408609,148.577081 C27.5569404,150.43973 29.9461589,151.616665 31.2621589,150.39734 C31.641894,150.044509 32.016649,149.700405 32.392649,149.356301 C32.0664503,151.298743 31.8000132,153.257392 31.4613642,155.227262 C31.1451258,157.062483 33.1222384,158.349132 34.5826623,157.046275 C35.2064238,156.490223 35.852596,155.967834 36.5099735,155.460405 C35.700702,158.638379 35.5861589,161.911106 36.4414967,165.364613 C36.6755629,166.308405 37.4947947,166.737288 38.3190066,166.684925 C38.5269272,167.053964 38.8767815,167.355678 39.4046755,167.501548 C41.6980265,168.131158 43.7822119,167.540197 45.8253113,166.481704 C46.1104238,166.334587 46.2996689,166.128873 46.4503179,165.905704 L48.3290728,165.905704 C48.6116954,166.364509 49.1184238,166.702379 49.8617086,166.737288 C50.2825298,166.757236 50.7444371,166.795886 51.2250199,166.842016 C50.2003576,167.759626 50.1567815,169.69334 51.8550066,169.995055 C59.4521987,171.342795 66.984649,170.163366 74.5345298,169.174691 C74.5756159,170.952561 74.543245,172.735418 74.5208344,174.503314 C74.4884636,177.004301 72.5960132,176.849704 70.4968874,177.32347 C67.0319603,178.105184 62.1003841,179.904249 60.8491258,183.695626 C57.2049139,194.723158 79.6715364,189.6576 83.866053,189.178847 C84.6280132,189.092821 85.5306623,188.680145 85.6676159,187.806171 C86.648702,181.511314 85.4920662,175.336145 85.7336026,169.022587 C85.7435629,168.790691 85.707457,168.586223 85.6514305,168.39921 L91.3636424,168.39921 C91.9537881,168.39921 92.3920397,168.193496 92.6908477,167.884301 C94.8210993,167.728457 96.9488609,167.622483 99.0679073,167.703522 C99.3667152,168.108717 99.8373377,168.392977 100.494715,168.39921 C100.539536,168.400457 100.583113,168.400457 100.627934,168.400457 C100.427483,173.302691 99.6343974,178.385704 101.120967,183.124613 C102.72955,188.255003 107.781894,189.61521 112.607642,189.589029 C115.112649,189.575314 126.009179,186.652925 123.124437,182.278068 C121.916755,180.446587 119.161497,179.088873 117.322583,178.006691 C115.70902,177.055418 115.141285,177.258639 114.303377,175.175314 C113.413179,172.963574 113.404464,170.814171 113.160437,168.522639 C116.85694,168.456561 120.545974,168.208457 124.230026,167.501548 C124.892384,167.375626 125.293285,166.967938 125.467589,166.466743 C127.630212,166.345808 129.789099,166.184977 131.945497,165.914431 C134.566291,165.929392 137.185841,165.984249 139.797921,166.158795 C140.096728,166.506639 140.552411,166.737288 141.164967,166.737288 L145.315907,166.737288 C145.843801,166.737288 146.270848,166.510379 146.582106,166.172509 C147.540781,166.060301 148.499457,165.958068 149.464358,165.905704 C151.589629,165.789756 151.98306,162.907262 149.961126,162.232769 C149.683483,162.140509 149.405841,162.047003 149.128199,161.954743 C149.497974,161.576977 149.710874,161.072042 149.656093,160.528457 C150.227563,160.14321 150.604808,159.453756 150.435483,158.551106 C150.374477,158.225704 150.289815,157.905288 150.205152,157.583626 C151.390424,157.634743 152.503483,156.4416 152.095113,155.227262 C151.984305,154.895626 151.869762,154.565236 151.757709,154.236094 C152.957921,154.318379 154.281391,153.17386 153.755987,151.903418 C152.869523,149.762743 152.299298,147.544769 151.541073,145.387886 C152.073947,145.516301 152.599351,145.672145 153.11853,145.890327 C154.505497,146.380301 155.75302,144.890431 155.415616,143.590068 C155.230106,142.869444 155.090662,142.136353 154.969894,141.400769 C156.279669,142.545288 158.317788,141.089081 157.905682,139.435886 L156.766477,134.871522 C157.320517,134.35786 157.855881,133.818016 158.367589,133.247003 C158.555589,133.306847 158.743589,133.357964 158.927854,133.422795 C160.553868,134.007522 161.767775,132.017704 161.038185,130.676197 C160.956013,130.527834 160.895007,130.376977 160.817815,130.228613 C163.061364,127.25386 165.14804,124.087106 167.77506,121.722016 C174.358795,115.793704 181.593682,110.680769 185.936358,102.753912 C188.817364,97.4938597 188.677921,94.2547948 184.086238,90.6791065" id="Fill-1" fill="#7AC7C4"></path>
      </g>
      <path d="M83.5722252,54.2846545 C83.6456821,53.6400831 83.4290464,52.9581091 82.7617086,52.4930701 C82.6434305,52.4095377 82.5288874,52.3447065 82.4118543,52.2748883 C82.3346623,52.1564468 82.2724106,52.0317714 82.1865033,51.9170701 C81.5079603,50.9994597 80.1334437,50.5693299 79.2532053,51.5380571 C79.1536026,51.6477714 79.0838808,51.7712 78.9905033,51.8834078 C75.5243311,53.4954597 74.6901589,61.4360312 79.1374172,62.9483429 C81.0012318,63.5816935 82.401894,62.2987844 83.2186358,60.7515636 C83.4228212,60.5383688 83.5747152,60.2852779 83.6195364,60.0072519 C83.6319868,59.926213 83.639457,59.8489143 83.6506623,59.7678753 C83.7353245,59.5347325 83.8075364,59.3003429 83.8648079,59.077174 C84.2769139,57.450161 84.1872715,55.7558234 83.5722252,54.2846545" id="Fill-4" fill="#3B3734"></path>
      <path d="M107.833314,54.2846545 C107.906771,53.6400831 107.690135,52.9581091 107.022797,52.4930701 C106.904519,52.4095377 106.789976,52.3447065 106.672943,52.2748883 C106.595751,52.1564468 106.533499,52.0317714 106.447592,51.9170701 C105.769049,50.9994597 104.394532,50.5693299 103.514294,51.5380571 C103.414691,51.6477714 103.34497,51.7712 103.251592,51.8834078 C99.7841748,53.4954597 98.9512477,61.4360312 103.397261,62.9483429 C105.263566,63.5816935 106.662983,62.2987844 107.479725,60.7515636 C107.68391,60.5383688 107.835804,60.2852779 107.87938,60.0072519 C107.893075,59.926213 107.900546,59.8489143 107.911751,59.7678753 C107.996413,59.5347325 108.068625,59.3003429 108.125897,59.077174 C108.538003,57.450161 108.44836,55.7558234 107.833314,54.2846545" id="Fill-6" fill="#3B3734"></path>
      <path d="M125.263777,98.9899844 C125.210241,97.3106078 123.538162,96.7819844 122.369075,97.5213091 C121.930824,97.3554909 121.41787,97.3978805 120.897446,97.789361 C113.967592,103.019491 105.512572,103.075595 97.121049,103.950816 C86.1473272,105.094088 75.2931285,104.281205 65.0963073,99.9711792 C64.8497907,99.8676987 64.6082543,99.8228156 64.3741881,99.8140883 C63.6421086,99.4288416 62.943645,98.9712831 62.2949828,98.5174649 C61.2715656,97.8018286 59.8821086,98.5561143 59.5521748,99.6358026 C57.2824795,107.022816 58.5349828,117.072894 63.8425589,122.936374 C66.1334199,125.466036 70.0888901,126.52079 73.2027179,127.494504 C78.9908768,129.303543 84.5586649,130.279751 90.614506,130.419387 C96.0851815,130.546556 101.511036,129.960582 106.877128,128.948218 C111.115221,128.150296 116.333155,127.478296 119.5304,124.208062 C125.728175,117.868322 125.525234,107.268426 125.263777,98.9899844" id="Fill-8" fill="#3B3734"></path>
      <path d="M74.9099073,103.125964 C73.4743841,102.780613 72.0948874,102.160977 70.6207682,102.008873 C70.2833642,101.843055 69.9098543,101.758275 69.5512848,101.861756 C67.9962384,102.30934 67.6874702,103.916405 67.2604238,105.306535 C66.9454305,106.338847 66.6939338,107.3936 66.4623576,108.450847 C66.1946755,109.333548 65.9257483,110.213756 65.7003974,111.106431 C65.4551258,112.076405 65.725298,113.152353 66.7673907,113.527626 C68.3062517,114.082431 69.8787285,114.64347 71.5209272,114.778119 C72.2878675,114.840457 73.2266225,114.394119 73.4494834,113.593704 C74.1118411,111.201184 75.2049801,108.957029 75.7988609,106.545808 C75.8673377,106.269029 75.8835232,105.991003 75.8648477,105.722951 C75.9034437,105.664353 75.9495099,105.616977 75.9781457,105.544665 C76.3080795,104.690639 75.9009536,103.364094 74.9099073,103.125964" id="Fill-10" fill="#FFFFFF"></path>
      <path d="M109.925841,102.581756 C111.363854,102.252613 112.752066,101.650431 114.229921,101.518275 C114.56857,101.357444 114.943325,101.276405 115.299404,101.386119 C116.84947,101.852405 117.138318,103.46321 117.546689,104.858327 C117.850477,105.895626 118.087033,106.952873 118.304914,108.012613 C118.562636,108.897808 118.820358,109.781756 119.033258,110.678171 C119.267325,111.649392 118.982212,112.722847 117.937629,113.084405 C116.388808,113.620509 114.810106,114.1616 113.167907,114.275055 C112.399722,114.328665 111.465947,113.868613 111.254291,113.064457 C110.621815,110.665704 109.557311,108.409081 108.993311,105.989132 C108.92857,105.711106 108.916119,105.433081 108.93853,105.165029 C108.901179,105.107678 108.855113,105.059055 108.826477,104.98799 C108.508993,104.12773 108.929815,102.808665 109.925841,102.581756" id="Fill-12" fill="#FFFFFF"></path>
      <path d="M133.289634,83.0110961 C132.710694,80.7145766 132.071992,78.4330182 131.422085,76.1539532 C130.762217,73.8399792 127.157846,74.8249143 127.820204,77.1501091 C128.470111,79.4266805 129.110058,81.708239 129.687754,84.0072519 C130.276654,86.3449143 133.87978,85.3512519 133.289634,83.0110961" id="Fill-14" fill="#FFFFFF"></path>
      <path d="M139.5148,82.0760312 C139.181131,79.6049662 138.508813,77.2448623 137.64725,74.9072 C136.820548,72.6655377 133.209952,73.6342649 134.04537,75.9033558 C134.908177,78.2397714 135.57925,80.5973818 135.912919,83.072187 C136.049873,84.0833039 137.329767,84.6206545 138.210005,84.3775377 C139.289449,84.0795636 139.650509,83.0871481 139.5148,82.0760312" id="Fill-16" fill="#FFFFFF"></path>
      <path d="M132.667118,69.2968104 C132.334694,68.3006545 131.99978,67.3044987 131.545343,66.358213 C131.104601,65.4393558 129.814747,65.2037195 128.990535,65.686213 C128.060495,66.2322909 127.878721,67.3269403 128.320707,68.2445506 C128.406615,68.4377974 128.421555,68.4614857 128.365528,68.3206026 C128.448946,68.5200831 128.523648,68.7245506 128.59835,68.9290182 C128.765184,69.3790961 128.913343,69.8366545 129.065237,70.2929662 C129.387701,71.2579532 130.341396,71.8788364 131.362323,71.5983169 C132.304813,71.3389922 132.989581,70.2642909 132.667118,69.2968104" id="Fill-18" fill="#FFFFFF"></path>
      <path d="M142.004866,63.0630442 C141.808151,62.0631481 140.63284,61.5021091 139.70778,61.7576935 C138.671913,62.0432 138.20627,63.0580571 138.402985,64.0592 C138.696813,65.5453299 138.939595,67.030213 138.959515,68.5475117 C138.989396,70.9574857 142.72574,70.961226 142.694615,68.5475117 C142.669714,66.7048104 142.359701,64.8683429 142.004866,63.0630442" id="Fill-20" fill="#FFFFFF"></path>
      <path d="M146.362482,78.3357714 C146.195648,77.3296416 144.96929,76.7823169 144.065396,77.0304208 C143.008363,77.322161 142.595012,78.3257974 142.760601,79.3319273 C143.060654,81.1359792 143.298456,82.9238234 143.317131,84.7553039 C143.340787,87.1665247 147.075886,87.1690182 147.05223,84.7553039 C147.02982,82.5934338 146.716072,80.4664727 146.362482,78.3357714" id="Fill-22" fill="#FFFFFF"></path>
      <path d="M139.5148,97.0370701 C139.445078,96.8201351 139.386562,96.6007065 139.333025,96.3800312 C139.303144,96.2516156 139.276999,96.1244468 139.252098,95.9947844 C139.255833,96.0159792 139.203542,95.6706286 139.188601,95.6008104 C139.161211,95.3477195 139.147515,95.0933818 139.14129,94.8377974 C139.140045,94.7505247 139.14627,94.6644987 139.150005,94.5759792 C139.15125,94.6607584 139.184866,94.3540571 139.203542,94.2929662 C139.868389,91.9690182 136.265264,90.9840831 135.601661,93.2968104 C135.174615,94.7916675 135.451012,96.5757714 135.912919,98.033226 C136.638774,100.322265 140.245634,99.3435636 139.5148,97.0370701" id="Fill-24" fill="#FFFFFF"></path>
      <path d="M110.012122,24.9116468 L110.012122,29.8986597 C110.012122,32.3111273 113.747221,32.3111273 113.747221,29.8986597 L113.747221,24.9116468 C113.747221,22.4991792 110.012122,22.4991792 110.012122,24.9116468" id="Fill-26" fill="#FFFFFF"></path>
      <path d="M117.415462,24.7253818 C117.181396,23.734213 116.073317,23.1569662 115.118376,23.4200312 C114.112389,23.6980571 113.579515,24.7303688 113.813581,25.7215377 C114.046403,26.6977455 114.058853,27.5567584 114.058853,28.6514078 C114.060098,31.0638753 117.795197,31.0638753 117.793952,28.6514078 C117.793952,27.3261091 117.722985,26.0207584 117.415462,24.7253818" id="Fill-28" fill="#FFFFFF"></path>
      <path d="M119.038612,25.2233351 C119.038612,26.6196987 119.048572,28.0247896 118.794585,29.4012052 C118.609075,30.4023481 119.054797,31.4147117 120.09938,31.7014649 C121.015725,31.9545558 122.210956,31.3997506 122.395221,30.3961143 C122.712705,28.6793351 122.772466,26.9638026 122.773711,25.2233351 C122.774956,22.8108675 119.039857,22.8108675 119.038612,25.2233351" id="Fill-30" fill="#FFFFFF"></path>
      <path d="M111.568413,35.5090494 C111.568413,37.112374 111.572148,38.7219325 111.324387,40.3102961 C111.166268,41.316426 111.564678,42.3188156 112.629181,42.6105558 C113.52436,42.8586597 114.766903,42.3138286 114.925023,41.3052052 C115.227566,39.3739844 115.303513,37.4602182 115.303513,35.5090494 C115.304758,33.0965818 111.569658,33.0965818 111.568413,35.5090494" id="Fill-32" fill="#FFFFFF"></path>
      <path d="M86.9790093,141.483075 L86.9790093,148.02853 C86.9790093,150.440997 90.7141086,150.440997 90.7141086,148.02853 L90.7141086,141.483075 C90.7141086,139.070608 86.9790093,139.070608 86.9790093,141.483075" id="Fill-34" fill="#FFFFFF"></path>
      <path d="M79.5088106,147.093465 L79.5088106,151.457101 C79.5088106,153.869569 83.2439099,153.869569 83.2439099,151.457101 L83.2439099,147.093465 C83.2439099,144.680997 79.5088106,144.680997 79.5088106,147.093465" id="Fill-36" fill="#FFFFFF"></path>
      <path d="M87.6015258,156.755803 L87.6015258,158.002556 C87.6015258,160.415023 91.3366252,160.415023 91.3366252,158.002556 L91.3366252,156.755803 C91.3366252,154.343335 87.6015258,154.343335 87.6015258,156.755803" id="Fill-38" fill="#FFFFFF"></path>
      <path d="M94.4492079,146.470088 L94.4492079,150.833725 C94.4492079,153.246192 98.1843073,153.246192 98.1843073,150.833725 L98.1843073,146.470088 C98.1843073,144.057621 94.4492079,144.057621 94.4492079,146.470088" id="Fill-40" fill="#FFFFFF"></path>
      <path d="M104.653873,144.413694 C104.454668,143.413797 103.284336,142.852758 102.356787,143.108343 C101.323409,143.393849 100.852787,144.409953 101.051992,145.409849 C101.329634,146.797486 101.586111,148.166421 101.608522,149.586473 C101.644628,151.996447 105.379727,152.000187 105.343621,149.586473 C105.31623,147.841018 104.993767,146.121745 104.653873,144.413694" id="Fill-42" fill="#FFFFFF"></path>
      <path d="M103.40884,157.816291 C103.051515,156.769018 102.583383,155.800291 101.975807,154.877694 C101.416787,154.027408 100.333608,153.66959 99.4209987,154.205694 C98.5781113,154.699408 98.190906,155.912499 98.7511709,156.764031 C98.981502,157.116862 99.2031179,157.473434 99.4035682,157.843719 C99.4807603,157.987096 99.5479921,158.13546 99.6164689,158.28133 C99.6251841,158.307512 99.6388795,158.342421 99.6724954,158.4272 C99.7198066,158.555616 99.7646278,158.682784 99.8069589,158.812447 C100.135648,159.77494 101.078138,160.399564 102.104045,160.117797 C103.04031,159.859719 103.738774,158.782525 103.40884,157.816291" id="Fill-44" fill="#FFFFFF"></path>
      <path d="M116.481687,148.77733 C116.223966,148.000603 115.946323,147.218888 115.926403,146.46959 C115.897767,145.450992 115.097211,144.59946 114.058853,144.59946 C113.061581,144.59946 112.162668,145.450992 112.191303,146.46959 C112.221184,147.615356 112.521237,148.693797 112.879807,149.773486 C113.201025,150.738473 114.157211,151.359356 115.176893,151.078836 C116.119383,150.819512 116.802906,149.746057 116.481687,148.77733" id="Fill-46" fill="#FFFFFF"></path>
      <path d="M38.2969695,81.7058701 C37.4017907,81.4602597 36.1555126,82.0025974 35.9998834,83.0112208 C35.6687046,85.1469091 35.6226384,87.2751169 35.6213934,89.4307532 C35.6213934,91.8432208 39.3564927,91.8432208 39.3564927,89.4307532 C39.3577377,87.6254545 39.3241219,85.793974 39.6005192,84.0073766 C39.7573934,82.9987532 39.3614728,81.9988571 38.2969695,81.7058701" id="Fill-48" fill="#FFFFFF"></path>
      <path d="M44.2697669,81.1409662 C43.6796212,79.0489143 43.1542172,76.9705766 43.4032238,74.7812779 C43.5177669,73.7664208 42.4657139,72.9111481 41.5356742,72.9111481 C40.4300848,72.9111481 39.7826675,73.770161 39.6681245,74.7812779 C39.385502,77.2697974 39.9968132,79.7583169 40.6678861,82.1371221 C41.3215285,84.4523429 44.9258993,83.4674078 44.2697669,81.1409662" id="Fill-50" fill="#FFFFFF"></path>
      <path d="M49.5611576,83.3227844 C49.3096609,82.5024208 49.3171311,81.7456416 49.3171311,80.7033558 C49.3158861,78.2921351 45.5807868,78.2921351 45.5820318,80.7033558 C45.5820318,81.9089662 45.6031974,83.1569662 45.9592768,84.3189403 C46.2580848,85.2914078 47.2541113,85.8998234 48.2576079,85.6242909 C49.2162834,85.3599792 49.8599656,84.2977455 49.5611576,83.3227844" id="Fill-52" fill="#FFFFFF"></path>
      <path d="M46.2796238,89.0440104 C45.5799152,88.3420883 44.3336371,88.2972052 43.6389086,89.0440104 C43.0388026,89.6885818 42.6515974,90.4328935 42.3328689,91.2233351 C41.2222993,90.7483221 39.6498225,91.289413 39.667253,92.8603221 C39.6909086,94.8114909 39.9810013,96.7452052 40.3570013,98.6564779 C40.8226437,101.020322 44.4220344,100.017932 43.9588821,97.6603221 C43.764657,96.6791273 43.6140079,95.700426 43.5156503,94.7142442 C44.4195444,94.8114909 45.2238358,94.2267636 45.5151735,93.3577766 C45.5811603,93.1582961 45.6496371,92.9588156 45.7181139,92.7580883 C45.7093987,92.7842701 45.8388821,92.4538805 45.8612927,92.3853091 C45.9359947,92.2232312 46.0194119,92.067387 46.1065642,91.9140364 C46.1376901,91.860426 46.1563656,91.8230234 46.171306,91.7968416 C46.1937166,91.7768935 46.2248424,91.7482182 46.2796238,91.688374 C46.9731073,90.9440623 47.0179285,89.7833351 46.2796238,89.0440104" id="Fill-54" fill="#FFFFFF"></path>
      <path d="M46.2041748,94.7298286 C46.2041748,95.9167377 46.2265854,97.1223481 45.9601483,98.2843221 C45.421049,100.631958 49.0216848,101.629361 49.5607841,99.2792312 C49.9044132,97.7856208 49.9392742,96.2558545 49.9392742,94.7298286 C49.9392742,92.317361 46.2041748,92.317361 46.2041748,94.7298286" id="Fill-56" fill="#FFFFFF"></path>
      <path d="M42.4022172,133.816291 C41.8593828,131.467408 38.258747,132.46481 38.8003364,134.812447 C39.046853,135.878421 39.0443629,136.961849 39.0456079,138.054005 C39.046853,140.466473 42.7819523,140.466473 42.7807073,138.054005 C42.7794623,136.627719 42.7246808,135.213901 42.4022172,133.816291" id="Fill-58" fill="#FFFFFF"></path>
      <path d="M49.2498993,139.738369 C48.9461113,138.091408 48.9324159,136.403304 48.6273828,134.751356 C48.4431179,133.747719 47.2478861,133.192914 46.3302967,133.446005 C45.2869589,133.734005 44.8412371,134.745122 45.025502,135.747512 C45.3305351,137.394473 45.3429854,139.082577 45.6480185,140.734525 C45.8335285,141.738161 47.0287603,142.292966 47.9463497,142.039875 C48.9896874,141.751875 49.4341642,140.740758 49.2498993,139.738369" id="Fill-60" fill="#FFFFFF"></path>
      <path d="M45.2704,30.8337247 C40.3724397,31.4758026 41.5240954,40.1656727 41.5353007,43.6129455 C41.5427709,46.025413 45.2778702,46.025413 45.2704,43.6129455 C45.2654199,42.0283221 45.2430093,40.4486857 45.2890755,38.8653091 C45.3177113,37.8990753 45.3712477,36.925361 45.5131815,35.9678545 C45.5741881,35.561413 45.6725457,35.1661922 45.7783735,34.7697247 C45.8480954,34.5041662 45.9190623,34.3919584 45.9402278,34.3595429 C47.5973669,33.5055169 47.3981616,30.5544519 45.2704,30.8337247" id="Fill-62" fill="#FFFFFF"></path>
      <path d="M53.296257,37.8162909 C53.0223497,36.0284468 53.0522305,34.1957195 53.0522305,32.3916675 C53.0509854,29.9804468 49.3158861,29.9804468 49.3171311,32.3916675 C49.3171311,34.5460571 49.3681775,36.6780052 49.6943762,38.8124468 C49.8487603,39.8198234 51.0975285,40.3634078 51.9927073,40.1177974 C53.0584556,39.8235636 53.4506411,38.8249143 53.296257,37.8162909" id="Fill-64" fill="#FFFFFF"></path>
      <path d="M62.0114887,29.4615481 C62.1658728,28.4529247 61.7736874,27.4542753 60.7079391,27.1600416 C59.8140053,26.9144312 58.5639921,27.4580156 58.4096079,28.4653922 C58.0535285,30.795574 58.0535285,33.0534442 58.4096079,35.383626 C58.5639921,36.3922494 59.8140053,36.934587 60.7079391,36.6889766 C61.7736874,36.3959896 62.1658728,35.3960935 62.0114887,34.3874701 C61.7662172,32.7791584 61.7662172,31.0698597 62.0114887,29.4615481" id="Fill-66" fill="#FFFFFF"></path>
      <path d="M52.7405987,48.5999584 C52.7132079,46.1899844 48.9781086,46.1862442 49.0054993,48.5999584 C49.0254199,50.3715948 49.2968371,52.1270234 49.3167576,53.8986597 C49.3441483,56.3086338 53.0792477,56.312374 53.051857,53.8986597 C53.0319364,52.1270234 52.7605192,50.3715948 52.7405987,48.5999584" id="Fill-68" fill="#FFFFFF"></path>
      <path d="M77.2631444,83.6344727 C76.9917272,82.1608104 77.0191179,80.6397714 77.0191179,79.1449143 C77.0178728,76.7336935 73.2827735,76.7336935 73.2840185,79.1449143 C73.2840185,80.9863688 73.3263497,82.8141091 73.6612636,84.6306286 C73.8467735,85.6342649 75.0420053,86.1890701 75.9595947,85.9359792 C77.0029325,85.6479792 77.4474093,84.6368623 77.2631444,83.6344727" id="Fill-70" fill="#FFFFFF"></path>
      <path d="M90.7141086,84.132426 C90.3928901,81.535439 90.1015523,78.9372052 89.7803338,76.3402182 C89.487751,73.9788675 85.7489166,73.9501922 86.0452344,76.3402182 C86.366453,78.9372052 86.6577907,81.535439 86.9790093,84.132426 C87.2715921,86.4937766 91.0091815,86.5224519 90.7141086,84.132426" id="Fill-72" fill="#FFFFFF"></path>
      <path d="M99.1741086,77.2668052 C98.7333669,76.3491948 97.4435126,76.1110649 96.6193007,76.5948052 C95.6892609,77.1396364 95.5074861,78.2355325 95.9494728,79.1543896 C96.3752742,80.0395844 96.6105854,80.9709091 96.6280159,81.9508571 C96.670347,84.3595844 100.405446,84.3633247 100.363115,81.9508571 C100.334479,80.2839481 99.8937377,78.7591688 99.1741086,77.2668052" id="Fill-74" fill="#FFFFFF"></path>
      <path d="M111.190297,81.4526545 C110.893979,80.4789403 109.895462,79.8705247 108.893211,80.1473039 C107.93329,80.4116156 107.292098,81.4726026 107.588416,82.4488104 C107.7428,82.9549922 107.771436,83.2130701 107.801317,83.6656416 C107.839913,84.2354078 107.833687,84.8076675 107.833687,85.3786805 C107.834932,87.7911481 111.570032,87.7911481 111.568787,85.3786805 C111.568787,84.0733299 111.575012,82.7156156 111.190297,81.4526545" id="Fill-76" fill="#FFFFFF"></path>
      <path d="M135.779701,131.946161 C135.503303,130.190732 135.433581,128.407875 135.157184,126.64746 C134.999065,125.638836 133.756522,125.095252 132.860098,125.342109 C131.79684,125.635096 131.397184,126.636239 131.555303,127.643616 C131.831701,129.399044 131.902668,131.181901 132.17782,132.942317 C132.335939,133.949694 133.578482,134.494525 134.474906,134.247668 C135.539409,133.954681 135.93782,132.953538 135.779701,131.946161" id="Fill-78" fill="#FFFFFF"></path>
      <path d="M146.051224,122.595512 C145.685184,121.645486 144.809926,120.999668 143.754138,121.290161 C142.846509,121.539512 142.082058,122.637901 142.449343,123.591668 C142.973502,124.951875 143.295966,126.30959 143.317131,127.768291 C143.350747,130.178265 147.085846,130.182005 147.05223,127.768291 C147.026085,125.990421 146.689926,124.253694 146.051224,122.595512" id="Fill-80" fill="#FFFFFF"></path>
      <path d="M134.045992,111.063044 C133.452111,113.593953 133.357489,116.142317 133.356244,118.72933 C133.354999,121.141797 137.090098,121.141797 137.091343,118.72933 C137.092588,116.473953 137.131184,114.26346 137.647873,112.0592 C138.196932,109.711564 134.595052,108.715408 134.045992,111.063044" id="Fill-82" fill="#FFFFFF"></path>
    </g>
  </g>
</svg>
