<?xml version="1.0" encoding="utf-8"?>
<svg viewBox="1169 1774.832 125.785 127.444" width="125.785" height="127.444" xmlns="http://www.w3.org/2000/svg">
  <g id="Page-1-Copy" transform="matrix(1, 0, 0, 1, 1169, 1774)">
    <g id="Group-9" transform="translate(0.000000, 0.108194)">
      <mask id="mask-22" fill="white">
        <polygon points="125.784 128.168 0 128.168 0 0.724 125.784 0.724"/>
      </mask>
      <g id="Clip-8"/>
      <path d="M114.152078,71.5314987 C111.982542,74.1114987 109.646118,76.6082729 107.142807,78.9385955 C106.975919,78.272789 106.809032,77.6902084 106.642144,77.0244019 C107.22625,76.6914987 107.476581,75.8592406 107.142807,75.27666 C106.558701,74.1114987 106.224926,72.7798858 105.974595,71.4482729 C106.558701,71.2818213 107.059363,70.6992406 106.725588,69.9502084 C106.224926,68.7850471 105.974595,67.6198858 105.724264,66.4547245 C106.058038,66.6211761 106.391813,66.7876277 106.642144,66.9540794 C107.643469,67.4534342 108.811681,66.6211761 108.477906,65.5392406 C107.977244,63.7082729 107.393138,61.8773052 106.642144,60.0463374 C107.643469,60.3792406 108.56135,60.7953697 109.395787,61.3779503 C109.813005,61.7108535 110.230224,61.6276277 110.563999,61.4611761 C112.065985,62.37666 113.401085,63.5418213 114.65274,64.6237568 C117.656714,67.2869826 116.405058,68.8682729 114.152078,71.5314987 L114.152078,71.5314987 Z M96.0447934,86.012789 C96.0447934,85.0140794 95.7944623,84.0985955 95.4606874,83.1831116 C95.2103563,82.600531 95.7110185,81.8514987 96.2951245,81.6850471 C96.9626742,81.4353697 97.5467801,81.8514987 97.7971113,82.5173052 C98.2143298,83.5992406 98.4646609,84.7644019 98.5481046,86.012789 C98.5481046,87.5940794 96.0447934,87.5940794 96.0447934,86.012789 L96.0447934,86.012789 Z M93.0408199,46.3973052 C93.0408199,45.3985955 92.8739325,44.3998858 92.707045,43.4011761 C92.5401576,42.7353697 92.8739325,42.0695632 93.5414821,41.9031116 C94.1255881,41.6534342 94.8765815,42.0695632 95.0434689,42.7353697 C95.2938,43.9837568 95.5441311,45.1489181 95.5441311,46.3973052 C95.5441311,47.9785955 93.0408199,47.9785955 93.0408199,46.3973052 L93.0408199,46.3973052 Z M90.8712834,66.2050471 C90.6209523,65.2063374 90.4540649,64.0411761 90.704396,63.0424665 C91.1216146,61.4611761 93.5414821,62.1269826 93.1242636,63.7082729 L93.1242636,63.8747245 L93.1242636,63.8838794 L93.1242636,64.0411761 L93.1242636,64.540531 C93.2077073,64.540531 93.2077073,64.7902084 93.2077073,64.7902084 C93.291151,64.8734342 93.291151,64.95666 93.291151,65.0398858 C93.291151,65.1231116 93.291151,65.2895632 93.3745947,65.4560148 C93.875257,66.9540794 91.4553894,67.6198858 90.8712834,66.2050471 L90.8712834,66.2050471 Z M92.1229391,75.3598858 C91.7891642,76.8579503 91.7891642,78.3560148 91.7891642,79.8540794 C91.7891642,81.4353697 89.285853,81.4353697 89.285853,79.8540794 C89.285853,78.1895632 89.3692967,76.4418213 89.7865152,74.7773052 C90.1202901,73.1960148 92.5401576,73.8618213 92.1229391,75.3598858 L92.1229391,75.3598858 Z M90.0368464,90.2573052 C89.4527404,90.4237568 88.6183033,90.0908535 88.5348596,89.4250471 C88.3679722,88.2598858 88.2845285,87.0947245 88.1176411,85.9295632 C87.9507536,85.2637568 88.2010848,84.5979503 88.9520781,84.4314987 C89.5361841,84.2650471 90.3706212,84.5979503 90.4540649,85.2637568 C90.6209523,86.4289181 90.704396,87.5940794 90.8712834,88.7592406 C91.0381709,89.4250471 90.7878397,90.0908535 90.0368464,90.2573052 L90.0368464,90.2573052 Z M86.7825417,56.7173052 C86.3653232,55.2192406 85.9481046,53.6379503 85.5308861,52.1398858 C85.1136675,50.5585955 87.5335351,49.892789 87.9507536,51.4740794 C88.3679722,52.9721439 88.7851907,54.5534342 89.2024093,56.0514987 C89.6196278,57.632789 87.1997603,58.2985955 86.7825417,56.7173052 L86.7825417,56.7173052 Z M86.2818795,44.4831116 C86.8659854,44.1502084 87.7004225,44.31666 88.0341974,44.8992406 C88.3679722,45.5650471 88.5348596,46.2308535 88.7851907,46.89666 C89.0355219,47.5624665 88.6183033,48.2282729 87.8673099,48.4779503 C87.1997603,48.7276277 86.6156543,48.3114987 86.3653232,47.6456923 C86.2818795,47.312789 86.1149921,47.0631116 86.0315483,46.7302084 C85.9481046,46.5637568 85.9481046,46.480531 85.8646609,46.3140794 C85.9481046,46.3973052 85.9481046,46.3973052 85.8646609,46.2308535 C85.5308861,45.5650471 85.6977735,44.8160148 86.2818795,44.4831116 L86.2818795,44.4831116 Z M92.1229391,50.6418213 C92.707045,52.2231116 93.1242636,53.8044019 93.3745947,55.4689181 C93.5414821,56.1347245 93.291151,56.800531 92.4567139,56.9669826 C91.8726079,57.1334342 91.0381709,56.800531 90.9547272,56.1347245 C90.704396,54.4702084 90.2871775,52.8889181 89.7030715,51.3076277 C89.1189656,49.8095632 91.5388331,49.1437568 92.1229391,50.6418213 L92.1229391,50.6418213 Z M96.4620119,52.1398858 C97.0461179,51.9734342 97.880555,52.3063374 97.9639987,52.9721439 C98.2143298,54.3869826 98.4646609,55.8018213 98.4646609,57.2998858 C98.4646609,58.8811761 95.9613497,58.8811761 95.9613497,57.2998858 C95.9613497,56.0514987 95.7944623,54.8031116 95.6275748,53.6379503 C95.4606874,52.9721439 95.7944623,52.3063374 96.4620119,52.1398858 L96.4620119,52.1398858 Z M80.0236013,83.5160148 C77.8540649,85.6798858 74.3494291,86.1792406 71.512343,86.6785955 C67.9242636,87.3444019 64.2527404,87.760531 60.5812172,87.6773052 C56.4924755,87.5940794 52.7375086,87.0114987 48.899098,85.7631116 C46.8130053,85.0973052 44.1428066,84.3482729 42.6408199,82.6837568 C39.1361841,78.7721439 38.301747,72.0308535 39.8037338,67.120531 C40.0540649,66.3714987 40.9719457,65.8721439 41.6394954,66.3714987 C42.1401576,66.6211761 42.5573762,66.9540794 43.0580384,67.2037568 C43.2249258,67.2037568 43.3918132,67.2037568 43.5587007,67.2869826 C44.987257,67.894531 46.4350053,68.3922213 47.8969391,68.80086 C48.1973364,68.8657761 48.5002371,68.9506665 48.8073099,69.0472084 C54.0667669,70.371331 59.5114689,70.5103181 65.0037338,69.9502084 C70.5944623,69.3676277 76.2686344,69.3676277 80.9414821,65.8721439 C81.275257,65.6224665 81.6090318,65.6224665 81.9428066,65.7056923 C82.6938,65.2063374 83.8620119,65.6224665 83.8620119,66.7044019 C84.0288993,72.280531 84.1957868,79.3547245 80.0236013,83.5160148 L80.0236013,83.5160148 Z M77.1030715,101.409563 C76.4355219,101.659241 75.8514159,101.243112 75.6010848,100.577305 C75.3507536,99.9114987 75.1004225,99.1624665 75.1004225,98.4134342 C75.1004225,97.7476277 75.6845285,97.1650471 76.3520781,97.1650471 C77.0196278,97.1650471 77.6037338,97.7476277 77.6037338,98.4134342 C77.6037338,98.9960148 77.7706212,99.4953697 77.9375086,99.9947245 C78.1878397,100.577305 77.7706212,101.326337 77.1030715,101.409563 L77.1030715,101.409563 Z M68.0077073,100.577305 C68.0077073,99.5785955 67.8408199,98.6631116 67.6739325,97.7476277 C67.507045,97.0818213 67.8408199,96.4160148 68.5083695,96.2495632 C69.0924755,95.9998858 69.8434689,96.4160148 70.0103563,97.0818213 C70.2606874,98.1637568 70.5110185,99.3289181 70.5110185,100.577305 C70.5110185,102.158595 68.0077073,102.158595 68.0077073,100.577305 L68.0077073,100.577305 Z M68.1745947,107.568273 C67.507045,107.81795 66.9229391,107.401821 66.6726079,106.736015 C66.6726079,106.652789 66.5891642,106.569563 66.5891642,106.486337 L66.5891642,106.403112 C66.5057205,106.23666 66.5057205,106.153434 66.4222768,106.070208 C66.3388331,105.820531 66.1719457,105.570854 66.0050583,105.321176 C65.5878397,104.738595 65.8381709,103.906337 66.4222768,103.573434 C67.0898265,103.157305 67.8408199,103.406983 68.1745947,103.989563 C68.5918132,104.65537 68.9255881,105.321176 69.1759192,105.986983 C69.4262503,106.652789 68.9255881,107.318595 68.1745947,107.568273 L68.1745947,107.568273 Z M65.6712834,101.326337 C65.6712834,102.907628 63.1679722,102.907628 63.1679722,101.326337 L63.1679722,98.4134342 C63.1679722,96.8321439 65.6712834,96.8321439 65.6712834,98.4134342 L65.6712834,101.326337 Z M61.0818795,106.153434 C61.0818795,107.734725 58.5785682,107.734725 58.5785682,106.153434 L58.5785682,105.321176 C58.5785682,103.65666 61.0818795,103.65666 61.0818795,105.321176 L61.0818795,106.153434 Z M58.1613497,99.4121439 L58.1613497,95.0844019 C58.1613497,93.5031116 60.6646609,93.5031116 60.6646609,95.0844019 L60.6646609,99.4121439 C60.6646609,100.993434 58.1613497,100.993434 58.1613497,99.4121439 L58.1613497,99.4121439 Z M55.6580384,101.742466 C55.6580384,103.323757 53.1547272,103.323757 53.1547272,101.742466 L53.1547272,98.8295632 C53.1547272,97.2482729 55.6580384,97.2482729 55.6580384,98.8295632 L55.6580384,101.742466 Z M39.1361841,19.6818213 C39.2196278,19.0160148 40.0540649,18.6831116 40.6381709,18.8495632 C41.3057205,19.0160148 41.5560517,19.6818213 41.4726079,20.3476277 C41.3057205,21.3463374 41.3057205,22.5114987 41.4726079,23.5934342 C41.6394954,24.2592406 41.3891642,24.9250471 40.6381709,25.0914987 C40.0540649,25.2579503 39.2196278,24.9250471 39.1361841,24.2592406 C38.885853,22.7611761 38.885853,21.2631116 39.1361841,19.6818213 L39.1361841,19.6818213 Z M34.7136675,27.3385955 C34.1295616,27.5050471 33.2951245,27.1721439 33.2116808,26.5063374 C32.9613497,25.0914987 32.9613497,23.67666 32.9613497,22.2618213 C32.9613497,20.680531 35.4646609,20.680531 35.4646609,22.2618213 C35.4646609,23.5102084 35.4646609,24.7585955 35.6315483,25.9237568 C35.7149921,26.5895632 35.4646609,27.2553697 34.7136675,27.3385955 L34.7136675,27.3385955 Z M35.3812172,36.57666 C35.3812172,38.1579503 32.877906,38.1579503 32.877906,36.57666 C32.877906,35.4114987 32.7110185,34.2463374 32.7110185,33.0811761 C32.7110185,31.4998858 35.2143298,31.4998858 35.2143298,33.0811761 C35.2977735,34.2463374 35.4646609,35.4114987 35.3812172,36.57666 L35.3812172,36.57666 Z M33.1282371,66.9540794 C32.7944623,68.5353697 30.3745947,67.8695632 30.7083695,66.2882729 C30.875257,65.4560148 30.875257,64.7069826 30.875257,63.8747245 C30.875257,62.2934342 33.3785682,62.2934342 33.3785682,63.9579503 C33.3785682,64.95666 33.3785682,65.9553697 33.1282371,66.9540794 L33.1282371,66.9540794 Z M32.0434689,95.4173052 C31.4593629,95.5837568 30.6249258,95.2508535 30.5414821,94.5850471 C30.3745947,93.5031116 30.291151,92.3379503 30.1242636,91.2560148 C29.9573762,90.5902084 30.291151,89.9244019 30.9587007,89.7579503 C31.5428066,89.5914987 32.3772437,89.9244019 32.4606874,90.5902084 C32.6275748,91.6721439 32.7110185,92.8373052 32.877906,93.9192406 C33.0447934,94.5850471 32.7110185,95.2508535 32.0434689,95.4173052 L32.0434689,95.4173052 Z M27.1202901,66.3714987 C26.8699589,65.1231116 26.6196278,63.8747245 26.6196278,62.5431116 C26.5361841,61.5444019 27.6209523,61.1282729 28.3719457,61.4611761 C28.5388331,60.9618213 28.7891642,60.4624665 29.2063828,60.0463374 C29.6236013,59.5469826 30.4580384,59.5469826 30.9587007,60.0463374 C31.4593629,60.5456923 31.3759192,61.3779503 31.1255881,61.6276277 L31.0421444,61.7108535 C30.9587007,61.7108535 30.9587007,61.7940794 30.9587007,61.7940794 C30.875257,61.8773052 30.875257,62.0437568 30.7918132,62.1269826 C30.7918132,62.2102084 30.7083695,62.37666 30.7083695,62.37666 C30.6249258,62.5431116 30.6249258,62.6263374 30.5414821,62.792789 C30.3745947,63.3753697 29.7904887,63.7914987 29.2063828,63.7082729 C29.2898265,64.3740794 29.3732702,65.0398858 29.5401576,65.7056923 C29.8739325,67.2869826 27.4540649,67.952789 27.1202901,66.3714987 L27.1202901,66.3714987 Z M26.0355219,92.8373052 C26.0355219,92.0882729 26.0355219,91.4224665 25.8686344,90.6734342 C25.5348596,89.0921439 27.9547272,88.4263374 28.288502,90.0076277 C28.5388331,90.9231116 28.5388331,91.8385955 28.5388331,92.8373052 C28.5388331,94.4185955 26.0355219,94.4185955 26.0355219,92.8373052 L26.0355219,92.8373052 Z M23.7825417,60.2960148 C23.7825417,58.8811761 23.7825417,57.4663374 24.0328728,56.0514987 C24.1163166,55.3856923 24.9507536,55.052789 25.5348596,55.2192406 C26.285853,55.3856923 26.5361841,56.0514987 26.4527404,56.6340794 C26.285853,57.8824665 26.285853,59.1308535 26.285853,60.2960148 C26.285853,61.8773052 23.7825417,61.8773052 23.7825417,60.2960148 L23.7825417,60.2960148 Z M26.4527404,50.5585955 C26.5361841,49.892789 26.9534026,49.3102084 27.704396,49.3102084 C28.288502,49.3102084 29.0394954,49.892789 28.9560517,50.5585955 C28.7891642,52.05666 29.1229391,53.3882729 29.5401576,54.8031116 C30.0408199,56.3844019 27.6209523,57.0502084 27.1202901,55.4689181 C26.7030715,53.8876277 26.285853,52.2231116 26.4527404,50.5585955 L26.4527404,50.5585955 Z M30.2077073,21.2631116 C31.709694,21.0134342 31.7931377,23.0108535 30.6249258,23.5934342 C30.6249258,23.5934342 30.6249258,23.67666 30.5414821,23.8431116 C30.4580384,24.1760148 30.3745947,24.4256923 30.3745947,24.6753697 C30.291151,25.2579503 30.2077073,25.9237568 30.2077073,26.5895632 L30.2077073,29.7521439 C30.2077073,31.3334342 27.704396,31.3334342 27.704396,29.7521439 C27.704396,27.5050471 26.9534026,21.6792406 30.2077073,21.2631116 L30.2077073,21.2631116 Z M32.9613497,54.5534342 C32.9613497,55.2192406 32.9613497,55.7185955 33.1282371,56.3011761 C33.2951245,56.8837568 32.877906,57.632789 32.2103563,57.7992406 C31.5428066,58.0489181 30.875257,57.632789 30.7083695,56.9669826 C30.4580384,56.2179503 30.4580384,55.3856923 30.4580384,54.5534342 C30.4580384,52.9721439 32.9613497,52.9721439 32.9613497,54.5534342 L32.9613497,54.5534342 Z M51.485853,53.4714987 C51.485853,54.4702084 51.485853,55.4689181 51.6527404,56.4676277 C51.8196278,57.1334342 51.485853,57.7992406 50.7348596,57.9656923 C50.1507536,58.1321439 49.3163166,57.7992406 49.2328728,57.1334342 C48.9825417,55.8850471 48.9825417,54.7198858 48.9825417,53.4714987 C48.9825417,51.8902084 51.485853,51.8902084 51.485853,53.4714987 L51.485853,53.4714987 Z M52.7375086,35.3282729 C52.8209523,35.2450471 52.8209523,35.1618213 52.904396,35.0785955 C53.5719457,34.412789 54.4898265,34.7456923 54.907045,35.3282729 C54.9904887,35.4114987 54.9904887,35.4947245 55.0739325,35.5779503 C55.1573762,35.6611761 55.2408199,35.6611761 55.3242636,35.7444019 C55.8249258,35.9940794 55.9918132,36.4934342 55.9083695,36.9095632 C56.3255881,37.8250471 56.4090318,38.9902084 55.9918132,40.0721439 C55.9083695,40.2385955 55.9083695,40.4050471 55.8249258,40.5714987 L55.8249258,40.7379503 C55.8249258,40.9044019 55.7414821,41.0708535 55.5745947,41.2373052 C54.9904887,42.3192406 54.0726079,43.1514987 52.8209523,42.7353697 C49.8169788,41.73666 50.4010848,36.4102084 52.7375086,35.3282729 L52.7375086,35.3282729 Z M59.9971113,51.640531 C60.2474424,53.3050471 60.4143298,55.052789 60.6646609,56.800531 C60.9149921,58.3818213 58.4116808,58.3818213 58.1613497,56.800531 C57.9110185,55.1360148 57.7441311,53.3882729 57.4938,51.640531 C57.3269126,50.0592406 59.8302238,50.0592406 59.9971113,51.640531 L59.9971113,51.640531 Z M64.5865152,51.8069826 C65.1706212,51.4740794 66.0050583,51.640531 66.3388331,52.2231116 C66.8394954,53.2218213 67.1732702,54.220531 67.0898265,55.3856923 C67.0898265,56.9669826 64.5865152,56.9669826 64.5865152,55.3856923 C64.5865152,54.8031116 64.4196278,54.1373052 64.1692967,53.5547245 C63.8355219,52.8889181 64.0024093,52.1398858 64.5865152,51.8069826 L64.5865152,51.8069826 Z M69.0090318,35.3282729 C69.0924755,35.2450471 69.0924755,35.1618213 69.1759192,35.0785955 C69.8434689,34.412789 70.7613497,34.7456923 71.1785682,35.3282729 C71.2620119,35.4114987 71.2620119,35.4947245 71.3454556,35.5779503 C71.4288993,35.6611761 71.512343,35.6611761 71.5957868,35.7444019 C72.096449,35.9940794 72.2633364,36.4934342 72.1798927,36.9095632 C72.5971113,37.8250471 72.680555,38.9902084 72.2633364,40.0721439 C72.1798927,40.2385955 72.1798927,40.4050471 72.096449,40.5714987 L72.096449,40.7379503 C72.096449,40.9044019 72.0130053,41.0708535 71.8461179,41.2373052 C71.2620119,42.3192406 70.3441311,43.1514987 69.0924755,42.7353697 C66.088502,41.73666 66.6726079,36.4102084 69.0090318,35.3282729 L69.0090318,35.3282729 Z M74.4328728,55.052789 C74.683204,55.8850471 74.683204,56.800531 74.7666477,57.7160148 C74.7666477,59.2973052 72.2633364,59.2973052 72.2633364,57.7160148 L72.2633364,56.5508535 C72.1798927,56.2179503 72.1798927,56.0514987 72.096449,55.7185955 C71.8461179,55.1360148 72.2633364,54.3869826 72.9308861,54.220531 C73.5984358,53.9708535 74.2659854,54.3869826 74.4328728,55.052789 L74.4328728,55.052789 Z M73.5984358,17.2682729 C73.5984358,15.6869826 76.101747,15.6869826 76.101747,17.2682729 L76.101747,20.5973052 C76.101747,22.1785955 73.5984358,22.1785955 73.5984358,20.5973052 L73.5984358,17.2682729 Z M77.1030715,24.4256923 C77.1030715,25.6740794 77.0196278,27.0056923 76.8527404,28.2540794 C76.7692967,28.9198858 75.9348596,29.252789 75.3507536,29.0863374 C74.683204,28.9198858 74.4328728,28.2540794 74.5163166,27.5882729 C74.683204,26.5063374 74.683204,25.4244019 74.683204,24.3424665 C74.683204,22.7611761 77.1865152,22.7611761 77.1030715,24.4256923 L77.1030715,24.4256923 Z M77.1030715,16.352789 C77.6871775,16.1031116 78.4381709,16.5192406 78.6050583,17.1850471 C78.7719457,18.0173052 78.8553894,18.8495632 78.9388331,19.8482729 C78.9388331,21.4295632 76.4355219,21.4295632 76.4355219,19.8482729 C76.4355219,19.0992406 76.4355219,18.51666 76.2686344,17.8508535 C76.101747,17.2682729 76.4355219,16.5192406 77.1030715,16.352789 L77.1030715,16.352789 Z M79.6898265,17.5179503 C79.6898265,15.8534342 82.1931377,15.8534342 82.109694,17.6011761 C82.109694,18.6831116 82.109694,19.8482729 81.8593629,21.0134342 C81.7759192,21.6792406 80.9414821,22.0121439 80.3573762,21.8456923 C79.6898265,21.6792406 79.4394954,21.0134342 79.5229391,20.3476277 C79.6898265,19.3489181 79.6898265,18.4334342 79.6898265,17.5179503 L79.6898265,17.5179503 Z M21.112343,84.0985955 C20.761045,83.432789 20.3813762,82.78446 19.9941974,82.1411245 C19.9716675,82.1036729 19.9466344,82.0678858 19.9291113,82.0262729 C16.6514424,76.5974535 12.2756543,71.8435955 9.0130053,66.3714987 C11.5163166,63.8747245 14.1030715,61.7108535 16.8567139,59.5469826 C17.0236013,59.7134342 17.2739325,59.8798858 17.6077073,59.8798858 C16.5229391,62.7095632 15.3547272,65.4560148 14.2699589,68.2856923 C13.8527404,69.4508535 15.1878397,70.11666 16.1057205,69.700531 C16.4394954,69.5340794 16.7732702,69.3676277 17.107045,69.2011761 C16.7732702,71.1985955 16.9401576,73.1960148 17.0236013,75.27666 C17.0236013,76.4418213 18.3587007,76.7747245 19.1931377,76.1921439 C19.4434689,75.9424665 19.7772437,75.7760148 20.0275748,75.6095632 C19.6103563,77.6069826 19.5269126,79.6044019 19.8606874,81.7682729 C19.8698662,81.8623181 19.8957338,81.9472084 19.9291113,82.0262729 C19.9516411,82.0637245 19.9716675,82.1028406 19.9941974,82.1411245 C20.3146212,82.6629503 21.1440517,82.7927826 21.696449,82.5173052 C21.5295616,83.01666 21.2792305,83.5160148 21.112343,84.0985955 L21.112343,84.0985955 Z M123.247442,61.2947245 C117.57327,56.8837568 111.398436,53.6379503 105.390489,49.892789 C105.056714,48.8940794 105.223601,47.7289181 106.141482,46.480531 C106.475257,45.9811761 106.30837,45.3985955 105.974595,44.9824665 C104.556052,43.3179503 103.888502,41.320531 102.636846,39.572789 C102.970621,39.4063374 103.38784,39.3231116 103.721615,39.3231116 C104.472608,39.2398858 104.889826,38.0747245 104.472608,37.4921439 C103.137509,35.6611761 102.219628,34.412789 100.550754,33.6637568 C102.219628,31.3334342 101.885853,29.252789 100.050091,27.9211761 C100.300423,27.9211761 100.46731,27.9211761 100.717641,27.8379503 C101.801575,27.7547245 102.386515,26.5895632 101.635522,25.6740794 C101.468634,25.4244019 101.218303,25.1747245 101.051416,25.0082729 C101.801575,25.0082729 102.469959,24.9250471 103.304396,24.9250471 C104.639495,24.8418213 104.889826,23.3437568 103.971946,22.5947245 C103.887668,22.5114987 103.805058,22.5114987 103.805058,22.4282729 C104.304886,22.3450471 104.889826,22.3450471 105.473932,22.4282729 C106.058038,22.5114987 106.475257,22.1785955 106.558701,21.6792406 C106.892475,21.7624665 107.225416,21.8456923 107.642634,21.9289181 C108.811681,22.1785955 109.47923,21.09666 109.062012,20.0979503 C108.978568,20.0147245 108.978568,19.9314987 108.89429,19.7650471 C109.813005,19.6818213 110.730886,19.5153697 111.732211,19.4321439 C112.816979,19.3489181 113.401085,18.1837568 112.649257,17.3514987 C112.983866,17.2682729 113.234197,17.1850471 113.401085,16.9353697 L114.235522,16.9353697 C114.73535,16.9353697 115.403734,16.5192406 115.403734,16.0198858 C115.654065,14.3553697 115.987005,13.1902084 116.905721,11.7753697 C117.238661,11.2760148 117.072608,10.77666 116.821442,10.360531 C117.238661,9.94440194 117.57327,9.5282729 117.990489,9.11214387 C118.824926,8.19666 117.990489,6.69859548 116.738833,7.03149871 C114.569297,7.61407935 112.900423,7.36440194 110.980383,6.9482729 C111.231548,6.44891806 111.565323,6.03278903 111.899098,5.53343419 C112.649257,4.61795032 111.481879,3.45278903 110.480555,3.70246645 C110.063336,3.78569226 109.728727,3.86891806 109.311509,3.95214387 C109.646118,3.36956323 109.47923,2.70375677 109.062012,2.28762774 C109.228899,1.45536968 108.477072,0.45666 107.560025,0.789563226 C106.642144,1.12246645 105.724264,1.53859548 104.806383,1.87149871 C104.138833,2.12117613 103.38784,2.45407935 102.636012,2.70375677 C102.553403,2.70375677 102.469959,2.78698258 102.386515,2.78698258 C101.969297,2.37085355 101.218303,2.28762774 100.717641,2.78698258 C100.46731,3.03666 100.216979,3.28633742 100.050091,3.61924065 C99.7997603,3.95214387 99.7997603,4.53472452 100.050091,4.86762774 C100.132701,4.95085355 100.216979,5.11730516 100.300423,5.20053097 C100.132701,5.36698258 99.883204,5.53343419 99.7154821,5.69988581 C97.3798927,6.19924065 95.0434689,6.9482729 92.7904887,7.78053097 C92.5401576,7.53085355 92.1229391,7.36440194 91.6222768,7.53085355 C88.8678,8.27988581 86.0315483,9.94440194 83.277906,10.8598858 C82.8606874,10.360531 82.109694,10.1940794 81.5255881,10.77666 C81.275257,11.0263374 81.1083695,11.2760148 80.8580384,11.5256923 C80.8580384,11.192789 80.7745947,10.77666 80.7745947,10.360531 C80.691151,9.61149871 80.0236013,8.94569226 79.1891642,9.19536968 C77.9375086,9.5282729 76.685853,9.4450471 75.3507536,9.5282729 C75.4341974,8.61278903 75.4341974,7.69730516 75.6845285,6.8650471 C75.9340252,5.78311161 74.8500914,4.95085355 73.8479325,5.45020839 C72.4302238,6.19924065 70.8447934,6.53214387 69.2585285,7.03149871 C69.1759192,6.61536968 69.0924755,6.11601484 69.0090318,5.61666 C68.8413099,4.70117613 67.507045,4.45149871 66.9229391,5.03407935 C64.5865152,7.53085355 61.9163166,7.86375677 59.2461179,5.61666 C58.4951245,4.95085355 57.4938,5.28375677 57.1600252,6.19924065 C55.8249258,9.94440194 53.1547272,7.61407935 51.7361841,6.53214387 C50.8183033,5.86633742 49.6500914,6.9482729 49.9004225,7.94698258 C50.0673099,8.69601484 50.2341974,9.5282729 50.4010848,10.2773052 C49.6500914,10.5269826 48.899098,10.77666 48.0646609,11.1095632 C46.1454556,10.9431116 44.3931377,10.360531 42.4739325,9.77795032 C41.4726079,9.4450471 40.8050583,10.360531 40.9719457,11.192789 C40.304396,11.2760148 39.7202901,11.2760148 39.0527404,11.3592406 C34.4633364,7.94698258 27.704396,8.36311161 22.280555,7.94698258 C21.7798927,7.94698258 21.4461179,8.19666 21.1957868,8.52956323 C19.5269126,7.78053097 17.8580384,6.9482729 16.1891642,6.03278903 C15.3547272,5.53343419 14.5202901,6.19924065 14.3534026,6.9482729 C13.1851907,6.61536968 12.0169788,6.19924065 10.7653232,5.61666 C10.0143298,5.28375677 9.26333642,5.69988581 9.0130053,6.28246645 C8.59578675,6.11601484 8.26201192,5.86633742 7.84479338,5.61666 C7.26068742,5.28375677 6.76002517,5.45020839 6.34280662,5.78311161 C6.00903179,5.61666 5.67525695,5.36698258 5.34148212,5.20053097 C4.42360132,4.70117613 3.08850199,5.53343419 3.50572053,6.61536968 C3.83949536,7.44762774 4.1732702,8.36311161 4.59048874,9.19536968 C4.34015762,9.36182129 4.25671391,9.69472452 4.25671391,10.0276277 L4.25671391,10.2773052 C4.34015762,10.8598858 4.67393245,11.3592406 5.25803841,11.5256923 L6.42625033,12.6908535 C4.25671391,13.8560148 3.1719457,16.6856923 2.2540649,19.2656923 C1.92029007,20.2644019 3.2553894,21.2631116 4.08982649,20.680531 C4.50704503,20.3476277 5.00770728,20.0979503 5.42492583,19.7650471 C5.1745947,20.2644019 5.00770728,20.8469826 4.75737616,21.3463374 C4.42360132,22.2618213 5.1745947,22.8444019 6.00903179,22.8444019 C6.00903179,23.7598858 6.92691258,24.4256923 7.84479338,24.0095632 C8.34545563,23.7598858 8.76267417,23.5934342 9.26333642,23.3437568 C9.51366755,23.67666 9.93088609,23.8431116 10.5149921,23.67666 C10.9322106,23.5102084 11.2659854,23.4269826 11.683204,23.3437568 C11.3494291,24.092789 11.0156543,24.7585955 10.5984358,25.3411761 C10.0143298,26.0902084 10.1812172,27.0889181 11.1825417,27.4218213 C12.4341974,27.8379503 13.685853,28.2540794 14.9375086,28.5869826 C14.0196278,29.252789 14.5202901,30.8340794 15.688502,30.8340794 L15.9388331,30.8340794 C15.0209523,31.6663374 14.1030715,32.4985955 13.101747,33.2476277 C12.1838662,33.99666 13.0183033,35.2450471 14.0196278,35.4114987 C14.7706212,35.4947245 15.4381709,35.6611761 16.1891642,35.8276277 C16.0222768,36.0773052 15.8553894,36.3269826 15.6050583,36.57666 C15.0209523,37.3256923 15.1878397,38.3244019 16.1891642,38.6573052 C16.5229391,39.4063374 16.8567139,40.2385955 17.1904887,40.9876277 C16.6898265,42.0695632 16.1057205,43.0682729 15.6050583,44.1502084 C15.0209523,45.3153697 16.6063828,46.8134342 17.6077073,45.6482729 C17.8580384,45.3153697 18.1918132,45.0656923 18.5255881,44.8160148 C18.1918132,46.2308535 18.0249258,47.5624665 18.1083695,48.9773052 C14.1865152,52.7224665 9.76399868,56.0514987 5.1745947,58.9644019 C2.33750861,60.7953697 0.0845284768,62.5431116 0.00108476821,66.1218213 C-0.0823589404,70.2831116 3.92293907,74.2779503 6.59313775,76.9411761 C10.5984358,80.9360148 14.6871775,84.4314987 18.3587007,88.8424665 C18.5255881,89.0921439 18.7759192,89.1753697 18.9428066,89.2585955 C18.6924755,89.8411761 18.5255881,90.4237568 18.3587007,91.0063374 C18.0249258,92.0882729 19.2765815,92.920531 20.1944623,92.4211761 C20.7785682,92.0882729 21.2792305,91.8385955 21.8633364,91.5056923 C21.1957868,94.3353697 19.8606874,97.0818213 18.9428066,99.9114987 C18.5255881,101.159886 20.1944623,101.908918 21.0288993,101.159886 C21.2792305,100.910208 21.5295616,100.660531 21.7798927,100.494079 C21.5295616,101.825692 21.3626742,103.074079 21.1957868,104.405692 C20.9454556,105.654079 22.280555,106.486337 23.2818795,105.654079 C23.699098,105.321176 24.1163166,104.905047 24.5335351,104.572144 C24.0328728,106.652789 23.9494291,108.899886 24.4500914,111.146983 C24.6169788,111.812789 25.1176411,112.062466 25.701747,112.062466 C25.8686344,112.312144 26.0355219,112.478595 26.4527404,112.645047 C27.9547272,113.061176 29.3732702,112.645047 30.7918132,111.979241 C30.9587007,111.896015 31.1255881,111.729563 31.2090318,111.563112 L32.4606874,111.563112 C32.6275748,111.896015 32.9613497,112.062466 33.4620119,112.145692 C33.712343,112.145692 34.0461179,112.145692 34.3798927,112.228918 C33.712343,112.811499 33.6288993,114.143112 34.7971113,114.309563 C39.8871775,115.225047 44.9772437,114.392789 49.9838662,113.726983 L49.9838662,117.305692 C49.9838662,118.970208 48.7322106,118.886983 47.3136675,119.219886 C44.9772437,119.719241 41.7229391,120.967628 40.888502,123.464402 C38.4686344,130.788273 53.488502,127.459241 56.3255881,127.126337 C56.8262503,127.043112 57.4103563,126.793434 57.4938,126.210854 C58.1613497,122.049563 57.4103563,117.888273 57.5772437,113.643757 C57.5772437,113.477305 57.5772437,113.394079 57.4938,113.227628 L61.3322106,113.227628 C61.7494291,113.227628 61.9997603,113.061176 62.2500914,112.894725 C63.6686344,112.811499 65.0871775,112.728273 66.5057205,112.811499 C66.6726079,113.061176 67.0063828,113.310854 67.4236013,113.310854 L67.507045,113.310854 C67.3401576,116.55666 66.8394954,119.968918 67.8408199,123.131499 C68.9255881,126.543757 72.3467801,127.459241 75.5176411,127.459241 C77.1865152,127.459241 84.5295616,125.461821 82.5269126,122.548918 C81.6924755,121.300531 79.8567139,120.385047 78.6050583,119.719241 C77.5202901,119.053434 77.1030715,119.219886 76.6024093,117.805047 C76.0183033,116.306983 76.0183033,114.892144 75.8514159,113.394079 C78.3547272,113.310854 80.7745947,113.144402 83.277906,112.728273 C83.6951245,112.645047 84.0288993,112.39537 84.112343,112.062466 C85.5308861,111.979241 87.0328728,111.896015 88.4514159,111.729563 C90.2037338,111.729563 91.9560517,111.812789 93.7083695,111.896015 C93.875257,112.145692 94.2090318,112.312144 94.6262503,112.312144 L97.3798927,112.312144 C97.7136675,112.312144 98.0474424,112.145692 98.2143298,111.896015 C98.8818795,111.812789 99.4659854,111.729563 100.133535,111.729563 C101.552078,111.646337 101.802409,109.732144 100.46731,109.316015 C100.300423,109.232789 100.133535,109.232789 99.883204,109.149563 C100.133535,108.899886 100.300423,108.566983 100.216979,108.234079 C100.634197,107.984402 100.884528,107.485047 100.717641,106.902466 C100.717641,106.652789 100.634197,106.486337 100.550754,106.23666 C101.385191,106.23666 102.05274,105.487628 101.802409,104.65537 C101.718966,104.405692 101.635522,104.239241 101.552078,103.989563 C102.386515,104.072789 103.220952,103.240531 102.887177,102.408273 C102.303072,100.993434 101.885853,99.4953697 101.385191,98.080531 C101.718966,98.1637568 102.136184,98.2469826 102.469959,98.4134342 C103.38784,98.7463374 104.222277,97.7476277 103.971946,96.9153697 C103.888502,96.4160148 103.721615,95.91666 103.638171,95.4173052 C104.556052,96.1663374 105.891151,95.1676277 105.64082,94.0856923 L104.889826,91.0063374 C105.223601,90.6734342 105.64082,90.340531 105.974595,89.9244019 C106.141482,89.9244019 106.224926,90.0076277 106.391813,90.0076277 C107.476581,90.4237568 108.311019,89.0921439 107.810356,88.17666 C107.726913,88.0934342 107.726913,88.0102084 107.643469,87.8437568 C109.145456,85.8463374 110.563999,83.7656923 112.316317,82.1844019 C116.738833,78.1895632 121.578568,74.7773052 124.499098,69.5340794 C126.418303,65.8721439 126.33486,63.7082729 123.247442,61.2947245 L123.247442,61.2947245 Z" id="Fill-7" fill="#7AC7C4" mask="url(#mask-22)"/>
    </g>
    <path d="M19.9942808,82.2489852 C19.971751,82.2115335 19.9517245,82.1724174 19.9291947,82.1341335 C19.9467179,82.1765787 19.971751,82.2115335 19.9942808,82.2489852" id="Fill-10" fill="#FFFFFF"/>
    <path d="M47.8966053,68.9088871 C48.199506,68.9937774 48.5032411,69.0795 48.8069762,69.1552355 C48.5007377,69.0586935 48.1970026,68.9746355 47.8966053,68.9088871" id="Fill-12" fill="#FFFFFF"/>
    <path d="M46.5626742,68.726789 C45.5613497,69.0596923 45.3110185,70.0584019 45.0606874,71.0571116 C44.8103563,71.7229181 44.6434689,72.4719503 44.5600252,73.1377568 C44.3931377,73.7203374 44.2262503,74.3029181 44.0593629,74.8854987 C43.8924755,75.5513052 44.0593629,76.2171116 44.8103563,76.466789 C45.8116808,76.7996923 46.896449,77.2158213 47.9812172,77.2990471 C48.4818795,77.3822729 49.1494291,77.0493697 49.2328728,76.466789 C49.6500914,74.8854987 50.4010848,73.3874342 50.8183033,71.7229181 C50.901747,71.5564665 50.901747,71.3900148 50.901747,71.1403374 L50.9851907,71.0571116 C51.0686344,70.6409826 50.8183033,69.7254987 50.1507536,69.5590471 C49.6876411,69.4433632 49.2428861,69.2927245 48.8073099,69.1554019 C48.5027404,69.0788342 48.1998397,68.9931116 47.8969391,68.9090535 C47.7016808,68.8657761 47.507257,68.8274923 47.3136675,68.8100148 C47.0633364,68.726789 46.8130053,68.6435632 46.5626742,68.726789" id="Fill-14" fill="#FFFFFF"/>
    <path d="M79.2727748,72.8047703 C79.1058874,72.1389639 78.939,71.3899316 78.7712781,70.7241252 C78.5217815,69.8086413 78.2714503,68.7267058 77.2701258,68.3938026 C77.0197947,68.3105768 76.7694636,68.3938026 76.5191325,68.4770284 C75.5178079,68.64348 74.5990927,68.9763832 73.5986026,69.2260606 C72.9302185,69.3925123 72.5972781,70.2247703 73.0144967,70.7241252 L73.0979404,70.807351 C73.0144967,71.0570284 73.0144967,71.22348 73.0979404,71.3899316 C73.4317152,73.0544477 74.1818742,74.5525123 74.5990927,76.1338026 C74.6833709,76.7163832 75.3509205,76.9660606 75.8507483,76.9660606 C76.936351,76.8828348 78.0211192,76.4667058 79.0224437,76.1338026 C79.7734371,75.8841252 79.9403245,75.2183187 79.7734371,74.5525123 C79.6057152,73.9699316 79.4396623,73.387351 79.2727748,72.8047703" id="Fill-16" fill="#FFFFFF"/>
  </g>
</svg>