
<svg width="479px" height="155px" viewBox="0 0 479 155" version="1.1" xmlns="http://www.w3.org/2000/svg" xmlns:xlink="http://www.w3.org/1999/xlink">
    <defs>
        <polygon id="path-1" points="0.409 0.514014301 133.751 0.514014301 133.751 151 0.409 151"></polygon>
        <polygon id="path-3" points="0 154.656 478.45 154.656 478.45 0 0 0"></polygon>
    </defs>
    <g id="Symbols" stroke="none" stroke-width="1" fill="none" fill-rule="evenodd">
        <g id="Group-46">
            <path d="M214.479,80.9324 C208.185,93.4074 198.188,100.4774 183.924,100.4774 C165.612,100.4774 150.892,86.8874 150.892,67.6814 C150.892,50.8284 165.719,36.0004 183.924,36.0004 C197.4,36.0004 209.423,43.5214 214.479,56.1084 L205.827,56.1084 C201.216,47.5634 193.021,43.0714 184.143,43.0714 C169.986,43.0714 158.756,54.1824 158.756,68.1204 C158.756,82.2844 169.879,93.4074 184.143,93.4074 C193.465,93.4074 201.442,89.1274 205.827,80.9324 L214.479,80.9324 Z" id="Fill-1" fill="#263958"></path>
            <path d="M275.0024,67.8953 C275.0024,54.5323 264.2174,43.0713 250.6284,43.0713 C237.2654,43.0713 226.4804,54.6333 226.4804,68.5603 C226.4804,82.0583 237.3664,93.4073 250.7404,93.4073 C264.5554,93.4073 275.0024,81.9463 275.0024,67.8953 M218.6154,68.6833 C218.6154,50.5913 233.2124,36.0003 250.6284,36.0003 C268.4834,36.0003 282.8604,51.0533 282.8604,68.2333 C282.8604,86.1003 267.9324,100.4773 250.6284,100.4773 C233.2124,100.4773 218.6154,85.7503 218.6154,68.6833" id="Fill-3" fill="#263958"></path>
            <path d="M344.9839,68.3455 C344.9839,54.6335 334.3109,43.0715 320.2599,43.0715 C305.8829,43.0715 295.2119,53.9575 295.2119,68.4475 C295.2119,82.4965 305.7709,93.4075 320.3739,93.4075 C333.9729,93.4075 344.9839,82.2835 344.9839,68.3455 L344.9839,68.3455 Z M344.5219,99.0125 L344.5219,88.2275 L344.3079,88.2275 C338.9049,96.1985 329.9209,100.4775 320.3739,100.4775 C301.9549,100.4775 287.3529,86.5385 287.3529,68.1205 C287.3529,49.7015 302.4049,36.0005 320.3739,36.0005 C329.9209,36.0005 339.0169,40.4925 344.3079,48.1255 L344.5219,48.1255 L344.5219,15.8825 L352.3909,15.8825 L352.3909,99.0125 L344.5219,99.0125 Z" id="Fill-5" fill="#263958"></path>
            <path d="M413.479,64.0789 C411.238,51.7179 401.466,43.0709 389.33,43.0709 C377.869,43.0709 367.647,51.3799 365.518,64.0789 L413.479,64.0789 Z M365.518,71.1489 C366.194,83.3969 377.43,93.4069 389.33,93.4069 C398.888,93.4069 407.985,87.8899 411.351,78.9169 L419.67,78.9169 C414.942,92.1689 402.581,100.4769 389.442,100.4769 C372.026,100.4769 357.435,86.3129 357.435,68.3459 C357.435,50.4899 372.138,36.0009 389.33,36.0009 C407.759,36.0009 421.562,51.8299 421.562,68.7959 C421.562,69.5839 421.45,70.3719 421.45,71.1489 L365.518,71.1489 Z" id="Fill-7" fill="#263958"></path>
            <path d="M131.0215,60.7756 C120.7535,21.0336 76.4755,-16.9394 48.5095,7.9516 C17.6735,35.3316 -7.2405,58.6816 1.9235,94.1456 C12.0555,133.3576 56.7955,171.0826 84.4345,146.9906 C113.6385,121.5026 141.0975,99.7746 131.0215,60.7756" id="Fill-9" fill="#263958"></path>
            <g id="Group-13" transform="translate(11.000000, 3.656000)">
                <mask id="mask-2" fill="white">
                    <use xlink:href="#path-1"></use>
                </mask>
                <g id="Clip-12"></g>
                <path d="M133.751,75.8691 C133.751,34.8221 100.381,-13.0259 67.08,4.0761 C30.378,22.8771 0.409,39.2571 0.409,75.8691 C0.409,116.3761 34.285,164.0891 67.08,147.6841 C101.733,130.3131 133.751,116.1401 133.751,75.8691" id="Fill-11" fill="#EE3C5A" mask="url(#mask-2)"></path>
            </g>
            <path d="M101.6548,81.8328 C101.6548,84.3098 100.7538,86.4488 98.9408,88.2278 C97.1508,90.0068 95.0008,90.9068 92.5128,90.9068 L83.3598,90.9068 L83.3598,54.4868 C83.3598,51.9878 84.2598,49.8368 86.0508,48.0358 C87.8518,46.2458 90.0128,45.3678 92.5128,45.3786979 C95.0008,45.3786979 97.1508,46.2798 98.9408,48.0588 C100.7538,49.8368 101.6548,51.9878 101.6548,54.4868 L101.6548,81.8328 Z M114.5108,41.6078 C110.9198,38.0048 106.6418,36.2038 101.6548,36.2038 L92.5128,36.2038 L83.3598,36.2038 L69.7828,36.2038 C67.2268,36.2038 65.1668,38.2638 65.1668,40.8198 L65.1668,136.1538 L65.2228,136.1538 L74.3078,136.1538 C76.7628,136.1538 78.8898,135.2758 80.6798,133.5198 C82.4818,131.7518 83.3598,129.6468 83.3598,127.1808 L83.3598,109.7078 L83.3598,100.0378 L101.6548,100.0378 C106.6418,100.0378 110.9198,98.2588 114.5108,94.6898 C118.0918,91.0988 119.8708,86.8318 119.8708,81.8328 L119.8708,54.4868 C119.8708,49.4998 118.0918,45.1988 114.5108,41.6078 L114.5108,41.6078 Z" id="Fill-14" fill="#FFFFFF"></path>
            <path d="M154.4546,131.5632 C154.4546,130.3912 154.6576,129.2822 155.0626,128.2352 C155.4686,127.1902 156.0336,126.2842 156.7596,125.5162 C157.4836,124.7472 158.3486,124.1392 159.3506,123.6922 C160.3526,123.2432 161.4516,123.0202 162.6466,123.0202 C164.1616,123.0202 165.4946,123.3602 166.6466,124.0432 C167.7996,124.7272 168.6626,125.6742 169.2386,126.8912 L167.6706,127.4032 C167.1806,126.4872 166.4806,125.7662 165.5746,125.2432 C164.6676,124.7212 163.6706,124.4592 162.5826,124.4592 C161.6656,124.4592 160.8116,124.6412 160.0226,125.0022 C159.2326,125.3662 158.5456,125.8682 157.9586,126.5062 C157.3716,127.1472 156.9076,127.8992 156.5666,128.7642 C156.2256,129.6272 156.0556,130.5612 156.0556,131.5632 C156.0556,132.5672 156.2306,133.5102 156.5826,134.3952 C156.9346,135.2822 157.4036,136.0492 157.9906,136.7002 C158.5776,137.3502 159.2706,137.8682 160.0706,138.2502 C160.8706,138.6352 161.7196,138.8272 162.6146,138.8272 C163.1906,138.8272 163.7616,138.7432 164.3266,138.5712 C164.8926,138.4012 165.4146,138.1762 165.8946,137.8992 C166.3746,137.6222 166.7906,137.2972 167.1426,136.9222 C167.4946,136.5492 167.7346,136.1612 167.8626,135.7542 L169.4316,136.2042 C169.2176,136.7802 168.8926,137.3192 168.4546,137.8192 C168.0176,138.3212 167.4996,138.7522 166.9026,139.1162 C166.3056,139.4792 165.6436,139.7602 164.9186,139.9632 C164.1926,140.1672 163.4466,140.2682 162.6796,140.2682 C161.5056,140.2682 160.4176,140.0382 159.4146,139.5792 C158.4116,139.1222 157.5426,138.4912 156.8076,137.6922 C156.0706,136.8912 155.4946,135.9692 155.0786,134.9222 C154.6626,133.8772 154.4546,132.7582 154.4546,131.5632" id="Fill-16" fill="#263958"></path>
            <path d="M173.3354,131.7234 C173.3354,132.7054 173.5054,133.6274 173.8474,134.4914 C174.1884,135.3564 174.6514,136.1084 175.2384,136.7464 C175.8254,137.3874 176.5134,137.8954 177.3034,138.2684 C178.0924,138.6414 178.9354,138.8274 179.8314,138.8274 C180.7274,138.8274 181.5694,138.6414 182.3584,138.2684 C183.1484,137.8954 183.8414,137.3774 184.4394,136.7154 C185.0354,136.0554 185.5054,135.2914 185.8474,134.4284 C186.1884,133.5634 186.3584,132.6294 186.3584,131.6274 C186.3584,130.6474 186.1884,129.7234 185.8474,128.8604 C185.5054,127.9944 185.0354,127.2394 184.4394,126.5864 C183.8414,125.9364 183.1534,125.4184 182.3754,125.0364 C181.5964,124.6514 180.7594,124.4594 179.8624,124.4594 C178.9674,124.4594 178.1244,124.6514 177.3354,125.0364 C176.5454,125.4184 175.8574,125.9424 175.2714,126.6044 C174.6844,127.2644 174.2154,128.0374 173.8624,128.9224 C173.5114,129.8094 173.3354,130.7434 173.3354,131.7234 M179.8624,140.2684 C178.6894,140.2684 177.6064,140.0374 176.6144,139.5784 C175.6234,139.1214 174.7644,138.4964 174.0394,137.7074 C173.3144,136.9184 172.7484,136.0004 172.3434,134.9554 C171.9384,133.9114 171.7344,132.8114 171.7344,131.6594 C171.7344,130.4874 171.9424,129.3774 172.3584,128.3304 C172.7744,127.2864 173.3454,126.3694 174.0704,125.5784 C174.7964,124.7894 175.6544,124.1664 176.6474,123.7074 C177.6394,123.2484 178.7114,123.0204 179.8624,123.0204 C181.0154,123.0204 182.0814,123.2484 183.0634,123.7074 C184.0444,124.1664 184.9024,124.7894 185.6394,125.5784 C186.3754,126.3694 186.9504,127.2864 187.3664,128.3304 C187.7824,129.3774 187.9904,130.4874 187.9904,131.6594 C187.9904,132.8114 187.7824,133.9114 187.3664,134.9554 C186.9504,136.0004 186.3804,136.9184 185.6544,137.7074 C184.9294,138.4964 184.0704,139.1214 183.0794,139.5784 C182.0874,140.0374 181.0154,140.2684 179.8624,140.2684" id="Fill-18" fill="#263958"></path>
            <path d="M216.2798,139.948 L214.6788,139.948 L214.6788,130.667 C214.6788,128.555 214.3538,126.999 213.7038,125.995 C213.0518,124.993 212.0548,124.491 210.7118,124.491 C210.0288,124.491 209.3788,124.62 208.7588,124.876 C208.1398,125.132 207.5758,125.489 207.0628,125.948 C206.5508,126.407 206.1088,126.95 205.7358,127.579 C205.3618,128.21 205.0688,128.907 204.8548,129.675 L204.8548,139.948 L203.2558,139.948 L203.2558,130.667 C203.2558,128.534 202.9348,126.971 202.2958,125.979 C201.6558,124.987 200.6638,124.491 199.3198,124.491 C198.6358,124.491 197.9918,124.614 197.3838,124.86 C196.7758,125.104 196.2158,125.458 195.7038,125.915 C195.1918,126.374 194.7378,126.919 194.3428,127.548 C193.9488,128.177 193.6438,128.876 193.4308,129.643 L193.4308,139.948 L191.8318,139.948 L191.8318,123.307 L193.3358,123.307 L193.3358,127.276 C194.0178,125.932 194.9138,124.887 196.0238,124.139 C197.1328,123.393 198.3598,123.02 199.7038,123.02 C201.1118,123.02 202.2528,123.436 203.1278,124.268 C204.0018,125.1 204.5248,126.188 204.6958,127.532 C206.2738,124.524 208.4498,123.02 211.2228,123.02 C213.0368,123.02 214.3328,123.665 215.1118,124.956 C215.8898,126.247 216.2798,128.055 216.2798,130.38 L216.2798,139.948 Z" id="Fill-20" fill="#263958"></path>
            <path d="M228.855,138.8269 C229.815,138.8269 230.689,138.6259 231.479,138.2199 C232.268,137.8149 232.94,137.2759 233.495,136.6039 C234.049,135.9319 234.476,135.1629 234.775,134.2999 C235.074,133.4359 235.223,132.5559 235.223,131.6589 C235.223,130.6999 235.051,129.7879 234.71,128.9229 C234.37,128.0589 233.895,127.2979 233.287,126.6359 C232.679,125.9749 231.969,125.4459 231.159,125.0519 C230.348,124.6569 229.484,124.4599 228.567,124.4599 C227.991,124.4599 227.377,124.5829 226.727,124.8269 C226.076,125.0729 225.462,125.4029 224.887,125.8189 C224.311,126.2349 223.82,126.7099 223.415,127.2429 C223.009,127.7759 222.775,128.3429 222.71,128.9399 L222.71,134.4109 C222.988,135.0299 223.339,135.6059 223.767,136.1389 C224.193,136.6729 224.673,137.1429 225.207,137.5479 C225.74,137.9539 226.316,138.2679 226.935,138.4909 C227.553,138.7159 228.193,138.8269 228.855,138.8269 M229.239,140.2679 C227.809,140.2679 226.535,139.8889 225.415,139.1319 C224.294,138.3739 223.393,137.4519 222.71,136.3639 L222.71,146.7639 L221.111,146.7639 L221.111,123.3069 L222.583,123.3069 L222.583,126.6359 C223.265,125.5689 224.167,124.6999 225.287,124.0279 C226.407,123.3559 227.607,123.0199 228.887,123.0199 C230.039,123.0199 231.105,123.2639 232.086,123.7549 C233.068,124.2469 233.911,124.8909 234.615,125.6919 C235.319,126.4909 235.868,127.4149 236.263,128.4599 C236.658,129.5049 236.855,130.5709 236.855,131.6589 C236.855,132.8109 236.673,133.9109 236.311,134.9559 C235.948,136.0009 235.431,136.9189 234.758,137.7079 C234.086,138.4969 233.281,139.1219 232.342,139.5789 C231.404,140.0379 230.37,140.2679 229.239,140.2679" id="Fill-22" fill="#263958"></path>
            <path d="M240.8228,116.5867 L242.4548,116.5867 L242.4548,136.6507 C242.4548,137.2707 242.6308,137.7607 242.9828,138.1237 C243.3348,138.4867 243.8198,138.6667 244.4388,138.6667 C244.6738,138.6667 244.9558,138.6417 245.2868,138.5867 C245.6178,138.5337 245.9218,138.4537 246.1988,138.3487 L246.5188,139.6277 C246.1558,139.7757 245.7078,139.8987 245.1748,139.9947 C244.6408,140.0907 244.1828,140.1397 243.7988,140.1397 C242.9028,140.1397 242.1828,139.8677 241.6388,139.3227 C241.0948,138.7797 240.8228,138.0497 240.8228,137.1317 L240.8228,116.5867 Z" id="Fill-24" fill="#263958"></path>
            <path d="M262.5815,130.9871 C262.5185,130.0071 262.2995,129.1101 261.9265,128.2991 C261.5525,127.4891 261.0725,126.7901 260.4855,126.2041 C259.8985,125.6181 259.2225,125.1591 258.4535,124.8271 C257.6855,124.4971 256.8645,124.3311 255.9895,124.3311 C255.1145,124.3311 254.2935,124.4971 253.5255,124.8271 C252.7585,125.1591 252.0805,125.6181 251.4935,126.2041 C250.9065,126.7901 250.4375,127.4951 250.0855,128.3151 C249.7335,129.1371 249.5255,130.0281 249.4615,130.9871 L262.5815,130.9871 Z M256.0545,140.2681 C254.8805,140.2681 253.7925,140.0381 252.7895,139.5791 C251.7865,139.1221 250.9175,138.4911 250.1825,137.6921 C249.4455,136.8911 248.8695,135.9691 248.4535,134.9231 C248.0375,133.8781 247.8295,132.7581 247.8295,131.5631 C247.8295,130.3911 248.0375,129.2861 248.4535,128.2511 C248.8695,127.2171 249.4395,126.3111 250.1655,125.5321 C250.8915,124.7531 251.7495,124.1391 252.7415,123.6921 C253.7335,123.2431 254.8065,123.0201 255.9575,123.0201 C257.1305,123.0201 258.2195,123.2491 259.2225,123.7081 C260.2245,124.1671 261.0885,124.7861 261.8135,125.5631 C262.5385,126.3421 263.1035,127.2491 263.5105,128.2841 C263.9145,129.3191 264.1175,130.4111 264.1175,131.5631 L264.1175,131.9641 C264.1175,132.1241 264.1065,132.2251 264.0855,132.2681 L249.4935,132.2681 C249.5585,133.2271 249.7815,134.1181 250.1655,134.9401 C250.5505,135.7601 251.0345,136.4711 251.6215,137.0671 C252.2085,137.6651 252.8865,138.1331 253.6535,138.4751 C254.4215,138.8171 255.2425,138.9871 256.1175,138.9871 C256.6935,138.9871 257.2595,138.9071 257.8135,138.7471 C258.3685,138.5871 258.8865,138.3701 259.3655,138.0911 C259.8465,137.8151 260.2715,137.4791 260.6455,137.0831 C261.0195,136.6881 261.3115,136.2571 261.5255,135.7881 L262.9345,136.1711 C262.6985,136.7681 262.3525,137.3191 261.8945,137.8191 C261.4355,138.3211 260.9015,138.7531 260.2935,139.1161 C259.6855,139.4791 259.0185,139.7601 258.2935,139.9641 C257.5675,140.1671 256.8215,140.2681 256.0545,140.2681 L256.0545,140.2681 Z" id="Fill-26" fill="#263958"></path>
            <polygon id="Fill-28" fill="#263958" points="266.8384 123.3074 272.2144 130.1884 272.4704 130.6354 272.7274 130.1884 278.0704 123.3074 279.8624 123.3074 273.3994 131.6594 279.8304 139.9484 278.0704 139.9484 272.7274 133.1004 272.4704 132.6844 272.2144 133.1004 266.8704 139.9484 265.1104 139.9484 271.5424 131.6594 265.0784 123.3074"></polygon>
            <path d="M315.5737,139.948 L313.9727,139.948 L313.9727,130.667 C313.9727,128.555 313.6477,126.999 312.9977,125.995 C312.3457,124.993 311.3487,124.491 310.0057,124.491 C309.3227,124.491 308.6727,124.62 308.0527,124.876 C307.4337,125.132 306.8697,125.489 306.3567,125.948 C305.8447,126.407 305.4027,126.95 305.0297,127.579 C304.6557,128.21 304.3627,128.907 304.1487,129.675 L304.1487,139.948 L302.5497,139.948 L302.5497,130.667 C302.5497,128.534 302.2287,126.971 301.5897,125.979 C300.9497,124.987 299.9577,124.491 298.6137,124.491 C297.9297,124.491 297.2857,124.614 296.6777,124.86 C296.0697,125.104 295.5097,125.458 294.9977,125.915 C294.4857,126.374 294.0317,126.919 293.6367,127.548 C293.2427,128.177 292.9377,128.876 292.7247,129.643 L292.7247,139.948 L291.1257,139.948 L291.1257,123.307 L292.6297,123.307 L292.6297,127.276 C293.3117,125.932 294.2077,124.887 295.3177,124.139 C296.4267,123.393 297.6537,123.02 298.9977,123.02 C300.4057,123.02 301.5467,123.436 302.4217,124.268 C303.2957,125.1 303.8187,126.188 303.9897,127.532 C305.5677,124.524 307.7437,123.02 310.5167,123.02 C312.3307,123.02 313.6267,123.665 314.4057,124.956 C315.1837,126.247 315.5737,128.055 315.5737,130.38 L315.5737,139.948 Z" id="Fill-30" fill="#263958"></path>
            <path d="M324.8218,138.9871 C326.0588,138.9871 327.1948,138.7531 328.2298,138.2841 C329.2638,137.8151 330.0588,137.1961 330.6138,136.4281 C330.9548,135.9791 331.1258,135.5531 331.1258,135.1471 L331.1258,132.2041 C330.3578,131.9051 329.5578,131.6801 328.7258,131.5321 C327.8938,131.3821 327.0298,131.3071 326.1338,131.3071 C325.3008,131.3071 324.5448,131.3991 323.8618,131.5791 C323.1778,131.7601 322.5928,132.0121 322.1018,132.3311 C321.6108,132.6511 321.2318,133.0421 320.9658,133.4991 C320.6988,133.9581 320.5658,134.4661 320.5658,135.0201 C320.5658,135.5751 320.6728,136.0961 320.8848,136.5871 C321.0988,137.0791 321.3978,137.4991 321.7818,137.8521 C322.1658,138.2041 322.6188,138.4811 323.1418,138.6841 C323.6648,138.8871 324.2238,138.9871 324.8218,138.9871 M324.5018,140.2681 C323.7338,140.2681 323.0188,140.1331 322.3578,139.8681 C321.6958,139.6001 321.1148,139.2391 320.6138,138.7801 C320.1118,138.3211 319.7228,137.7761 319.4458,137.1471 C319.1688,136.5181 319.0298,135.8411 319.0298,135.1161 C319.0298,134.3911 319.1998,133.7291 319.5418,133.1321 C319.8828,132.5341 320.3578,132.0161 320.9658,131.5791 C321.5738,131.1431 322.3038,130.8011 323.1578,130.5551 C324.0098,130.3111 324.9498,130.1881 325.9738,130.1881 C326.8698,130.1881 327.7708,130.2681 328.6768,130.4281 C329.5848,130.5871 330.3998,130.8071 331.1258,131.0831 L331.1258,129.4521 C331.1258,127.8741 330.6768,126.6201 329.7818,125.6921 C328.8848,124.7641 327.6698,124.2991 326.1338,124.2991 C325.3228,124.2991 324.4648,124.4711 323.5578,124.8111 C322.6508,125.1531 321.7278,125.6431 320.7898,126.2841 L320.1818,125.1961 C322.3148,123.7451 324.3418,123.0201 326.2608,123.0201 C328.2668,123.0201 329.8448,123.6001 330.9978,124.7641 C332.1498,125.9261 332.7258,127.5321 332.7258,129.5791 L332.7258,137.7081 C332.7258,138.2411 332.9608,138.5071 333.4288,138.5071 L333.4288,139.9481 C333.3228,139.9691 333.2108,139.9851 333.0928,139.9951 C332.9758,140.0071 332.8748,140.0121 332.7898,140.0121 C332.3628,140.0121 332.0218,139.8681 331.7658,139.5791 C331.5088,139.2921 331.3598,138.9441 331.3178,138.5401 L331.3178,137.1631 C330.5498,138.1671 329.5678,138.9341 328.3738,139.4671 C327.1778,140.0011 325.8878,140.2681 324.5018,140.2681" id="Fill-32" fill="#263958"></path>
            <path d="M344.7251,138.8269 C345.3011,138.8269 345.9191,138.7099 346.5811,138.4749 C347.2431,138.2409 347.8561,137.9149 348.4211,137.4989 C348.9861,137.0829 349.4721,136.6079 349.8771,136.0749 C350.2831,135.5419 350.5171,134.9659 350.5811,134.3479 L350.5811,128.8759 C350.3461,128.2779 350.0101,127.7079 349.5741,127.1629 C349.1361,126.6199 348.6401,126.1509 348.0851,125.7549 C347.5301,125.3599 346.9331,125.0459 346.2931,124.8109 C345.6531,124.5769 345.0351,124.4599 344.4371,124.4599 C343.4771,124.4599 342.6021,124.6669 341.8131,125.0829 C341.0241,125.4989 340.3521,126.0439 339.7971,126.7159 C339.2431,127.3879 338.8161,128.1549 338.5171,129.0199 C338.2181,129.8839 338.0691,130.7739 338.0691,131.6919 C338.0691,132.6509 338.2401,133.5589 338.5811,134.4109 C338.9221,135.2639 339.3971,136.0219 340.0051,136.6839 C340.6131,137.3449 341.3171,137.8679 342.1181,138.2509 C342.9171,138.6359 343.7871,138.8269 344.7251,138.8269 M344.4371,140.2679 C343.2861,140.2679 342.2181,140.0279 341.2371,139.5479 C340.2551,139.0669 339.4081,138.4289 338.6931,137.6279 C337.9781,136.8269 337.4231,135.9109 337.0291,134.8759 C336.6341,133.8409 336.4371,132.7679 336.4371,131.6589 C336.4371,130.5069 336.6291,129.4089 337.0131,128.3639 C337.3971,127.3189 337.9301,126.4009 338.6131,125.6119 C339.2951,124.8229 340.1011,124.1919 341.0291,123.7229 C341.9571,123.2549 342.9761,123.0199 344.0851,123.0199 C344.8101,123.0199 345.4941,123.1259 346.1331,123.3389 C346.7731,123.5539 347.3711,123.8349 347.9251,124.1879 C348.4801,124.5399 348.9811,124.9499 349.4291,125.4189 C349.8771,125.8889 350.2611,126.3909 350.5811,126.9229 L350.5811,116.5869 L352.1811,116.5869 L352.1811,137.7079 C352.1811,138.2409 352.4051,138.5069 352.8531,138.5069 L352.8531,139.9479 C352.7251,139.9699 352.6191,139.9849 352.5341,139.9949 C352.4481,140.0069 352.3621,140.0129 352.2771,140.0129 C351.8501,140.0129 351.4881,139.8469 351.1891,139.5159 C350.8901,139.1839 350.7421,138.8389 350.7421,138.4749 L350.7421,136.6199 C350.0581,137.7289 349.1461,138.6139 348.0051,139.2759 C346.8641,139.9359 345.6741,140.2679 344.4371,140.2679" id="Fill-34" fill="#263958"></path>
            <path d="M370.8687,130.9871 C370.8057,130.0071 370.5867,129.1101 370.2137,128.2991 C369.8397,127.4891 369.3597,126.7901 368.7727,126.2041 C368.1857,125.6181 367.5097,125.1591 366.7407,124.8271 C365.9727,124.4971 365.1517,124.3311 364.2767,124.3311 C363.4017,124.3311 362.5807,124.4971 361.8127,124.8271 C361.0457,125.1591 360.3677,125.6181 359.7807,126.2041 C359.1937,126.7901 358.7247,127.4951 358.3727,128.3151 C358.0207,129.1371 357.8127,130.0281 357.7487,130.9871 L370.8687,130.9871 Z M364.3417,140.2681 C363.1677,140.2681 362.0797,140.0381 361.0767,139.5791 C360.0737,139.1221 359.2047,138.4911 358.4697,137.6921 C357.7327,136.8911 357.1567,135.9691 356.7407,134.9231 C356.3247,133.8781 356.1167,132.7581 356.1167,131.5631 C356.1167,130.3911 356.3247,129.2861 356.7407,128.2511 C357.1567,127.2171 357.7267,126.3111 358.4527,125.5321 C359.1787,124.7531 360.0367,124.1391 361.0287,123.6921 C362.0207,123.2431 363.0937,123.0201 364.2447,123.0201 C365.4177,123.0201 366.5067,123.2491 367.5097,123.7081 C368.5117,124.1671 369.3757,124.7861 370.1007,125.5631 C370.8257,126.3421 371.3907,127.2491 371.7977,128.2841 C372.2017,129.3191 372.4047,130.4111 372.4047,131.5631 L372.4047,131.9641 C372.4047,132.1241 372.3937,132.2251 372.3727,132.2681 L357.7807,132.2681 C357.8457,133.2271 358.0687,134.1181 358.4527,134.9401 C358.8377,135.7601 359.3217,136.4711 359.9087,137.0671 C360.4957,137.6651 361.1737,138.1331 361.9407,138.4751 C362.7087,138.8171 363.5297,138.9871 364.4047,138.9871 C364.9807,138.9871 365.5467,138.9071 366.1007,138.7471 C366.6557,138.5871 367.1737,138.3701 367.6527,138.0911 C368.1337,137.8151 368.5587,137.4791 368.9327,137.0831 C369.3067,136.6881 369.5987,136.2571 369.8127,135.7881 L371.2217,136.1711 C370.9857,136.7681 370.6397,137.3191 370.1817,137.8191 C369.7227,138.3211 369.1887,138.7531 368.5807,139.1161 C367.9727,139.4791 367.3057,139.7601 366.5807,139.9641 C365.8547,140.1671 365.1087,140.2681 364.3417,140.2681 L364.3417,140.2681 Z" id="Fill-36" fill="#263958"></path>
            <path d="M389.4282,140.2683 C388.1482,140.2683 386.9202,140.0533 385.7472,139.6273 C384.5742,139.2023 383.5502,138.5613 382.6762,137.7073 L383.4762,136.6203 C384.3712,137.4303 385.3002,138.0283 386.2602,138.4113 C387.2202,138.7953 388.2762,138.9873 389.4282,138.9873 C390.8782,138.9873 392.0462,138.6843 392.9322,138.0753 C393.8172,137.4673 394.2602,136.6203 394.2602,135.5323 C394.2602,135.0203 394.1482,134.5863 393.9242,134.2353 C393.6992,133.8833 393.3642,133.5843 392.9152,133.3383 C392.4682,133.0943 391.9122,132.8753 391.2512,132.6843 C390.5902,132.4913 389.8232,132.2893 388.9482,132.0753 C388.0092,131.8623 387.1932,131.6493 386.4992,131.4363 C385.8062,131.2233 385.2362,130.9653 384.7872,130.6663 C384.3402,130.3703 384.0032,130.0063 383.7802,129.5793 C383.5562,129.1533 383.4442,128.6083 383.4442,127.9483 C383.4442,127.1163 383.6042,126.3913 383.9242,125.7723 C384.2432,125.1533 384.6862,124.6413 385.2512,124.2353 C385.8172,123.8313 386.4682,123.5263 387.2032,123.3233 C387.9402,123.1223 388.7242,123.0203 389.5562,123.0203 C390.8572,123.0203 392.0092,123.2393 393.0122,123.6743 C394.0142,124.1123 394.7922,124.6723 395.3482,125.3563 L394.4512,126.2193 C393.8972,125.5793 393.1772,125.1003 392.2912,124.7803 C391.4072,124.4593 390.4622,124.2993 389.4592,124.2993 C388.8412,124.2993 388.2602,124.3643 387.7162,124.4913 C387.1712,124.6203 386.6972,124.8233 386.2912,125.1003 C385.8862,125.3773 385.5662,125.7353 385.3312,126.1703 C385.0972,126.6083 384.9802,127.1253 384.9802,127.7233 C384.9802,128.2133 385.0602,128.6083 385.2202,128.9073 C385.3792,129.2053 385.6362,129.4613 385.9882,129.6743 C386.3402,129.8893 386.7922,130.0753 387.3482,130.2353 C387.9032,130.3953 388.5642,130.5713 389.3312,130.7643 C390.3762,131.0203 391.3052,131.2643 392.1162,131.4983 C392.9262,131.7353 393.6042,132.0223 394.1482,132.3643 C394.6922,132.7063 395.1082,133.1103 395.3962,133.5793 C395.6842,134.0493 395.8272,134.6473 395.8272,135.3723 C395.8272,136.8663 395.2462,138.0553 394.0832,138.9403 C392.9202,139.8253 391.3682,140.2683 389.4282,140.2683" id="Fill-38" fill="#263958"></path>
            <mask id="mask-4" fill="white">
                <use xlink:href="#path-3"></use>
            </mask>
            <g id="Clip-41"></g>
            <path d="M399.54,139.948 L401.14,139.948 L401.14,123.307 L399.54,123.307 L399.54,139.948 Z M399.54,119.532 L401.14,119.532 L401.14,116.587 L399.54,116.587 L399.54,119.532 Z" id="Fill-40" fill="#263958" mask="url(#mask-4)"></path>
            <path d="M430.6118,139.948 L429.0108,139.948 L429.0108,130.667 C429.0108,128.555 428.6858,126.999 428.0358,125.995 C427.3838,124.993 426.3868,124.491 425.0438,124.491 C424.3608,124.491 423.7108,124.62 423.0908,124.876 C422.4718,125.132 421.9078,125.489 421.3948,125.948 C420.8828,126.407 420.4408,126.95 420.0678,127.579 C419.6938,128.21 419.4008,128.907 419.1868,129.675 L419.1868,139.948 L417.5878,139.948 L417.5878,130.667 C417.5878,128.534 417.2668,126.971 416.6278,125.979 C415.9878,124.987 414.9958,124.491 413.6518,124.491 C412.9678,124.491 412.3238,124.614 411.7158,124.86 C411.1078,125.104 410.5478,125.458 410.0358,125.915 C409.5238,126.374 409.0698,126.919 408.6748,127.548 C408.2808,128.177 407.9758,128.876 407.7628,129.643 L407.7628,139.948 L406.1638,139.948 L406.1638,123.307 L407.6678,123.307 L407.6678,127.276 C408.3498,125.932 409.2458,124.887 410.3558,124.139 C411.4648,123.393 412.6918,123.02 414.0358,123.02 C415.4438,123.02 416.5848,123.436 417.4598,124.268 C418.3338,125.1 418.8568,126.188 419.0278,127.532 C420.6058,124.524 422.7818,123.02 425.5548,123.02 C427.3688,123.02 428.6648,123.665 429.4438,124.956 C430.2218,126.247 430.6118,128.055 430.6118,130.38 L430.6118,139.948 Z" id="Fill-42" fill="#263958" mask="url(#mask-4)"></path>
            <path d="M443.187,138.8269 C444.147,138.8269 445.021,138.6259 445.811,138.2199 C446.6,137.8149 447.272,137.2759 447.827,136.6039 C448.381,135.9319 448.808,135.1629 449.107,134.2999 C449.406,133.4359 449.555,132.5559 449.555,131.6589 C449.555,130.6999 449.383,129.7879 449.042,128.9229 C448.702,128.0589 448.227,127.2979 447.619,126.6359 C447.011,125.9749 446.301,125.4459 445.491,125.0519 C444.68,124.6569 443.816,124.4599 442.899,124.4599 C442.323,124.4599 441.709,124.5829 441.059,124.8269 C440.408,125.0729 439.794,125.4029 439.219,125.8189 C438.643,126.2349 438.152,126.7099 437.747,127.2429 C437.341,127.7759 437.107,128.3429 437.042,128.9399 L437.042,134.4109 C437.32,135.0299 437.671,135.6059 438.099,136.1389 C438.525,136.6729 439.005,137.1429 439.539,137.5479 C440.072,137.9539 440.648,138.2679 441.267,138.4909 C441.885,138.7159 442.525,138.8269 443.187,138.8269 M443.571,140.2679 C442.141,140.2679 440.867,139.8889 439.747,139.1319 C438.626,138.3739 437.725,137.4519 437.042,136.3639 L437.042,146.7639 L435.443,146.7639 L435.443,123.3069 L436.915,123.3069 L436.915,126.6359 C437.597,125.5689 438.499,124.6999 439.619,124.0279 C440.739,123.3559 441.939,123.0199 443.219,123.0199 C444.371,123.0199 445.437,123.2639 446.418,123.7549 C447.4,124.2469 448.243,124.8909 448.947,125.6919 C449.651,126.4909 450.2,127.4149 450.595,128.4599 C450.99,129.5049 451.187,130.5709 451.187,131.6589 C451.187,132.8109 451.005,133.9109 450.643,134.9559 C450.28,136.0009 449.763,136.9189 449.09,137.7079 C448.418,138.4969 447.613,139.1219 446.674,139.5789 C445.736,140.0379 444.702,140.2679 443.571,140.2679" id="Fill-43" fill="#263958" mask="url(#mask-4)"></path>
            <path d="M455.1548,116.5867 L456.7868,116.5867 L456.7868,136.6507 C456.7868,137.2707 456.9628,137.7607 457.3148,138.1237 C457.6668,138.4867 458.1518,138.6667 458.7708,138.6667 C459.0058,138.6667 459.2878,138.6417 459.6188,138.5867 C459.9498,138.5337 460.2538,138.4537 460.5308,138.3487 L460.8508,139.6277 C460.4878,139.7757 460.0398,139.8987 459.5068,139.9947 C458.9728,140.0907 458.5148,140.1397 458.1308,140.1397 C457.2348,140.1397 456.5148,139.8677 455.9708,139.3227 C455.4268,138.7797 455.1548,138.0497 455.1548,137.1317 L455.1548,116.5867 Z" id="Fill-44" fill="#263958" mask="url(#mask-4)"></path>
            <path d="M476.9136,130.9871 C476.8506,130.0071 476.6316,129.1101 476.2586,128.2991 C475.8846,127.4891 475.4046,126.7901 474.8176,126.2041 C474.2306,125.6181 473.5546,125.1591 472.7856,124.8271 C472.0176,124.4971 471.1966,124.3311 470.3216,124.3311 C469.4466,124.3311 468.6256,124.4971 467.8576,124.8271 C467.0906,125.1591 466.4126,125.6181 465.8256,126.2041 C465.2386,126.7901 464.7696,127.4951 464.4176,128.3151 C464.0656,129.1371 463.8576,130.0281 463.7936,130.9871 L476.9136,130.9871 Z M470.3866,140.2681 C469.2126,140.2681 468.1246,140.0381 467.1216,139.5791 C466.1186,139.1221 465.2496,138.4911 464.5146,137.6921 C463.7776,136.8911 463.2016,135.9691 462.7856,134.9231 C462.3696,133.8781 462.1616,132.7581 462.1616,131.5631 C462.1616,130.3911 462.3696,129.2861 462.7856,128.2511 C463.2016,127.2171 463.7716,126.3111 464.4976,125.5321 C465.2236,124.7531 466.0816,124.1391 467.0736,123.6921 C468.0656,123.2431 469.1386,123.0201 470.2896,123.0201 C471.4626,123.0201 472.5516,123.2491 473.5546,123.7081 C474.5566,124.1671 475.4206,124.7861 476.1456,125.5631 C476.8706,126.3421 477.4356,127.2491 477.8426,128.2841 C478.2466,129.3191 478.4496,130.4111 478.4496,131.5631 L478.4496,131.9641 C478.4496,132.1241 478.4386,132.2251 478.4176,132.2681 L463.8256,132.2681 C463.8906,133.2271 464.1136,134.1181 464.4976,134.9401 C464.8826,135.7601 465.3666,136.4711 465.9536,137.0671 C466.5406,137.6651 467.2186,138.1331 467.9856,138.4751 C468.7536,138.8171 469.5746,138.9871 470.4496,138.9871 C471.0256,138.9871 471.5916,138.9071 472.1456,138.7471 C472.7006,138.5871 473.2186,138.3701 473.6976,138.0911 C474.1786,137.8151 474.6036,137.4791 474.9776,137.0831 C475.3516,136.6881 475.6436,136.2571 475.8576,135.7881 L477.2666,136.1711 C477.0306,136.7681 476.6846,137.3191 476.2266,137.8191 C475.7676,138.3211 475.2336,138.7531 474.6256,139.1161 C474.0176,139.4791 473.3506,139.7601 472.6256,139.9641 C471.8996,140.1671 471.1536,140.2681 470.3866,140.2681 L470.3866,140.2681 Z" id="Fill-45" fill="#263958" mask="url(#mask-4)"></path>
        </g>
    </g>
</svg>