<?xml version="1.0" encoding="UTF-8"?>
<svg width="160px" height="99px" viewBox="0 0 160 99" version="1.1" xmlns="http://www.w3.org/2000/svg" xmlns:xlink="http://www.w3.org/1999/xlink">
    <!-- Generator: Sketch 62 (91390) - https://sketch.com -->
    <title>Page 1</title>
    <desc>Created with Sketch.</desc>
    <defs>
        <path d="M89.0869691,0.328071015 C90.3092726,0.332003108 91.4753951,0.580022956 92.3468106,1.08191594 L134.962655,25.6379116 C135.834345,26.1403153 136.314351,26.8419562 136.314351,27.6125639 C136.314351,28.5345153 135.627463,29.4588614 134.429369,30.1490078 L51.7124283,77.786356 C50.4946544,78.4879969 48.9303167,78.8471987 47.4470998,78.8471987 C46.2134857,78.8471987 45.0360323,78.59911 44.1571423,78.0933538 L1.54177754,53.5368792 C0.669607618,53.0344755 0.189602157,52.3333135 0.189602157,51.561748 C0.189602157,50.6402755 0.876489971,49.7159294 2.0745836,49.025783 L84.7910446,1.38843485 C86.0008473,0.691977191 87.5523678,0.332809741 89.0278421,0.328071014 L89.0869691,0.328071015 L89.0869691,0.328071015 Z M44.2949039,77.8558016 C46.1544451,78.927181 49.4208822,78.7892475 51.5756267,77.5488038 L134.292088,29.9114557 C135.40282,29.2715975 136.039788,28.4339388 136.039788,27.6125639 C136.039788,26.9439695 135.608743,26.3271002 134.824894,25.8754638 L92.209529,1.31946809 C90.3490278,0.247609802 87.0830707,0.384585437 84.9283262,1.62646593 L2.21186516,49.2633351 C1.10113253,49.9027144 0.464165281,50.740852 0.464165281,51.561748 C0.464165281,52.2313002 0.89569019,52.8481695 1.6790591,53.299327 L44.2949039,77.8558016 Z" id="path-1"></path>
        <path d="M0.326907008,51.5621527 C0.326905475,52.2577887 0.749074625,52.9218892 1.61041832,53.4181031 L44.2262631,77.9745777 L51.6442675,77.6675799 L134.360729,30.0302318 C135.561629,29.3386461 136.177044,28.4527633 136.177046,27.6127994 L136.177046,78.7139876 L0.326907008,78.7139876 L0.326907008,51.5621527 L0.326907008,51.5621527 Z M0.326907008,51.5621527 C0.32690886,50.7222649 0.942323702,49.8364067 2.14322438,49.144559 L84.8596854,1.50721092 C86.0604911,0.815680001 87.5980019,0.461250041 89.0557717,0.461237569 L136.177046,0.461237568 L136.177046,27.6127948 L136.177046,27.6127994 L0.326907008,51.5621527 Z" id="path-3"></path>
        <polygon id="path-5" points="6.50528704e-20 0.153451026 6.50528704e-20 11.0499586 24.6893209 11.0499586 24.6893209 0.153451026 0 0.153451026"></polygon>
        <path d="M0.378724309,0.662368194 L0,0.769649811 L0,2.97035976 C0,3.39134431 0.277923162,3.81184993 0.833769485,4.13177904 L10.3287575,9.60170467 C11.4404502,10.2420418 13.2491107,10.2420418 14.3612834,9.60170467 L23.8557914,4.13225798 C24.4025176,3.81711823 24.6799608,3.40475451 24.6890809,2.99095399 C24.6895609,2.97275443 24.6886009,2.95407594 24.6876409,2.93587638 L24.6895609,2.93635531 L24.6895609,0.789765114 L24.0943541,0.459778356 C23.9263522,1.47320648 22.7311386,2.14036404 21.7322472,2.27877648 L14.9286498,6.24867522 L11.9598161,7.31813884 L2.48258824,2.43826209 L2.70147073,2.31230198 C1.89122152,1.93442165 1.45489655,1.07137936 1.01713157,0.283051051 L0.378724309,0.662368194 Z" id="path-7"></path>
        <polygon id="path-9" points="57.6821602 33.5255051 0.245186789 33.5255051 0.245186789 0.386201844 57.6821602 0.386201844"></polygon>
        <polygon id="path-11" points="17.0947225 8.20172639 1.89650158 16.9572005 0.307491498 16.0431394 0.307491498 0.391016947 17.0947225 0.391016947 17.0947225 8.20172639"></polygon>
        <polygon id="path-13" points="17.2592683 6.31948983 0.47203737 15.9903695 0.47203737 0.369595606 17.2592683 0.369595606 17.2592683 6.31948983"></polygon>
    </defs>
    <g id="Desktop" stroke="none" stroke-width="1" fill="none" fill-rule="evenodd">
        <g id="what-we-do" transform="translate(-654.000000, -1786.000000)">
            <path d="M-14.2562504,1093.4739 C528.675338,1070.99906 350.013691,1083.11351 712.520613,1093.4739 C1153.53954,1106.07816 1369.5204,980.614207 1491.74375,1093.4739 C1759.13197,1340.37726 1491.74375,1813 1491.74375,1813 L-14.2562504,1813 C-14.2562504,1813 -607.679687,1118.03888 -14.2562504,1093.4739 Z" id="Rectangle-2-Copy-2" fill="#F73859" transform="translate(666.291480, 1429.500000) scale(1, -1) translate(-666.291480, -1429.500000) "></path>
            <text id="Language-Copy" font-family="Helvetica" font-size="30" font-weight="normal" fill="#7AC7C4">
                <tspan x="502" y="1853">Language</tspan>
            </text>
            <text id="React-Native-Nativ-I" font-family="Helvetica" font-size="20" font-weight="normal" fill="#263958">
                <tspan x="502" y="1884">React Native</tspan>
                <tspan x="502" y="1908">Nativ IOS</tspan>
                <tspan x="502" y="1932">Nativ Android</tspan>
            </text>
            <g id="Page-1" transform="translate(654.000000, 1786.000000)">
                <g id="Group-48" transform="translate(-0.000000, 0.150865)">
                    <path d="M60.9869498,91.8004002 C62.9213718,92.9148838 66.3183705,92.7731188 68.5571159,91.4833448 L152.837915,42.9326661 C154.000008,42.2626349 154.667216,41.3823509 154.667216,40.516435 C154.667216,39.8076101 154.21313,39.1557785 153.388001,38.6806742 L109.197738,13.2242792 C107.263316,12.1093167 103.865838,12.2515606 101.626612,13.5413347 L17.3462933,62.0920133 C16.1842001,62.7615656 15.5169925,63.6423285 15.5169925,64.5077655 C15.5169925,65.2165904 15.9715577,65.868422 16.7962071,66.3440053 L60.9869498,91.8004002 Z M64.2673071,92.7386355 C63.0015327,92.7386355 61.793359,92.4843206 60.8914287,91.9651542 L16.701166,66.5082802 C15.8150759,65.9977347 15.3264304,65.2874729 15.3269104,64.5077655 C15.3269104,63.5728828 16.0281983,62.6322529 17.2512523,61.9272594 L101.531091,13.3765808 C103.823117,12.0571127 107.304117,11.9143898 109.293259,13.0595253 L153.483522,38.5159203 C154.369612,39.0269447 154.857778,39.7372065 154.857778,40.516435 C154.857778,41.4517966 154.15649,42.3924265 152.933436,43.09742 L68.653117,91.6480987 C67.4003028,92.368897 65.7927645,92.7386355 64.2673071,92.7386355 L64.2673071,92.7386355 Z" id="Fill-1" fill="#7AC7C4"></path>
                    <path d="M154.762401,28.7581304 L148.414328,29.8486672 L109.245403,7.28456544 C107.28026,6.15284017 103.848221,6.29460516 101.578756,7.60162093 L26.6441431,50.7690613 L15.4225755,52.6967779 L15.4220954,56.6661977 L15.4273755,56.6657188 C15.4216154,57.3889118 15.8526603,58.0814529 16.7488305,58.5972668 L60.9390933,84.0536618 C62.9042356,85.185387 66.3362747,85.0431431 68.6052605,83.7366063 L152.885579,35.1859276 C154.107193,34.4823709 154.736,33.5848453 154.755681,32.728987 L154.762401,32.7280292 L154.762401,28.7581304 Z" id="Fill-3" fill="#7AC7C4"></path>
                    <path d="M60.9391413,80.0570863 L16.7483985,54.6006913 C14.7837362,53.4684871 15.029979,51.4909613 17.2989648,50.1844244 L101.578804,1.63374576 C103.848269,0.326729994 107.280308,0.184486065 109.245451,1.31669027 L153.435714,26.7730853 C155.400856,27.9048105 155.154133,29.8823364 152.885627,31.1893522 L68.6053085,79.7400308 C66.3363227,81.0470466 62.9042836,81.1888116 60.9391413,80.0570863" id="Fill-5" fill="#24126A"></path>
                    <path d="M152.885483,31.1895437 L68.6051645,79.7402224 C66.3361787,81.0472382 62.9041396,81.1890031 60.9389973,80.0572779 L16.7487345,54.600404 C15.9605656,54.1468518 15.5343207,53.5563239 15.4450397,52.9279602 C15.3235983,53.7431089 15.7474431,54.5391002 16.7487345,55.1157389 L60.9389973,80.5721339 C62.9041396,81.7043381 66.3361787,81.5620941 68.6051645,80.2550784 L152.885483,31.7043997 C154.244379,30.9213397 154.871746,29.8988118 154.738784,28.9605766 C154.621663,29.7455523 153.998136,30.5482487 152.885483,31.1895437" id="Fill-7" fill="#FFFFFF"></path>
                    <path d="M61.0263103,79.0707181 L18.4104654,54.5147223 C16.5091638,53.4189173 16.7477265,51.5055688 18.9432715,50.2411783 L101.659733,2.6038302 C103.855758,1.33896078 107.176915,1.20150621 109.077737,2.29683236 L151.694062,26.853307 C153.595363,27.9486331 153.356801,29.8615027 151.160776,31.126851 L68.4443146,78.7637202 C66.2487697,80.0285896 62.9276119,80.1660442 61.0263103,79.0707181" id="Fill-9" fill="#263958"></path>
                    <g id="Group-13" transform="translate(16.800191, 0.000000)">
                        <mask id="mask-2" fill="white">
                            <use xlink:href="#path-1"></use>
                        </mask>
                        <g id="Clip-12"></g>
                        <path d="M44.2949039,77.8558016 C46.1544451,78.927181 49.4208822,78.7892475 51.5756267,77.5488038 L134.292088,29.9114557 C135.40282,29.2715975 136.039788,28.4339388 136.039788,27.6125639 C136.039788,26.9439695 135.608743,26.3271002 134.824894,25.8754638 L92.209529,1.31946809 C90.3490278,0.247609802 87.0830707,0.384585437 84.9283262,1.62646593 L2.21186516,49.2633351 C1.10113253,49.9027144 0.464165281,50.740852 0.464165281,51.561748 C0.464165281,52.2313002 0.89569019,52.8481695 1.6790591,53.299327 L44.2949039,77.8558016 Z M47.4470998,78.8471987 C46.2134857,78.8471987 45.0360323,78.59911 44.1571423,78.0933538 L1.54177754,53.5368792 C0.669607618,53.0344755 0.189602157,52.3333135 0.189602157,51.561748 C0.189602157,50.6402755 0.876489971,49.7159294 2.0745836,49.025783 L84.7910446,1.38843485 C87.02067,0.104886937 90.4109486,-0.0330465693 92.3468106,1.08191594 L134.962655,25.6379116 C135.834345,26.1403153 136.314351,26.8419562 136.314351,27.6125639 C136.314351,28.5345153 135.627463,29.4588614 134.429369,30.1490078 L51.7124283,77.786356 C50.4946544,78.4879969 48.9303167,78.8471987 47.4470998,78.8471987 L47.4470998,78.8471987 Z" id="Fill-11" mask="url(#mask-2)"></path>
                    </g>
                    <g id="Group-30" transform="translate(16.800191, 0.000000)">
                        <g id="Group-16">
                            <mask id="mask-4" fill="white">
                                <use xlink:href="#path-3"></use>
                            </mask>
                            <g id="Clip-15"></g>
                            <path d="M44.2262631,77.9745777 L1.61041832,53.4181031 C-0.290883309,52.3227769 -0.0523205952,50.4094285 2.14322438,49.144559 L84.8596854,1.50721092 C87.0552304,0.242820444 90.3763882,0.105365873 92.2776898,1.20069202 L134.893535,25.7566877 C136.794836,26.8520139 136.556274,28.7658413 134.360729,30.0302318 L51.6442675,77.6675799 C49.4487225,78.9324493 46.1275648,79.0699039 44.2262631,77.9745777" id="Fill-14" mask="url(#mask-4)"></path>
                        </g>
                        <g id="Group-29" transform="translate(24.480278, 24.904661)">
                            <path d="M82.0673496,29.1271504 L81.4534226,29.0471682 C81.3876619,28.9987956 81.3171011,28.9532967 81.2403002,28.9092347 L33.8215208,1.59265307 C32.5965468,0.887180653 30.4562025,0.975304838 29.0411464,1.79045355 L1.37795168,17.726084 C1.00930748,17.9387315 0.728504288,18.1801151 0.533142065,18.4325143 L0.207698363,18.3372061 L0.207698363,19.2917251 L0.210578396,19.292204 C0.213938434,19.7376143 0.483221497,20.1619514 1.03522778,20.4794859 L48.4540072,47.7960674 C49.6789812,48.5020188 51.8188455,48.4134157 53.2339016,47.598267 L80.8970963,31.6626365 C81.6876653,31.2071686 82.0831898,30.6214301 82.0659096,30.070175 L82.0673496,30.070175 L82.0673496,29.1271504 Z" id="Fill-17" fill="#9FFFF8"></path>
                            <path d="M48.4538152,46.8384353 L1.03503577,19.5218537 C-0.189938161,18.8159024 -0.0368164188,17.5831217 1.37823968,16.7684519 L29.0414344,0.832342505 C30.4560105,0.0176727306 32.5963548,-0.0709303902 33.8218088,0.635020961 L81.2405882,27.9511236 C82.4650822,28.657075 82.3119604,29.8898557 80.8973843,30.7045255 L53.2337096,46.6406349 C51.8191335,47.4553046 49.6792692,47.5443867 48.4538152,46.8384353" id="Fill-19" fill="#42E8E0"></path>
                            <path d="M17.1859715,21.9543207 L11.3318249,18.5816549 C10.7865387,18.2684309 10.8551795,17.7200494 11.4839866,17.357495 C12.1132738,16.9954196 13.0646446,16.9556679 13.6094508,17.2698498 L19.4635974,20.6425156 C20.0084036,20.9562185 19.9397628,21.5041211 19.3114357,21.8661965 C18.6821485,22.2287509 17.7307777,22.2680237 17.1859715,21.9543207" id="Fill-21" fill="#FFFFFF"></path>
                            <path d="M27.9893584,28.1777081 L22.1352118,24.8055212 C21.5904056,24.4918183 21.6590464,23.9434368 22.2873735,23.5808824 C22.9166607,23.218807 23.8680315,23.1790553 24.4128377,23.4932372 L30.2669843,26.865903 C30.8117905,27.1796059 30.7436298,27.7279874 30.1148226,28.0900629 C29.4855354,28.4521383 28.5341646,28.4914111 27.9893584,28.1777081" id="Fill-23" fill="#FFFFFF"></path>
                            <path d="M38.7927933,34.4015266 L32.9386467,31.0288608 C32.3938405,30.7151578 32.4624813,30.1667764 33.0908085,29.8047009 C33.7200956,29.4426254 34.6714664,29.4028738 35.2162726,29.7170556 L41.0708992,33.0892425 C41.6157054,33.4029455 41.5470647,33.9513269 40.9182575,34.3134024 C40.2889703,34.6759568 39.3375995,34.7152295 38.7927933,34.4015266" id="Fill-25" fill="#FFFFFF"></path>
                            <path d="M49.5966602,40.6248661 L43.7420336,37.2522003 C43.1972274,36.9389763 43.2658682,36.3905948 43.8946754,36.0280404 C44.5239625,35.665965 45.4753333,35.6262133 46.0201395,35.9403952 L51.8742861,39.313061 C52.4190923,39.6267639 52.3504516,40.1751454 51.7216444,40.5367419 C51.0923572,40.8992963 50.1414664,40.938569 49.5966602,40.6248661" id="Fill-27" fill="#FFFFFF"></path>
                        </g>
                    </g>
                    <path d="M142.592102,29.8329102 C141.941695,30.207438 140.887123,30.207438 140.236715,29.8329102 C139.585828,29.4579035 139.585828,28.8506129 140.236715,28.4760851 C140.887123,28.1010784 141.941695,28.1010784 142.592102,28.4760851 C143.24251,28.8506129 143.24251,29.4579035 142.592102,29.8329102" id="Fill-31" fill="#24126A"></path>
                    <path d="M133.60088,23.296203 L138.211812,25.9523809 C138.774859,26.2770994 138.704778,26.8441593 138.053891,27.2186871 C137.403483,27.5932149 136.419472,27.6339244 135.856426,27.3096849 L131.245493,24.6530281 C130.681967,24.3287886 130.752047,23.7617286 131.402935,23.3872008 C132.053342,23.012673 133.037353,22.9719635 133.60088,23.296203" id="Fill-33" fill="#24126A"></path>
                    <path d="M107.686681,8.05024008 L112.297614,10.706418 C112.86114,11.0311364 112.790579,11.5977175 112.140172,11.9722452 C111.489764,12.347252 110.505753,12.3879615 109.942227,12.063243 L105.331294,9.40706517 C104.767768,9.0823467 104.838329,8.51576567 105.489216,8.14075894 C106.139143,7.76623116 107.123155,7.72552162 107.686681,8.05024008" id="Fill-35" fill="#24126A"></path>
                    <path d="M142.592102,28.1835511 C141.941695,28.5580789 140.887123,28.5580789 140.236715,28.1835511 C139.585828,27.8085444 139.585828,27.2012538 140.236715,26.8267261 C140.887123,26.4517193 141.941695,26.4517193 142.592102,26.8267261 C143.24251,27.2012538 143.24251,27.8085444 142.592102,28.1835511" id="Fill-37" fill="#42E8E0"></path>
                    <path d="M133.60088,21.6468439 L138.211812,24.3030218 C138.774859,24.6277403 138.704778,25.1948003 138.053891,25.569328 C137.403483,25.9438558 136.419472,25.9845654 135.856426,25.6603258 L131.245493,23.003669 C130.681967,22.6794295 130.752047,22.1123695 131.402935,21.7378417 C132.053342,21.363314 133.037353,21.3226044 133.60088,21.6468439" id="Fill-39" fill="#42E8E0"></path>
                    <path d="M107.686681,6.40083312 L112.297614,9.057011 C112.86114,9.38172946 112.790579,9.9483105 112.140172,10.3228383 C111.489764,10.697845 110.505753,10.7385545 109.942227,10.4138361 L105.331294,7.75765821 C104.767768,7.43341868 104.838329,6.86635871 105.489216,6.49135199 C106.139143,6.1168242 107.123155,6.07611466 107.686681,6.40083312" id="Fill-41" fill="#42E8E0"></path>
                    <path d="M12.3444444,77.2588082 C11.7261974,77.2588082 11.1084304,77.3938681 10.638025,77.6654247 L1.14351701,83.1353503 C0.704312013,83.3882284 0.46238926,83.719652 0.46238926,84.069754 C0.46238926,84.4193771 0.704312013,84.7522375 1.14399701,85.0051156 L10.638505,90.4745623 C11.5793157,91.0171966 13.1100531,91.0171966 14.0513439,90.4745623 L23.5458519,85.0051156 C23.9850569,84.7522375 24.2269796,84.4198561 24.2269796,84.070233 C24.2269796,83.7201309 23.9850569,83.3882284 23.5458519,83.1353503 L14.0508638,77.6654247 C13.5804585,77.3938681 12.9626915,77.2588082 12.3444444,77.2588082 M12.3449244,91.0444959 C11.6964371,91.0444959 11.0484297,90.902252 10.5554641,90.618722 L1.06047606,85.1492753 C0.567030451,84.8647874 0.295827365,84.4816388 0.295827365,84.069754 C0.295827365,83.6578692 0.567510456,83.2751995 1.06047606,82.9911906 L10.5549841,77.521265 C11.5418753,76.9532471 13.1470136,76.9532471 14.1339048,77.521265 L23.6288928,82.9911906 C24.1218584,83.2751995 24.3935415,83.6583482 24.3935415,84.070233 C24.3935415,84.4816388 24.1223384,84.8652664 23.6288928,85.1492753 L14.1343848,90.618722 C13.6409392,90.902252 12.9929318,91.0444959 12.3449244,91.0444959" id="Fill-43" fill="#42E8E0"></path>
                    <g id="Group-47" transform="translate(0.000000, 78.066533)">
                        <mask id="mask-6" fill="white">
                            <use xlink:href="#path-5"></use>
                        </mask>
                        <g id="Clip-46"></g>
                        <path d="M24.6893209,3.90399718 L24.6893209,0.66016509 L24.0941141,0.329699396 C23.9265922,1.34264859 22.7313786,2.01028508 21.7324872,2.14917645 L14.9288898,6.11859626 L11.9595761,7.18853881 L2.48234824,2.30866207 L2.70123073,2.18222302 C1.89146152,1.80482162 1.45513655,0.940821461 1.01689157,0.153451026 L0.378964311,0.533247106 L-0.00024000273,0.639570851 L-0.00024000273,3.93848056 C-0.00024000273,4.35898618 0.278163164,4.7794918 0.834009488,5.09989984 L10.3289975,10.5693465 C11.4402101,11.2101626 13.2493507,11.2101626 14.3610434,10.5693465 L23.8555514,5.09989984 C24.4022776,4.78476009 24.6802008,4.37287532 24.6893209,3.9590748 C24.6893209,3.9403963 24.6888409,3.92219674 24.6878809,3.90351824 L24.6893209,3.90399718 Z" id="Fill-45" fill="#42E8E0" mask="url(#mask-6)"></path>
                    </g>
                </g>
                <g id="Group-51" transform="translate(-0.000000, 76.301655)">
                    <mask id="mask-8" fill="white">
                        <use xlink:href="#path-7"></use>
                    </mask>
                    <g id="Clip-50"></g>
                    <path d="M0.378724309,0.662368194 L0,0.769649811 L0,2.97035976 C0,3.39134431 0.277923162,3.81184993 0.833769485,4.13177904 L0.833769485,4.13177904 L10.3287575,9.60170467 C11.4404502,10.2420418 13.2491107,10.2420418 14.3612834,9.60170467 L14.3612834,9.60170467 L23.8557914,4.13225798 C24.4025176,3.81711823 24.6799608,3.40475451 24.6890809,2.99095399 L24.6890809,2.99095399 C24.6895609,2.97275443 24.6886009,2.95407594 24.6876409,2.93587638 L24.6876409,2.93587638 L24.6895609,2.93635531 L24.6895609,0.789765114 L24.0943541,0.459778356 C23.9263522,1.47320648 22.7311386,2.14036404 21.7322472,2.27877648 L21.7322472,2.27877648 L14.9286498,6.24867522 L11.9598161,7.31813884 L2.48258824,2.43826209 L2.70147073,2.31230198 C1.89122152,1.93442165 1.45489655,1.07137936 1.01713157,0.283051051 L1.01713157,0.283051051 L0.378724309,0.662368194 Z" id="Fill-49" mask="url(#mask-8)"></path>
                </g>
                <g id="Group-64" transform="translate(-0.000000, 14.040003)">
                    <path d="M21.7324392,64.5403331 L14.9288418,68.5102318 L12.3444924,69.4408041 L12.3444924,72.3436339 C13.0745807,72.3436339 13.8051491,72.1836693 14.3609954,71.8632613 L23.8555034,66.3938146 C24.4022296,66.0786748 24.6801528,65.6667901 24.6892729,65.2525106 C24.6897529,65.234311 24.6887929,65.2156325 24.6878329,65.197433 L24.6892729,65.1979119 L24.6892729,63.0518007 L24.1454267,62.7495922 L24.088786,62.7495922 C23.9030239,63.7467365 22.7222105,64.4028785 21.7324392,64.5403331" id="Fill-52" fill="#0F054C"></path>
                    <path d="M10.3288055,69.6823314 L0.833817486,64.2128847 C-0.277875161,63.5720686 -0.277875161,62.5299043 0.833817486,61.8895672 L10.3283255,56.4205994 C11.4400181,55.7802623 13.2486787,55.7802623 14.3603714,56.4205994 L23.8553594,61.8900461 C24.967532,62.5303833 24.967532,63.5725475 23.8558394,64.2128847 L14.3608514,69.6823314 C13.2491587,70.3231475 11.4404982,70.3226685 10.3288055,69.6823314" id="Fill-54" fill="#263958"></path>
                    <path d="M12.3444444,57.5770378 C11.7890781,57.5770378 11.2337118,57.6991664 10.811307,57.9429447 L3.3933026,62.2160098 C3.00017813,62.4420675 2.78321566,62.7390077 2.78321566,63.0512738 C2.78321566,63.36354 3.00017813,63.6604801 3.3933026,63.8870168 L10.811307,68.1600819 C11.6565966,68.6471596 13.0332523,68.6471596 13.8785419,68.1600819 L21.2960663,63.8870168 C21.6896708,63.6604801 21.9061532,63.36354 21.9061532,63.0512738 C21.9056732,62.7390077 21.6891907,62.4425464 21.2960663,62.2164887 L13.8780619,57.9429447 C13.4551771,57.6991664 12.8998108,57.5770378 12.3444444,57.5770378 M12.3449244,68.688827 C11.7593178,68.688827 11.1741911,68.5609511 10.727786,68.3037626 L10.728266,68.3037626 L3.31026166,64.0311764 C2.86337657,63.773509 2.61713377,63.4253227 2.61713377,63.0512738 C2.61713377,62.677225 2.86337657,62.3295176 3.31026166,62.0718501 L10.727786,57.798785 C11.6191562,57.2853659 13.0692527,57.2853659 13.9615828,57.798785 L21.3791072,62.0723291 C21.8259923,62.3295176 22.0722351,62.677225 22.0722351,63.0512738 C22.0727151,63.4253227 21.8264723,63.773509 21.3791072,64.0311764 L13.9615828,68.3037626 C13.5156578,68.5609511 12.9300511,68.688827 12.3449244,68.688827" id="Fill-56" fill="#5351AF"></path>
                    <path d="M23.8556474,64.2129326 L14.3611394,69.6823793 C13.2494467,70.3231954 11.4403061,70.3227164 10.3286135,69.6823793 L0.834105489,64.2129326 C0.336819832,63.926529 0.0627367137,63.5601431 0.00993611304,63.1851364 C-0.0553446296,63.6487462 0.218738488,64.1257663 0.834105489,64.4806577 L10.3286135,69.9501044 C11.4403061,70.5899626 13.2494467,70.5899626 14.3611394,69.9501044 L23.8556474,64.4806577 C24.4705344,64.1262452 24.7446175,63.6492252 24.6793368,63.1851364 C24.6265362,63.5601431 24.352453,63.926529 23.8556474,64.2129326" id="Fill-58" fill="#FFFFFF"></path>
                    <path d="M24.3101166,0.415333115 C23.6918695,0.415333115 23.0741025,0.550393007 22.6036971,0.821949599 L13.1091891,6.29139629 C12.6699841,6.54427439 12.4280614,6.87617689 12.4280614,7.22627895 C12.4280614,7.57590208 12.6699841,7.90828351 13.1091891,8.16116161 L22.6041772,13.6306083 C23.5445079,14.1732426 25.0757253,14.1727636 26.017016,13.6306083 L35.511524,8.16116161 C35.950729,7.90828351 36.1926517,7.57590208 36.1926517,7.22627895 C36.1926517,6.87617689 35.950729,6.54427439 35.511524,6.29139629 L26.016536,0.821949599 C25.5461306,0.550393007 24.9283636,0.415333115 24.3101166,0.415333115 M24.3105966,14.2010208 C23.6621092,14.2010208 23.0141018,14.0587769 22.5206562,13.774768 L13.0261482,8.30532128 C12.5327026,8.02131236 12.2614995,7.63768479 12.2614995,7.22627895 C12.2614995,6.81439417 12.5327026,6.43124554 13.0261482,6.14723662 L22.5206562,0.677789927 C23.5075474,0.109772083 25.1126857,0.109772083 26.0995769,0.677789927 L35.5945649,6.14723662 C36.0875305,6.43124554 36.3592136,6.81439417 36.3592136,7.22627895 C36.3592136,7.63768479 36.0875305,8.02131236 35.5945649,8.30532128 L26.1000569,13.774768 C25.6070913,14.0587769 24.9586039,14.2010208 24.3105966,14.2010208" id="Fill-60" fill="#42E8E0"></path>
                    <path d="M36.655041,5.12681603 L36.655041,1.88298394 L36.0598342,1.55251825 C35.8923123,2.56546744 34.6970987,3.23310393 33.6982074,3.37151637 L26.89461,7.34141511 L23.9252962,8.41135766 L14.4480684,3.53100199 L14.6669509,3.40504188 C13.8571816,3.02764048 13.4208567,2.16411925 12.9826117,1.37626988 L12.3446844,1.75558702 L11.9654801,1.8623897 L11.9654801,5.16129941 C11.9654801,5.58180503 12.2438833,6.00231065 12.7992496,6.32271869 L22.2942376,11.7921654 C23.4059303,12.4325025 25.2150709,12.4325025 26.3267635,11.7921654 L35.8212715,6.32271869 C36.3679977,6.00757895 36.6459209,5.59569417 36.655041,5.18189365 C36.655041,5.16321515 36.654561,5.14501559 36.653601,5.1263371 L36.655041,5.12681603 Z" id="Fill-62" fill="#42E8E0"></path>
                </g>
                <path d="M12.3443004,14.0098297 L11.9655761,14.1161534 L11.9655761,16.3173423 C11.9655761,16.7383268 12.2434993,17.1588325 12.7993456,17.4787616 L12.7993456,17.4787616 L22.2938536,22.9486872 C23.4060263,23.5890243 25.2146869,23.5890243 26.3268595,22.9486872 L26.3268595,22.9486872 L35.8213675,17.4792405 C36.3680937,17.1641008 36.6455369,16.752216 36.654657,16.3384155 L36.654657,16.3384155 C36.655137,16.319737 36.654177,16.3010585 36.653697,16.28238 L36.653697,16.28238 L36.655137,16.2828589 L36.655137,14.1367476 L36.0599302,13.8067609 C35.8924083,14.8197101 34.6967147,15.4873466 33.6983034,15.625759 L33.6983034,15.625759 L26.894226,19.5956578 L23.9253922,20.6656003 L14.4481644,15.7852446 L14.6670469,15.6592845 C13.8567976,15.2818831 13.4204727,14.417883 12.9827077,13.6305125 L12.9827077,13.6305125 L12.3443004,14.0098297 Z" id="Fill-65"></path>
                <g id="Group-85" transform="translate(11.520131, 6.855966)">
                    <path d="M22.1779803,8.76979321 L15.3743829,12.739692 L12.7900335,13.6707431 L12.7900335,16.5726151 C13.5201218,16.5726151 14.2506901,16.4126505 14.8065364,16.0927214 L24.3010445,10.6232747 C24.8477707,10.308135 25.1256938,9.89577124 25.1348139,9.48197072 C25.1352939,9.46377116 25.1343339,9.44509267 25.1333739,9.42689311 L25.1348139,9.42737204 L25.1348139,7.28078184 L24.5909678,6.9790523 L24.5343271,6.9790523 C24.348565,7.97619661 23.1677516,8.63233864 22.1779803,8.76979321" id="Fill-67" fill="#0F054C"></path>
                    <path d="M10.7741066,13.9118394 L1.27911855,8.4423927 C0.167425905,7.80157662 0.167425905,6.75941235 1.27911855,6.1190752 L10.7741066,0.649628502 C11.8853192,0.00929135428 13.6944598,0.00929135428 14.8061524,0.650107438 L24.3011405,6.11955413 C25.4128331,6.75989128 25.4128331,7.80205556 24.3011405,8.4423927 L14.8066324,13.9118394 C13.6944598,14.5521765 11.8857992,14.5521765 10.7741066,13.9118394" id="Fill-69" fill="#263958"></path>
                    <path d="M12.7899855,1.80678526 C12.2346192,1.80678526 11.6792529,1.92843495 11.2563681,2.17221326 L3.83884367,6.4457573 C3.4457192,6.67181499 3.22923674,6.96827624 3.22875673,7.28054238 C3.22875673,7.59280851 3.44523919,7.8897487 3.83884367,8.11628533 L11.2568481,12.3893504 C12.1021377,12.8764281 13.4783133,12.8764281 14.324083,12.3893504 L21.7416073,8.11628533 C22.1347318,7.8897487 22.3516943,7.59280851 22.3516943,7.28102131 C22.3516943,6.96875518 22.1347318,6.67181499 21.7416073,6.4457573 L14.323603,2.17221326 C13.9007181,1.92843495 13.3453518,1.80678526 12.7899855,1.80678526 M12.7899855,12.9180955 C12.2048588,12.9180955 11.6192522,12.7902197 11.1733271,12.5330312 L11.1738071,12.5330312 L3.75580273,8.260445 C3.30843764,8.00277754 3.06219484,7.65459123 3.06267484,7.28054238 C3.06267484,6.90649353 3.30891764,6.55878614 3.75580273,6.30159763 L11.1733271,2.02805359 C12.0646973,1.5155923 13.5152738,1.5155923 14.4066439,2.02805359 L21.8246483,6.30159763 C22.2715334,6.55926508 22.5177762,6.90649353 22.5177762,7.28102131 C22.5177762,7.65507016 22.2715334,8.00277754 21.8246483,8.260445 L14.4071239,12.5330312 C13.9611988,12.7902197 13.3755922,12.9180955 12.7899855,12.9180955" id="Fill-71" fill="#5351AF"></path>
                    <path d="M24.3012365,8.4423927 L14.8067284,13.9118394 C13.6945558,14.5521765 11.8858952,14.5521765 10.7742026,13.9118394 L1.27921455,8.4423927 C0.782408901,8.1559891 0.508325783,7.78960322 0.455525182,7.4145965 C0.39024444,7.87820635 0.664327558,8.35522639 1.27921455,8.70963887 L10.7742026,14.1795645 C11.8858952,14.8194227 13.6945558,14.8194227 14.8067284,14.1795645 L24.3012365,8.70963887 C24.9161235,8.35570533 25.1902066,7.87868528 25.1249258,7.4145965 C25.0721252,7.78960322 24.7980421,8.1559891 24.3012365,8.4423927" id="Fill-73" fill="#FFFFFF"></path>
                    <g id="Group-79" transform="translate(109.921251, 63.698460)">
                        <path d="M0.307491498,16.0396553 C0.307491498,10.6995213 4.06545425,4.20467307 8.70086698,1.53460605 C11.0231334,0.196938396 13.1250773,0.0728940269 14.6447746,0.953178005 L14.6447746,0.952699069 L16.2316727,1.87943982 L15.7708674,1.9220651 C16.6075169,2.94411407 17.0947225,4.45036713 17.0947225,6.36946283 C17.0947225,11.7100758 13.3367597,18.2044451 8.70086698,20.874991 C7.10820887,21.792632 5.61875192,22.1389026 4.35057749,21.9818116 L4.38561789,22.4066277 L2.77471957,21.4659978 C2.76799949,21.4621663 2.76127941,21.4578559 2.75503934,21.4545033 L2.6897586,21.4166674 L2.69359864,21.4157095 C1.21758185,20.5224943 0.307491498,18.6661392 0.307491498,16.0396553" id="Fill-75" fill="#9FFFF8"></path>
                        <path d="M1.91205375,16.9765016 C1.91205375,22.3171146 5.6700165,24.4819043 10.3054292,21.8113584 C14.941802,19.1412914 18.6992847,12.6469221 18.6992847,7.30630912 C18.6992847,1.96521722 14.941802,-0.199093607 10.3054292,2.47145235 C5.6700165,5.14151936 1.91205375,11.6358886 1.91205375,16.9765016" id="Fill-77" fill="#42E8E0"></path>
                    </g>
                    <g id="Group-82" transform="translate(90.721032, 58.430166)">
                        <mask id="mask-10" fill="white">
                            <use xlink:href="#path-9"></use>
                        </mask>
                        <g id="Clip-81"></g>
                        <path d="M28.9643935,0.549578816 C21.6457503,0.549578816 14.329027,2.1540137 8.75712362,5.36384135 C3.3753024,8.46399271 0.411748684,12.5809247 0.411748684,16.9564821 C0.411748684,21.3320394 3.3753024,25.4480136 8.75664362,28.548165 C19.8980504,34.9663835 38.0278566,34.9668624 49.1702234,28.547686 C54.5520446,25.4475347 57.5155983,21.3310816 57.5155983,16.9555242 C57.5155983,12.5804458 54.5525246,8.46303484 49.1707034,5.36336242 C43.60024,2.15449264 36.2815968,0.549578816 28.9643935,0.549578816 M28.9629535,33.5257446 C21.6145499,33.5257446 14.2675863,31.9141257 8.67360267,28.6923246 C3.23850084,25.5615214 0.245186789,21.3933432 0.245186789,16.9564821 C0.245186789,12.519142 3.23850084,8.35096386 8.67408268,5.21968168 C19.86253,-1.22535721 38.0662571,-1.22439934 49.2542243,5.21920275 C54.6893262,8.35048493 57.6821602,12.5181841 57.6821602,16.9555242 C57.6821602,21.3928643 54.6888462,25.5605635 49.2537443,28.6918457 C43.6592807,31.9141257 36.3108771,33.5257446 28.9629535,33.5257446" id="Fill-80" fill="#42E8E0" mask="url(#mask-10)"></path>
                    </g>
                    <path d="M119.684946,65.2409682 C115.151774,65.2409682 110.618602,66.23476 107.167843,68.2233014 C103.839485,70.1400024 102.006824,72.6845883 102.006824,75.386744 C102.007304,78.0884208 103.839485,80.6320487 107.167363,82.5487497 C114.069362,86.5248747 125.299569,86.5248747 132.201568,82.5487497 C135.529926,80.6315698 137.362587,78.0874629 137.362587,75.3857861 C137.362587,72.6836304 135.529926,70.1400024 132.202048,68.2233014 C128.751289,66.23476 124.218117,65.2409682 119.684946,65.2409682 M119.684466,85.6944 C115.121054,85.6944 110.557642,84.6934242 107.083842,82.6924305 C103.702684,80.7450776 101.840743,78.1502035 101.840263,75.386744 C101.840263,72.6228055 103.702684,70.0274525 107.084322,68.0791417 C114.032401,64.0771543 125.33749,64.0771543 132.285569,68.0791417 C135.666727,70.0269736 137.529149,72.6218477 137.529149,75.3857861 C137.529149,78.1492456 135.666727,80.7445986 132.285089,82.6924305 C128.811289,84.6934242 124.247877,85.6944 119.684466,85.6944" id="Fill-83" fill="#42E8E0"></path>
                </g>
                <g id="Group-92" transform="translate(121.441382, 70.554426)">
                    <g id="Group-88">
                        <mask id="mask-12" fill="white">
                            <use xlink:href="#path-11"></use>
                        </mask>
                        <g id="Clip-87"></g>
                        <path d="M0.307491498,16.0396553 C0.307491498,10.6995213 4.06545425,4.20467307 8.70086698,1.53460605 C11.0231334,0.196938396 13.1250773,0.0728940269 14.6447746,0.953178005 L14.6447746,0.952699069 L16.2316727,1.87943982 L15.7708674,1.9220651 C16.6075169,2.94411407 17.0947225,4.45036713 17.0947225,6.36946283 C17.0947225,11.7100758 13.3367597,18.2044451 8.70086698,20.874991 C7.10820887,21.792632 5.61875192,22.1389026 4.35057749,21.9818116 L4.38561789,22.4066277 L2.77471957,21.4659978 C2.76799949,21.4621663 2.76127941,21.4578559 2.75503934,21.4545033 L2.6897586,21.4166674 L2.69359864,21.4157095 C1.21758185,20.5224943 0.307491498,18.6661392 0.307491498,16.0396553" id="Fill-86" fill="#9FFFF8" mask="url(#mask-12)"></path>
                    </g>
                    <g id="Group-91" transform="translate(1.440016, 0.957872)">
                        <mask id="mask-14" fill="white">
                            <use xlink:href="#path-13"></use>
                        </mask>
                        <g id="Clip-90"></g>
                        <path d="M0.47203737,16.01863 C0.47203737,21.359243 4.23000012,23.5240328 8.86541286,20.8534868 C13.5017856,18.1834198 17.2592683,11.6890505 17.2592683,6.34843755 C17.2592683,1.00734564 13.5017856,-1.15696518 8.86541286,1.51358077 C4.23000012,4.18364779 0.47203737,10.6780171 0.47203737,16.01863" id="Fill-89" fill="#7AC7C4" mask="url(#mask-14)"></path>
                    </g>
                </g>
            </g>
        </g>
    </g>
</svg>
