<?xml version="1.0" encoding="UTF-8"?>
<svg width="184px" height="219px" viewBox="0 0 184 219" version="1.1" xmlns="http://www.w3.org/2000/svg" xmlns:xlink="http://www.w3.org/1999/xlink">
    <!-- Generator: Sketch 62 (91390) - https://sketch.com -->
    <title>Page 1</title>
    <desc>Created with Sketch.</desc>
    <defs>
        <polygon id="path-1" points="0.920903683 0.0515121951 60.5093571 0.0515121951 60.5093571 92.1493465 0.920903683 92.1493465 0.920903683 0.0515121951"></polygon>
        <polygon id="path-3" points="0 169.560257 0 0.589086667 183.424327 0.589086667 183.424327 169.560257 9.46383782e-15 169.560257"></polygon>
    </defs>
    <g id="Desktop" stroke="none" stroke-width="1" fill="none" fill-rule="evenodd">
        <g id="Page-1">
            <g id="Group-3" transform="translate(0.000000, 0.021659)" fill="#263958">
                <path d="M53.8379696,37.1082049 C53.0621567,38.5247902 52.0044257,39.6044 50.8057357,40.559522 C50.776683,40.2311317 50.6260398,39.899522 50.2924725,39.6086927 C49.6188819,39.019522 48.8624374,38.5913268 48.0995368,38.158839 C49.7576889,36.3891805 50.8875135,34.2600098 51.3943205,31.9784488 C51.5029988,31.9709366 51.6159813,31.954839 51.7321918,31.9247902 C53.1331743,31.5599122 54.5061801,31.0587415 55.9545076,30.9471317 C55.5714433,33.1009854 54.8881684,35.1925951 53.8379696,37.1082049 M45.9130573,18.3717171 C43.5834667,16.717961 40.7373848,15.6920098 37.848262,15.3947415 C37.848262,15.3786439 37.8536421,15.3646927 37.8536421,15.3485951 C37.9031392,13.1550341 38.3787415,10.9818634 38.6531275,8.80976585 C38.862952,7.13561951 39.2438643,5.06332683 38.5143205,3.44283902 C44.2656655,3.58986341 48.6838175,7.00898537 51.694531,11.6923024 C51.5352795,11.7781561 51.3814082,11.8951317 51.2382971,12.0636195 C49.4574784,14.1616683 47.6798877,16.2618634 45.9130573,18.3717171 M19.7000515,31.1445951 C15.3905778,28.1697659 9.3562386,29.3749366 4.77237895,26.8358146 C4.49476491,26.681278 4.22253099,26.6244 3.96320936,26.6276195 C5.3867883,20.1735707 9.93406316,15.1361073 15.6412912,11.3928878 C15.6983205,11.7084 15.8435836,11.9981561 16.0878409,12.1934732 C19.2847064,14.7551317 22.1695251,17.6280098 25.7828117,19.5897659 C22.6591158,22.701961 20.6361918,26.793961 19.7000515,31.1445951 M29.3153965,59.1876195 C29.201338,59.2380585 29.0851275,59.3013756 28.968917,59.3893756 C24.8832561,62.4747415 21.9360281,67.2997171 17.5038877,69.8860585 C13.2783439,62.6453756 9.88026199,55.6751317 8.95703392,53.7487902 C8.89139649,53.6124976 8.83544327,53.477278 8.77088187,53.3409854 C8.98716257,53.2733756 9.20236725,53.1574732 9.40358363,52.973961 C12.7683088,49.9207902 16.0039111,46.0638146 20.1240047,43.9700585 C20.1993263,44.2286927 20.2520515,44.4969854 20.3359813,44.7524 C22.164145,50.3296683 25.4169637,54.9958146 29.3153965,59.1876195 M45.2502269,1.54761951 C36.0609871,-2.75901463 23.9987649,3.1541561 16.0222035,7.64966829 C5.31361871,13.6873268 -0.223597661,22.3145463 0.28105731,34.7107415 C0.841665497,48.4977659 8.67511579,61.4584488 15.6821801,72.9306439 C19.0286129,78.4081073 30.0481684,97.8185463 38.814531,90.5349366 C39.2384842,90.1840098 39.3826713,89.7676195 39.3471626,89.3684 C42.907724,84.6786439 46.5941801,80.1605951 51.0101801,76.2263512 C51.6396538,75.6661561 51.6407298,74.5103512 51.0101801,73.9501561 C40.608262,64.7133756 27.6572444,56.7375707 23.1013614,42.8346439 C19.8517708,32.9206927 25.9119345,16.3842049 38.4788117,18.7505463 C46.0088234,20.1682049 51.0575251,27.4400098 47.0751626,34.5261561 C44.7079111,38.7383512 38.3464608,38.1191317 36.8034433,42.4590341 C35.9501567,44.8607902 39.2965895,47.6145463 41.3873029,47.7733756 C45.6827883,48.1017659 49.7135719,45.4735707 52.9771509,42.9666439 C66.139069,32.859522 58.5918409,7.80098537 45.2502269,1.54761951" id="Fill-1"></path>
            </g>
            <g id="Group-6" transform="translate(114.058480, 0.021659)">
                <mask id="mask-2" fill="white">
                    <use xlink:href="#path-1"></use>
                </mask>
                <g id="Clip-5"></g>
                <path d="M4.80422924,30.9469171 C6.25255673,31.0585268 7.62556257,31.5596976 9.02654503,31.9245756 C9.14275556,31.9546244 9.25573801,31.970722 9.36334035,31.9782341 C9.87122339,34.2597951 11.001048,36.3889659 12.6592,38.1586244 C11.8962994,38.5911122 11.139855,39.0193073 10.4662643,39.608478 C10.1326971,39.8993073 9.9820538,40.2309171 9.95300117,40.5593073 C8.75431111,39.6041854 7.69658012,38.5256488 6.92076725,37.1079902 C5.87056842,35.1923805 5.18621754,33.1007707 4.80422924,30.9469171 M9.52043977,12.0634049 C9.37732865,11.8949171 9.22238129,11.7790146 9.06420585,11.6920878 C12.0749193,7.00877073 16.4919953,3.58964878 22.2444164,3.44262439 C21.5137965,5.0631122 21.8957848,7.13540488 22.1056094,8.81062439 C22.3799953,10.9816488 22.8545216,13.1548195 22.9050947,15.3483805 C22.9050947,15.364478 22.9104749,15.3784293 22.9104749,15.3945268 C20.021352,15.6928683 17.1752702,16.7177463 14.8456795,18.3715024 C13.0777731,16.2616488 11.3012585,14.1614537 9.52043977,12.0634049 M34.9759251,19.5895512 C38.5881357,17.6277951 41.4740304,14.7549171 44.6708959,12.1932585 C44.9140772,11.9979415 45.0604164,11.7081854 45.1174456,11.3926732 C50.8246737,15.1369659 55.3719485,20.1733561 56.7944515,26.628478 C56.5362058,26.6241854 56.2639719,26.6810634 55.9852819,26.8356 C51.4024982,29.374722 45.3681591,28.1695512 41.0576094,31.1454537 C40.122545,26.7937463 38.098545,22.7017463 34.9759251,19.5895512 M40.4227556,44.7521854 C40.5066854,44.4967707 40.5594105,44.228478 40.6347322,43.9698439 C44.7548257,46.0636 47.9904281,49.9216488 51.3551532,52.9737463 C51.5563696,53.1572585 51.7704982,53.2742341 51.987855,53.3407707 C51.9232936,53.4770634 51.8673404,53.6122829 51.8017029,53.7485756 C50.8773988,55.6749171 47.480393,62.645161 43.2537731,69.8858439 C38.8227088,67.2995024 35.8754807,62.4745268 31.7898199,59.389161 C31.6736094,59.301161 31.5573988,59.2378439 31.4433404,59.1874049 C35.3417731,54.9956 38.5935158,50.3305268 40.4227556,44.7521854 M7.78158596,42.9664293 C11.0451649,45.4733561 15.0759485,48.1015512 19.3714339,47.7742341 C21.4610713,47.6143317 24.8085801,44.8605756 23.9552936,42.4598927 C22.412276,38.1199902 16.0508257,38.7381366 13.6835743,34.5259415 C9.7012117,27.4397951 14.7499135,20.1690634 22.2799251,18.7503317 C34.8468023,16.3839902 40.9069661,32.920478 37.6573754,42.8344293 C33.1014924,56.7373561 20.1504749,64.713161 9.74855673,73.9499415 C9.11800702,74.5101366 9.11908304,75.6659415 9.74855673,76.2261366 C14.1645567,80.1603805 17.8510129,84.6784293 21.4115743,89.3681854 C21.3749895,89.768478 21.5202526,90.1837951 21.9442058,90.534722 C30.7105684,97.8194049 41.729048,78.4089659 45.0765567,72.9304293 C52.082545,61.4593073 59.9170713,48.4975512 60.4776795,34.7105268 C60.9823345,22.3143317 55.4451181,13.6871122 44.7354573,7.65052683 C36.7599719,3.15501463 24.6977497,-2.75922927 15.5085099,1.54740488 C2.16689591,7.80077073 -5.38033216,32.8593073 7.78158596,42.9664293" id="Fill-4" fill="#263958" mask="url(#mask-2)"></path>
            </g>
            <g id="Group-9" transform="translate(0.000000, 49.387512)">
                <mask id="mask-4" fill="white">
                    <use xlink:href="#path-3"></use>
                </mask>
                <g id="Clip-8"></g>
                <path d="M177.155092,104.673961 C173.150133,95.9984488 166.54873,87.1877171 159.165057,80.2378634 C160.277665,79.9363024 161.003981,78.249278 160.039864,77.2190341 C157.998648,75.0394244 156.296379,72.6730829 154.706016,70.2069366 C155.14611,69.6392293 155.302133,68.8461561 154.860964,68.2494732 C152.800379,65.4678146 150.494461,62.7902537 153.301806,59.1361073 C153.804309,58.4836195 153.486882,57.569278 153.028496,57.0187415 C151.074437,54.6706439 150.113549,51.8578634 148.35425,49.466839 C148.850297,49.290839 149.36356,49.1524 149.918788,49.0622537 C150.986204,48.8905463 151.580168,47.3569854 150.964683,46.4941561 C149.151584,43.953961 147.86466,42.1950341 145.520005,41.1014732 C148.669525,36.737961 146.686414,32.9990341 141.461244,31.4590341 C142.018625,30.5844 142.56094,29.6990341 143.17535,28.8351317 C143.966227,27.7222537 143.171046,26.6533756 142.131607,26.3754244 C142.062742,26.0888878 141.932543,25.8334732 141.742087,25.6220585 C142.135911,24.5274244 141.211607,22.8994244 139.637385,23.1591317 C137.01942,23.5905463 134.537034,23.267522 132.023443,22.7352293 C132.180543,22.0441073 132.34087,21.3519122 132.445244,20.6479122 C132.643233,19.3043024 131.69956,18.2107415 130.288894,18.497278 C129.205338,18.717278 128.046461,18.6357171 126.873595,18.5391317 C126.537876,18.2354244 126.195701,17.9381561 125.850297,17.6430341 C125.920239,16.8306439 125.997712,16.0204 126.212917,15.2090829 C126.523888,14.0361073 125.651233,13.0981561 124.522484,12.9951317 C122.264987,12.7944488 120.103256,12.1301561 117.887724,11.7202049 C117.929689,10.7071317 117.841455,9.73805854 117.706952,8.52859512 C117.585361,7.43503415 116.676122,6.49386341 115.487116,6.84371707 C113.749338,7.3524 111.938391,7.18283902 110.147888,7.26225366 C110.241502,6.00879024 110.318975,4.75210732 110.633174,3.55444878 C111.036683,2.01874146 109.409736,0.883326829 108.05825,1.5808878 C106.025642,2.62722927 103.80473,3.05435122 101.672051,3.7808878 C101.526788,3.1466439 101.382601,2.51025366 101.283607,1.84918049 C101.085619,0.519521951 99.1907415,0.208302439 98.3557474,1.07757073 C95.0426713,4.51708293 91.3077942,5.06869268 87.5901333,1.85347317 C86.5506947,0.955229268 85.1260398,1.34800976 84.6601216,2.62400976 C82.7404959,7.89113171 79.017455,4.58576585 77.1075135,3.13376585 C75.8173614,2.1528878 74.1742737,3.7626439 74.5336655,5.10947317 C74.8252678,6.20732683 75.0458526,7.3159122 75.292262,8.41913171 C74.2087064,8.76147317 73.1337591,9.12849756 72.071724,9.53308293 C69.4397708,9.29269268 66.8982035,8.49747317 64.2253614,7.61961951 C62.8641918,7.17425366 61.9140632,8.46420488 62.0700865,9.60605854 C58.2168468,9.94410732 54.3560749,10.1802049 50.5157474,10.6642049 C49.0297591,10.8530829 47.8235368,13.1367902 49.6312561,13.9234244 C51.8048234,14.8688878 54.0192795,15.523522 56.2907649,15.9399122 C55.8302269,16.3112293 55.3686129,16.6814732 54.9005427,17.0377659 C54.4712094,16.893961 53.9902269,16.8918146 53.5253848,17.1193268 C45.9071392,20.8614732 38.0962854,24.1797171 30.9331977,28.773961 C29.7753965,29.5187415 29.754952,31.697278 31.3517708,31.9687902 C34.213993,32.4570829 36.9998175,32.3122049 39.7899462,31.8636195 C34.7143439,35.4319122 30.0368702,39.0742537 27.7912094,45.3587415 C27.2488936,46.8783512 29.107186,48.0191317 30.3661333,47.3323024 C30.5070924,47.2550341 30.6426713,47.1724 30.7825544,47.0951317 C29.3245427,50.0034244 27.867607,52.9106439 26.4095953,55.8178634 C25.565993,57.5027415 27.8105778,59.5321073 29.1620632,57.9363024 C29.5558877,57.4726927 30.0110456,57.1110341 30.4984842,56.7998146 C29.8066012,59.6823512 29.6893146,62.5981561 30.1283322,65.7114244 C30.2208702,66.3649854 30.8664842,66.8425463 31.5282386,66.9638146 C30.4952561,69.7808878 29.1577591,72.4681073 27.9687532,75.2411805 C27.4684023,76.4098634 28.0924959,77.7491805 29.3008702,77.8575707 C29.015724,78.6002049 28.7208936,79.3406927 28.4249871,80.0790341 C19.864145,89.971522 19.1109287,104.565571 9.95934971,114.177961 C9.6279345,114.101766 9.26101053,114.125376 8.88225029,114.299229 C-0.0401356725,118.43201 -4.81445146,133.198839 7.15415673,136.553571 C16.8319111,139.266546 18.481455,126.298351 16.8910924,119.456888 C21.3490573,110.9724 22.670414,100.394156 28.419607,92.6780585 C28.2711158,94.8963024 28.4454316,97.1413756 28.5078409,99.4325951 C28.5519579,101.087424 30.3284725,101.571424 31.500262,100.668888 C31.8919345,100.366254 32.2954433,100.082937 32.7011041,99.802839 C32.1480281,102.617766 32.0436538,105.443424 32.465455,108.445083 C32.6300865,109.60518 34.1526596,109.978644 35.0403789,109.489278 C35.0511392,109.481766 35.0608234,109.478546 35.0705076,109.472107 C33.4446363,113.490059 31.4572211,117.35562 30.1283322,121.500205 C29.6408936,123.018741 31.410952,124.179912 32.7032561,123.475912 C33.4726129,123.054156 34.2301333,122.613083 34.9876538,122.174156 C34.0461333,126.192107 32.1394199,130.019034 30.9073731,133.930741 C30.3596772,135.672498 32.6021099,136.772498 33.8373848,135.63279 C34.1935485,135.303327 34.5464842,134.980302 34.8983439,134.657278 C34.5927532,136.475229 34.3420398,138.306059 34.0235368,140.14762 C33.7265544,141.86362 35.5826947,143.064498 36.9524725,141.848595 C37.5389053,141.327034 38.1468585,140.839815 38.7623439,140.366546 C38.0037474,143.334937 37.893993,146.394546 38.6977825,149.623717 C38.9172912,150.505863 39.686648,150.906156 40.4603088,150.857863 C40.656145,151.201278 40.9832561,151.484595 41.4793029,151.620888 C43.6313497,152.211132 45.5875602,151.657376 47.5050339,150.667912 C47.7740398,150.530546 47.9515836,150.337376 48.0914667,150.12918 L49.855069,150.12918 C50.1208468,150.558449 50.5964491,150.875034 51.2937123,150.906156 C51.3647298,150.909376 51.4486596,150.919034 51.5207532,150.9244 C44.152145,154.138546 33.9245427,160.740693 38.539607,166.393083 C42.3272094,171.031327 51.2990924,169.718839 56.0777123,167.836498 C62.9330573,165.137473 67.5255251,158.746741 72.7098058,153.85201 C72.8722854,153.698546 72.9820398,153.534351 73.0638175,153.366937 C76.4586713,152.917278 79.8567532,152.471912 83.2655953,152.309863 C83.478648,152.405376 83.7282854,152.46118 84.0134316,152.46118 L90.244683,152.46118 C90.7999111,152.46118 91.210952,152.269083 91.4917942,151.978254 C93.4899696,151.832302 95.4892211,151.735717 97.4766363,151.809766 C97.7574784,152.187522 98.198648,152.453668 98.8152094,152.46118 C105.230461,152.515912 111.596215,152.889376 117.942601,152.104888 C121.965853,157.312985 127.366414,161.430741 133.436262,163.98918 C137.312098,165.6204 145.147701,167.320302 148.572683,163.703717 C152.835888,159.203912 147.928145,153.812302 142.729876,150.307327 C143.410999,150.234351 144.092122,150.167815 144.777549,150.12918 C146.772496,150.02079 147.13942,147.326059 145.244543,146.695034 C144.983069,146.608107 144.721595,146.522254 144.461198,146.435327 C144.808753,146.0844 145.008894,145.611132 144.956168,145.102449 C145.492028,144.741863 145.84604,144.097961 145.68894,143.254449 C145.630835,142.949668 145.551209,142.651327 145.471584,142.350839 C146.583116,142.398059 147.630087,141.283034 147.247022,140.14762 C147.141572,139.837473 147.035046,139.529473 146.929595,139.219327 C148.056192,139.297668 149.297923,138.22879 148.804028,137.038644 C147.973338,135.039327 147.438554,132.965961 146.726227,130.949473 C147.225502,131.069668 147.720473,131.214546 148.206835,131.419522 C149.508823,131.876693 150.678461,130.48479 150.363186,129.268888 C150.187794,128.594937 150.057595,127.910254 149.944613,127.223424 C151.173432,128.292302 153.086601,126.930449 152.699233,125.385083 L151.107794,119.034059 C151.963233,119.24762 152.819747,119.465473 153.659046,119.765961 C155.184847,120.311132 156.324356,118.4524 155.638929,117.197863 C154.22611,114.611522 153.367443,111.972595 152.727209,109.223132 C152.898297,109.312205 153.066157,109.400205 153.240473,109.489278 C154.450999,110.105278 156.454554,109.061083 155.815396,107.513571 C155.037432,105.630156 154.595186,103.71562 154.15294,101.780693 C154.926601,101.320302 155.299981,100.184888 154.860964,99.3284976 C154.005525,97.6650829 153.59018,95.8460585 153.175911,94.0238146 C154.014133,93.7394244 154.657595,92.9463512 154.258391,91.9751317 C153.619233,90.4211805 153.20066,88.8479122 152.850952,87.2564 C159.557806,92.6093756 164.439724,99.8554244 168.914905,107.117571 C170.254554,109.291815 170.882952,109.819815 169.578812,112.117473 C169.069853,113.012498 168.673876,114.277766 168.67818,115.315522 C168.687864,117.465083 169.313034,119.826059 171.295069,121.037668 C181.600145,127.333961 189.445432,107.943912 177.155092,104.673961" id="Fill-7" fill="#263958" mask="url(#mask-4)"></path>
            </g>
            <path d="M82.9336421,94.9888976 C83.0014316,94.3857756 82.7991392,93.7483122 82.1718175,93.3126049 C82.0609871,93.2353366 81.9533848,93.1763122 81.8447064,93.1087024 C81.7715368,92.9981659 81.7123556,92.8833366 81.6327298,92.7749463 C80.995724,91.9185561 79.7055719,91.5139707 78.879186,92.4208 C78.7855719,92.5227512 78.7199345,92.6397268 78.6327766,92.7438244 C75.3788819,94.2516293 74.5966129,101.673678 78.7705076,103.085971 C80.5201216,103.679434 81.8350222,102.478556 82.6011509,101.034068 C82.792683,100.832312 82.9357942,100.598361 82.9777591,100.336507 C82.9885193,100.261385 82.9971275,100.189483 83.0068117,100.114361 C83.0864374,99.8954341 83.1542269,99.6775805 83.2091041,99.467239 C83.5943205,97.9465561 83.5103906,96.3614829 82.9336421,94.9888976" id="Fill-10" fill="#F73859"></path>
            <path d="M105.703588,94.9888976 C105.772454,94.3857756 105.569085,93.7483122 104.94284,93.3126049 C104.832009,93.2353366 104.724407,93.1763122 104.614653,93.1087024 C104.542559,92.9981659 104.483378,92.8833366 104.402676,92.7749463 C103.76567,91.9185561 102.476594,91.5139707 101.649132,92.4208 C101.556594,92.5227512 101.490957,92.6397268 101.402723,92.7438244 C98.1488281,94.2516293 97.3676351,101.673678 101.54153,103.085971 C103.291144,103.679434 104.604968,102.478556 105.371097,101.034068 C105.563705,100.832312 105.706816,100.598361 105.747705,100.336507 C105.759542,100.261385 105.767074,100.189483 105.777834,100.114361 C105.856384,99.8954341 105.925249,99.6775805 105.97905,99.467239 C106.364267,97.9465561 106.280337,96.3614829 105.703588,94.9888976" id="Fill-12" fill="#F73859"></path>
            <path d="M123.186816,138.915493 C121.620126,136.914029 120.205156,134.796663 118.422185,133.002322 C120.313834,132.671785 122.194723,132.273639 124.067004,131.799298 C123.849647,134.176371 123.501015,136.544859 123.186816,138.915493 M102.723004,134.356663 C106.295401,134.316956 109.854887,134.125932 113.391775,133.721346 C111.813249,136.182127 110.302512,138.684761 108.645436,141.091883 C106.867846,138.690127 104.731939,136.584566 102.723004,134.356663 M93.0549333,140.905151 C91.200945,138.544176 89.3437287,136.18642 87.517717,133.805054 C88.7346994,133.870517 89.9527579,133.937054 91.1708164,134.019688 C93.3659041,134.165639 95.5609918,134.268663 97.7528515,134.325541 C96.0624187,136.421444 94.9605708,139.000273 93.0549333,140.905151 M79.423869,140.035883 C78.1218807,137.798322 76.4518924,135.777541 74.9239392,133.67198 C75.0121731,133.488468 75.0767345,133.298517 75.100407,133.098907 C77.8216702,133.306029 80.5472374,133.447688 83.2738807,133.585054 C81.9740444,135.727102 80.7764304,137.929249 79.423869,140.035883 M64.9868632,138.879005 C64.0076819,136.22398 63.3642199,133.43481 62.8229801,130.648859 C65.3258105,131.336761 67.8049684,132.156663 70.3745123,132.612761 C68.2407579,134.24398 66.6536234,136.689737 64.9868632,138.879005 M127.497366,127.22759 C126.68712,126.057834 124.395191,126.358322 124.28436,128.121541 C112.664384,131.213346 101.031495,130.959005 89.0230737,130.352663 C82.503448,130.022127 74.7528515,130.715395 68.4548865,128.860956 C66.2619509,128.214907 64.0657871,127.460468 61.8341146,126.886322 C61.4542784,126.518224 60.9055064,126.420566 60.378255,126.540761 C59.4184421,126.334712 58.4510971,126.17159 57.4719158,126.079298 C55.2208749,125.86681 55.2413193,129.365346 57.4719158,129.575688 C58.0217637,129.628273 58.5651556,129.709834 59.1074713,129.802127 C59.963986,134.344859 60.9722199,138.888663 62.9693193,143.083688 C63.4524538,144.096761 64.9900912,144.206224 65.7228632,143.436761 C67.7931322,141.26359 69.6460444,137.36798 72.2683135,135.447005 C74.2299041,138.063395 76.4906292,140.590712 77.6376702,143.627785 C78.1563135,145.002517 79.7251556,145.15598 80.5870503,144.013054 C82.4184421,141.581249 83.8678456,138.917639 85.4076351,136.303395 C87.4822082,138.994907 89.590138,141.661737 91.6830035,144.338224 C92.0897404,144.857639 93.1130386,144.976761 93.638138,144.589346 C96.6144187,142.393639 97.8970386,139.016371 100.213717,136.36242 C100.241694,136.397834 100.259986,136.433249 100.291191,136.46759 C102.696103,139.15481 105.357109,141.607005 107.212173,144.727785 C107.884688,145.85998 109.288898,145.662517 109.999074,144.727785 C112.22967,141.789444 114.090115,138.612859 116.073226,135.511395 C118.751448,138.097737 120.50429,141.651005 123.228781,144.213737 C124.405951,145.322322 126.083471,144.473444 126.220126,142.977444 C126.591354,138.913346 127.348875,134.869639 127.650161,130.798029 C127.782512,130.755102 127.917015,130.719688 128.050442,130.677834 C130.067986,130.04359 129.380407,127.02798 127.497366,127.22759" id="Fill-14" fill="#F73859"></path>
            <path d="M49.478138,97.6173073 C49.9806409,95.4226732 46.6008515,94.4900878 46.0983485,96.6879415 C45.613062,98.8106732 45.7012959,100.926966 46.0983485,103.056137 C46.5104655,105.271161 49.8891789,104.32999 49.478138,102.125698 C49.2016,100.63721 49.1402667,99.1004293 49.478138,97.6173073" id="Fill-16" fill="#FFFFFF"></path>
            <path d="M56.1633637,76.5626634 L56.1633637,82.3899805 C56.1633637,84.6447122 59.669048,84.6447122 59.669048,82.3899805 L59.669048,76.5626634 C59.669048,74.3079317 56.1633637,74.3079317 56.1633637,76.5626634" id="Fill-18" fill="#FFFFFF"></path>
            <path d="M88.8202433,116.500498 C88.3048281,114.305863 84.9261146,115.236302 85.4393778,117.429863 C85.7342082,118.686546 85.7654129,119.952888 85.7664889,121.238546 C85.7664889,123.493278 89.2721731,123.493278 89.2721731,121.238546 C89.2710971,119.643815 89.1850152,118.059815 88.8202433,116.500498" id="Fill-20" fill="#FFFFFF"></path>
            <path d="M86.4832281,72.9909366 C86.0700351,70.7759122 82.6923977,71.7170829 83.1023626,73.9192293 C83.4090292,75.5622537 83.4283977,77.2267415 83.4294737,78.8933756 C83.4294737,81.1491805 86.9351579,81.1491805 86.9351579,78.8933756 C86.9340819,76.9080098 86.848,74.9473268 86.4832281,72.9909366" id="Fill-22" fill="#FFFFFF"></path>
            <path d="M107.905025,76.4872195 C107.547785,74.9482927 107.484299,73.3642927 107.12706,71.8253659 C106.617025,69.6285854 103.237235,70.5611707 103.746194,72.7536585 C104.103434,74.2925854 104.167995,75.8776585 104.525235,77.4165854 C105.03527,79.6122927 108.416136,78.6818537 107.905025,76.4872195" id="Fill-24" fill="#FFFFFF"></path>
            <path d="M128.612126,87.4410732 L128.612126,96.7647805 C128.612126,99.0195122 132.118887,99.0195122 132.118887,96.7647805 L132.118887,87.4410732 C132.118887,85.1852683 128.612126,85.1852683 128.612126,87.4410732" id="Fill-26" fill="#FFFFFF"></path>
            <path d="M119.65294,108.418234 C119.65294,110.089161 119.637876,111.74721 119.326905,113.39238 C118.91156,115.594527 122.289198,116.535698 122.707771,114.32282 C123.078999,112.361063 123.158625,110.408966 123.159701,108.418234 C123.160777,106.163502 119.655092,106.163502 119.65294,108.418234" id="Fill-28" fill="#FFFFFF"></path>
            <path d="M135.62414,114.245122 L135.62414,116.96561 C135.62414,119.220341 139.129825,119.220341 139.129825,116.96561 L139.129825,114.245122 C139.129825,111.991463 135.62414,111.991463 135.62414,114.245122" id="Fill-30" fill="#FFFFFF"></path>
            <path d="M48.3096842,132.039473 C47.9018713,129.824449 44.5242339,130.76562 44.9298947,132.968839 C45.3011228,134.9864 45.2559298,137.065132 45.2570058,139.108449 C45.2580819,141.36318 48.7637661,141.36318 48.7626901,139.108449 C48.761614,136.738888 48.7400936,134.377912 48.3096842,132.039473" id="Fill-32" fill="#FFFFFF"></path>
            <path d="M56.9430503,172.518185 C56.9204538,170.263454 53.4147696,170.261307 53.4362901,172.518185 C53.4642667,175.371746 53.7989099,178.211356 53.8268865,181.064917 C53.847331,183.317502 57.3540912,183.319649 57.3314947,181.064917 C57.3045942,178.211356 56.9699509,175.371746 56.9430503,172.518185" id="Fill-34" fill="#FFFFFF"></path>
            <path d="M61.2261614,159.697766 L61.2261614,165.136595 C61.2261614,167.391327 64.7318456,167.391327 64.7318456,165.136595 L64.7318456,159.697766 C64.7318456,157.443034 61.2261614,157.443034 61.2261614,159.697766" id="Fill-36" fill="#FFFFFF"></path>
            <path d="M77.5861287,156.97921 L77.5861287,165.137454 C77.5861287,167.391112 81.0928889,167.391112 81.0928889,165.137454 L81.0928889,156.97921 C81.0928889,154.723405 77.5861287,154.723405 77.5861287,156.97921" id="Fill-38" fill="#FFFFFF"></path>
            <path d="M75.965745,190.311356 C75.2674058,187.779746 74.8864936,185.244917 74.859593,182.617795 C74.8369965,180.364137 71.3313123,180.36199 71.3539088,182.617795 C71.3840374,185.542185 71.8069146,188.422576 72.5848795,191.240722 C73.1853006,193.411746 76.5683181,192.48882 75.965745,190.311356" id="Fill-40" fill="#FFFFFF"></path>
            <path d="M95.1145497,154.647317 L95.1145497,161.641171 C95.1145497,163.894829 98.6202339,163.894829 98.6202339,161.641171 L98.6202339,154.647317 C98.6202339,152.392585 95.1145497,152.392585 95.1145497,154.647317" id="Fill-42" fill="#FFFFFF"></path>
            <path d="M100.115368,180.599376 C99.5934971,178.406888 96.2126316,179.337327 96.7345029,181.529815 C97.0368655,182.79401 97.061614,184.04318 97.0626901,185.337424 C97.0626901,187.592156 100.568374,187.592156 100.568374,185.337424 C100.567298,183.73518 100.488749,182.165132 100.115368,180.599376" id="Fill-44" fill="#FFFFFF"></path>
            <path d="M117.253946,158.456859 C116.864426,156.125932 116.474905,153.795005 116.085385,151.463005 C115.714157,149.243688 112.337595,150.188078 112.704519,152.393444 C113.095116,154.723298 113.484636,157.054224 113.873081,159.385151 C114.243233,161.606615 117.621946,160.662224 117.253946,158.456859" id="Fill-46" fill="#FFFFFF"></path>
            <path d="M138.287944,156.90162 C137.945768,154.680156 134.568131,155.627766 134.907078,157.832059 C135.258938,160.114693 135.234189,162.44562 135.234189,164.748644 C135.234189,167.002302 138.74095,167.002302 138.739874,164.748644 C138.739874,162.116156 138.689301,159.508351 138.287944,156.90162" id="Fill-48" fill="#FFFFFF"></path>
            <path d="M122.707663,177.256234 C123.120856,175.051941 119.741067,174.111844 119.326798,176.325795 C118.874868,178.73721 118.946961,181.056332 119.326798,183.472039 C119.476365,184.414283 120.640622,184.924039 121.483149,184.693307 C122.480622,184.418576 122.856154,183.482771 122.707663,182.542673 C122.431125,180.789112 122.380552,179.004429 122.707663,177.256234" id="Fill-50" fill="#FFFFFF"></path>
            <path d="M103.357104,121.549873 C102.966508,123.239044 102.905174,124.950751 102.905174,126.67641 C102.903022,128.932215 106.409782,128.932215 106.410858,126.67641 C106.410858,125.264117 106.417315,123.863629 106.736894,122.480312 C107.244777,120.285678 103.866063,119.354166 103.357104,121.549873" id="Fill-52" fill="#FFFFFF"></path>
        </g>
    </g>
</svg>
