<?xml version="1.0" encoding="UTF-8"?>
<svg width="219px" height="205px" viewBox="0 0 219 205" version="1.1" xmlns="http://www.w3.org/2000/svg" xmlns:xlink="http://www.w3.org/1999/xlink">
  <!-- Generator: Sketch 62 (91390) - https://sketch.com -->
  <title>Page 1</title>
  <desc>Created with Sketch.</desc>
  <defs>
    <polygon id="path-1" points="0.543114479 0.9102625 158.867633 0.9102625 158.867633 160.920716 0.543114479 160.920716 0.543114479 0.9102625"></polygon>
  </defs>
  <g id="Desktop" stroke="none" stroke-width="1" fill="none" fill-rule="evenodd">
    <g id="Page-1" transform="translate(0.000000, -1.000000)">
      <path d="M104.247092,164.559881 C102.117639,164.818669 99.9933388,164.613956 97.8600212,164.570181 C97.3872388,162.104619 96.9440859,159.633906 96.5318506,157.160619 C99.3762741,157.173494 102.27738,157.187656 105.096039,156.784669 C104.928568,159.373831 104.770115,161.961706 104.611662,164.550869 C104.495721,164.543144 104.375915,164.544431 104.247092,164.559881 M103.662233,182.595181 C103.640333,182.595181 103.624874,182.584881 103.602974,182.584881 L101.133427,182.584881 C100.746956,179.928769 100.28448,177.280381 99.7949506,174.634569 C101.206856,174.791644 102.608456,174.767181 104.024227,174.568906 C103.888962,177.244331 103.764004,179.919756 103.662233,182.595181 M103.301527,195.868019 C102.992351,195.852569 102.656121,195.826819 102.295415,195.797206 C102.278668,194.682231 102.229715,193.572406 102.169168,192.463869 C102.330198,192.423956 102.491227,192.373744 102.645815,192.299069 C102.728262,192.260444 102.82488,192.223106 102.911192,192.185769 C103.068356,192.175469 103.224233,192.160019 103.381398,192.147144 C103.358209,193.388294 103.311833,194.628156 103.301527,195.868019 M107.145621,197.713006 C107.201015,183.416606 108.106645,169.161406 109.077974,154.903631 C109.15398,153.804106 108.437721,153.195119 107.601656,153.070231 C107.190709,152.741919 106.641921,152.571969 105.987498,152.720031 C102.513127,153.497681 98.7695153,153.294256 95.2294447,153.294256 C95.0800094,153.294256 94.94088,153.309706 94.80948,153.335456 C93.6371859,153.171944 92.1608682,154.160744 92.40048,155.737931 C94.4075506,168.985019 98.1563153,182.023531 98.4268447,195.472756 C93.7428212,195.186931 88.6233741,195.593781 90.0958271,200.944631 C92.1286624,208.331019 102.697345,204.082269 106.510521,201.633444 C107.690545,200.875106 107.586198,199.480744 106.893127,198.651594 C107.052868,198.352894 107.144333,198.020719 107.145621,197.713006" id="Fill-1" fill="#3B3734"></path>
      <g id="Group-5" transform="translate(113.364706, 152.302237)" fill="#3B3734">
        <path d="M5.46301941,12.2488887 C5.30585471,9.65972625 5.14611353,7.07185125 4.97993118,4.48268875 C7.79730176,4.88567625 10.6984076,4.87151375 13.5428312,4.85863875 C13.1318841,7.33192625 12.6887312,9.80263875 12.2146606,12.2682012 C10.0826312,12.3119762 7.95833118,12.5166887 5.82759,12.2579012 C5.70005471,12.2424512 5.57896059,12.2411637 5.46301941,12.2488887 M6.05174294,22.2669262 C7.46751353,22.4652012 8.86911353,22.4896637 10.2810194,22.3325887 C9.79020176,24.9784012 9.32901353,27.6255012 8.94254294,30.2829012 L6.47170765,30.2829012 C6.45109588,30.2829012 6.43563706,30.2932012 6.41373706,30.2932012 C6.31067824,27.6177762 6.18700765,24.9410637 6.05174294,22.2669262 M6.69457235,39.8451637 C6.85173706,39.8580387 7.00761353,39.8734887 7.16349,39.8837887 C7.24980176,39.9211262 7.34770765,39.9571762 7.43015471,39.9970887 C7.58345471,40.0704762 7.74448412,40.1206887 7.90551353,40.1618887 C7.84625471,41.2704262 7.79730176,42.3802512 7.78055471,43.4952262 C7.42113706,43.5248387 7.08361941,43.5505887 6.77444294,43.5660387 C6.76413706,42.3248887 6.71904882,41.0850262 6.69457235,39.8451637 M3.18284294,46.3483262 C2.48977235,47.1787637 2.38542529,48.5731262 3.56544882,49.3314637 C7.37733706,51.7802887 17.9460194,56.0290387 19.9801429,48.6426512 C21.4525959,43.2918012 16.3331488,42.8849512 11.6491253,43.1707762 C11.9196547,29.7215512 15.6684194,16.6817512 17.67549,3.43595125 C17.9151018,1.85876375 16.4387841,0.86996375 15.2652018,1.03347625 C15.13509,1.00772625 14.9946724,0.99227625 14.8452371,0.99227625 C11.3064547,0.99227625 7.56155471,1.19570125 4.08847235,0.41805125 C3.43276059,0.26998875 2.88397235,0.43993875 2.47431353,0.76825125 C1.63824882,0.89313875 0.923278235,1.50083875 0.996707647,2.60165125 C1.96932529,16.8594262 2.87366647,31.1133387 2.92906059,45.4110262 C2.93163706,45.7187387 3.02310176,46.0509137 3.18284294,46.3483262" id="Fill-3"></path>
      </g>
      <path d="M34.3553029,114.073273 C34.4338853,113.983148 34.4905676,113.882723 34.5575559,113.784873 C36.6354794,115.901523 38.6283794,118.087698 40.4860147,120.400048 C39.7890794,120.755398 39.0947206,121.113323 38.4364324,121.538198 C38.1594618,121.71716 37.9559206,121.932173 37.8077735,122.169073 C35.7169676,120.258423 33.5733441,118.396698 31.3833441,116.594198 C32.4912265,115.898948 33.5127971,115.049198 34.3553029,114.073273 M24.4577912,108.62586 C24.3689029,108.704398 24.29805,108.789373 24.2284853,108.871773 C23.8909676,109.111248 23.5547382,109.350723 23.1940324,109.55286 C23.0149676,109.654573 22.8719735,109.775598 22.7444382,109.904348 C22.5731029,109.782035 22.4094971,109.648135 22.2381618,109.52711 C19.4156382,107.525048 16.4539853,105.52556 13.6817029,103.320073 C15.8472265,102.587485 17.9753912,101.74546 20.0700618,100.824898 C20.4449382,100.661385 20.7000088,100.42706 20.8700559,100.163123 C22.4700441,101.86906 24.1434618,103.466848 25.6184912,104.957773 C26.1428029,105.488223 26.6748441,106.008373 27.2043088,106.532385 C26.2561676,107.186435 25.3196206,107.859798 24.4577912,108.62586 M12.2285735,91.736435 C11.04855,92.225685 8.49784412,93.477135 7.38996176,93.16041 C6.36967941,92.8681475 5.57097353,93.3702725 5.17033235,94.0912725 C5.05567941,93.8981475 4.93458529,93.71146 4.82508529,93.513185 C2.56809706,89.4356725 4.48370294,85.5448475 7.72232647,82.1535725 C8.56096765,83.414035 10.0050794,84.176235 11.4247147,84.6384475 C12.3535324,84.938435 13.6881441,85.2667475 14.7973147,85.15731 C14.3451441,86.5851475 14.2137441,88.079935 14.5177676,89.640385 C14.5808912,89.975135 14.6659147,90.3034475 14.7560912,90.63176 C13.9187382,91.0089975 13.0788088,91.38366 12.2285735,91.736435 M19.6166029,73.1127475 C21.9405794,71.49436 24.2375029,69.8038725 26.5047971,68.072185 C26.5395794,69.297885 26.6104324,70.52101 26.5692088,71.7454225 C26.5563265,72.1007725 26.6323324,72.4046225 26.7585794,72.6646975 C25.2719559,73.6843975 23.7544147,74.7684725 22.3103029,75.9117725 C21.6661853,75.5770225 21.0053206,75.282185 20.33415,75.0105225 C19.6320618,74.69251 18.9299735,74.3719225 18.2265971,74.0526225 C18.7264324,73.71916 19.19535,73.4037225 19.6166029,73.1127475 M47.7413559,123.95226 C47.0276735,122.796085 46.2689029,121.68626 45.4817912,120.598323 C45.3594088,119.905648 44.8982206,119.274773 44.2863088,119.006973 C37.9404618,110.810748 29.7691853,104.25351 22.9312324,96.42036 C20.3843912,93.5015975 17.4755559,90.3394975 18.7921324,86.23366 C19.6874559,83.439785 22.5640853,81.1930975 24.7064206,79.3519725 C28.5015618,76.0920225 32.8532206,73.5479225 36.7063324,70.3600725 C37.2602735,69.9017225 37.4290324,69.339085 37.3556029,68.808635 C38.4982676,67.8571725 39.3794206,66.65851 39.9114618,65.085185 C40.9227265,62.103335 40.6212794,58.8832975 41.7433324,55.8859975 C42.1967912,54.6757475 41.4302912,53.780935 40.4654029,53.51571 C39.8612206,52.61446 38.6322441,52.16641 37.6699324,53.17066 C30.5047676,60.65361 22.0140088,66.7215975 13.56705,72.66341 C7.69012059,76.7975725 -0.236391176,82.450985 0.00579705882,90.48756 C0.224797059,97.7529225 7.81121471,103.57371 12.9667324,107.608735 C22.3863088,114.979673 32.0854324,121.563948 40.5465618,130.148998 C41.6789206,131.297448 43.2724676,130.608635 43.7800324,129.49881 C44.8080441,129.474348 45.8218853,128.67481 46.1529618,127.621635 C46.2379853,127.352548 46.2598853,127.101485 46.24185,126.86716 C46.2869382,126.796348 46.3191441,126.725535 46.3539265,126.653435 C47.5468324,126.442285 48.5529441,125.266798 47.7413559,123.95226" id="Fill-6" fill="#3B3734"></path>
      <path d="M186.697886,116.594198 C184.507886,118.396698 182.365551,120.258423 180.273457,122.169073 C180.124022,121.932173 179.921769,121.71716 179.644798,121.538198 C178.987798,121.113323 178.293439,120.755398 177.596504,120.400048 C179.452851,118.087698 181.445751,115.901523 183.523675,113.784873 C183.590663,113.882723 183.647345,113.983148 183.725928,114.073273 C184.568434,115.049198 185.591292,115.898948 186.697886,116.594198 M190.876922,106.532385 C191.406386,106.008373 191.937139,105.488223 192.464028,104.957773 C193.937769,103.466848 195.611186,101.86906 197.211175,100.163123 C197.38251,100.42706 197.636292,100.661385 198.011169,100.824898 C200.105839,101.74546 202.234004,102.587485 204.399528,103.320073 C201.628534,105.52556 198.665592,107.525048 195.844357,109.52711 C195.673022,109.648135 195.508128,109.782035 195.336792,109.904348 C195.209257,109.775598 195.067551,109.654573 194.887198,109.55286 C194.526492,109.350723 194.190263,109.111248 193.852745,108.871773 C193.783181,108.789373 193.713616,108.704398 193.623439,108.62586 C192.76161,107.859798 191.823775,107.186435 190.876922,106.532385 M203.325139,90.63176 C203.416604,90.3034475 203.500339,89.975135 203.564751,89.640385 C203.867486,88.079935 203.736086,86.5851475 203.283916,85.15731 C204.393086,85.2667475 205.727698,84.938435 206.656516,84.6384475 C208.077439,84.176235 209.520263,83.414035 210.358904,82.1535725 C213.598816,85.5448475 215.513134,89.4356725 213.256145,93.513185 C213.146645,93.71146 213.025551,93.8981475 212.912186,94.0912725 C212.511545,93.3702725 211.711551,92.8681475 210.691269,93.16041 C209.583386,93.477135 207.033969,92.225685 205.852657,91.736435 C205.002422,91.38366 204.163781,91.0089975 203.325139,90.63176 M199.854634,74.0526225 C199.151257,74.3719225 198.449169,74.69251 197.747081,75.0105225 C197.07591,75.282185 196.415045,75.5770225 195.770928,75.9117725 C194.326816,74.7684725 192.809275,73.6843975 191.323939,72.6646975 C191.448898,72.4046225 191.524904,72.1007725 191.512022,71.7454225 C191.472086,70.52101 191.542939,69.297885 191.576434,68.072185 C193.845016,69.8038725 196.140651,71.49436 198.465916,73.1127475 C198.885881,73.4037225 199.354798,73.71916 199.854634,74.0526225 M171.728592,126.653435 C171.762086,126.725535 171.795581,126.796348 171.840669,126.86716 C171.821345,127.101485 171.844534,127.352548 171.928269,127.621635 C172.259345,128.67481 173.273186,129.474348 174.301198,129.49881 C174.808763,130.608635 176.403598,131.297448 177.535957,130.148998 C185.995798,121.563948 195.693634,114.979673 205.114498,107.608735 C210.270016,103.57371 217.856434,97.7529225 218.075434,90.48756 C218.31891,82.450985 210.39111,76.7975725 204.514181,72.66341 C196.067222,66.7215975 187.577751,60.65361 180.411298,53.17066 C179.450275,52.16641 178.22001,52.61446 177.615828,53.51571 C176.652228,53.780935 175.884439,54.6757475 176.337898,55.8859975 C177.459951,58.8832975 177.159792,62.103335 178.169769,65.085185 C178.70181,66.65851 179.584251,67.8571725 180.725628,68.808635 C180.653486,69.339085 180.820957,69.9017225 181.374898,70.3600725 C185.22801,73.5479225 189.579669,76.0920225 193.37481,79.3519725 C195.518434,81.1930975 198.393775,83.439785 199.289098,86.23366 C200.605675,90.3394975 197.696839,93.5015975 195.151286,96.42036 C188.312045,104.25351 180.142057,110.810748 173.794922,119.006973 C173.184298,119.274773 172.721822,119.905648 172.600728,120.598323 C171.812328,121.68626 171.053557,122.796085 170.339875,123.95226 C169.529575,125.266798 170.534398,126.442285 171.728592,126.653435" id="Fill-8" fill="#3B3734"></path>
      <g id="Group-12" transform="translate(30.917647, 0.377237)">
        <mask id="mask-2" fill="white">
          <use xlink:href="#path-1"></use>
        </mask>
        <g id="Clip-11"></g>
        <path d="M158.342926,75.5387838 C155.966132,73.4169838 153.984826,71.1123587 152.131055,68.7098838 C152.643773,68.1588338 152.825414,67.3837587 152.311408,66.8043837 C149.911426,64.0929088 147.225455,61.4870088 150.496285,57.9283588 C151.081144,57.2923338 150.71142,56.4039588 150.176802,55.8670713 C147.901779,53.5791837 146.781014,50.8406713 144.73272,48.5128713 C145.309849,48.3403463 145.908879,48.2051587 146.554285,48.1176087 C147.797432,47.9502338 148.490502,46.4567338 147.774244,45.6172837 C145.661538,43.1414213 144.162032,41.4290463 141.430973,40.3642838 C145.101155,36.1155338 142.788773,32.4744838 136.701861,30.9758338 C137.35242,30.1222212 137.982367,29.2595963 138.699914,28.4175712 C139.622291,27.3360713 138.694761,26.2931963 137.485108,26.0228213 C137.403949,25.7447212 137.250649,25.4962338 137.029073,25.2915212 C137.490261,24.2241838 136.41072,22.6392712 134.578849,22.8903338 C131.529596,23.3113463 128.634932,22.9959088 125.709349,22.4783337 C125.892279,21.8049713 126.079073,21.1316088 126.200167,20.4453713 C126.432049,19.1372713 125.330608,18.0725088 123.689396,18.3506088 C122.425638,18.5643338 121.075567,18.4857962 119.711326,18.3905213 C119.318414,18.0969713 118.919061,17.8059963 118.51842,17.5201712 C118.598291,16.7296463 118.689755,15.9378338 118.940961,15.1498838 C119.302955,14.0065838 118.285249,13.0911712 116.971249,12.9946088 C114.341961,12.7976213 111.823461,12.1512963 109.241838,11.7508838 C109.290791,10.7646588 109.18902,9.82220875 109.031855,8.64157125 C108.888861,7.57809625 107.83122,6.66010875 106.446367,7.00129625 C104.423838,7.49827125 102.31242,7.33218375 100.226767,7.40943375 C100.336267,6.18888375 100.425155,4.96575875 100.789726,3.79799625 C101.259932,2.30192125 99.3662259,1.19724625 97.7920024,1.87575875 C95.4255141,2.89545875 92.8361612,3.31003375 90.3537318,4.01944625 C90.1849729,3.40015875 90.0162141,2.78087125 89.9002729,2.13583375 C89.6696788,0.84318375 87.4629318,0.53933375 86.4890259,1.38522125 C82.6320494,4.73658375 78.2803906,5.27347125 73.9493435,2.14227125 C72.7384024,1.26548375 71.0791553,1.65044625 70.5368082,2.89288375 C68.2991435,8.02357125 63.9629435,4.80482125 61.7381612,3.38985875 C60.2347906,2.43324625 58.3217612,4.00142125 58.7391494,5.31209625 C59.0792435,6.38200875 59.3368906,7.46222125 59.6241671,8.53599625 C58.3616965,8.87074625 57.1095318,9.22738375 55.8728259,9.62135875 C52.8055376,9.38703375 49.8451729,8.61195875 46.7315082,7.75705875 C45.1469788,7.32317125 44.0403847,8.57977125 44.2220259,9.69217125 C39.7338141,10.0204838 35.2352965,10.2522338 30.7612553,10.7234587 C29.0311553,10.9062837 27.6256906,13.1297963 29.7319553,13.8958587 C32.2633376,14.8164213 34.8436729,15.4537338 37.4897082,15.8618713 C36.9538024,16.2236588 36.4166082,16.5828713 35.8691082,16.9304963 C35.3705612,16.7888713 34.8088906,16.7875838 34.26912,17.0090338 C25.3931788,20.6539463 16.2956612,23.8855713 7.95176118,28.3583462 C6.60169059,29.0832088 6.57850235,31.2062963 8.43871412,31.4715213 C11.7726671,31.9466088 15.0177318,31.8049838 18.2692376,31.3672338 C12.3562376,34.8434838 6.90700235,38.3905462 4.29188471,44.5087463 C3.65807294,45.9906588 5.82359647,47.1017712 7.29089647,46.4322713 C7.45450235,46.3588838 7.61295529,46.2764837 7.77656118,46.2018088 C6.07737882,49.0330212 4.37948471,51.8642337 2.68159059,54.6967337 C1.69866706,56.3370088 4.31378471,58.3133212 5.88800824,56.7593088 C6.34662,56.3073963 6.87608471,55.9546213 7.44419647,55.6533463 C6.63776118,58.4613838 6.50120824,61.2977463 7.01392588,64.3323837 C7.12084941,64.9684087 7.87317882,65.4331962 8.64354353,65.5516463 C7.44162,68.2953088 5.88285529,70.9127962 4.49671412,73.6139713 C3.91443176,74.7521213 4.64099647,76.0550712 6.04903765,76.1593588 C4.29188471,79.9999713 2.31057882,83.7646212 0.661637647,87.6387087 C0.00979058824,89.1734088 2.19206118,90.1531962 3.66064941,89.5635212 C4.17336706,89.2931462 4.70412,89.0794212 5.24389059,88.8888713 C4.72344353,91.6029212 5.03390824,94.3530212 5.12537294,97.1726462 C5.17819059,98.7845963 7.24580824,99.2571088 8.61133765,98.3764587 C9.06866118,98.0816212 9.53886706,97.8060963 10.0103612,97.5344338 C9.36753176,100.274234 9.24386118,103.026909 9.73596706,105.949534 C9.92662588,107.078671 11.7005259,107.441746 12.7349788,106.966659 C12.7465729,106.958934 12.7594553,106.955071 12.7710494,106.948634 C10.8773435,110.862634 8.56109647,114.627284 7.01392588,118.663596 C6.44581412,120.142934 8.50699059,121.272071 10.0129376,120.585834 C10.9095494,120.177696 11.7919906,119.747671 12.6731435,119.318934 C11.5768553,123.232934 9.35722588,126.958959 7.92084353,130.769959 C7.28316706,132.465596 9.89570824,133.536796 11.3333788,132.425684 C11.7494788,132.106384 12.1591376,131.792234 12.5700847,131.478084 C12.2132435,133.248396 11.9221024,135.030296 11.5510906,136.823784 C11.2058435,138.494959 13.3675024,139.665296 14.9636259,138.480796 C15.2856847,138.241321 15.6270671,138.026309 15.9594318,137.798421 C14.6312612,140.448096 13.7294965,143.250984 13.1742671,146.288196 C12.9063141,147.746934 14.5050141,149.595784 16.0122494,148.469221 C16.3381729,148.224596 16.6744024,148.008296 17.01192,147.791996 C16.8392965,149.224984 16.6640965,150.659259 16.3948553,152.081946 C16.0624906,153.827796 18.2396082,155.532446 19.6231729,153.960409 C20.2157612,153.288334 20.8457082,152.705096 21.4782318,152.139884 L21.4782318,152.595659 C21.4782318,154.014484 23.1349024,155.061221 24.3857788,154.262971 C25.6856082,153.432534 26.9094318,152.627846 28.0624024,151.739471 C28.0971847,152.493946 28.0971847,153.250996 27.9889729,154.013196 C27.7506494,155.666346 29.8466082,157.592446 31.2172906,155.891659 C32.0172847,154.900284 32.8804024,153.973284 33.7448082,153.047571 C35.4620259,157.851234 40.1318788,159.004834 43.2738847,155.014871 C44.0326553,156.495496 44.8043082,157.968396 45.3801494,159.545584 C46.0577612,161.407309 48.4075024,161.350659 49.1057259,159.545584 C49.9314847,157.412196 50.7224612,155.265934 51.5173024,153.120959 C52.6973259,154.776684 54.0293612,156.297221 55.5378847,157.822909 C56.5027729,158.798834 58.4840788,158.422884 58.7674906,156.970584 C58.8808553,156.391209 59.0367318,155.831146 59.2119318,155.280096 C59.5661965,156.041009 59.9075788,156.810934 60.1948553,157.614334 C60.7307612,159.119421 62.8576376,159.627984 63.7259082,158.075259 C64.7577847,156.231559 65.6917553,154.645359 66.3487553,152.895646 C67.9461671,154.078859 69.6749788,155.049634 71.3883318,156.194221 C72.5168259,156.947409 73.7999082,156.125984 74.2263141,155.039334 C74.4697906,154.421334 74.7003847,153.826509 74.91552,153.238121 C76.1908729,155.133321 77.7380435,156.794196 79.7618612,158.125471 C80.56572,158.654634 81.9995259,158.363659 82.40532,157.431509 C83.0043494,156.055171 83.67552,154.752221 84.2423435,153.405496 C86.0613318,154.922171 87.9704965,156.292071 90.0677435,157.481721 C91.0480906,158.036634 92.7215082,157.597596 92.9057259,156.326834 C93.0680435,155.215721 93.2793141,154.211471 93.4609553,153.239409 C95.4319553,155.423009 97.5755788,157.325934 100.373626,158.769221 C101.481508,159.340871 102.858632,158.861921 103.211608,157.614334 C103.596791,156.257309 104.063132,155.008434 104.453467,153.756984 C106.18872,155.634159 108.306579,156.971871 111.140696,157.676134 C112.431508,157.996721 113.486573,157.074871 113.587055,155.814409 C113.714591,154.193446 113.961932,152.674196 114.129402,151.149796 C115.815702,152.595659 117.597332,153.872859 119.697155,154.906721 C120.799885,155.450046 122.192467,155.021309 122.535138,153.751834 C122.928049,152.304684 123.251396,150.972121 123.444632,149.657584 C125.072961,151.100871 126.926732,152.249321 129.175991,153.169884 C130.645867,153.772434 131.825891,152.070359 131.552785,150.794446 C131.501255,150.557546 131.452302,150.327084 131.402061,150.091471 C132.955673,151.193571 134.618785,152.150184 136.444214,152.975471 C137.723432,153.553559 139.371085,152.891784 139.351761,151.308159 C139.341455,150.531796 139.305385,149.806934 139.23582,149.103959 C140.677355,149.748996 142.219373,150.212496 143.990696,150.594884 C145.765885,150.978559 146.844138,149.304809 146.172967,147.758521 C144.99552,145.041896 143.618396,142.435996 141.653838,140.314196 C141.661567,140.164846 141.664144,140.014209 141.626785,139.849409 C141.561085,139.554571 141.467044,139.262309 141.374291,138.971334 C142.670255,139.016396 143.887638,137.929746 143.443196,136.823784 C143.320814,136.521221 143.195855,136.221234 143.072185,135.919959 C144.386185,135.995921 145.832873,134.954334 145.257032,133.798159 C144.288279,131.850171 143.664773,129.830084 142.836438,127.866646 C143.417432,127.981234 143.993273,128.125434 144.560096,128.324996 C146.077638,128.770471 147.439302,127.412159 147.072155,126.230234 C146.868614,125.572321 146.716602,124.906684 146.585202,124.235896 C148.016432,125.278771 150.245079,123.952646 149.794196,122.447559 L147.939138,116.262409 C148.936232,116.469696 149.934614,116.680846 150.912385,116.974396 C152.688861,117.506134 154.015744,115.694621 153.217038,114.472784 C151.571961,111.953146 150.571002,109.384584 149.826402,106.707871 C150.024791,106.792846 150.220602,106.880396 150.425432,106.966659 C151.834761,107.565346 154.167755,106.550796 153.424444,105.044421 C152.518814,103.207159 152.002232,101.345434 151.486938,99.4592463 C152.387414,99.0111962 152.825414,97.9052337 152.311408,97.0709338 C151.315602,95.4525462 150.832514,93.6796588 150.349426,91.9054838 C151.325908,91.6273837 152.075661,90.8548837 151.60932,89.9098588 C150.835091,88.3352462 150.337832,86.7438963 149.921732,85.1293713 C150.373902,85.3495337 150.837667,85.5671212 151.333638,85.7795587 C152.900132,86.4567837 154.810585,85.3521088 154.332649,83.8573212 C153.517196,81.3106463 152.536849,78.8219088 151.386455,76.3808087 C152.973561,76.8211338 154.506561,77.3593087 155.869514,78.2129212 C157.792849,79.4180213 159.860467,76.8932338 158.342926,75.5387838" id="Fill-10" fill="#F73859" mask="url(#mask-2)"></path>
      </g>
      <path d="M131.229566,50.8688675 C124.775508,39.6882175 106.054872,36.496505 96.07749,44.736505 C90.6063547,46.9909175 85.8347312,50.3796175 82.1581076,55.2952925 C77.1494488,61.9902925 74.6863429,73.63573 78.5639312,81.332405 C86.7158841,97.51628 107.304461,104.970905 123.407402,95.2283925 C139.454949,85.519355 140.073302,66.1901175 131.229566,50.8688675" id="Fill-13" fill="#FFFFFF"></path>
      <path d="M118.065348,87.8995563 C108.781036,93.4293688 95.8703418,88.7711938 90.44043,80.2530938 C87.0266065,74.8958063 87.9386771,64.2674938 92.3856653,58.3153813 C93.1921006,58.6385438 94.2110947,58.5291063 94.8577888,57.6497438 C100.809436,49.5462188 116.149742,47.0858063 122.440195,55.8240688 C129.417277,65.5112188 128.891677,81.4491813 118.065348,87.8995563 M124.60443,52.2718563 C117.803836,44.4490063 105.283477,45.1069188 96.8841829,50.6792188 C96.6754888,50.6779313 96.4564888,50.7049688 96.2181653,50.7899438 C85.9470653,54.4400063 81.5722182,71.4440188 86.3116359,80.6612313 C92.8146476,93.3122063 109.287312,97.6253313 121.452118,90.3779938 C133.841077,82.9980438 133.287136,62.2628563 124.60443,52.2718563" id="Fill-15" fill="#3B3734"></path>
      <path d="M111.578954,65.6927563 C111.661401,64.9704688 111.417925,64.2044063 110.668172,63.6816813 C110.534195,63.5902688 110.40666,63.5181688 110.27526,63.4396313 C110.18766,63.3057313 110.118095,63.1679688 110.021478,63.0366438 C109.258842,62.0105063 107.715536,61.5264063 106.724884,62.6117688 C106.614095,62.7353688 106.534225,62.8757063 106.429878,63.0018813 C102.535542,64.8082438 101.598995,73.7125938 106.59606,75.4095188 C108.690731,76.1202188 110.263666,74.6795063 111.180889,72.9465313 C111.410195,72.7057688 111.581531,72.4238063 111.631772,72.1096563 C111.645942,72.0195313 111.65496,71.9332688 111.666554,71.8431438 C111.763172,71.5804938 111.843042,71.3191313 111.908742,71.0667813 C112.371219,69.2436813 112.270736,67.3420438 111.578954,65.6927563" id="Fill-17" fill="#3B3734"></path>
      <path d="M130.648315,86.886165 C126.142068,95.2948275 116.971121,98.0500775 108.030768,97.922615 C92.7239559,97.7076025 79.8171265,88.2444775 78.4374265,72.497065 C77.6838088,63.906865 81.0461029,56.33379 86.8496029,51.237865 C87.2811618,51.232715 87.7256029,51.0614775 88.11465,50.63789 C88.6673029,50.0366275 89.2482971,49.481715 89.8434618,48.94869 C93.2379618,46.7509275 97.2173206,45.2831775 101.562538,44.7656025 C102.832738,44.6136775 103.443362,43.4987025 103.396985,42.5021775 C107.525779,41.741265 111.845232,41.7477025 116.047456,42.4017525 C125.474762,43.868215 131.231885,52.252415 133.723332,60.7846775 C136.256003,69.4521275 134.873726,79.00409 130.648315,86.886165 M137.014774,58.267615 C134.233474,48.74269 126.952368,40.7305775 117.074179,38.6783025 C106.687138,36.5178775 94.8843265,39.0516775 87.0209382,46.2771275 C78.5391971,52.139115 73.6580735,62.0696025 74.6732029,73.64294 C76.3440441,92.710815 93.5548676,102.222865 111.234609,101.768378 C133.718179,101.187715 142.617309,77.4475025 137.014774,58.267615" id="Fill-19" fill="#3B3734"></path>
      <path d="M154.097031,120.593816 C152.831984,116.471241 149.771137,113.390254 147.158596,110.085241 C145.61529,108.130816 142.89969,110.884779 144.426249,112.816029 C144.91449,113.434029 145.432361,114.046879 145.951519,114.663591 C137.136125,122.383441 125.712055,126.025779 114.133396,126.610304 C101.339931,127.255341 89.4508076,120.958179 78.0589429,115.953666 C78.5330135,115.325366 79.0096606,114.699641 79.5262429,114.103529 C81.1494194,112.230216 78.4286665,109.486554 76.7938959,111.372741 C73.9443194,114.661016 71.7285547,118.401204 69.4058665,122.064141 C68.0686782,124.174354 71.4142253,126.110754 72.7436841,124.012129 C73.7665429,122.398891 74.7636371,120.759904 75.8083959,119.155679 C88.1703018,124.547729 100.313208,130.640179 114.133396,130.472804 C126.451502,130.323454 139.006643,125.709054 148.336043,117.684066 C149.194008,118.903329 149.932166,120.189541 150.370166,121.619954 C151.099308,123.994104 154.830037,122.980841 154.097031,120.593816" id="Fill-21" fill="#3B3734"></path>
      <path d="M64.8778482,26.3976125 L59.0807894,33.1569875 C57.4679188,35.0367375 60.1886718,37.782975 61.8131365,35.887775 L67.6101953,29.1284 C69.2230659,27.24865 66.5023129,24.5024125 64.8778482,26.3976125" id="Fill-23" fill="#3B3734"></path>
      <path d="M67.5411459,35.4301975 C66.5517812,34.8508225 65.5302106,35.2834225 64.8976871,36.1228725 C63.89544,37.4515725 62.8274929,38.7313475 61.6577753,39.9158475 C59.9057753,41.688735 62.6368341,44.42081 64.3901224,42.646635 C65.7930106,41.22781 67.0348694,39.6634975 68.2355047,38.0721475 C68.8706047,37.228835 68.3707694,35.915585 67.5411459,35.4301975" id="Fill-25" fill="#3B3734"></path>
      <path d="M54.5915471,39.9855013 C53.5970294,41.6232013 52.5612882,43.1772138 51.8205529,44.9526763 C51.4147588,45.9260263 52.2521118,47.0757638 53.1693353,47.3281138 C54.2836588,47.6332513 55.1416235,46.9495888 55.5474176,45.9788138 C56.1464471,44.5432513 57.1242176,43.2583263 57.9293647,41.9347763 C59.2253294,39.7988138 55.8823588,37.8598388 54.5915471,39.9855013" id="Fill-27" fill="#3B3734"></path>
      <path d="M152.291698,37.0886263 C150.960951,35.1097388 149.482057,33.2441513 147.803486,31.5472263 C146.047622,29.7743388 143.316563,32.5064138 145.071139,34.2780138 C146.522981,35.7470513 147.803486,37.3255263 148.955169,39.0379013 C150.337445,41.0914638 153.688145,39.1615013 152.291698,37.0886263" id="Fill-29" fill="#3B3734"></path>
      <path d="M151.969639,28.7198763 C150.623434,26.7422763 149.017004,25.0041513 147.159369,23.5003513 C146.341339,22.8385762 145.229592,22.6982388 144.427022,23.5003513 C143.739104,24.1865888 143.606416,25.5680763 144.427022,26.2311388 C146.019281,27.5212137 147.476275,28.9696512 148.63311,30.6691513 C150.025692,32.7149888 153.376392,30.7850263 151.969639,28.7198763" id="Fill-31" fill="#3B3734"></path>
      <path d="M162.597581,36.4448762 C161.712563,34.9578137 160.907416,33.4244012 160.02111,31.9386262 C158.748334,29.8013762 155.406651,31.7429262 156.684581,33.8879012 C157.570886,35.3749637 158.376034,36.9070887 159.261051,38.3941512 C160.533828,40.5314012 163.87551,38.5898512 162.597581,36.4448762" id="Fill-33" fill="#3B3734"></path>
      <path d="M159.376992,92.7730012 C158.048822,90.7606387 156.841745,88.6697387 155.512286,86.6573762 C154.145469,84.5896512 150.798634,86.5221887 152.175757,88.6066512 C153.503928,90.6190137 154.711004,92.7086262 156.040463,94.7222762 C157.407281,96.7900012 160.754116,94.8574637 159.376992,92.7730012" id="Fill-35" fill="#3B3734"></path>
      <path d="M159.89409,84.5438162 C159.403272,83.1855037 158.564631,82.0499287 157.767214,80.8641412 C157.181066,79.9912162 156.075761,79.6139787 155.123755,80.1714662 C154.256772,80.6774537 153.841961,81.9379162 154.430684,82.8121287 C154.770778,83.3206912 155.123755,83.8215287 155.459984,84.3339537 C155.611996,84.5657037 155.75499,84.8013162 155.895408,85.0407912 C155.959819,85.1540912 156.022943,85.2686787 156.082202,85.3845537 C156.109255,85.4347662 156.126002,85.4643787 156.141461,85.4914162 C156.14919,85.5158787 156.154343,85.5326162 156.167225,85.5699537 C156.525355,86.5587537 157.469631,87.2140912 158.544019,86.9192537 C159.49989,86.6566037 160.252219,85.5351912 159.89409,84.5438162" id="Fill-37" fill="#3B3734"></path>
      <path d="M166.784345,87.9448763 L165.818169,86.0136263 C165.347963,85.0724638 164.037828,84.8149638 163.17471,85.3209513 C162.222704,85.8784388 162.011434,87.0204513 162.481639,87.9629013 L163.447816,89.8941513 C163.918022,90.8353138 165.228157,91.0915263 166.091275,90.5868263 C167.043281,90.0293388 167.254551,88.8860388 166.784345,87.9448763" id="Fill-39" fill="#3B3734"></path>
      <path d="M52.9812529,93.4167512 C51.9506647,95.1342762 50.9767588,96.8518012 50.2102588,98.7058012 C49.8070412,99.6804387 50.6379529,100.828889 51.5590412,101.081239 C52.6707882,101.386376 53.5351941,100.705289 53.9371235,99.7319387 C54.5683588,98.2049637 55.4701235,96.7797012 56.3190706,95.3660262 C57.6034412,93.2249137 54.2617588,91.2833637 52.9812529,93.4167512" id="Fill-41" fill="#3B3734"></path>
      <path d="M54.7192112,99.9938162 C54.4242053,101.086904 53.8419229,102.012616 53.3034406,103.073516 C52.8267935,104.010816 53.04837,105.160554 53.9965112,105.714179 C54.8647818,106.222741 56.1646112,105.960091 56.6412582,105.021504 C57.3046994,103.714691 58.0608935,102.447791 58.4460759,101.019954 C59.0940582,98.6123287 55.3659053,97.5913412 54.7192112,99.9938162" id="Fill-43" fill="#3B3734"></path>
      <path d="M63.1015006,99.1413625 C62.3620535,98.4023375 61.1073124,98.39075 60.3691535,99.1413625 C59.3231065,100.204837 58.4857535,101.422812 57.8120065,102.751512 C57.3353594,103.6901 57.5569359,104.83855 58.5063653,105.392175 C59.3720594,105.900737 60.6731771,105.639375 61.1498241,104.6995 C61.4371006,104.133 61.7462771,103.58195 62.0992535,103.052787 C62.3440182,102.684562 62.6467535,102.334362 63.1015006,101.87215 C63.8396594,101.121537 63.8512535,99.8906875 63.1015006,99.1413625" id="Fill-45" fill="#3B3734"></path>
      <path d="M79.5177406,136.043816 C79.1351347,138.056179 78.2501171,139.910179 77.5853876,141.837566 C76.7712229,144.198841 80.5058171,145.204379 81.3122524,142.863704 C81.9756935,140.936316 82.8619994,139.083604 83.2446053,137.069954 C83.7057935,134.636579 79.9815053,133.598854 79.5177406,136.043816" id="Fill-47" fill="#3B3734"></path>
      <path d="M86.0815571,137.59152 C85.0432394,137.305695 84.0139394,137.935283 83.7047629,138.94082 C83.3814159,139.99142 83.3827041,141.107683 83.0606453,142.15957 C82.7514688,143.165108 83.4174865,144.262058 84.4094276,144.535008 C85.4477453,144.819545 86.4783335,144.191245 86.7862218,143.185708 C87.1095688,142.13382 87.1082806,141.017558 87.4303394,139.966958 C87.7408041,138.960133 87.0734982,137.86447 86.0815571,137.59152" id="Fill-49" fill="#3B3734"></path>
      <path d="M141.341698,141.376126 C140.742669,140.443976 140.33301,139.410114 139.731404,138.479251 C139.163292,137.594739 138.025781,137.236814 137.087945,137.786576 C136.209369,138.300289 135.824186,139.542726 136.394875,140.428526 C136.993904,141.359389 137.403563,142.394539 138.005169,143.325401 C138.574569,144.208626 139.710792,144.567839 140.648628,144.018076 C141.528492,143.503076 141.912386,142.260639 141.341698,141.376126" id="Fill-51" fill="#3B3734"></path>
      <path d="M147.460816,139.123001 C146.914604,138.011889 146.468875,136.841551 146.436669,135.591389 C146.370969,133.105226 142.506263,133.098789 142.571963,135.591389 C142.622204,137.548389 143.268898,139.331576 144.124286,141.072276 C144.588051,142.016014 145.908492,142.267076 146.767745,141.764951 C147.724904,141.204889 147.925869,140.066739 147.460816,139.123001" id="Fill-53" fill="#3B3734"></path>
    </g>
  </g>
</svg>
