<?xml version="1.0" encoding="utf-8"?>
<svg viewBox="815 1774.572 169.404 159.318" width="169.404" height="159.318" xmlns="http://www.w3.org/2000/svg">
  <g id="Group" transform="matrix(1, 0, 0, 1, 815, 1774)">
    <line x1="18" y1="123" x2="18" y2="136" id="Path-2-Copy-4" stroke="#FFFFFF"/>
    <path d="M11.2913098,69.8 C10.9913098,68.601 11.0913098,67.401 11.4913098,66.3 C10.6913098,66.401 9.5913098,66.101 8.8913098,65.901 C7.7913098,65.601 6.6913098,65 5.9913098,64 C3.4913098,66.601 1.9913098,69.601 3.7913098,72.8 C3.8913098,72.901 3.9913098,73 4.0913098,73.2 C4.3913098,72.7 4.9913098,72.3 5.7913098,72.5 C6.6913098,72.8 8.6913098,71.8 9.5913098,71.401 C10.2913098,71.101 10.8913098,70.8 11.4913098,70.601 C11.3913098,70.3 11.2913098,70.101 11.2913098,69.8" id="Fill-1-Copy" fill="#FFFFFF"/>
    <path d="M76.048,119 C76.033,119.038 76.015,119.077 76,119.115 C76.071,119.116 76.143,119.117 76.215,119.118 C76.161,119.078 76.102,119.04 76.048,119" id="Fill-3-Copy" fill="#FFFFFF"/>
    <path d="M16.6,78 C16.5,78.2 16.3,78.4 16,78.5 C14.3,79.2 12.7,79.8 11,80.4 C13.1,82.101 15.4,83.601 17.6,85.2 C17.7,85.3 17.9,85.4 18,85.5 C18.1,85.4 18.2,85.3 18.3,85.2 C18.6,85.101 18.8,84.9 19.1,84.7 C19.2,84.601 19.2,84.601 19.3,84.5 C20,83.9 20.7,83.4 21.5,82.9 C21.1,82.5 20.7,82.101 20.3,81.7 C19.1,80.601 17.8,79.3 16.6,78" id="Fill-5-Copy" fill="#FFFFFF"/>
    <path d="M26.3,89.2 C25.6,90 24.8,90.6 24,91.2 C25.7,92.6 27.4,94 29,95.5 C29.1,95.3 29.3,95.1 29.5,95 C29.875,94.775 30.296,94.551 30.698,94.326 C29.812,94.222 29.003,93.517 29.3,92.7 C29.365,92.533 29.447,92.369 29.516,92.202 C28.543,91.095 27.525,90.025 26.5,89 C26.4,89.1 26.4,89.1 26.3,89.2" id="Fill-7-Copy" fill="#FFFFFF"/>
    <path d="M17.1,59.101 C18.3,58.201 19.4,57.401 20.6,56.601 C20.5,56.401 20.5,56.201 20.5,55.901 C20.6,54.901 20.5,54 20.5,53 C18.8,54.3 17,55.601 15.2,56.901 C14.8,57.101 14.5,57.401 14,57.701 C14.5,57.901 15.1,58.201 15.6,58.401 C16.1,58.601 16.6,58.8 17.1,59.101" id="Fill-9-Copy" fill="#FFFFFF"/>
    <path d="M140.979,92 C140.552,91.84 140.154,91.737 139.753,91.646 C139.499,91.928 139.249,92.213 139,92.501 L139.855,95.433 C141.434,93.959 143.105,92.579 144.779,91.2 C143.879,90.601 143.079,90 142.479,89.2 C142.379,89.2 142.379,89.101 142.279,89 C142.248,89.031 142.217,89.063 142.186,89.095 C142.376,89.43 142.561,89.766 142.779,90.101 C143.379,91 142.379,92.4 140.979,92" id="Fill-25-Copy" fill="#FFFFFF"/>
    <path d="M163.5,64 C162.8,64.899 161.7,65.5 160.6,65.899 C159.899,66.1 158.899,66.399 158,66.3 C158.3,67.399 158.399,68.6 158.2,69.8 C158.1,70.1 158.1,70.3 158,70.6 C158.6,70.899 159.3,71.2 159.899,71.399 C160.899,71.8 162.8,72.7 163.7,72.5 C164.5,72.2 165.1,72.6 165.399,73.2 C165.5,73.1 165.6,73 165.7,72.8 C167.5,69.7 166,66.6 163.5,64" id="Fill-27-Copy" fill="#FFFFFF"/>
    <path d="M152.9,78 C151.599,79.3 150.299,80.5 149.2,81.7 C148.799,82.1 148.4,82.5 148,82.899 C148.7,83.5 149.5,84 150.2,84.5 L150.4,84.7 C150.7,84.899 150.9,85 151.2,85.2 C151.299,85.3 151.4,85.399 151.5,85.5 C151.599,85.399 151.799,85.3 151.9,85.2 C154,83.7 156.299,82.1 158.5,80.399 C156.799,79.899 155.099,79.2 153.5,78.5 C153.2,78.399 153,78.2 152.9,78" id="Fill-29-Copy" fill="#FFFFFF"/>
    <path d="M154.399,56.899 C152.599,55.7 150.899,54.299 149.099,53 L149.099,55.899 C149.199,56.2 149.099,56.399 149,56.599 C150.199,57.399 151.399,58.2 152.5,59.099 C153,58.799 153.5,58.599 154,58.399 C154.5,58.2 155.099,57.899 155.599,57.7 C155.199,57.5 154.799,57.2 154.399,56.899" id="Fill-31-Copy" fill="#FFFFFF"/>
    <path d="M81.3855223,127.584 C81.3855223,127.685 81.2855223,127.685 81.1855223,127.685 C79.4855223,127.885 77.8855223,127.685 76.1855223,127.685 C75.7855223,125.784 75.4855223,123.885 75.1855223,121.885 C77.3855223,121.885 79.6855223,121.885 81.7855223,121.584 C81.6855223,123.584 81.4855223,125.584 81.3855223,127.584 M80.7855223,141.685 L78.7855223,141.685 C78.4855223,139.584 78.0855223,137.584 77.7855223,135.484 C78.8855223,135.584 79.9855223,135.584 81.0855223,135.385 C80.9855223,137.584 80.8855223,139.584 80.7855223,141.685 M80.4855223,151.984 C80.2855223,151.984 79.9855223,151.984 79.6855223,151.885 C79.6855223,150.984 79.5855223,150.185 79.5855223,149.284 C79.6855223,149.284 79.7855223,149.185 79.9855223,149.185 C80.0855223,149.185 80.0855223,149.084 80.1855223,149.084 L80.5855223,149.084 C80.5855223,150.084 80.4855223,151.084 80.4855223,151.984 M82.4855223,119.185 C82.3855223,119.685 82.1855223,120.084 81.9855223,120.584 C81.6855223,121.385 80.6855223,122.084 79.7855223,121.484 C78.5435223,120.624 77.2155223,119.854 76.0525223,119.003 C75.9805223,119.002 75.9085223,119.001 75.8375223,119 C75.3405223,120.262 74.6625223,121.525 73.8855223,122.885 C73.5805223,123.494 72.9915223,123.688 72.4335223,123.576 C74.0735223,132.949 76.5035223,142.2 76.6855223,151.784 C73.0855223,151.584 69.0855223,151.885 70.1855223,155.984 C71.7855223,161.685 79.9855223,158.385 82.8855223,156.484 C83.7855223,155.885 83.6855223,154.784 83.1855223,154.185 C83.3855223,153.984 83.4855223,153.685 83.4855223,153.484 C83.4855223,142.934 84.1195223,132.383 84.8695223,121.917 C83.9455223,121.115 83.1635223,120.201 82.4855223,119.185" id="Fill-35-Copy" fill="#263958"/>
    <path d="M95.244,142.5 L93.345,142.5 C93.144,140.3 93.044,138.3 92.944,136.2 C94.044,136.4 95.144,136.4 96.244,136.3 C95.845,138.4 95.544,140.4 95.244,142.5 M94.345,152.601 C94.044,152.601 93.845,152.601 93.544,152.7 C93.544,151.8 93.444,150.8 93.444,149.8 L93.845,149.8 C93.944,149.8 93.944,149.9 94.044,149.9 C94.144,150 94.244,150 94.444,150 C94.444,150.9 94.345,151.7 94.345,152.601 M96.845,120 C96.744,120.8 96.544,121.5 96.444,122.4 C96.434,122.503 96.404,122.593 96.37,122.681 C97.161,122.695 97.953,122.7 98.744,122.7 C98.444,124.601 98.044,126.5 97.744,128.5 C96.044,128.5 94.444,128.7 92.744,128.5 C92.744,128.4 92.644,128.4 92.544,128.4 C92.444,126.4 92.345,124.4 92.144,122.4 C92.422,122.438 92.698,122.459 92.975,122.487 C91.846,121.746 90.767,120.978 89.744,120.101 C89.522,120.656 89.266,121.217 89,121.789 C89.776,132.622 90.444,143.364 90.444,154.2 C90.544,154.4 90.644,154.7 90.744,154.9 C90.244,155.5 90.144,156.601 91.044,157.2 C94.044,159.101 102.244,162.4 103.744,156.7 C104.845,152.5 100.944,152.2 97.244,152.5 C97.43,142.878 99.925,133.427 101.563,123.909 C99.697,122.854 98.182,121.515 96.845,120" id="Fill-37-Copy" fill="#263958"/>
    <path d="M19.0047936,84.1 C18.9047936,84.201 18.9047936,84.201 18.8047936,84.3 C18.5047936,84.5 18.3047936,84.701 18.0047936,84.8 C17.9047936,84.9 17.8047936,85 17.7047936,85.1 C17.6047936,85 17.4047936,84.9 17.3047936,84.8 C15.1047936,83.201 12.8047936,81.701 10.7047936,80 C12.4047936,79.4 14.0047936,78.8 15.7047936,78.1 C16.0047936,78 16.2047936,77.8 16.3047936,77.6 C17.5047936,78.9 18.8047936,80.201 20.0047936,81.3 C20.4047936,81.701 20.8047936,82.1 21.2047936,82.5 C20.4047936,83 19.7047936,83.5 19.0047936,84.1 M9.50479357,71 C8.60479357,71.4 6.60479357,72.4 5.70479357,72.1 C4.90479357,71.9 4.30479357,72.3 4.00479357,72.8 C3.90479357,72.6 3.80479357,72.5 3.70479357,72.4 C1.90479357,69.201 3.40479357,66.201 5.90479357,63.6 C6.60479357,64.6 7.70479357,65.201 8.80479357,65.5 C9.50479357,65.701 10.6047936,66 11.4047936,65.9 C11.0047936,67 10.9047936,68.201 11.2047936,69.4 C11.2047936,69.701 11.3047936,69.9 11.4047936,70.201 C10.8047936,70.4 10.2047936,70.701 9.50479357,71 M15.3047936,56.5 C17.1047936,55.201 18.9047936,53.9 20.6047936,52.6 C20.6047936,53.6 20.7047936,54.5 20.6047936,55.5 C20.6047936,55.8 20.6047936,56 20.7047936,56.201 C19.5047936,57 18.4047936,57.8 17.2047936,58.701 C16.7047936,58.4 16.2047936,58.201 15.7047936,58 C15.2047936,57.8 14.6047936,57.5 14.1047936,57.3 C14.6047936,57 14.9047936,56.701 15.3047936,56.5 M32.0047936,93.3 C31.7227936,93.428 31.4087936,93.462 31.1027936,93.426 C30.7007936,93.651 30.2797936,93.875 29.9047936,94.1 C29.7047936,94.201 29.5047936,94.4 29.4047936,94.6 C27.8047936,93.1 26.1047936,91.701 24.4047936,90.3 C25.2047936,89.701 26.0047936,89.1 26.7047936,88.3 C26.8047936,88.201 26.8047936,88.201 26.9047936,88.1 C27.9297936,89.125 28.9477936,90.195 29.9207936,91.302 C30.3147936,90.339 30.7567936,89.385 31.2307936,88.438 C26.9287936,83.692 22.0237936,79.477 17.8047936,74.701 C15.8047936,72.4 13.6047936,70 14.6047936,66.8 C15.3047936,64.6 17.5047936,62.9 19.2047936,61.5 C22.1047936,59 25.5047936,57 28.5047936,54.5 C28.9047936,54.1 29.1047936,53.701 29.0047936,53.3 C29.8597936,52.635 30.5257936,51.694 30.9337936,50.573 C30.3967936,50.505 29.8957936,50.152 29.8047936,49.701 C29.4047936,47.4 29.5047936,45.201 30.1047936,43 C29.7047936,43.3 29.3047936,43.5 28.9047936,43.9 C28.1807936,44.624 27.1327936,44.363 26.5877936,43.757 C21.6007936,48.415 16.0197936,52.398 10.5047936,56.3 C5.90479357,59.5 -0.195206432,63.9 0.00479356792,70.1 C0.204793568,75.701 6.10479357,80.3 10.1047936,83.4 C17.1467936,88.898 24.3667936,93.853 30.7927936,100.208 C31.8737936,97.558 33.3047936,94.968 34.1047936,92.3 C33.4047936,92.6 32.7047936,93 32.0047936,93.3" id="Fill-39-Copy" fill="#7AC7C4"/>
    <path d="M139,91 L139.32,92.101 C139.569,91.812 139.819,91.527 140.074,91.245 C139.725,91.165 139.373,91.094 139,91" id="Fill-41-Copy" fill="#FFFFFF"/>
    <path d="M165.399,72.9413583 C165.099,72.3403583 164.5,71.9413583 163.7,72.2413583 C162.799,72.4413583 160.899,71.5413583 159.899,71.1403583 C159.299,70.9413583 158.599,70.6403583 158,70.3403583 C158.099,70.0413583 158.099,69.8403583 158.2,69.5413583 C158.399,68.3403583 158.299,67.1403583 158,66.0413583 C158.899,66.1403583 159.899,65.8403583 160.599,65.6403583 C161.7,65.2413583 162.799,64.6403583 163.5,63.7413583 C166,66.3403583 167.5,69.4413583 165.7,72.5413583 C165.599,72.7413583 165.5,72.8403583 165.399,72.9413583 M152.2,84.9413583 C152.099,85.0413583 151.899,85.1403583 151.799,85.2413583 C151.7,85.1403583 151.599,85.0413583 151.5,84.9413583 C151.2,84.7413583 151,84.6403583 150.7,84.4413583 L150.5,84.2413583 C149.799,83.7413583 149,83.2413583 148.299,82.6403583 C148.7,82.2413583 149.099,81.8403583 149.5,81.4413583 C150.599,80.2413583 151.899,79.0413583 153.2,77.7413583 C153.299,77.9413583 153.5,78.1403583 153.799,78.2413583 C155.399,78.9413583 157.099,79.6403583 158.799,80.1403583 C156.599,81.8403583 154.299,83.4413583 152.2,84.9413583 M153.7,58.1403583 C153.2,58.3403583 152.7,58.5413583 152.2,58.8403583 C151.099,57.9413583 149.899,57.1403583 148.7,56.3403583 C148.799,56.1403583 148.899,55.9413583 148.799,55.6403583 L148.799,52.7413583 C150.599,54.0413583 152.299,55.4413583 154.099,56.6403583 C154.5,56.9413583 154.899,57.2413583 155.299,57.4413583 C154.799,57.6403583 154.2,57.9413583 153.7,58.1403583 M158.899,56.5413583 C152.299,51.9413583 145.799,47.2413583 140.2,41.4413583 C139.765,40.9443583 139.215,40.9113583 138.742,41.1243583 C139.303,41.9863583 139.902,42.8433583 140.7,43.6403583 C141.099,44.0413583 141.399,44.7413583 140.899,45.2413583 C138.399,48.0413583 140.399,50.0413583 142.299,52.1403583 C142.7,52.6403583 142.599,53.2413583 142.2,53.6403583 C143.599,55.5413583 145.2,57.3403583 147,58.9413583 C147.21,59.1163583 147.33,59.3223583 147.384,59.5393583 C148.35,60.2473583 149.302,60.9673583 150.2,61.7413583 C151.899,63.1403583 154.099,64.9413583 154.799,67.0413583 C155.799,70.2413583 153.599,72.6403583 151.599,74.9413583 C148.338,78.6943583 144.663,82.0693583 141.174,85.5783583 C141.526,86.5303583 141.964,87.4833583 142.506,88.4353583 C142.538,88.4043583 142.568,88.3723583 142.599,88.3403583 C142.7,88.4413583 142.7,88.5413583 142.799,88.5413583 C143.399,89.3403583 144.2,89.9413583 145.099,90.5413583 C143.425,91.9203583 141.754,93.2993583 140.175,94.7733583 L140.399,95.5413583 C140.7,96.7413583 139,97.7413583 137.899,96.9413583 C138,97.4413583 138.099,97.9413583 138.299,98.4413583 C138.5,99.3403583 137.5,100.340358 136.299,100.041358 C135.899,99.8403583 135.5,99.7413583 135,99.6403583 C135.172,100.011358 135.327,100.388358 135.474,100.769358 C135.928,101.583358 137.045,101.995358 137.899,101.140358 C144.5,94.4413583 152,89.3403583 159.299,83.6403583 C163.299,80.5413583 169.2,75.9413583 169.399,70.3403583 C169.599,64.1403583 163.399,59.7413583 158.899,56.5413583" id="Fill-43-Copy" fill="#7AC7C4"/>
    <path d="M31.4605746,94.124 C31.5955746,94.049 31.7365746,93.974 31.8625746,93.898 C31.3585746,93.251 30.8235746,92.621 30.2785746,92 C30.2105746,92.167 30.1275746,92.331 30.0625746,92.498 C29.7655746,93.315 30.5745746,94.02 31.4605746,94.124" id="Fill-45-Copy" fill="#FFFFFF"/>
    <path d="M93,122 C93.416,122.273 93.838,122.543 94.269,122.812 C94.987,123.172 96.101,122.962 96.395,122.193 C95.264,122.173 94.132,122.118 93,122 Z" id="Fill-47-Copy" fill="#263958"/>
    <path d="M141.226,91.905 C142.626,92.305 143.626,90.905 143.026,90.006 C142.808,89.671 142.623,89.335 142.433,89 C141.612,89.824 140.793,90.675 140,91.551 C140.401,91.642 140.799,91.745 141.226,91.905" id="Fill-49-Copy" fill="#FFFFFF"/>
    <g id="Group-53-Copy" transform="translate(24.000000, 0.000000)">
      <mask id="mask-24" fill="white">
        <polygon points="0.815 0.572 123.323 0.572 123.323 124.86 0.815 124.86 0.815 0.572"/>
      </mask>
      <g id="Clip-52"/>
      <path d="M105.0049,70.1094 C104.3049,70.5094 103.3049,70.3094 102.9049,69.6094 L102.1059,68.1094 C101.7049,67.3094 101.9049,66.4094 102.6059,66.0094 C103.3049,65.6094 104.3049,65.8094 104.7049,66.5094 L105.5049,68.0094 C105.9049,68.7104 105.7049,69.6094 105.0049,70.1094 M99.6059,29.5094 C98.9049,28.3094 98.3049,27.2104 97.6059,26.0094 C96.6059,24.3094 99.2049,22.8094 100.2049,24.5094 C100.9049,25.7104 101.5049,26.8094 102.2049,28.0094 C103.2049,29.7104 100.6059,31.2104 99.6059,29.5094 M98.8049,67.3094 C98.0049,67.6094 97.3049,67.1094 97.0049,66.3094 L97.0049,66.2104 L97.0049,66.1094 C97.0049,66.0094 97.0049,65.9094 96.9049,65.8094 C96.8049,65.7104 96.7049,65.5094 96.6059,65.3094 C96.3049,64.9094 96.1059,64.5094 95.8049,64.1094 C95.3049,63.4094 95.6059,62.4094 96.3049,62.0094 C97.1059,61.5094 97.9049,61.8094 98.4049,62.5094 C99.1059,63.5094 99.7049,64.3094 100.1059,65.4094 C100.4049,66.1094 99.8049,67.0094 98.8049,67.3094 M97.1059,73.3094 C96.1059,71.7104 95.1059,70.1094 94.1059,68.5094 C93.0049,66.9094 95.6059,65.4094 96.7049,67.0094 C97.7049,68.6094 98.7049,70.2104 99.7049,71.8094 C100.8049,73.4094 98.2049,74.9094 97.1059,73.3094 M92.8049,94.2104 C92.4049,93.0094 91.9049,92.0094 91.2049,91.1094 C83.9049,97.3094 74.2049,100.9094 64.6059,101.0094 C53.9049,101.1094 44.5049,96.4094 34.9049,92.2104 C34.1049,93.5094 33.3049,94.7104 32.5049,96.0094 C31.5049,97.6094 28.9049,96.1094 29.9049,94.5094 C31.7049,91.7104 33.4049,88.8094 35.6049,86.2104 C36.8049,84.7104 39.0049,86.8094 37.7049,88.3094 C37.3049,88.7104 37.0049,89.2104 36.6049,89.7104 C45.4049,93.6094 54.7049,98.5094 64.6059,98.0094 C73.6059,97.5094 82.5049,94.7104 89.3049,88.7104 C88.9049,88.3094 88.5049,87.8094 88.1059,87.3094 C86.9049,85.8094 89.0049,83.7104 90.2049,85.2104 C92.2049,87.8094 94.6059,90.2104 95.6059,93.4094 C96.2049,95.2104 93.3049,96.0094 92.8049,94.2104 M90.0049,109.9094 C89.3049,110.3094 88.3049,110.1094 87.9049,109.4094 C87.2049,108.0094 86.7049,106.6094 86.7049,105.1094 C86.6059,103.2104 89.6059,103.2104 89.7049,105.1094 C89.7049,106.0094 90.1059,106.9094 90.5049,107.8094 C90.9049,108.5094 90.7049,109.4094 90.0049,109.9094 M85.2049,111.6094 C84.4049,112.1094 83.5049,111.8094 83.1059,111.1094 C82.7049,110.4094 82.4049,109.6094 81.9049,108.9094 C81.4049,108.2104 81.7049,107.2104 82.4049,106.8094 C83.2049,106.3094 84.1059,106.6094 84.5049,107.3094 C84.9049,108.0094 85.2049,108.8094 85.7049,109.5094 C86.2049,110.2104 85.9049,111.2104 85.2049,111.6094 M43.8049,108.4094 C43.5049,109.2104 43.6049,110.1094 43.3049,110.9094 C43.1049,111.6094 42.3049,112.1094 41.5049,111.9094 C40.8049,111.7104 40.3049,110.9094 40.5049,110.1094 C40.8049,109.3094 40.7049,108.4094 41.0049,107.6094 C41.2049,106.9094 42.0049,106.4094 42.8049,106.6094 C43.6049,106.8094 44.1049,107.6094 43.8049,108.4094 M39.2049,110.7104 C38.6049,112.5094 35.7049,111.7104 36.3049,109.9094 C36.8049,108.4094 37.5049,107.0094 37.8049,105.4094 C38.1049,103.5094 41.0049,104.3094 40.7049,106.2104 C40.4049,107.8094 39.7049,109.2104 39.2049,110.7104 M43.6049,35.7104 C49.7049,30.1094 58.8049,28.1094 66.9049,29.8094 C74.6059,31.4094 80.2049,37.6094 82.4049,45.0094 C86.7049,59.9094 79.8049,78.3094 62.4049,78.8094 C48.7049,79.2104 35.3049,71.8094 34.0049,57.0094 C33.2049,48.0094 37.0049,40.3094 43.6049,35.7104 M91.6059,30.0094 C90.7049,28.7104 89.7049,27.4094 88.6059,26.3094 C87.2049,24.9094 89.3049,22.8094 90.7049,24.2104 C92.0049,25.5094 93.2049,27.0094 94.2049,28.5094 C95.3049,30.1094 92.7049,31.6094 91.6059,30.0094 M88.2049,17.9094 C88.8049,17.3094 89.7049,17.4094 90.3049,17.9094 C91.7049,19.1094 93.0049,20.5094 94.0049,22.0094 C95.1059,23.6094 92.5049,25.1094 91.5049,23.4094 C90.6059,22.1094 89.4049,21.0094 88.2049,20.0094 C87.6059,19.5094 87.7049,18.4094 88.2049,17.9094 M29.0049,29.1094 C28.1049,30.4094 27.1049,31.6094 26.0049,32.7104 C24.7049,34.1094 22.5049,32.0094 23.9049,30.6094 C24.8049,29.7104 25.6049,28.7104 26.4049,27.7104 C26.9049,27.1094 27.7049,26.7104 28.5049,27.2104 C29.1049,27.6094 29.5049,28.6094 29.0049,29.1094 M25.0049,78.9094 C24.6049,79.2104 24.4049,79.5094 24.2049,79.8094 C24.0049,80.2104 23.7049,80.7104 23.5049,81.1094 C23.1049,81.8094 22.1049,82.0094 21.4049,81.6094 C20.8409,81.2064 20.6209,80.5474 20.7579,79.9394 C20.5139,80.4364 20.2479,80.9224 20.0049,81.4094 C19.6049,82.1094 18.6049,82.3094 17.9049,81.9094 C17.2049,81.4094 17.0049,80.5094 17.4049,79.8094 C17.8049,79.0094 18.3049,78.2104 18.5049,77.4094 C19.0049,75.5094 21.9049,76.3094 21.4049,78.3094 C21.3339,78.5704 21.2439,78.8244 21.1449,79.0754 C21.6199,78.2244 22.2209,77.3934 22.9049,76.7104 C23.5049,76.1094 24.4049,76.1094 25.0049,76.7104 C25.6049,77.3094 25.6049,78.2104 25.0049,78.9094 M16.0049,78.2104 C15.3049,78.0094 14.7049,77.2104 15.0049,76.4094 C15.6049,75.0094 16.4049,73.6094 17.2049,72.3094 C18.1049,70.6094 20.7049,72.1094 19.6049,73.8094 C19.0049,74.9094 18.3049,76.0094 17.8049,77.2104 C17.5049,77.9094 16.9049,78.4094 16.0049,78.2104 M16.2049,34.7104 C16.8049,33.3094 17.6049,32.1094 18.4049,30.8094 C19.4049,29.1094 22.0049,30.6094 20.8049,32.4094 C20.2049,33.4094 19.5049,34.4094 19.0049,35.5094 C18.7049,36.2104 18.1049,36.7104 17.2049,36.5094 C16.5049,36.3094 15.9049,35.5094 16.2049,34.7104 M21.9049,25.4094 L26.4049,20.2104 C27.6049,18.7104 29.8049,20.9094 28.5049,22.3094 L24.0049,27.5094 C22.8049,29.0094 20.6049,26.9094 21.9049,25.4094 M109.5049,98.9094 C109.4049,98.7104 109.4049,98.5094 109.4049,98.3094 C109.4049,98.2104 109.3049,98.2104 109.3049,98.1094 C108.4049,97.9094 107.6059,97.0094 108.2049,96.0094 C108.8049,95.1094 109.4049,94.2104 110.0049,93.4094 C110.1059,92.9094 110.4049,92.4094 110.9049,92.2104 C112.7899,89.7864 114.8989,87.5414 117.0799,85.3464 C116.8169,84.6344 116.5829,83.9224 116.4049,83.2104 C116.6059,83.3094 116.7049,83.3094 116.9049,83.4094 C118.0049,83.9094 119.8049,83.1094 119.2049,81.9094 C118.5049,80.5094 118.1059,79.0094 117.7049,77.6094 C118.4049,77.3094 118.7049,76.4094 118.3049,75.7104 C117.5049,74.4094 117.2049,73.1094 116.8049,71.7104 C117.6059,71.5094 118.1059,70.9094 117.8049,70.2104 C117.2049,69.0094 116.8049,67.7104 116.5049,66.5094 C116.9049,66.7104 117.2049,66.8094 117.6059,67.0094 C118.8049,67.5094 120.3049,66.7104 119.9049,65.5094 C119.3049,63.5094 118.5049,61.6094 117.6059,59.7104 C118.8049,60.0094 120.0049,60.5094 121.1059,61.1094 C122.2599,61.6044 123.5479,60.3314 123.2899,59.3074 C121.1329,57.7284 118.8759,56.2364 116.8049,54.5094 C116.4049,54.1094 116.2049,53.7104 116.3049,53.3094 C115.4049,52.6094 114.7049,51.6094 114.3049,50.4094 C113.5049,48.1094 113.8049,45.6094 112.9049,43.3094 C112.6059,42.4094 113.2049,41.7104 113.9049,41.5094 C114.0949,41.2444 114.3579,41.0224 114.6479,40.8924 C113.9419,39.8074 113.2959,38.7134 112.4049,37.7104 C112.8049,37.6094 113.3049,37.5094 113.8049,37.4094 C114.8049,37.3094 115.3049,36.1094 114.7049,35.5094 C113.1059,33.6094 111.9049,32.2104 109.8049,31.4094 C112.6059,28.1094 110.9049,25.3094 106.1059,24.1094 C106.6059,23.4094 107.1059,22.8094 107.7049,22.1094 C108.4049,21.3094 107.7049,20.4094 106.8049,20.2104 C106.7049,20.0094 106.6059,19.8094 106.4049,19.6094 C106.8049,18.8094 105.9049,17.5094 104.5049,17.7104 C102.1059,18.0094 99.9049,17.8094 97.6059,17.4094 C97.7049,16.9094 97.9049,16.4094 98.0049,15.8094 C98.2049,14.8094 97.3049,14.0094 96.1059,14.2104 C95.1059,14.4094 94.1059,14.3094 93.0049,14.2104 C92.7049,14.0094 92.4049,13.7104 92.1059,13.5094 C92.2049,12.9094 92.2049,12.3094 92.4049,11.7104 C92.7049,10.8094 91.9049,10.1094 90.9049,10.0094 C88.9049,9.8094 86.9049,9.3094 84.9049,9.0094 C84.9049,8.2104 84.9049,7.5094 84.7049,6.6094 C84.6059,5.8094 83.8049,5.1094 82.7049,5.3094 C81.1059,5.7104 79.5049,5.6094 77.9049,5.6094 C78.0049,4.7104 78.1059,3.7104 78.3049,2.8094 C78.7049,1.6094 77.2049,0.8094 76.0049,1.3094 C74.2049,2.1094 72.2049,2.4094 70.2049,3.0094 C70.1059,2.5094 69.9049,2.0094 69.8049,1.5094 C69.6059,0.5094 67.9049,0.3094 67.2049,0.9094 C64.2049,3.5094 60.8049,3.9094 57.5049,1.5094 C56.6049,0.8094 55.3049,1.1094 54.9049,2.1094 C53.2049,6.1094 49.8049,3.6094 48.1049,2.5094 C46.9049,1.8094 45.4049,3.0094 45.8049,4.0094 C46.1049,4.8094 46.3049,5.7104 46.5049,6.5094 C45.5049,6.8094 44.5049,7.0094 43.6049,7.3094 C41.2049,7.1094 38.9049,6.5094 36.5049,5.9094 C35.3049,5.6094 34.4049,6.5094 34.6049,7.4094 C31.1049,7.7104 27.6049,7.8094 24.2049,8.2104 C22.9049,8.3094 21.8049,10.1094 23.4049,10.7104 C25.4049,11.4094 27.4049,11.9094 29.4049,12.2104 C29.0049,12.5094 28.6049,12.8094 28.1049,13.0094 C27.7049,12.9094 27.3049,12.9094 26.9049,13.1094 C20.0049,15.9094 12.9049,18.4094 6.5049,21.9094 C5.5049,22.5094 5.4049,24.1094 6.9049,24.3094 C9.5049,24.7104 12.0049,24.6094 14.5049,24.2104 C9.9049,26.9094 5.7049,29.7104 3.7049,34.4094 C3.2049,35.6094 4.9049,36.4094 6.0049,35.9094 C6.1049,35.8094 6.2049,35.8094 6.4049,35.7104 C5.1049,37.9094 3.8049,40.1094 2.4049,42.3094 C2.0879,42.8254 2.2309,43.3694 2.5879,43.7664 C3.4789,42.9344 4.3569,42.0884 5.2049,41.2104 C6.0049,40.5094 6.9049,40.8094 7.4049,41.5094 C8.2049,41.7104 8.8049,42.4094 8.4049,43.3094 C7.6049,45.6094 7.8049,48.1094 7.0049,50.4094 C6.9849,50.4694 6.9549,50.5224 6.9339,50.5824 C6.9909,50.5894 7.0469,50.6094 7.1049,50.6094 C6.2049,52.7104 5.0049,54.8094 3.9049,56.9094 C3.4049,57.8094 4.0049,58.8094 5.1049,58.9094 C3.7049,61.9094 2.2049,64.8094 0.9049,67.8094 C0.4049,69.0094 2.1049,69.8094 3.2049,69.3094 C3.6049,69.1094 4.0049,68.9094 4.4049,68.8094 C4.0049,70.9094 4.2049,73.0094 4.3049,75.2104 C4.3049,76.5094 5.9049,76.8094 7.0049,76.1094 C7.4049,75.9094 7.7049,75.7104 8.1049,75.4094 C7.6049,77.5094 7.5049,79.7104 7.9049,81.9094 C8.0049,82.8094 9.4049,83.1094 10.2049,82.7104 C9.2539,84.6124 8.1939,86.5184 7.2309,88.4474 C8.3329,89.6634 9.4059,90.9044 10.4049,92.2104 C10.8049,92.4094 11.2049,92.9094 11.3049,93.4094 C12.0049,94.2104 12.5049,95.1094 13.1049,96.0094 C13.7049,97.0094 12.9049,97.9094 12.0049,98.1094 C12.0049,98.2104 11.9049,98.2104 11.9049,98.3094 C11.9049,98.5094 11.9049,98.7104 11.8049,98.9094 C11.6049,99.8094 10.8049,100.4094 10.0049,100.4094 C9.6049,101.3094 8.4049,101.8094 7.5049,100.9094 C7.2719,100.6714 7.0279,100.4514 6.7929,100.2174 C6.6579,100.5474 6.5269,100.8784 6.4049,101.2104 C5.9049,102.5094 7.9049,103.3094 9.0049,102.5094 C9.3049,102.3094 9.6049,102.0094 10.0049,101.8094 C9.7049,103.2104 9.5049,104.6094 9.2049,106.0094 C8.9049,107.3094 10.6049,108.2104 11.8049,107.3094 C12.0049,107.1094 12.3049,106.9094 12.6049,106.8094 C11.6049,108.9094 10.9049,111.0094 10.4049,113.4094 C10.2049,114.5094 11.4049,116.0094 12.6049,115.1094 C12.9049,114.9094 13.1049,114.7104 13.4049,114.6094 C13.3049,115.7104 13.1049,116.8094 12.9049,117.9094 C12.6049,119.3094 14.3049,120.6094 15.4049,119.4094 C15.9049,118.9094 16.3049,118.4094 16.8049,118.0094 L16.8049,118.4094 C16.8049,119.5094 18.1049,120.3094 19.1049,119.7104 C20.1049,119.1094 21.1049,118.4094 22.0049,117.7104 C22.0049,118.3094 22.0049,118.9094 21.9049,119.5094 C21.7049,120.8094 23.3049,122.3094 24.4049,121.0094 C25.0049,120.2104 25.7049,119.5094 26.4049,118.8094 C27.7049,122.5094 31.4049,123.4094 33.8049,120.3094 C34.4049,121.5094 35.0049,122.6094 35.4049,123.8094 C35.9049,125.2104 37.8049,125.2104 38.3049,123.8094 C38.9049,122.1094 39.6049,120.5094 40.2049,118.8094 C41.1049,120.1094 42.2049,121.3094 43.3049,122.5094 C44.0049,123.3094 45.6049,123.0094 45.8049,121.8094 C45.9049,121.3094 46.0049,120.9094 46.1049,120.5094 C46.4049,121.1094 46.6049,121.7104 46.9049,122.3094 C47.1019,122.8994 47.6129,123.2934 48.1529,123.4014 C47.9969,122.5054 47.8449,121.6084 47.7049,120.7104 C47.5049,119.4094 48.7049,118.7104 49.6049,118.8094 L49.9049,118.8094 C50.4529,118.8094 51.0039,118.8174 51.5569,118.8254 C51.5719,118.7874 51.5899,118.7484 51.6049,118.7104 C51.6589,118.7504 51.7179,118.7884 51.7729,118.8284 C53.9769,118.8594 56.2009,118.8774 58.3049,118.4094 C58.9049,118.3094 59.3049,118.4094 59.6049,118.7104 C60.2049,118.8094 60.8049,119.2104 60.7049,120.1094 C60.6659,120.6534 60.6279,121.1984 60.5889,121.7424 C61.0279,122.1244 61.4889,122.4874 62.0049,122.8094 C62.6049,123.2104 63.7049,123.0094 64.1059,122.3094 C64.3279,121.8214 64.5479,121.3564 64.7609,120.8984 C64.7419,120.6354 64.7239,120.3734 64.7049,120.1094 C64.6059,119.3094 65.2049,118.8094 65.8049,118.7104 C66.2049,118.4094 66.6059,118.3094 67.1059,118.4094 C69.8049,119.0094 72.8049,118.8094 75.5049,118.8094 L75.8049,118.8094 C76.7049,118.7104 77.9049,119.5094 77.7049,120.7104 C77.5859,121.4794 77.4569,122.2494 77.3239,123.0184 C77.5529,123.1474 77.7649,123.2894 78.0049,123.4094 C78.9049,123.8094 79.9049,123.5094 80.2049,122.5094 C80.5049,121.4094 80.9049,120.5094 81.2049,119.5094 C82.5049,121.0094 84.2049,122.0094 86.4049,122.5094 C87.4049,122.7104 88.2049,122.0094 88.3049,121.1094 C88.4049,119.8094 88.6059,118.7104 88.7049,117.5094 C90.0049,118.6094 91.4049,119.6094 93.0049,120.4094 C93.9049,120.8094 94.9049,120.5094 95.2049,119.5094 C95.5049,118.4094 95.8049,117.3094 95.9049,116.3094 C97.2049,117.4094 98.6059,118.3094 100.3049,119.0094 C101.4049,119.5094 102.4049,118.1094 102.1059,117.2104 C102.1059,117.0094 102.0049,116.8094 102.0049,116.7104 C103.2049,117.6094 104.5049,118.3094 105.9049,118.9094 C106.9049,119.3094 108.2049,118.8094 108.2049,117.6094 C108.2049,117.0094 108.2049,116.4094 108.1059,115.9094 C109.2049,116.4094 110.4049,116.8094 111.8049,117.1094 C113.2049,117.4094 114.0049,116.1094 113.5049,114.9094 C112.6059,112.8094 111.5049,110.8094 110.0049,109.1094 L110.0049,108.7104 C109.9049,108.5094 109.9049,108.2104 109.8049,108.0094 C110.8049,108.0094 111.8049,107.2104 111.4049,106.3094 C111.3049,106.1094 111.2049,105.8094 111.1059,105.6094 C112.1059,105.7104 113.2049,104.8094 112.8049,104.0094 C112.2029,102.8804 111.8269,101.6944 111.3799,100.5384 C111.3559,100.4944 111.3249,100.4554 111.3049,100.4094 C110.5049,100.3094 109.8049,99.7104 109.5049,98.9094" id="Fill-51" fill="#263958" mask="url(#mask-24)"/>
    </g>
    <path d="M138,93.6 C138.6,93.9 139.1,94.2 139.6,94.499 C139.8,94.6 140,94.799 140.1,94.999 C140.124,94.976 140.151,94.955 140.176,94.932 L139.32,92 C138.867,92.525 138.423,93.056 138,93.6" id="Fill-54-Copy" fill="#FFFFFF"/>
    <path d="M83.833,119.338063 C83.533,119.037063 83.133,118.938063 82.533,119.037063 C80.429,119.505063 78.205,119.487063 76,119.456063 C77.163,120.307063 78.491,121.077063 79.733,121.938063 C80.633,122.537063 81.633,121.838063 81.933,121.037063 C82.133,120.537063 82.333,120.138063 82.433,119.638063 C83.111,120.654063 83.893,121.568063 84.817,122.370063 C84.856,121.826063 84.894,121.281063 84.933,120.737063 C85.033,119.838063 84.433,119.438063 83.833,119.338063" id="Fill-56-Copy" fill="#263958"/>
    <path d="M73.9220923,122.909436 C74.6990923,121.550436 75.3770923,120.286436 75.8740923,119.024436 C75.3210923,119.016436 74.7700923,119.009436 74.2220923,119.009436 L73.9220923,119.009436 C73.0220923,118.909436 71.8220923,119.608436 72.0220923,120.909436 C72.1620923,121.807436 72.3140923,122.704436 72.4700923,123.600436 C73.0280923,123.712436 73.6170923,123.518436 73.9220923,122.909436" id="Fill-58-Copy" fill="#263958"/>
    <path d="M100.110794,119.4375 L99.810794,119.4375 C97.110794,119.4375 94.110794,119.6375 91.411794,119.0375 C90.911794,118.9375 90.510794,119.0375 90.110794,119.3375 C89.510794,119.4375 88.911794,119.9375 89.010794,120.7375 C89.029794,121.0005 89.047794,121.2635 89.066794,121.5265 C89.333794,120.9545 89.589794,120.3935 89.810794,119.8375 C90.834794,120.7145 91.912794,121.4835 93.042794,122.2245 C94.173794,122.3425 95.305794,122.3985 96.436794,122.4175 C96.470794,122.3305 96.501794,122.2405 96.510794,122.1375 C96.610794,121.2375 96.810794,120.5375 96.911794,119.7375 C98.248794,121.2515 99.763794,122.5905 101.630794,123.6465 C101.762794,122.8765 101.891794,122.1075 102.010794,121.3375 C102.211794,120.1375 101.010794,119.3375 100.110794,119.4375" id="Fill-60-Copy" fill="#263958"/>
    <path d="M29.317,44.0977014 C29.717,43.6987014 30.117,43.4977014 30.517,43.1987014 C29.917,45.3987014 29.817,47.5977014 30.217,49.8987014 C30.307,50.3497014 30.808,50.7027014 31.345,50.7707014 C31.367,50.7107014 31.397,50.6587014 31.417,50.5977014 C32.217,48.2977014 32.017,45.7977014 32.817,43.4977014 C33.217,42.5977014 32.617,41.8987014 31.817,41.6987014 C31.317,40.9977014 30.417,40.6987014 29.617,41.3987014 C28.768,42.2777014 27.89,43.1227014 27,43.9547014 C27.545,44.5607014 28.593,44.8227014 29.317,44.0977014" id="Fill-62-Copy" fill="#FFFFFF"/>
    <path d="M34.084,100.962 C34.884,100.962 35.684,100.362 35.884,99.462 C35.984,99.263 35.984,99.063 35.984,98.862 C35.984,98.763 36.084,98.763 36.084,98.662 C36.984,98.462 37.784,97.563 37.184,96.563 C36.584,95.662 36.084,94.763 35.384,93.962 C35.284,93.462 34.884,92.962 34.484,92.763 C33.485,91.457 32.412,90.216 31.31,89 C30.836,89.947 30.394,90.901 30,91.864 C30.545,92.485 31.081,93.115 31.584,93.763 C31.459,93.838 31.317,93.913 31.182,93.988 C31.488,94.025 31.802,93.99 32.084,93.862 C32.784,93.563 33.484,93.162 34.184,92.862 C33.384,95.53 31.953,98.12 30.872,100.771 C31.107,101.004 31.351,101.225 31.584,101.462 C32.484,102.362 33.684,101.862 34.084,100.962" id="Fill-64-Copy" fill="#FFFFFF"/>
    <path d="M136.208057,100.463 C137.408057,100.763 138.408057,99.763 138.208057,98.863 C138.008057,98.363 137.908057,97.863 137.808057,97.363 C138.908057,98.163 140.608057,97.163 140.308057,95.963 L140.084057,95.195 C140.060057,95.219 140.032057,95.239 140.008057,95.263 C139.908057,95.063 139.708057,94.863 139.508057,94.763 C139.008057,94.463 138.508057,94.163 137.908057,93.863 C138.331057,93.319 138.775057,92.788 139.229057,92.264 L138.908057,91.163 C139.281057,91.257 139.633057,91.328 139.982057,91.408 C140.775057,90.532 141.594057,89.682 142.415057,88.858 C141.873057,87.905 141.435057,86.952 141.083057,86 C138.901057,88.194 136.793057,90.44 134.908057,92.863 C134.408057,93.063 134.108057,93.563 134.008057,94.063 C133.408057,94.863 132.808057,95.763 132.208057,96.663 C131.608057,97.663 132.408057,98.563 133.308057,98.763 C133.308057,98.863 133.408057,98.863 133.408057,98.963 C133.408057,99.163 133.408057,99.363 133.508057,99.563 C133.808057,100.363 134.508057,100.963 135.308057,101.063 C135.328057,101.109 135.358057,101.148 135.383057,101.192 C135.235057,100.811 135.081057,100.434 134.908057,100.063 C135.408057,100.163 135.808057,100.263 136.208057,100.463" id="Fill-66-Copy" fill="#FFFFFF"/>
    <path d="M138.079189,41.617 C137.379189,41.817 136.779189,42.516 137.079189,43.417 C137.978189,45.717 137.679189,48.217 138.478189,50.516 C138.879189,51.717 139.579189,52.717 140.478189,53.417 C140.379189,53.817 140.579189,54.217 140.978189,54.617 C143.050189,56.344 145.307189,57.836 147.464189,59.415 C147.409189,59.198 147.289189,58.992 147.079189,58.817 C145.279189,57.217 143.679189,55.417 142.279189,53.516 C142.679189,53.117 142.779189,52.516 142.379189,52.016 C140.478189,49.917 138.478189,47.917 140.978189,45.117 C141.478189,44.617 141.179189,43.917 140.779189,43.516 C139.981189,42.72 139.383189,41.862 138.821189,41 C138.531189,41.13 138.268189,41.351 138.079189,41.617" id="Fill-68-Copy" fill="#FFFFFF"/>
    <path d="M75.085478,39.8633535 C75.285478,39.7623535 75.385478,39.7623535 75.585478,39.7623535 C82.085478,35.3633535 91.785478,34.8633535 97.085478,40.9633535 C103.785478,48.7623535 104.185478,64.8633535 94.685478,70.5623535 C85.185478,76.2623535 72.385478,72.8633535 67.385478,63.0623535 C63.685478,55.8633535 67.085478,42.6633535 75.085478,39.8633535 M84.085478,76.4633535 C91.085478,76.5623535 98.185478,74.3633535 101.685478,67.8633535 C104.985478,61.7623535 106.085478,54.2623535 103.885478,47.6633535 C101.985478,41.0623535 97.485478,34.4633535 90.185478,33.3633535 C86.985478,32.8633535 83.585478,32.8633535 80.385478,33.4633535 C80.485478,34.2623535 79.985478,35.1633535 78.985478,35.2623535 C75.585478,35.6633535 72.485478,36.7623535 69.885478,38.4633535 C69.485478,38.8633535 68.985478,39.2623535 68.585478,39.7623535 C68.285478,40.1633535 67.885478,40.2623535 67.585478,40.2623535 C63.085478,44.1633535 60.485478,50.0623535 61.085478,56.7623535 C62.185478,68.9633535 72.185478,76.2623535 84.085478,76.4633535" id="Fill-70-Copy" fill="#FFFFFF"/>
    <path d="M82.8751691,48.6892149 C82.9751691,48.5892149 82.9751691,48.4892149 83.0751691,48.3892149 C83.8751691,47.4892149 85.0751691,47.8892149 85.6751691,48.6892149 C85.7751691,48.7902149 85.7751691,48.8892149 85.8751691,48.9892149 C85.9751691,49.0892149 86.0751691,49.0892149 86.1751691,49.1892149 C86.7751691,49.5892149 86.9751691,50.1892149 86.8751691,50.7902149 C87.4751691,52.0892149 87.5751691,53.5892149 87.0751691,54.9892149 C86.9751691,55.1892149 86.9751691,55.3892149 86.8751691,55.5892149 L86.8751691,55.7902149 C86.8751691,55.9892149 86.7751691,56.1892149 86.5751691,56.3892149 C85.7751691,57.6892149 84.5751691,58.8892149 82.9751691,58.2902149 C79.0751691,56.9892149 79.8751691,50.0892149 82.8751691,48.6892149 M91.9751691,68.0892149 C100.375169,63.0892149 100.775169,50.6892149 95.3751691,43.2902149 C90.4751691,36.4892149 78.5751691,38.3892149 73.9751691,44.6892149 C73.4751691,45.3892149 72.6751691,45.4892149 72.0751691,45.1892149 C68.6751691,49.7902149 67.9751691,57.9892149 70.5751691,62.1892149 C74.7751691,68.7902149 84.7751691,72.3892149 91.9751691,68.0892149" id="Fill-72-Copy" fill="#263958"/>
  </g>
</svg>