<?xml version="1.0" encoding="UTF-8"?>
<svg width="103px" height="161px" viewBox="0 0 103 161" version="1.1" xmlns="http://www.w3.org/2000/svg" xmlns:xlink="http://www.w3.org/1999/xlink">
  <!-- Generator: Sketch 62 (91390) - https://sketch.com -->
  <title>Page 1</title>
  <desc>Created with Sketch.</desc>
  <defs>
    <polygon id="path-1" points="102.673866 0.687604167 0.000201333448 0.687604167 0.000201333448 160.160788 102.673866 160.160788 102.673866 0.687604167"></polygon>
  </defs>
  <g id="Desktop" stroke="none" stroke-width="1" fill="none" fill-rule="evenodd">
    <g id="Page-1">
      <g id="Group-3" transform="translate(0.000000, 0.150938)">
        <mask id="mask-2" fill="white">
          <use xlink:href="#path-1"></use>
        </mask>
        <g id="Clip-2"></g>
        <path d="M86.1600024,117.353235 C85.5738236,115.341574 84.9876447,113.412928 85.2388642,111.39959 C85.4063439,109.80636 87.918539,109.80636 87.7510593,111.39959 C87.4998398,113.24522 88.0022789,114.922303 88.5047179,116.682402 C88.9234171,118.27647 86.4949618,118.946465 86.1600024,117.353235 L86.1600024,117.353235 Z M81.6380512,126.325631 C80.8006528,127.751152 78.6234171,126.49334 79.4608154,125.067819 C79.7957748,124.48084 79.7957748,123.894699 79.6282951,123.223027 C79.1258561,121.630636 81.5543114,121.042819 82.0567504,122.552194 C82.4754496,123.810006 82.3917098,125.235527 81.6380512,126.325631 L81.6380512,126.325631 Z M76.5299211,93.0355271 C76.7811407,90.8553188 77.0323602,88.7589646 76.7811407,86.5795948 C76.613661,84.9855271 79.1258561,84.9855271 79.2933358,86.5795948 C79.5445553,88.675949 79.2933358,90.8553188 79.0421163,93.0355271 C78.8746366,94.6287563 76.3624415,94.6287563 76.5299211,93.0355271 L76.5299211,93.0355271 Z M75.3575634,144.773548 C75.3575634,143.767298 75.1063439,142.928756 74.8551244,142.00636 C74.4364252,140.413131 76.8648805,139.742298 77.2835797,141.336366 C77.618539,142.425631 77.8697585,143.515735 77.8697585,144.773548 C77.8697585,146.367616 75.3575634,146.367616 75.3575634,144.773548 L75.3575634,144.773548 Z M68.9095959,129.008965 C63.0478073,134.54334 54.8413033,136.892095 46.8860187,136.97511 C38.3445553,137.058965 29.719352,133.789491 26.118539,125.319381 C24.1087829,120.540532 22.2665065,111.902715 25.7835797,107.206881 C25.8673195,106.619902 26.5372382,106.117616 27.1234171,106.200631 C27.6258561,106.200631 28.1282951,106.536886 28.2957748,107.039173 C28.7513195,107.49534 29.2286366,107.911256 29.715165,108.307048 C29.9529862,108.335558 30.1908073,108.433668 30.3892707,108.633241 C30.7476772,108.998845 31.1546528,109.327553 31.5834008,109.640329 C33.3695715,110.761459 35.3014496,111.570652 37.3195797,112.135829 C41.5199699,113.196584 46.4061894,113.345845 50.2356122,113.24522 C50.6543114,113.076673 51.0730106,113.076673 51.4079699,113.24522 C51.7429293,113.160527 52.0778886,113.160527 52.412848,113.160527 C52.7519943,113.137886 53.0894659,113.10686 53.4277748,113.074996 C56.1308967,112.775636 59.3992626,112.137506 62.4607911,111.05411 C62.7413195,110.947616 63.021848,110.843636 63.2990268,110.729595 C64.2385878,110.35309 65.2317423,109.822293 66.2475065,109.380381 C68.5135065,108.142694 70.3976528,106.575459 71.4217911,104.608241 C72.0917098,103.265735 73.9339862,103.601991 73.8502463,104.942819 C73.9339862,105.027511 73.9339862,105.110527 74.017726,105.194381 C77.1998398,112.741256 75.0226041,123.390735 68.9095959,129.008965 L68.9095959,129.008965 Z M69.9982138,139.490735 C69.5795146,139.910006 68.6583764,139.99386 68.2396772,139.490735 C67.9884577,139.155319 67.9047179,138.903756 67.7372382,138.569178 C67.7372382,138.40147 67.6534984,138.316777 67.6534984,138.232923 C67.318539,137.730636 67.2347992,137.058965 67.7372382,136.55584 C68.1559374,136.136569 69.0770756,136.053553 69.4957748,136.55584 C69.7469943,136.892095 69.8307341,137.143657 69.9982138,137.478235 C69.9982138,137.562928 69.9982138,137.730636 70.0819537,137.813652 C70.5006528,138.316777 70.5006528,138.988449 69.9982138,139.490735 L69.9982138,139.490735 Z M54.5063439,147.876152 C54.2551244,146.535324 54.2551244,145.192819 53.920165,143.935006 C53.5852057,142.342616 56.013661,141.670944 56.3486203,143.264173 C56.6835797,144.60584 56.6835797,145.948345 56.9347992,147.206157 C57.2697585,148.714694 54.8413033,149.47022 54.5063439,147.876152 L54.5063439,147.876152 Z M30.7242301,146.116053 C30.7242301,144.521985 30.7242301,143.013449 30.4730106,141.419381 C30.2217911,139.826991 32.6502463,139.155319 32.9014659,140.748548 C33.2364252,142.509485 33.2364252,144.271261 33.2364252,146.116053 C33.2364252,147.708444 30.7242301,147.708444 30.7242301,146.116053 L30.7242301,146.116053 Z M21.512848,83.9792771 C21.512848,83.0577198 21.6803276,82.0506312 21.8478073,81.129074 C21.9315472,80.6251104 22.015287,80.122824 22.015287,79.6188604 L22.015287,79.5350062 C21.1778886,79.1157354 20.7591894,77.8579229 21.8478073,77.3556365 C25.9510593,75.6785531 24.1087829,82.3021937 24.0250431,83.9792771 C24.0250431,85.5733448 21.512848,85.5733448 21.512848,83.9792771 L21.512848,83.9792771 Z M36.5860187,90.7723031 C36.8372382,92.700949 36.920978,94.7126104 37.1721976,96.6420948 C37.4234171,98.2344854 34.8274821,98.2344854 34.6600024,96.6420948 C34.4087829,94.7126104 34.3250431,92.700949 34.0738236,90.7723031 C33.8226041,89.1782354 36.3347992,89.1782354 36.5860187,90.7723031 L36.5860187,90.7723031 Z M34.5762626,26.8754281 C34.6600024,26.7907354 34.6600024,26.7068813 34.7437423,26.6238656 C35.413661,25.8683396 36.418539,26.2045948 36.920978,26.8754281 C37.0047179,26.9584438 37.0047179,27.0431365 37.0884577,27.1261521 C37.1721976,27.2100063 37.2559374,27.2100063 37.3396772,27.294699 C37.8421163,27.6292771 38.0095959,28.1332406 37.9258561,28.6355271 C38.4282951,29.7256313 38.4282951,30.8995896 38.0933358,32.1574021 C38.0095959,32.325949 38.0095959,32.4936573 37.9258561,32.6605271 L37.9258561,32.8282354 C37.9258561,32.9959438 37.8421163,33.1644906 37.6746366,33.332199 C37.0047179,34.4223031 35.9998398,35.4285531 34.6600024,34.9245896 C31.3941488,33.8344854 32.0640675,28.0485479 34.5762626,26.8754281 L34.5762626,26.8754281 Z M39.9356122,75.3422979 C40.1868317,76.7686573 40.2705715,78.1094854 40.2705715,79.6188604 C40.2705715,81.2120896 37.7583764,81.2120896 37.7583764,79.6188604 C37.7583764,78.3610479 37.7583764,77.1879281 37.5071569,76.0131313 C37.2559374,74.4207406 39.6006528,73.7490688 39.9356122,75.3422979 L39.9356122,75.3422979 Z M52.412848,89.5975063 C52.6640675,91.2745896 52.7478073,92.9516729 52.9990268,94.6287563 C53.2502463,96.222824 50.8217911,96.8936573 50.5705715,95.2995896 C50.319352,93.6225063 50.2356122,91.9454229 49.9843927,90.2683396 C49.7331732,88.675949 52.1616285,88.0042771 52.412848,89.5975063 L52.412848,89.5975063 Z M58.4421163,78.7803188 C58.6933358,76.3493865 58.6933358,73.9167771 58.6933358,71.4858448 C58.6933358,69.8917771 61.2055309,69.8917771 61.2055309,71.4858448 C61.2055309,73.9167771 61.2055309,76.3493865 60.9543114,78.7803188 C60.7868317,80.3735479 58.2746366,80.3735479 58.4421163,78.7803188 L58.4421163,78.7803188 Z M63.3827667,99.9962615 C63.3827667,101.588652 60.8705715,101.588652 60.8705715,99.9962615 C60.8705715,98.738449 60.8705715,97.5636521 60.619352,96.3896937 C60.3681325,94.7973031 62.712848,94.1264698 63.0478073,95.7188604 C63.3827667,97.1443812 63.3827667,98.5707406 63.3827667,99.9962615 L63.3827667,99.9962615 Z M61.0380512,10.7745896 C61.1217911,10.691574 61.1217911,10.6068813 61.2055309,10.5238656 C61.8754496,9.76833958 62.8803276,10.1045948 63.3827667,10.7745896 C63.4665065,10.8584438 63.4665065,10.9431365 63.5502463,11.0261521 C63.6339862,11.1108448 63.717726,11.1108448 63.8014659,11.1938604 C64.3039049,11.5301156 64.4713846,12.0324021 64.3876447,12.5355271 C64.8063439,13.6264698 64.8900837,14.7995896 64.5551244,16.0574021 C64.4713846,16.2251104 64.4713846,16.3936573 64.3876447,16.5613656 L64.3876447,16.7282354 C64.3876447,16.8959438 64.3039049,17.0636521 64.1364252,17.232199 C63.4665065,18.3214646 62.4616285,19.3285531 61.1217911,18.8245896 C57.8559374,17.7344854 58.5258561,11.9493865 61.0380512,10.7745896 L61.0380512,10.7745896 Z M19.5868317,124.31397 C19.5868317,125.90636 17.0746366,125.90636 17.0746366,124.31397 L17.0746366,120.959803 C17.0746366,119.365735 19.5868317,119.365735 19.5868317,120.959803 L19.5868317,124.31397 Z M16.9908967,142.761886 C16.6559374,144.354277 14.311222,143.683444 14.5624415,142.090215 C14.813661,140.832402 14.813661,139.57459 14.5624415,138.316777 C14.311222,136.724386 16.7396772,136.053553 16.9908967,137.645944 C17.3258561,139.40772 17.3258561,141.084803 16.9908967,142.761886 L16.9908967,142.761886 Z M12.8876447,104.523548 C12.8876447,103.014173 12.8876447,101.505636 12.6364252,100.079277 C12.3852057,98.4860479 14.813661,97.8152146 15.0648805,99.4092823 C15.3998398,101.086366 15.3998398,102.763449 15.3998398,104.523548 C15.3998398,106.117616 12.8876447,106.117616 12.8876447,104.523548 L12.8876447,104.523548 Z M102.321791,104.440532 C100.814474,103.098027 99.4746366,101.588652 98.3022789,99.9962615 C98.6372382,99.6600063 98.720978,99.1577198 98.3860187,98.738449 C96.7949618,96.9766729 95.120165,95.2995896 97.213661,92.9516729 C97.6323602,92.5324021 97.3811407,91.9454229 97.0461813,91.6108448 C95.5388642,90.1006313 94.8689455,88.3396938 93.5291081,86.8311573 C93.8640675,86.7464646 94.2827667,86.6626104 94.7014659,86.5795948 C95.5388642,86.4949021 95.9575634,85.4886521 95.4551244,84.9855271 C94.115287,83.3922979 93.1104089,82.2191781 91.3518724,81.5483448 C93.6965878,78.7803188 92.2730106,76.4324021 88.2534984,75.4261521 C88.6721976,74.8400115 89.0908967,74.3360479 89.5095959,73.7490688 C90.0957748,73.0782354 89.5095959,72.3243865 88.7559374,72.1566781 C88.6721976,71.9881313 88.5884577,71.8204229 88.420978,71.6527146 C88.7559374,70.9818813 88.0022789,69.8917771 86.8299211,70.060324 C84.820165,70.3110479 82.9778886,70.1433396 81.0518724,69.8087615 C81.1356122,69.3894906 81.3030919,68.9702198 81.3868317,68.4662563 C81.5543114,67.6277146 80.8006528,66.9568813 79.7957748,67.1254281 C78.9583764,67.2931365 78.120978,67.2084438 77.1998398,67.1254281 C76.9486203,66.9568813 76.6974008,66.7061573 76.4461813,66.5376104 C76.5299211,66.035324 76.5299211,65.5313604 76.6974008,65.029074 C76.9486203,64.2735479 76.2787016,63.6865688 75.4413033,63.6027146 C73.7665065,63.4350063 72.0917098,63.0157354 70.416913,62.7641729 C70.416913,62.0941781 70.416913,61.5063604 70.2494333,60.7516729 C70.1656935,60.0808396 69.4957748,59.4938604 68.5746366,59.6615688 C67.2347992,59.997824 65.8949618,59.9131313 64.5551244,59.9131313 C64.6388642,59.1592823 64.7226041,58.3207406 64.8900837,57.5652146 C65.0575634,56.8943813 64.6388642,56.3920948 63.9689455,56.2243865 C64.1364252,53.2047979 63.9689455,50.1030323 63.8852057,47.1681365 C63.8014659,40.6266729 64.3876447,33.9183396 65.2250431,27.3777146 C78.2884577,24.1082406 81.219352,4.06625625 66.313661,1.04750625 C59.614474,-0.294160417 51.8266691,2.05375625 49.6494333,9.09750625 C47.5559374,15.722824 51.7429293,23.1850063 56.5161,27.5454229 C56.6835797,27.7139698 56.8510593,27.7969854 57.018539,27.8816781 C57.6047179,32.6605271 56.8510593,37.5249073 56.5998398,42.3037563 C56.4323602,46.8318813 56.5161,51.3608448 56.5998398,55.8051156 C56.1811407,55.8051156 55.7624415,55.8881313 55.511222,56.1396938 C52.9990268,58.3207406 50.1518724,58.6553188 47.3884577,56.6436573 C46.6347992,56.0558396 45.5461813,56.3074021 45.211222,57.1459438 C44.1226041,59.6615688 42.1965878,59.0745896 40.7730106,58.2360479 C41.0242301,56.0558396 40.8567504,53.7926156 40.9404902,52.450949 C41.1079699,48.425949 41.2754496,44.0655323 40.6892707,40.0405323 C46.1323602,38.7827198 48.8957748,34.1707406 47.5559374,28.5525115 C45.7974008,21.5087615 38.4282951,19.1600063 32.1478073,21.0894906 C26.118539,22.9334438 24.8624415,28.9717823 26.7884577,34.4223031 C27.7095959,37.0217823 30.8079699,42.6391729 34.4087829,42.4723031 C34.2413033,48.7613656 33.8226041,55.0495896 33.6551244,61.3386521 C32.3990268,61.0870896 31.1429293,60.7516729 29.8868317,60.4170948 C28.8819537,60.1655323 28.1282951,60.9193813 28.2957748,61.6749073 C25.3648805,61.9256313 22.4339862,62.0094854 19.5868317,62.3449021 C18.4982138,62.4287563 17.5770756,63.9389698 18.916913,64.4412563 C20.5917098,65.029074 22.2665065,65.4483448 23.9413033,65.6990688 C23.6063439,65.9506313 23.2713846,66.2021938 22.8526854,66.3699021 C22.517726,66.2868865 22.1827667,66.2868865 21.8478073,66.4545948 C16.0697585,68.8025115 10.1242301,70.8988656 4.76488049,73.8337615 C3.92748211,74.3360479 3.84374228,75.6785531 5.09983984,75.8454229 C7.27707561,76.1808396 9.37057154,76.097824 11.4640675,75.7615688 C7.61203496,78.0264698 4.09496179,80.3735479 2.42016504,84.3155323 C2.00146585,85.3217823 3.42504309,85.9926156 4.3461813,85.5733448 C4.42992114,85.4886521 4.51366098,85.4886521 4.68114065,85.4047979 C3.59252276,87.2504281 2.50390488,89.0952198 1.33154715,90.9391729 C0.661628455,92.0301156 2.42016504,93.2879281 3.42504309,92.2816781 C3.76000244,91.9454229 4.09496179,91.7777146 4.42992114,91.5261521 C3.92748211,93.3709438 3.84374228,95.216574 4.17870163,97.1443813 C4.26244146,97.5636521 4.76488049,97.8999073 5.26731951,97.8999073 C4.51366098,99.6600063 3.50878293,101.420944 2.58764472,103.18272 C2.16894553,103.936569 2.67138455,104.77511 3.59252276,104.859803 C2.42016504,107.375428 1.16406748,109.80636 0.0754495935,112.321985 C-0.343249593,113.328235 1.08032764,113.999069 2.00146585,113.579798 C2.3364252,113.412928 2.67138455,113.24522 3.0063439,113.160527 C2.67138455,114.922303 2.83886423,116.682402 2.92260407,118.527194 C2.92260407,119.617298 4.26244146,119.86886 5.18357967,119.28272 C5.51853902,119.115011 5.76975854,118.946465 6.10471789,118.695741 C5.6860187,120.45584 5.60227886,122.300631 5.93723821,124.146261 C6.02097805,124.90011 7.19333577,125.152511 7.86325447,124.816256 C6.60715691,127.331881 5.09983984,129.847506 4.09496179,132.446985 C3.76000244,133.37022 5.09983984,134.124069 6.02097805,133.704798 C6.60715691,133.453235 7.19333577,133.118657 7.77951463,132.866256 C7.0258561,135.381881 5.60227886,137.813652 4.68114065,140.329277 C4.26244146,141.419381 5.93723821,142.090215 6.85837642,141.419381 C7.10959593,141.251673 7.36081545,141.00011 7.6957748,140.832402 C7.44455528,142.00636 7.27707561,143.181157 7.0258561,144.354277 C6.77463659,145.444381 8.19821382,146.199069 9.20309187,145.444381 C9.37057154,145.277511 9.62179106,145.109803 9.87301057,145.02511 C9.0356122,146.786886 8.44943333,148.546985 8.03073415,150.560324 C7.86325447,151.481881 8.86813252,152.739694 9.87301057,151.985845 C10.1242301,151.818136 10.2917098,151.64959 10.5429293,151.566574 C10.4591894,152.488131 10.2917098,153.410527 10.1242301,154.333761 C9.87301057,155.506881 11.2965878,156.597824 12.217726,155.591574 C12.6364252,155.172303 12.9713846,154.753032 13.3900837,154.416777 L13.3900837,154.753032 C13.3900837,155.67459 14.4787016,156.345423 15.3161,155.842298 C16.1534984,155.340011 16.9908967,154.753032 17.7445553,154.165215 C17.7445553,154.66834 17.7445553,155.172303 17.6608154,155.67459 C17.4933358,156.764694 18.8331732,158.022506 19.7543114,156.932402 C20.2567504,156.261569 20.8429293,155.67459 21.4291081,155.08761 C22.517726,158.190215 25.6161,158.945741 27.6258561,156.345423 C28.1282951,157.351673 28.6307341,158.274907 28.9656935,159.280319 C29.3843927,160.454277 30.8917098,160.454277 31.3941488,159.280319 C31.8965878,157.855636 32.4827667,156.513131 32.9852057,155.08761 C33.7388642,156.178553 34.6600024,157.183965 35.5811407,158.190215 C36.1673195,158.861048 37.5071569,158.609485 37.6746366,157.603235 C37.7583764,157.183965 37.8421163,156.849386 37.9258561,156.513131 C38.1770756,157.017095 38.3445553,157.519381 38.5957748,158.022506 C38.9307341,159.028756 40.3543114,159.365011 40.8567504,158.357923 C41.5266691,157.183965 42.112848,156.09386 42.5315472,155.003756 C43.5364252,155.759282 44.7087829,156.430116 45.7974008,157.183965 C46.5510593,157.687928 47.3884577,157.10011 47.6396772,156.430116 C47.8071569,156.010845 47.9746366,155.67459 48.0583764,155.255319 C48.8957748,156.513131 49.9006528,157.603235 51.2404902,158.441777 C51.7429293,158.777194 52.6640675,158.609485 52.9990268,158.022506 C53.417726,157.10011 53.8364252,156.261569 54.1713846,155.423027 C55.3437423,156.430116 56.5998398,157.268657 57.9396772,158.107199 C58.6095959,158.441777 59.6982138,158.190215 59.7819537,157.351673 C59.8656935,156.597824 60.0331732,156.010845 60.116913,155.340011 C61.3730106,156.764694 62.7965878,158.022506 64.6388642,158.945741 C65.3925228,159.280319 66.2299211,159.028756 66.4811407,158.190215 C66.7323602,157.268657 67.0673195,156.513131 67.318539,155.67459 C68.4071569,156.932402 69.8307341,157.770944 71.6730106,158.190215 C72.5104089,158.357923 73.1803276,157.770944 73.2640675,157.017095 C73.3478073,155.926152 73.515287,155.003756 73.5990268,153.997506 C74.6876447,154.920741 75.8600024,155.759282 77.1998398,156.430116 C77.9534984,156.764694 78.7908967,156.513131 79.0421163,155.67459 C79.2933358,154.753032 79.5445553,153.829798 79.6282951,152.991256 C80.716913,153.914491 81.8892707,154.66834 83.312848,155.255319 C84.2339862,155.67459 85.0713846,154.50147 84.820165,153.745944 C84.820165,153.578235 84.7364252,153.410527 84.7364252,153.326673 C85.7413033,154.082199 86.8299211,154.66834 88.0022789,155.172303 C88.8396772,155.506881 89.9282951,155.08761 89.9282951,154.082199 C89.9282951,153.578235 89.9282951,153.075949 89.8445553,152.656678 C90.7656935,153.075949 91.7705715,153.410527 92.9429293,153.662928 C94.115287,153.914491 94.7852057,152.824386 94.3665065,151.818136 C93.612848,150.05636 92.6917098,148.379277 91.4356122,146.954595 L91.4356122,146.61834 C91.3518724,146.450631 91.3518724,146.199069 91.2681325,146.03136 C92.1055309,146.03136 92.9429293,145.360527 92.6079699,144.60584 C92.5242301,144.43897 92.4404902,144.186569 92.3567504,144.019699 C93.1941488,144.102715 94.115287,143.348027 93.7803276,142.677194 C93.1104089,141.419381 92.7754496,140.078553 92.1892707,138.820741 C92.6079699,138.903756 92.9429293,138.988449 93.2778886,139.155319 C94.2827667,139.40772 95.120165,138.569178 94.9526854,137.813652 C94.7852057,137.394381 94.7014659,136.97511 94.617726,136.55584 C95.5388642,137.226673 96.9624415,136.388131 96.711222,135.381881 L95.5388642,131.356881 C96.2087829,131.52459 96.7949618,131.608444 97.4648805,131.860845 C98.6372382,132.195423 99.4746366,131.022303 98.9721976,130.266777 C97.8835797,128.589694 97.213661,126.91261 96.7949618,125.235527 C96.9624415,125.319381 97.0461813,125.319381 97.213661,125.404074 C98.1347992,125.823345 99.6421163,125.152511 99.1396772,124.146261 C98.5534984,122.971465 98.218539,121.713652 97.8835797,120.540532 C98.4697585,120.288131 98.720978,119.534282 98.3860187,118.946465 C97.7161,117.857199 97.4648805,116.767095 97.1299211,115.592298 C97.7998398,115.42459 98.218539,114.922303 97.9673195,114.334485 C97.4648805,113.328235 97.1299211,112.238131 96.8787016,111.231881 C97.213661,111.39959 97.4648805,111.483444 97.7998398,111.651152 C98.8047179,112.070423 100.060815,111.39959 99.7258561,110.39334 C99.2234171,108.716256 98.5534984,107.123866 97.7998398,105.529798 C98.8047179,105.78136 99.8095959,106.200631 100.730734,106.704595 C101.986832,106.956157 103.326669,105.36209 102.321791,104.440532 L102.321791,104.440532 Z" id="Fill-1" fill="#263958" mask="url(#mask-2)"></path>
      </g>
      <path d="M28.9654423,108.615967 C28.3792634,108.699821 27.7930846,109.035238 27.7093447,109.789925 C27.541865,111.634717 26.6207268,113.3118 25.8670683,114.988883 C25.5321089,115.743571 25.7833285,116.582113 26.6207268,116.833675 C28.6304829,117.504508 30.9751984,117.672217 32.6499951,119.013883 C33.4036537,119.600863 34.4922715,119.433154 34.7434911,118.426904 C35.1621902,117.001383 35.7483691,115.743571 36.4182878,114.485758 C36.9207268,114.569613 37.4231659,114.737321 37.9256049,114.821175 C37.7581252,116.078988 37.1719463,117.3368 36.836987,118.594613 C36.6695073,119.3493 37.2556862,120.187842 38.0093447,120.187842 C40.940239,120.020133 43.7873935,120.774821 46.7182878,121.026383 C47.2207268,121.110238 47.8069057,120.607113 47.8906455,120.103988 C48.2256049,118.678467 48.3930846,117.169092 48.5605642,115.743571 L49.4817024,115.743571 L49.5654423,115.743571 C49.6491821,117.169092 49.5654423,118.594613 49.5654423,120.020133 C49.5654423,120.690967 50.1516211,121.277946 50.8215398,121.277946 C53.5012146,121.277946 56.7670683,121.277946 59.1117837,119.936279 C59.7817024,119.517008 60.2004016,118.762321 60.1166618,117.923779 C60.032922,116.749821 59.7817024,115.659717 59.6979626,114.485758 C59.7817024,114.485758 59.9491821,114.401904 60.032922,114.401904 C60.1166618,115.827425 60.7865805,117.3368 61.1215398,118.426904 C61.3727593,119.181592 61.9589382,119.433154 62.6288569,119.265446 C65.3922715,118.846175 67.9044667,117.420654 70.5004016,116.33055 C71.5052797,116.246696 71.9239789,115.659717 71.7564992,114.988883 C71.3378,113.395654 71.3378,111.550863 70.332922,110.209196 L70.2491821,110.125342 C70.2491821,109.370654 69.5792634,108.615967 68.6581252,108.783675 C67.8491984,108.894363 67.0419463,109.186175 66.2472553,109.531654 C65.0665236,110.175654 63.7878163,110.734961 62.4613772,111.205383 C59.5807268,112.298842 56.5392959,112.941165 53.4275236,113.226269 C52.7442065,113.302576 52.0876862,113.362113 51.4914585,113.395654 C46.848922,113.637993 41.8747756,113.564201 37.3201659,112.287102 C35.1370683,111.73618 33.1474098,110.933696 31.5831496,109.790764 C30.940865,109.388264 30.3161659,108.947191 29.7149138,108.458321 C29.4511333,108.426456 29.185678,108.484316 28.9654423,108.615967" id="Fill-4" fill="#FFFFFF"></path>
    </g>
  </g>
</svg>
