<?xml version="1.0" encoding="UTF-8"?>
<svg width="200px" height="210px" viewBox="0 0 200 210" version="1.1" xmlns="http://www.w3.org/2000/svg" xmlns:xlink="http://www.w3.org/1999/xlink">
    <!-- Generator: Sketch 62 (91390) - https://sketch.com -->
    <title>Page 1</title>
    <desc>Created with Sketch.</desc>
    <defs>
        <polygon id="path-1" points="0 0.414751976 0 106.235294 182.65146 106.235294 182.65146 0.414751976 4.46308123e-20 0.414751976"></polygon>
        <polygon id="path-3" points="0.312027147 0.168 129.013643 0.168 129.013643 152.764871 0.312027147 152.764871 0.312027147 0.168"></polygon>
        <polygon id="path-5" points="0.194461847 77.9476234 44.2989357 103.407294 58.4348795 19.8091765 24.537603 0.241890026 0.194461847 0.241890026 0.194461847 77.9476234"></polygon>
    </defs>
    <g id="Desktop" stroke="none" stroke-width="1" fill="none" fill-rule="evenodd">
        <g id="what-we-do" transform="translate(-278.000000, -1822.000000)">
            <text id="JavaScript-Angular-T" font-family="Helvetica" font-size="20" font-weight="normal" fill="#263958">
                <tspan x="111" y="1884">JavaScript </tspan>
                <tspan x="111" y="1908">Angular</tspan>
                <tspan x="111" y="1932">TypeScript</tspan>
                <tspan x="111" y="1956">PHP</tspan>
                <tspan x="111" y="1980">Symfony</tspan>
                <tspan x="111" y="2004">.NET (C#)</tspan>
                <tspan x="111" y="2028">(e-commerce)</tspan>
            </text>
            <text id="Language" font-family="Helvetica" font-size="30" font-weight="normal" fill="#7AC7C4">
                <tspan x="111" y="1853">Language</tspan>
            </text>
            <g id="Page-1" transform="translate(278.000000, 1822.000000)">
                <g id="Group-3" transform="translate(0.000000, 103.596706)">
                    <mask id="mask-2" fill="white">
                        <use xlink:href="#path-1"></use>
                    </mask>
                    <g id="Clip-2"></g>
                    <path d="M1.58870884,41.2360118 L111.864713,104.922835 C112.942404,105.547071 114.630155,105.622835 115.54895,105.091659 L181.355596,67.0874235 C181.587765,66.9540118 181.864392,66.7267176 181.864392,66.4047176 C181.864392,66.0753059 181.56389,65.7038941 181.062504,65.4140118 L70.7865,1.72718824 C69.7071627,1.10542353 68.0185884,1.02801176 67.1014398,1.55836471 L1.29561647,39.5634235 C1.06344779,39.6968353 0.785997992,39.9233059 0.785997992,40.2453059 C0.785997992,40.5763647 1.0865,40.9461294 1.58870884,41.2360118 M113.969873,106.235541 C113.102946,106.235541 112.195677,106.023071 111.471179,105.604718 L1.1951747,41.9178941 C0.436098394,41.4789529 -0.000246987952,40.8695412 -0.000246987952,40.2453059 C-0.000246987952,39.7017765 0.320014056,39.2175412 0.902905622,38.8815412 L66.7079056,0.876482353 C67.8786285,0.200364706 69.8421827,0.275305882 71.1792108,1.04530588 L181.456038,64.7321294 C182.215938,65.1710706 182.65146,65.7813059 182.65146,66.4047176 C182.65146,66.9490706 182.330376,67.4333059 181.748307,67.7693059 L115.942484,105.773541 C115.405697,106.082365 114.703428,106.235541 113.969873,106.235541" id="Fill-1" fill="#42E8E0" mask="url(#mask-2)"></path>
                </g>
                <g id="Group-6" transform="translate(70.803213, 0.655529)">
                    <mask id="mask-4" fill="white">
                        <use xlink:href="#path-3"></use>
                    </mask>
                    <g id="Clip-5"></g>
                    <path d="M0.33524498,84.4728706 L14.2760683,1.74522353 L13.154743,1.27334118 L14.8392008,0.307341176 L14.8359076,0.317223529 C15.1635783,0.0989882353 15.6246225,0.112164706 16.134241,0.406164706 L127.54392,64.7468706 C128.457775,65.2747529 129.150988,66.6302824 128.990446,67.5773412 L114.939301,150.962988 C114.865205,151.397812 114.651149,151.685224 114.35147,151.812871 L114.35394,151.812871 L112.705707,152.764871 L112.423317,151.226518 L112.516349,151.254518 L1.78259438,87.3041647 C0.867092369,86.7754588 0.174702811,85.4199294 0.33524498,84.4728706" id="Fill-4" fill="#263958" mask="url(#mask-4)"></path>
                </g>
                <path d="M197.725464,67.6646353 L199.558114,66.8542824 C199.763114,67.3236941 199.86438,67.8169882 199.793576,68.2328706 L185.742432,151.618518 C185.668335,152.053341 185.454279,152.340753 185.1546,152.4684 L185.15707,152.4684 L183.508837,153.4204 L183.226448,151.882047 L183.31948,151.910047 L177.716147,148.673576 L197.725464,67.6646353 Z" id="Fill-7" fill="#7AC7C4"></path>
                <path d="M70.8377912,88.9621765 L182.246647,153.302882 C183.106988,153.799471 183.843835,153.512882 183.994498,152.622647 L198.045643,69.2361765 C198.206185,68.2882941 197.512972,66.9335882 196.599116,66.4057059 L85.190261,2.065 C84.3299197,1.56841176 83.5930723,1.85582353 83.4424096,2.74605882 L69.3904418,86.1308824 C69.2307229,87.0787647 69.9231124,88.4342941 70.8377912,88.9621765" id="Fill-9" fill="#263958"></path>
                <polygon id="Fill-11" fill="#263958" points="84.815251 3.61587059 196.747721 68.2291647 182.611777 151.828106 70.751757 87.2559882"></polygon>
                <path d="M0.805592369,128.440118 L6.88561245,131.615647 L67.8521185,96.4081176 C68.8713554,95.8184706 70.6529618,95.8925882 71.8310944,96.5728235 L176.978805,157.298235 C177.985693,156.734941 182.573082,154.528706 182.573082,154.528706 L180.347721,158.145647 C180.347721,158.145647 180.340311,158.139882 180.338665,158.139059 C180.246456,158.396824 180.048865,158.638118 179.717078,158.829176 L115.50762,195.911882 C114.48756,196.501529 112.705954,196.427412 111.527821,195.746353 L3.92752008,133.605294 C3.44424699,133.326941 3.14786145,132.987647 3.02519076,132.645059 L3.01695783,132.650824 L0.805592369,128.440118 Z" id="Fill-13" fill="#263958"></path>
                <path d="M1.7458755,129.4398 L112.02188,193.126624 C113.228827,193.823329 115.054068,193.898271 116.100474,193.295447 L181.906297,155.292035 C182.951056,154.687565 182.820153,153.633447 181.613205,152.935918 L71.3372008,89.2499176 C70.130253,88.5532118 68.3041888,88.4774471 67.2594297,89.0810941 L1.45278313,127.085329 C0.408024096,127.688153 0.538927711,128.743094 1.7458755,129.4398" id="Fill-15" fill="#7AC7C4"></path>
                <path d="M1.7458755,128.945929 L112.02188,192.631929 C113.228827,193.329459 115.054068,193.4044 116.100474,192.801576 L181.906297,154.797341 C182.274309,154.584871 182.488365,154.315576 182.569048,154.026518 C182.685956,154.494282 182.478486,154.961224 181.906297,155.291459 L116.100474,193.295694 C115.054068,193.898518 113.228827,193.822753 112.02188,193.126871 L1.7458755,129.440047 C0.963746988,128.988753 0.641016064,128.387576 0.790032129,127.855576 C0.88635743,128.242635 1.20003213,128.630518 1.7458755,128.945929" id="Fill-17" fill="#FFFFFF"></path>
                <g id="Group-179" transform="translate(70.803213, 48.420235)">
                    <path d="M66.9436145,7.97258824 L6.72712851,42.7485882 L111.808976,103.407294 L122.847691,38.1252941 L70.9234137,8.13811765 C70.2787751,7.76588235 69.4538353,7.57482353 68.6717068,7.57482353 L68.6717068,7.57482353 C68.0237751,7.57482353 67.4054819,7.70576471 66.9436145,7.97258824" id="Fill-19"></path>
                    <path d="M66.3508434,0.646470588 L0.54502008,38.6490588 C0.386947791,38.7404706 0.255220884,38.8425882 0.150662651,38.9521176 L0.150662651,38.9521176 L111.808976,103.407294 L123.931968,31.7132941 L70.4294378,0.814470588 C69.7699799,0.433176471 68.9244578,0.238 68.1233936,0.238 L68.1233936,0.238 C67.458996,0.238 66.8250602,0.372235294 66.3508434,0.646470588" id="Fill-21"></path>
                    <g id="Group-178" transform="translate(67.345382, 0.000000)">
                        <g id="Group-25" transform="translate(0.164659, 0.000000)">
                            <mask id="mask-6" fill="white">
                                <use xlink:href="#path-5"></use>
                            </mask>
                            <g id="Clip-24"></g>
                            <path d="M113.195566,64.5007176 L2.91956225,0.814717647 C2.14237349,0.365894118 1.11078715,0.178952941 0.194461847,0.260482353 C0.872032129,0.314011765 1.55371888,0.495188235 2.10614859,0.814717647 L112.382976,64.5007176 C113.589924,65.1982471 113.721651,66.2523647 112.676068,66.8560118 L46.8694217,104.860247 C46.4972932,105.076012 46.0238996,105.200365 45.516751,105.246482 C46.3194618,105.309071 47.1155863,105.188012 47.682012,104.860247 L113.487835,66.8560118 C114.533418,66.2523647 114.402514,65.1982471 113.195566,64.5007176" id="Fill-23" fill="#FFFFFF" mask="url(#mask-6)"></path>
                        </g>
                    </g>
                </g>
                <g id="Group-328" transform="translate(48.574297, 102.773176)" fill="#263958">
                    <path d="M3.8969759,19.6143294 L0.396333333,17.5925647 C0.115590361,17.4303294 0.150168675,17.1462118 0.475369478,16.9592706 L4.60665462,14.5726824 C4.93185542,14.3849176 5.42336145,14.3651529 5.70328112,14.5273882 L9.20474699,16.5491529 C9.48548996,16.7122118 9.45008835,16.9946824 9.12653414,17.1824471 L4.99360241,19.5682118 C4.6692249,19.7559765 4.17854217,19.7765647 3.8969759,19.6143294" id="Fill-180"></path>
                    <path d="M9.30304819,22.7363294 L5.80240562,20.7145647 C5.52166265,20.5523294 5.55706426,20.2690353 5.88144177,20.0812706 L10.0135502,17.6946824 C10.3379277,17.5077412 10.8294337,17.4871529 11.1101767,17.6493882 L14.6108193,19.6711529 C14.8923855,19.8342118 14.8569839,20.1166824 14.5326064,20.3044471 L10.3996747,22.6902118 C10.0752972,22.8788 9.58461446,22.8985647 9.30304819,22.7363294" id="Fill-182"></path>
                    <path d="M14.7099438,25.8583294 L11.2093012,23.8365647 C10.9277349,23.6751529 10.9631365,23.3910353 11.2875141,23.2032706 L15.4196225,20.8175059 C15.7448233,20.6297412 16.235506,20.6091529 16.516249,20.7713882 L20.0168916,22.7931529 C20.2984578,22.9562118 20.2630562,23.2386824 19.9386787,23.4272706 L15.8065703,25.8130353 C15.4813695,26.0008 14.9906867,26.0205647 14.7099438,25.8583294" id="Fill-184"></path>
                    <path d="M22.1870924,23.2800235 L18.6864498,21.2582588 C18.4048835,21.0968471 18.4402851,20.8127294 18.7646627,20.6249647 L22.2340201,18.6221412 C22.5575743,18.4343765 23.0490803,18.4137882 23.3306466,18.5760235 L26.8312892,20.5977882 C27.1112088,20.7600235 27.0766305,21.0441412 26.752253,21.2319059 L23.2837189,23.2339059 C22.9585181,23.4224941 22.4678353,23.4422588 22.1870924,23.2800235" id="Fill-186"></path>
                    <path d="M27.5931647,26.4027647 L24.0925221,24.381 C23.8109558,24.2187647 23.8463574,23.9346471 24.1715582,23.7468824 L27.6400924,21.7440588 C27.9644699,21.5562941 28.4551526,21.5365294 28.7367189,21.6987647 L32.2373614,23.7197059 C32.5181044,23.8819412 32.4827028,24.1660588 32.1583253,24.3538235 L28.6897912,26.3566471 C28.3645904,26.5444118 27.8747309,26.565 27.5931647,26.4027647" id="Fill-188"></path>
                    <path d="M32.9992369,29.5248471 L29.4985944,27.5030824 C29.2170281,27.3408471 29.2524297,27.0567294 29.5776305,26.8689647 L33.0461647,24.8661412 C33.3705422,24.6783765 33.8612249,24.6586118 34.1427912,24.8208471 L37.6434337,26.8426118 C37.9241767,27.0040235 37.8887751,27.2881412 37.5643976,27.4759059 L34.0958635,29.4787294 C33.7706627,29.6664941 33.2808032,29.6870824 32.9992369,29.5248471" id="Fill-190"></path>
                    <path d="M38.4053092,32.6468471 L34.9046667,30.6250824 C34.6239237,30.4628471 34.658502,30.1795529 34.9837028,29.9909647 L38.4522369,27.9889647 C38.7766145,27.8003765 39.2681205,27.7806118 39.5488635,27.9428471 L43.0503293,29.9646118 C43.330249,30.1268471 43.2948474,30.4109647 42.9712932,30.5979059 L39.5019357,32.6007294 C39.1775582,32.7884941 38.6868755,32.8090824 38.4053092,32.6468471" id="Fill-192"></path>
                    <path d="M43.8122048,35.7688471 L40.310739,33.7470824 C40.029996,33.5848471 40.0653976,33.3015529 40.3897751,33.1137882 L43.8591325,31.1109647 C44.1826867,30.9232 44.6741928,30.9034353 44.9549357,31.0648471 L48.4564016,33.0866118 C48.7363213,33.2488471 48.7009197,33.5329647 48.3773655,33.7207294 L44.9088313,35.7235529 C44.5836305,35.9113176 44.0929478,35.9310824 43.8122048,35.7688471" id="Fill-194"></path>
                    <path d="M49.2182771,38.8908471 L45.7168112,36.8690824 C45.4360683,36.7068471 45.4714699,36.4235529 45.7958474,36.2357882 L49.2652048,34.2329647 C49.588759,34.0452 50.0802651,34.0254353 50.3618313,34.1876706 L53.8624739,36.2094353 C54.1432169,36.3708471 54.1078153,36.6549647 53.7834378,36.8427294 L50.3149036,38.8455529 C49.9897028,39.0333176 49.4990201,39.0530824 49.2182771,38.8908471" id="Fill-196"></path>
                    <path d="M54.6243494,42.0128471 L51.1237068,39.9910824 C50.8421406,39.8296706 50.8775422,39.5455529 51.202743,39.3577882 L54.6712771,37.3549647 C54.9956546,37.1680235 55.4863373,37.1474353 55.7679036,37.3096706 L59.2685462,39.3314353 C59.5492892,39.4936706 59.5138876,39.7769647 59.18951,39.9647294 L55.7209759,41.9675529 C55.3957751,42.1553176 54.9059157,42.1750824 54.6243494,42.0128471" id="Fill-198"></path>
                    <path d="M60.0304217,45.1356706 L56.5297791,43.1139059 C56.2482129,42.9516706 56.2836145,42.6675529 56.6088153,42.4806118 L60.0773494,40.4769647 C60.4017269,40.2900235 60.8932329,40.2694353 61.1739759,40.4316706 L64.6746185,42.4534353 C64.9553614,42.6156706 64.9199598,42.8989647 64.5955823,43.0875529 L61.1270482,45.0895529 C60.8018474,45.2781412 60.311988,45.2970824 60.0304217,45.1356706" id="Fill-200"></path>
                    <path d="M65.436494,48.2576706 L61.9358514,46.2359059 C61.6551084,46.0736706 61.6896867,45.7895529 62.0148876,45.6026118 L65.4834217,43.5997882 C65.8077992,43.4120235 66.2993052,43.3914353 66.5800482,43.5536706 L70.0815141,45.5754353 C70.3614337,45.7376706 70.3260321,46.0209647 70.0024779,46.2095529 L66.5331205,48.2115529 C66.208743,48.4001412 65.7180602,48.4199059 65.436494,48.2576706" id="Fill-202"></path>
                    <path d="M70.8433896,51.3804941 L67.3419237,49.3587294 C67.0611807,49.1964941 67.0965823,48.9123765 67.4209598,48.7246118 L70.8903173,46.7217882 C71.2138715,46.5340235 71.7053775,46.5134353 71.9869438,46.6756706 L75.4875863,48.6974353 C75.767506,48.8596706 75.7329277,49.1437882 75.4085502,49.3315529 L71.9400161,51.3335529 C71.6148153,51.5221412 71.1241325,51.5419059 70.8433896,51.3804941" id="Fill-204"></path>
                    <path d="M30.1522892,21.8017882 L26.6516466,19.7800235 C26.3709036,19.6186118 26.4054819,19.3344941 26.7306827,19.1467294 L30.1992169,17.1439059 C30.5235944,16.9561412 31.0151004,16.9355529 31.2958434,17.0977882 L34.7973092,19.1195529 C35.0772289,19.2817882 35.0418273,19.5659059 34.7182731,19.7536706 L31.2489157,21.7564941 C30.9245382,21.9442588 30.4338554,21.9640235 30.1522892,21.8017882" id="Fill-206"></path>
                    <path d="M24.6658635,18.6331765 L21.1652209,16.6114118 C20.8836546,16.4491765 20.9190562,16.1658824 21.244257,15.9781176 L24.7127912,13.9752941 C25.0371687,13.7875294 25.5278514,13.7669412 25.8094177,13.9291765 L29.3100602,15.9509412 C29.5908032,16.1131765 29.5554016,16.3964706 29.2310241,16.5850588 L25.76249,18.5870588 C25.4372892,18.7756471 24.9466064,18.7954118 24.6658635,18.6331765" id="Fill-208"></path>
                    <path d="M19.1697229,15.4588824 L11.630004,11.1048824 C11.349261,10.9426471 11.3838394,10.6593529 11.7082169,10.4715882 L15.176751,8.46876471 C15.5019518,8.281 15.9934578,8.26123529 16.2733775,8.42264706 L23.8139197,12.7774706 C24.0946627,12.9397059 24.059261,13.223 23.7348835,13.4107647 L20.2663494,15.4135882 C19.9411486,15.6013529 19.4512892,15.6211176 19.1697229,15.4588824" id="Fill-210"></path>
                    <path d="M23.0112088,11.5994118 L16.892494,8.06564706 C16.611751,7.90341176 16.6471526,7.61929412 16.9715301,7.43235294 L20.4400643,5.42870588 C20.7644418,5.24176471 21.2551245,5.22117647 21.5366908,5.38341176 L27.6554056,8.91717647 C27.9361486,9.07941176 27.900747,9.36270588 27.5763695,9.55129412 L24.1078353,11.5532941 C23.7834578,11.7410588 23.2927751,11.7616471 23.0112088,11.5994118" id="Fill-212"></path>
                    <path d="M35.5591847,24.9246118 L32.0577189,22.9028471 C31.7769759,22.7406118 31.8123775,22.4564941 32.136755,22.2687294 L35.6061124,20.2659059 C35.9296667,20.0781412 36.4211727,20.0583765 36.702739,20.2206118 L40.2033815,22.2415529 C40.4833012,22.4037882 40.4487229,22.6879059 40.1243454,22.8756706 L36.6558112,24.8784941 C36.3306104,25.0662588 35.8399277,25.0860235 35.5591847,24.9246118" id="Fill-214"></path>
                    <path d="M40.965257,28.0466118 L37.4646145,26.0248471 C37.1830482,25.8626118 37.2184498,25.5784941 37.5436506,25.3907294 L41.0121847,23.3887294 C41.335739,23.2001412 41.827245,23.1803765 42.1088112,23.3426118 L45.6094538,25.3643765 C45.8901968,25.5257882 45.8547952,25.8099059 45.5304177,25.9976706 L42.0618835,28.0004941 C41.7366827,28.1882588 41.246,28.2088471 40.965257,28.0466118" id="Fill-216"></path>
                    <path d="M46.3713293,31.1686941 L42.8706867,29.1469294 C42.5891205,28.9846941 42.6245221,28.7014 42.9497229,28.5128118 L46.418257,26.5108118 C46.7426345,26.3222235 47.2333173,26.3024588 47.5148835,26.4646941 L51.0155261,28.4864588 C51.2962691,28.6486941 51.2608675,28.9319882 50.93649,29.1197529 L47.4679558,31.1225765 C47.142755,31.3103412 46.6528956,31.3309294 46.3713293,31.1686941" id="Fill-218"></path>
                    <path d="M51.7774016,34.2906941 L48.276759,32.2689294 C47.9951928,32.1066941 48.0305944,31.8234 48.3557952,31.6356353 L51.8243293,29.6328118 C52.1487068,29.4450471 52.6402129,29.4252824 52.9209558,29.5875176 L56.4215984,31.6092824 C56.7023414,31.7706941 56.6669398,32.0548118 56.3433855,32.2425765 L52.8740281,34.2454 C52.5488273,34.4331647 52.0589679,34.4529294 51.7774016,34.2906941" id="Fill-220"></path>
                    <path d="M57.1834739,37.4126941 L53.6828313,35.3909294 C53.4020884,35.2286941 53.4366667,34.9454 53.7618675,34.7576353 L57.2312249,32.7548118 C57.5547791,32.5670471 58.0462851,32.5472824 58.3270281,32.7095176 L61.828494,34.7312824 C62.1084137,34.8926941 62.073012,35.1768118 61.7494578,35.3645765 L58.2801004,37.3674 C57.9557229,37.5551647 57.4650402,37.5749294 57.1834739,37.4126941" id="Fill-222"></path>
                    <path d="M62.5903695,40.5346941 L59.0897269,38.5137529 C58.8081606,38.3515176 58.8435622,38.0674 59.1679398,37.8796353 L62.6372972,35.8768118 C62.9608514,35.6890471 63.4523574,35.6692824 63.7339237,35.8315176 L67.2345663,37.8532824 C67.5144859,38.0155176 67.4799076,38.2988118 67.1555301,38.4865765 L63.686996,40.4894 C63.3617952,40.6771647 62.8711124,40.6969294 62.5903695,40.5346941" id="Fill-224"></path>
                    <path d="M67.9964418,43.6575176 L64.4957992,41.6357529 C64.2142329,41.4735176 64.2496345,41.1894 64.5748353,41.0024588 L68.0433695,38.9988118 C68.367747,38.8118706 68.8584297,38.7912824 69.139996,38.9535176 L72.6406386,40.9752824 C72.9213815,41.1375176 72.8859799,41.4208118 72.5616024,41.6094 L69.0930683,43.6114 C68.7678675,43.7999882 68.2771847,43.8189294 67.9964418,43.6575176" id="Fill-226"></path>
                    <path d="M73.4025141,46.7795176 L69.9018715,44.7577529 C69.6203052,44.5955176 69.6557068,44.3114 69.9809076,44.1244588 L73.4494418,42.1208118 C73.7738193,41.9338706 74.2653253,41.9132824 74.5460683,42.0755176 L78.0467108,44.0972824 C78.3274538,44.2595176 78.2920522,44.5428118 77.9676747,44.7314 L74.4991406,46.7334 C74.1739398,46.9219882 73.6840803,46.9417529 73.4025141,46.7795176" id="Fill-228"></path>
                    <path d="M78.8085863,49.9023412 L75.3079438,47.8805765 C75.0272008,47.7183412 75.0617791,47.4342235 75.3869799,47.2464588 L78.8555141,45.2436353 C79.1798916,45.0558706 79.6713976,45.0361059 79.9521406,45.1975176 L83.4536064,47.2192824 C83.7335261,47.3815176 83.6981245,47.6656353 83.3745703,47.8534 L79.9052129,49.8554 C79.5808353,50.0439882 79.0901526,50.0645765 78.8085863,49.9023412" id="Fill-230"></path>
                    <path d="M88.4196285,55.4523529 L80.7819378,51.0415294 C80.5003715,50.8784706 80.5357731,50.596 80.8601506,50.4074118 L84.3286847,48.4045882 C84.6538855,48.2168235 85.1445683,48.1962353 85.4253112,48.3592941 L93.0646486,52.7701176 C93.3445683,52.9323529 93.3091667,53.2156471 92.9856124,53.4042353 L89.516255,55.4062353 C89.1918775,55.5948235 88.7011948,55.6145882 88.4196285,55.4523529" id="Fill-232"></path>
                    <path d="M98.9455141,49.3739647 L92.4983052,45.6507882 C92.216739,45.4877294 92.2521406,45.2044353 92.5773414,45.0174941 L96.0458755,43.0130235 C96.370253,42.8269059 96.861759,42.8054941 97.142502,42.9685529 L103.589711,46.6917294 C103.869631,46.8539647 103.835052,47.1372588 103.510675,47.3258471 L100.042141,49.3278471 C99.7169398,49.5164353 99.226257,49.5353765 98.9455141,49.3739647" id="Fill-234"></path>
                    <path d="M45.0262329,24.3133882 L41.5255904,22.2916235 C41.2440241,22.1293882 41.2794257,21.8460941 41.6046265,21.6575059 L45.0731606,19.6555059 C45.3975382,19.4669176 45.8890442,19.4471529 46.1697871,19.6093882 L49.6704297,21.6311529 C49.9511727,21.7933882 49.9157711,22.0775059 49.5913936,22.2644471 L46.1228594,24.2680941 C45.7976586,24.4550353 45.3077992,24.4756235 45.0262329,24.3133882" id="Fill-236"></path>
                    <path d="M39.4858815,21.1134 L35.9844157,19.0916353 C35.7036727,18.9294 35.7390743,18.6461059 36.0634518,18.4583412 L39.5328092,16.4555176 C39.8563635,16.2677529 40.3478695,16.2471647 40.6294357,16.4094 L44.1300783,18.4311647 C44.409998,18.5934 44.3754197,18.8766941 44.0510422,19.0652824 L40.582508,21.0672824 C40.2573072,21.2558706 39.7666245,21.2756353 39.4858815,21.1134" id="Fill-238"></path>
                    <path d="M33.9447892,17.9134118 L30.4441466,15.8916471 C30.1625803,15.7302353 30.1979819,15.4461176 30.5231827,15.2583529 L33.9917169,13.2555294 C34.3160944,13.0677647 34.8076004,13.048 35.0883434,13.2102353 L38.5889859,15.232 C38.8697289,15.3934118 38.8343273,15.6775294 38.5099498,15.8652941 L35.0414157,17.8681176 C34.7162149,18.0558824 34.2263554,18.0756471 33.9447892,17.9134118" id="Fill-240"></path>
                    <path d="M28.4044378,14.7141647 L24.9029719,12.6924 C24.6222289,12.5301647 24.6576305,12.2460471 24.982008,12.0582824 L28.4513655,10.0554588 C28.7749197,9.86769412 29.2664257,9.84792941 29.547992,10.0093412 L33.0486345,12.0311059 C33.3285542,12.1933412 33.2939759,12.4774588 32.9695984,12.6652235 L29.5010643,14.6680471 C29.1758635,14.8558118 28.6851807,14.8755765 28.4044378,14.7141647" id="Fill-242"></path>
                    <path d="M50.4323052,27.4354706 L46.9316627,25.4137059 C46.6509197,25.2514706 46.685498,24.9681765 47.0106988,24.7804118 L50.4792329,22.7775882 C50.8036104,22.5898235 51.2951165,22.5700588 51.5758594,22.7314706 L55.0773253,24.7532353 C55.357245,24.9154706 55.3218434,25.1995882 54.9982892,25.3873529 L51.5289317,27.3901765 C51.2045542,27.5771176 50.7138715,27.5977059 50.4323052,27.4354706" id="Fill-244"></path>
                    <path d="M55.8392008,30.5574706 L52.3377349,28.5357059 C52.056992,28.3734706 52.0923936,28.0901765 52.4167711,27.9024118 L55.8861285,25.8995882 C56.2096827,25.7118235 56.7011888,25.6920588 56.982755,25.8542941 L60.4833976,27.8752353 C60.7633173,28.0382941 60.728739,28.3215882 60.4043614,28.5093529 L56.9358273,30.5121765 C56.6106265,30.6999412 56.1199438,30.7197059 55.8392008,30.5574706" id="Fill-246"></path>
                    <path d="M61.2452731,33.6794706 L57.7446305,31.6577059 C57.4630643,31.4962941 57.4984659,31.2121765 57.8236667,31.0244118 L61.2922008,29.0215882 C61.615755,28.8338235 62.107261,28.8140588 62.3888273,28.9762941 L65.8894699,30.9980588 C66.1702129,31.1602941 66.1348112,31.4435882 65.8104337,31.6313529 L62.3418996,33.6341765 C62.0166988,33.8219412 61.5260161,33.8417059 61.2452731,33.6794706" id="Fill-248"></path>
                    <path d="M66.6513454,36.8022941 L63.1507028,34.7805294 C62.8691365,34.6182941 62.9045382,34.3341765 63.229739,34.1464118 L66.6982731,32.1435882 C67.0226506,31.9566471 67.5133333,31.9360588 67.7948996,32.0982941 L71.2955422,34.1200588 C71.5762851,34.2822941 71.5408835,34.5655882 71.216506,34.7533529 L67.7479719,36.7561765 C67.4227711,36.9439412 66.9329116,36.9637059 66.6513454,36.8022941" id="Fill-250"></path>
                    <path d="M72.0574177,39.9242941 L68.5567751,37.9025294 C68.2752088,37.7402941 68.3106104,37.457 68.6358112,37.2692353 L72.1043454,35.2664118 C72.4287229,35.0786471 72.9202289,35.0580588 73.2009719,35.2202941 L76.7016145,37.2420588 C76.9823574,37.4042941 76.9469558,37.6875882 76.6225783,37.8761765 L73.1540442,39.8781765 C72.8288434,40.0667647 72.3389839,40.0865294 72.0574177,39.9242941" id="Fill-252"></path>
                    <path d="M77.46349,43.0462941 L73.9628474,41.0253529 C73.6821044,40.8631176 73.7166827,40.579 74.0418835,40.3912353 L77.5104177,38.3884118 C77.8347952,38.2006471 78.3263012,38.1800588 78.6070442,38.3422941 L82.10851,40.3640588 C82.3884297,40.5262941 82.3530281,40.8095882 82.0294739,40.9981765 L78.5601165,43.0001765 C78.235739,43.1887647 77.7450562,43.2085294 77.46349,43.0462941" id="Fill-254"></path>
                    <path d="M82.8703855,46.1691176 L79.3689197,44.1473529 C79.0881767,43.9851176 79.1235783,43.701 79.4479558,43.5132353 L82.9173133,41.5104118 C83.2408675,41.3226471 83.7323735,41.3028824 84.0139398,41.4642941 L87.5145823,43.4860588 C87.794502,43.6482941 87.7599237,43.9324118 87.4355462,44.1201765 L83.967012,46.123 C83.6418112,46.3107647 83.1511285,46.3305294 82.8703855,46.1691176" id="Fill-256"></path>
                    <path d="M88.2764578,49.2911176 L84.7758153,47.2693529 C84.494249,47.1071176 84.5296506,46.8238235 84.8548514,46.6352353 L88.3233855,44.6332353 C88.6477631,44.4446471 89.1384458,44.4248824 89.420012,44.5871176 L92.9206546,46.6080588 C93.2013976,46.7702941 93.165996,47.0544118 92.8416185,47.2421765 L89.3730843,49.245 C89.0478835,49.4327647 88.5572008,49.4533529 88.2764578,49.2911176" id="Fill-258"></path>
                    <path d="M93.6825301,52.4131176 L90.1818876,50.3913529 C89.9003213,50.2291176 89.9357229,49.9458235 90.2609237,49.7572353 L93.7294578,47.7552353 C94.0538353,47.5666471 94.5445181,47.5468824 94.8260843,47.7091176 L98.3267269,49.7308824 C98.6074699,49.8931176 98.5720683,50.1772353 98.2476908,50.3641765 L94.7791566,52.3678235 C94.4539558,52.5547647 93.9640964,52.5753529 93.6825301,52.4131176" id="Fill-260"></path>
                    <path d="M42.1792851,16.5912353 L38.6786426,14.5694706 C38.3978996,14.4072353 38.4324779,14.1231176 38.7576787,13.9353529 L42.2262129,11.9325294 C42.5505904,11.7447647 43.0420964,11.725 43.3228394,11.8864118 L46.8243052,13.9081765 C47.1042249,14.0704118 47.0688233,14.3545294 46.7452691,14.5422941 L43.2759116,16.5451176 C42.9515341,16.7328824 42.4608514,16.7526471 42.1792851,16.5912353" id="Fill-262"></path>
                    <path d="M36.8005462,13.4836471 L33.2999036,11.4618824 C33.0183373,11.3004706 33.053739,11.0163529 33.3781165,10.8285882 L36.8474739,8.82576471 C37.1710281,8.638 37.6625341,8.61823529 37.9441004,8.78047059 L41.444743,10.8022353 C41.7246627,10.9644706 41.6900843,11.2477647 41.3657068,11.4355294 L37.8971727,13.4383529 C37.5719719,13.6261176 37.0812892,13.6458824 36.8005462,13.4836471" id="Fill-264"></path>
                    <path d="M31.4209839,10.3777882 L27.9203414,8.35602353 C27.6387751,8.19378824 27.6741767,7.90967059 27.9993775,7.72190588 L31.4679116,5.71908235 C31.7922892,5.53131765 32.2829719,5.51155294 32.5645382,5.67378824 L36.0651807,7.69555294 C36.3459237,7.85696471 36.3105221,8.14108235 35.9861446,8.32884706 L32.5176104,10.3316706 C32.1924096,10.5194353 31.7025502,10.5400235 31.4209839,10.3777882" id="Fill-266"></path>
                    <path d="M26.041504,7.27102353 L22.5408614,5.24925882 C22.2592952,5.08702353 22.2946968,4.80290588 22.6198976,4.61514118 L26.0884317,2.61231765 C26.4128092,2.42455294 26.9043153,2.40478824 27.1850582,2.56702353 L30.6857008,4.58878824 C30.9664438,4.75102353 30.9310422,5.03431765 30.6066647,5.22208235 L27.1381305,7.22490588 C26.8129297,7.41267059 26.3230703,7.43243529 26.041504,7.27102353" id="Fill-268"></path>
                    <path d="M31.5729639,4.07581176 L28.0723213,2.05404706 C27.790755,1.89263529 27.8261566,1.60851765 28.1513574,1.42075294 L29.2973815,0.759458824 C29.6225823,0.570870588 30.1140884,0.551105882 30.394008,0.713341176 L33.8946506,2.73510588 C34.1762169,2.89734118 34.1408153,3.18145882 33.8164378,3.3684 L32.6695904,4.03051765 C32.3452129,4.21828235 31.8545301,4.23804706 31.5729639,4.07581176" id="Fill-270"></path>
                    <path d="M38.5935141,8.13070588 L35.0920482,6.10894118 C34.8113052,5.94670588 34.8467068,5.66258824 35.1710843,5.47482353 L36.3179317,4.81352941 C36.6423092,4.62576471 37.1338153,4.60517647 37.4145582,4.76741176 L40.9152008,6.78917647 C41.1959438,6.95141176 41.1613655,7.23470588 40.836988,7.42329412 L39.6901406,8.08458824 C39.3649398,8.27235294 38.874257,8.29211765 38.5935141,8.13070588" id="Fill-272"></path>
                    <path d="M43.9505181,11.2238 L40.4490522,9.20203529 C40.1683092,9.04062353 40.2037108,8.75650588 40.5280884,8.56874118 L41.6749357,7.90744706 C41.9993133,7.71885882 42.4908193,7.69909412 42.7715622,7.86132941 L46.2722048,9.88309412 C46.5529478,10.0453294 46.5175462,10.3286235 46.193992,10.5163882 L45.0471446,11.1785059 C44.7219438,11.3662706 44.231261,11.3860353 43.9505181,11.2238" id="Fill-274"></path>
                    <path d="M49.3066988,14.3176353 L45.8060562,12.2958706 C45.5253133,12.1344588 45.5607149,11.8503412 45.8850924,11.6625765 L47.0311165,11.0004588 C47.3563173,10.8135176 47.8478233,10.7929294 48.127743,10.9551647 L51.6292088,12.9769294 C51.9099518,13.1391647 51.8745502,13.4224588 51.550996,13.6102235 L50.4033253,14.2723412 C50.0789478,14.4601059 49.5882651,14.4798706 49.3066988,14.3176353" id="Fill-276"></path>
                    <path d="M54.6637851,17.4115529 L51.1631426,15.3897882 C50.8823996,15.2275529 50.9169779,14.9442588 51.2421787,14.7556706 L52.3882028,14.0943765 C52.7134036,13.9066118 53.2049096,13.8868471 53.4848293,14.0482588 L56.9854719,16.0700235 C57.2670382,16.2322588 57.2316365,16.5163765 56.907259,16.7041412 L55.7604116,17.3662588 C55.4360341,17.5532 54.9453514,17.5737882 54.6637851,17.4115529" id="Fill-278"></path>
                    <path d="M84.5708976,34.6831059 L81.070255,32.6613412 C80.7886888,32.4991059 80.8240904,32.2158118 81.1492912,32.0280471 L82.2953153,31.3659294 C82.6205161,31.1781647 83.1111988,31.1584 83.3919418,31.3206353 L86.8925843,33.3424 C87.1741506,33.5046353 87.138749,33.7879294 86.8143715,33.9756941 L85.6675241,34.6378118 C85.3423233,34.8255765 84.8524639,34.8453412 84.5708976,34.6831059" id="Fill-280"></path>
                    <path d="M89.9279016,37.7770235 L86.427259,35.7552588 C86.1456928,35.5930235 86.1810944,35.3089059 86.5062952,35.1219647 L87.6523193,34.4598471 C87.9775201,34.2720824 88.4682028,34.2523176 88.7489458,34.4145529 L92.2495884,36.4363176 C92.5311546,36.5977294 92.495753,36.8818471 92.1713755,37.0696118 L91.0245281,37.7309059 C90.6993273,37.9194941 90.2094679,37.9392588 89.9279016,37.7770235" id="Fill-282"></path>
                    <path d="M95.2849056,40.8708588 L91.7842631,38.8490941 C91.5026968,38.6868588 91.5380984,38.4035647 91.8632992,38.2149765 L93.0093233,37.5536824 C93.3345241,37.3659176 93.8252068,37.3453294 94.1059498,37.5075647 L97.6065924,39.5293294 C97.8881586,39.6915647 97.852757,39.9748588 97.5283795,40.1634471 L96.3815321,40.8255647 C96.0563313,41.0125059 95.5664719,41.0330941 95.2849056,40.8708588" id="Fill-284"></path>
                    <path d="M100.641992,43.9639529 L97.1413494,41.9421882 C96.8597831,41.7807765 96.8951847,41.4966588 97.2203855,41.3088941 L98.3664096,40.6476 C98.6907871,40.4590118 99.1822932,40.4400706 99.4630361,40.6014824 L102.963679,42.6232471 C103.244422,42.7854824 103.209843,43.0696 102.885466,43.2565412 L101.738618,43.9186588 C101.413418,44.1064235 100.922735,44.1261882 100.641992,43.9639529" id="Fill-286"></path>
                    <path d="M47.5861807,19.7132353 L44.0847149,17.6914706 C43.8039719,17.5292353 43.8393735,17.2451176 44.163751,17.0573529 L47.6331084,15.0545294 C47.9566627,14.8667647 48.4481687,14.847 48.7297349,15.0092353 L52.2303775,17.031 C52.5102972,17.1924118 52.4757189,17.4765294 52.1513414,17.6642941 L48.6828072,19.6671176 C48.3576064,19.8548824 47.8669237,19.8754706 47.5861807,19.7132353" id="Fill-288"></path>
                    <path d="M52.992253,22.8352353 L49.4916104,20.8134706 C49.2100442,20.6512353 49.2454458,20.3679412 49.5706466,20.1793529 L53.0391807,18.1773529 C53.3635582,17.9887647 53.854241,17.969 54.1358072,18.1312353 L57.6364498,20.153 C57.9171928,20.3152353 57.8817912,20.5993529 57.5574137,20.7862941 L54.0888795,22.7899412 C53.7636787,22.9768824 53.272996,22.9974706 52.992253,22.8352353" id="Fill-290"></path>
                    <path d="M58.3983253,25.9572353 L54.8976827,23.9354706 C54.6161165,23.7732353 54.6515181,23.4899412 54.9767189,23.3021765 L58.445253,21.2993529 C58.7696305,21.1115882 59.2603133,21.0918235 59.5418795,21.2532353 L63.0425221,23.275 C63.3232651,23.4372353 63.2878635,23.7213529 62.9634859,23.9091176 L59.4949518,25.9119412 C59.169751,26.0988824 58.6798916,26.1194706 58.3983253,25.9572353" id="Fill-292"></path>
                    <path d="M63.8043976,29.0792353 L60.303755,27.0574706 C60.0221888,26.8952353 60.0575904,26.6119412 60.3827912,26.4241765 L63.8513253,24.4213529 C64.1757028,24.2335882 64.6672088,24.2138235 64.9479518,24.3760588 L68.4485944,26.3978235 C68.7293373,26.5592353 68.6939357,26.8433529 68.3703815,27.0311176 L64.9010241,29.0339412 C64.5766466,29.2217059 64.0859639,29.2414706 63.8043976,29.0792353" id="Fill-294"></path>
                    <path d="M69.2104699,32.2020588 L65.7098273,30.1802941 C65.4290843,30.0180588 65.4644859,29.7339412 65.7888635,29.5461765 L69.2582209,27.5433529 C69.5817751,27.3555882 70.0732811,27.3358235 70.3548474,27.4980588 L73.85549,29.5198235 C74.1354096,29.6820588 74.100008,29.9653529 73.7764538,30.1531176 L70.3070964,32.1559412 C69.9827189,32.3437059 69.4920361,32.3634706 69.2104699,32.2020588" id="Fill-296"></path>
                    <path d="M74.6173655,35.3241412 L71.1167229,33.3023765 C70.8351566,33.1401412 70.8705582,32.8560235 71.1949357,32.6682588 L74.6642932,30.6654353 C74.9878474,30.4784941 75.4793534,30.4579059 75.7609197,30.6201412 L79.2615622,32.6419059 C79.5423052,32.8041412 79.5069036,33.0874353 79.1825261,33.2752 L75.713992,35.2780235 C75.3887912,35.4657882 74.8981084,35.4855529 74.6173655,35.3241412" id="Fill-298"></path>
                    <path d="M80.0234378,38.4461412 L76.5227952,36.4243765 C76.2412289,36.2621412 76.2766305,35.9788471 76.6018313,35.7910824 L80.0703655,33.7882588 C80.394743,33.6004941 80.8854257,33.5799059 81.166992,33.7421412 L84.6676345,35.7639059 C84.9483775,35.9261412 84.9129759,36.2094353 84.5885984,36.3980235 L81.1200643,38.4000235 C80.7948635,38.5886118 80.305004,38.6083765 80.0234378,38.4461412" id="Fill-300"></path>
                    <path d="M85.42951,41.5681412 L81.9288675,39.5472 C81.6473012,39.3849647 81.6827028,39.1008471 82.0079036,38.9130824 L85.4764378,36.9102588 C85.8008153,36.7224941 86.291498,36.7019059 86.5730643,36.8649647 L90.0737068,38.8859059 C90.3544498,39.0481412 90.3190482,39.3314353 89.9946707,39.5200235 L86.5261365,41.5220235 C86.2009357,41.7106118 85.7110763,41.7303765 85.42951,41.5681412" id="Fill-302"></path>
                    <path d="M90.8355823,44.6909647 L87.3349398,42.6692 C87.0541968,42.5069647 87.0887751,42.2228471 87.4139759,42.0350824 L90.88251,40.0322588 C91.2068876,39.8444941 91.6983936,39.8247294 91.9791365,39.9861412 L95.4806024,42.0079059 C95.7605221,42.1701412 95.7251205,42.4542588 95.4015663,42.6420235 L91.9322088,44.6448471 C91.6078313,44.8326118 91.1171486,44.8532 90.8355823,44.6909647" id="Fill-304"></path>
                    <path d="M16.6772851,20.0984824 L6.36800803,14.1443647 C6.08644177,13.9813059 6.12184337,13.6988353 6.44622088,13.5110706 L9.91475502,11.5074235 C10.2399558,11.3204824 10.7298153,11.2990706 11.0113815,11.4621294 L21.3214819,17.4162471 C21.6022249,17.5784824 21.5668233,17.8617765 21.2432691,18.0503647 L17.7739116,20.0523647 C17.4487108,20.2409529 16.9588514,20.2607176 16.6772851,20.0984824" id="Fill-306"></path>
                    <path d="M83.0947329,58.4552706 L72.7846325,52.5019765 C72.5038896,52.3389176 72.5384679,52.0556235 72.8628454,51.8678588 L76.3313795,49.8642118 C76.6565803,49.6772706 77.1472631,49.6558588 77.428006,49.8189176 L87.7389297,55.7730353 C88.0196727,55.9352706 87.9842711,56.2185647 87.6598936,56.4071529 L84.1913594,58.4091529 C83.8661586,58.5977412 83.3754759,58.6175059 83.0947329,58.4552706" id="Fill-308"></path>
                    <path d="M61.4743956,52.8658941 L57.973753,50.8441294 C57.6921867,50.6827176 57.7275884,50.3977765 58.0519659,50.2108353 L62.1840743,47.8242471 C62.5092751,47.6364824 62.9999578,47.6167176 63.2807008,47.7789529 L66.7813434,49.8007176 C67.0629096,49.9637765 67.027508,50.2462471 66.7031305,50.4340118 L62.5710221,52.8197765 C62.2458213,53.0083647 61.7551386,53.0273059 61.4743956,52.8658941" id="Fill-310"></path>
                    <path d="M22.2136024,30.1923176 L16.6152088,26.9591412 C16.3336426,26.7969059 16.3690442,26.5127882 16.694245,26.3258471 L20.8255301,23.9392588 C21.1507309,23.7523176 21.6414137,23.7309059 21.9221566,23.8939647 L27.5213735,27.1271412 C27.8021165,27.2893765 27.7667149,27.5726706 27.4431606,27.7604353 L23.3102289,30.1470235 C22.9858514,30.3339647 22.4951687,30.3545529 22.2136024,30.1923176" id="Fill-312"></path>
                    <path d="M56.2653373,49.8572941 L50.6661205,46.6241176 C50.3853775,46.4618824 50.4207791,46.1785882 50.7451566,45.9908235 L54.8772651,43.6042353 C55.2016426,43.4172941 55.6931486,43.3958824 55.9738916,43.5589412 L61.5722851,46.7921176 C61.8538514,46.9551765 61.8184498,47.2384706 61.4940723,47.4254118 L57.3619639,49.812 C57.0367631,49.9997647 56.5460803,50.0195294 56.2653373,49.8572941" id="Fill-314"></path>
                    <path d="M30.0140582,34.6976 L24.4148414,31.4636 C24.1340984,31.3013647 24.1695,31.0172471 24.4938775,30.8311294 L28.6259859,28.4437176 C28.9503635,28.2567765 29.4418695,28.2361882 29.7226124,28.3992471 L35.321006,31.6316 C35.6025723,31.7946588 35.5671707,32.0771294 35.2427932,32.2657176 L31.1106847,34.6514824 C30.7854839,34.8392471 30.2956245,34.8590118 30.0140582,34.6976" id="Fill-316"></path>
                    <path d="M29.7607309,28.4205765 L54.1022169,42.4774 C54.4043655,42.6528118 54.4043655,42.9352824 54.1022169,43.1098706 L49.8886024,45.5434 C49.5864538,45.7171647 49.0965944,45.7171647 48.7944458,45.5434 L24.4537831,31.4857529 L29.7607309,28.4205765 Z" id="Fill-318"></path>
                    <path d="M76.5839659,58.5269176 L80.4830823,60.7784471 C80.7136044,60.9118588 80.6847892,61.1440941 80.4188655,61.2980941 L78.7278213,62.2748 C78.4618976,62.4271529 78.0601305,62.4444471 77.8296084,62.3118588 L73.9296687,60.0595059 C73.6999699,59.9260941 73.7287851,59.6938588 73.9938855,59.5398588 L75.6849297,58.5639765 C75.9508534,58.4099765 76.3534438,58.3935059 76.5839659,58.5269176" id="Fill-320"></path>
                    <path d="M71.1328594,55.3791412 L75.0319759,57.6306706 C75.2633213,57.7640824 75.2336827,57.9963176 74.967759,58.1494941 L73.2767149,59.1262 C73.0107912,59.2793765 72.6090241,59.2958471 72.378502,59.1632588 L68.4785622,56.9109059 C68.2488635,56.7783176 68.2776787,56.5452588 68.5427791,56.3920824 L70.2338233,55.4162 C70.499747,55.2622 70.9023373,55.2457294 71.1328594,55.3791412" id="Fill-322"></path>
                    <path d="M65.7267871,52.2563176 L69.6259036,54.5086706 C69.8564257,54.6412588 69.8267871,54.8743176 69.5608635,55.0274941 L67.8706426,56.0033765 C67.6047189,56.1573765 67.2029518,56.1738471 66.9724297,56.0412588 L63.07249,53.7889059 C62.8419679,53.6563176 62.8707831,53.4232588 63.1367068,53.2700824 L64.827751,52.2942 C65.0936747,52.1393765 65.4962651,52.1237294 65.7267871,52.2563176" id="Fill-324"></path>
                    <path d="M74.1181205,53.6548353 L78.0172369,55.9063647 C78.2485823,56.0397765 78.2189438,56.2720118 77.9530201,56.4251882 L76.2627992,57.4018941 C75.9968755,57.5550706 75.5942851,57.5723647 75.3645863,57.4397765 L71.4638233,55.1866 C71.2341245,55.0540118 71.2629398,54.8209529 71.5288635,54.6677765 L73.2190843,53.6918941 C73.485008,53.5370706 73.8884217,53.5214235 74.1181205,53.6548353" id="Fill-326"></path>
                </g>
                <path d="M177.056277,69.0479176 C176.9369,69.0479176 176.824932,69.0701529 176.722843,69.1146235 C176.488205,69.2167412 176.320253,69.4341529 176.252743,69.7265059 C176.090554,70.4298 176.523606,71.3282706 177.218466,71.7293294 C177.553546,71.9236824 177.903446,71.9665059 178.178426,71.8470941 C178.413888,71.7449765 178.581016,71.5283882 178.648526,71.2352118 C178.810715,70.5327412 178.376839,69.6334471 177.682803,69.2323882 C177.47204,69.1113294 177.255514,69.0479176 177.056277,69.0479176 M177.846639,72.2885059 C177.580715,72.2885059 177.299972,72.2094471 177.030755,72.0538 C176.203345,71.5761529 175.691257,70.4948588 175.888024,69.6416824 C175.982703,69.2307412 176.226398,68.9219176 176.573004,68.7703882 C176.955835,68.6032118 177.428406,68.6526235 177.870514,68.9070941 C178.6971,69.3855647 179.210012,70.4685059 179.013245,71.3208588 C178.918566,71.7309765 178.675695,72.0406235 178.328265,72.1905059 C178.178426,72.2563882 178.015414,72.2885059 177.846639,72.2885059" id="Fill-329" fill="#42E8E0"></path>
                <path d="M181.513669,71.6221882 C181.394291,71.6221882 181.282323,71.6436 181.180235,71.6888941 C180.945596,71.7910118 180.777645,72.0084235 180.710135,72.3007765 C180.547946,73.0040706 180.980998,73.9025412 181.675857,74.3036 C182.010938,74.4979529 182.361661,74.5407765 182.635817,74.4213647 C182.871279,74.3200706 183.038408,74.1026588 183.105918,73.8094824 C183.268106,73.1070118 182.834231,72.2077176 182.140195,71.8066588 C181.929432,71.6847765 181.712906,71.6221882 181.513669,71.6221882 M182.30403,74.8627765 C182.038106,74.8627765 181.757363,74.7837176 181.488147,74.6288941 C180.660737,74.1504235 180.148649,73.0691294 180.345416,72.2159529 C180.440094,71.8050118 180.683789,71.4961882 181.030396,71.3446588 C181.413227,71.1774824 181.88662,71.2268941 182.327906,71.4813647 C183.154492,71.9598353 183.667404,73.0427765 183.470637,73.8951294 C183.375958,74.3052471 183.133086,74.6148941 182.785657,74.7647765 C182.635817,74.8306588 182.472805,74.8627765 182.30403,74.8627765" id="Fill-331" fill="#42E8E0"></path>
                <path d="M187.746245,76.4266588 C187.565944,77.2057176 186.802751,77.4807765 186.040382,77.0401882 C185.278012,76.6004235 184.806265,75.6121882 184.985743,74.8323059 C185.166044,74.0532471 185.93006,73.7781882 186.69243,74.2187765 C187.454799,74.6593647 187.926546,75.6476 187.746245,76.4266588" id="Fill-333" fill="#42E8E0"></path>
                <polygon id="Fill-335" fill="#42E8E0" points="102.275653 27.2263765 99.8913956 25.8494353 100.075813 24.7467294 102.460894 26.1236706"></polygon>
                <polygon id="Fill-337" fill="#42E8E0" points="105.740894 29.2277176 103.356637 27.8507765 103.541878 26.7480706 105.926135 28.1258353"></polygon>
                <polygon id="Fill-339" fill="#42E8E0" points="98.8458133 25.2456235 93.6170783 22.2257412 93.8023193 21.1238588 99.0310542 24.1429176"></polygon>
                <polygon id="Fill-341" fill="#42E8E0" points="99.5042831 46.0517647 95.5137811 43.7467059 95.6685602 42.8243529 99.658239 45.1285882"></polygon>
                <polygon id="Fill-343" fill="#42E8E0" points="102.909259 48.0181059 100.913596 46.8659882 101.069199 45.9428118 103.063215 47.0957529"></polygon>
                <polygon id="Fill-345" fill="#42E8E0" points="100.318767 48.8947529 98.61949 47.9131059 98.7734458 46.9899294 100.473546 47.9724"></polygon>
                <polygon id="Fill-347" fill="#42E8E0" points="103.166538 50.5393412 101.171699 49.3872235 101.326478 48.4640471 103.320494 49.6169882"></polygon>
                <polygon id="Fill-349" fill="#42E8E0" points="106.096309 54.6043647 98.2569116 50.0757765 98.4108675 49.1534235 106.251088 53.6811882"></polygon>
                <polygon id="Fill-351" fill="#42E8E0" points="99.3001064 72.7143529 91.4598855 68.1857647 91.6146647 67.2634118 99.4540622 71.7911765"></polygon>
                <polygon id="Fill-353" fill="#42E8E0" points="102.315088 74.4555412 100.320249 73.3034235 100.475028 72.3802471 102.469867 73.5331882"></polygon>
                <polygon id="Fill-355" fill="#42E8E0" points="99.5935281 53.2214941 97.894251 52.2398471 98.0482068 51.3166706 99.7483072 52.2991412"></polygon>
                <polygon id="Fill-357" fill="#42E8E0" points="102.441299 54.8660824 100.44646 53.7139647 100.601239 52.7907882 102.595255 53.9437294"></polygon>
                <polygon id="Fill-359" fill="#42E8E0" points="101.84153 56.8919647 97.5315904 54.4032588 97.6855462 53.4800824 101.995486 55.9696118"></polygon>
                <polygon id="Fill-361" fill="#42E8E0" points="104.726267 58.5582941 102.731428 57.4061765 102.886207 56.483 104.881046 57.6359412"></polygon>
                <polygon id="Fill-363" fill="#42E8E0" points="107.626317 60.2335176 105.631478 59.0814 105.786257 58.1582235 107.781096 59.3111647"></polygon>
                <polygon id="Fill-365" fill="#42E8E0" points="112.307151 62.9361765 108.531528 60.7562941 108.686307 59.8331176 112.461106 62.013"></polygon>
                <polygon id="Fill-367" fill="#42E8E0" points="109.318679 65.9560588 107.323839 64.8039412 107.478618 63.8815882 109.473458 65.0337059"></polygon>
                <polygon id="Fill-369" fill="#42E8E0" points="113.998771 68.6590471 110.223972 66.4791647 110.378751 65.5559882 114.15355 67.7358706"></polygon>
                <polygon id="Fill-371" fill="#42E8E0" points="98.8007791 59.8817059 96.8059398 58.7295882 96.9607189 57.8072353 98.9547349 58.9593529"></polygon>
                <polygon id="Fill-373" fill="#42E8E0" points="101.700829 61.5565176 99.70599 60.4044 99.8607691 59.4812235 101.855608 60.6341647"></polygon>
                <polygon id="Fill-375" fill="#42E8E0" points="106.380922 64.2595059 102.606122 62.0796235 102.760902 61.1564471 106.535701 63.3371529"></polygon>
                <polygon id="Fill-377" fill="#42E8E0" points="112.51462 65.4288353 110.518958 64.2767176 110.673737 63.3535412 112.668576 64.5064824"></polygon>
                <polygon id="Fill-379" fill="#42E8E0" points="115.414588 67.1036471 113.418926 65.9515294 113.574528 65.0283529 115.568544 66.1804706"></polygon>
                <polygon id="Fill-381" fill="#42E8E0" points="120.094681 69.8063059 116.319058 67.6264235 116.474661 66.7032471 120.248637 68.8839529"></polygon>
                <polygon id="Fill-383" fill="#42E8E0" points="105.437016 76.2581647 103.441353 75.1060471 103.596133 74.1828706 105.590972 75.3349882"></polygon>
                <polygon id="Fill-385" fill="#42E8E0" points="110.117108 78.9608235 106.341486 76.7809412 106.497088 75.8577647 110.271064 78.0384706"></polygon>
                <polygon id="Fill-387" fill="#42E8E0" points="98.0756225 64.2084471 96.0799598 63.0563294 96.2355622 62.1331529 98.2295783 63.2852706"></polygon>
                <polygon id="Fill-389" fill="#42E8E0" points="102.755633 66.9110235 98.9808333 64.7311412 99.1356124 63.8079647 102.910412 65.9886706"></polygon>
                <polygon id="Fill-391" fill="#42E8E0" points="107.610181 79.8856471 105.614518 78.7343529 105.769297 77.8103529 107.764137 78.9632941"></polygon>
                <polygon id="Fill-393" fill="#42E8E0" points="112.290273 82.5886353 108.514651 80.4087529 108.670253 79.4855765 112.444229 81.6662824"></polygon>
                <polygon id="Fill-395" fill="#42E8E0" points="112.061151 58.0484471 110.065488 56.8963294 110.220267 55.9739765 112.215106 57.1260941"></polygon>
                <polygon id="Fill-397" fill="#42E8E0" points="109.044522 56.3065176 107.048859 55.1544 107.204462 54.2312235 109.198478 55.3841647"></polygon>
                <polygon id="Fill-399" fill="#42E8E0" points="116.741243 60.7514353 112.96562 58.5715529 113.121223 57.6483765 116.895199 59.8290824"></polygon>
                <polygon id="Fill-401" fill="#42E8E0" points="98.9688133 57.6057176 97.1682711 56.5664235 97.3230502 55.6440706 99.1227691 56.6833647"></polygon>
                <polygon id="Fill-403" fill="#42E8E0" points="104.306552 60.6887647 99.9315723 58.1621765 100.085528 57.2398235 104.460508 59.7655882"></polygon>
                <polygon id="Fill-405" fill="#42E8E0" points="109.644291 63.7713176 105.269311 61.2447294 105.423267 60.3223765 109.798247 62.8489647"></polygon>
                <polygon id="Fill-407" fill="#42E8E0" points="119.513353 62.3527059 117.712811 61.3134118 117.868414 60.3902353 119.668133 61.4303529"></polygon>
                <polygon id="Fill-409" fill="#42E8E0" points="124.851092 65.4352588 120.476936 62.9086706 120.630892 61.9863176 125.005871 64.5129059"></polygon>
                <polygon id="Fill-411" fill="#42E8E0" points="130.188831 68.5178941 125.814675 65.9913059 125.968631 65.0689529 130.34361 67.5955412"></polygon>
                <polygon id="Fill-413" fill="#42E8E0" points="100.857448 63.4419882 96.4824679 60.9154 96.6364237 59.9930471 101.011404 62.5188118"></polygon>
                <polygon id="Fill-415" fill="#42E8E0" points="103.163327 64.7742118 101.819713 63.9984471 101.974492 63.0752706 103.318106 63.8510353"></polygon>
                <polygon id="Fill-417" fill="#42E8E0" points="105.474805 66.1088235 104.131191 65.3330588 104.28597 64.4098824 105.628761 65.1856471"></polygon>
                <polygon id="Fill-419" fill="#42E8E0" points="109.748026 68.5766118 106.442504 66.6676706 106.597283 65.7453176 109.901982 67.6542588"></polygon>
                <polygon id="Fill-421" fill="#42E8E0" points="114.538275 64.2249176 113.193837 63.4491529 113.34944 62.5259765 114.692231 63.3025647"></polygon>
                <polygon id="Fill-423" fill="#42E8E0" points="118.811496 66.6931176 115.505151 64.7841765 115.660753 63.861 118.965452 65.7699412"></polygon>
                <polygon id="Fill-425" fill="#42E8E0" points="119.709544 67.2118588 116.404022 65.3029176 116.558801 64.3797412 119.8635 66.2886824"></polygon>
                <polygon id="Fill-427" fill="#42E8E0" points="102.110088 79.0822118 97.8001486 76.5935059 97.9541044 75.6703294 102.264867 78.1598588"></polygon>
                <polygon id="Fill-429" fill="#42E8E0" points="104.995649 80.7486235 102.999986 79.5965059 103.155588 78.6733294 105.149604 79.8262706"></polygon>
                <polygon id="Fill-431" fill="#42E8E0" points="107.895616 82.4237647 105.899954 81.2716471 106.055556 80.3484706 108.049572 81.5005882"></polygon>
                <polygon id="Fill-433" fill="#42E8E0" points="112.575709 85.1264235 108.80091 82.9465412 108.955689 82.0233647 112.729665 84.2032471"></polygon>
                <polygon id="Fill-435" fill="#42E8E0" points="115.569779 86.8555059 113.574116 85.7033882 113.729719 84.7810353 115.723735 85.9323294"></polygon>
                <polygon id="Fill-437" fill="#42E8E0" points="120.249871 89.5584941 116.475072 87.3777882 116.629851 86.4554353 120.403827 88.6353176"></polygon>
                <polygon id="Fill-439" fill="#42E8E0" points="105.892873 86.0122941 103.897211 84.8601765 104.05199 83.937 106.046829 85.0899412"></polygon>
                <polygon id="Fill-441" fill="#42E8E0" points="110.572966 88.7152824 106.797343 86.5354 106.952946 85.6122235 110.726922 87.7921059"></polygon>
                <polygon id="Fill-443" fill="#42E8E0" points="95.4722871 79.9941882 93.4766245 78.8420706 93.6314036 77.9188941 95.626243 79.0718353"></polygon>
                <polygon id="Fill-445" fill="#42E8E0" points="98.372255 81.669 96.3765924 80.5168824 96.5321948 79.5945294 98.5262108 80.7458235"></polygon>
                <polygon id="Fill-447" fill="#42E8E0" points="103.052347 84.3720706 99.2775482 82.1921882 99.4323273 81.2690118 103.206303 83.4488941"></polygon>
                <polygon id="Fill-449" fill="#42E8E0" points="99.2373715 79.7959647 97.4368293 78.7566706 97.5924317 77.8343176 99.3913273 78.8736118"></polygon>
                <polygon id="Fill-451" fill="#42E8E0" points="104.57511 82.8790118 100.200131 80.3524235 100.35491 79.4300706 104.729066 81.9558353"></polygon>
                <polygon id="Fill-453" fill="#42E8E0" points="109.912849 85.9615647 105.537869 83.4349765 105.692649 82.5126235 110.066805 85.0383882"></polygon>
                <polygon id="Fill-455" fill="#42E8E0" points="93.9993333 81.5166471 89.6243534 78.9900588 89.7783092 78.0677059 94.1532892 80.5934706"></polygon>
                <polygon id="Fill-457" fill="#42E8E0" points="96.3060361 82.8484588 94.9615984 82.0726941 95.1163775 81.1495176 96.459992 81.9261059"></polygon>
                <polygon id="Fill-459" fill="#42E8E0" points="98.6166908 84.1834824 97.2730763 83.4077176 97.4278554 82.4845412 98.7714699 83.2603059"></polygon>
                <polygon id="Fill-461" fill="#42E8E0" points="102.890735 86.6508588 99.5843896 84.7419176 99.7391687 83.8195647 103.044691 85.7285059"></polygon>
                <polygon id="Fill-463" fill="#42E8E0" points="103.788783 87.1699294 100.482438 85.2609882 100.637217 84.3378118 103.942739 86.2467529"></polygon>
                <polygon id="Fill-465" fill="#42E8E0" points="95.9699679 73.1635059 94.6255301 72.3877412 94.7811325 71.4645647 96.1239237 72.2411529"></polygon>
                <polygon id="Fill-467" fill="#42E8E0" points="100.243189 75.6312941 96.9368434 73.7223529 97.0924458 72.8 100.397145 74.7089412"></polygon>
                <polygon id="Fill-469" fill="#42E8E0" points="104.608865 78.1525294 101.303343 76.2435882 101.458122 75.3212353 104.763645 77.2301765"></polygon>
                <polygon id="Fill-471" fill="#42E8E0" points="121.433355 92.6146118 119.437693 91.4624941 119.593295 90.5401412 121.587311 91.6914353"></polygon>
                <polygon id="Fill-473" fill="#42E8E0" points="126.113365 95.3176 122.338566 93.1368941 122.493345 92.2145412 126.268145 94.3944235"></polygon>
                <polygon id="Fill-475" fill="#42E8E0" points="114.066281 88.3601765 110.760759 86.4512353 110.915538 85.5288824 114.22106 87.437"></polygon>
                <polygon id="Fill-477" fill="#42E8E0" points="118.432781 90.8818235 115.126436 88.9728824 115.281215 88.0497059 118.586737 89.9586471"></polygon>
                <polygon id="Fill-479" fill="#42E8E0" points="93.6327209 64.015 92.2891064 63.2392353 92.4438855 62.3160588 93.7866767 63.0926471"></polygon>
                <polygon id="Fill-481" fill="#42E8E0" points="97.9059418 66.4832 94.5995964 64.5742588 94.7551988 63.6519059 98.0598976 65.5608471"></polygon>
                <polygon id="Fill-483" fill="#42E8E0" points="102.271701 69.0044353 98.9661787 67.0954941 99.1209578 66.1731412 102.42648 68.0820824"></polygon>
                <path d="M142.322773,71.9567882 C142.161408,71.9567882 142.005805,71.9905529 141.862552,72.0589059 C141.469018,72.2442 141.188275,72.6773765 141.092773,73.2472588 L139.383616,83.4450235 C139.183556,84.6325529 139.807612,86.0523176 140.774159,86.6106706 L167.494139,102.041141 C167.912371,102.283259 168.337191,102.324435 168.691207,102.157259 C169.085564,101.971141 169.366307,101.537965 169.461809,100.967259 L171.170966,90.7694941 C171.370203,89.5827882 170.746147,88.1622 169.781247,87.6046706 L143.060444,72.1733765 C142.811809,72.0292588 142.560705,71.9567882 142.322773,71.9567882 M168.230986,102.634082 C167.929661,102.634082 167.614339,102.544318 167.306428,102.366435 L140.586448,86.9351412 C139.495584,86.3059647 138.790845,84.7116118 139.013135,83.3824353 L140.723114,73.1846706 C140.839199,72.4920824 141.196508,71.9576118 141.702833,71.7187882 C142.17211,71.4989059 142.7196,71.5442 143.248155,71.8480824 L169.968958,87.2802 C171.058175,87.9093765 171.763737,89.5029059 171.540624,90.8320824 L169.831468,101.029847 C169.71456,101.723259 169.358074,102.258553 168.851749,102.495729 C168.655805,102.587965 168.446689,102.634082 168.230986,102.634082" id="Fill-485" fill="#42E8E0"></path>
                <path d="M164.556546,119.566259 C164.973956,119.807553 165.398775,119.848729 165.753614,119.681553 C166.147972,119.495435 166.427892,119.062259 166.524217,118.490729 L168.233373,108.293788 C168.43261,107.106259 167.808554,105.686494 166.842831,105.128965 L140.122851,89.6968471 C139.704618,89.4555529 139.278976,89.4168471 138.924137,89.5823765 C138.531426,89.7676706 138.250683,90.2016706 138.156004,90.7715529 L136.445201,100.969318 C136.246787,102.156847 136.870843,103.577435 137.836566,104.135788 L164.556546,119.566259 Z M165.293394,120.158376 C164.990422,120.158376 164.676747,120.068612 164.368012,119.891553 L137.648032,104.459435 C136.558815,103.831082 135.854076,102.236729 136.075542,100.907553 L137.785522,90.7089647 C137.901606,90.0172 138.258916,89.4827294 138.764418,89.2439059 C139.235341,89.0223765 139.783655,89.0684941 140.311386,89.3723765 L167.031365,104.804494 C168.120582,105.433671 168.826145,107.026376 168.603032,108.356376 L166.893876,118.554141 C166.776968,119.246729 166.420482,119.7812 165.913333,120.020024 C165.718213,120.112259 165.508273,120.158376 165.293394,120.158376 L165.293394,120.158376 Z" id="Fill-487" fill="#42E8E0"></path>
                <path d="M142.987088,85.8372941 C143.460482,86.1098824 143.882008,86.0077647 144.03761,85.582 L147.152952,77.0650588 C147.509438,76.0932941 148.964197,76.972 149.271285,78.3456471 L151.189558,86.9169412 C151.330341,87.5428235 151.763394,88.1678824 152.256546,88.452 L152.714297,88.7171765 C153.159699,88.9741176 153.561466,88.9 153.736827,88.5285882 L154.37241,87.1829412 C154.76512,86.3495294 156.076627,87.136 156.434759,88.4198824 C156.599418,89.0128235 157.012711,89.5794118 157.472932,89.8462353 L157.873876,90.0768235 C158.359618,90.3576471 158.788554,90.2415294 158.9351,89.7918824 L159.513052,88.0138824 C159.839076,87.01 161.297952,87.8458824 161.632209,89.2285882 L163.552129,97.1624706 C163.703614,97.7858824 164.139137,98.3985882 164.627349,98.672 L142.987088,85.8372941 Z" id="Fill-489"></path>
                <path d="M161.245673,116.1258 C160.712179,115.826859 160.242902,115.172976 160.079066,114.496859 L158.159147,106.562976 C157.955793,105.718859 157.26999,105.068271 156.794127,105.050153 C156.607239,105.039447 156.471396,105.144035 156.400592,105.362271 L155.822641,107.140271 C155.740311,107.393094 155.580592,107.5718 155.36242,107.6558 C155.108845,107.752976 154.799287,107.709329 154.488906,107.5298 L154.089608,107.299212 C153.584106,107.006859 153.141998,106.403212 152.96252,105.760035 C152.736114,104.946388 152.098062,104.357565 151.644428,104.318859 C151.460833,104.300741 151.3324,104.3798 151.250894,104.553565 L150.616958,105.898388 C150.519809,106.105918 150.360914,106.249212 150.16003,106.310976 C149.910572,106.389212 149.625713,106.3398 149.329327,106.170153 L148.871576,105.904976 C148.331496,105.592859 147.867982,104.926624 147.715673,104.248035 L145.796576,95.6775647 C145.608042,94.8318 144.924709,94.1639176 144.438966,94.1318 C144.252902,94.1235647 144.113765,94.2141529 144.039669,94.4200353 L140.922681,102.936153 C140.836235,103.174976 140.677339,103.342976 140.463283,103.420388 C140.213002,103.513447 139.90756,103.464859 139.602942,103.289447 L139.790653,102.964976 C139.996476,103.083565 140.18995,103.122271 140.335673,103.067918 C140.442701,103.029212 140.521737,102.941094 140.571135,102.807682 L143.687299,94.2907412 C143.819849,93.9292118 144.109649,93.7258 144.462841,93.7579176 C145.095131,93.7990941 145.929127,94.5476824 146.163765,95.5952118 L148.082861,104.166506 C148.210472,104.740506 148.612239,105.321094 149.059287,105.579682 L149.517861,105.844859 C149.716275,105.959329 149.905633,105.995565 150.047239,105.952741 C150.148504,105.921447 150.22507,105.848976 150.277761,105.738624 L150.911697,104.394624 C151.060713,104.080859 151.339809,103.909565 151.675713,103.944976 C152.348343,104.0018 153.072018,104.756153 153.324769,105.659565 C153.475432,106.203918 153.858263,106.733447 154.276496,106.973918 L154.676616,107.204506 C154.886556,107.326388 155.0825,107.359329 155.2274,107.3058 C155.338544,107.262976 155.419227,107.168271 155.465331,107.024153 L156.044106,105.246153 C156.162661,104.881329 156.426938,104.675447 156.773544,104.675447 L156.808122,104.675447 C157.432179,104.699329 158.271114,105.428153 158.523865,106.474035 L160.443785,114.408741 C160.582098,114.979447 160.987982,115.550976 161.429267,115.798035 L161.245673,116.1258 Z" id="Fill-491" fill="#42E8E0"></path>
                <path d="M128.867857,45.5652235 C128.661211,45.5652235 128.459504,45.6039294 128.267677,45.6829882 C127.762998,45.8896941 127.390869,46.3475765 127.218801,46.9709882 C126.858199,48.2804 127.500367,49.8862824 128.651331,50.5516941 L149.542396,62.6155765 C150.074243,62.9235765 150.634082,62.9828706 151.124765,62.7802824 C151.629444,62.5744 152.002396,62.1165176 152.174464,61.4922824 C152.53589,60.1828706 151.893721,58.5769882 150.74111,57.9115765 L129.850046,45.8476941 C129.526492,45.6599294 129.191412,45.5652235 128.867857,45.5652235 M150.524584,63.2735765 C150.136813,63.2735765 149.737516,63.1615765 149.354685,62.9408706 L128.46362,50.8769882 C127.174343,50.1316941 126.453139,48.3347529 126.857376,46.8713412 C127.060729,46.1326353 127.511894,45.5874588 128.12607,45.3354588 C128.725428,45.0892235 129.403821,45.1559294 130.03858,45.5224 L150.929645,57.5871059 C152.218922,58.3324 152.940127,60.1293412 152.53589,61.5919294 C152.332536,62.3306353 151.881371,62.8758118 151.267195,63.1278118 C151.029263,63.2249882 150.778982,63.2735765 150.524584,63.2735765" id="Fill-493" fill="#42E8E0"></path>
            </g>
        </g>
    </g>
</svg>
