<!-- <svg width="570" height="648" viewBox="0 0 570 648" fill="none" xmlns="http://www.w3.org/2000/svg" xmlns:xlink="http://www.w3.org/1999/xlink">
<path fill-rule="evenodd" clip-rule="evenodd" d="M324.105 1.88809C311.14 4.1747 298.068 8.55844 285 15.3192C128.109 96.2807 0 166.821 0 324.476C0 463.486 91.9664 622.205 200.271 645.183C224.714 650.372 249.986 648.594 275.219 638.168C276.032 637.832 276.831 637.518 277.643 637.169C279.43 636.39 281.208 635.563 282.978 634.693C283.076 634.641 283.179 634.598 283.277 634.547C283.854 634.271 284.427 634.026 285 633.737C433.132 558.929 570 497.897 570 324.476C570 163.949 452.347 -20.7153 324.105 1.88809Z" fill="#263958"/>
<mask id="mask0" mask-type="alpha" maskUnits="userSpaceOnUse" x="0" y="32" width="532" height="605">
    <path fill-rule="evenodd" clip-rule="evenodd" d="M302.102 34.4226C290.017 36.553 277.832 40.6374 265.651 46.9365C119.412 122.369 0 188.092 0 334.981C0 464.497 85.7228 612.376 186.674 633.785C209.454 638.62 233.014 636.963 256.535 627.249C257.292 626.936 258.037 626.644 258.794 626.319C260.46 625.592 262.117 624.822 263.767 624.012C263.858 623.963 263.954 623.923 264.046 623.875C264.583 623.618 265.117 623.39 265.651 623.121C403.727 553.422 531.303 496.558 531.303 334.981C531.303 185.416 421.637 13.3628 302.102 34.4226Z" fill="white"/>
</mask>
<g mask="url(#mask0)">
    <rect y="32.6634" width="570" height="603.746" fill="url(#pattern0)"/>
</g>
<defs>
    <pattern id="pattern0" patternContentUnits="objectBoundingBox" width="1" height="1">
        <use xlink:href="#image0" transform="translate(-0.663605 -0.0122133) scale(0.000312405)"/>
    </pattern>
</defs>
</svg> -->

<svg 
    width="570" 
    height="648" 
    viewBox="0 0 570 648"
    xmlns="http://www.w3.org/2000/svg" 
    xmlns:xlink="http://www.w3.org/1999/xlink"
    >
  <g fill="none" fill-rule="evenodd">
    <mask id="mask0" mask-type="alpha" maskUnits="userSpaceOnUse" x="0" y="32" width="532" height="605">
        <path fill-rule="evenodd" clip-rule="evenodd" d="M302.102 34.4226C290.017 36.553 277.832 40.6374 265.651 46.9365C119.412 122.369 0 188.092 0 334.981C0 464.497 85.7228 612.376 186.674 633.785C209.454 638.62 233.014 636.963 256.535 627.249C257.292 626.936 258.037 626.644 258.794 626.319C260.46 625.592 262.117 624.822 263.767 624.012C263.858 623.963 263.954 623.923 264.046 623.875C264.583 623.618 265.117 623.39 265.651 623.121C403.727 553.422 531.303 496.558 531.303 334.981C531.303 185.416 421.637 13.3628 302.102 34.4226Z" fill="white"/>
    </mask>
    </g>
</svg>