<svg width="16" height="16" viewBox="0 0 16 16" fill="none" xmlns="http://www.w3.org/2000/svg">
<path d="M11.3334 1.33337H4.66671C2.82576 1.33337 1.33337 2.82576 1.33337 4.66671V11.3334C1.33337 13.1743 2.82576 14.6667 4.66671 14.6667H11.3334C13.1743 14.6667 14.6667 13.1743 14.6667 11.3334V4.66671C14.6667 2.82576 13.1743 1.33337 11.3334 1.33337Z" stroke="white" stroke-linecap="round" stroke-linejoin="round"/>
<path d="M10.6668 7.57983C10.7491 8.13467 10.6543 8.70131 10.396 9.19918C10.1376 9.69704 9.72889 10.1008 9.22788 10.353C8.72687 10.6051 8.1591 10.6929 7.60532 10.6038C7.05155 10.5147 6.53997 10.2532 6.14336 9.85661C5.74674 9.45999 5.48528 8.94842 5.39618 8.39464C5.30707 7.84087 5.39484 7.2731 5.64701 6.77208C5.89919 6.27107 6.30292 5.86233 6.80079 5.604C7.29865 5.34566 7.8653 5.25089 8.42013 5.33317C8.98608 5.41709 9.51003 5.68081 9.91459 6.08537C10.3192 6.48993 10.5829 7.01389 10.6668 7.57983Z" stroke="white" stroke-linecap="round" stroke-linejoin="round"/>
<path d="M11.6666 4.33337H11.6741" stroke="white" stroke-width="1.33333" stroke-linecap="round" stroke-linejoin="round"/>
</svg>
