<svg width="16" height="16" viewBox="0 0 16 16" fill="none" xmlns="http://www.w3.org/2000/svg">
<path d="M11.3333 1.33331H4.66658C2.82564 1.33331 1.33325 2.8257 1.33325 4.66665V11.3333C1.33325 13.1743 2.82564 14.6666 4.66658 14.6666H11.3333C13.1742 14.6666 14.6666 13.1743 14.6666 11.3333V4.66665C14.6666 2.8257 13.1742 1.33331 11.3333 1.33331Z" stroke="#7AC7C4" stroke-linecap="round" stroke-linejoin="round"/>
<path d="M10.6668 7.5799C10.7491 8.13473 10.6543 8.70137 10.396 9.19924C10.1376 9.69711 9.72889 10.1008 9.22788 10.353C8.72687 10.6052 8.1591 10.693 7.60532 10.6039C7.05155 10.5147 6.53997 10.2533 6.14336 9.85667C5.74674 9.46006 5.48528 8.94848 5.39618 8.3947C5.30707 7.84093 5.39484 7.27316 5.64701 6.77215C5.89919 6.27113 6.30292 5.86239 6.80079 5.60406C7.29865 5.34572 7.8653 5.25095 8.42013 5.33323C8.98608 5.41715 9.51003 5.68087 9.91459 6.08543C10.3192 6.49 10.5829 7.01395 10.6668 7.5799Z" stroke="#7AC7C4" stroke-linecap="round" stroke-linejoin="round"/>
<path d="M11.6667 4.33331H11.6742" stroke="#7AC7C4" stroke-width="1.33333" stroke-linecap="round" stroke-linejoin="round"/>
</svg>
