<svg width="16" height="16" viewBox="0 0 16 16" fill="none" xmlns="http://www.w3.org/2000/svg">
<path d="M10.6667 5.33331C11.7276 5.33331 12.745 5.75474 13.4952 6.50489C14.2453 7.25503 14.6667 8.27245 14.6667 9.33331V14H12.0001V9.33331C12.0001 8.97969 11.8596 8.64055 11.6096 8.3905C11.3595 8.14046 11.0204 7.99998 10.6667 7.99998C10.3131 7.99998 9.97399 8.14046 9.72394 8.3905C9.47389 8.64055 9.33341 8.97969 9.33341 9.33331V14H6.66675V9.33331C6.66675 8.27245 7.08818 7.25503 7.83832 6.50489C8.58847 5.75474 9.60588 5.33331 10.6667 5.33331V5.33331Z" stroke="#7AC7C4" stroke-linecap="round" stroke-linejoin="round"/>
<path d="M3.99992 6H1.33325V14H3.99992V6Z" stroke="#7AC7C4" stroke-linecap="round" stroke-linejoin="round"/>
<path d="M2.66659 3.99998C3.40297 3.99998 3.99992 3.40303 3.99992 2.66665C3.99992 1.93027 3.40297 1.33331 2.66659 1.33331C1.93021 1.33331 1.33325 1.93027 1.33325 2.66665C1.33325 3.40303 1.93021 3.99998 2.66659 3.99998Z" stroke="#7AC7C4" stroke-linecap="round" stroke-linejoin="round"/>
</svg>
