<svg width="16" height="16" viewBox="0 0 16 16" fill="none" xmlns="http://www.w3.org/2000/svg">
<path d="M10.6666 5.33337C11.7275 5.33337 12.7449 5.7548 13.4951 6.50495C14.2452 7.25509 14.6666 8.27251 14.6666 9.33337V14H12V9.33337C12 8.97975 11.8595 8.64061 11.6094 8.39057C11.3594 8.14052 11.0202 8.00004 10.6666 8.00004C10.313 8.00004 9.97387 8.14052 9.72382 8.39057C9.47377 8.64061 9.33329 8.97975 9.33329 9.33337V14H6.66663V9.33337C6.66663 8.27251 7.08805 7.25509 7.8382 6.50495C8.58834 5.7548 9.60576 5.33337 10.6666 5.33337V5.33337Z" stroke="white" stroke-linecap="round" stroke-linejoin="round"/>
<path d="M4.00004 6H1.33337V14H4.00004V6Z" stroke="white" stroke-linecap="round" stroke-linejoin="round"/>
<path d="M2.66671 4.00004C3.40309 4.00004 4.00004 3.40309 4.00004 2.66671C4.00004 1.93033 3.40309 1.33337 2.66671 1.33337C1.93033 1.33337 1.33337 1.93033 1.33337 2.66671C1.33337 3.40309 1.93033 4.00004 2.66671 4.00004Z" stroke="white" stroke-linecap="round" stroke-linejoin="round"/>
</svg>
