<svg width="169" height="54" viewBox="0 0 169 54" fill="none" xmlns="http://www.w3.org/2000/svg">
<path fill-rule="evenodd" clip-rule="evenodd" d="M75.759 28.1425C73.5358 32.4804 70.0047 34.9388 64.9663 34.9388C58.498 34.9388 53.2986 30.2132 53.2986 23.5348C53.2986 17.6746 58.5358 12.5186 64.9663 12.5186C69.7263 12.5186 73.9731 15.1338 75.759 19.5106H72.7029C71.0742 16.5393 68.1795 14.9773 65.0436 14.9773C60.043 14.9773 56.0763 18.8409 56.0763 23.6875C56.0763 28.6127 60.0052 32.4804 65.0436 32.4804C68.3364 32.4804 71.154 30.9921 72.7029 28.1425H75.759Z" fill="#263958"/>
<path fill-rule="evenodd" clip-rule="evenodd" d="M97.1375 23.6094C97.1375 18.9627 93.3279 14.9774 88.528 14.9774C83.8078 14.9774 79.9983 18.9978 79.9983 23.8406C79.9983 28.5342 83.8435 32.4805 88.5675 32.4805C93.4473 32.4805 97.1375 28.4953 97.1375 23.6094ZM77.2202 23.8833C77.2202 17.5922 82.3762 12.5186 88.528 12.5186C94.8348 12.5186 99.9131 17.7529 99.9131 23.7268C99.9131 29.9396 94.6402 34.9388 88.528 34.9388C82.3762 34.9388 77.2202 29.8179 77.2202 23.8833Z" fill="#263958"/>
<path fill-rule="evenodd" clip-rule="evenodd" d="M121.856 23.7657C121.856 18.9977 118.087 14.9773 113.123 14.9773C108.045 14.9773 104.276 18.7626 104.276 23.8011C104.276 28.6863 108.006 32.4804 113.164 32.4804C117.967 32.4804 121.856 28.6123 121.856 23.7657ZM121.693 34.4293V30.6791H121.618C119.709 33.4508 116.536 34.9388 113.164 34.9388C106.658 34.9388 101.5 30.0918 101.5 23.6874C101.5 17.2827 106.816 12.5185 113.164 12.5185C116.536 12.5185 119.749 14.0805 121.618 16.7346H121.693V5.52295H124.473V34.4293H121.693Z" fill="#263958"/>
<path fill-rule="evenodd" clip-rule="evenodd" d="M146.051 22.2821C145.259 17.9839 141.807 14.9771 137.521 14.9771C133.472 14.9771 129.862 17.8663 129.11 22.2821H146.051ZM129.11 24.7404C129.349 28.9993 133.317 32.4801 137.521 32.4801C140.897 32.4801 144.11 30.5617 145.299 27.4415H148.238C146.567 32.0496 142.201 34.9385 137.56 34.9385C131.409 34.9385 126.255 30.0133 126.255 23.7657C126.255 17.5567 131.448 12.5186 137.521 12.5186C144.03 12.5186 148.906 18.0227 148.906 23.9222C148.906 24.1962 148.866 24.4702 148.866 24.7404H129.11Z" fill="#263958"/>
<path fill-rule="evenodd" clip-rule="evenodd" d="M46.2798 21.1331C42.6529 7.3138 27.0128 -5.89037 17.1346 2.76486C6.24257 12.2856 -2.55766 20.405 0.679288 32.7367C4.25815 46.3717 20.0614 59.4896 29.8241 51.1122C40.1397 42.2494 49.8389 34.694 46.2798 21.1331Z" fill="#263958"/>
<mask id="mask0" mask-type="alpha" maskUnits="userSpaceOnUse" x="4" y="1" width="48" height="53">
<path fill-rule="evenodd" clip-rule="evenodd" d="M4.02979 1.44971H51.1294V53.7775H4.02979V1.44971Z" fill="white"/>
</mask>
<g mask="url(#mask0)">
<path fill-rule="evenodd" clip-rule="evenodd" d="M51.1294 27.6526C51.1294 13.3795 39.3423 -3.25846 27.5796 2.68833C14.6156 9.22591 4.02979 14.9217 4.02979 27.6526C4.02979 41.7379 15.9956 58.3289 27.5796 52.6245C39.8198 46.5841 51.1294 41.6558 51.1294 27.6526Z" fill="#F73859"/>
</g>
<path fill-rule="evenodd" clip-rule="evenodd" d="M35.9067 28.4553C35.9067 29.3166 35.5884 30.0604 34.948 30.679C34.3157 31.2976 33.5563 31.6105 32.6775 31.6105H29.4444V18.9464C29.4444 18.0774 29.7623 17.3295 30.395 16.7032C31.0311 16.0808 31.7944 15.7755 32.6775 15.7793C33.5563 15.7793 34.3157 16.0926 34.948 16.7112C35.5884 17.3295 35.9067 18.0774 35.9067 18.9464V28.4553ZM40.4478 14.468C39.1794 13.2151 37.6683 12.5889 35.9067 12.5889H32.6776H29.4445H24.6488C23.746 12.5889 23.0183 13.3052 23.0183 14.194V47.344H23.0381H26.2471C27.1143 47.344 27.8656 47.0387 28.4979 46.4281C29.1344 45.8133 29.4445 45.0813 29.4445 44.2239V38.1481V34.7856H35.9067C37.6683 34.7856 39.1794 34.1669 40.4478 32.9259C41.7127 31.6772 42.3411 30.1935 42.3411 28.4552V18.9463C42.3411 17.2122 41.7127 15.7167 40.4478 14.468Z" fill="white"/>
<path fill-rule="evenodd" clip-rule="evenodd" d="M54.5571 45.748C54.5571 45.3404 54.6288 44.9548 54.7719 44.5907C54.9153 44.2274 55.1149 43.9123 55.3713 43.6453C55.627 43.3779 55.9326 43.1664 56.2865 43.011C56.6404 42.8549 57.0286 42.7773 57.4507 42.7773C57.9859 42.7773 58.4567 42.8956 58.8636 43.1331C59.2709 43.3709 59.5757 43.7002 59.7792 44.1234L59.2253 44.3014C59.0523 43.9829 58.805 43.7322 58.485 43.5503C58.1646 43.3688 57.8124 43.2777 57.4281 43.2777C57.1042 43.2777 56.8026 43.341 56.5239 43.4665C56.2448 43.5931 56.0022 43.7677 55.7948 43.9895C55.5875 44.2124 55.4236 44.4739 55.3031 44.7747C55.1827 45.0748 55.1226 45.3995 55.1226 45.748C55.1226 46.0971 55.1845 46.425 55.3088 46.7327C55.4331 47.0411 55.5988 47.3079 55.8061 47.5342C56.0135 47.7602 56.2583 47.9404 56.5408 48.0732C56.8234 48.2071 57.1233 48.2738 57.4394 48.2738C57.6429 48.2738 57.8446 48.2446 58.0442 48.1848C58.2441 48.1257 58.4285 48.0475 58.598 47.9511C58.7676 47.8548 58.9145 47.7418 59.0388 47.6114C59.1632 47.4817 59.2479 47.3468 59.2932 47.2053L59.8474 47.3617C59.7718 47.562 59.657 47.7495 59.5023 47.9233C59.3479 48.0979 59.1649 48.2478 58.9541 48.3743C58.7432 48.5005 58.5093 48.5983 58.2533 48.6688C57.9968 48.7398 57.7333 48.7749 57.4624 48.7749C57.0477 48.7749 56.6634 48.6949 56.3091 48.5353C55.9548 48.3764 55.6479 48.157 55.3883 47.8792C55.1279 47.6006 54.9245 47.28 54.7775 46.916C54.6306 46.5526 54.5571 46.1635 54.5571 45.748Z" fill="#263958"/>
<path fill-rule="evenodd" clip-rule="evenodd" d="M61.2261 45.8036C61.2261 46.1451 61.2862 46.4657 61.407 46.7661C61.5274 47.0669 61.6909 47.3284 61.8983 47.5502C62.1056 47.7731 62.3487 47.9498 62.6277 48.0795C62.9064 48.2092 63.2042 48.2739 63.5206 48.2739C63.8371 48.2739 64.1346 48.2092 64.4132 48.0795C64.6923 47.9498 64.9371 47.7697 65.1483 47.5395C65.3588 47.31 65.5248 47.0443 65.6456 46.7442C65.7661 46.4434 65.8261 46.1187 65.8261 45.7702C65.8261 45.4295 65.7661 45.1082 65.6456 44.8081C65.5248 44.507 65.3588 44.2444 65.1483 44.0174C64.9371 43.7913 64.6941 43.6112 64.4193 43.4784C64.1441 43.3445 63.8484 43.2777 63.5316 43.2777C63.2155 43.2777 62.9177 43.3445 62.639 43.4784C62.36 43.6112 62.1169 43.7934 61.9099 44.0236C61.7026 44.2531 61.5369 44.5219 61.4123 44.8296C61.2883 45.1381 61.2261 45.4628 61.2261 45.8036ZM63.5317 48.7749C63.1173 48.7749 62.7348 48.6946 62.3844 48.535C62.0343 48.3761 61.7309 48.1587 61.4748 47.8844C61.2187 47.61 61.0188 47.2908 60.8758 46.9274C60.7327 46.5644 60.6606 46.1819 60.6606 45.7813C60.6606 45.3738 60.7341 44.9878 60.8811 44.6238C61.028 44.2607 61.2297 43.9419 61.4858 43.6668C61.7422 43.3925 62.0453 43.1758 62.396 43.0162C62.7464 42.8566 63.1251 42.7773 63.5317 42.7773C63.9389 42.7773 64.3155 42.8566 64.6623 43.0162C65.0088 43.1758 65.3119 43.3925 65.5722 43.6668C65.8322 43.9419 66.0353 44.2607 66.1822 44.6238C66.3292 44.9878 66.4027 45.3738 66.4027 45.7813C66.4027 46.1819 66.3292 46.5644 66.1822 46.9274C66.0353 47.2908 65.834 47.61 65.5775 47.8844C65.3214 48.1587 65.018 48.3761 64.668 48.535C64.3176 48.6946 63.9389 48.7749 63.5317 48.7749Z" fill="#263958"/>
<path fill-rule="evenodd" clip-rule="evenodd" d="M76.3954 48.6632H75.8299V45.4359C75.8299 44.7015 75.7151 44.1605 75.4855 43.8113C75.2552 43.4629 74.903 43.2884 74.4286 43.2884C74.1874 43.2884 73.9578 43.3332 73.7388 43.4222C73.5201 43.5113 73.3209 43.6354 73.1397 43.795C72.9589 43.9546 72.8027 44.1434 72.671 44.3621C72.5389 44.5816 72.4354 44.8239 72.3598 45.091V48.6632H71.795V45.4359C71.795 44.6942 71.6816 44.1507 71.4559 43.8058C71.2298 43.4608 70.8794 43.2884 70.4047 43.2884C70.1631 43.2884 69.9356 43.3311 69.7209 43.4167C69.5061 43.5015 69.3083 43.6246 69.1274 43.7835C68.9466 43.9431 68.7862 44.1326 68.6467 44.3514C68.5075 44.5701 68.3998 44.8131 68.3246 45.0798V48.6632H67.7598V42.8767H68.291V44.2568C68.5319 43.7894 68.8484 43.4261 69.2405 43.166C69.6322 42.9066 70.0656 42.7769 70.5403 42.7769C71.0377 42.7769 71.4407 42.9215 71.7498 43.2108C72.0585 43.5001 72.2432 43.8785 72.3036 44.3458C72.861 43.2998 73.6296 42.7769 74.6091 42.7769C75.2499 42.7769 75.7077 43.0011 75.9828 43.4501C76.2576 43.899 76.3954 44.5277 76.3954 45.3361V48.6632Z" fill="#263958"/>
<path fill-rule="evenodd" clip-rule="evenodd" d="M80.8371 48.2739C81.1762 48.2739 81.4849 48.204 81.764 48.0628C82.0426 47.922 82.28 47.7346 82.476 47.5009C82.6717 47.2672 82.8226 46.9998 82.9282 46.6997C83.0338 46.3993 83.0864 46.0933 83.0864 45.7814C83.0864 45.4479 83.0257 45.1308 82.9052 44.83C82.7851 44.5296 82.6173 44.265 82.4026 44.0348C82.1878 43.8049 81.937 43.621 81.6509 43.484C81.3645 43.3466 81.0593 43.2781 80.7354 43.2781C80.5319 43.2781 80.315 43.3209 80.0854 43.4057C79.8555 43.4913 79.6386 43.606 79.4355 43.7507C79.232 43.8953 79.0586 44.0605 78.9156 44.2458C78.7721 44.4312 78.6895 44.6283 78.6665 44.8359V46.7383C78.7647 46.9536 78.8887 47.1539 79.0399 47.3392C79.1904 47.5249 79.3599 47.6883 79.5485 47.8291C79.7368 47.9703 79.9403 48.0795 80.1589 48.157C80.3772 48.2353 80.6033 48.2739 80.8371 48.2739ZM80.9728 48.7749C80.4677 48.7749 80.0177 48.6431 79.6221 48.3799C79.2261 48.1163 78.9079 47.7957 78.6666 47.4174V51.0337H78.1018V42.8771H78.6218V44.0347C78.8627 43.6637 79.1813 43.3615 79.5769 43.1279C79.9725 42.8942 80.3963 42.7773 80.8485 42.7773C81.2554 42.7773 81.6319 42.8622 81.9784 43.0329C82.3253 43.204 82.6231 43.4279 82.8717 43.7065C83.1204 43.9843 83.3143 44.3056 83.4539 44.669C83.5934 45.0323 83.663 45.403 83.663 45.7813C83.663 46.1819 83.5987 46.5644 83.4708 46.9278C83.3426 47.2912 83.16 47.6104 82.9223 47.8847C82.6849 48.1591 82.4005 48.3764 82.0689 48.5353C81.7375 48.6949 81.3723 48.7749 80.9728 48.7749Z" fill="#263958"/>
<path fill-rule="evenodd" clip-rule="evenodd" d="M85.0645 40.54H85.6409V47.5168C85.6409 47.7324 85.7031 47.9028 85.8274 48.029C85.9518 48.1552 86.1231 48.2178 86.3417 48.2178C86.4247 48.2178 86.5243 48.2091 86.6412 48.19C86.7582 48.1716 86.8655 48.1437 86.9634 48.1072L87.0764 48.552C86.9482 48.6034 86.79 48.6462 86.6017 48.6796C86.4131 48.713 86.2513 48.73 86.1156 48.73C85.7992 48.73 85.5448 48.6354 85.3527 48.4459C85.1605 48.2571 85.0645 48.0033 85.0645 47.6841V40.54Z" fill="#263958"/>
<path fill-rule="evenodd" clip-rule="evenodd" d="M92.75 45.5472C92.7277 45.2064 92.6504 44.8945 92.5186 44.6125C92.3865 44.3308 92.217 44.0878 92.0096 43.884C91.8023 43.6802 91.5635 43.5206 91.2919 43.4052C91.0206 43.2904 90.7306 43.2327 90.4216 43.2327C90.1125 43.2327 89.8225 43.2904 89.5512 43.4052C89.2803 43.5206 89.0408 43.6802 88.8335 43.884C88.6261 44.0878 88.4605 44.3329 88.3361 44.618C88.2118 44.9039 88.1383 45.2137 88.1157 45.5472H92.75ZM90.4446 48.7744C90.0299 48.7744 89.6456 48.6944 89.2913 48.5348C88.937 48.3759 88.6301 48.1565 88.3704 47.8787C88.1101 47.6001 87.9067 47.2795 87.7597 46.9158C87.6128 46.5525 87.5393 46.163 87.5393 45.7475C87.5393 45.3399 87.6128 44.9557 87.7597 44.5958C87.9067 44.2363 88.108 43.9212 88.3644 43.6503C88.6209 43.3795 88.9239 43.166 89.2743 43.0105C89.6247 42.8544 90.0037 42.7769 90.4103 42.7769C90.8246 42.7769 91.2093 42.8565 91.5636 43.0161C91.9175 43.1757 92.2227 43.3909 92.4788 43.6611C92.7348 43.932 92.9344 44.2474 93.0782 44.6073C93.2209 44.9672 93.2926 45.3469 93.2926 45.7475V45.8869C93.2926 45.9425 93.2887 45.9777 93.2813 45.9926H88.1271C88.15 46.3261 88.2288 46.6359 88.3644 46.9217C88.5004 47.2069 88.6714 47.4541 88.8787 47.6613C89.0861 47.8693 89.3256 48.032 89.5965 48.1509C89.8677 48.2699 90.1577 48.329 90.4668 48.329C90.6703 48.329 90.8702 48.3012 91.0659 48.2455C91.2619 48.1899 91.4449 48.1144 91.6141 48.0174C91.784 47.9214 91.9341 47.8046 92.0662 47.6669C92.1983 47.5296 92.3014 47.3797 92.377 47.2166L92.8747 47.3498C92.7914 47.5574 92.6692 47.749 92.5074 47.9228C92.3452 48.0974 92.1566 48.2476 91.9419 48.3738C91.7271 48.5001 91.4915 48.5978 91.2354 48.6687C90.979 48.7393 90.7155 48.7744 90.4446 48.7744Z" fill="#263958"/>
<path fill-rule="evenodd" clip-rule="evenodd" d="M94.2538 42.877L96.1527 45.2696L96.2431 45.4251L96.3339 45.2696L98.2212 42.877H98.8541L96.5713 45.7812L98.8428 48.6634H98.2212L96.3339 46.2822L96.2431 46.1376L96.1527 46.2822L94.2651 48.6634H93.6434L95.9153 45.7812L93.6321 42.877H94.2538Z" fill="#263958"/>
<path fill-rule="evenodd" clip-rule="evenodd" d="M111.468 48.6632H110.903V45.4359C110.903 44.7015 110.788 44.1605 110.558 43.8113C110.328 43.4629 109.976 43.2884 109.501 43.2884C109.26 43.2884 109.031 43.3332 108.812 43.4222C108.593 43.5113 108.394 43.6354 108.212 43.795C108.032 43.9546 107.875 44.1434 107.744 44.3621C107.612 44.5816 107.508 44.8239 107.433 45.091V48.6632H106.868V45.4359C106.868 44.6942 106.754 44.1507 106.529 43.8058C106.303 43.4608 105.952 43.2884 105.477 43.2884C105.236 43.2884 105.008 43.3311 104.794 43.4167C104.579 43.5015 104.381 43.6246 104.2 43.7835C104.019 43.9431 103.859 44.1326 103.719 44.3514C103.58 44.5701 103.473 44.8131 103.397 45.0798V48.6632H102.833V42.8767H103.364V44.2568C103.605 43.7894 103.921 43.4261 104.313 43.166C104.705 42.9066 105.138 42.7769 105.613 42.7769C106.11 42.7769 106.513 42.9215 106.823 43.2108C107.131 43.5001 107.316 43.8784 107.376 44.3458C107.934 43.2998 108.702 42.7769 109.682 42.7769C110.323 42.7769 110.78 43.0011 111.056 43.4501C111.33 43.899 111.468 44.5277 111.468 45.3361V48.6632Z" fill="#263958"/>
<path fill-rule="evenodd" clip-rule="evenodd" d="M114.735 48.3289C115.172 48.3289 115.573 48.2475 115.939 48.0845C116.304 47.9214 116.585 47.7061 116.781 47.4391C116.901 47.2829 116.962 47.1348 116.962 46.9936V45.9703C116.69 45.8663 116.408 45.7881 116.114 45.7366C115.82 45.6845 115.515 45.6584 115.198 45.6584C114.904 45.6584 114.637 45.6904 114.396 45.753C114.154 45.8159 113.948 45.9035 113.774 46.0145C113.601 46.1257 113.467 46.2617 113.373 46.4206C113.279 46.5802 113.232 46.7568 113.232 46.9495C113.232 47.1425 113.269 47.3236 113.344 47.4944C113.42 47.6654 113.525 47.8115 113.661 47.9342C113.797 48.0566 113.957 48.153 114.141 48.2235C114.326 48.2941 114.524 48.3289 114.735 48.3289ZM114.622 48.7744C114.351 48.7744 114.098 48.7275 113.864 48.6353C113.631 48.5421 113.425 48.4166 113.248 48.257C113.071 48.0974 112.934 47.9079 112.836 47.6892C112.738 47.4704 112.689 47.235 112.689 46.9829C112.689 46.7308 112.749 46.5006 112.87 46.2931C112.99 46.0851 113.158 45.905 113.373 45.753C113.588 45.6014 113.845 45.4825 114.147 45.397C114.448 45.3121 114.78 45.2693 115.142 45.2693C115.458 45.2693 115.776 45.2972 116.097 45.3528C116.417 45.4081 116.705 45.4846 116.962 45.5806V45.0134C116.962 44.4647 116.803 44.0287 116.487 43.706C116.17 43.3833 115.741 43.2216 115.198 43.2216C114.912 43.2216 114.609 43.2814 114.288 43.3996C113.968 43.5186 113.642 43.6889 113.311 43.9118L113.096 43.5335C113.849 43.029 114.565 42.7769 115.243 42.7769C115.952 42.7769 116.509 42.9785 116.916 43.3833C117.323 43.7873 117.527 44.3458 117.527 45.0576V47.8842C117.527 48.0696 117.61 48.1621 117.775 48.1621V48.6631C117.738 48.6704 117.698 48.676 117.656 48.6795C117.615 48.6837 117.579 48.6854 117.549 48.6854C117.398 48.6854 117.278 48.6353 117.188 48.5348C117.097 48.435 117.044 48.314 117.029 48.1735V47.6947C116.758 48.0438 116.411 48.3106 115.989 48.4959C115.567 48.6816 115.111 48.7744 114.622 48.7744Z" fill="#263958"/>
<path fill-rule="evenodd" clip-rule="evenodd" d="M121.765 48.2734C121.969 48.2734 122.187 48.2327 122.421 48.151C122.655 48.0696 122.871 47.9563 123.071 47.8116C123.27 47.667 123.442 47.5018 123.585 47.3165C123.728 47.1311 123.811 46.9308 123.834 46.716V44.8132C123.751 44.6053 123.632 44.4071 123.478 44.2175C123.323 44.0287 123.148 43.8657 122.952 43.728C122.756 43.5906 122.545 43.4814 122.319 43.3997C122.093 43.3183 121.875 43.2776 121.663 43.2776C121.324 43.2776 121.015 43.3496 120.737 43.4943C120.458 43.6389 120.22 43.8284 120.024 44.0621C119.829 44.2958 119.678 44.5625 119.572 44.8633C119.467 45.1637 119.414 45.4732 119.414 45.7924C119.414 46.1259 119.474 46.4416 119.595 46.7379C119.715 47.0345 119.883 47.298 120.098 47.5282C120.313 47.7581 120.561 47.9399 120.844 48.0731C121.126 48.207 121.434 48.2734 121.765 48.2734ZM121.663 48.7745C121.257 48.7745 120.88 48.6911 120.533 48.5242C120.186 48.3569 119.887 48.1351 119.635 47.8565C119.382 47.578 119.186 47.2595 119.047 46.8996C118.907 46.5397 118.838 46.1666 118.838 45.781C118.838 45.3804 118.905 44.9986 119.041 44.6352C119.177 44.2718 119.365 43.9526 119.606 43.6783C119.847 43.4039 120.132 43.1845 120.46 43.0214C120.787 42.8587 121.147 42.777 121.539 42.777C121.795 42.777 122.037 42.8138 122.263 42.8879C122.489 42.9626 122.7 43.0604 122.895 43.1831C123.092 43.3055 123.269 43.4481 123.427 43.6111C123.585 43.7746 123.721 43.9491 123.834 44.1341V40.54H124.399V47.8843C124.399 48.0697 124.478 48.1622 124.636 48.1622V48.6632C124.591 48.6709 124.554 48.6761 124.524 48.6796C124.493 48.6838 124.463 48.6858 124.433 48.6858C124.282 48.6858 124.154 48.6281 124.048 48.513C123.943 48.3976 123.891 48.2776 123.891 48.151V47.506C123.649 47.8916 123.327 48.1994 122.924 48.4296C122.521 48.6591 122.1 48.7745 121.663 48.7745Z" fill="#263958"/>
<path fill-rule="evenodd" clip-rule="evenodd" d="M131 45.5472C130.977 45.2064 130.9 44.8945 130.768 44.6125C130.636 44.3308 130.467 44.0878 130.259 43.884C130.052 43.6802 129.813 43.5206 129.541 43.4052C129.27 43.2904 128.98 43.2327 128.671 43.2327C128.362 43.2327 128.072 43.2904 127.801 43.4052C127.53 43.5206 127.29 43.6802 127.083 43.884C126.876 44.0878 126.71 44.3329 126.586 44.618C126.461 44.9039 126.388 45.2137 126.365 45.5472H131ZM128.694 48.7744C128.279 48.7744 127.895 48.6944 127.541 48.5348C127.187 48.3759 126.88 48.1565 126.62 47.8787C126.36 47.6002 126.156 47.2795 126.009 46.9158C125.862 46.5525 125.789 46.163 125.789 45.7475C125.789 45.3399 125.862 44.9557 126.009 44.5958C126.156 44.2363 126.358 43.9212 126.614 43.6503C126.87 43.3795 127.173 43.166 127.524 43.0105C127.874 42.8544 128.253 42.7769 128.66 42.7769C129.074 42.7769 129.459 42.8565 129.813 43.0161C130.167 43.1757 130.472 43.3909 130.728 43.6611C130.984 43.932 131.184 44.2474 131.328 44.6073C131.47 44.9672 131.542 45.3469 131.542 45.7475V45.8869C131.542 45.9425 131.538 45.9777 131.531 45.9926H126.377C126.4 46.3261 126.478 46.6359 126.614 46.9217C126.75 47.2069 126.921 47.4541 127.128 47.6614C127.336 47.8693 127.575 48.032 127.846 48.1509C128.117 48.2699 128.407 48.329 128.716 48.329C128.92 48.329 129.12 48.3012 129.315 48.2455C129.511 48.1899 129.694 48.1144 129.864 48.0174C130.034 47.9214 130.184 47.8046 130.316 47.6669C130.448 47.5296 130.551 47.3797 130.627 47.2166L131.124 47.3498C131.041 47.5574 130.919 47.749 130.757 47.9228C130.595 48.0974 130.406 48.2476 130.191 48.3738C129.977 48.5001 129.741 48.5978 129.485 48.6687C129.229 48.7393 128.965 48.7744 128.694 48.7744Z" fill="#263958"/>
<path fill-rule="evenodd" clip-rule="evenodd" d="M137.555 48.7749C137.103 48.7749 136.669 48.7001 136.255 48.552C135.841 48.4042 135.479 48.1813 135.17 47.8844L135.453 47.5064C135.769 47.7881 136.097 47.996 136.436 48.1292C136.775 48.2627 137.148 48.3295 137.555 48.3295C138.068 48.3295 138.48 48.2241 138.793 48.0123C139.106 47.8009 139.262 47.5064 139.262 47.1281C139.262 46.95 139.223 46.7991 139.143 46.6771C139.064 46.5547 138.946 46.4507 138.787 46.3652C138.629 46.2803 138.433 46.2042 138.199 46.1378C137.966 46.0706 137.695 46.0004 137.386 45.926C137.054 45.8519 136.766 45.7779 136.521 45.7038C136.276 45.6297 136.075 45.54 135.916 45.436C135.758 45.3331 135.639 45.2065 135.56 45.0581C135.481 44.9099 135.442 44.7204 135.442 44.4909C135.442 44.2016 135.498 43.9495 135.611 43.7343C135.724 43.519 135.88 43.341 136.08 43.1998C136.28 43.0593 136.51 42.9533 136.769 42.8827C137.03 42.8128 137.307 42.7773 137.601 42.7773C138.06 42.7773 138.467 42.8535 138.821 43.0048C139.175 43.1571 139.45 43.3518 139.646 43.5896L139.33 43.8897C139.134 43.6672 138.88 43.5006 138.567 43.3893C138.254 43.2777 137.921 43.2221 137.566 43.2221C137.348 43.2221 137.143 43.2447 136.951 43.2888C136.758 43.3337 136.591 43.4043 136.447 43.5006C136.304 43.5969 136.191 43.7214 136.108 43.8727C136.026 44.025 135.984 44.2048 135.984 44.4127C135.984 44.5831 136.012 44.7204 136.069 44.8244C136.125 44.928 136.216 45.017 136.34 45.0911C136.465 45.1659 136.624 45.2305 136.821 45.2862C137.017 45.3418 137.25 45.403 137.521 45.4701C137.89 45.5591 138.218 45.644 138.505 45.7254C138.791 45.8078 139.03 45.9076 139.223 46.0265C139.415 46.1454 139.562 46.2859 139.663 46.449C139.765 46.6124 139.816 46.8203 139.816 47.0724C139.816 47.5919 139.61 48.0054 139.2 48.3131C138.789 48.6209 138.241 48.7749 137.555 48.7749Z" fill="#263958"/>
<path fill-rule="evenodd" clip-rule="evenodd" d="M141.127 48.6631H141.692V42.8766H141.127V48.6631ZM141.127 41.5641H141.692V40.54H141.127V41.5641Z" fill="#263958"/>
<path fill-rule="evenodd" clip-rule="evenodd" d="M152.102 48.6632H151.537V45.4359C151.537 44.7015 151.422 44.1605 151.193 43.8113C150.962 43.4629 150.61 43.2884 150.136 43.2884C149.894 43.2884 149.665 43.3332 149.446 43.4222C149.227 43.5113 149.028 43.6354 148.847 43.795C148.666 43.9546 148.51 44.1434 148.378 44.3621C148.246 44.5816 148.142 44.8239 148.067 45.091V48.6632H147.502V45.4359C147.502 44.6942 147.389 44.1507 147.163 43.8058C146.937 43.4608 146.586 43.2884 146.112 43.2884C145.87 43.2884 145.643 43.3311 145.428 43.4167C145.213 43.5015 145.015 43.6246 144.834 43.7835C144.654 43.9431 144.493 44.1326 144.354 44.3514C144.215 44.5701 144.107 44.8131 144.032 45.0798V48.6632H143.467V42.8767H143.998V44.2568C144.239 43.7894 144.555 43.4261 144.948 43.166C145.339 42.9066 145.773 42.7769 146.247 42.7769C146.745 42.7769 147.148 42.9215 147.457 43.2108C147.766 43.5001 147.95 43.8785 148.011 44.3458C148.568 43.2998 149.337 42.7769 150.316 42.7769C150.957 42.7769 151.415 43.0011 151.69 43.4501C151.965 43.899 152.102 44.5277 152.102 45.3361V48.6632Z" fill="#263958"/>
<path fill-rule="evenodd" clip-rule="evenodd" d="M156.544 48.2739C156.883 48.2739 157.192 48.204 157.471 48.0628C157.75 47.922 157.987 47.7346 158.183 47.5009C158.379 47.2672 158.53 46.9998 158.635 46.6997C158.741 46.3993 158.794 46.0933 158.794 45.7814C158.794 45.4479 158.733 45.1308 158.612 44.83C158.492 44.5296 158.325 44.265 158.11 44.0348C157.895 43.8049 157.644 43.621 157.358 43.484C157.072 43.3466 156.767 43.2781 156.443 43.2781C156.239 43.2781 156.022 43.3209 155.793 43.4057C155.563 43.4913 155.346 43.606 155.143 43.7507C154.939 43.8953 154.766 44.0605 154.623 44.2458C154.479 44.4312 154.397 44.6283 154.374 44.8359V46.7383C154.472 46.9536 154.596 47.1539 154.747 47.3392C154.898 47.5249 155.067 47.6883 155.256 47.8291C155.444 47.9703 155.648 48.0795 155.866 48.157C156.084 48.2353 156.311 48.2739 156.544 48.2739ZM156.68 48.7749C156.175 48.7749 155.725 48.6431 155.329 48.3799C154.933 48.1163 154.615 47.7957 154.374 47.4174V51.0337H153.809V42.8771H154.329V44.0347C154.57 43.6637 154.889 43.3615 155.284 43.1279C155.68 42.8942 156.104 42.7773 156.556 42.7773C156.963 42.7773 157.339 42.8622 157.686 43.0329C158.033 43.204 158.33 43.4279 158.579 43.7065C158.828 43.9843 159.022 44.3056 159.161 44.669C159.301 45.0323 159.37 45.403 159.37 45.7813C159.37 46.1819 159.306 46.5644 159.178 46.9278C159.05 47.2912 158.867 47.6104 158.63 47.8847C158.392 48.1591 158.108 48.3764 157.776 48.5353C157.445 48.6949 157.08 48.7749 156.68 48.7749Z" fill="#263958"/>
<path fill-rule="evenodd" clip-rule="evenodd" d="M160.771 40.54H161.348V47.5168C161.348 47.7324 161.41 47.9028 161.534 48.029C161.659 48.1552 161.83 48.2178 162.049 48.2178C162.132 48.2178 162.231 48.2091 162.348 48.19C162.465 48.1716 162.573 48.1437 162.67 48.1072L162.783 48.552C162.655 48.6034 162.497 48.6462 162.309 48.6796C162.12 48.713 161.958 48.73 161.823 48.73C161.506 48.73 161.252 48.6354 161.06 48.4459C160.868 48.2571 160.771 48.0033 160.771 47.6841V40.54Z" fill="#263958"/>
<path fill-rule="evenodd" clip-rule="evenodd" d="M168.457 45.5472C168.435 45.2064 168.358 44.8945 168.226 44.6125C168.094 44.3308 167.924 44.0878 167.717 43.884C167.51 43.6802 167.271 43.5206 166.999 43.4052C166.728 43.2904 166.438 43.2327 166.129 43.2327C165.82 43.2327 165.53 43.2904 165.258 43.4052C164.988 43.5206 164.748 43.6802 164.541 43.884C164.333 44.0878 164.168 44.3329 164.043 44.618C163.919 44.9039 163.846 45.2137 163.823 45.5472H168.457ZM166.152 48.7744C165.737 48.7744 165.353 48.6944 164.999 48.5348C164.644 48.3759 164.337 48.1565 164.078 47.8787C163.817 47.6001 163.614 47.2795 163.467 46.9158C163.32 46.5525 163.247 46.163 163.247 45.7475C163.247 45.3399 163.32 44.9557 163.467 44.5958C163.614 44.2363 163.815 43.9212 164.072 43.6503C164.328 43.3795 164.631 43.166 164.982 43.0105C165.332 42.8544 165.711 42.7769 166.118 42.7769C166.532 42.7769 166.917 42.8565 167.271 43.0161C167.625 43.1757 167.93 43.3909 168.186 43.6611C168.442 43.932 168.642 44.2474 168.785 44.6073C168.928 44.9672 169 45.3469 169 45.7475V45.8869C169 45.9425 168.996 45.9777 168.989 45.9926H163.834C163.857 46.3261 163.936 46.6359 164.072 46.9217C164.208 47.2069 164.379 47.4541 164.586 47.6613C164.793 47.8693 165.033 48.032 165.304 48.1509C165.575 48.2699 165.865 48.329 166.174 48.329C166.378 48.329 166.577 48.3012 166.773 48.2455C166.969 48.1899 167.152 48.1144 167.321 48.0174C167.491 47.9214 167.641 47.8046 167.773 47.6669C167.906 47.5296 168.009 47.3797 168.084 47.2166L168.582 47.3498C168.499 47.5574 168.376 47.749 168.215 47.9228C168.053 48.0974 167.864 48.2476 167.649 48.3738C167.434 48.5001 167.199 48.5978 166.943 48.6687C166.686 48.7393 166.423 48.7744 166.152 48.7744Z" fill="#263958"/>
</svg>
