<svg width="134" height="151" xmlns="http://www.w3.org/2000/svg" xmlns:xlink="http://www.w3.org/1999/xlink">
  <defs>
    <path id="a" d="M0 0h133.342v150.479H0z"/>
  </defs>
  <g fill="none" fill-rule="evenodd">
    <mask id="b" fill="#fff">
      <use xlink:href="#a"/>
    </mask>
    <path d="M75.82.438c-3.034.531-6.092 1.549-9.149 3.119C29.97 22.358.001 38.739.001 75.35c0 32.281 21.513 69.139 46.85 74.475 5.717 1.205 11.63.792 17.532-1.629.19-.078.377-.151.567-.232a30.34 30.34 0 001.248-.575l.07-.034c.135-.064.27-.121.403-.188 34.653-17.372 66.671-31.545 66.671-71.817 0-37.278-27.523-80.161-57.523-74.912" fill="currentColor" mask="url(#b)"/>
  </g>
</svg>