<svg width="117" height="93" viewBox="0 0 117 93" fill="none" xmlns="http://www.w3.org/2000/svg">
<mask id="mask0" mask-type="alpha" maskUnits="userSpaceOnUse" x="0" y="70" width="10" height="13">
<path fill-rule="evenodd" clip-rule="evenodd" d="M0 70.1248V82.7346H9.55441V70.1248L0 70.1248L0 70.1248Z" fill="white"/>
</mask>
<g mask="url(#mask0)">
<path fill-rule="evenodd" clip-rule="evenodd" d="M6.44707 80.2433C6.80361 79.9513 6.98281 79.5258 6.98281 78.9659C6.98281 78.4067 6.80115 77.9749 6.43783 77.6713C6.07513 77.3677 5.56033 77.2155 4.89343 77.2155H2.51772V80.6806H4.91129C5.57758 80.6806 6.08991 80.5352 6.44707 80.2433ZM2.51772 75.4116H4.78629C5.41686 75.4116 5.89594 75.2718 6.22416 74.9922C6.55052 74.7126 6.71432 74.3104 6.71432 73.7869C6.71432 73.2627 6.55422 72.8575 6.23155 72.5717C5.91133 72.2865 5.41686 72.1437 4.75057 72.1437H2.51772V75.4116ZM8.86712 77.3141C9.32404 77.8801 9.55435 78.5434 9.55435 79.3059C9.55435 80.3652 9.20027 81.2016 8.49149 81.815C7.78333 82.4285 6.7562 82.7346 5.4107 82.7346H-0.000244141V70.1248H5.30417C6.57762 70.1248 7.55734 70.405 8.24087 70.9648C8.92562 71.5241 9.26862 72.3099 9.26862 73.3219C9.26862 74.1084 9.06295 74.7514 8.65221 75.2515C8.24087 75.7516 7.70267 76.0786 7.03638 76.2332C7.7975 76.3884 8.40836 76.7487 8.86712 77.3141Z" fill="white"/>
</g>
<path fill-rule="evenodd" clip-rule="evenodd" d="M15.625 76.0903H17.6965C19.1375 76.0903 19.858 75.4535 19.858 74.1792C19.858 73.5719 19.6818 73.0989 19.3308 72.7596C18.9792 72.4202 18.4349 72.2502 17.6965 72.2502H15.625V76.0903ZM19.6794 82.7346L16.7328 77.8228H15.625V82.7346H13.1077V70.1248H17.9114C19.3758 70.1248 20.4916 70.482 21.2595 71.1964C22.0274 71.9108 22.4116 72.8519 22.4116 74.0184C22.4116 74.9712 22.1462 75.7688 21.6166 76.4118C21.0871 77.0548 20.3223 77.4835 19.3222 77.6978L22.4646 82.7346H19.6794Z" fill="white"/>
<path fill-rule="evenodd" clip-rule="evenodd" d="M32.8942 78.2871L31.037 72.9646L29.1804 78.2871H32.8942ZM33.5735 80.1983H28.5197L27.6262 82.7345H24.9653L29.6084 70.2676H32.4829L37.1087 82.7345H34.4479L33.5735 80.1983Z" fill="white"/>
<path fill-rule="evenodd" clip-rule="evenodd" d="M50.9307 82.7346H48.4128L42.7697 74.1613V82.7346H40.2517V70.1248H42.7697L48.4128 78.7694V70.1248H50.9307V82.7346Z" fill="white"/>
<path fill-rule="evenodd" clip-rule="evenodd" d="M62.4221 79.4124C63.166 78.698 63.5379 77.6978 63.5379 76.4118C63.5379 75.1141 63.166 74.1077 62.4221 73.3933C61.6782 72.6789 60.6277 72.3216 59.2699 72.3216H57.5204V80.4841H59.2699C60.6277 80.4841 61.6782 80.1269 62.4221 79.4124ZM65.3064 79.7161C64.7824 80.6689 64.0238 81.4104 63.0293 81.9401C62.0354 82.4697 60.8537 82.7346 59.4842 82.7346H55.0024V70.1248H59.4842C60.8537 70.1248 62.0354 70.3834 63.0293 70.902C64.0238 71.4194 64.7824 72.1517 65.3064 73.0989C65.8299 74.0455 66.0916 75.1498 66.0916 76.4118C66.0916 77.6621 65.8299 78.7633 65.3064 79.7161Z" fill="white"/>
<path fill-rule="evenodd" clip-rule="evenodd" d="M35.1494 0C35.1494 0 67.6594 12.276 66.9697 30.039H66.9802V60.078C66.9802 60.078 34.4702 47.8026 35.1605 30.039H35.1494V0Z" fill="white"/>
<path fill-rule="evenodd" clip-rule="evenodd" d="M95.9302 53.0496C101.958 48.9041 109.024 46.2157 116.58 45.4372V36.0312C112.209 37.7108 108.102 40.1269 104.424 43.2452C101.055 46.1011 98.2098 49.4109 95.9302 53.0496Z" fill="white"/>
<mask id="mask1" mask-type="alpha" maskUnits="userSpaceOnUse" x="71" y="6" width="46" height="87">
<path fill-rule="evenodd" clip-rule="evenodd" d="M116.58 92.5152H71.2517L71.2517 6.96265H116.58V92.5152Z" fill="white"/>
</mask>
<g mask="url(#mask1)">
<path fill-rule="evenodd" clip-rule="evenodd" d="M92.2366 55.8794C94.8654 50.5624 98.57 45.7855 103.23 41.8352C107.254 38.4237 111.769 35.816 116.58 34.0564V6.96265C116.58 6.96265 70.2849 24.4436 71.2671 49.739H71.2517V92.5153C71.2517 92.5153 73.3177 91.7343 76.5611 90.2685C76.5487 88.8963 76.5931 87.5167 76.707 86.1321C77.7138 73.9239 83.578 63.2609 92.2366 55.8794Z" fill="white"/>
</g>
<path fill-rule="evenodd" clip-rule="evenodd" d="M87.8372 71.7725C88.0847 68.7707 88.6328 65.8421 89.4549 63.0151C84.0538 69.3903 80.513 77.4412 79.7753 86.3859C79.7081 87.2013 79.6724 88.0143 79.6521 88.8254C82.2821 87.5585 85.3414 85.9849 88.5564 84.1311C87.7479 80.1167 87.4911 75.9668 87.8372 71.7725Z" fill="white"/>
<path fill-rule="evenodd" clip-rule="evenodd" d="M89.6785 71.9245C89.3651 75.7245 89.5714 79.4864 90.2488 83.1374C102.899 75.5693 117.114 63.8754 116.565 49.7394H116.581V48.5347C107.374 49.5534 98.9733 53.6207 92.5136 59.776C90.9908 63.6118 90.0271 67.6945 89.6785 71.9245Z" fill="white"/>
</svg>
