<svg width="101" height="110" viewBox="0 0 101 110" fill="none" xmlns="http://www.w3.org/2000/svg">
<path fill-rule="evenodd" clip-rule="evenodd" d="M54.3792 13.1074C70.3058 22.5972 75.5446 43.2371 66.0816 59.2077C62.7937 64.7551 58.1628 69.0062 52.8531 71.7988C64.1167 71.6244 75.0295 65.7701 81.2064 55.3474C90.6701 39.3774 85.4313 18.7369 69.5046 9.24647C59.1107 3.05305 46.7343 3.14299 36.7585 8.38957C42.7531 8.29719 48.847 9.81106 54.3792 13.1074Z" fill="white"/>
<path fill-rule="evenodd" clip-rule="evenodd" d="M16.0364 62.1684C17.5952 67.6763 20.2328 72.7515 23.68 77.1709C26.1873 78.9838 28.8818 80.5493 31.7309 81.8365C27.6406 76.9613 24.5388 71.2328 22.7685 64.9755C20.3376 56.3834 20.2685 47.6861 22.274 39.6342C20.8715 35.6268 19.9976 31.3702 19.7467 26.9453C14.0958 37.3285 12.5534 49.8587 16.0364 62.1684Z" fill="white"/>
<path fill-rule="evenodd" clip-rule="evenodd" d="M24.381 64.5167C26.4034 71.6637 30.2331 78.0886 35.3137 83.2805C40.1301 84.9846 45.3077 85.9211 50.7059 85.9211C67.3798 85.9211 81.9889 77.0713 90.1295 63.8038C83.0877 68.1491 74.7992 70.6591 65.9252 70.6591C46.8246 70.6591 30.4313 59.0495 23.3713 42.4851C22.0113 49.5628 22.2762 57.0799 24.381 64.5167Z" fill="white"/>
<path fill-rule="evenodd" clip-rule="evenodd" d="M19.6744 23.7308C19.7738 15.036 22.2568 6.91785 26.5017 0C13.2708 8.16309 4.44531 22.8125 4.44531 39.5331C4.44531 52.8401 10.0423 64.8307 18.9944 73.2898C17.038 69.974 15.4908 66.3956 14.4241 62.6265C10.5429 48.9117 12.6835 34.9265 19.6744 23.7308Z" fill="white"/>
<path fill-rule="evenodd" clip-rule="evenodd" d="M37.2296 17.8982C37.2296 17.8982 25.7902 48.793 56.3538 59.5487C68.0756 29.2695 37.2296 17.8982 37.2296 17.8982Z" fill="white"/>
<path fill-rule="evenodd" clip-rule="evenodd" d="M2.76509 108.821C1.90085 108.35 1.22388 107.7 0.73479 106.869C0.245093 106.039 0.000244141 105.101 0.000244141 104.058C0.000244141 103.015 0.247517 102.078 0.741456 101.247C1.23721 100.417 1.916 99.7662 2.78024 99.2952C3.64267 98.8242 4.61055 98.5884 5.68146 98.5884C6.54994 98.5884 7.34327 98.7403 8.05964 99.0442C8.77721 99.348 9.38327 99.7893 9.87782 100.366L8.6057 101.566C7.83843 100.736 6.89358 100.321 5.77237 100.321C5.04509 100.321 4.39418 100.48 3.81721 100.799C3.24206 101.118 2.79237 101.561 2.46873 102.128C2.1463 102.696 1.98509 103.339 1.98509 104.058C1.98509 104.778 2.1463 105.421 2.46873 105.988C2.79237 106.555 3.24206 106.998 3.81721 107.317C4.39418 107.636 5.04509 107.796 5.77237 107.796C6.89358 107.796 7.83843 107.376 8.6057 106.535L9.87782 107.75C9.38327 108.328 8.77418 108.768 8.05297 109.072C7.33055 109.376 6.5354 109.528 5.6663 109.528C4.596 109.528 3.62873 109.292 2.76509 108.821Z" fill="white"/>
<mask id="mask0" mask-type="alpha" maskUnits="userSpaceOnUse" x="13" y="98" width="13" height="12">
<path fill-rule="evenodd" clip-rule="evenodd" d="M25.2422 109.528H13.8174L13.8174 98.5889H25.2422V109.528Z" fill="white"/>
</mask>
<g mask="url(#mask0)">
<path fill-rule="evenodd" clip-rule="evenodd" d="M21.4392 107.317C22.0047 106.999 22.4489 106.553 22.7713 105.981C23.095 105.408 23.2574 104.768 23.2574 104.058C23.2574 103.35 23.095 102.709 22.7713 102.137C22.4489 101.564 22.0047 101.119 21.4392 100.799C20.8725 100.48 20.2368 100.321 19.5295 100.321C18.8234 100.321 18.1859 100.48 17.6198 100.799C17.0544 101.119 16.6107 101.564 16.2877 102.137C15.9647 102.709 15.8016 103.35 15.8016 104.058C15.8016 104.768 15.9647 105.408 16.2877 105.981C16.6107 106.553 17.0544 106.999 17.6198 107.317C18.1859 107.636 18.8234 107.796 19.5295 107.796C20.2368 107.796 20.8725 107.636 21.4392 107.317ZM16.6059 108.822C15.7374 108.35 15.0556 107.697 14.5598 106.861C14.0653 106.026 13.8174 105.092 13.8174 104.058C13.8174 103.025 14.0653 102.091 14.5598 101.255C15.0556 100.419 15.7374 99.766 16.6059 99.2957C17.4744 98.8241 18.4483 98.5889 19.5295 98.5889C20.6101 98.5889 21.5853 98.8241 22.4544 99.2957C23.3222 99.766 24.004 100.417 24.4998 101.248C24.9944 102.078 25.2422 103.016 25.2422 104.058C25.2422 105.101 24.9944 106.038 24.4998 106.869C24.004 107.7 23.3222 108.35 22.4544 108.822C21.5853 109.292 20.6101 109.528 19.5295 109.528C18.4483 109.528 17.4744 109.292 16.6059 108.822Z" fill="white"/>
</g>
<path fill-rule="evenodd" clip-rule="evenodd" d="M40.1053 109.376L40.0902 102.326L36.6059 108.16H35.7266L32.2417 102.417V109.376H30.3635V98.7405H31.9847L36.1963 105.791L40.3326 98.7405H41.9538L41.9696 109.376H40.1053Z" fill="white"/>
<path fill-rule="evenodd" clip-rule="evenodd" d="M54.0902 104.089C54.5344 103.724 54.7575 103.202 54.7575 102.524C54.7575 101.845 54.5344 101.323 54.0902 100.959C53.6459 100.594 52.9938 100.412 52.135 100.412H49.8326V104.636H52.135C52.9938 104.636 53.6459 104.454 54.0902 104.089ZM54.6284 99.1963C55.3096 99.5001 55.8326 99.9359 56.1963 100.504C56.5599 101.071 56.7417 101.745 56.7417 102.524C56.7417 103.294 56.5599 103.965 56.1963 104.537C55.8326 105.11 55.3096 105.547 54.6284 105.851C53.946 106.155 53.1453 106.307 52.2266 106.307H49.8326V109.376H47.8635V98.7405H52.2266C53.1453 98.7405 53.946 98.8924 54.6284 99.1963Z" fill="white"/>
<path fill-rule="evenodd" clip-rule="evenodd" d="M67.4389 105.365L65.4389 100.716L63.4541 105.365H67.4389ZM68.0905 106.915H62.7874L61.7426 109.376H59.7117L64.4844 98.7407H66.4238L71.2123 109.376H69.1511L68.0905 106.915Z" fill="white"/>
<path fill-rule="evenodd" clip-rule="evenodd" d="M85.0141 98.7405V109.376H83.3935L77.545 102.174V109.376H75.5898V98.7405H77.2111L83.0595 105.943V98.7405H85.0141Z" fill="white"/>
<mask id="mask1" mask-type="alpha" maskUnits="userSpaceOnUse" x="89" y="98" width="11" height="12">
<path fill-rule="evenodd" clip-rule="evenodd" d="M99.6205 109.376V98.7407L89.3323 98.7407V109.376H99.6205Z" fill="white"/>
</mask>
<g mask="url(#mask1)">
<path fill-rule="evenodd" clip-rule="evenodd" d="M95.4686 105.623V109.376H93.4989V105.654L89.3323 98.7407H91.4389L94.545 103.922L97.6808 98.7407H99.6208L95.4686 105.623Z" fill="white"/>
</g>
</svg>
