<svg width="131" height="95" viewBox="0 0 131 95" fill="none" xmlns="http://www.w3.org/2000/svg">
<path fill-rule="evenodd" clip-rule="evenodd" d="M26.8585 46.7036C21.9775 46.7036 17.9844 42.7227 17.9844 37.8566V37.856C17.9844 32.99 21.9775 29.009 26.8585 29.009C31.7394 29.009 35.7325 32.99 35.7325 37.856V37.8566C35.7325 42.7227 31.7394 46.7036 26.8585 46.7036Z" fill="#263958"/>
<mask id="mask0" mask-type="alpha" maskUnits="userSpaceOnUse" x="40" y="0" width="53" height="64">
<path fill-rule="evenodd" clip-rule="evenodd" d="M40.9822 0.583008H92.3418V63.5958H40.9822V0.583008V0.583008Z" fill="white"/>
</mask>
<g mask="url(#mask0)">
<path fill-rule="evenodd" clip-rule="evenodd" d="M92.3418 26.1848C92.3418 12.1038 80.7851 0.583008 66.6617 0.583008C52.5377 0.583008 40.9822 12.1038 40.9822 26.1848V63.596C40.9822 63.596 92.3365 57.8956 92.3412 26.1889C92.3412 26.1871 92.3418 26.1859 92.3418 26.1848Z" fill="#263958"/>
</g>
<mask id="mask1" mask-type="alpha" maskUnits="userSpaceOnUse" x="0" y="49" width="36" height="45">
<path fill-rule="evenodd" clip-rule="evenodd" d="M0 93.6915V49.8523L35.7325 49.8523V93.6915H0H0Z" fill="white"/>
</mask>
<g mask="url(#mask1)">
<path fill-rule="evenodd" clip-rule="evenodd" d="M17.8663 80.5609C15.2843 80.5609 13.1713 78.4544 13.1713 75.8803C13.1713 73.3061 15.2843 71.199 17.8663 71.199C20.4489 71.199 22.5612 73.3061 22.5612 75.8803C22.5612 78.4544 20.4489 80.5609 17.8663 80.5609ZM0 75.8762V75.8803C0 85.6759 8.03954 93.6915 17.8663 93.6915C27.6931 93.6915 35.7326 85.6759 35.7326 75.8803V49.8523C35.7326 49.8523 0.00467857 53.8175 0 75.8762Z" fill="#263958"/>
</g>
<path fill-rule="evenodd" clip-rule="evenodd" d="M44.3333 82.5845C43.3823 82.0686 42.6373 81.3561 42.0981 80.4466C41.5577 79.537 41.2881 78.5114 41.2881 77.3693C41.2881 76.2271 41.5606 75.201 42.1057 74.2908C42.6501 73.3819 43.3987 72.6688 44.3502 72.1528C45.3017 71.638 46.3667 71.3792 47.5463 71.3792C48.5024 71.3792 49.3756 71.5453 50.1657 71.8788C50.9558 72.2117 51.623 72.6939 52.1675 73.3259L50.7663 74.6407C49.9212 73.7305 48.8808 73.2764 47.6457 73.2764C46.8451 73.2764 46.1275 73.4507 45.4935 73.8005C44.859 74.1497 44.3642 74.6348 44.0081 75.2558C43.6519 75.8773 43.4741 76.581 43.4741 77.3693C43.4741 78.1558 43.6519 78.8607 44.0081 79.4816C44.3642 80.1031 44.859 80.5876 45.4935 80.9375C46.1275 81.2861 46.8451 81.461 47.6457 81.461C48.8808 81.461 49.9212 81.001 50.7663 80.0804L52.1675 81.4115C51.623 82.0435 50.9523 82.5257 50.1569 82.8592C49.3621 83.1915 48.4855 83.3577 47.5293 83.3577C46.3497 83.3577 45.2848 83.1005 44.3333 82.5845Z" fill="#263958"/>
<path fill-rule="evenodd" clip-rule="evenodd" d="M61.5632 80.9372C62.1861 80.5874 62.675 80.0994 63.0317 79.4732C63.3879 78.847 63.5657 78.1451 63.5657 77.369C63.5657 76.5924 63.3879 75.891 63.0317 75.2643C62.675 74.6375 62.1861 74.1495 61.5632 73.8003C60.9404 73.4504 60.2386 73.2761 59.4596 73.2761C58.6818 73.2761 57.9806 73.4504 57.3584 73.8003C56.7344 74.1495 56.2454 74.6375 55.8893 75.2643C55.5325 75.891 55.3559 76.5924 55.3559 77.369C55.3559 78.1451 55.5325 78.847 55.8893 79.4732C56.2454 80.0994 56.7344 80.5874 57.3584 80.9372C57.9806 81.2865 58.6818 81.4608 59.4596 81.4608C60.2386 81.4608 60.9404 81.2865 61.5632 80.9372ZM56.239 82.5843C55.2828 82.0683 54.5325 81.3535 53.9869 80.4381C53.4406 79.5228 53.1687 78.4995 53.1687 77.369C53.1687 76.2368 53.4406 75.2147 53.9869 74.2988C54.5325 73.3846 55.2828 72.6686 56.239 72.1532C57.1964 71.6378 58.2695 71.3789 59.4596 71.3789C60.6509 71.3789 61.7241 71.6378 62.6808 72.1532C63.6382 72.6686 64.3885 73.3816 64.9341 74.2912C65.4786 75.2007 65.7517 76.2269 65.7517 77.369C65.7517 78.5112 65.4786 79.5374 64.9341 80.4463C64.3885 81.3558 63.6382 82.0683 62.6808 82.5843C61.7241 83.1003 60.6509 83.3574 59.4596 83.3574C58.2695 83.3574 57.1964 83.1003 56.239 82.5843Z" fill="#263958"/>
<path fill-rule="evenodd" clip-rule="evenodd" d="M78.7847 83.1913L78.7684 75.4719L74.9302 81.8603H73.9617L70.1235 75.5722V83.1913H68.0544V71.5452H69.8405L74.4793 79.2652L79.0351 71.5452H80.8205L80.8375 83.1913H78.7847Z" fill="#263958"/>
<path fill-rule="evenodd" clip-rule="evenodd" d="M90.849 77.402C91.3379 77.0021 91.5836 76.4318 91.5836 75.6885C91.5836 74.9457 91.3379 74.3743 90.849 73.9743C90.3595 73.5761 89.6425 73.3761 88.6957 73.3761H86.1599V78.0008H88.6957C89.6425 78.0008 90.3595 77.8014 90.849 77.402ZM91.442 72.0451C92.1929 72.378 92.7684 72.8549 93.169 73.4758C93.5684 74.0968 93.7696 74.8343 93.7696 75.6885C93.7696 76.5315 93.5684 77.2668 93.169 77.8929C92.7684 78.5191 92.1929 78.999 91.442 79.3319C90.6905 79.6648 89.8092 79.831 88.7969 79.831H86.1599V83.1916H83.9902V71.5454H88.7969C89.8092 71.5454 90.6905 71.7122 91.442 72.0451Z" fill="#263958"/>
<path fill-rule="evenodd" clip-rule="evenodd" d="M102.214 78.7992L100.011 73.7087L97.825 78.7992H102.214ZM102.931 80.4959H97.0905L95.939 83.1912H93.7026L98.959 71.5457H101.095L106.368 83.1912H104.1L102.931 80.4959Z" fill="#263958"/>
<path fill-rule="evenodd" clip-rule="evenodd" d="M118.233 71.5454V83.1916H116.448L110.007 75.3054V83.1916H107.854V71.5454H109.639L116.08 79.431V71.5454H118.233Z" fill="#263958"/>
<path fill-rule="evenodd" clip-rule="evenodd" d="M126.41 79.0823V83.1916H124.241V79.1162L119.652 71.5454H121.971L125.392 77.2189L128.846 71.5454H130.982L126.41 79.0823Z" fill="#263958"/>
</svg>
