<svg width="99" height="103" viewBox="0 0 99 103" fill="none" xmlns="http://www.w3.org/2000/svg">
<path fill-rule="evenodd" clip-rule="evenodd" d="M24.0457 0L0.000244141 41.9077L24.0457 83.8153H72.1361L96.1833 41.9077L72.1361 0H24.0457ZM66.3558 3.45711H69.1224L47.7575 40.6923L49.4688 43.6743L70.8742 6.36698L72.7199 9.57998L51.3134 46.8891L70.0131 79.4804L69.8314 79.7967H26.351L4.61139 41.9077L26.351 4.01811H26.7144L31.6427 12.6073L36.8928 3.45711H37.5847L31.989 13.2101L34.6297 17.8122L42.8667 3.45711H43.7882L35.091 18.6156L37.5591 22.9168L48.7245 3.45711H50.1078L38.2505 24.123L40.4869 28.0213L54.5817 3.45711H56.4263L41.4094 29.6287L43.4453 33.1764L60.4975 3.45711H62.8034L44.598 35.1854L46.3748 38.2809L66.3558 3.45711Z" fill="white"/>
<mask id="mask0" mask-type="alpha" maskUnits="userSpaceOnUse" x="0" y="93" width="8" height="9">
<path fill-rule="evenodd" clip-rule="evenodd" d="M0.410889 101.469H7.20374V93.7766H0.410889V101.469H0.410889Z" fill="white"/>
</mask>
<g mask="url(#mask0)">
<path fill-rule="evenodd" clip-rule="evenodd" d="M5.77205 99.2382C5.77205 98.4978 5.22306 98.1282 4.12281 98.1282H1.83062V100.348H4.12281C5.22306 100.348 5.77205 99.978 5.77205 99.2382ZM1.83062 94.8975V97.0183H3.83978C4.33523 97.0183 4.71565 96.9289 4.98103 96.7489C5.24641 96.5696 5.37967 96.3077 5.37967 95.9633C5.37967 95.612 5.24641 95.3462 4.98103 95.1668C4.71565 94.9874 4.33523 94.8975 3.83978 94.8975H1.83062ZM6.83187 98.1666C7.07959 98.4927 7.20374 98.8972 7.20374 99.3809C7.20374 100.048 6.94747 100.562 6.43892 100.925C5.92923 101.287 5.18661 101.469 4.21108 101.469H0.410889V93.7766H3.99297C4.89561 93.7766 5.59095 93.9543 6.07843 94.3095C6.56648 94.6654 6.81023 95.1542 6.81023 95.7765C6.81023 96.1576 6.72309 96.4945 6.54769 96.7879C6.37343 97.0807 6.13253 97.3076 5.82729 97.4692C6.24985 97.6079 6.58471 97.8411 6.83187 98.1666Z" fill="white"/>
</g>
<mask id="mask1" mask-type="alpha" maskUnits="userSpaceOnUse" x="10" y="93" width="8" height="9">
<path fill-rule="evenodd" clip-rule="evenodd" d="M10.9053 101.469H17.4356V93.7766H10.9053V101.469H10.9053Z" fill="white"/>
</mask>
<g mask="url(#mask1)">
<path fill-rule="evenodd" clip-rule="evenodd" d="M15.3934 95.3811C15.0734 95.1175 14.603 94.9857 13.9845 94.9857H12.325V98.0514H13.9845C14.603 98.0514 15.0734 97.9179 15.3934 97.6503C15.7135 97.3827 15.8735 97.0039 15.8735 96.5128C15.8735 96.0223 15.7135 95.6447 15.3934 95.3811ZM15.9065 101.469L14.345 99.2158C14.2795 99.2233 14.1815 99.2267 14.0506 99.2267H12.325V101.469H10.9053V93.7766H14.0506C14.7129 93.7766 15.2898 93.8866 15.7812 94.1061C16.2727 94.3262 16.6491 94.6413 16.9117 95.0516C17.1736 95.4619 17.304 95.949 17.304 96.5128C17.304 97.0916 17.1645 97.5896 16.8843 98.0073C16.6041 98.4251 16.2009 98.7362 15.6776 98.9414L17.4356 101.469H15.9065Z" fill="white"/>
</g>
<path fill-rule="evenodd" clip-rule="evenodd" d="M25.5607 98.5677L24.1193 95.2052L22.6888 98.5677H25.5607ZM26.0306 99.6886H22.2081L21.4547 101.468H19.9917L23.4314 93.7766H24.8289L28.28 101.468H26.7942L26.0306 99.6886Z" fill="white"/>
<path fill-rule="evenodd" clip-rule="evenodd" d="M38.2281 93.7769V101.469H37.0601L32.8447 96.2604V101.469H31.4358V93.7769H32.6044L36.8197 98.9852V93.7769H38.2281Z" fill="white"/>
<path fill-rule="evenodd" clip-rule="evenodd" d="M45.7421 100.26C46.3025 100.26 46.7962 100.152 47.2216 99.9356C47.6476 99.7195 47.975 99.4124 48.2046 99.013C48.4341 98.6136 48.5485 98.15 48.5485 97.6228C48.5485 97.095 48.4341 96.632 48.2046 96.2326C47.975 95.8332 47.6476 95.5255 47.2216 95.3095C46.7962 95.0934 46.3025 94.9851 45.7421 94.9851H43.885V100.26H45.7421ZM42.4658 93.7766H45.8076C46.6231 93.7766 47.3469 93.9359 47.9807 94.2545C48.614 94.5731 49.1049 95.0241 49.4551 95.6063C49.8042 96.1885 49.9791 96.8607 49.9791 97.6228C49.9791 98.3849 49.8042 99.0565 49.4551 99.6393C49.1049 100.222 48.614 100.672 47.9807 100.991C47.3469 101.31 46.6231 101.468 45.8076 101.468H42.4658V93.7766Z" fill="white"/>
<path fill-rule="evenodd" clip-rule="evenodd" d="M65.6608 93.7769V101.469H64.4922L60.2768 96.2604V101.469H58.8679V93.7769H60.0365L64.2519 98.9852V93.7769H65.6608Z" fill="white"/>
<path fill-rule="evenodd" clip-rule="evenodd" d="M74.3859 98.5677L72.9445 95.2052L71.514 98.5677H74.3859ZM74.8552 99.6886H71.0333L70.2793 101.468H68.8169L72.2566 93.7766H73.6547L77.1052 101.468H75.62L74.8552 99.6886Z" fill="white"/>
<path fill-rule="evenodd" clip-rule="evenodd" d="M87.2835 101.469L87.2721 96.3698L84.7607 100.59H84.1274L81.616 96.4357V101.469H80.2617V93.7769H81.4303L84.4662 98.8757L87.4475 93.7769H88.6161L88.6264 101.469H87.2835Z" fill="white"/>
<mask id="mask2" mask-type="alpha" maskUnits="userSpaceOnUse" x="92" y="93" width="7" height="9">
<path fill-rule="evenodd" clip-rule="evenodd" d="M98.6081 101.469V93.7769L92.8752 93.7769V101.469H98.6081Z" fill="white"/>
</mask>
<g mask="url(#mask2)">
<path fill-rule="evenodd" clip-rule="evenodd" d="M98.6083 100.271V101.469H92.8752V93.7769H98.4551V94.9745H94.295V96.9744H97.9853V98.1502H94.295V100.271H98.6083Z" fill="white"/>
</g>
</svg>
