<svg width="93" height="112" viewBox="0 0 93 112" fill="none" xmlns="http://www.w3.org/2000/svg">
<path fill-rule="evenodd" clip-rule="evenodd" d="M14.1865 0.000244141L30.5277 16.3375H76.1108V61.9099L92.4513 78.2472V0.000244141H14.1865Z" fill="white"/>
<path fill-rule="evenodd" clip-rule="evenodd" d="M0.458496 16.3376V91.9718H76.1106V61.91L30.5275 16.3376H0.458496ZM12.4305 30.0435H15.9121V77.4317H61.6987V80.9124H12.4305V30.0435Z" fill="white"/>
<path fill-rule="evenodd" clip-rule="evenodd" d="M6.54683 108.92C6.61049 108.92 6.66854 108.946 6.72034 108.998L7.17473 109.494C6.82395 109.901 6.39765 110.219 5.8977 110.446C5.3965 110.673 4.79293 110.787 4.08763 110.787C3.46846 110.787 2.90797 110.68 2.40552 110.467C1.90307 110.253 1.47364 109.954 1.1185 109.569C0.763349 109.184 0.488718 108.723 0.292732 108.184C0.0973691 107.646 0 107.053 0 106.407C0 105.761 0.104859 105.169 0.313329 104.63C0.523671 104.092 0.817651 103.629 1.19714 103.242C1.57538 102.855 2.02977 102.555 2.55781 102.342C3.08648 102.128 3.67069 102.022 4.30858 102.022C4.93836 102.022 5.48201 102.12 5.93889 102.315C6.3964 102.51 6.80211 102.776 7.15726 103.111L6.78026 103.643C6.75217 103.683 6.72034 103.716 6.68477 103.742C6.64856 103.768 6.59676 103.781 6.52872 103.781C6.47629 103.781 6.42137 103.761 6.36457 103.723C6.30652 103.686 6.23724 103.639 6.15797 103.583C6.07808 103.527 5.98446 103.468 5.87648 103.404C5.76912 103.34 5.64054 103.28 5.49324 103.224C5.34594 103.169 5.1743 103.122 4.97893 103.083C4.78357 103.046 4.55762 103.027 4.30234 103.027C3.84296 103.027 3.42352 103.106 3.04216 103.263C2.66142 103.421 2.33374 103.645 2.05786 103.936C1.78323 104.227 1.56852 104.582 1.41497 105.001C1.26143 105.42 1.18466 105.889 1.18466 106.407C1.18466 106.942 1.26143 107.418 1.41497 107.837C1.56852 108.256 1.77761 108.61 2.0435 108.899C2.30877 109.189 2.6221 109.409 2.98536 109.56C3.34925 109.712 3.73935 109.788 4.15941 109.788C4.41407 109.788 4.64376 109.773 4.84723 109.743C5.05009 109.713 5.23921 109.666 5.41272 109.602C5.58562 109.539 5.74728 109.457 5.8977 109.36C6.04687 109.262 6.1973 109.145 6.34959 109.01C6.417 108.95 6.48254 108.92 6.54683 108.92Z" fill="white"/>
<path fill-rule="evenodd" clip-rule="evenodd" d="M18.4684 106.407C18.4684 105.88 18.3966 105.408 18.2524 104.989C18.1095 104.571 17.9054 104.216 17.6426 103.927C17.3786 103.638 17.0596 103.416 16.6845 103.26C16.31 103.105 15.8906 103.027 15.4274 103.027C14.9693 103.027 14.5524 103.105 14.1773 103.26C13.8021 103.416 13.4819 103.638 13.2167 103.927C12.9514 104.216 12.7473 104.571 12.6037 104.989C12.4596 105.408 12.3884 105.88 12.3884 106.407C12.3884 106.934 12.4596 107.405 12.6037 107.822C12.7473 108.239 12.9514 108.592 13.2167 108.881C13.4819 109.17 13.8021 109.392 14.1773 109.545C14.5524 109.699 14.9693 109.775 15.4274 109.775C15.8906 109.775 16.31 109.699 16.6845 109.545C17.0596 109.392 17.3786 109.17 17.6426 108.881C17.9054 108.592 18.1095 108.239 18.2524 107.822C18.3966 107.405 18.4684 106.934 18.4684 106.407ZM19.6593 106.407C19.6593 107.049 19.5575 107.639 19.354 108.175C19.1506 108.712 18.8628 109.173 18.4921 109.56C18.1207 109.947 17.6751 110.247 17.1551 110.461C16.6346 110.674 16.0585 110.781 15.4274 110.781C14.7977 110.781 14.2228 110.674 13.7048 110.461C13.1861 110.247 12.7411 109.947 12.3697 109.56C11.9989 109.173 11.7118 108.712 11.5083 108.175C11.3042 107.639 11.2031 107.049 11.2031 106.407C11.2031 105.765 11.3042 105.176 11.5083 104.639C11.7118 104.103 11.9989 103.64 12.3697 103.251C12.7411 102.862 13.1861 102.56 13.7048 102.345C14.2228 102.129 14.7977 102.021 15.4274 102.021C16.0585 102.021 16.6346 102.129 17.1551 102.345C17.6751 102.56 18.1207 102.862 18.4921 103.251C18.8628 103.64 19.1506 104.103 19.354 104.639C19.5575 105.176 19.6593 105.765 19.6593 106.407Z" fill="white"/>
<path fill-rule="evenodd" clip-rule="evenodd" d="M28.6022 107.894C28.644 107.999 28.6852 108.106 28.7252 108.214C28.7651 108.102 28.8069 107.996 28.8506 107.894C28.8949 107.792 28.9449 107.689 28.9998 107.586L31.9028 102.315C31.9546 102.223 32.0089 102.167 32.0644 102.147C32.1206 102.127 32.1999 102.117 32.3041 102.117H33.1598V110.691H32.1418V104.391C32.1418 104.307 32.1443 104.217 32.1487 104.122C32.1518 104.026 32.158 103.928 32.1662 103.828L29.2276 109.189C29.1284 109.368 28.9886 109.458 28.8088 109.458H28.6409C28.4618 109.458 28.322 109.368 28.2227 109.189L25.218 103.81C25.2305 103.915 25.2392 104.016 25.2448 104.116C25.2511 104.215 25.2536 104.307 25.2536 104.391V110.691H24.2368V102.117H25.0919C25.1955 102.117 25.2754 102.127 25.3322 102.147C25.3878 102.167 25.4414 102.223 25.4939 102.315L28.4561 107.592C28.5117 107.687 28.561 107.788 28.6022 107.894Z" fill="white"/>
<path fill-rule="evenodd" clip-rule="evenodd" d="M39.5152 106.563H40.8908C41.2223 106.563 41.515 106.519 41.7678 106.431C42.0218 106.343 42.234 106.221 42.4057 106.063C42.5767 105.906 42.7065 105.717 42.7939 105.497C42.8825 105.278 42.9262 105.037 42.9262 104.774C42.9262 104.227 42.7577 103.801 42.4207 103.493C42.083 103.186 41.573 103.033 40.8908 103.033H39.5152V106.563ZM39.5152 107.484V110.691H38.3599V102.117H40.8908C41.4339 102.117 41.9057 102.18 42.3071 102.306C42.7078 102.431 43.0392 102.61 43.3032 102.841C43.5666 103.073 43.7632 103.351 43.8931 103.678C44.0229 104.006 44.0872 104.371 44.0872 104.774C44.0872 105.172 44.0173 105.537 43.8774 105.869C43.7383 106.199 43.5335 106.485 43.2645 106.724C42.9949 106.964 42.661 107.15 42.2615 107.283C41.8633 107.418 41.4058 107.484 40.8908 107.484H39.5152Z" fill="white"/>
<path fill-rule="evenodd" clip-rule="evenodd" d="M49.1561 107.508H52.3581L51.0118 104.02C50.9238 103.804 50.8376 103.535 50.7546 103.212C50.7103 103.376 50.6679 103.526 50.6254 103.664C50.5836 103.802 50.543 103.922 50.5031 104.026L49.1561 107.508ZM54.7761 110.691H53.8779C53.7743 110.691 53.6907 110.665 53.627 110.614C53.5633 110.562 53.5147 110.496 53.4835 110.416L52.6808 108.346H48.8328L48.0314 110.416C48.0033 110.487 47.9553 110.551 47.8879 110.607C47.8198 110.663 47.7362 110.691 47.6363 110.691H46.7388L50.1679 102.117H51.347L54.7761 110.691Z" fill="white"/>
<path fill-rule="evenodd" clip-rule="evenodd" d="M59.68 102.156C59.7299 102.182 59.7867 102.235 59.8504 102.315L64.8174 108.776C64.8056 108.673 64.7981 108.572 64.7937 108.474C64.79 108.376 64.7875 108.281 64.7875 108.19V102.117H65.8049V110.691H65.2188C65.1276 110.691 65.0502 110.675 64.9878 110.643C64.9267 110.611 64.8661 110.557 64.8056 110.482L59.8447 104.026C59.8522 104.126 59.8585 104.223 59.8628 104.319C59.8666 104.414 59.8691 104.502 59.8691 104.582V110.691H58.8511V102.117H59.4496C59.5539 102.117 59.6307 102.13 59.68 102.156Z" fill="white"/>
<path fill-rule="evenodd" clip-rule="evenodd" d="M74.1952 107.281V110.691H73.0398V107.281L69.8984 102.117H70.9158C71.0194 102.117 71.1012 102.143 71.1611 102.195C71.2204 102.247 71.2728 102.311 71.3172 102.386L73.2795 105.719C73.3594 105.859 73.4268 105.991 73.4799 106.114C73.5336 106.238 73.5822 106.359 73.6272 106.479C73.6702 106.355 73.7183 106.232 73.7695 106.108C73.8219 105.984 73.8881 105.855 73.968 105.719L75.9247 102.386C75.9609 102.323 76.0096 102.262 76.0714 102.204C76.1332 102.146 76.2137 102.117 76.3136 102.117H77.3434L74.1952 107.281Z" fill="white"/>
</svg>
