<svg width="16" height="16" viewBox="0 0 16 16" fill="none" xmlns="http://www.w3.org/2000/svg">
<path d="M15.3333 1.99987C14.6949 2.45019 13.988 2.79461 13.24 3.01987C12.8385 2.55821 12.3048 2.231 11.7113 2.08249C11.1178 1.93397 10.493 1.97133 9.92135 2.1895C9.34974 2.40768 8.85892 2.79614 8.51528 3.30235C8.17164 3.80856 7.99176 4.40809 7.99996 5.01987V5.68653C6.82838 5.71691 5.66748 5.45708 4.62063 4.93017C3.57379 4.40325 2.6735 3.62562 1.99996 2.66653C1.99996 2.66653 -0.666707 8.66653 5.33329 11.3332C3.96031 12.2652 2.32473 12.7325 0.666626 12.6665C6.66663 15.9999 14 12.6665 14 4.99987C13.9993 4.81417 13.9815 4.62893 13.9466 4.44653C14.627 3.77553 15.1072 2.92834 15.3333 1.99987V1.99987Z" stroke="white" stroke-linecap="round" stroke-linejoin="round"/>
</svg>
