<svg width="1440" height="3064" viewBox="0 0 1440 3064" fill="none" xmlns="http://www.w3.org/2000/svg">
<path fill-rule="evenodd" clip-rule="evenodd" d="M1095.74 396.752C1045.08 389.568 991.516 389.954 935.134 399.069C258.473 507.747 -299.34 612.753 -487.36 1191.42C-653.144 1701.65 -502.386 2394.71 -129.332 2609.17C-45.1589 2657.57 50.4222 2681.41 156.157 2673.46C159.561 2673.2 162.892 2673.01 166.311 2672.71C173.847 2671.99 181.408 2671.09 188.99 2670.03C189.415 2669.96 189.845 2669.92 190.271 2669.85C192.733 2669.53 195.144 2669.32 197.606 2668.95C834.542 2572.33 1413.4 2512.75 1620.22 1876.22C1811.67 1287.01 1596.88 467.856 1095.74 396.752Z" fill="#7AC7C4"/>
</svg>
